<svg width="486" height="630" viewBox="0 0 486 630" fill="none" xmlns="http://www.w3.org/2000/svg">
<g id="Group 122">
<path id="Rectangle 3" d="M0 206C0 92.2293 92.2293 0 206 0C319.771 0 412 92.2293 412 206V630H0V206Z" fill="#EFE6DE"/>
<g id="Frame" clip-path="url(#clip0_48_2765)">
<path id="Vector" d="M49.6414 403.999C54.9304 416.715 67.2273 433.411 73.1058 441.027C85.8759 457.581 100.448 473.421 107.755 478.671C123.896 490.299 175.84 522.162 186.634 525.185C192.711 526.888 227.817 527.76 261.776 528.607C288.828 529.288 314.384 529.928 324.755 530.933C347.862 533.159 388.688 568.618 389.137 568.975L390.075 567.904C388.414 566.425 348.452 531.78 324.896 529.504C314.467 528.499 288.886 527.843 261.793 527.179C227.925 526.348 192.877 525.459 187.007 523.806C176.271 520.808 124.643 489.07 108.568 477.5C98.9035 470.547 72.9066 440.953 58.4925 417.695C59.5055 417.247 61.0498 415.577 59.9455 409.389C59.9455 409.389 54.4821 396.855 50.1728 389.903C50.9661 389.077 51.9276 388.432 52.992 388.011C54.0564 387.59 55.1989 387.402 56.342 387.461C67.7255 387.702 84.6472 404.904 90.6254 412.77C93.1328 415.935 95.4002 419.284 97.4089 422.787C97.9004 423.846 98.614 424.786 99.5013 425.545C100.174 426.085 103.013 428.128 106.974 430.935C114.322 436.21 125.432 444.167 128.562 446.817C131.211 449.084 136.035 450.671 141.673 452.506C146.535 453.964 151.281 455.786 155.871 457.955C166.44 463.304 173.614 468.587 173.996 469.683C174.36 471.665 174.56 473.674 174.594 475.689L176.031 475.639C176.031 475.448 175.864 470.855 175.366 469.26C174.702 467.1 165.079 461.012 156.518 456.676C151.864 454.474 147.052 452.625 142.121 451.144C136.649 449.358 131.925 447.822 129.492 445.729C128.662 445.006 127.25 443.926 125.531 442.622C124.211 439.881 110.47 411.059 105.679 392.212C101.527 375.766 99.1858 363.448 98.0565 354.211C99.385 354.054 101.378 352.766 103.163 347.251C103.163 347.251 103.561 334.252 102.025 326.486C103.488 326.123 105.03 326.275 106.393 326.917C124.718 334.152 128.811 373.673 128.811 374.071L130.58 380.044C132.332 385.858 143.665 406.524 144.147 407.404L145.401 406.715C145.284 406.499 133.66 385.326 131.958 379.628L131.676 378.706C136.026 374.844 147.966 364.877 158.37 356.936C158.744 358.73 161.193 360.898 163.792 360.823C163.792 360.823 177.351 355.084 182.366 348.165C183.454 348.941 184.377 349.927 185.081 351.063C186.65 353.655 187.638 358.182 183.553 365.101L183.329 365.483C179.314 372.014 174.116 377.738 168.001 382.361C165.511 384.371 163.85 385.683 163.36 387.154C162.264 390.293 161.351 404.597 161.135 408.118C154.891 406.989 149.511 406.723 145.699 407.811C142.196 407.08 134.781 406.233 131.825 411.241C129.766 414.738 133.81 420.802 136.068 423.751C137.014 428.144 140.817 432.447 148.606 437.871C161.334 446.783 183.603 457.897 200.408 463.703C217.363 469.576 241.002 481.312 246.864 485.581C252.884 489.967 265.446 494.718 265.961 494.909L266.467 493.572C266.334 493.522 253.548 488.696 247.686 484.435C241.625 480.016 218.227 468.371 200.857 462.357C184.167 456.543 162.048 445.554 149.378 436.708C143.566 432.605 140.029 429.233 138.368 426.043C141.913 428.286 154.559 436.085 158.171 435.595C162.38 435.03 167.719 426.674 165.959 421.201C164.439 416.474 151.844 410.278 148.423 408.658C161.708 406.997 189.938 417.637 209.683 425.071C215.13 427.123 220.261 429.058 224.387 430.479C233.637 433.66 246.2 431.799 260.747 429.648C282.426 426.442 309.411 422.446 338.978 432.646C387.966 449.533 427.065 503.107 427.455 503.647L428.618 502.817C428.219 502.277 388.846 448.328 339.443 431.301C309.552 420.985 282.376 425.005 260.564 428.236C246.208 430.362 233.803 432.198 224.861 429.125C220.759 427.713 215.628 425.802 210.198 423.742C201.728 420.553 192.213 416.981 182.98 413.958C184.358 411.275 189.34 401.789 193.342 396.465L197.295 391.224C197.684 390.721 198.117 390.254 198.59 389.828C201.081 389.263 213.892 386.265 216.857 382.967C220.178 379.18 221.166 374.985 219.563 371.472C221.224 370.923 222.536 370.3 222.885 369.611C223.997 367.609 223.798 364.411 214.839 364.013C213.685 364.013 212.481 364.013 211.269 364.121C207.073 364.124 202.893 364.623 198.814 365.607H198.739C192.907 366.931 187.157 368.595 181.519 370.591C182.523 369.229 183.528 367.784 184.508 366.172L184.749 365.765C189.191 358.24 188.07 353.19 186.26 350.258C185.441 348.931 184.358 347.786 183.08 346.894C183.796 345.745 184.175 344.418 184.176 343.065C183.952 337.043 173.282 343.953 165.818 349.585C153.82 357.891 135.221 373.673 131.186 377.145L130.173 373.739C130.032 372.211 126.021 333.039 106.866 325.522C105.23 324.783 103.393 324.619 101.652 325.057C101.17 323.13 100.531 321.643 99.6922 321.02C95.5407 317.955 95.3166 339.51 95.7898 345.407C95.7898 345.407 95.7898 345.473 95.7898 345.507C95.931 348.148 96.1884 350.939 96.5371 353.813C96.5393 353.851 96.5393 353.89 96.5371 353.929C98.1147 366.928 101.519 381.73 104.226 392.553C108.377 408.999 119.287 432.854 123.007 440.778C118.449 437.456 112.57 433.195 107.763 429.756C104.001 427.056 101.029 424.93 100.373 424.407C99.633 423.76 99.0411 422.961 98.6377 422.064C96.5967 418.503 94.2932 415.099 91.7462 411.881C85.6352 403.882 68.2486 386.265 56.3503 386.016C55.0675 385.96 53.7867 386.165 52.5861 386.621C51.3855 387.077 50.2903 387.772 49.3674 388.665C48.6919 387.53 47.8335 386.514 46.8268 385.659C42.9077 382.967 45.905 396.307 49.6414 403.999ZM197.386 367.451C196.614 369.229 196.73 371.796 200.707 373.448C201.069 373.582 201.441 373.685 201.82 373.756C201.82 373.756 203.339 374.454 208.462 373.756C211.819 373.32 215.147 372.679 218.426 371.837C220.568 376.239 217.529 380.517 216.01 382.236C213.062 385.559 198.1 388.807 197.951 388.831L196.929 389.396L192.23 395.626C188.078 401.174 182.864 411.117 181.627 413.534C175.364 411.456 168.988 409.737 162.53 408.384C162.721 405.286 163.651 390.609 164.689 387.619C165.062 386.539 166.665 385.252 168.84 383.466C172.926 380.322 176.639 376.721 179.908 372.734C185.624 370.62 191.46 368.848 197.386 367.427V367.451Z" fill="#773532"/>
<path id="Vector_2" fill-rule="evenodd" clip-rule="evenodd" d="M454.565 112.403C451.426 112.403 449.857 121.033 450.646 138.31C451.434 155.587 445.929 193.263 430.237 228.598C414.544 263.932 380.792 262.354 379.223 255.293C377.654 248.233 400.412 243.515 412.966 216.819C425.521 190.123 421.602 169.715 421.602 169.715L390.996 186.203C390.996 186.203 400.412 175.995 402.77 132.03C405.128 88.0659 389.427 70 389.427 70C389.427 70 295.246 170.504 292.107 211.321C288.969 252.137 311.453 297.921 300.958 301.085C290.463 304.25 282.127 288.003 275.327 280.154C268.527 272.304 254.395 260.784 235.555 268.11C216.715 275.436 220.419 300.562 220.419 300.562L214.141 311.036L229.311 310.247C229.311 310.247 239.516 400.535 333.697 389.546C427.879 378.557 484.381 200.332 485.95 186.203C487.52 172.074 457.687 112.403 454.565 112.403ZM235.447 297.273C234.581 297.303 233.725 297.073 232.99 296.612C232.255 296.152 231.674 295.483 231.322 294.69C230.97 293.898 230.862 293.018 231.014 292.163C231.165 291.309 231.568 290.52 232.171 289.896C232.774 289.273 233.549 288.844 234.397 288.665C235.246 288.485 236.128 288.563 236.932 288.889C237.736 289.215 238.424 289.774 238.908 290.493C239.392 291.213 239.65 292.061 239.649 292.929C239.666 294.062 239.234 295.156 238.446 295.97C237.658 296.785 236.58 297.253 235.447 297.273Z" fill="#773532"/>
<path id="Vector_3" fill-rule="evenodd" clip-rule="evenodd" d="M221.34 325.007C220.593 324.957 219.829 325.007 219.024 324.957L219.306 323.421C219.415 322.969 219.435 322.501 219.364 322.042C219.223 321.003 217.197 317.315 216.724 316.767C216.353 316.301 215.889 315.919 215.361 315.644C214.833 315.369 214.254 315.209 213.66 315.173C213.295 316.402 213.95 319.135 214.49 320.297C215.29 322.131 216.628 323.678 218.326 324.733C218.268 324.733 218.11 324.733 218.135 324.774H216.475C215.794 324.675 215.171 324.5 214.44 324.376C213.145 324.151 211.468 324.185 210.438 323.495C210.762 323.379 212.223 323.744 211.534 320.92C210.845 318.096 209.101 312.913 205.531 312.955C204.228 315.065 206.669 321.826 209.683 322.997C209.251 323.678 209.749 323.279 209.093 323.454C208.781 323.481 208.467 323.441 208.172 323.337C207.258 323.022 207.142 322.598 206.262 322.789C205.033 321.884 203.439 321.959 202.177 321.07C203.688 316.917 202.957 315.762 202.085 312.764C201.214 309.765 199.902 307.78 196.879 305.371C195.7 316.792 198.357 316.402 199.495 320.073L191.441 315.837C193.84 315.098 193.807 309.931 192.537 306.916C191.873 305.33 191.848 305.255 190.486 304.424C188.825 307.44 188.734 312.872 190.893 315.181C189.714 315.355 185.911 312.365 184.923 311.518C184.923 310.172 185.753 308.843 186.409 307.705C187.929 304.964 187.704 303.494 186.65 300.612C186.227 299.466 186.044 298.253 184.79 297.289C179.883 305.355 183.445 307.564 183.761 310.704L177.259 305.429C179.02 303.486 180.373 300.545 180.34 298.328C180.34 297.098 180.008 292.746 179.094 291.841C177.434 292.605 177.799 292.389 177.01 294.332C175.972 296.824 175.267 299.665 175.831 302.215C176.08 303.32 176.172 302.879 176.022 303.876C174.362 302.298 172.701 300.23 171.14 298.726L171.58 298.593C173.938 297.68 174.602 294.033 174.22 291.949C173.988 290.644 173.481 289.565 173.307 288.626C173.075 287.388 173.116 286.217 171.646 285.777C170.384 287.189 169.919 290.113 169.803 291.716C169.645 293.975 170.567 295.744 170.484 297.53C166.283 293.136 167.993 291.882 167.304 289.631C166.961 288.266 166.43 286.955 165.726 285.736C162.721 281.209 161.575 281.582 161.907 286.408C162.364 293.626 168.226 293.884 169.139 297.372C164.597 295.038 164.813 295.337 161.201 295.445C160.371 295.445 159.399 295.279 158.885 295.935C163.759 300.022 162.521 300.354 168.209 300.637C168.741 300.688 169.277 300.71 169.811 300.703C170.741 300.628 170.418 300.496 171.306 300.288C172.385 301.26 174.428 303.27 174.818 304.441C171.497 302.713 170.824 302.987 167.644 303.61C166.814 303.776 165.984 303.735 165.602 304.848C170.924 308.303 174.627 305.438 175.333 305.454C176.039 305.471 176.47 305.936 176.994 306.559C178.31 307.811 179.751 308.924 181.295 309.882L182.125 310.787C179.559 311.061 179.684 308.91 174.511 310.089L169.205 310.986C165.137 310.986 170.866 314.143 171.954 314.491C174.204 315.197 178.197 314.782 180.315 313.844C182.432 312.905 181.975 311.227 184.192 312.282L189.265 316.061C188.435 317.016 185.944 316.169 184.757 316.261C184.184 316.31 183.927 316.452 183.213 316.518C181.718 316.668 178.496 318.719 177.484 320.414C178.023 320.688 182.839 321.834 184.433 321.161C186.974 320.098 187.406 319.442 188.892 318.096C189.498 317.548 189.722 317.614 190.403 316.9L200.159 321.419C199.279 321.975 198.332 321.527 196.207 321.56C188.9 321.66 192.271 321.66 186.883 324.176C185.828 324.666 185.629 324.334 185.139 325.539C185.737 326.776 185.504 326.137 186.609 326.228C187.713 326.319 188.12 326.818 189.099 327.059C190.549 327.38 192.054 327.355 193.492 326.984C194.903 326.602 196.271 326.079 197.577 325.422C199.686 324.334 199.379 322.856 201.189 321.934C203.09 322.631 204.51 323.711 206.644 323.819C209.733 325.082 212.971 325.115 216.167 325.846C214.731 328.08 212.34 326.876 212.298 333.23C212.298 337.267 216.051 334.675 217.371 331.394C218.882 327.673 217.928 329.359 218.442 326.162C220.103 325.721 225.915 326.477 227.219 325.439C226.787 324.5 224.271 325.198 221.34 325.007Z" fill="#773532"/>
<path id="Vector_4" fill-rule="evenodd" clip-rule="evenodd" d="M200.118 328.238C199.511 328.803 197.286 330.73 197.676 331.511C198.748 333.745 208.91 331.195 210.513 325.132C208.728 324.035 202.824 325.696 200.118 328.238Z" fill="#773532"/>
</g>
</g>
<defs>
<clipPath id="clip0_48_2765">
<rect width="441" height="499" fill="white" transform="translate(45 70)"/>
</clipPath>
</defs>
</svg>
