<svg width="412" height="669" viewBox="0 0 412 669" fill="none" xmlns="http://www.w3.org/2000/svg">
<g id="Group 120">
<path id="Rectangle 3" d="M0 231C0 117.229 92.2293 25 206 25C319.771 25 412 117.229 412 231V655H0V231Z" fill="#EFE6DE"/>
<g id="Group 69">
<path id="Vector" d="M269.601 53.313C274.932 46.0367 280.522 38.5352 287.082 32.3305C291.996 27.689 296.399 24.556 291.239 17.8599C285.17 9.97612 273.226 6.43354 263.97 4.37215C244.325 0.00365853 213.739 2.54286 200.92 20.9861C195.459 28.8221 196.142 39.1085 197.65 48.1185C198.115 50.8898 200.49 55.6269 199.965 58.2821C198.907 63.5721 190.012 71.4831 186.859 75.7834C178.75 86.8275 170.607 98.0491 164.409 110.308C158.136 122.711 153.078 135.843 148.164 148.826C145.993 154.546 143.816 160.28 141.966 166.109C140.519 170.668 137.631 176.013 146.116 172.3C146.689 172.047 147.829 172.402 147.85 173.146C148.252 185.624 148.28 198.572 145.386 210.77C143.939 216.858 136.294 231.691 139.925 236.878C138.314 234.565 145.256 236.633 144.498 236.612C144.73 236.612 144.942 237.152 145.058 237.152C145.345 239.604 146.448 239.795 148.368 237.725C149.319 236.346 150.192 234.915 150.983 233.438C156.607 225.343 160.184 215.575 165.255 207.104C169.351 200.238 180.115 181.603 189.828 179.931C192.21 179.521 195.535 181.61 198.019 181.904C213.718 183.767 228.114 172.518 236.68 160.348C242.325 152.321 242.032 149.079 249.356 143.816C276.7 124.151 296.87 83.1484 269.717 54.1662C268.768 53.156 270.85 52.685 271.567 53.4495C289.184 72.2545 287.58 102.629 273.574 122.772C266.42 133.058 256.939 139.092 247.916 147.283C241.493 153.106 238.66 162.484 232.134 169.126C222.578 178.777 209.439 185.979 195.521 183.221C194.736 183.071 189.582 181.856 190.797 181.651C184.238 182.627 175.46 195.719 172.156 200.429C166.047 209.111 161.371 218.776 156.402 228.121C154.539 231.636 151.897 239.766 147.877 241.418C146.819 241.854 145.877 241.247 144.928 241.267C143.979 241.288 140.437 239.397 137.795 239.554C137.48 239.608 137.156 239.546 136.884 239.379C136.611 239.212 136.409 238.952 136.314 238.646C134.949 232.865 138.949 224.995 140.539 219.534C143.807 208.473 145.557 197.019 145.741 185.487C145.788 182.805 146.614 178.15 145.741 175.679C144.266 171.583 147.966 176.32 143.768 175.276C141.652 174.743 139.747 176.928 137.986 174.491C135.167 170.593 143.973 153.727 145.406 149.918C150.867 135.434 156.423 120.697 163.658 106.991C171.904 91.3803 182.996 77.1008 193.692 63.1147C200.763 53.859 193.337 43.8524 194.62 32.2213C198.49 -2.75396 253.322 -2.99283 277.164 6.74072C283.307 9.24578 298.426 16.5698 296.42 25.7368C295.416 30.3033 288.474 33.9278 285.587 37.0608C280.629 42.5655 275.976 48.3373 271.649 54.3505C270.98 55.1559 268.905 54.2686 269.601 53.313Z" fill="#773532"/>
<path id="Vector_2" d="M144.498 158.764C142.949 163.187 135.181 177.242 145.863 172.566C146.273 172.389 147.808 172.566 147.829 173.249C148.355 189.412 147.146 204.538 142.689 220.101C140.839 226.517 135.222 238.796 145.037 237.404C149.993 236.721 149.815 235.506 152.477 230.708C155.249 225.718 157.747 220.585 160.484 215.582C165.712 206.026 171.228 196.545 178.975 188.784C181.269 186.491 186.046 184.006 187.76 181.323C191.282 175.863 188.961 164.259 187.398 158.116C181.883 136.403 156.825 151.973 144.28 158.99C143.7 159.317 141.672 158.45 142.519 157.979C151.788 152.771 172.675 138.703 183.876 147.058C189.377 151.154 190.203 160.546 190.743 166.682C191.596 176.484 192.053 179.842 184.934 185.985C174.695 194.811 167.924 206.463 161.583 218.203C159.494 222.08 153.262 240.162 148.02 241.165C146.955 241.37 145.918 240.947 144.955 241.001C144.375 241.001 143.72 238.783 142.655 238.558C141.065 238.23 139.679 239.172 137.823 239.281C137.413 239.281 136.416 239.063 136.293 238.551C134.696 231.643 140.027 221.343 141.87 214.804C144.176 206.343 145.439 197.633 145.631 188.866C145.754 185.289 146.723 179.883 145.727 176.402C144.15 170.88 148.792 176.218 143.979 174.996C139.802 173.931 141.734 176.293 138.102 174.313C137.983 174.267 137.88 174.187 137.804 174.085C137.728 173.982 137.683 173.86 137.672 173.733C137.993 168.587 140.635 162.989 142.3 158.211C142.553 157.467 144.723 158.102 144.498 158.764Z" fill="#773532"/>
<path id="Vector_3" d="M294.044 22.6106C287.478 4.222 254.618 1.1231 239.178 2.81589C225.254 4.32439 207.063 10.0102 199.678 23.1362C195.746 30.1326 196.306 38.658 197.364 46.3438C197.794 49.4359 200.271 54.7941 199.814 57.736C199.309 60.9305 195.036 64.7939 193.07 67.3945C179.33 85.5852 166.784 103.858 157.781 124.874C153.499 134.885 149.495 145.006 145.768 155.235C144.02 160.013 135.147 177.208 145.87 172.518C146.341 172.313 147.815 172.457 147.836 173.201C147.699 168.464 150.907 164.634 152.996 160.662C153.064 160.543 153.164 160.446 153.285 160.382C153.406 160.318 153.542 160.29 153.679 160.3C167.037 160.375 182.21 160.86 195.077 157.044C208.121 153.181 219.179 141.509 229.779 133.284C243.506 122.629 257.635 110.581 265.273 94.5952C274.242 75.8653 265.273 59.1012 244.659 56.7531C244.332 56.7122 242.974 56.2207 243.506 55.6678C258.243 40.1733 274.44 30.078 294.255 22.2216C294.938 21.9417 296.931 22.9451 295.989 23.3205C277.457 30.706 261.86 40.1597 247.751 54.3573C244.837 57.2787 244.407 54.3914 246.523 55.8248C249.164 57.6132 254.482 57.7975 257.526 59.2377C282.42 71.292 268.072 98.6429 254.304 113.987C240.892 128.943 221.868 144.021 204.756 154.485C195.835 159.945 185.05 160.409 174.804 161.037C169.903 161.344 161.521 159.863 156.853 161.611C152.464 163.256 150.45 169.856 147.761 174.443C147.426 175.016 145.665 174.525 145.645 173.877C145.699 175.624 139.235 176.648 137.631 173.378C136.71 171.515 139.911 165.058 140.559 163.14C143.003 155.843 145.761 148.642 148.566 141.475C153.795 128.123 159.078 114.499 166.313 102.09C174.647 87.8036 187.22 75.6673 195.022 61.2786C200.101 51.9205 192.353 39.6341 195.125 28.3238C198.312 15.3548 212.271 7.94884 224.073 4.27657C243.479 -1.75741 287.553 -1.35468 296.208 22.8836C296.522 23.6481 294.317 23.3819 294.044 22.6106Z" fill="#773532"/>
<path id="Vector_4" d="M199.698 57.4972C200.701 60.91 189.828 71.6538 187.971 74.1725C179.221 86.0289 170.347 98.1173 163.876 111.407C157.931 123.543 152.955 136.198 148.177 148.826C146.007 154.539 143.829 160.28 141.979 166.109C140.669 170.204 137.782 176.122 145.87 172.58C146.403 172.348 147.829 172.655 147.85 173.365C147.686 167.863 152.32 162.218 154.191 157.072C156.552 150.567 158.088 143.713 160.115 137.092C163.398 126.349 166.784 113.728 174.6 105.216C181.507 97.7078 190.353 92.2472 197.2 84.4248C203.179 77.5991 227.472 47.5657 199.527 57.8043C198.934 58.0227 196.94 57.1217 197.766 56.8214C201.718 55.3675 212.926 50.7192 215.513 57.3265C218.496 64.8349 203.002 80.8822 199.213 85.2166C188.026 98.0149 174.443 105.38 167.74 121.673C160.45 139.42 157.631 157.597 147.85 174.272C147.474 174.907 145.679 174.409 145.658 173.685C145.72 175.774 139.297 176.252 137.638 173.187C136.273 170.634 141.618 160.041 142.478 157.631C145.249 149.85 148.232 142.144 151.351 134.492C157.249 119.919 163.555 105.858 172.258 92.725C177.289 85.1279 182.654 77.7082 188.101 70.4388C189.596 68.4388 198.34 59.7565 197.548 57.1559C197.35 56.5211 199.527 56.8214 199.698 57.4972Z" fill="#773532"/>
<path id="Vector_5" d="M289.669 15.8941C268.782 -2.16008 231.725 -2.64471 209.316 13.2047C201.609 18.6653 197.398 24.8085 196.647 34.3646C196.765 37.5272 196.884 40.6853 197.002 43.8388C197.002 46.2597 197.685 45.8228 199.05 42.5283C201.725 40.699 203.985 35.9072 206.067 33.4568C214.899 23.0407 225.862 12.8635 240.196 11.7304C254.823 10.5632 278.27 27.5935 289.505 15.3753C289.942 14.8975 292.01 15.6756 291.553 16.1739C283.362 25.0474 269.71 20.1534 260.113 16.7678C230.551 6.35167 212.701 25.9689 197.576 48.5008C197.282 48.9445 195.528 48.4394 195.466 47.9343C193.944 37.3816 193.234 26.2283 200.811 17.8121C208.278 9.51881 220.134 4.84316 230.762 2.63161C250.673 -1.54576 275.574 2.00363 291.389 15.6688C292.283 16.4674 290.119 16.2832 289.669 15.8941Z" fill="#773532"/>
<path id="Vector_6" d="M267.956 18.679C271.605 19.7354 275.402 20.1964 279.198 20.0441C280.631 19.9622 282.324 20.3376 282.16 18.679C281.945 17.8795 281.604 17.1192 281.15 16.4265C279.744 13.7371 277.703 10.8976 274.324 12.9385C271.922 14.3992 270.317 16.9521 268.939 19.3206C268.611 19.8871 266.55 19.0817 266.748 18.7336C268.946 14.9521 272.406 10.0376 277.43 11.3481C281.471 12.3993 283.45 16.5767 284.734 20.2216C284.781 20.3581 284.672 20.4537 284.549 20.481C278.952 21.5799 273.205 20.9178 267.744 19.4298C266.488 19.068 266.666 18.324 267.956 18.679Z" fill="#773532"/>
<path id="Vector_7" d="M263.662 27.8733C258.959 27.3955 254.25 27.0269 249.54 26.7334C244.83 26.4399 240.236 26.2078 235.588 26.2351C233.056 26.2351 228.359 25.6276 226.107 26.9177C221.329 29.648 227.561 35.0608 230.503 37.4362C233.103 39.5317 234.195 40.9515 237.472 39.1085C239.465 37.9891 241.165 35.3544 242.878 33.8322C248.598 28.7265 255.704 27.3614 263.15 26.3921C264.161 26.2624 265.417 27.6822 263.942 27.8733C255.437 28.9791 248.98 30.822 242.7 36.8697C240.598 38.9174 238.503 42.1392 235.329 42.0368C231.308 41.9071 219.595 31.9688 221.827 27.2999C223.82 23.1294 235.479 24.7198 238.94 24.7949C247.131 24.9655 255.321 25.5662 263.43 26.3921C264.611 26.5081 265.164 28.0098 263.662 27.8733Z" fill="#773532"/>
<path id="Vector_8" d="M201.657 55.4153C205.595 52.0979 209.486 48.7192 213.261 45.2312C215.309 43.32 217.759 41.3883 219.438 39.088C221.315 36.5556 221.971 33.2451 223.199 30.3373C223.438 29.7776 224.823 30.3851 225.144 30.5694C231.52 34.2554 238.659 39.7501 232.735 47.0605C225.752 55.6678 213.377 58.4254 202.879 56.2139C201.985 56.0296 200.961 55.0057 202.49 55.3265C212.455 57.4289 224.127 54.4392 230.673 46.2892C236.298 39.2996 229.513 34.1939 223.451 30.6923L225.39 30.9244C224.325 33.4499 223.738 36.4806 222.325 38.8082C220.912 41.1357 218.278 43.2176 216.257 45.1083C212.162 48.9103 207.971 52.5689 203.711 56.1524C203.247 56.5824 201.275 55.7361 201.657 55.4153Z" fill="#773532"/>
<path id="Vector_9" d="M227.575 137.468C219.922 142.665 211.825 147.177 203.377 150.949C189.835 156.976 174.252 156.362 161.167 162.894C153.385 166.771 153.87 172.402 163.003 170.559C170.177 169.105 177.255 166.464 183.965 163.645C199.411 157.2 213.553 147.994 225.697 136.478C226.278 135.918 228.353 136.758 227.745 137.359C212.852 151.467 195.046 162.138 175.583 168.621C171.678 169.938 156.061 176.491 152.006 171.74C145.611 164.232 169.242 158.327 172.784 157.611C192.333 153.659 209.22 147.645 225.861 136.369C226.469 135.939 228.482 136.854 227.575 137.468Z" fill="#773532"/>
<path id="Vector_10" d="M255.185 15.0408C252.68 15.0408 250.332 16.2558 249.328 18.6516C249.044 19.3053 248.905 20.0127 248.919 20.7254C248.934 21.4381 249.103 22.1391 249.414 22.7804C249.726 23.4217 250.172 23.988 250.722 24.4406C251.273 24.8932 251.915 25.2212 252.605 25.4023C259.758 27.4501 262.577 15.6893 254.946 15.0408C254.311 14.9862 252.577 13.9419 254.018 14.0647C257.519 14.3651 261.417 16.2763 261.779 20.2079C262.154 24.2693 258.366 26.8903 254.646 26.8084C251.342 26.7402 247.554 24.7948 246.851 21.3C245.984 16.9998 249.888 14.1262 253.786 14.0784C254.304 14.092 256.284 15.0408 255.185 15.0408Z" fill="#773532"/>
<path id="Vector_11" d="M213.78 191.624C215.998 188.313 218.687 186.743 221.513 184.293C223.029 182.969 222.612 184.518 221.875 182.484C221.315 180.934 220.148 179.603 219.575 178.061C218.606 175.481 219.22 174.812 222.093 173.569C223.65 172.887 224.046 172.73 225.506 173.453C227.499 174.443 230.284 179.078 231.349 180.962C231.615 181.433 232.032 181.808 232.311 182.293C232.851 183.323 230.455 182.108 231.684 182.143C232.81 182.177 233.922 182.02 235.055 182.143C242.195 182.928 246.953 189.303 247.704 196.204C247.806 197.118 245.874 196.381 245.601 196.054C241.506 191.2 236.25 188.402 229.622 188.989C224.926 189.398 220.066 190.886 215.684 192.538C215.07 192.77 213.077 191.856 213.93 191.528C226.128 186.934 238.503 185.16 247.629 196.054L245.519 195.903C244.837 189.501 239.711 182.068 232.352 183.358C232.046 183.405 231.733 183.379 231.439 183.281C231.145 183.184 230.877 183.018 230.66 182.798C229.772 181.569 228.885 180.347 227.984 179.139C227.301 178.204 224.271 174.02 224.38 174.047C223.22 173.767 221.261 176.095 221.547 177.911C221.854 179.87 223.807 182.293 224.749 184.054C224.878 184.293 224.851 184.422 224.619 184.559C220.871 186.77 218.257 188.818 215.827 192.443C215.445 193.016 213.35 192.313 213.78 191.624Z" fill="#773532"/>
<path id="Vector_12" d="M294.337 27.4091C305.095 26.7265 315.852 25.9552 326.603 25.1361C332.671 24.6788 338.999 24.6174 344.998 23.5662C352.896 22.2011 338.405 22.201 335.442 21.8939C326.862 20.9929 318.269 20.2148 309.668 19.4981C306.371 19.2182 297.075 16.952 292.672 17.8189L291.989 16.6176C299.73 15.1432 314.207 19.0134 320.378 19.58C329.408 20.4127 341.79 19.58 350.316 23.2045C350.5 23.2795 350.916 23.5253 350.705 23.7573C349.387 25.1908 344.077 24.7471 342.323 24.9109C333.258 25.7778 324.159 26.3784 315.081 27.0269C307.928 27.532 300.747 27.9825 293.607 28.4603L294.337 27.4091Z" fill="#773532"/>
<path id="Vector_13" d="M300.447 668.329C299.921 665.51 287.696 598.938 300.515 571.471C306.187 559.314 322.118 530.687 338.992 500.381C360.083 462.484 381.899 423.29 383.919 415.741C387.598 401.953 386.192 324.378 383.919 299.123C382.021 278.277 353.073 195.637 332.726 179.883C330.296 177.999 328.125 177.194 326.255 177.501C324.637 177.735 323.099 178.353 321.769 179.303C320.439 180.253 319.356 181.507 318.61 182.962C311.47 195.678 319.463 225.548 324.207 237.227C327.586 245.547 329.627 249.103 330.842 251.226C331.784 252.871 332.302 253.779 332.521 255.322C332.678 256.421 333.074 260.878 333.62 267.042C334.644 278.577 336.193 296.003 337.101 301.17C337.879 305.573 336.473 311.948 334.842 319.334C333.524 325.313 332.029 332.084 331.613 338.535C330.637 353.661 331.797 365.012 332.753 366.152C333.709 367.292 337.613 369.844 338.985 370.718L338.002 372.268C337.79 372.131 332.835 368.971 331.395 367.387C329.449 365.244 328.992 350.678 329.784 338.419C330.207 331.825 331.715 324.979 333.053 318.938C334.637 311.743 336.009 305.532 335.299 301.491C334.371 296.27 332.882 279.485 331.797 267.226C331.272 261.322 330.855 256.653 330.705 255.622C330.535 254.421 330.159 253.759 329.251 252.209C328.009 250.045 325.934 246.421 322.507 237.984C317.661 226.053 309.539 195.419 317.013 182.129C317.896 180.435 319.166 178.974 320.722 177.865C322.277 176.756 324.072 176.03 325.961 175.747C328.357 175.358 331.006 176.279 333.852 178.477C346.623 188.374 361.114 222.217 366.752 236.305C376.704 261.165 384.676 287.498 385.721 299C388.028 324.351 389.414 402.322 385.721 416.26C383.639 424.062 361.769 463.358 340.623 501.357C323.77 531.636 307.859 560.236 302.208 572.345C289.635 599.286 302.146 667.407 302.276 668.09L300.447 668.329Z" fill="#773532"/>
<path id="Vector_14" d="M281.881 293.614C281.724 293.348 265.943 266.755 260.769 261.171L255.472 255.458C253.874 254.311 213.357 224.428 217.473 198.408C218.155 194.265 219.991 191.665 223.022 190.675C236.946 186.122 272.891 219.056 293.082 239.09C311.709 257.588 335.92 293.956 336.159 294.324L334.63 295.341C334.391 294.973 310.283 258.755 291.792 240.394C243.724 192.682 228.087 190.948 223.589 192.415C221.24 193.187 219.834 195.241 219.281 198.695C215.343 223.609 256.27 253.786 256.687 254.093L262.113 259.929C267.417 265.656 282.802 291.573 283.457 292.693L281.881 293.614Z" fill="#773532"/>
<path id="Vector_15" d="M273.252 314.01C273.055 313.907 252.687 303.416 248.277 302.536C246.844 302.256 244.387 303.177 240.987 304.454C234.803 306.788 225.452 310.303 211.78 310.501H211.179C199.992 310.501 195.173 305.942 193.098 302.085C190.176 296.624 191.289 289.949 193.89 286.133C198.599 279.226 258.052 258.96 259.82 258.4L260.379 260.148C248.659 263.881 199.022 281.86 195.405 287.164C194.087 289.248 193.332 291.638 193.212 294.101C193.093 296.564 193.613 299.016 194.722 301.218C196.558 304.631 200.906 308.665 211.186 308.665H211.766C225.117 308.474 234.291 305.02 240.345 302.74C244.175 301.3 246.7 300.345 248.646 300.734C253.301 301.669 273.259 311.948 274.106 312.385L273.252 314.01Z" fill="#773532"/>
<path id="Vector_16" d="M205.582 353.674C202.891 353.664 200.205 353.422 197.555 352.951C193.261 352.207 190.729 350.384 189.978 347.538C186.893 335.572 219.589 309.198 220.981 308.078L222.128 309.512C212.892 316.917 189.439 338.098 191.753 347.053C192.292 349.142 194.347 350.507 197.896 351.149C221.595 355.244 228.121 340.412 228.387 339.777L228.592 339.279L239.213 338.071C249.274 336.931 266.461 338.071 266.632 338.071L266.509 339.9C266.338 339.9 249.308 338.774 239.424 339.9L229.868 340.992C228.544 343.395 222.223 353.674 205.582 353.674Z" fill="#773532"/>
<path id="Vector_17" d="M184.545 524.018L182.743 523.704C182.791 523.417 187.767 495.179 198.074 468.497C208.381 441.815 256.454 386.349 256.939 385.796L258.304 386.998C257.826 387.55 209.991 442.716 199.773 469.159C189.555 495.603 184.599 523.738 184.545 524.018Z" fill="#773532"/>
<path id="Vector_18" d="M331.763 180.225C331.763 180.225 329.934 181.59 329.627 183.433C329.32 185.276 344.179 208.005 348.125 206.975C352.07 205.944 351.176 204.244 351.176 204.244C351.176 204.244 336.917 182.347 335.435 181.037C333.954 179.726 331.763 180.225 331.763 180.225Z" fill="#773532"/>
<path id="Vector_19" d="M227.82 197.453C227.82 197.453 242.154 209.371 248.7 210.026C255.246 210.681 256.372 207.35 256.372 207.35C256.372 207.35 244.98 198.524 239.568 195.849C234.155 193.173 231.725 192.245 231.725 192.245C231.725 192.245 228.633 194.176 227.82 197.453Z" fill="#773532"/>
<path id="Vector_20" d="M217.746 274.796C219.096 275.318 220.218 276.3 220.915 277.568C221.612 278.837 221.838 280.311 221.554 281.731C220.79 287.082 206.115 295.184 202.442 295.334C198.77 295.485 193.937 287.43 194.64 286.618C195.343 285.806 200.101 282.229 205.671 279.792C211.241 277.355 217.746 274.796 217.746 274.796Z" fill="#773532"/>
<path id="Vector_21" d="M203.391 325.497C203.391 325.497 208.715 324.187 209.323 330.78C209.93 337.374 201.377 347.92 199.084 347.763C196.79 347.606 191.528 344.876 191.105 343.074C190.681 341.272 201.5 326.61 203.391 325.497Z" fill="#773532"/>
<path id="Vector_22" d="M282.181 297.048C282.181 297.048 279.58 320.255 284.474 325.784C289.368 331.313 302.05 330.828 305.416 326.549C308.781 322.269 307.709 297.048 307.709 297.048C307.709 297.048 305.661 291.539 294.679 292.153C283.696 292.768 282.181 297.048 282.181 297.048Z" fill="#773532"/>
<path id="Vector_23" d="M203.596 668.527C203.247 667.742 169.392 589.239 182.743 523.677C190.831 483.992 212.94 456.641 230.701 434.662C242.386 420.205 252.482 407.721 254.891 395.885C256.004 390.424 257.219 383.523 258.495 376.206C264.495 341.9 272.706 294.911 288.31 291.567C296.003 289.901 301.689 290.536 305.682 293.498C310.617 297.177 313.156 304.338 314.187 317.464C315.736 337.299 313.504 369.087 308.972 391.393C304.405 413.919 301.975 447.617 302.869 456.853C303.791 466.347 300.822 483.289 300.719 484.006L298.917 483.685C298.917 483.514 301.941 466.272 301.047 457.064C300.119 447.508 302.494 414.13 307.19 391.066C311.688 368.903 313.914 337.333 312.378 317.641C311.395 305.102 309.074 298.331 304.603 295.007C301.061 292.372 295.873 291.846 288.72 293.396C274.324 296.515 265.901 344.705 260.324 376.588C259.041 383.919 257.826 390.847 256.714 396.322C254.208 408.608 243.983 421.243 232.141 435.911C214.503 457.754 192.551 484.893 184.558 524.141C171.316 589.136 204.947 667.107 205.288 667.885L203.596 668.527Z" fill="#773532"/>
</g>
</g>
</svg>
