<svg width="498" height="572" viewBox="0 0 498 572" fill="none" xmlns="http://www.w3.org/2000/svg">
<path d="M117.389 159.727C117.389 71.8372 188.638 0.588043 276.528 0.588043C364.418 0.588043 435.667 71.8372 435.667 159.727V555.923H117.389V159.727Z" fill="#EFE6DE"/>
<mask id="mask0_45_1967" style="mask-type:alpha" maskUnits="userSpaceOnUse" x="0" y="8" width="436" height="548">
<path d="M0 226C0 105.602 97.6019 8 218 8C338.398 8 436 105.602 436 226V556H0V226Z" fill="#45526C"/>
</mask>
<g mask="url(#mask0_45_1967)">
<path d="M157.725 158.866C162.618 146.035 168.343 131.237 181.012 124.315C188.8 119.884 203.554 139.624 209.979 144.512C222.713 156.723 235.663 169.902 244.094 185.255C244.332 186.214 245.608 188.726 246.334 186.764C246.163 185.29 245.41 183.926 245.014 182.5C243.228 169.418 235.061 160.424 228.183 149.788C222.058 140.548 221.081 110.005 236.939 111.171C244.495 116.575 248.459 125.912 255.205 132.332C267.447 145.357 278.76 159.561 283.781 177.022C290.504 202.345 297.985 227.819 301.976 253.71C305.417 271.043 298.055 290.307 307.472 306.074C330.648 344.356 359.092 379.532 389.757 412.072C403.697 427.816 434.948 458.94 449.355 474.301C474.437 502.903 486.361 511.136 473.724 568.718C468.637 591.877 450.539 618.05 426.821 624.888C404.177 631.414 390.453 634.454 375.192 607.727C361.301 583.411 346.362 556.956 333.671 531.751C311.005 486.745 285.602 443.244 262.826 398.304C252.248 379.488 241.447 360.79 230.423 342.209C225.283 335.555 219.021 329.809 214.674 322.544C194.917 292.019 178.438 259.056 166.416 224.721C158.223 204.013 151.935 181.052 157.725 158.866Z" fill="#FBB89E"/>
<path d="M134.14 283.394C141.994 289.388 149.294 296.023 156.414 302.866C156.531 290.439 156.577 278.011 156.55 265.582C156.454 226.82 155.582 188.053 153.734 149.335C136.965 141.032 119.764 133.437 103.778 124.39C95.2322 119.642 87.0565 112.87 77.0898 111.682C56.1224 111.316 58.9562 128.187 71.079 139.1C61.5172 142.514 50.3756 145.124 43.6564 153.247C34.8074 167.979 57.5217 177.11 68.3288 169.299C85.0015 175.407 80.6496 168.674 95.5622 184.093C86.6604 181.712 79.0303 174.967 69.8293 174.245C61.5084 175.213 53.1082 177.374 45.0821 179.684C38.6532 185.791 46.3097 196.405 51.6825 200.805C69.0549 209.469 69.3673 194.126 86.2864 216.95C82.1193 215.141 77.5914 213.012 73.2571 212.308C63.022 210.283 58.3929 221.953 62.6964 229.948C67.3035 240.386 75.6509 248.43 85.38 254.15C90.0311 256.768 95.0254 260.997 100.535 260.83C101.089 261.146 101.639 261.472 102.189 261.793C113.234 268.565 124.191 275.549 134.39 283.566L134.14 283.394Z" fill="#FBB89E"/>
<path d="M68.0517 169.502C68.1441 169.431 68.2365 169.365 68.3333 169.286C70.3737 170.259 72.4992 171.043 74.6829 171.627C79.7741 167.055 84.8608 161.203 85.1292 154.026C85.5693 152.006 84.0556 148.776 81.609 149.467C78.7796 150.787 79.6949 154.307 78.8324 156.732C76.8171 162.087 72.452 166.065 68.0517 169.502Z" fill="#EDA28D"/>
<path d="M66.0057 203.137C65.7989 203.269 65.5877 203.393 65.3721 203.52C68.0739 203.111 71.1761 203.111 73.6314 204.44C76.5488 201.8 86.8631 190.434 79.1978 188.709C78.8124 188.704 78.4299 188.775 78.0725 188.919C77.7152 189.064 77.3901 189.278 77.1165 189.549C74.6391 194.948 71.1585 199.886 66.0057 203.137Z" fill="#EDA28D"/>
<path d="M68.223 382.106C68.177 383.274 68.3615 384.439 68.7659 385.535C69.1702 386.632 69.7865 387.637 70.5796 388.496C71.3727 389.354 72.3271 390.047 73.3882 390.536C74.4493 391.026 75.5964 391.301 76.764 391.347L231.148 397.318H231.492C233.788 397.316 235.995 396.426 237.65 394.834C239.305 393.242 240.28 391.072 240.371 388.777L240.552 384.1L252.248 82.3933L252.433 77.7158C252.479 76.5482 252.294 75.383 251.89 74.2867C251.485 73.1905 250.869 72.1846 250.076 71.3265C249.283 70.4684 248.328 69.775 247.267 69.2857C246.206 68.7965 245.059 68.5211 243.892 68.4752L89.5072 62.4996C88.3395 62.453 87.1741 62.637 86.0776 63.0412C84.9811 63.4453 83.9749 64.0616 83.1167 64.8548C82.2585 65.648 81.5651 66.6026 81.076 67.664C80.587 68.7254 80.312 69.8728 80.2666 71.0405L80.1038 75.7004L68.4078 377.415L68.223 382.106Z" fill="#6F687C"/>
<path d="M74.2255 371.774C74.1446 373.974 74.9397 376.115 76.4362 377.729C77.9328 379.343 80.0085 380.297 82.2076 380.381L226.537 385.97C226.647 385.97 226.753 385.97 226.859 385.97C229.003 385.968 231.063 385.138 232.61 383.653C234.156 382.168 235.069 380.143 235.157 378.001L235.325 373.631L246.259 91.9816L246.431 87.6121C246.511 85.4126 245.715 83.2712 244.219 81.6571C242.723 80.043 240.648 79.0877 238.449 79.0007L94.1192 73.4123C93.0295 73.3684 91.9418 73.5401 90.9186 73.9177C89.8954 74.2952 88.9568 74.8712 88.1569 75.6125C87.3551 76.3509 86.7086 77.2418 86.2552 78.2331C85.8019 79.2244 85.5508 80.2961 85.5167 81.3856L85.3451 85.7463L74.4103 367.409L74.2255 371.774Z" fill="#F7EBEB"/>
<mask id="mask1_45_1967" style="mask-type:alpha" maskUnits="userSpaceOnUse" x="74" y="73" width="173" height="313">
<path d="M74.2245 371.774C74.1436 373.974 74.9387 376.115 76.4353 377.729C77.9318 379.343 80.0075 380.297 82.2067 380.381L226.536 385.97C226.646 385.97 226.752 385.97 226.858 385.97C229.002 385.968 231.062 385.138 232.609 383.653C234.155 382.168 235.068 380.143 235.157 378.001L235.324 373.631L246.258 91.9816L246.43 87.6121C246.51 85.4126 245.714 83.2712 244.218 81.6571C242.722 80.043 240.647 79.0877 238.448 79.0007L94.1183 73.4123C93.0285 73.3684 91.9408 73.5401 90.9176 73.9177C89.8944 74.2952 88.9559 74.8712 88.1559 75.6125C87.3541 76.3509 86.7076 77.2418 86.2543 78.2331C85.8009 79.2244 85.5499 80.2961 85.5157 81.3856L85.3441 85.7463L74.4093 367.409L74.2245 371.774Z" fill="#F7EBEB"/>
</mask>
<g mask="url(#mask1_45_1967)">
<path d="M103.368 254.657C103.363 254.643 103.355 254.631 103.346 254.621C103.354 254.632 103.361 254.644 103.368 254.657Z" fill="#FEAA91"/>
<path d="M212.57 262.111C212.571 262.109 212.572 262.107 212.573 262.106C212.587 262.088 212.602 262.069 212.605 262.054C212.605 262.054 212.605 262.053 212.605 262.053L212.605 262.054C212.605 262.052 212.605 262.05 212.605 262.049L212.575 262.093L212.605 262.054C212.605 262.054 212.605 262.054 212.605 262.054C212.594 262.071 212.584 262.088 212.573 262.106C212.567 262.113 212.562 262.121 212.557 262.128C212.561 262.122 212.566 262.116 212.57 262.111C217.144 256.174 215.658 256.193 210.172 252.372L210.067 252.299L210.04 252.28L210.15 252.359C210.122 252.339 210.095 252.319 210.067 252.299L210.172 252.372C215.658 256.193 217.144 256.174 212.57 262.111Z" fill="#FEAA91"/>
<path d="M112.49 163.86C111.707 152.556 113.067 141.186 118.329 130.968C123.104 121.728 130.971 113.763 141.466 112.254C149.598 104.096 162.61 102.815 173.491 104.021C185.971 105.403 198.16 110.771 207.11 119.659C217.459 129.917 222.568 144.345 224.869 158.457C225.676 163.476 226.166 168.54 226.339 173.62C226.691 183.481 227.619 192.929 230.836 202.332C232.064 205.923 234.726 209.976 235.408 213.654C235.461 213.927 235.505 214.2 235.558 214.473C234.123 215.031 232.737 215.564 231.518 216.14C223.934 219.693 216.002 222.447 207.849 224.36C193.975 227.678 179.753 228.584 165.514 228.527C152.288 228.508 139.078 227.605 125.973 225.825C121.866 225.256 117.771 224.596 113.687 223.845C113.933 222.706 114.175 221.566 114.391 220.417C115.161 216.015 115.545 211.554 115.54 207.085C115.641 194.35 114.07 181.69 112.899 169.031C112.759 167.323 112.613 165.594 112.49 163.86Z" fill="#773532"/>
<path d="M180.011 294.416C183.54 293.911 186.889 292.535 189.753 290.411L189.801 290.381L190.043 290.2C190.14 290.139 190.228 290.064 190.321 290.002C198.945 283.362 204.512 273.558 210.496 264.582C210.521 264.535 210.549 264.489 210.58 264.445C210.606 264.406 210.632 264.366 210.654 264.327C211.139 263.552 211.614 262.773 212.093 262.003L212.067 262.038C212.093 262.003 212.115 261.964 212.137 261.928L212.111 261.968C212.12 261.953 212.13 261.938 212.142 261.924C212.123 261.949 212.107 261.975 212.093 262.003C216.683 256.05 215.2 256.072 209.704 252.248L209.572 252.155L209.682 252.235C207.979 251.002 206.434 249.564 205.084 247.953L205.119 247.988C201.7 243.652 199.362 238.564 198.298 233.146C198.296 233.134 198.296 233.122 198.298 233.111C198.296 233.118 198.296 233.126 198.298 233.133C197.799 230.146 197.456 227.135 197.273 224.112C196.934 219.1 196.596 214.066 196.917 209.041C196.917 209.09 196.917 209.138 196.917 209.186C196.82 205.459 198.84 201.939 198.642 198.274C196.235 195.194 196.138 203.422 195.394 204.76C190.607 205.09 186.299 208.421 181.366 208.658C161.464 211.941 162.181 196.28 162.498 222.739C162.498 222.691 162.498 222.643 162.498 222.594C162.058 229.824 158.92 237.555 152.139 240.715L152.258 240.653C150.137 241.806 147.94 242.816 145.684 243.676L145.812 243.628C140.333 246.206 130.177 247.645 130.785 255.632C130.785 255.583 130.785 255.535 130.785 255.486C131.154 259.605 132.897 263.477 134.983 266.971C134.961 266.932 134.934 266.892 134.908 266.852C135.013 267.011 135.11 267.169 135.211 267.328L135.141 267.209C143.576 279.851 164.623 295.12 180.011 294.416Z" fill="#FBB89E"/>
<path d="M190.024 203.309C180.664 208.242 163.362 206.116 157.224 213.87C156.168 219.194 160.212 224.466 162.456 229.064C162.429 229.024 162.407 228.989 162.377 228.95C173.703 245.944 190.015 229.332 197.319 217.443C196.879 211.419 197.649 205.509 199.146 199.696C196.057 200.77 193.091 202.174 190.024 203.309Z" fill="#C47A65"/>
<path d="M134.214 164.785C134.297 164.714 134.377 164.639 134.456 164.56C139.371 159.412 143.564 153.779 146.337 147.179C147.494 144.345 148.814 141.265 149.672 138.106C154.772 142.33 161.306 144.354 167.515 146.312C176.056 149.005 184.439 152.156 192.733 155.553C194.053 156.09 195.347 156.64 196.654 157.185L196.958 157.436C198.349 158.614 199.672 159.872 200.918 161.203C201.529 161.854 202.128 162.523 202.704 163.205C203.021 163.583 203.334 163.971 203.646 164.353L203.769 164.507C206.494 168.268 208.867 172.272 210.858 176.467C211.122 202.253 208.345 201.813 184.896 224.708C182.146 227.097 179.585 230.116 175.968 231.049C169.183 232.074 162.877 227.801 156.893 225.086C150.917 221.452 143.925 218.486 139.591 212.765C136 205.804 134.9 197.875 132.66 190.447C131.314 185.994 130.187 181.726 130.209 177.484C130.2 174.014 131.088 170.6 132.788 167.574C133.263 166.655 133.734 165.717 134.214 164.785Z" fill="#FBB89E"/>
<path d="M211.567 190.821C217.974 189.14 221.292 178.5 218.784 172.679C217.054 168.965 212.28 169.691 210.269 172.736C210.295 172.709 210.317 172.683 210.344 172.661C208.346 174.817 206.995 177.673 207.105 180.683V180.771C207.338 184.207 206.784 190.764 211.567 190.821Z" fill="#FBB89E"/>
<path d="M130.333 181.963C131.31 182.599 132.215 183.336 133.035 184.163C135.587 186.716 137.774 190.205 138.17 192.678C138.186 192.72 138.199 192.762 138.21 192.806C138.65 194.214 138.914 196.291 138.28 197.756C138.283 197.763 138.283 197.771 138.28 197.778C138.13 198.151 137.897 198.485 137.598 198.754C137.299 199.024 136.942 199.221 136.555 199.331C136.036 199.31 135.519 199.244 135.011 199.133C129.409 197.941 125.379 191.56 123.79 186.328C124.107 180.256 127.126 179.935 130.333 181.963ZM133.924 189.717L133.686 189.422C134.71 190.887 135.456 192.528 135.887 194.262C135.799 193.059 135.407 191.897 134.747 190.887C134.483 190.482 134.21 190.108 133.906 189.717H133.924Z" fill="#FBB89E"/>
<path d="M135.825 200.075C137.964 200.097 138.518 197.664 138.404 195.895C138.404 195.895 138.404 195.934 138.404 195.956C138.404 195.978 138.404 195.881 138.404 195.846V195.732C138.206 193.945 138.285 191.644 136.991 190.293C136.111 189.598 135.42 190.834 135.57 191.653C135.86 193.026 136.274 194.385 136.256 195.802V195.763C136.259 195.802 136.259 195.842 136.256 195.881V195.829C136.256 195.877 136.256 195.925 136.256 195.978C136.254 195.955 136.254 195.931 136.256 195.908C136.604 200.858 129.858 194.588 128.662 192.924L128.754 193.034C126.84 190.337 124.046 186.993 124.794 183.473C125.828 180.546 129.911 181.616 131.187 183.807C131.57 185.03 133.458 184.59 133.273 183.314C133.273 183.314 133.273 183.345 133.273 183.358C133.267 183.308 133.258 183.258 133.247 183.209C131.289 178.249 122.792 178.122 122.431 184.19C123.148 191.151 128.895 198.808 135.825 200.075Z" fill="#FBB89E"/>
<path d="M211.932 178.175C210.717 177.603 211.558 175.6 212.812 176.067C215.39 177.946 215.368 183.864 212.583 185.51C209.771 185.871 213.965 180.696 211.932 178.175ZM213.463 176.995C213.476 177.102 213.476 177.21 213.463 177.317V177.233C213.463 177.185 213.463 177.132 213.463 177.083C213.465 177.054 213.465 177.025 213.463 176.995C213.467 176.978 213.467 176.96 213.463 176.943C213.465 176.921 213.465 176.898 213.463 176.877C213.461 176.916 213.461 176.956 213.463 176.995Z" fill="#C47A65"/>
<path d="M133.334 195.098C134.245 193.994 132.78 192.841 132.164 192.018C132.175 192.032 132.185 192.047 132.195 192.062C131.051 190.438 129.444 188.502 129.651 186.412C129.795 186.399 129.934 186.357 130.061 186.29C130.189 186.223 130.301 186.132 130.393 186.021C130.485 185.91 130.555 185.782 130.597 185.645C130.64 185.507 130.655 185.363 130.641 185.22V185.268C130.641 184.247 129.475 183.895 128.718 184.388C125.537 186.694 128.925 191.213 130.611 193.51C130.637 193.549 130.668 193.584 130.694 193.62V193.598C131.306 194.377 132.19 195.71 133.334 195.098Z" fill="#C47A65"/>
<path d="M140.515 187.983C143.596 187.015 141.074 180.062 138.43 179.768C134.073 179.715 137.58 188.348 140.515 187.983Z" fill="#773532"/>
<path d="M164.013 200.528C164.836 200.555 165.857 199.952 165.716 199.006C165.276 197.932 163.921 198.566 163.125 198.2C162.438 192.066 162.614 185.778 161.188 179.719C161.148 179.498 161.04 179.295 160.879 179.139C160.718 178.983 160.513 178.88 160.291 178.846C160.069 178.812 159.842 178.849 159.641 178.95C159.441 179.051 159.277 179.212 159.173 179.411C159.059 181.946 160.08 184.595 160.159 187.2C160.159 187.147 160.159 187.098 160.159 187.05C161.4 190.733 158.495 200.669 164.013 200.528Z" fill="#773532"/>
<path d="M185.522 178.267C186.926 175.86 185.602 172.225 183.885 170.272C180.805 168.001 179.802 172.058 180.805 174.465C180.805 174.417 180.805 174.368 180.774 174.324C181.024 175.541 181.581 176.673 182.394 177.611L182.323 177.537L182.42 177.638C183.225 178.386 184.572 179.297 185.522 178.267Z" fill="#773532"/>
<path d="M178.49 203.247C179.638 207.005 177.17 211.379 173.17 212.739C169.17 214.099 164.264 212.55 162.455 209.029L161.302 206.697C166.886 206.935 173.562 205.681 178.49 203.247Z" fill="white"/>
<path d="M66.7083 384.267C66.7998 383.932 66.816 383.582 66.7559 383.24C66.6958 382.898 66.5609 382.574 66.3607 382.291C68.156 366.34 71.0734 350.53 74.3604 334.847C75.9269 326.443 75.0601 316.757 77.0006 308.445C78.0567 311.371 84.8331 312.049 84.7627 308.318C84.5735 297.981 85.6736 286.708 90.4831 277.621C91.4292 278.704 92.3796 279.786 93.3257 280.891C93.3257 280.891 93.3521 280.917 93.3609 280.935C95.9439 283.922 98.5048 286.989 100.929 290.175C101.061 290.347 101.193 290.523 101.321 290.699C103.476 293.516 105.468 296.455 107.288 299.499C107.288 299.46 107.248 299.425 107.231 299.385L107.301 299.513L107.561 299.997V300.036C112.841 311.917 118.416 325.184 116.801 338.702C116.801 338.759 116.801 338.807 116.801 338.882V339.01C116.801 339.041 116.801 339.063 116.801 339.089C116.801 339.115 116.775 339.274 116.762 339.371C116.748 339.467 116.762 339.463 116.74 339.503C115.86 345.258 113.967 350.772 113.189 356.541C112.199 363.453 111.341 370.397 111.16 377.389C111.16 378.036 111.134 378.709 111.125 379.352C111.127 379.362 111.127 379.372 111.125 379.382C111.125 379.431 111.125 379.475 111.125 379.528C111.063 384.509 111.037 389.49 110.949 394.489C112.023 406.105 108.903 413.023 103.468 418.127C102.121 419.378 100.678 420.521 99.1517 421.546C92.7053 425.946 86.1928 429.321 78.5891 426.351C73.4231 424.336 70.4486 420.992 68.5344 416.816C66.9063 413.265 66.0395 409.111 65.243 404.658C63.8349 396.825 62.2772 388.672 61.9648 380.681C61.7272 375.07 65.3178 389.662 66.7083 384.267Z" fill="#FBB89E"/>
<path d="M272.022 437.497C285.728 446.377 285.869 437.207 284.91 424.626C284.91 424.675 284.91 424.723 284.91 424.772L284.884 424.221C284.884 424.27 284.884 424.318 284.884 424.362C284.822 423.095 284.769 421.828 284.703 420.556C284.703 420.556 284.703 420.6 284.703 420.622V420.367C284.703 420.239 284.703 420.116 284.703 419.993C284.703 420.037 284.703 420.085 284.703 420.134C284.703 419.944 284.703 419.755 284.672 419.566C284.672 419.614 284.672 419.658 284.672 419.707C284.426 408.622 283.823 397.6 283.031 386.581C283.031 386.625 283.031 386.674 283.031 386.722C283.031 386.52 283.031 386.317 283 386.119C283 386.163 283 386.212 283 386.26C280.686 367.339 279.44 348.198 276.527 329.386C274.556 322.517 273.79 300.67 264.779 301.761L262.508 303.244L262.57 303.205C258.027 306.147 254.162 310.023 251.235 314.575V314.549C246.352 322.119 242.425 330.264 239.543 338.799C239.231 344.008 238.883 349.236 239.217 354.424C239.217 354.376 239.217 354.327 239.217 354.279C239.217 354.494 239.239 354.719 239.248 354.917C239.411 358.041 239.415 361.183 239.561 364.311C239.561 364.263 239.561 364.219 239.561 364.171L239.587 364.694C239.587 364.646 239.587 364.602 239.587 364.553C239.701 366.965 239.917 369.367 240.027 371.779V371.818C240.181 374.863 240.265 377.922 240.427 380.967C241.127 399.448 241.615 413.529 256.194 425.48L256.097 425.388C261.258 429.612 266.301 434.14 272.022 437.497Z" fill="#FEAA91"/>
<path d="M66.2994 312.599C67.1324 308.994 68.6242 305.573 70.6997 302.509C70.6285 302.254 70.615 301.987 70.6601 301.726C70.9989 299.592 88.2613 275.007 89.8806 272.028C89.9422 271.905 90.0082 271.782 90.0742 271.668C90.215 271.351 90.3602 271.034 90.5142 270.722C90.5742 270.58 90.6795 270.462 90.8134 270.387C94.3997 264.104 100.551 258.427 106.346 254.48C108.187 253.218 110.175 252.183 112.265 251.4C112.705 251.228 113.145 251.048 113.585 250.885C119.103 248.861 124.938 247.827 130.46 245.745C136.59 243.748 142.733 241.825 148.994 240.421C149.72 240.254 150.455 240.096 151.194 239.95C152.756 239.629 154.429 238.415 156.004 238.19C156.004 238.19 158.552 252.61 159.053 256.104C159.819 261.525 160.879 267.043 162.692 272.209C163.462 274.495 164.382 276.728 165.447 278.893C165.755 279.673 166.104 280.437 166.49 281.181V281.155C169.412 288.556 177.702 287.165 182.573 283.047C182.573 283.025 182.599 283.012 182.599 283.003C182.599 282.994 182.775 282.866 182.832 282.827C183.466 282.281 184.152 281.643 184.808 280.974C191.158 274.259 196.592 265.613 201.322 257.653C202.159 256.24 202.779 254.766 203.523 253.301C204.315 251.695 205.723 250.801 207.043 249.697C208.026 250.138 208.945 250.712 209.771 251.404C210.281 251.796 210.862 252.254 211.505 252.786C221.507 259.589 232.736 263.844 242.1 271.646C245.943 272.947 249.456 275.072 252.392 277.872C255.134 280.459 257.483 283.496 259.899 286.435C262.522 289.615 265.143 292.804 267.763 296.001C270.715 299.592 274.838 304.723 277.791 308.322C277.889 308.434 277.96 308.566 277.999 308.709C278.038 308.852 278.043 309.002 278.015 309.148C277.987 309.294 277.926 309.431 277.837 309.549C277.748 309.668 277.633 309.764 277.5 309.831C279.903 311.644 283.076 313.62 283.621 316.757C283.881 318.24 283.533 319.785 283.335 321.259C283.018 323.578 282.93 326.148 282.314 328.405C281.469 331.485 279.067 331.648 276.29 331.793C272.13 331.982 267.987 332.454 263.89 333.206C257.598 334.407 251.446 336.493 246.056 339.96C245.993 340.05 245.914 340.126 245.822 340.185C245.729 340.244 245.627 340.284 245.519 340.303C244.775 340.796 244.054 341.32 243.345 341.87C243.306 341.971 243.253 342.064 243.213 342.169C243.079 342.464 242.867 342.716 242.6 342.9C242.334 343.083 242.023 343.191 241.7 343.212C241.32 343.547 240.841 343.75 240.335 343.788C240.375 346.675 240.335 349.865 240.129 353.275V353.333C240.129 356.853 240.129 360.338 240.129 363.841C240.962 371.277 241.79 378.712 242.615 386.146C243.9 397.639 245.255 409.164 244.036 420.723C243.807 422.923 241.321 423.443 240.305 421.982C240.099 422.012 239.89 422.012 239.684 421.982C239.587 422.444 239.495 422.901 239.376 423.359C238.936 425.018 236.45 425.625 235.601 423.953L235.46 423.68C235.347 424.178 235.047 424.614 234.622 424.897C234.197 425.18 233.679 425.29 233.176 425.203L233.119 425.902C232.991 427.354 231.5 428.758 230.039 427.799C229.236 427.268 228.472 426.68 227.755 426.039C225.264 427.438 222.475 427.262 219.478 427.187C210.158 426.95 200.85 426.449 191.554 425.687C173.673 424.224 155.881 421.82 138.253 418.483C129.065 416.75 119.924 414.756 110.83 412.503C107.957 411.795 104.529 411.342 103.477 407.839C102.333 404.02 103.121 398.779 103.156 394.819C103.328 376.839 104.823 358.896 107.627 341.135C107.494 341.056 107.368 340.966 107.249 340.867C97.5151 332.33 87.28 323.362 75.0252 319.635C71.3157 318.5 65.0233 318.597 66.2994 312.599ZM235.997 414.497C235.913 414.704 235.83 414.906 235.742 415.108L236.072 415.755C236.058 415.337 236.036 414.919 235.997 414.497Z" fill="#5AA897"/>
<path d="M148.972 240.434C150.292 262.568 154.991 315.895 186.656 289.33C197.516 279.232 203.888 265.432 211.438 252.786C210.796 252.254 210.215 251.796 209.705 251.404C200.948 265.74 182.933 305.488 163.629 290.954C152.347 277.067 153.069 257.12 151.168 239.964C150.433 240.109 149.694 240.272 148.972 240.434Z" fill="#2C8878"/>
<path d="M103.258 368.245C103.548 367.572 103.891 366.925 104.164 366.248C104.47 365.458 104.631 364.621 104.639 363.775C104.679 362.058 104.455 360.351 104.534 358.631C104.62 356.983 104.816 355.342 105.119 353.72C105.726 350.27 106.527 346.86 107.262 343.436C108.083 339.623 108.905 335.8 109.726 331.969C109.757 331.859 109.81 331.756 109.882 331.667C109.954 331.579 110.044 331.505 110.145 331.452C110.246 331.399 110.358 331.367 110.472 331.358C110.586 331.35 110.7 331.364 110.809 331.402C111.025 331.5 111.198 331.675 111.294 331.892C111.391 332.109 111.404 332.354 111.332 332.581C109.876 339.375 108.3 346.151 106.976 352.981C106.636 354.664 106.4 356.368 106.272 358.081C106.158 359.735 106.272 361.354 106.329 363.009C106.399 364.661 106.065 366.306 105.357 367.801C104.692 369.103 104.281 370.521 104.147 371.977C103.922 375.29 104.701 378.674 103.619 381.882C103.24 382.995 101.63 382.392 102.008 381.275C102.963 378.445 102.321 375.369 102.422 372.434C102.438 370.998 102.722 369.578 103.258 368.245Z" fill="#2C8878"/>
<path d="M238.513 332.876C238.272 329.731 238.349 326.571 238.742 323.442C238.765 323.329 238.812 323.223 238.877 323.129C238.943 323.035 239.027 322.956 239.125 322.895C239.222 322.835 239.331 322.795 239.444 322.778C239.558 322.76 239.673 322.766 239.785 322.795C240.007 322.877 240.19 323.039 240.302 323.248C240.413 323.457 240.443 323.7 240.387 323.93C239.744 329.428 240.115 334.997 241.483 340.361C241.86 341.632 242.025 342.956 241.971 344.281C241.853 345.703 241.496 347.084 241.347 348.506C241.052 351.331 241.109 354.195 241.091 357.038C241.068 360.35 241.047 363.665 241.03 366.982C241.038 367.099 241.022 367.217 240.983 367.327C240.945 367.438 240.883 367.539 240.803 367.625C240.723 367.711 240.627 367.78 240.519 367.826C240.412 367.873 240.296 367.897 240.178 367.897C240.061 367.897 239.945 367.873 239.838 367.826C239.73 367.78 239.633 367.711 239.553 367.625C239.474 367.539 239.412 367.438 239.373 367.327C239.334 367.217 239.318 367.099 239.327 366.982C239.345 364.014 239.364 361.044 239.384 358.072C239.384 355.185 239.34 352.281 239.565 349.399C239.675 347.96 239.921 346.561 240.154 345.144C240.356 343.777 240.269 342.383 239.899 341.052C239.217 338.368 238.753 335.634 238.513 332.876Z" fill="#6F687C"/>
</g>
<path d="M228.169 149.793C232.041 157.555 238.435 163.777 241.933 171.864C243.614 175.737 244.252 179.754 245.453 183.745C246.831 188.335 249.251 192.546 250.245 197.281C254.162 215.823 251.152 235.792 259.64 253.292C263.16 260.517 268.141 268.574 275.578 272.292C283.591 276.297 292.061 270.629 295.758 263.285C300.092 254.687 297.883 243.69 295.692 234.806C293.381 225.46 289.8 216.479 287.529 207.137C285.58 199.133 285.289 190.645 285.162 182.227C284.695 180.489 284.224 178.755 283.758 177.013C279.644 162.694 271.292 150.571 261.664 139.478C260.621 138.273 259.556 137.08 258.487 135.905C257.418 134.73 256.287 133.507 255.182 132.328C251.099 128.442 248.032 123.483 244.578 118.982C243.497 117.556 242.344 116.185 241.124 114.876C239.842 113.509 238.433 112.267 236.917 111.167C221.063 110.023 222.039 140.539 228.169 149.793Z" fill="#FBB89E"/>
<path d="M244.715 167.944C246.704 174.452 248.675 180.973 250.677 187.472C252.499 193.356 254.492 199.248 258.699 203.885C260.727 206.125 257.41 209.461 255.372 207.212C251.117 202.513 248.719 196.792 246.801 190.821C244.495 183.644 242.4 176.401 240.2 169.194C239.298 166.294 243.835 165.053 244.715 167.944Z" fill="#EDA28D"/>
<path d="M239.654 125.714C240.6 129.872 243.24 133.353 246.105 136.394C248.97 139.434 251.544 142.237 256.001 141.463C257.982 141.112 259.894 140.451 261.669 139.505C260.626 138.299 259.561 137.107 258.492 135.932C257.464 136.416 256.364 136.728 255.236 136.856C251.962 137.168 248.45 132.328 246.708 129.864C244.759 127.113 243.465 123.857 244.209 120.456C244.319 119.963 244.442 119.479 244.583 119.008C243.502 117.582 242.349 116.212 241.128 114.903C240.288 118.515 238.73 121.657 239.654 125.714Z" fill="#EDA28D"/>
<path d="M137.501 358.655C136.367 349.419 142.935 341.012 152.171 339.878C161.407 338.744 169.814 345.312 170.948 354.548C172.082 363.784 165.514 372.191 156.278 373.325C147.042 374.459 138.635 367.891 137.501 358.655Z" fill="#E7775C"/>
<path d="M161.682 352.004C162.655 352.022 163.595 352.356 164.362 352.955C165.128 353.554 165.68 354.386 165.932 355.326L166.812 359.132C166.843 359.332 166.826 359.536 166.765 359.729C166.704 359.921 166.6 360.097 166.46 360.243C166.32 360.389 166.148 360.501 165.959 360.57C165.769 360.639 165.566 360.663 165.365 360.642L158.764 360.334C158.535 360.334 158.309 360.275 158.109 360.162C157.91 360.049 157.743 359.885 157.626 359.688C157.509 359.491 157.445 359.266 157.441 359.037C157.437 358.808 157.492 358.581 157.603 358.38L158.923 356.298L150.122 355.889L151.002 357.962C151.087 358.194 151.111 358.444 151.072 358.688C151.033 358.933 150.932 359.163 150.779 359.357C150.626 359.552 150.426 359.704 150.198 359.799C149.97 359.894 149.721 359.93 149.475 359.902L143.473 359.625C143.254 359.627 143.037 359.581 142.839 359.489C142.64 359.396 142.464 359.261 142.324 359.093C142.184 358.924 142.084 358.726 142.03 358.514C141.976 358.302 141.97 358.08 142.012 357.865L142.985 354.433C143.294 353.479 143.914 352.657 144.746 352.098C145.579 351.54 146.575 351.277 147.574 351.353L161.682 352.004Z" fill="white"/>
</g>
<path fill-rule="evenodd" clip-rule="evenodd" d="M317.454 514.558C316.74 514.87 316.154 514.566 315.621 514.14C315.338 513.913 315.092 513.642 314.894 513.338C313.885 511.77 312.474 510.617 310.894 509.727C308.209 508.215 305.421 506.889 302.447 506.042C300.357 505.437 298.198 505.103 296.023 505.047C292.352 504.973 288.86 504.06 285.416 502.913C283.424 502.237 281.679 500.983 280.404 499.31C278.394 496.743 278.032 493.81 278.828 490.731C279.323 488.794 280.112 486.944 281.167 485.246C282.487 483.133 284.456 481.937 286.94 481.608C288.531 481.397 290.062 481.697 291.585 482.104C291.924 482.195 292.267 482.273 292.71 482.382C292.732 482.081 292.737 481.778 292.727 481.477C292.414 477.974 293.9 475.155 296.056 472.571C297.602 470.718 299.631 469.598 301.829 468.798C304.325 467.886 306.635 468.543 308.808 469.913C311.105 471.359 312.677 473.436 313.971 475.755C316.102 479.575 317.755 483.593 318.566 487.904C318.912 489.767 319.124 491.662 319.296 493.552C319.517 495.985 319.64 498.425 319.798 500.865C319.824 501.255 319.819 501.648 319.813 502.042C319.774 504.942 319.74 507.842 319.678 510.74C319.67 511.146 319.508 511.54 319.417 511.939C319.205 511.612 318.988 511.29 318.785 510.958C317.746 509.259 316.743 507.538 315.669 505.862C314.627 504.24 313.506 502.662 312.425 501.065C313.089 500.494 313.038 499.723 312.985 498.97C312.862 497.227 312.755 495.479 312.558 493.743C312.372 491.937 311.886 490.175 311.119 488.529C310.534 487.305 309.893 486.106 309.265 484.902C308.861 484.119 308.246 483.463 307.49 483.01C305.205 481.633 302.319 482.529 301.823 485.379C301.687 486.117 301.7 486.879 301.646 487.631C301.623 487.95 301.605 488.268 301.585 488.597C301.332 488.597 301.179 488.597 301.035 488.583C299.624 488.462 298.216 488.279 296.802 488.229C295.316 488.175 294.035 488.752 293.028 489.877C291.912 491.121 291.729 493.027 292.758 494.201C293.502 495.051 294.333 495.84 295.506 496.183C297.278 496.684 299.094 497.008 300.929 497.151C303.256 497.356 305.446 497.896 307.371 499.282C307.531 499.397 307.75 499.428 307.94 499.497L307.925 499.487L308.209 499.687C308.458 499.939 308.69 500.207 308.902 500.49C310.677 503.193 312.492 505.87 314.184 508.623C315.357 510.54 316.366 512.574 317.454 514.558Z" fill="#FBD69E"/>
<path fill-rule="evenodd" clip-rule="evenodd" d="M412.227 565.5C412.136 566.214 412.056 566.929 411.956 567.639C411.921 567.934 411.851 568.224 411.747 568.503C411.42 569.314 410.843 569.668 410.087 569.541C409.332 569.414 408.841 568.865 408.871 568C408.898 567.199 409.071 566.402 409.187 565.603C409.229 565.308 409.289 565.018 409.341 564.724C409.655 561.815 409.971 558.914 410.287 555.933C409.86 555.812 409.402 555.692 408.951 555.551C406.829 554.896 405.327 553.537 404.473 551.497C403.908 550.146 403.582 548.738 403.787 547.255C403.822 546.987 403.887 546.723 403.982 546.469C404.475 545.185 405.109 544.781 406.483 544.909C407.858 545.038 409.001 545.703 410.068 546.531C410.323 546.727 410.574 546.927 410.91 547.191C411.181 545.254 411.137 543.431 411.064 541.508C410.552 541.496 410.081 541.508 409.61 541.473C407.763 541.366 406.097 540.853 404.943 539.278C404.093 538.122 403.714 536.804 403.623 535.386C403.518 533.788 404.908 532.736 406.114 532.497C407.252 532.272 408.335 532.497 409.386 532.935C409.683 533.061 409.983 533.176 410.418 533.35C410.16 531.023 409.228 529.026 408.646 526.935C408.51 526.976 408.433 526.976 408.416 527.009C407.729 528.361 406.571 529.044 405.137 529.328C403.024 529.746 400.99 529.566 399.09 528.472C398.237 527.978 397.998 527.377 398.301 526.419C398.786 524.873 399.787 523.743 401.186 522.954C402.471 522.231 403.874 521.896 405.39 521.738C405.078 521.104 404.545 520.766 404.039 520.351C402.837 520.924 401.54 521.272 400.213 521.377C396.574 521.694 392.886 519.47 391.402 516.062C390.882 514.866 390.464 513.644 390.591 512.296C390.61 511.978 390.71 511.67 390.882 511.401C391.054 511.133 391.291 510.913 391.572 510.763C392.44 510.257 393.394 510.127 394.371 510.18C397.29 510.339 399.74 511.467 401.639 513.731C402.695 514.989 403.689 516.273 404.021 517.942C404.073 518.139 404.196 518.311 404.366 518.425C404.714 518.65 405.1 518.817 405.551 519.048C405.612 518.482 405.651 518.009 405.716 517.54C405.997 515.539 406.616 513.654 407.801 512C408.17 511.487 408.628 511.044 409.152 510.692C410.025 510.112 410.76 510.365 411.343 511.232C413.028 513.739 413.193 516.503 412.585 519.324C412.235 520.946 411.343 522.327 409.733 523.177C410.534 525.29 411.332 527.394 412.125 529.489L412.24 529.474C412.24 529.19 412.258 528.905 412.255 528.622C412.235 525.597 413.666 523.253 415.731 521.211C415.951 521.003 416.206 520.836 416.483 520.716C417.666 520.176 418.681 520.757 418.866 522.031C418.9 522.294 418.98 522.548 419.102 522.784C420.979 526.211 419.394 531.722 414.19 532.536C413.817 532.595 413.429 532.551 412.993 532.555C413.325 534.893 413.655 537.211 413.993 539.591L414.519 538.842C415.305 537.711 416.239 536.738 417.483 536.104C418.646 535.512 419.837 535.363 421.06 535.923C421.639 536.193 421.85 536.508 421.793 537.139C421.573 539.616 420.743 541.841 418.994 543.664C418.159 544.535 417.201 545.223 415.942 545.255C415.351 545.272 414.756 545.141 414.09 545.069C414.059 545.267 414.039 545.467 414.029 545.668C414.004 551.512 413.306 557.301 412.594 563.089C412.501 563.893 412.352 564.696 412.227 565.5Z" fill="#B0C4A9"/>
<path fill-rule="evenodd" clip-rule="evenodd" d="M355.085 509.669C354.4 509.185 353.642 509.09 352.837 509.263C351.052 509.646 349.573 510.504 348.541 512.048C348.135 512.651 347.743 513.265 347.341 513.863C347.216 514.05 347.071 514.225 346.843 514.539C346.65 512.132 346.472 509.897 346.303 507.723C348.906 506.335 350.514 504.285 351.415 501.617C352.077 499.658 352.038 497.647 351.996 495.629C351.987 495.17 351.546 494.819 351.05 494.862C350.782 494.899 350.52 494.977 350.275 495.092C349.242 495.536 348.326 496.211 347.595 497.065C346.784 497.985 346.068 498.982 345.311 499.944C344.788 497.055 344.256 494.106 343.715 491.117C345.962 490.152 347.566 488.573 348.321 486.204C348.376 486.032 348.456 485.864 348.511 485.694C349.366 483.336 348.904 481.109 347.789 478.971C347.358 478.144 346.708 478.044 346.022 478.701C345.587 479.119 345.222 479.604 344.941 480.137C344.183 481.581 343.491 483.058 342.768 484.52C342.688 484.682 342.581 484.831 342.429 485.083C342.114 483.86 341.842 482.779 341.554 481.705C341.235 480.509 340.908 479.316 340.572 478.124C340.437 477.65 340.418 477.217 340.902 476.931C341.662 476.479 342.118 475.756 342.543 475.032C344.238 472.162 344.725 469.051 344.291 465.776C344.217 465.208 344.09 464.648 343.914 464.102C343.5 462.847 342.491 462.598 341.557 463.499C341.318 463.731 341.097 463.981 340.896 464.247C339.976 465.463 339.388 466.856 338.9 468.293C338.679 468.948 338.456 469.603 338.233 470.258H338.069C337.287 467.954 336.504 465.649 335.711 463.318C336.468 462.903 336.607 462.268 336.646 461.581C336.662 461.279 336.691 460.976 336.737 460.679C337.091 458.366 336.652 456.168 335.761 454.043C334.68 451.448 332.751 449.545 330.543 447.905C330.168 447.626 329.684 447.464 329.226 447.333C328.457 447.111 327.9 447.453 327.739 448.225C327.648 448.7 327.597 449.181 327.587 449.664C327.483 453.251 328.339 456.609 330.035 459.762C330.806 461.194 331.869 462.337 333.469 462.802C334.061 462.974 334.28 463.281 334.441 463.817C335.092 466.048 335.779 468.277 336.446 470.495C336.486 470.67 336.514 470.848 336.53 471.027C336.53 471.089 336.539 471.151 336.543 471.214L336.439 471.117C334.754 470.37 332.977 470.079 331.149 470.112C330.606 470.123 330.067 470.2 329.543 470.341C328.962 470.497 328.856 470.739 328.838 471.336C328.81 472.271 329.077 473.121 329.514 473.929C330.853 476.375 333.083 477.545 335.673 478.129C336.634 478.345 337.641 478.359 338.725 478.477C339.097 479.944 339.485 481.476 339.888 483.071C339.756 483.063 339.625 483.048 339.495 483.027C337.738 482.509 335.965 482.644 334.206 483.018C333.214 483.229 332.908 483.694 333.035 484.713C333.054 484.954 333.112 485.191 333.207 485.413C333.606 486.224 333.908 487.12 334.47 487.8C336.285 489.993 338.692 491.092 341.666 491.313C342.297 495.046 342.943 498.859 343.606 502.752C343.414 502.682 343.335 502.678 343.307 502.64C343.187 502.505 343.076 502.362 342.968 502.217C341.469 500.19 339.319 499.217 336.981 498.554C336.864 498.526 336.744 498.51 336.623 498.506C335.629 498.44 335.166 498.87 335.345 499.848C335.527 500.765 335.77 501.668 336.073 502.551C337.119 505.755 340.411 507.324 342.815 507.327C343.203 507.327 343.591 507.342 344.075 507.352C344.21 508.944 344.334 510.482 344.48 512.192C343.957 511.871 343.602 511.659 343.249 511.44C341.919 510.611 340.437 510.347 338.91 510.388C337.566 510.424 337.01 511.115 337.161 512.458C337.216 513.057 337.345 513.647 337.545 514.215C338.552 516.89 340.266 518.827 343.206 519.401C343.702 519.498 344.207 519.536 344.738 519.608C344.764 519.835 344.796 520.013 344.802 520.186C344.871 522.511 344.953 524.835 344.998 527.161C345.093 532.084 345.154 537.008 345.258 541.931C345.311 544.377 345.477 546.822 345.507 549.266C345.556 553.011 345.53 556.757 345.537 560.501C345.466 561.7 345.388 562.899 345.329 564.097C345.292 564.85 345.249 565.604 345.273 566.356C345.278 566.617 345.376 566.868 345.549 567.063C345.723 567.258 345.96 567.385 346.219 567.42C346.726 567.512 347.193 567.239 347.416 566.681C347.52 566.431 347.583 566.166 347.604 565.896C347.721 563.976 347.818 562.054 347.922 560.131C347.922 559.678 347.907 559.226 347.904 558.78C347.893 556.273 347.933 553.764 347.862 551.257C347.772 547.937 347.557 544.619 347.466 541.297C347.364 537.551 347.358 533.804 347.276 530.058C347.214 527.22 347.093 524.382 347.006 521.544C346.988 520.89 347.03 520.234 347.046 519.534C347.272 519.527 347.497 519.534 347.722 519.553C349.407 519.8 350.695 519.158 351.796 517.896C353.408 516.057 354.417 513.927 355.087 511.608C355.138 511.374 355.217 511.147 355.322 510.932C355.676 510.328 355.635 510.058 355.085 509.669Z" fill="#B0C4A9"/>
<path fill-rule="evenodd" clip-rule="evenodd" d="M425.197 562.593C425.051 563.049 424.897 563.501 424.762 563.96C424.366 565.285 423.996 566.618 423.577 567.935C423.424 568.361 423.226 568.768 422.987 569.152C422.861 569.369 422.672 569.543 422.445 569.65C422.219 569.758 421.965 569.795 421.717 569.755C421.469 569.716 421.239 569.602 421.057 569.429C420.875 569.256 420.75 569.032 420.697 568.787C420.606 568.262 420.523 567.697 420.619 567.185C420.935 565.504 421.335 563.838 421.7 562.165C421.726 562.017 421.743 561.869 421.753 561.719C422.103 560.439 422.416 559.151 422.807 557.883C424.457 552.546 426.084 547.207 427.807 541.889C430.283 534.243 433.014 526.69 436.065 519.257C436.799 517.47 437.603 515.709 438.457 513.977C438.829 513.221 438.87 512.49 438.764 511.702C438.672 511.137 438.627 510.566 438.629 509.993C438.78 505.584 438.899 501.173 439.142 496.769C439.36 492.915 440.138 489.159 441.739 485.619C442.225 484.547 442.787 483.511 443.421 482.518C443.911 481.757 444.485 481.051 445.13 480.414C448.057 477.513 452.571 478.252 454.475 481.918C454.572 482.106 454.66 482.298 454.761 482.508C454.846 482.49 454.956 482.508 455.007 482.454C456.99 480.582 459.44 479.683 462.034 479.091C463.422 478.774 464.818 478.56 466.254 478.805C468.864 479.248 470.567 481.06 470.815 483.705C470.939 485.037 470.723 486.378 470.188 487.604C468.73 491.013 466.748 494.058 463.792 496.366C462.576 497.312 461.294 498.171 459.995 498.997C455.332 501.973 450.86 505.236 446.603 508.767C445.016 510.078 443.527 511.494 442.422 513.262C442.287 513.488 442.096 513.738 441.869 513.85C441.296 514.132 441.084 514.644 440.845 515.171C437.985 521.48 435.677 527.999 433.557 534.581C431.125 542.112 428.827 549.68 426.491 557.239C426.019 558.766 425.68 560.333 425.281 561.885C425.236 562.119 425.208 562.356 425.197 562.593ZM446.616 503.658C446.815 503.523 447.022 503.411 447.212 503.266C450.785 500.525 454.429 497.893 458.294 495.573C459.43 494.897 460.533 494.142 461.598 493.351C464.03 491.543 465.703 489.117 467.013 486.424C467.414 485.639 467.595 484.759 467.536 483.879C467.444 482.691 466.879 482.008 465.694 481.91C464.853 481.843 464.007 481.892 463.18 482.056C460.008 482.685 457.171 483.901 455.426 486.855C455.242 487.166 455.099 487.506 454.885 487.79C454.713 488.014 454.48 488.281 454.229 488.34C453.037 488.62 451.825 487.697 451.726 486.464C451.692 486.044 451.771 485.613 451.714 485.198C451.642 484.667 451.579 484.106 451.35 483.631C450.627 482.09 448.737 481.787 447.545 482.983C446.681 483.848 446.046 484.875 445.507 485.956C444.093 488.772 443.236 491.834 442.983 494.974C442.712 498.374 442.593 501.786 442.41 505.193C442.398 505.415 442.398 505.638 442.393 505.859C442.609 505.715 442.784 505.518 442.903 505.288C444.175 503.059 445.415 500.813 446.721 498.606C447.786 496.813 449.037 495.138 450.453 493.606C450.76 493.273 451.089 492.962 451.438 492.674C451.645 492.499 451.887 492.37 452.148 492.297C452.317 492.255 452.527 492.374 452.719 492.421C452.668 492.606 452.654 492.815 452.554 492.969C452.41 493.192 452.179 493.359 452.026 493.579C449.849 496.712 448.107 500.086 446.471 503.524C446.471 503.611 446.471 503.698 446.462 503.786L446.616 503.658Z" fill="#59724C"/>
<path fill-rule="evenodd" clip-rule="evenodd" d="M383.647 554.981C383.368 558.346 382.856 561.687 382.115 564.981C381.832 566.262 381.584 567.549 381.304 568.833C381.23 569.185 381.114 569.527 380.957 569.852C380.731 570.3 380.343 570.485 379.95 570.41C379.73 570.373 379.529 570.26 379.383 570.092C379.237 569.923 379.154 569.709 379.149 569.485C379.104 568.918 379.121 568.349 379.199 567.785C379.469 566.108 379.82 564.442 380.103 562.766C380.357 561.27 380.572 559.766 380.788 558.264C380.913 557.397 381.013 556.527 381.115 555.657C381.138 555.454 381.115 555.251 381.124 555.039C381.307 552.589 381.53 550.141 381.665 547.688C381.762 545.776 381.736 543.858 381.762 541.943C381.762 541.716 381.742 541.488 381.73 541.228C380.973 541.065 380.243 540.882 379.513 540.757C376.989 540.328 375.238 538.882 374.066 536.68C373.772 536.124 373.526 535.542 373.955 534.923C373.982 534.878 373.994 534.826 373.99 534.774C373.931 533.745 374.632 533.37 375.447 533.153C377.217 532.677 378.931 532.763 380.522 533.785C380.604 533.839 380.699 533.876 380.92 533.985C380.689 532.745 380.48 531.615 380.259 530.431C379.785 530.458 379.355 530.486 378.927 530.508C376.663 530.622 374.855 529.708 373.412 528.019C372.593 527.059 372.094 525.919 371.738 524.72C371.549 524.085 371.7 523.585 372.205 523.054C373.715 521.465 375.499 521.743 377.327 522.127C377.577 522.18 377.818 522.28 378.063 522.355C378.082 522.355 378.108 522.344 378.219 522.312C378.092 521.703 377.993 521.074 377.813 520.467C377.759 520.278 377.507 520.139 377.332 519.992C374.901 517.926 373.6 515.328 373.735 512.107C373.787 511.256 373.951 510.415 374.222 509.607C374.544 508.586 374.973 508.455 376.027 508.507C377.196 508.562 377.953 509.171 378.551 510.07C379.714 511.8 380.366 513.823 380.434 515.907C380.495 517.584 380.465 519.274 379.843 520.884C379.798 521.001 379.789 521.13 379.818 521.253C380.073 522.119 380.342 522.98 380.596 523.807C381.235 522.943 381.812 522.05 382.505 521.265C383.041 520.67 383.645 520.14 384.305 519.686C385.436 518.888 386.653 519.04 387.853 519.561C388.186 519.705 388.316 519.981 388.415 520.335C388.674 521.255 388.507 522.127 388.23 522.996C387.953 523.865 387.661 524.767 387.335 525.639C386.918 526.761 386.166 527.651 385.228 528.37C384.369 529.03 383.472 529.635 382.538 530.299C382.819 531.628 383.109 533.001 383.442 534.581C383.663 534.207 383.805 533.986 383.928 533.755C384.816 532.099 386.091 530.863 387.854 530.172C388.32 529.974 388.82 529.871 389.325 529.868C389.831 529.865 390.332 529.963 390.8 530.155C391.188 530.313 391.377 530.573 391.341 530.989C391.309 531.323 391.328 531.677 391.218 531.984C390.416 534.213 389.42 536.335 387.727 538.057L387.566 538.224C386.42 539.395 385.739 539.776 384.188 540.116C384.176 540.657 384.146 541.189 384.155 541.726C384.219 545.845 384.127 549.955 383.704 554.055C383.669 554.36 383.665 554.67 383.647 554.981ZM386.326 521.794C384.192 522.446 382.011 525.443 382.147 527.534C383.746 526.874 386.181 523.777 386.326 521.794ZM384.299 537.913C386.441 536.697 387.5 534.82 388.289 532.685C386.727 532.959 384.635 535.816 384.293 537.913H384.299ZM374.434 524.927C375.639 526.322 377.338 526.504 378.924 527.074C378.288 525.53 376.489 524.674 374.432 524.923L374.434 524.927ZM376.231 511.519C376.105 513.704 377.004 515.373 378.074 516.982C377.824 515.092 377.776 513.134 376.23 511.519H376.231ZM376.073 535.422C376.977 536.795 378.219 537.541 379.801 538.165C379.453 537.545 379.189 537.084 378.935 536.623C378.33 535.52 377.384 535.193 376.072 535.422H376.073Z" fill="#59724C"/>
<path fill-rule="evenodd" clip-rule="evenodd" d="M371.853 485.658C372.55 484.62 373.268 483.596 373.94 482.541C377.144 477.517 380.74 472.782 384.592 468.247C385.603 467.058 386.844 466.056 388.06 465.058C388.509 464.685 389.141 464.517 389.722 464.336C389.91 464.276 390.178 464.478 390.41 464.559C390.333 464.76 390.313 465.021 390.172 465.153C387.748 467.429 385.983 470.225 384.015 472.864C380.895 477.054 378.126 481.479 375.272 485.847C374.876 486.454 374.549 487.105 374.191 487.739C374.002 488.031 373.799 488.316 373.627 488.616C370.085 494.789 367.367 501.319 365.184 508.075C363.733 512.573 362.302 517.073 361.342 521.708C360.378 526.425 359.653 531.188 359.171 535.978C358.553 541.783 358.237 547.616 358.225 553.454C358.225 554.238 358.295 555.023 358.333 555.807C358.308 558.261 358.617 560.688 358.958 563.104C359.195 564.774 359.514 566.434 359.784 568.104C359.808 568.366 359.817 568.628 359.81 568.891C359.833 569.468 359.494 569.837 359.035 570.062C358.811 570.18 358.553 570.217 358.305 570.168C358.056 570.119 357.832 569.986 357.669 569.792C357.334 569.407 357.015 568.942 356.884 568.46C356.482 567.061 356.159 565.642 355.916 564.207C355.603 562.168 355.418 560.108 355.191 558.054C355.125 557.453 355.103 556.847 355.056 556.243C355.088 556.014 355.107 555.784 355.111 555.553C354.935 550.704 355.211 545.868 355.576 541.038C356.002 535.304 356.75 529.599 357.816 523.95C358.344 521.173 359.042 518.43 359.644 515.667C359.798 515.017 359.895 514.355 359.935 513.688C360.154 508.467 360.038 503.237 359.588 498.031C359.122 492.76 358.318 487.554 356.669 482.506C356.753 482.523 356.834 482.551 356.91 482.59C357.935 483.305 358.175 483.266 358.904 482.293C358.941 482.25 358.98 482.208 359.022 482.17C360.391 485.441 361.261 488.854 361.826 492.343C362.512 496.696 362.724 501.111 362.457 505.511C362.434 505.745 362.461 505.983 362.535 506.206C362.642 505.946 362.768 505.69 362.856 505.423C365.057 498.747 367.98 492.332 371.573 486.291C371.679 486.086 371.773 485.874 371.853 485.658Z" fill="#59724C"/>
<path fill-rule="evenodd" clip-rule="evenodd" d="M313.233 545.62C307.789 546.004 304.795 549.353 301.294 553.365C300.769 553.988 300.206 554.578 299.609 555.132C297.717 556.827 295.521 557.23 293.109 556.532C292.085 556.238 291.188 555.609 290.562 554.747C289.936 553.885 289.615 552.838 289.651 551.773C289.716 549.846 290.03 547.989 290.97 546.232C290.699 546.068 290.479 545.932 290.256 545.79C288.77 544.845 287.974 543.503 287.903 541.736C287.831 540.067 288.2 538.409 288.974 536.928C290.148 534.644 292.036 533.382 294.56 533.144C296.767 532.932 298.963 533.026 301.071 533.855C301.547 534.042 302.055 534.14 302.547 534.286C304.033 534.728 305.377 535.477 306.662 536.336C309.536 538.257 314.809 541.389 314.327 545.574C313.953 545.581 313.588 545.596 313.233 545.62Z" fill="#E7775C"/>
<path fill-rule="evenodd" clip-rule="evenodd" d="M421.324 478.289C421.796 478.005 422.17 477.748 422.569 477.544C424.177 476.713 425.854 476.897 427.19 478.118C428.755 479.55 429.501 481.34 429.279 483.475C429.039 485.995 427.995 488.37 426.302 490.251C423.71 493.154 421.021 495.973 418.363 498.817C418.071 499.121 417.747 499.393 417.397 499.628C416.1 500.525 414.536 499.96 414.056 498.462C413.9 498.044 413.715 497.638 413.502 497.246C413.296 496.81 413.028 496.397 412.881 495.943C412.548 494.909 412.252 493.862 411.979 492.812C411.6 491.351 411.264 489.879 410.898 488.416C410.421 486.524 410.145 484.624 410.473 482.679C410.817 480.622 411.816 478.863 413.147 477.314C414.533 475.705 416.306 475.445 418.255 476.197C419.41 476.658 420.5 477.229 421.324 478.289Z" fill="#B0C4A9"/>
<path fill-rule="evenodd" clip-rule="evenodd" d="M276.006 516.482L281.564 515.952C281.452 515.817 281.414 515.728 281.349 515.682C279.342 514.466 278.542 512.515 278.172 510.334C278.117 509.915 278.16 509.49 278.296 509.09C278.607 508.105 279.33 507.794 280.269 508.221C281.064 508.582 281.9 508.897 282.606 509.398C284.791 510.932 285.658 513.109 285.516 515.774L290.787 516.47C290.644 516.265 290.531 516.1 290.416 515.93C289.575 514.734 289.119 513.407 289.165 511.94C289.194 511.02 289.673 510.319 290.381 510.248C291.027 510.188 291.698 510.275 292.348 510.365C292.642 510.43 292.919 510.56 293.158 510.744C294.715 511.768 295.873 513.294 296.44 515.069C296.767 516.075 296.744 516.836 296.422 517.99C296.648 518.089 296.879 518.209 297.122 518.293C300.446 519.434 303.352 521.336 306.215 523.309C306.387 523.433 306.545 523.575 306.687 523.732C306.927 523.992 307.1 524.328 306.861 524.627C306.675 524.861 306.349 525.103 306.073 525.117C305.651 525.123 305.232 525.034 304.848 524.858C303.902 524.453 302.956 524.063 302.067 523.553C300.221 522.49 298.368 521.409 296.335 520.685C296.031 520.577 295.722 520.488 295.389 520.38C295.298 520.92 295.208 521.361 295.149 521.807C294.908 523.563 293.871 524.84 292.581 525.94C292.272 526.181 291.916 526.356 291.537 526.455C290.973 526.621 290.341 526.401 290.103 525.94C289.488 524.75 289.022 523.524 289.237 522.13C289.36 521.197 289.737 520.316 290.325 519.582C290.472 519.4 290.614 519.213 290.829 518.94C288.944 518.511 287.169 518.13 285.234 518.038C285.223 518.538 285.234 518.955 285.202 519.37C285.131 520.615 284.716 521.816 284.004 522.839C283.549 523.486 282.911 523.983 282.172 524.265C281.381 524.581 280.625 524.428 279.892 524.088C279.364 523.842 279.199 523.331 279.156 522.813C279.02 521.29 279.068 519.789 279.908 518.428C279.983 518.308 280.03 518.171 280.133 517.951C279.63 517.939 279.219 517.916 278.808 517.924C277.602 517.946 276.395 517.994 275.187 518.001C274.764 517.98 274.348 518.117 274.02 518.385C272.129 519.955 270.014 520.081 267.804 519.232C267.072 518.95 266.378 518.578 265.737 518.127C264.885 517.525 264.82 516.896 265.208 515.919C265.896 514.18 267.383 513.535 269.022 513.225C271.353 512.785 273.377 513.524 275.062 515.166C275.399 515.493 275.626 515.938 276.006 516.482Z" fill="#B0C4A9"/>
<path fill-rule="evenodd" clip-rule="evenodd" d="M317.453 514.558C316.372 512.574 315.355 510.54 314.171 508.612C312.479 505.859 310.657 503.182 308.89 500.479C308.676 500.197 308.444 499.93 308.194 499.679L307.91 499.479L307.925 499.489C307.791 499.231 307.636 498.985 307.46 498.754C306.857 498.078 306.234 497.423 305.61 496.769C304.465 495.573 303.313 494.385 302.164 493.192C301.998 493.019 301.782 492.858 301.701 492.651C301.604 492.411 301.589 492.145 301.659 491.896C301.772 491.577 302.107 491.482 302.419 491.573C302.771 491.655 303.104 491.799 303.405 491.998C304.384 492.747 305.387 493.485 306.278 494.327C308.44 496.388 310.574 498.477 312.275 500.948C312.315 500.992 312.36 501.03 312.41 501.062C313.491 502.659 314.606 504.236 315.653 505.859C316.734 507.535 317.73 509.257 318.77 510.955C318.972 511.288 319.19 511.609 319.402 511.936C319.446 512.079 319.5 512.219 319.561 512.355C322.779 518.446 325.579 524.734 328.422 531.004C329.57 533.532 330.79 536.605 331.794 539.196C334.137 545.231 337.767 558.656 338.431 561.099C338.508 561.383 339.322 564.072 339.576 565.153C339.871 566.414 340.201 567.67 340.414 568.946C340.511 569.505 340.453 570.079 340.248 570.607C340.137 570.878 339.937 571.103 339.683 571.247C339.428 571.392 339.132 571.446 338.843 571.403C338.139 571.299 337.594 570.908 337.393 570.203C337.191 569.497 337.085 568.729 336.893 568.002C336.425 566.229 335.931 564.462 335.447 562.692C335.09 561.385 334.713 560.083 334.383 558.773C333.405 554.865 330.803 542.53 320.568 521.082C319.711 519.285 318.918 517.459 318.08 515.654C317.905 515.271 317.664 514.923 317.453 514.558Z" fill="#59724C"/>
<path fill-rule="evenodd" clip-rule="evenodd" d="M466.072 535.53C466.103 535.615 466.187 535.742 466.159 535.778C465.929 536.058 465.684 536.319 465.433 536.589C464.398 537.67 463.634 538.928 462.951 540.238C460.166 541.68 457.539 543.409 455.113 545.396C448.48 550.801 442.598 556.889 437.995 564.147C437.804 564.449 437.648 564.774 437.475 565.093C436.596 566.42 435.718 567.749 434.84 569.072C434.473 569.623 434.106 570.176 433.71 570.706C433.521 570.939 433.305 571.149 433.067 571.33C432.614 571.7 432.121 571.696 431.64 571.395C431.425 571.274 431.258 571.084 431.166 570.856C431.074 570.628 431.063 570.375 431.134 570.139C431.368 569.304 431.604 568.453 431.991 567.683C432.531 566.611 433.207 565.61 433.819 564.574C434.015 564.239 434.191 563.892 434.376 563.55C434.781 563.027 435.179 562.51 435.572 561.984C437.337 559.616 439.056 557.212 440.873 554.887C443.506 551.518 446.786 548.789 449.928 545.926C454.476 541.78 459.672 538.64 465.19 535.985C465.492 535.838 465.778 535.68 466.072 535.53Z" fill="#59724C"/>
<path fill-rule="evenodd" clip-rule="evenodd" d="M343.37 436.625C343.126 437.278 342.99 437.976 342.332 438.395C342.221 438.467 342.21 438.691 342.149 438.844C341.953 439.337 341.703 439.486 341.175 439.375C339.799 439.084 338.607 438.482 337.674 437.391C336.052 435.499 335.153 433.337 335.062 430.837C334.99 428.868 335.171 426.932 335.826 425.065C336.001 424.567 336.25 424.097 336.566 423.674C337.028 423.063 337.52 423.03 338.168 423.457C338.272 423.549 338.388 423.626 338.513 423.684C340.022 424.121 340.92 425.263 341.695 426.505C343.367 429.119 344.059 432.241 343.647 435.317C343.591 435.757 343.466 436.188 343.37 436.625Z" fill="#FBD69E"/>
<path fill-rule="evenodd" clip-rule="evenodd" d="M303.942 443.19C304.115 442.932 304.272 442.682 304.444 442.441C305.242 441.334 306.321 440.852 307.671 441.075C308.942 441.286 309.659 442.143 310.059 443.297C310.448 444.421 310.384 445.561 310.046 446.682C309.856 447.316 309.569 447.92 309.352 448.545C309.009 449.539 308.668 450.536 308.361 451.541C308.19 452.099 307.977 452.613 307.538 453.028C307.304 453.261 307.087 453.51 306.89 453.775C306.179 454.664 305.095 454.87 304.152 454.241C303.809 453.995 303.496 453.71 303.221 453.39C301.936 451.99 300.668 450.574 299.383 449.172C298.496 448.203 297.896 447.133 297.995 445.759C298.164 443.406 300.325 441.921 302.568 442.651C303.023 442.784 303.464 442.994 303.942 443.19Z" fill="#E7775C"/>
<path fill-rule="evenodd" clip-rule="evenodd" d="M354.093 449.675C354.301 449.417 354.478 449.124 354.723 448.905C356.615 447.213 359.254 447.83 360.204 450.189C360.643 451.279 360.701 452.412 360.526 453.567C360.227 455.526 359.476 457.337 358.7 459.136C358.365 459.91 357.95 460.648 357.594 461.413C357.422 461.763 357.287 462.129 357.189 462.506C356.951 463.531 355.923 464.067 355.053 463.489C354.193 462.935 353.4 462.285 352.69 461.549C351.29 460.047 350.053 458.406 349.231 456.498C348.682 455.221 348.461 453.902 348.819 452.526C349.083 451.529 349.617 450.624 350.362 449.91C351.188 449.099 352.3 448.582 353.628 449.467C353.707 449.509 353.789 449.544 353.874 449.572L354.093 449.675ZM352.131 452.322C351.493 453.318 351.697 454.191 352.115 454.944C352.976 456.494 353.953 457.979 354.904 459.526C355.039 459.385 355.12 459.332 355.15 459.256C355.738 457.801 356.338 456.349 356.893 454.882C357.235 453.975 357.47 453.037 357.413 452.044C357.393 451.682 357.376 451.325 357.032 451.072C356.431 451.248 356.17 451.741 355.892 452.195C355.592 452.686 355.37 453.222 355.054 453.699C354.366 454.736 353.263 454.645 352.717 453.528C352.547 453.183 352.384 452.832 352.131 452.322Z" fill="#FBD69E"/>
<path fill-rule="evenodd" clip-rule="evenodd" d="M325.617 518.551C325.704 516.045 326.271 513.578 327.287 511.285C327.585 510.66 327.978 510.086 328.452 509.582C328.715 509.288 329.146 509.108 329.533 508.973C329.661 508.934 329.796 508.92 329.929 508.933C330.062 508.946 330.191 508.985 330.309 509.048C330.901 509.427 331.525 509.807 331.988 510.319C332.422 510.821 332.757 511.401 332.973 512.029C333.275 512.85 333.484 513.701 333.594 514.569C333.932 517.477 333.756 520.359 332.783 523.142C332.513 523.93 332.04 524.653 331.632 525.39C331.312 525.966 330.767 526.149 330.133 526.259C328.675 526.516 327.9 525.566 327.174 524.617C326.328 523.513 326.027 522.162 325.814 520.816C325.682 519.955 325.662 519.075 325.617 518.551Z" fill="#FBD69E"/>
<path fill-rule="evenodd" clip-rule="evenodd" d="M314.581 546.3C312.955 544.998 310.998 544.174 308.931 543.922C307.582 543.76 306.218 543.789 304.877 544.005C304.828 544.005 304.778 544.013 304.728 544.016C304.125 544.047 303.808 543.9 303.678 543.528C303.527 543.095 303.69 542.62 304.142 542.304C304.917 541.763 305.814 541.628 306.731 541.523C309.209 541.235 311.539 541.746 313.788 542.755C314.024 542.848 314.255 542.953 314.481 543.07C317.897 545.043 320.535 547.788 322.478 551.204C323.289 552.642 324.079 554.099 324.844 555.565C325.042 555.933 325.158 556.339 325.185 556.755C325.221 557.777 324.239 558.391 323.342 557.892C322.962 557.665 322.642 557.353 322.405 556.98C322.043 556.424 321.794 555.797 321.473 555.215C320.724 553.853 320.009 552.469 319.19 551.151C318.128 549.439 316.747 547.989 315.185 546.718C315 546.563 314.785 546.438 314.581 546.3Z" fill="#59724C"/>
<path fill-rule="evenodd" clip-rule="evenodd" d="M395.24 549.759C395.539 549.385 395.811 548.984 396.142 548.645C397.693 547.054 400.216 547.563 400.796 549.612C400.961 550.195 400.904 550.874 400.805 551.486C400.535 553.124 399.788 554.572 398.913 555.961C398.173 557.135 397.44 558.315 396.7 559.491C396.372 560.011 395.993 560.584 395.326 560.533C394.445 560.465 393.52 560.337 393.016 559.42C392.205 557.934 391.344 556.48 390.584 554.97C389.982 553.769 389.751 552.468 389.773 551.107C389.802 549.983 390.16 548.893 390.804 547.972C391.43 547.034 392.239 546.672 393.192 546.876C394.057 547.061 394.788 547.947 394.93 548.981C394.966 549.238 395.004 549.495 395.04 549.75L395.24 549.759Z" fill="#FBD69E"/>
<path fill-rule="evenodd" clip-rule="evenodd" d="M450.627 524.622C451.184 524.593 451.666 524.521 452.141 524.558C452.651 524.587 453.155 524.685 453.638 524.85C454.989 525.358 455.619 526.589 455.221 527.98C454.831 529.331 454.05 530.426 452.764 531.074C452.223 531.345 451.643 531.516 451.089 531.75C449.926 532.24 448.769 532.745 447.606 533.236C447.108 533.447 446.616 533.69 446.097 533.826C445.177 534.066 444.484 533.68 444.187 532.778C444.081 532.403 444.024 532.015 444.018 531.624C443.969 530.693 443.946 529.761 443.922 528.828C443.887 527.535 443.796 526.238 443.852 524.947C443.902 523.782 444.257 522.693 445.203 521.888C445.779 521.396 446.419 521.115 447.188 521.176C447.458 521.196 447.729 521.192 447.999 521.189C449.35 521.178 450.296 521.965 450.518 523.292C450.587 523.707 450.592 524.127 450.627 524.622Z" fill="#E7775C"/>
<path fill-rule="evenodd" clip-rule="evenodd" d="M321.859 538.072C318.337 537.846 315.44 536.147 313.665 532.68C313.168 531.708 312.688 530.724 312.604 529.62C312.564 529.172 312.627 528.721 312.788 528.301C312.923 527.97 313.248 527.599 313.573 527.481C315.348 526.838 317.142 526.622 318.902 527.566C319.727 528.009 320.559 528.442 321.368 528.917C322.297 529.434 323.081 530.178 323.645 531.08C323.766 531.284 323.921 531.466 324.102 531.62C325.384 532.657 325.932 534.069 326.129 535.638C326.255 536.661 325.911 537.157 324.921 537.618C324.211 537.942 323.238 538.105 321.859 538.072Z" fill="#FBD69E"/>
<path fill-rule="evenodd" clip-rule="evenodd" d="M360.356 485.031C360.313 485.07 360.272 485.113 360.235 485.158C359.481 486.17 359.232 486.205 358.17 485.465C358.092 485.424 358.008 485.396 357.921 485.379C356.872 484.908 355.916 484.253 355.097 483.446C354.573 482.944 354.024 482.47 353.504 481.966C353.061 481.556 352.643 481.12 352.252 480.66C350.614 478.633 351.12 475.931 353.37 474.591C354.087 474.162 354.835 474.06 355.62 474.401C355.755 474.459 355.89 474.509 356.055 474.577C356.258 474.263 356.424 473.982 356.616 473.718C357.779 472.117 359.605 472.106 360.764 473.718C361.74 475.07 361.924 476.623 361.739 478.216C361.494 480.316 361.137 482.398 360.481 484.419C360.428 484.62 360.386 484.824 360.356 485.031Z" fill="#E7775C"/>
<path fill-rule="evenodd" clip-rule="evenodd" d="M442.893 445.929C443.358 445.837 443.764 445.724 444.179 445.683C446.191 445.482 447.524 447.12 446.871 449.045C446.662 449.641 446.341 450.192 445.925 450.667C445.324 451.341 444.667 451.964 443.962 452.529C442.364 453.828 440.871 456.043 438.751 456.497C435.047 457.291 436.714 450.082 436.817 448.155C436.83 447.793 436.864 447.432 436.92 447.074C437.155 445.666 437.921 444.641 439.205 444.016C440.907 443.18 442.728 444.111 442.893 445.929Z" fill="#59724C"/>
<path fill-rule="evenodd" clip-rule="evenodd" d="M489.074 508.301C487.813 508.371 486.58 508.477 485.345 508.493C484.498 508.505 483.759 508.231 483.318 507.392C483.083 506.947 483.026 506.534 483.232 506.1C483.389 505.741 483.59 505.403 483.83 505.094C485.534 503.051 487.532 501.37 489.991 500.3C491.746 499.522 493.713 499.362 495.571 499.847C495.951 499.944 496.317 500.089 496.66 500.278C497.295 500.627 497.36 500.893 497.066 501.585C497.007 501.687 496.971 501.801 496.962 501.919C497.028 502.711 496.644 503.332 496.164 503.879C494.874 505.354 493.626 506.897 491.66 507.536C490.802 507.817 489.929 508.051 489.074 508.301Z" fill="#FBD69E"/>
<path fill-rule="evenodd" clip-rule="evenodd" d="M461.814 462.066C461.69 463.666 461.144 465.205 460.232 466.525C459.163 468.116 457.917 469.55 456.368 470.679C455.811 471.085 455.187 471.39 454.525 471.582C453.636 471.833 453.283 471.458 453.261 470.536C453.249 470.09 453.106 469.651 453.053 469.205C452.866 467.594 453.36 466.097 453.893 464.622C454.787 462.109 456.304 459.864 458.303 458.097C458.816 457.64 459.413 457.502 460.033 457.41C460.586 457.328 460.925 457.713 461.189 458.135C461.701 458.961 461.959 459.919 461.932 460.891C461.926 461.287 461.855 461.679 461.814 462.066Z" fill="#FBD69E"/>
<path fill-rule="evenodd" clip-rule="evenodd" d="M370.7 436.906C370.464 438.607 370.223 440.309 369.99 442.01C369.833 443.156 369.194 444.003 368.299 444.665C368.121 444.801 367.783 444.801 367.541 444.748C366.853 444.604 366.24 444.215 365.817 443.655C365.503 443.249 365.181 442.829 364.994 442.363C364.022 439.957 363.642 437.487 364.365 434.937C364.771 433.482 365.245 432.045 366.142 430.801C366.324 430.528 366.553 430.29 366.818 430.098C367.494 429.646 368.045 429.748 368.549 430.402C369.942 432.206 370.681 434.236 370.627 436.532C370.627 436.653 370.627 436.774 370.619 436.894L370.7 436.906Z" fill="#B0C4A9"/>
<path fill-rule="evenodd" clip-rule="evenodd" d="M388.5 495.384C389.159 494.792 389.816 494.424 390.64 494.456C391.49 494.489 392.029 494.913 392.227 495.742C392.318 496.13 392.331 496.532 392.265 496.925C392.2 497.318 392.057 497.694 391.844 498.031C391.5 498.6 391.108 499.139 390.674 499.643C390.003 500.417 389.438 501.277 388.994 502.2C388.454 503.338 387.4 503.581 386.523 502.648C385.136 501.174 384.071 499.477 384.006 497.355C383.997 496.768 384.108 496.185 384.332 495.643C384.986 494.05 386.778 493.694 388.055 494.861C388.214 495.026 388.362 495.2 388.5 495.384Z" fill="#59724C"/>
<path fill-rule="evenodd" clip-rule="evenodd" d="M457.392 560.311C458.275 560.396 458.988 560.631 459.523 561.257C460.058 561.883 460.129 562.588 459.658 563.295C459.435 563.625 459.148 563.907 458.814 564.125C458.48 564.343 458.106 564.493 457.714 564.565C457.062 564.696 456.4 564.773 455.735 564.795C454.712 564.824 453.697 564.991 452.718 565.291C451.516 565.665 450.62 565.052 450.714 563.774C450.86 561.747 451.389 559.82 452.903 558.342C453.33 557.937 453.836 557.625 454.389 557.423C456.011 556.826 457.481 557.903 457.487 559.634C457.469 559.861 457.438 560.087 457.392 560.311Z" fill="#B0C4A9"/>
<path fill-rule="evenodd" clip-rule="evenodd" d="M263.951 494.382C263.963 493.886 263.965 493.494 263.98 493.104C264.01 492.371 264.217 491.706 264.926 491.379C265.691 491.028 266.342 491.367 266.899 491.889C267.239 492.187 267.538 492.528 267.788 492.905C268.298 493.722 268.762 494.567 269.179 495.435C269.663 496.471 270.029 497.562 270.501 498.605C270.84 499.355 270.722 500.079 270.526 500.812C270.411 501.236 270.063 501.446 269.659 501.51C269.362 501.57 269.057 501.567 268.761 501.502C267.225 501.075 265.68 500.663 264.167 500.144C263.194 499.808 262.398 499.146 261.772 498.29C260.948 497.16 261.348 495.921 261.9 494.894C262.141 494.448 262.63 494.281 263.149 494.306C263.413 494.32 263.673 494.352 263.951 494.382Z" fill="#59724C"/>
<path fill-rule="evenodd" clip-rule="evenodd" d="M368.13 551.978C366.476 551.931 365.219 550.58 365.106 548.726C365.075 547.937 365.269 547.156 365.666 546.474C366.062 545.791 366.645 545.236 367.345 544.872C369.554 543.791 372.049 545.393 371.912 547.858C371.889 548.558 371.705 549.242 371.373 549.858C371.041 550.474 370.571 551.005 370 551.41C369.462 551.812 368.801 552.013 368.13 551.978Z" fill="#B0C4A9"/>
<path fill-rule="evenodd" clip-rule="evenodd" d="M416.303 430.399C416.464 429.404 416.843 428.457 417.412 427.625C418.045 426.745 418.707 425.883 419.403 425.057C419.679 424.74 420.02 424.486 420.403 424.313C421.156 423.967 421.889 424.113 422.506 424.657C422.788 424.889 422.997 425.198 423.107 425.546C423.217 425.895 423.222 426.268 423.123 426.619C423.055 426.944 422.923 427.251 422.734 427.524C421.69 428.852 420.63 430.162 419.554 431.453C419.334 431.701 419.076 431.911 418.788 432.076C418.535 432.245 418.238 432.336 417.934 432.338C417.629 432.34 417.331 432.252 417.076 432.087C416.534 431.759 416.246 431.147 416.303 430.399Z" fill="#E7775C"/>
<path fill-rule="evenodd" clip-rule="evenodd" d="M429.246 443.21C429.199 444.06 428.832 444.697 428.149 445.037C426.482 445.877 424.796 446.677 423.091 447.437C422.814 447.568 422.501 447.601 422.203 447.53C421.905 447.46 421.639 447.29 421.45 447.049C421.045 446.552 420.983 445.895 421.419 445.293C422.658 443.575 424.202 442.206 426.191 441.405C426.523 441.255 426.887 441.19 427.251 441.213C427.615 441.237 427.967 441.349 428.277 441.54C428.569 441.711 428.812 441.955 428.982 442.248C429.151 442.54 429.243 442.872 429.246 443.21Z" fill="#E7775C"/>
<path fill-rule="evenodd" clip-rule="evenodd" d="M433.797 468.263C433.766 468.915 433.592 469.551 433.286 470.128C433.011 470.623 432.56 470.996 432.022 471.173C431.484 471.349 430.9 471.317 430.385 471.082C429.485 470.708 428.754 470.016 428.331 469.139C427.959 468.351 427.985 467.57 428.551 466.841C428.743 466.576 428.915 466.296 429.064 466.004C429.573 465.094 430.306 464.483 431.379 464.563C432.452 464.643 433.228 465.287 433.582 466.312C433.779 466.942 433.852 467.605 433.797 468.263Z" fill="#B0C4A9"/>
<path fill-rule="evenodd" clip-rule="evenodd" d="M475.917 503.556C475.708 504.842 475.231 506.058 474.142 506.948C473.54 507.44 472.85 507.407 472.175 507.129C470.936 506.62 470.217 505.252 470.45 503.866C470.536 503.422 470.646 502.983 470.781 502.551C471.089 501.47 471.786 500.831 472.885 500.532C473.186 500.436 473.507 500.419 473.818 500.482C474.128 500.544 474.417 500.685 474.658 500.89C475.493 501.544 475.867 502.444 475.917 503.556Z" fill="#B0C4A9"/>
<path fill-rule="evenodd" clip-rule="evenodd" d="M275.023 553.068C274.721 552.972 274.146 552.87 273.654 552.614C272.958 552.25 272.637 551.604 272.685 550.804C272.692 550.438 272.809 550.081 273.021 549.782C273.233 549.483 273.531 549.256 273.875 549.128C274.291 548.954 274.739 548.867 275.191 548.873C276.699 548.931 278.207 549.038 279.711 549.158C280.387 549.212 280.821 549.605 280.965 550.168C281.11 550.73 280.868 551.314 280.225 551.674C278.698 552.533 277.04 552.951 275.023 553.068Z" fill="#E7775C"/>
<path fill-rule="evenodd" clip-rule="evenodd" d="M284.322 562.72C284.337 562.634 284.35 562.483 284.388 562.338C284.828 560.59 285.927 559.081 287.456 558.126C288.008 557.77 288.602 557.72 289.148 558.141C289.694 558.561 289.814 559.13 289.613 559.762C289.258 560.884 288.899 562.004 288.521 563.118C288.414 563.432 288.268 563.732 288.087 564.01C287.848 564.399 287.485 564.698 287.057 564.857C286.629 565.017 286.159 565.03 285.723 564.892C284.862 564.608 284.285 563.741 284.322 562.72Z" fill="#E7775C"/>
<path fill-rule="evenodd" clip-rule="evenodd" d="M404.067 425.211C404.023 425.415 404.011 425.799 403.855 426.113C403.315 427.218 402.726 428.299 402.149 429.386C402.086 429.489 402.009 429.583 401.92 429.664C401.466 430.122 400.877 430.269 400.354 430.037C400.099 429.933 399.884 429.75 399.742 429.514C399.6 429.278 399.538 429.003 399.565 428.729C399.626 427.558 399.716 426.387 399.835 425.215C399.884 424.827 399.994 424.448 400.162 424.094C400.608 423.113 401.585 422.592 402.501 422.802C403.478 423.03 404.112 423.94 404.067 425.211Z" fill="#E7775C"/>
<path fill-rule="evenodd" clip-rule="evenodd" d="M287.694 468.47C287.631 468.788 287.547 469.101 287.443 469.408C286.902 470.822 285.574 471.299 284.287 470.489C283.159 469.781 282.541 468.754 282.693 467.372C282.723 467.018 282.838 466.675 283.026 466.373C283.215 466.071 283.473 465.818 283.779 465.635C284.085 465.453 284.43 465.345 284.785 465.322C285.141 465.298 285.497 465.36 285.824 465.501C286.878 465.926 287.716 467.163 287.694 468.47Z" fill="#B0C4A9"/>
<path fill-rule="evenodd" clip-rule="evenodd" d="M316.32 464.485C316.442 464.135 316.574 463.503 316.861 462.956C317.484 461.772 318.803 461.605 319.715 462.594C320.139 463.063 320.498 463.587 320.781 464.152C321.265 465.109 320.969 466.328 320.165 467.036C319.161 467.921 317.655 467.705 316.853 466.548C316.483 466.014 316.318 465.409 316.32 464.485Z" fill="#FBD69E"/>
<path fill-rule="evenodd" clip-rule="evenodd" d="M280.483 538.707C279.926 538.59 279.348 538.532 278.817 538.343C277.937 538.028 277.459 537.232 277.579 536.451C277.699 535.67 278.317 535.14 279.273 535.1C280.734 535.043 282.159 535.327 283.546 535.762C283.799 535.83 284.02 535.983 284.174 536.195C284.327 536.408 284.403 536.666 284.388 536.927C284.382 537.509 284.037 537.893 283.511 538.073C282.537 538.405 281.546 538.672 280.483 538.707Z" fill="#E7775C"/>
<path fill-rule="evenodd" clip-rule="evenodd" d="M430.272 510.705C430.242 511.415 429.997 512.098 429.571 512.666C429.11 513.267 428.49 513.528 427.738 513.355C427.063 513.196 426.667 512.702 426.487 512.058C426.198 511.023 426.245 510.031 426.968 509.158C427.509 508.512 428.175 508.316 428.903 508.557C429.656 508.805 430.237 509.532 430.28 510.29C430.288 510.44 430.275 510.598 430.272 510.705Z" fill="#FBD69E"/>
<path fill-rule="evenodd" clip-rule="evenodd" d="M403.025 497.497C403.017 497.79 402.989 498.083 402.943 498.373C402.89 498.609 402.77 498.825 402.597 498.995C402.424 499.165 402.207 499.281 401.97 499.331C401.736 499.396 401.488 499.387 401.26 499.303C401.032 499.22 400.836 499.067 400.699 498.866C400.61 498.712 400.51 498.564 400.401 498.423C400.055 498.082 399.844 497.747 400.105 497.233C400.366 496.72 400.672 496.315 401.309 496.315C401.429 496.321 401.549 496.321 401.668 496.315C402.789 496.198 403.132 496.544 403.025 497.497Z" fill="#FBD69E"/>
<path fill-rule="evenodd" clip-rule="evenodd" d="M313.13 541.918L312.964 541.692L313.13 541.918Z" fill="#E7775C"/>
<path fill-rule="evenodd" clip-rule="evenodd" d="M339.236 472.547C339.381 471.537 339.62 470.428 340.298 469.467C340.569 469.078 340.915 468.781 341.423 468.751C342.098 468.712 342.639 469.156 342.6 469.832C342.568 470.337 342.45 470.833 342.248 471.298C341.922 472.003 341.554 472.688 341.148 473.349C340.889 473.793 340.583 474.236 339.958 474.118C339.519 474.035 339.282 473.57 339.236 472.821C339.228 472.772 339.232 472.724 339.236 472.547Z" fill="white"/>
<path fill-rule="evenodd" clip-rule="evenodd" d="M330.02 454.595C330.091 453.825 330.502 453.217 331.111 453.055C331.45 452.96 331.812 452.988 332.133 453.132C332.453 453.276 332.714 453.528 332.868 453.844C333.138 454.382 333.344 454.95 333.482 455.536C333.743 456.648 333.945 457.774 334.141 458.899C334.182 459.165 334.151 459.436 334.052 459.686C333.815 460.268 333.215 460.42 332.718 460.04C332.526 459.895 332.366 459.711 332.249 459.499C331.59 458.248 330.934 456.993 330.315 455.716C330.147 455.378 330.114 454.972 330.02 454.595Z" fill="white"/>
<path fill-rule="evenodd" clip-rule="evenodd" d="M352.343 514.032C352.281 514.27 352.19 514.5 352.073 514.716C351.441 515.717 350.499 516.323 349.395 516.694C349.263 516.731 349.126 516.744 348.989 516.732C348.391 516.708 347.977 516.167 348.22 515.628C348.721 514.5 349.553 513.55 350.605 512.904C350.754 512.811 350.922 512.753 351.096 512.734C351.27 512.716 351.446 512.738 351.611 512.798C352.069 512.958 352.346 513.363 352.343 514.032Z" fill="white"/>
<path fill-rule="evenodd" clip-rule="evenodd" d="M343.12 516.97C342.593 516.941 342.081 516.784 341.628 516.511C341.176 516.239 340.797 515.859 340.525 515.407C340.188 514.866 340.255 514.242 340.642 513.853C341.007 513.485 341.588 513.411 342.14 513.697C342.928 514.103 343.567 514.703 344.14 515.367C344.411 515.689 344.526 516.077 344.304 516.489C344.117 516.836 343.758 516.978 343.12 516.97Z" fill="white"/>
<path fill-rule="evenodd" clip-rule="evenodd" d="M347.07 484.564C346.922 484.982 346.858 485.348 346.678 485.646C346.152 486.499 345.466 487.242 344.658 487.833C344.321 488.085 343.958 488.187 343.576 487.99C343.171 487.779 343.036 487.392 343.062 486.951C343.109 485.802 344.336 483.985 345.476 483.61C345.899 483.475 346.314 483.437 346.628 483.752C346.843 483.962 346.935 484.298 347.07 484.564Z" fill="white"/>
<path fill-rule="evenodd" clip-rule="evenodd" d="M340.178 488.424C339.066 488.278 337.969 488.064 336.994 487.463C336.734 487.31 336.535 487.07 336.434 486.785C336.332 486.5 336.333 486.189 336.438 485.905C336.521 485.641 336.694 485.414 336.927 485.263C337.16 485.113 337.438 485.048 337.713 485.079C338.106 485.109 338.487 485.23 338.824 485.435C339.508 485.885 340.147 486.404 340.786 486.921C341.233 487.283 341.327 487.597 341.178 487.944C340.978 488.381 340.612 488.466 340.178 488.424Z" fill="white"/>
<path fill-rule="evenodd" clip-rule="evenodd" d="M345.7 503.29C345.808 502.3 346.239 501.373 346.927 500.652C347.292 500.259 347.753 499.977 348.334 500.031C349.104 500.093 349.562 500.72 349.357 501.462C349.298 501.708 349.192 501.939 349.045 502.144C348.493 502.832 347.915 503.496 347.343 504.171C347.292 504.227 347.235 504.277 347.173 504.32C346.847 504.563 346.489 504.652 346.105 504.488C345.782 504.346 345.67 504.059 345.7 503.29Z" fill="white"/>
<path fill-rule="evenodd" clip-rule="evenodd" d="M335.649 475.637C334.589 475.591 333.552 475.433 332.599 474.939C332.105 474.683 331.698 474.339 331.672 473.709C331.643 472.986 332.062 472.493 332.776 472.452C333.016 472.421 333.26 472.442 333.491 472.513C334.572 472.963 335.643 473.435 336.702 473.928C336.914 474.043 337.093 474.211 337.222 474.414C337.609 474.975 337.318 475.593 336.64 475.652C336.31 475.665 335.979 475.66 335.649 475.637Z" fill="white"/>
<path fill-rule="evenodd" clip-rule="evenodd" d="M342.122 505.488C340.944 505.228 339.913 504.947 339.082 504.251C338.787 504.005 338.602 503.554 338.503 503.162C338.368 502.638 338.88 502.025 339.436 501.997C339.74 501.982 340.129 501.997 340.344 502.174C341.147 502.815 341.909 503.509 342.649 504.221C342.88 504.442 342.98 504.815 342.734 505.094C342.563 505.29 342.282 505.39 342.122 505.488Z" fill="white"/>
<path fill-rule="evenodd" clip-rule="evenodd" d="M384.398 482.479C395.038 477.151 410.647 473.747 415.545 462.948C417.545 458.539 415.472 452.926 411.626 450.236C409.706 448.894 403.88 447.874 400.357 451.245C402.902 446.913 400.889 439.178 395.32 438.543C387.376 437.625 382.756 443.706 379.446 450.045C375.222 458.152 371.391 470.733 372.042 479.847C372.549 486.924 376.256 486.987 381.706 483.901C382.553 483.427 383.455 482.952 384.398 482.479Z" fill="#E7775C"/>
<path fill-rule="evenodd" clip-rule="evenodd" d="M478.735 524.816C478.543 525.103 478.328 525.374 478.092 525.627C481.47 522.063 494.804 531.627 482.885 538.653C480.765 539.904 478.45 540.97 476.006 541.607C470.743 542.973 465.268 543.757 459.535 543.643C459.013 543.651 458.491 543.62 457.973 543.549C456.155 543.23 455.345 542.159 455.581 540.427C455.62 540.175 455.682 539.927 455.769 539.688C458.364 531.985 460.854 523.707 467.773 517.54C472.547 513.284 479.8 513.224 480.468 518.773C480.665 520.392 479.934 523.047 478.735 524.816Z" fill="#FBD69E"/>
</svg>
