<svg width="566" height="473" viewBox="0 0 566 473" fill="none" xmlns="http://www.w3.org/2000/svg">
<g id="Group 119">
<g id="Mask group">
<mask id="mask0_48_2762" style="mask-type:alpha" maskUnits="userSpaceOnUse" x="0" y="0" width="566" height="473">
<rect id="Rectangle 21" width="566" height="473" fill="#C4C4C4"/>
</mask>
<g mask="url(#mask0_48_2762)">
<g id="Group 40">
<path id="Rectangle 16" d="M154 287C154 173.229 246.229 81 360 81V81C473.771 81 566 173.229 566 287V705H154V287Z" fill="#EFE6DE"/>
<g id="Frame" clip-path="url(#clip0_48_2762)">
<path id="Vector 1" d="M150.971 192.958C150.971 206.325 138.079 217.581 131.633 221.538V245.72L193.163 266.825C207.52 251.729 233.509 221.01 222.61 218.9C211.71 216.789 204.297 192.812 201.953 181.087C184.959 179.475 150.971 179.592 150.971 192.958Z" fill="#EBAF9B"/>
<path id="Vector" d="M149.661 151.065C146.743 151.065 143.842 150.802 140.942 150.52C138.076 150.293 135.228 149.878 132.415 149.28C126.693 147.926 121.41 145.279 116.013 143.019C111.618 141.023 106.845 139.449 103.338 136.055C104.173 137.295 104.832 138.64 105.702 139.854C105.756 139.928 105.815 139.998 105.878 140.065C106.11 140.142 106.305 140.299 106.43 140.509C106.555 140.718 106.601 140.965 106.56 141.206C106.519 141.446 106.392 141.663 106.204 141.819C106.016 141.974 105.779 142.057 105.536 142.052H105.667C104.657 142.052 104.041 141.067 103.567 140.293C103.171 139.669 102.802 139.036 102.424 138.403C101.633 137.101 100.771 135.844 99.8572 134.63C97.7125 131.878 94.926 129.706 92.8252 126.936C87.1996 119.382 86.9887 111.679 87.5512 102.7V102.832C87.557 101.827 87.5011 100.823 87.3842 99.8249C87.2787 99.1918 87.1381 98.5674 86.9798 97.9431C86.848 97.5473 86.7074 97.1605 86.5579 96.7735C86.3206 96.2195 86.0481 95.6832 85.7668 95.1555V95.0939L85.7052 94.9796L85.591 94.7774L85.5383 94.6895L85.4855 94.5839C84.3005 92.7757 83.3272 90.8372 82.5848 88.8066C81.9127 86.704 81.4562 84.5383 81.2224 82.3432C79.3413 70.3575 82.0486 58.8027 89.5377 49.2C97.018 40.125 107.364 33.1165 118.887 30.496C121.683 29.854 124.531 29.4935 127.361 29.045C131.624 28.3679 135.861 27.5061 140.151 27.084C148.809 26.1255 157.484 25.3253 166.195 24.9999C172.612 24.8153 179.301 24.5163 185.287 27.2512L185.155 27.1984C190.345 29.5725 194.716 33.431 197.716 38.2871C199.931 41.8046 201.109 45.9024 203.148 49.5254C203.447 50.0266 203.764 50.5015 204.107 50.9764C204.449 51.4512 205.082 52.1547 205.601 52.7351C206.392 53.5265 207.218 54.2739 208.001 55.0741L207.913 54.9862L208.168 55.2413C208.133 55.2112 208.101 55.1789 208.071 55.1445L208.256 55.338C215.288 62.3729 215.745 70.0145 216.799 79.283C216.799 79.283 216.799 79.1951 216.799 79.1599C217.177 82.0266 217.872 84.8318 218.294 87.6898C218.294 87.6898 218.294 87.7337 218.294 87.7425C218.289 87.7657 218.289 87.7896 218.294 87.8129V87.8129C218.297 87.8509 218.297 87.8892 218.294 87.9272V87.9272C218.294 87.98 218.294 88.0239 218.294 88.0678C218.298 88.1029 218.298 88.1383 218.294 88.1734C218.29 88.229 218.29 88.2849 218.294 88.3405V88.2877C219.543 98.3435 218.371 108.553 214.874 118.063C209.697 130.937 196.161 136.952 184.224 142.043L183.468 142.36H183.582L183.292 142.474C172.682 147.179 161.449 151.118 149.661 151.065Z" fill="#FBD69E"/>
<path id="Vector_2" d="M150.074 187.454C150.073 187.484 150.072 187.515 150.072 187.546C150.072 187.559 150.073 187.572 150.074 187.585C150.303 184.842 150.69 181.922 152.316 179.671C154.753 176.525 158.241 174.421 161.407 172.039C161.394 172.048 161.382 172.056 161.37 172.065L161.466 171.994C161.446 172.009 161.427 172.024 161.407 172.039C158.241 174.421 154.753 176.525 152.316 179.671C150.69 181.922 150.303 184.842 150.074 187.585C150.073 187.572 150.072 187.559 150.072 187.546C150.07 187.515 150.071 187.484 150.074 187.454Z" fill="#EBAF9B"/>
<path id="Vector_3" d="M181.868 180.946C187.045 176.066 192.275 170.816 198.964 168.072C201.733 177.965 203.623 188.131 206.876 197.909C206.854 197.945 206.827 197.977 206.796 198.006C206.777 198.041 206.75 198.071 206.717 198.094C204.67 200.512 202.372 202.705 199.861 204.636H199.808L199.703 204.715C195.28 207.71 190.309 209.802 185.076 210.871C179.25 211.903 173.264 211.563 167.593 209.877L167.408 209.816C163.611 208.725 154.645 202.297 159.752 198.243C161.188 197.322 162.886 196.896 164.587 197.03L165.466 197.118C165.881 195.525 166.698 194.065 167.839 192.879L167.909 192.826C170.052 191.271 172.106 189.598 174.062 187.814C176.62 185.475 179.31 183.303 181.868 180.946Z" fill="#8C5F4E"/>
<path id="Vector_4" d="M35.4617 324.194C35.4617 323.561 35.3738 322.946 35.3386 322.357C35.3826 322.955 35.4177 323.579 35.4617 324.194ZM323.774 424.996C323.774 424.996 323.774 425.057 323.774 425.066L324.09 422.718L323.774 424.996ZM237.104 539.102C200.134 540.615 179.495 549.989 148.826 542.347C135.017 538.909 116.005 539.507 102.046 536.534C85.5999 533.017 76.1418 517.514 73.7333 503.382C72.5291 496.479 71.0964 489.629 69.9361 482.717C67.1321 464.435 62.9832 446.408 58.7288 428.425L57.8498 426.763C54.5869 420.53 51.7899 414.064 49.4817 407.417C49.4817 407.461 49.4817 407.505 49.4817 407.541C42.8189 388.45 40.6918 368.189 36.789 348.43C34.152 332.953 31.4446 317.028 34.6442 301.41C34.82 289.978 37.501 278.081 47.2051 271.011C52.1187 266.992 57.6564 263.844 62.9656 260.397C63.8446 259.728 64.7236 259.06 65.5499 258.409C68.7934 255.982 72.1864 253.802 75.5793 251.594C79.9743 248.701 84.2726 245.659 88.8698 243.1L88.7555 243.152L89.2389 242.88L89.1334 242.941L89.5377 242.713H89.5905H89.652L89.7839 242.634L89.8893 242.572H89.9421L90.2762 242.387L90.1707 242.44L90.7771 242.097L90.6717 242.159L93.4317 240.585L93.8186 240.365H93.7658L94.1613 240.145L94.5393 239.934H94.6096L94.8733 239.784C95.9105 239.186 96.9478 238.58 97.9938 238.026L97.8882 238.087L98.152 237.938H98.108L100.27 236.724L100.481 236.601H100.534H100.578L102.283 235.634H102.362L102.696 235.44L103.039 235.247L103.382 235.053H103.329C104.349 234.473 105.377 233.91 106.406 233.295C106.52 233.242 106.617 233.18 106.731 233.119C107.557 232.662 108.384 232.239 109.21 231.729L109.386 231.624L109.28 231.686L112.304 229.927L112.787 229.654L112.902 229.593L113.192 229.425L113.086 229.487C116.145 227.728 128.97 220.623 132.196 221.661C134.754 222.479 135.404 225.108 137.118 226.937C139.579 229.628 142.049 232.31 144.554 234.966L144.458 234.869L144.818 235.247L144.73 235.159L145.108 235.546L145.02 235.458C147.567 238.227 150.432 240.686 153.555 242.783C155.059 243.662 156.608 244.46 158.197 245.175H158.267C159.509 245.716 160.783 246.18 162.082 246.564C163.97 247.044 165.883 247.42 167.813 247.69H167.69C170.175 248.024 172.68 248.2 175.188 248.217H175.53C178.635 248.181 181.734 247.964 184.813 247.567H184.69C185.992 247.401 187.283 247.16 188.557 246.846H188.504H188.592C190.354 246.361 192.086 245.774 193.778 245.087H193.831L194.306 244.894L194.192 244.937L194.367 244.867L194.253 244.911C195.651 244.328 197.016 243.668 198.34 242.932L198.226 242.985C202.681 240.501 206.591 237.146 209.724 233.119L209.644 233.216C211.838 230.416 213.849 227.479 215.666 224.422C217.09 221.977 218.478 219.524 219.823 217.035C220.263 216.103 220.817 214.854 222.03 214.942L222.17 214.714L223.049 215.215C223.357 215.268 223.634 215.43 223.831 215.672H223.902C224.412 215.857 224.913 216.042 225.423 216.244H225.475H225.589L225.774 216.314H225.836L226.178 216.446H226.249L226.671 216.613C232.885 218.944 239.276 220.781 245.543 222.962C254.509 226.084 263.474 229.223 272.616 231.756C279.569 234.71 286.68 237.375 293.624 240.259L293.51 240.206L293.721 240.294H293.607C299.1 242.774 304.603 245.263 309.921 248.112L309.807 248.042C312.795 249.721 315.67 251.612 318.5 253.546C318.52 253.541 318.541 253.541 318.561 253.546C318.561 253.546 318.561 253.546 318.561 253.546C320.586 254.968 322.526 256.507 324.372 258.154L324.284 258.066C324.846 258.576 325.409 259.095 325.954 259.623C326.346 260.156 326.724 260.702 327.088 261.258L327.14 261.346C327.951 262.675 328.691 264.046 329.356 265.453L329.303 265.339C330.26 267.409 331.085 269.539 331.773 271.714C331.777 271.673 331.777 271.632 331.773 271.591C332.471 273.833 333.035 276.114 333.46 278.424V278.301C334.368 283.706 334.978 289.158 335.289 294.63V294.736C335.289 294.991 335.289 295.246 335.289 295.501C338.532 323.852 338.163 352.475 338.128 380.975C337.249 407.681 331.228 433.825 323.756 459.37C320.381 471.936 314.782 489.91 307.548 500.99C302.159 507.841 296.305 520.064 294.362 528.708C291.787 539.885 275.693 540.667 265.848 541.793C260.776 542.47 242.501 538.882 237.148 539.102H237.104Z" fill="#E7775C"/>
<path id="Vector_5" d="M312.927 362.104C312.586 362.049 312.265 361.907 311.995 361.69C311.89 361.606 311.793 361.512 311.705 361.409C309.78 358.85 307.635 356.449 305.825 353.794L305.596 353.477C304.937 352.536 304.304 351.569 303.645 350.619L303.706 350.725C303.117 349.845 302.502 349.028 301.948 348.175L301.869 348.069C301.869 348.008 301.79 347.946 301.746 347.893L301.816 347.99C301.816 347.928 301.72 347.867 301.676 347.796C301.632 347.726 301.676 347.796 301.676 347.796C301.632 347.74 301.591 347.681 301.553 347.621V347.621C301.526 347.57 301.493 347.523 301.456 347.48L301.394 347.383L301.236 347.172L301.069 346.935C297.8 342.341 294.251 337.954 290.442 333.797V333.797C290.009 333.317 289.548 332.861 289.062 332.434V332.434L288.965 332.355C288.368 331.872 287.812 331.34 287.304 330.763C287.156 330.851 286.988 330.898 286.816 330.9C286.644 330.903 286.475 330.86 286.324 330.776C286.174 330.693 286.048 330.571 285.96 330.424C285.871 330.277 285.822 330.109 285.819 329.937C285.814 329.757 285.859 329.58 285.949 329.425C286.039 329.269 286.17 329.142 286.328 329.057C289.229 325.769 291.682 322.119 294.301 318.602C296.753 315.269 299.241 311.971 301.649 308.612C305.288 303.688 308.514 298.473 312.197 293.593C314.794 290.396 317.687 287.451 320.838 284.799L320.776 284.861C323.185 282.691 325.463 280.38 327.598 277.94L327.518 278.037C328.986 276.278 330.296 274.423 331.773 272.673L331.834 272.602C334.102 269.78 337.319 269.366 338.137 273.482C339.402 272.602 341.116 272.945 342.47 273.42C344.843 273.42 346.733 275.469 348.201 277.131C350.935 280.569 351.331 285.045 351.981 289.266C352.025 289.433 352.078 289.6 352.13 289.767C352.183 289.934 352.21 289.952 352.245 290.031C352.28 290.11 352.473 290.401 352.587 290.585C355.972 294.322 355.761 295.861 355.075 300.663C355.062 300.809 355.062 300.956 355.075 301.102V301.322C355.119 301.51 355.174 301.695 355.242 301.876C357.281 305.93 357.29 308.146 355.892 312.429C355.629 313.229 355.321 314.011 355.013 314.803C355.01 314.82 355.01 314.838 355.013 314.856C354.853 315.358 354.718 315.869 354.609 316.386C354.556 316.697 354.521 317.011 354.504 317.327C354.486 317.655 354.486 317.983 354.504 318.312C354.662 319.815 355.145 321.266 355.304 322.77C355.401 324.578 355.144 326.389 354.548 328.099C354.548 328.196 354.486 328.292 354.451 328.38C354.455 328.36 354.455 328.339 354.451 328.319C353.572 331.097 352.078 333.595 351.067 336.356C349.81 339.874 348.597 343.514 346.188 346.425C343.551 349.643 339.403 350.558 335.86 352.316C332.168 354.011 328.491 355.74 324.829 357.505C321.216 359.263 317.656 361.4 313.63 361.901C313.404 361.994 313.168 362.062 312.927 362.104V362.104Z" fill="#EBAF9B"/>
<path id="Vector_6" d="M63.9851 376.086H63.9237C62.4372 375.438 60.8918 374.934 59.3089 374.582H59.2473C56.8125 373.993 54.3337 373.703 51.8725 373.263C49.1652 372.577 46.5018 371.68 43.8296 370.889C41.8958 370.308 39.9269 369.825 38.0546 369.068C35.4085 367.984 32.9722 366.446 30.8557 364.522V364.522C28.8531 362.882 27.0425 361.021 25.4586 358.973V358.973L25.3443 358.815C22.5315 354.735 22.7073 349.547 22.6457 344.798C22.6457 344.798 22.6457 344.877 22.6457 344.921C22.6656 344.466 22.7215 344.013 22.8128 343.567C22.8271 343.481 22.8476 343.395 22.8743 343.312C19.4374 339.522 19.2967 334.079 21.4415 329.603C21.4415 329.603 21.4415 329.682 21.38 329.726C21.7548 328.856 22.2393 328.037 22.8216 327.29C20.6329 323.693 20.9054 319.71 22.7161 316.008C22.7194 315.976 22.7194 315.943 22.7161 315.911C22.74 315.875 22.7605 315.837 22.7776 315.797C23.2669 314.781 23.8972 313.839 24.6499 313C23.9399 311.582 23.4875 310.048 23.3138 308.471C23.2133 306.39 23.6716 304.319 24.6411 302.474C26.2321 300.153 30.504 298.077 33.2992 298.763C34.9517 299.326 35.7868 301.059 36.9207 302.281L37.0438 302.43L36.9559 302.325C37.2196 302.624 37.4921 302.914 37.7646 303.204C37.6809 301.928 37.8789 300.649 38.3447 299.458C40.9817 295.061 44.779 299.827 47.2929 301.762C48.6756 302.711 49.9914 303.754 51.2308 304.884L51.8198 305.42L52.3736 305.913L52.4439 305.957C53.6833 306.73 54.9139 307.513 56.1796 308.225C60.5732 310.263 64.5726 313.062 67.9934 316.491C72.9686 321.556 77.6624 326.903 82.6463 331.968C82.6801 331.996 82.7097 332.029 82.7342 332.065C83.5253 333.023 84.2989 333.999 85.0987 334.958C86.4788 336.936 87.7358 338.985 89.1949 340.911C90.6541 342.837 92.3329 344.816 93.8097 346.838L93.7393 346.909C93.2998 347.331 92.9306 347.788 92.456 348.21L91.8231 348.764C91.5641 348.991 91.3175 349.231 91.0847 349.485C90.4166 350.294 89.8101 351.147 89.1069 351.938C85.2833 356.335 81.0466 360.345 77.1965 364.707L77.1349 364.777C76.3351 365.393 75.5001 365.955 74.6914 366.536C73.2147 367.67 71.9665 369.06 70.604 370.308C68.4329 372.269 65.9366 373.887 64.1346 376.226L63.9851 376.086Z" fill="#EBAF9B"/>
<path id="Vector_7" d="M92.2802 348.773C91.2657 348.04 90.3754 347.149 89.6432 346.135C89.5079 345.917 89.4648 345.654 89.5233 345.404C89.5818 345.154 89.7372 344.938 89.9552 344.802C90.1732 344.667 90.4358 344.624 90.6856 344.682C90.9353 344.741 91.1517 344.896 91.2869 345.115C91.4686 345.344 91.6622 345.564 91.8669 345.774V345.774C92.3502 346.318 92.8994 346.8 93.5019 347.207C93.7094 347.369 93.844 347.607 93.8761 347.869C93.9083 348.13 93.8354 348.394 93.6733 348.601C93.5113 348.809 93.2735 348.943 93.0123 348.976C92.751 349.008 92.4876 348.935 92.2802 348.773V348.773Z" fill="#EBAF9B"/>
<path id="Vector_8" d="M93.1153 348.553C92.456 347.99 91.8583 347.357 91.2166 346.794C90.9944 346.624 90.8115 346.408 90.6804 346.161C90.6072 345.942 90.6145 345.705 90.7011 345.491C90.7876 345.277 90.9477 345.101 91.1525 344.995C91.3572 344.889 91.5931 344.859 91.8176 344.912C92.0421 344.964 92.2406 345.096 92.377 345.282C93.089 345.915 93.7306 346.61 94.4602 347.225C94.5783 347.412 94.6289 347.633 94.6039 347.852C94.5788 348.072 94.4795 348.276 94.3224 348.431C94.1653 348.586 93.9599 348.683 93.7403 348.705C93.5207 348.727 93.3002 348.674 93.1153 348.553V348.553Z" fill="#EBAF9B"/>
<path id="Vector_9" d="M327.334 301.278C327.125 301.128 326.984 300.902 326.941 300.648C326.898 300.395 326.957 300.134 327.105 299.924C328.236 298.281 329.457 296.702 330.762 295.193L330.709 295.272C330.763 295.195 330.822 295.122 330.885 295.052V295.052C332.344 293.206 333.689 291.262 334.972 289.275V289.328L335.016 289.266V289.213C335.324 288.705 335.603 288.179 335.851 287.639C336.051 287.2 336.221 286.747 336.361 286.285V286.285C336.424 286.042 336.473 285.795 336.511 285.547C336.809 283.339 337.091 281.15 337.433 278.943V278.749V278.652C337.429 278.617 337.429 278.582 337.433 278.547C337.433 278.213 337.548 277.896 337.609 277.562C337.636 277.438 337.688 277.32 337.76 277.216C337.833 277.111 337.925 277.022 338.032 276.954C338.139 276.885 338.258 276.838 338.383 276.816C338.508 276.794 338.637 276.796 338.761 276.823C339.009 276.882 339.225 277.035 339.363 277.25C339.5 277.465 339.549 277.725 339.499 277.975C339.446 278.23 339.394 278.476 339.35 278.732C339.35 278.732 339.35 278.784 339.35 278.811C339.346 278.843 339.346 278.875 339.35 278.907V278.907C339.35 279.004 339.35 279.092 339.35 279.18C339.35 279.268 339.35 279.101 339.35 279.057C339.253 279.787 339.13 280.508 339.024 281.229C338.717 283.093 338.629 285.001 338.198 286.839C338.198 286.839 338.198 286.918 338.198 286.962C337.029 290.48 334.594 293.39 332.406 296.319C331.896 296.952 331.36 297.576 330.841 298.201V298.157C330.094 299.098 329.382 300.056 328.714 301.05C328.64 301.158 328.545 301.25 328.435 301.32C328.325 301.391 328.202 301.438 328.073 301.459C327.944 301.481 327.812 301.476 327.685 301.445C327.558 301.414 327.438 301.357 327.334 301.278V301.278Z" fill="#693A22"/>
<path id="Vector_10" d="M52.2593 327.976C51.1957 326.762 50.0529 325.637 48.9014 324.529L48.9894 324.617L48.8751 324.502C47.6006 323.192 45.9656 322.33 44.6999 320.985L44.7966 321.073C43.4405 319.832 42.2789 318.394 41.3508 316.808C40.4023 315.204 39.7001 313.467 39.2676 311.655V311.655C39.2399 311.526 39.2388 311.393 39.2643 311.264C39.2898 311.135 39.3413 311.012 39.4158 310.904C39.4903 310.795 39.586 310.703 39.6973 310.633C39.8087 310.563 39.9332 310.516 40.0632 310.496C40.1932 310.475 40.3259 310.482 40.4534 310.514C40.5808 310.547 40.7003 310.606 40.8044 310.686C40.9084 310.767 40.995 310.867 41.0588 310.983C41.1225 311.098 41.1621 311.225 41.1751 311.356C41.4092 312.287 41.7238 313.196 42.1156 314.073C42.1156 314.073 42.1156 313.994 42.1156 313.95C42.3715 314.554 42.6651 315.141 42.9946 315.709C43.03 315.759 43.0622 315.812 43.0912 315.867C43.0709 315.83 43.0474 315.794 43.021 315.761C43.4539 316.485 43.9356 317.178 44.4625 317.837L44.3833 317.74C44.9128 318.379 45.4824 318.984 46.0887 319.551V319.551L46.1501 319.604C46.6303 320.066 47.1382 320.497 47.6709 320.897L47.6005 320.844C48.5832 321.503 49.4989 322.257 50.3342 323.095L50.2463 323.007C51.4505 324.159 52.6372 325.32 53.7623 326.577C53.8599 326.668 53.9377 326.778 53.9909 326.9C54.044 327.022 54.0715 327.154 54.0714 327.287C54.0713 327.42 54.0437 327.552 53.9903 327.674C53.937 327.796 53.859 327.906 53.7612 327.996C53.6635 328.087 53.5481 328.156 53.4224 328.2C53.2966 328.244 53.1633 328.261 53.0305 328.251C52.8978 328.241 52.7685 328.203 52.6509 328.141C52.5333 328.078 52.4299 327.992 52.3471 327.888L52.2593 327.976Z" fill="#693A22"/>
<path id="Vector_11" d="M310.431 367.503C310.558 366.858 310.605 366.199 310.571 365.542C310.311 365.653 310.044 365.747 309.771 365.824C309.569 365.885 309.376 365.92 309.182 365.964C301.749 376.322 293.801 386.3 285.37 395.863V395.863L285.133 396.135L284.834 396.469L284.755 396.566L284.606 396.733L284.544 396.804C281.702 400.114 278.639 403.228 275.376 406.125L275.473 406.037C274.822 406.776 272.95 407.523 273.715 408.675C273.79 408.776 273.885 408.862 273.993 408.926C274.102 408.991 274.222 409.033 274.347 409.051C274.472 409.069 274.599 409.062 274.721 409.031C274.844 409 274.959 408.944 275.06 408.868C275.64 408.394 276.202 407.91 276.774 407.417L276.668 407.505C280.069 404.514 283.251 401.281 286.188 397.832V397.832L286.46 397.516L286.698 397.243L286.654 397.296C295.004 387.605 303.232 377.924 310.431 367.503Z" fill="#BD5942"/>
<path id="Vector_12" d="M104.648 415.138C101.879 412.755 99.1012 410.39 96.3587 407.98L94.8557 406.661L94.3459 406.213L94.091 405.993L94.1876 406.081L93.88 405.808L93.9767 405.896C85.5822 398.29 76.2824 391.721 68.0638 383.912C67.8855 383.728 67.7858 383.482 67.7858 383.226C67.7858 382.97 67.8855 382.724 68.0638 382.54C68.2449 382.36 68.4898 382.259 68.745 382.259C69.0003 382.259 69.2452 382.36 69.4263 382.54C70.5602 383.666 71.7293 384.747 72.9423 385.803L73.0302 385.891C80.405 392.108 88.0434 398.008 95.2512 404.436L95.3304 404.507L95.4973 404.656L95.594 404.735L95.8314 404.946L95.7347 404.858L96.3149 405.369L97.7915 406.652L97.6948 406.573C100.408 408.918 103.13 411.263 105.861 413.608C106.064 413.769 106.194 414.004 106.224 414.261C106.254 414.518 106.18 414.777 106.019 414.98C105.858 415.183 105.623 415.313 105.366 415.343C105.109 415.373 104.851 415.299 104.648 415.138V415.138Z" fill="#BD5942"/>
<path id="Vector_13" d="M277.064 492.83H277.187C270.088 492.309 263.025 491.39 256.029 490.078V490.078L255.845 490.034H255.722L253.463 489.576C246.378 488.249 239.399 487.36 232.367 485.619C211.112 481.055 191.054 472.314 171.716 462.562C161.88 457.611 152.606 451.641 143.376 445.652L143.482 445.723C138.577 442.399 133.699 439.022 128.97 435.452C128.778 435.292 128.655 435.065 128.626 434.817C128.598 434.569 128.666 434.32 128.817 434.121C128.968 433.923 129.19 433.79 129.436 433.751C129.682 433.712 129.934 433.77 130.139 433.913C134.754 437.43 139.527 440.693 144.299 443.946L144.695 444.21L144.59 444.14C155.138 451.025 165.817 457.673 177.113 463.16L176.998 463.107C188.082 468.278 199.149 473.59 210.743 477.538C220.076 480.69 229.604 483.231 239.267 485.144C244.813 486.27 250.439 486.903 255.968 488.125H256.056H256.214H256.319H256.442C263.272 489.378 270.165 490.258 277.09 490.764H276.967H277.31H277.239C280.619 490.935 284.004 490.935 287.383 490.764H287.26C288.51 490.687 289.754 490.541 290.987 490.324H290.864C293.88 489.7 296.861 488.916 299.795 487.976C302.326 487.097 304.735 485.927 307.249 485.012C307.469 484.967 307.699 485.001 307.897 485.107C308.096 485.213 308.252 485.385 308.337 485.593C308.423 485.802 308.433 486.033 308.365 486.249C308.298 486.464 308.158 486.648 307.969 486.771C305.745 487.598 303.574 488.591 301.394 489.409C297.622 490.804 293.737 491.875 289.783 492.61C285.555 493.009 281.303 493.082 277.064 492.83V492.83Z" fill="#BD5942"/>
<path id="Vector_14" d="M64.1435 376.824C63.3612 375.734 64.9082 375.066 65.5235 374.397L65.5938 374.327C69.3735 370.616 73.2323 366.993 76.8098 363.08C80.0599 359.36 83.4953 355.805 87.103 352.431L87.015 352.519C89.0719 350.602 91.2694 348.834 93.4405 347.04C93.9679 346.592 94.6447 346.029 95.3655 346.416H95.4183C95.601 346.517 95.7461 346.675 95.8318 346.865C95.9175 347.056 95.9393 347.269 95.8937 347.473C95.8482 347.677 95.7378 347.861 95.5792 347.997C95.4206 348.133 95.2224 348.214 95.014 348.228C92.7901 350.048 90.5486 351.868 88.439 353.803C84.378 357.47 80.7741 361.585 77.0735 365.604C73.8037 369.121 70.2877 372.392 66.8684 375.752L66.965 375.672C66.1827 376.288 65.1368 377.88 64.1435 376.824Z" fill="#BD5942"/>
<path id="Vector_15" d="M147.191 379.005C141.671 376.367 136.494 373.008 131.211 369.904C125.928 366.8 120.478 364.223 115.565 360.635C112.277 358.29 109.007 355.922 105.755 353.53C103.514 351.936 101.451 350.105 99.6022 348.069C99.4426 347.868 99.3672 347.613 99.3918 347.357C99.4164 347.101 99.539 346.865 99.7341 346.697C100.323 346.223 100.991 346.609 101.369 347.146C102.338 348.177 103.365 349.152 104.445 350.065C109.719 354.119 115.064 358.068 120.628 361.699L120.549 361.647C124.003 363.748 127.581 365.577 131.097 367.609C136.74 370.889 142.225 374.476 148.105 377.282C148.218 377.342 148.319 377.423 148.4 377.522C148.482 377.621 148.543 377.735 148.581 377.857C148.618 377.98 148.631 378.109 148.619 378.236C148.607 378.364 148.57 378.488 148.51 378.601C148.45 378.714 148.368 378.814 148.269 378.896C148.17 378.977 148.057 379.039 147.934 379.076C147.812 379.114 147.683 379.127 147.556 379.115C147.428 379.102 147.304 379.065 147.191 379.005V379.005Z" fill="#BD5942"/>
<path id="Vector_16" d="M267.166 411.172C262.93 411.129 258.703 410.75 254.526 410.038H254.649L254.148 409.968H254.21L253.823 409.915H253.867C252.355 409.686 250.834 409.414 249.322 409.185H249.446C247.301 408.86 245.147 408.561 243.002 408.235H243.126H242.818H242.871C231.145 406.336 219.683 402.959 208.22 399.881L208.001 399.811L207.675 399.714H207.746L207.034 399.503H206.946H206.999H206.902L206.357 399.336H206.287C201.109 397.841 195.994 396.162 190.816 394.658H190.702H190.535H190.465H190.412H190.271H190.157H190.227H190.139L189.911 394.588H189.814L189.63 394.535H189.744C187.432 393.866 185.112 393.251 182.8 392.583H182.861L182.29 392.416H182.413L181.27 392.09L180.91 391.993H180.84H180.681H180.804C176.058 390.683 171.469 388.951 166.855 387.271C166.634 387.168 166.459 386.987 166.366 386.761C166.272 386.536 166.266 386.284 166.349 386.055C166.431 385.826 166.597 385.636 166.812 385.522C167.028 385.409 167.278 385.38 167.514 385.442C172.067 387.131 176.629 388.801 181.305 390.12L181.657 390.226H181.754H181.701L181.877 390.279H181.754L182.395 390.463H182.272L182.949 390.657H182.826L183.345 390.797C185.656 391.457 187.977 392.081 190.298 392.758L190.517 392.829H190.465L190.667 392.89H190.79H190.86L191.273 393.013C196.468 394.535 201.628 396.197 206.823 397.718H206.709L207.456 397.938H207.403H207.482L207.939 398.079H208.062H208.168H208.22L208.405 398.131H208.343L208.642 398.219H208.765C220.122 401.288 231.47 404.603 243.09 406.503H242.967L243.319 406.556H243.187L243.662 406.626H243.574C247.09 407.145 250.606 407.655 254.122 408.235H254.06H254.386H254.509H254.649H254.526L254.992 408.306H254.869C258.411 408.901 261.987 409.268 265.575 409.405V409.405C266.454 409.493 268.01 409.053 268.124 410.346C268.089 410.575 267.973 410.784 267.797 410.935C267.622 411.087 267.398 411.171 267.166 411.172V411.172Z" fill="#BD5942"/>
<path id="Vector_17" d="M271.57 457.365C271.319 457.314 271.097 457.167 270.953 456.955C270.809 456.743 270.752 456.484 270.796 456.231C271.016 454.754 271.227 453.276 271.412 451.834V451.702C271.412 451.641 271.412 451.579 271.412 451.518C271.412 451.456 271.412 451.605 271.412 451.649C271.412 451.465 271.412 451.271 271.473 451.087C271.473 451.087 271.473 451.175 271.473 451.219C271.469 451.137 271.469 451.054 271.473 450.972C271.469 451.016 271.469 451.06 271.473 451.104C271.854 447.691 272.025 444.258 271.983 440.824V440.956C271.966 436.72 271.64 432.491 271.007 428.302V428.425C270.546 425.298 269.912 422.197 269.109 419.139C268.951 418.638 268.792 418.146 268.59 417.662C268.59 417.662 268.59 417.741 268.59 417.776C268.505 417.565 268.405 417.359 268.291 417.161V417.161C268.169 416.95 268.13 416.7 268.184 416.462C268.237 416.224 268.379 416.014 268.581 415.876C268.782 415.738 269.028 415.682 269.269 415.718C269.511 415.754 269.73 415.88 269.882 416.07C270.765 417.868 271.381 419.785 271.711 421.76C272.238 424.24 272.669 426.746 273.029 429.261C273.565 433.13 273.838 437.032 273.847 440.939V440.728C273.916 444.253 273.74 447.779 273.319 451.28C273.319 451.28 273.319 451.192 273.319 451.157V451.342V451.412C273.319 451.544 273.319 451.667 273.319 451.799C273.126 453.408 272.888 455 272.66 456.6C272.609 456.842 272.468 457.056 272.266 457.198C272.063 457.34 271.815 457.4 271.57 457.365Z" fill="#BD5942"/>
<path id="Vector_18" d="M301.685 456.618C300.824 451.405 299.697 446.239 298.309 441.141V441.194C297.694 438.978 296.937 436.804 296.041 434.686C294.929 432.216 293.521 429.889 291.848 427.757C290.46 425.998 288.965 424.354 287.453 422.754L287.401 422.692C284.852 420.054 281.722 417.873 279.244 415.244C279.078 415.049 278.993 414.798 279.008 414.542C279.023 414.286 279.135 414.046 279.323 413.872C279.515 413.704 279.765 413.619 280.02 413.634C280.275 413.648 280.514 413.762 280.685 413.951C280.826 414.131 280.979 414.302 281.142 414.461C284.166 417.24 287.445 419.737 290.187 422.815C294.65 427.339 297.918 432.903 299.698 439.004C301.326 444.641 302.615 450.37 303.557 456.161C303.595 456.4 303.541 456.646 303.407 456.848C303.272 457.05 303.067 457.194 302.831 457.252C302.595 457.309 302.347 457.276 302.134 457.159C301.922 457.041 301.761 456.848 301.685 456.618V456.618Z" fill="#BD5942"/>
<path id="Vector_19" d="M320.398 414.136C318.43 412.826 316.469 411.498 314.43 410.337H314.377H314.325L313.771 410.02C312.523 409.317 311.222 408.71 309.921 408.112L310.035 408.165C309.081 407.751 308.1 407.401 307.099 407.118H307.222L306.097 406.819H306.15H306.053H306.159C304.673 406.476 303.17 406.248 301.658 406.046H301.79C299.816 405.804 297.828 405.68 295.839 405.676C293.194 405.695 290.562 406.035 287.999 406.688C287.743 406.717 287.487 406.643 287.286 406.483C287.085 406.323 286.955 406.09 286.926 405.835C286.897 405.579 286.97 405.323 287.13 405.122C287.29 404.92 287.524 404.791 287.779 404.762V404.762C293.932 403.152 300.533 403.575 306.712 404.929H306.581L307.715 405.228H307.583C310.095 405.971 312.509 407.013 314.773 408.332V408.332L315.344 408.657L315.458 408.728C317.507 409.897 319.476 411.234 321.445 412.535C321.616 412.69 321.727 412.901 321.757 413.13C321.787 413.359 321.734 413.591 321.608 413.785C321.482 413.978 321.29 414.12 321.068 414.184C320.846 414.249 320.609 414.231 320.398 414.136V414.136Z" fill="#BD5942"/>
<path id="Vector_20" d="M121.103 500.568C118.088 500.504 115.081 500.237 112.102 499.768H112.233L111.935 499.724H112.066C105.891 498.836 99.9873 496.596 94.7765 493.164L94.8908 493.234C93.2827 492.208 91.744 491.078 90.2848 489.849L90.3815 489.928C87.7987 487.776 85.5111 485.292 83.578 482.541V482.541L83.4198 482.322C81.7732 479.996 80.2674 477.573 78.9105 475.067V475.067C75.8261 469.369 73.076 463.497 70.6743 457.48V457.532C70.6039 457.356 70.5424 457.181 70.4721 457.014V457.066C70.4018 456.899 70.3403 456.723 70.2699 456.556C70.2735 456.594 70.2735 456.633 70.2699 456.671C69.7162 455.246 69.1888 453.813 68.635 452.379L68.5734 452.221V452.168V452.098C68.5628 452.053 68.5481 452.009 68.5295 451.966C68.5345 451.934 68.5345 451.901 68.5295 451.869C68.5295 451.869 68.5295 451.94 68.5295 451.984C67.5571 449.809 66.7719 447.556 66.1826 445.248C66.1391 444.996 66.1969 444.737 66.3435 444.528C66.4901 444.319 66.7135 444.176 66.9649 444.131C67.8966 443.99 68.1163 444.87 68.2306 445.599C68.4706 446.473 68.7642 447.33 69.1096 448.167V448.097C69.5315 449.161 69.9887 450.225 70.3754 451.298V451.219L70.4545 451.421V451.368C70.4876 451.44 70.5169 451.513 70.5424 451.588C70.5424 451.588 70.5424 451.509 70.5424 451.473L70.604 451.641C70.599 451.679 70.599 451.717 70.604 451.755C71.149 453.162 71.6675 454.569 72.2125 455.985L72.3971 456.46L72.3444 456.345C72.4147 456.503 72.4762 456.671 72.5377 456.838V456.952C74.8646 462.74 77.5056 468.397 80.4487 473.897V473.897L80.5103 474.012V473.941L80.7301 474.346L80.6773 474.24C82.0108 476.665 83.4781 479.013 85.0723 481.275V481.275L85.2481 481.521C86.3296 483.035 87.5038 484.48 88.7641 485.848L88.7114 485.786C89.6789 486.797 90.7062 487.748 91.7879 488.635L91.6824 488.556C93.0547 489.699 94.4961 490.756 95.9983 491.722L95.8928 491.66L96.2093 491.863L96.1038 491.792C101.04 495.006 106.616 497.106 112.444 497.948H112.312H112.497H112.726H112.594C115.43 498.375 118.289 498.628 121.155 498.704H121.375C122.787 498.734 124.199 498.675 125.603 498.528C126.412 498.449 127.59 498.062 127.827 499.17C127.871 499.423 127.813 499.683 127.666 499.894C127.52 500.104 127.297 500.249 127.045 500.296C125.076 500.567 123.087 500.659 121.103 500.568V500.568Z" fill="#BD5942"/>
<path id="Vector_21" d="M182.386 386.638C182.383 386.498 182.41 386.36 182.464 386.231C182.518 386.102 182.599 385.986 182.701 385.891C182.803 385.795 182.924 385.722 183.056 385.677C183.188 385.632 183.329 385.614 183.468 385.627H183.626C184.157 385.476 184.679 385.297 185.191 385.09H185.076C187.668 383.999 190.195 382.76 192.644 381.379V381.379C195.281 379.92 197.918 378.381 200.555 376.983C200.942 376.763 201.329 376.543 201.724 376.332L201.61 376.393C207.157 373.351 212.563 370.062 218.109 367.02H218.065L219.542 366.202H219.63H219.551L221.212 365.322L221.098 365.384C222.214 364.742 223.348 364.118 224.482 363.502L226.126 362.623L226.02 362.684L227.681 361.761L229.439 360.794L229.334 360.855L231.092 359.888L230.978 359.949L231.206 359.818L231.101 359.879L232.657 359L232.762 358.938H232.709L235.997 357.127L237.755 356.151C243.231 353.029 248.698 349.898 254.069 346.609C261.154 342.213 267.852 337.174 274.91 332.716C275.126 332.594 275.381 332.56 275.622 332.621C275.863 332.682 276.071 332.833 276.203 333.043C276.335 333.254 276.381 333.507 276.332 333.75C276.283 333.994 276.142 334.209 275.939 334.351C268.907 338.81 262.27 343.743 255.247 348.157C249.756 351.516 244.189 354.764 238.546 357.901L238.66 357.839L235.241 359.73L235.355 359.677L233.597 360.644H233.676L233.483 360.75L233.588 360.697L232.032 361.576L232.138 361.515L231.945 361.62H231.997L230.301 362.552L228.622 363.432L226.978 364.311L227.084 364.258L225.326 365.217H225.396C224.297 365.832 223.207 366.448 222.1 367.055H222.153L220.535 367.934L219.006 368.813L219.111 368.752C213.582 371.821 208.159 375.092 202.612 378.135H202.683L201.637 378.715C199 380.201 196.363 381.74 193.647 383.209L192.715 383.727C190.332 385.071 187.859 386.246 185.314 387.245C184.373 387.447 182.545 388.115 182.386 386.638Z" fill="#BD5942"/>
<path id="Vector_22" d="M113.244 455.483C111.935 454.885 113.112 453.329 113.403 452.406L113.552 452.089L113.49 452.203C114.769 449.61 116.363 447.185 118.237 444.984L118.158 445.08L118.316 444.887L118.237 444.984L118.413 444.773L118.536 444.623L118.492 444.676C119.83 443.013 121.3 441.46 122.887 440.033L122.817 440.103C122.995 439.923 123.237 439.82 123.49 439.817C123.744 439.813 123.989 439.91 124.172 440.085C124.355 440.26 124.462 440.5 124.47 440.754C124.478 441.007 124.386 441.254 124.214 441.44L123.652 441.932L123.59 441.994C122.321 443.223 121.126 444.526 120.013 445.898L120.092 445.793L119.934 445.995L120.013 445.898L119.819 446.136L119.766 446.197L119.696 446.285L119.635 446.364L119.714 446.268C118.56 447.667 117.491 449.136 116.514 450.665C116.072 451.385 115.667 452.127 115.301 452.889V452.837C115.24 452.977 115.178 453.118 115.108 453.259L115.169 453.144V453.223C114.668 454.059 114.589 455.897 113.244 455.483Z" fill="#BD5942"/>
<path id="Vector_23" d="M130.684 457.822C130.436 457.762 130.221 457.606 130.086 457.389C129.952 457.172 129.907 456.911 129.963 456.662C130.403 454.903 130.842 453.144 131.114 451.289C131.31 449.831 131.422 448.363 131.448 446.892V446.883C131.448 446.637 131.448 446.391 131.448 446.145C131.455 446.014 131.487 445.887 131.543 445.769C131.6 445.652 131.68 445.547 131.778 445.462C131.876 445.376 131.99 445.311 132.114 445.27C132.237 445.23 132.368 445.214 132.498 445.226C132.628 445.237 132.754 445.274 132.869 445.336C132.984 445.397 133.085 445.481 133.167 445.582C133.249 445.684 133.309 445.8 133.345 445.926C133.38 446.051 133.39 446.182 133.374 446.312C133.374 446.505 133.374 446.69 133.374 446.883V446.971C133.286 450.402 132.766 453.809 131.826 457.11C131.764 457.353 131.61 457.563 131.398 457.695C131.185 457.828 130.929 457.873 130.684 457.822V457.822Z" fill="#BD5942"/>
<path id="Vector_24" d="M177.763 202.253C171.689 201.875 165.861 199.826 160.06 198.103C153.241 195.817 146.566 193.121 140.072 190.03L140.194 190.092C122.755 182.028 116.11 174.967 110.528 156.386C108.647 157.151 106.538 156.72 104.683 156.113C101.589 155.132 98.811 153.348 96.6313 150.942V150.942C93.3966 147.425 90.9705 142.606 91.8056 137.682C92.456 132.88 98.0201 131.658 101.914 133.285C102.021 133.364 102.144 133.418 102.275 133.443L102.635 133.619C103.23 133.913 103.803 134.251 104.349 134.63C103.909 133.179 103.47 131.737 102.986 130.286C102.925 129.644 102.943 128.998 103.039 128.36C103.467 126.12 104.054 123.913 104.797 121.756V121.844C104.794 121.812 104.794 121.78 104.797 121.748V121.748C104.797 121.642 104.859 121.536 104.894 121.431V121.378C104.894 121.378 104.894 121.378 104.894 121.334C105.439 119.778 105.984 118.204 106.485 116.63C106.617 116.313 106.757 116.005 106.898 115.698C107.487 114.463 108.16 113.27 108.911 112.127L108.832 112.242C109.82 110.733 110.91 109.294 112.093 107.933C112.066 107.967 112.037 107.999 112.005 108.029C114.172 105.597 116.46 103.275 118.861 101.074V101.074L119.169 100.801L119.072 100.889C123.467 97.2133 127.985 93.6431 132.705 90.3367L132.6 90.4158C134.982 88.7978 137.443 87.2765 139.834 85.6672L139.729 85.7463C146.62 81.1285 153.233 76.1074 159.532 70.7093L159.647 70.6037L159.875 70.4015C161.698 68.7921 163.407 67.0585 164.991 65.2132L164.903 65.3188L165.325 64.8176C165.65 64.457 165.958 64.0877 166.266 63.7096C166.573 63.3314 166.89 63.1643 167.145 62.8917V62.839L167.215 62.7686L167.505 62.5136C167.468 62.5408 167.433 62.5701 167.4 62.6016L167.707 62.3202L167.611 62.4081L167.804 62.2234H167.848L167.98 62.0916C168.243 61.8453 168.498 61.599 168.745 61.344C169.461 63.1519 170.322 64.8988 171.32 66.5675C171.32 66.5675 171.32 66.4971 171.258 66.4532C172.592 68.7574 174.283 70.8351 176.269 72.6087L176.198 72.5472C177.18 73.3599 178.28 74.0181 179.459 74.4994H179.407H179.477C182.747 75.9679 186.412 75.7129 189.893 76.1526C190.509 76.2493 191.115 76.3723 191.721 76.513C192.237 76.6566 192.745 76.8269 193.242 77.0231L194.121 77.4892L195 78.0519C195.264 78.263 195.51 78.4829 195.756 78.7027C196.134 79.0897 196.495 79.4854 196.829 79.8899L197.171 80.3295C197.845 81.2348 198.467 82.1771 199.035 83.1523L198.965 83.0379L199.184 83.4161C200.494 85.7201 201.601 88.1471 202.955 90.451C204.051 92.3098 205.437 93.9812 207.06 95.4018L206.99 95.3314L207.06 95.4018C208.401 96.6556 209.874 97.7584 211.455 98.6907V98.6907C211.521 98.8076 211.611 98.9093 211.719 98.9896C211.93 99.7634 212.132 100.537 212.334 101.32C214.031 97.2573 218.206 92.2361 223.067 94.3377C226.583 96.2811 228.156 100.959 228.49 104.749V104.688C228.49 104.741 228.49 104.802 228.49 104.855C228.486 104.887 228.486 104.92 228.49 104.952V104.952C228.956 109.436 227.541 113.877 225.783 117.949C224.253 121.466 221.713 124.869 217.678 125.458L216.914 125.617C218.092 132.652 219.551 139.845 218.443 146.968C218.439 147.006 218.439 147.044 218.443 147.082V147.082C216.914 152.982 214.268 158.514 211.552 163.966C207.016 172.707 202.762 181.79 196.38 189.353C196.403 189.335 196.424 189.314 196.442 189.291C191.853 194.99 185.911 202.183 177.763 202.253Z" fill="#EBAF9B"/>
<path id="Vector_25" d="M156.808 151.936C154.628 151.118 152.184 149.808 151.534 147.399V147.293V147.39C151.399 146.359 151.458 145.312 151.709 144.303C151.901 143.138 152.033 141.964 152.105 140.786V140.918C152.259 138.187 152.241 135.45 152.052 132.722V132.722C152.057 132.678 152.057 132.634 152.052 132.59V132.59C151.964 131.095 151.788 129.606 151.525 128.132C151.208 127.349 151.446 126.479 152.404 126.373C152.649 126.375 152.887 126.464 153.072 126.625C153.257 126.787 153.379 127.009 153.415 127.252V127.252C154.535 133.523 154.562 139.94 153.494 146.22C153.494 146.334 153.494 146.449 153.494 146.563C153.494 146.677 153.494 146.765 153.538 146.871V146.976C153.563 147.042 153.593 147.107 153.626 147.17C153.678 147.267 153.731 147.363 153.793 147.46C153.854 147.557 154.056 147.794 154.188 147.953V147.996V148.049L154.628 148.463C154.799 148.61 154.978 148.748 155.164 148.876C155.499 149.091 155.845 149.288 156.201 149.465C157.08 149.922 158.601 150.072 158.161 151.382C158.109 151.508 158.033 151.622 157.937 151.718C157.84 151.814 157.726 151.89 157.6 151.942C157.474 151.993 157.339 152.019 157.203 152.018C157.067 152.017 156.933 151.989 156.808 151.936V151.936Z" fill="#8C5F4E"/>
<path id="Vector_26" d="M156.729 171.097C156.514 170.935 156.371 170.694 156.334 170.427C156.296 170.16 156.365 169.889 156.526 169.673V169.673L156.456 169.778C156.736 169.444 157.079 169.169 157.467 168.969V168.969L157.572 168.89C158.359 168.117 159.336 167.566 160.405 167.294C161.473 167.023 162.595 167.039 163.655 167.343H163.805H163.91H164.033L164.253 167.246C165.056 166.703 165.91 166.237 166.802 165.856C168.56 165.399 170.379 165.681 172.129 165.258H172.041H172.129H172.234H172.155H172.252C173.214 165.038 174.142 164.689 175.012 164.221L174.889 164.274C175.171 164.135 175.444 163.98 175.706 163.807C176.011 163.585 176.304 163.347 176.585 163.095L176.497 163.183L176.585 163.104C177.403 162.357 178.194 161.574 178.985 160.783C179.078 160.683 179.189 160.604 179.313 160.548C179.437 160.493 179.571 160.463 179.706 160.46C179.842 160.456 179.977 160.48 180.103 160.53C180.229 160.58 180.345 160.655 180.442 160.749C180.539 160.844 180.616 160.957 180.669 161.083C180.722 161.208 180.749 161.342 180.749 161.478C180.749 161.613 180.722 161.748 180.67 161.873C180.618 161.998 180.541 162.112 180.444 162.207C179.565 163.034 178.774 163.86 177.904 164.652L177.974 164.599C176.452 165.938 174.602 166.849 172.612 167.237H172.7C171.199 167.502 169.68 167.649 168.156 167.677L167.725 167.738L167.461 167.809C166.143 168.336 165.044 169.611 163.514 169.435H163.646C163.066 169.435 162.512 169.251 161.941 169.207H161.502C161.38 169.215 161.26 169.233 161.141 169.26L160.728 169.374C160.59 169.428 160.455 169.49 160.324 169.559C159.515 170.025 158.812 170.64 158.012 171.124C157.829 171.272 157.6 171.351 157.365 171.346C157.13 171.341 156.905 171.253 156.729 171.097Z" fill="#8C5F4E"/>
<path id="Vector_27" d="M162.328 178.282C161.601 178.284 160.882 178.144 160.209 177.868V177.868C160.027 177.718 159.902 177.508 159.857 177.275C159.812 177.043 159.85 176.802 159.963 176.594C160.077 176.386 160.259 176.224 160.478 176.135C160.698 176.047 160.942 176.038 161.168 176.11C161.8 176.215 162.433 176.268 163.066 176.312H162.934C163.812 176.366 164.693 176.366 165.571 176.312V176.312C165.87 176.312 166.16 176.242 166.45 176.189C166.963 176.077 167.468 175.933 167.962 175.758C168.182 175.679 168.393 175.582 168.604 175.485C168.815 175.389 169.114 175.186 169.351 175.019C169.964 174.598 170.551 174.14 171.109 173.648L171.021 173.735C171.245 173.526 171.457 173.302 171.654 173.067C171.83 172.856 171.988 172.645 172.146 172.416C172.31 172.203 172.551 172.063 172.817 172.025C173.083 171.987 173.354 172.055 173.57 172.214C173.782 172.381 173.921 172.623 173.959 172.89C173.997 173.157 173.93 173.429 173.772 173.648C170.863 177.534 167.048 178.818 162.328 178.282Z" fill="#8C5F4E"/>
<path id="Vector_28" d="M150.523 172.047H150.031H149.943L148.774 171.915H148.703C147.351 171.808 146.008 171.599 144.686 171.291C144.45 171.205 144.254 171.035 144.135 170.813C144.017 170.591 143.984 170.333 144.044 170.089C144.104 169.845 144.252 169.631 144.46 169.489C144.668 169.348 144.92 169.288 145.17 169.321H145.258H145.337H145.293C146.049 169.453 146.796 169.638 147.552 169.734H147.649C148.528 169.813 149.31 169.893 150.145 169.998H150.259C150.42 169.97 150.584 169.977 150.742 170.019C150.9 170.061 151.047 170.136 151.172 170.239C151.298 170.343 151.401 170.472 151.472 170.619C151.543 170.765 151.583 170.926 151.586 171.089C151.571 171.356 151.45 171.607 151.251 171.786C151.052 171.965 150.79 172.059 150.523 172.047V172.047Z" fill="#8C5F4E"/>
<path id="Vector_29" d="M178.431 123.92C177.171 123.92 175.915 123.76 174.695 123.445H174.792C174.457 123.344 174.128 123.224 173.808 123.084C173.568 123.064 173.344 122.962 173.171 122.794C172.999 122.627 172.891 122.405 172.864 122.167C172.837 121.928 172.893 121.688 173.024 121.486C173.154 121.285 173.35 121.135 173.579 121.062C173.775 121.017 173.978 121.013 174.176 121.05C174.374 121.086 174.563 121.162 174.73 121.273C174.924 121.352 175.126 121.413 175.328 121.475C176.994 121.851 178.709 121.961 180.409 121.8C180.866 121.739 181.288 121.642 181.78 121.537C182.273 121.409 182.757 121.25 183.23 121.062H183.16C183.74 120.807 184.32 120.534 184.918 120.235C185.645 119.818 186.349 119.363 187.028 118.872C187.411 118.598 187.781 118.304 188.135 117.993C188.444 117.715 188.737 117.422 189.014 117.113L188.935 117.219C189.168 116.938 189.385 116.645 189.586 116.339L189.515 116.454C189.646 116.239 189.764 116.015 189.867 115.785C189.994 115.549 190.208 115.371 190.464 115.289C190.72 115.207 190.997 115.227 191.238 115.346C191.472 115.478 191.647 115.694 191.727 115.951C191.807 116.207 191.786 116.485 191.669 116.726C190.456 119.294 188.003 121.009 185.577 122.337C183.392 123.529 180.915 124.077 178.431 123.92V123.92Z" fill="#8C5F4E"/>
<path id="Vector_30" d="M120.364 141.243C118.888 141.032 117.27 140.979 115.969 140.214C115.85 140.131 115.75 140.024 115.674 139.899C115.599 139.775 115.55 139.636 115.531 139.492C115.513 139.347 115.524 139.201 115.565 139.061C115.606 138.922 115.676 138.792 115.77 138.681C115.864 138.57 115.98 138.48 116.11 138.416C116.241 138.352 116.384 138.316 116.529 138.311C116.674 138.305 116.819 138.33 116.954 138.384C117.09 138.438 117.212 138.519 117.314 138.622L117.455 138.675L118.193 138.86C119.085 139.034 119.986 139.161 120.892 139.238C121.384 139.238 121.867 139.238 122.36 139.238H122.421C123.183 139.171 123.94 139.06 124.689 138.904V138.904C125.58 138.712 126.461 138.471 127.326 138.183C127.859 137.984 128.381 137.758 128.89 137.506C129.711 137.072 130.509 136.596 131.281 136.081C131.624 135.835 131.949 135.571 132.266 135.299C132.582 135.026 132.688 134.894 132.881 134.674C133.072 134.486 133.329 134.38 133.598 134.38C133.866 134.38 134.123 134.486 134.314 134.674C134.501 134.868 134.605 135.126 134.605 135.395C134.605 135.664 134.501 135.923 134.314 136.116C132.464 137.882 130.272 139.248 127.872 140.13C125.472 141.012 122.917 141.391 120.364 141.243V141.243Z" fill="#8C5F4E"/>
<path id="Vector_31" d="M164.182 109.753C162.969 109.683 162.855 108.179 162.424 107.3C161.994 106.42 161.739 105.541 161.466 104.661C161.391 104.444 161.352 104.215 161.352 103.984C161.37 103.844 161.416 103.709 161.488 103.588C161.561 103.467 161.657 103.361 161.772 103.279C161.886 103.196 162.017 103.138 162.155 103.108C162.293 103.079 162.435 103.077 162.574 103.105C162.846 102.226 164.051 102.076 164.754 101.68L164.631 101.733C168.12 100.204 171.792 99.1335 175.557 98.55H175.425C176.998 98.2949 178.572 98.0751 180.145 97.8376H180.013C181.068 97.6618 182.105 97.4595 183.16 97.2924C184.977 96.9602 186.832 96.8775 188.671 97.0463C190.429 97.2837 192.187 97.5211 193.945 97.7409C194.886 97.8992 196.582 97.9696 196.424 99.3062C196.355 99.5638 196.201 99.7907 195.988 99.9503C195.774 100.11 195.513 100.193 195.246 100.186C194.367 100.247 193.427 100.256 192.513 100.273H192.644C191.946 100.297 191.251 100.364 190.561 100.476V100.476H190.447L188.751 100.757H188.882L185.322 101.302H185.454L185.05 101.364C183.046 101.707 181.086 102.243 179.134 102.771C177.384 103.304 175.665 103.932 173.983 104.653H174.098C171.267 105.928 168.604 107.546 165.914 109.05C165.399 109.414 164.806 109.655 164.182 109.753Z" fill="#FFC995"/>
<path id="Vector_32" d="M133.321 118.749C134.2 118.028 133.321 116.735 133.198 115.847C133.075 114.959 132.697 114.088 132.371 113.209C132.303 112.991 132.199 112.786 132.064 112.602C131.921 112.405 131.707 112.272 131.467 112.231C131.227 112.19 130.981 112.244 130.78 112.382C130.736 112.41 130.698 112.446 130.666 112.488C129.998 111.934 129.049 112.382 128.275 112.426H128.39C125.024 112.957 121.75 113.964 118.668 115.416L118.773 115.363C117.49 115.961 116.224 116.586 114.95 117.192L115.055 117.14C114.176 117.544 113.297 117.905 112.418 118.309C110.913 118.97 109.52 119.86 108.287 120.947V120.947C107.162 122.029 106.01 123.128 104.867 124.201C104.217 124.852 103.109 125.819 103.988 126.76C104.164 126.941 104.397 127.055 104.647 127.082C104.898 127.109 105.149 127.048 105.36 126.909C106.054 126.487 106.722 126.03 107.39 125.573L107.294 125.643C107.814 125.311 108.357 125.017 108.92 124.764V124.764H109.008L110.396 124.122H110.291C111.258 123.673 112.216 123.243 113.183 122.75L113.077 122.803L113.403 122.653C115.065 121.933 116.767 121.308 118.501 120.78C120.076 120.316 121.679 119.949 123.3 119.681H123.186C126.21 119.233 129.339 119.25 132.38 119.092C132.72 119.068 133.046 118.949 133.321 118.749V118.749Z" fill="#FFC995"/>
</g>
</g>
</g>
</g>
<g id="Group 41">
<g id="Frame_2" clip-path="url(#clip1_48_2762)">
<path id="Vector_33" d="M315.061 145.181C325.684 144.48 336.884 149.165 343.172 157.933C348.043 166.63 350.624 178.288 345.23 187.324C344.687 187.154 343.835 186.16 343.25 186.605C332.087 191.972 320.603 192.69 309.692 186.382C293.176 176.294 295.297 149.256 315.061 145.181ZM299.167 100.851C308.448 91.7449 324.939 94.5932 334.01 102.643C342.023 110.618 342.439 122.209 340.903 132.748C336.015 144.897 314.67 139.827 306.097 133.953C296.734 126.857 290.438 110.659 299.163 100.851H299.167ZM311.178 63.1382C308.843 52.1331 311.339 36.0794 322.707 31.0062C334.376 24.9587 347.075 33.5655 352.992 43.7533C360.815 57.0371 358.481 75.4023 347.297 86.036C339.062 87.1505 331.898 86.5065 324.927 81.4209C318.8 76.81 313.311 70.618 311.174 63.1382H311.178ZM366.942 118.502C367.202 117.338 368.816 115.91 367.766 114.824C362.508 108.897 360.82 96.5829 362.722 89.0081C365.971 72.261 384.265 56.938 401.192 65.3673C420.763 75.5799 408.921 101.281 394.02 109.949C386.015 113.813 377.327 117.875 368.223 117.177L366.942 118.502ZM431.457 115.679C438.745 121.953 440.812 132.835 437.349 141.685C429.525 163.943 400.221 163.703 381.762 155.947C380.868 156.298 379.501 157.355 378.645 157.598C376.001 128.711 402.308 95.0845 431.473 115.666L431.457 115.679ZM375.705 199.902C376.94 189.388 381.469 178.217 390.697 172.356C405.133 162.378 425.49 176.257 424.873 192.83C424.243 201.206 418.087 208.129 412.755 214.159C399.698 225.978 384.376 218.473 370.862 212.442C373.897 208.525 375.795 205.049 375.705 199.902Z" fill="#F8A488"/>
<path id="Vector_34" d="M339.807 68.3848C350.163 88.166 355.195 110.18 359.926 131.856C360.259 131.186 360.552 130.497 360.803 129.792C365.032 119.629 370.525 110.044 376.157 100.562C376.491 100.063 376.75 99.5137 377.109 99.0308C377.251 98.8964 377.429 98.8063 377.621 98.7715C377.814 98.7367 378.012 98.7586 378.192 98.8347C378.372 98.9108 378.527 99.0378 378.636 99.2001C378.746 99.3624 378.806 99.5531 378.809 99.749C378.694 100.537 378.08 101.136 377.73 101.813C371.735 111.91 365.901 122.164 361.598 133.128C361.351 133.751 361.112 134.647 360.519 135.01C362.355 145.285 363.026 155.774 363.434 166.197C363.525 168.109 363.597 170.021 363.652 171.93C364.702 170.659 365.818 169.454 366.922 168.215C371.208 163.372 375.965 158.969 381.123 155.072C387.88 149.829 395.312 145.495 401.859 139.98C402.035 139.812 402.265 139.713 402.507 139.702C402.749 139.69 402.987 139.767 403.177 139.918C403.368 140.069 403.497 140.284 403.542 140.523C403.586 140.762 403.543 141.009 403.42 141.218C403.254 141.444 403.051 141.64 402.819 141.796C394.563 148.603 385.142 153.854 377.084 160.917C372.511 165.005 368.275 169.457 364.418 174.23C364.237 174.503 364.005 174.738 363.735 174.923C364.085 190.197 363.422 205.532 361.264 220.644C363.426 217.672 366.098 215.055 368.581 212.331C377.64 203.072 388.786 196.298 399.298 188.872C399.435 188.682 399.632 188.547 399.857 188.487C400.082 188.428 400.321 188.449 400.532 188.546C400.744 188.644 400.915 188.812 401.016 189.022C401.118 189.232 401.144 189.47 401.089 189.697C400.916 190.271 400.34 190.572 399.904 190.936C391.463 196.715 382.836 202.292 375.07 208.995C370.022 213.227 365.765 218.337 361.528 223.357C361.318 223.495 361.071 223.569 360.819 223.567C359.748 230.491 358.33 237.356 356.57 244.137C356.117 245.259 355.944 248.735 354.544 248.851C354.425 248.861 354.305 248.837 354.198 248.782C354.091 248.727 354.001 248.644 353.939 248.541C353.457 247.885 353.737 247.084 353.939 246.37C356.972 235.069 359.113 223.547 360.342 211.91C359.172 211.546 358.905 209.755 358.254 208.867C352.901 198.135 344.703 189.227 337.016 180.133C333.536 176.112 330.094 171.972 325.952 168.624H325.981C325.751 168.5 325.579 168.29 325.501 168.04C325.424 167.79 325.448 167.519 325.568 167.286C325.688 167.054 325.894 166.877 326.142 166.795C326.39 166.714 326.661 166.733 326.895 166.849C331.725 170.564 335.542 175.423 339.54 180.005C347.334 189.086 355.314 198.221 360.626 209.07C361.71 197.642 362.078 186.158 361.729 174.684C361.589 169.842 361.429 165 361.178 160.166C361.131 160.157 361.086 160.145 361.042 160.129C360.61 159.97 360.255 159.653 360.049 159.241C350.278 144.975 335.875 134.585 322.102 124.447C321.857 124.385 321.643 124.233 321.504 124.022C321.364 123.81 321.309 123.554 321.348 123.303C321.558 122.23 322.794 122.354 323.452 122.927C335.875 132.054 348.45 141.338 358.242 153.392C359.14 154.577 360.161 155.732 360.997 156.983C360.671 151.683 360.21 146.391 359.494 141.111C357.945 130.263 355.244 119.596 352.457 108.996C348.804 94.4363 344.106 80.038 336.719 66.9153C336.584 66.7372 336.511 66.5197 336.511 66.2961C336.511 66.0724 336.584 65.855 336.719 65.6769C338.259 64.2486 339.013 67.1547 339.807 68.3848Z" fill="#5AA897"/>
</g>
</g>
<path id="Vector_35" d="M470.162 207.388C470.923 210.463 468.368 213.096 465.394 211.353C463.356 210.12 462.286 207.928 461.205 205.9C458.124 203.03 459.144 196.431 464.289 198.342C467.766 199.833 469.221 204.008 470.162 207.388ZM505.635 227.139C504.831 223.893 500.768 219.787 497.44 222.393C495.566 220.335 492.489 221.511 493.156 224.376C494.648 228.083 497.2 232.262 500.818 234.18C502.421 234.907 504.477 234.644 505.426 233.038C506.511 231.242 505.745 229.042 505.635 227.139ZM480.01 205.5C479.183 208.48 481.67 211.589 483.963 213.237C490.098 216.16 489.427 208.054 487.009 204.83C485.314 201.047 479.179 199.978 480.01 205.492V205.5ZM441.242 226.899C439.292 224.997 437.072 225.271 436.051 226.743C434.273 226.629 432.773 229.149 435.484 232.749C437.16 235.123 438.824 237.635 441.272 239.287C441.716 239.629 442.241 239.849 442.796 239.926C442.971 240.139 443.139 240.356 443.295 240.573C446.688 244.246 450.199 240.067 447.236 236.608C444.521 233.807 444.007 229.628 441.242 226.892V226.899ZM461.486 224.837C460.317 224.076 458.668 224.361 458.345 225.876C458.173 228.821 460.938 231.127 462.332 233.529C466.037 239.561 472.279 237.715 469.328 230.579C468.257 227.489 465.295 222.744 461.486 224.829V224.837Z" fill="#B0C4A9"/>
<g id="Group 42">
<path id="Vector_36" d="M253.907 136.515C254.221 135.103 256.4 133.071 258.11 132.087C260.428 130.863 267.903 126.611 265.153 130.814C264.345 131.811 263.337 132.628 262.195 133.213C259.473 134.89 253.83 139.44 253.907 136.515Z" fill="#59724C"/>
<path id="Vector_37" d="M237.005 154.963C238.695 153.988 240.613 152.135 240.535 151.058C240.005 149.27 235.638 152.368 233.255 153.763C231.529 154.869 229.387 157.056 229.411 158.317C229.852 160.508 234.524 156.942 237.005 154.963Z" fill="#59724C"/>
<path id="Vector_38" d="M258.559 152.976C260.664 151.898 263.456 148.711 261.787 148.356C261.019 148.209 259.595 149.038 258.502 149.67C255.833 151.135 251.483 153.673 251.181 156.224C251.638 158.35 256.131 154.853 258.559 152.976Z" fill="#59724C"/>
<path id="Vector_39" d="M274.306 151.07C276.04 149.846 278.137 148.773 279.468 147.059C281.871 143.68 277.897 145.304 275.542 146.732C272.58 148.483 267.185 151.221 266.704 154.216C267.132 156.334 271.833 152.612 274.306 151.07Z" fill="#59724C"/>
<path id="Vector_40" d="M228.762 172.746C230.497 171.42 232.386 170.783 233.892 169.073C234.618 168.298 235.185 167.204 234.749 166.894C233.447 165.809 228.171 169.796 225.616 171.322C224.074 172.334 222.156 174.248 222.181 175.402C222.503 177.288 226.555 174.243 228.762 172.746Z" fill="#59724C"/>
<path id="Vector_41" d="M251.361 172.615C252.675 171.505 254.299 170.779 255.331 169.379C257.343 166.617 254.229 167.498 252.116 168.971C249.667 170.432 245.126 173.166 245.432 175.304C246.129 176.61 249.431 174.199 251.361 172.615Z" fill="#59724C"/>
</g>
</g>
<defs>
<clipPath id="clip0_48_2762">
<rect width="337" height="782" fill="white" transform="translate(20 25)"/>
</clipPath>
<clipPath id="clip1_48_2762">
<rect width="144" height="219.834" fill="white" transform="translate(295 29)"/>
</clipPath>
</defs>
</svg>
