<svg width="488" height="55" viewBox="0 0 488 55" fill="none" xmlns="http://www.w3.org/2000/svg">
<path id="Vector" d="M199.059 10.257C174.343 9.82161 -14.7965 22.0135 0.927149 40.1096C8.42085 48.7397 154.947 23.7116 181.074 28.4664C172.651 36.3998 146.638 39.4129 130.239 43.0444C163.045 43.1489 206.631 35.7815 237.658 40.7976C253.329 43.3317 254.626 50.0982 268.912 53.3291C287.318 57.5091 315.724 52.6933 334.068 51.3435C354.078 49.8805 373.623 49.7934 393.842 49.7063C425.132 49.567 458.7 48.1649 488 42.7396C459.91 21.7174 389.407 34.3794 345.436 28.3271C354.524 23.9728 374.359 25.523 383.009 19.9844C387.917 16.8493 386.743 11.0582 388.811 7.64449C358.504 -6.43708 307.687 2.47169 274.267 6.54725C252.225 9.23816 234.099 6.23373 212.372 11.0582C209.813 10.8666 210.514 9.79548 199.059 10.257Z" fill="#FDFBFA"/>
</svg>
