<svg width="438" height="59" viewBox="0 0 438 59" fill="none" xmlns="http://www.w3.org/2000/svg">
<path id="Vector" d="M231.597 2.77897C196.783 -0.451712 155.776 -3.36636 126.882 9.31936C135.601 11.0752 146.539 10.9435 155.653 12.7169C126.181 17.9843 -0.620493 18.2564 0.00228614 39.6334C20.6154 48.5266 65.2274 31.7323 83.2617 42.5744C76.2444 46.4371 65.8414 50.4755 67.7887 55.98C87.7702 57.13 108.296 55.0055 128.672 55.9185C152.066 56.9544 174.652 57.6743 198.23 58.0606C242.921 58.8156 295.831 61.9585 336.399 50.0629C327.794 44.4443 304.909 44.8394 292.656 42.5744C305.541 34.0587 348.32 35.1649 367.889 34.7347C399.396 34.0499 413.396 34.7786 438 27.0003C425.623 23.0234 403.23 24.709 388.274 22.9796C374.626 21.3993 339.224 12.6466 372.231 9.32814C350.171 -9.90673 246.272 12.6993 213.984 14.2707C218.659 7.40552 241.851 12.8046 251.701 7.59867C246.561 5.61461 237.755 3.97292 231.597 2.77897Z" fill="#FDFBFA"/>
</svg>
