<svg width="537" height="630" viewBox="0 0 537 630" fill="none" xmlns="http://www.w3.org/2000/svg">
    <g id="Group 130">
    <g id="Mask group" opacity="0.4">
    <mask id="mask0_48_2776" style="mask-type:alpha" maskUnits="userSpaceOnUse" x="125" y="0" width="412" height="630">
    <path id="Rectangle 3" d="M125 206C125 92.2293 217.229 0 331 0C444.771 0 537 92.2293 537 206V630H125V206Z" fill="#FCF9F4"/>
    </mask>
    <g mask="url(#mask0_48_2776)">
    <g id="Group 86">
    <path id="Vector" d="M536.808 -9H36.0039V663H536.808V-9Z" fill="#FBF7FC"/>
    <path id="Vector_2" d="M536.808 466.759C523.56 461.516 493.493 449.444 484.281 444.306C472.361 437.65 469.554 439.185 456.961 435.09C444.368 430.994 447.101 430.994 439.403 429.586C431.704 428.177 412.054 415.641 396.626 405.403C381.199 395.166 376.293 404.379 372.786 405.403C369.278 406.428 351.748 411.545 346.839 414.176C341.93 416.806 279.521 434.579 268.309 435.09C257.096 435.601 248.669 438.164 240.253 440.242C231.836 442.32 210.101 450.961 194.674 455.057C179.246 459.153 165.223 456.592 144.886 451.476C124.549 446.359 116.136 453.011 100.712 455.057C85.2878 457.103 40.4058 464.784 40.4058 464.784L36.0039 466.66V563.577H536.808V466.759Z" fill="#DFDAE0"/>
    <path id="Vector_3" d="M513.573 526.062C508.717 523.533 497.395 526.326 491.993 526.829C479.196 528.023 466.543 528.16 453.876 530.523C431.405 534.714 418.238 550.899 395.489 542.976C369.078 533.767 345.462 518.124 320.072 506.475C305.665 499.869 286.29 500.457 270.693 501.453C256.712 502.344 245.648 513.698 231.407 515.349C220.409 516.624 207.087 514.722 196.463 511.641C189.106 509.528 183.169 504.51 175.77 502.936C158.462 499.252 139.949 498.914 122.324 496.865C114.84 495.995 105.181 498.625 98.173 496.889C94.0176 495.861 91.5948 491.843 88.7318 488.438C80.4527 478.616 76.5684 469.291 65.2467 464.224C56.2386 460.184 47.3679 456.163 37.6062 455.42L36.0039 454.761V636.043L536.808 639.666V523.558L513.573 526.062Z" fill="#D2C5D4"/>
    <path id="Vector_4" d="M536.808 475.211L513.566 483.838C510.749 482.257 498.251 489.448 493.092 490.941C483.231 493.79 474.839 497.847 465.976 503.267C459.123 507.45 451.259 510.581 444.065 514.571C437.05 518.445 431.641 524.361 425.527 529.713C413.227 540.493 399.514 557.118 383.375 559.27C365.767 561.615 348.441 567.51 331.076 569.236C325.886 569.75 319.762 569.979 314.782 571.349C309.345 572.845 306.831 576.691 302.186 579.8C289.586 588.252 229.389 637.427 229.389 637.427L536.818 639.642V475.211H536.808Z" fill="#8F8996"/>
    <path id="Vector_5" d="M36.0039 636.043L522.535 639.698L509.002 636.508C503.054 633.838 495.332 633.69 487.521 631.549C472.378 627.404 458.151 629.986 442.847 628.778C428.588 627.651 419.569 622.186 404.434 625.728C393.461 628.295 387.58 628.341 377.181 624.513C359.436 617.981 347.191 611.977 332.957 598.584C325.71 591.763 315.033 593.006 305.841 589.041C285.769 580.381 276.077 561.305 258.871 548.85C248.687 541.479 237.098 551.54 226.008 553.537C209.908 556.431 194.219 556.107 178.115 558.467C151.774 562.341 125.965 572.595 102.667 555.805C91.8413 548.001 80.009 543.324 67.666 539.105C57.9888 535.781 46.4593 529.182 36.2082 532.964L36.0039 532.929V636.036V636.043Z" fill="#736D7C"/>
    <path id="Vector_6" d="M526.501 587.752C523 583.913 511.474 574.948 511.474 574.948C505.618 571.574 494.5 577.177 487.996 579.459C478.058 582.942 467.473 583.181 457.292 586.741C443.308 591.629 429.373 597.714 418.059 606.015C407.765 613.568 395.581 613.41 384.519 619.002C365.369 628.711 348.815 637.05 327.309 636.198C315.709 635.733 308.539 627.605 299.038 621.407C290.449 615.797 279.881 610.293 270.531 607.032C258.639 602.891 242.676 606.395 230.29 607.205C221.55 607.775 217.011 612.107 207.96 607.374C202.748 604.648 200.026 599.697 195.48 595.725C186.578 587.942 175.284 583.378 165.734 576.388C160.804 572.785 158.3 566.482 153.098 565.721C147.059 564.841 138.044 571.38 132.117 573.229C122.204 576.317 112.076 578.275 102.702 582.92C96.9546 585.769 91.873 590.456 85.9252 592.612C64.5072 600.359 55.3406 576.638 37.6062 570.345L36.0039 569.588V636.06V663.018H536.808V596.281C532.92 593.362 528.356 589.787 526.501 587.752Z" fill="#5B5860"/>
    <path id="Vector_7" d="M256.181 387.317C261.643 388.697 241.189 395.135 244.334 399.568C251.416 400.385 355.079 398.966 409.779 405.446C370.976 419.729 323.019 402.773 283.356 415.493C286.096 420.775 306.951 422.839 299.999 424.969C247 441.207 134.272 428.212 51.3789 427.593C77.4332 421.737 104.333 420.646 130.775 424.374C119.542 416.095 96.5813 419.187 88.0627 415.774C98.4935 413.524 148.587 422.465 153.813 415.003C159.448 406.928 120.073 397.614 124.275 396.212C165.445 386.324 213.193 385.017 256.181 387.317Z" fill="#F1EDF2"/>
    <path id="Vector_8" d="M222.035 250.385C228.905 257.192 233.302 266.101 234.525 275.694C235.748 285.288 233.727 295.015 228.785 303.327C223.842 311.64 216.261 318.061 207.249 321.568C198.236 325.075 188.309 325.468 179.048 322.683C183.725 327.319 189.397 330.83 195.634 332.946C201.87 335.063 208.507 335.731 215.041 334.899C221.574 334.067 227.832 331.758 233.339 328.146C238.846 324.534 243.458 319.714 246.824 314.053C250.19 308.392 252.221 302.039 252.765 295.475C253.308 288.911 252.348 282.31 249.959 276.173C247.569 270.036 243.813 264.524 238.974 260.055C234.136 255.587 228.343 252.28 222.035 250.385Z" fill="#EBD9CE"/>
    <path id="Vector_9" d="M459.358 349.443C441.666 349.443 424.055 349.534 406.408 349.795C399.112 349.911 363.527 350.013 359.526 353.866C354.459 358.747 401.644 354.503 409.828 354.954C405.954 356.116 394.46 358.144 399.045 361.127C400.225 361.895 421.847 362.856 425.809 363.339C448.033 366.043 476.145 359.535 500.373 361.021C490.577 358.799 477.378 358.673 466.852 357.704C479.825 353.982 518.907 358.627 526.405 352.626C518.636 347.678 493.626 351.612 481.72 351.763C466.13 351.957 451.03 354.933 435.401 354.507C442.212 353.45 466.112 353.957 467.606 349.893C465.651 349.492 463.535 349.302 459.358 349.443Z" fill="#F1EDF2"/>
    <path id="Vector_10" d="M163.349 362.937C158.38 361.339 149.39 362.015 143.386 361.321C137.91 360.687 123.693 357.176 136.948 355.845C128.092 348.129 86.3755 357.197 73.4128 357.828C75.2897 355.077 84.6007 357.243 88.5553 355.151C86.4917 354.355 82.9526 353.697 80.484 353.218C66.507 351.922 50.0403 350.753 38.4439 355.845C41.9443 356.549 46.3322 356.497 49.991 357.204C47.1738 357.711 42.0746 358.102 36 358.525V374.495C37.0565 374.495 38.1129 374.495 39.1694 374.537C48.5613 374.956 57.6293 375.242 67.0987 375.397C85.0409 375.699 106.279 376.96 122.57 372.188C119.112 369.938 109.924 370.076 105.004 369.185C110.178 365.769 127.356 366.212 135.212 366.043C147.851 365.762 153.471 366.043 163.349 362.937Z" fill="#F1EDF2"/>
    <path id="Vector_11" d="M230.039 440.045C230.039 440.045 231.008 442.767 237.244 444.348C243.481 445.929 246.207 444.084 249.633 447.074C253.06 450.063 252.619 454.722 255.518 455.684C258.416 456.645 259.391 454.497 262.811 454.451C266.23 454.405 267.336 455.198 267.336 455.198C267.079 455.176 266.823 455.236 266.602 455.368C266.38 455.5 266.206 455.698 266.103 455.934C265.751 456.768 266.325 457.835 265.093 459.417C263.86 460.998 263.332 463.48 265.646 465.403C267.959 467.326 271.858 470.685 281.26 471.316C290.663 471.946 291.716 478.169 291.716 478.169C291.716 478.169 287.631 477.641 287.409 477.993C287.276 478.266 287.23 478.573 287.278 478.873C287.278 478.873 285.039 478.387 284.729 479.134C284.538 479.613 284.42 480.117 284.377 480.63C283.807 480.677 283.234 480.617 282.686 480.454C281.957 480.19 282.091 482.166 282.091 482.166C281.876 481.929 281.593 481.766 281.281 481.697C280.968 481.628 280.643 481.658 280.348 481.782C279.292 482.212 276.27 481.377 275.77 480.585C275.27 479.792 274.925 481.419 274.925 481.419C274.925 481.419 274.104 481.954 273.02 480.961C271.935 479.968 270.794 481.771 270.84 481.902C270.886 482.032 267.671 482.233 264.709 478.676C261.747 475.119 263.085 472.545 260.867 473.006C258.648 473.468 259.067 480.891 258.754 481.683C258.441 482.476 257.877 479.486 256.866 479.708C255.856 479.93 253.968 481.116 253.44 480.673C252.912 480.229 253.975 478.472 253.088 478.433C252.2 478.394 251.067 478.697 251.024 478.521C250.982 478.345 252.341 476.63 251.2 477.112C250.327 477.433 249.405 477.596 248.475 477.595C248.344 477.595 250.007 476.088 249.531 475.707C249.056 475.327 246.235 475.443 246.105 475.397C245.974 475.352 246.939 474.651 246.763 474.038C246.587 473.425 243.594 473.728 243.513 473.07C243.432 472.411 246.777 472.467 245.883 471.707C244.952 470.984 243.985 470.311 242.985 469.689C242.985 469.689 245.619 469.425 247.379 470.083C249.14 470.742 251.507 469.643 250.63 468.062C249.753 466.481 246.457 466.745 244.566 465.822C242.675 464.9 242.326 464.153 242.326 464.153C242.326 464.153 244.46 464.231 244.478 463.054C244.495 461.878 240.174 461.079 239.34 460.022C238.964 459.497 238.503 459.037 237.977 458.663C237.977 458.663 240.199 459.307 240.963 458.575C241.727 457.842 236.836 456.247 235.737 455.149L234.639 454.05C234.639 454.05 236.399 453.962 236.614 453.434C236.829 452.905 233.85 452.423 232.529 451.5L231.212 450.578C231.212 450.578 232.575 450.447 232.793 449.873C233.012 449.299 229.325 447.105 229.325 447.105C229.325 447.105 230.878 446.521 232.092 446.665C233.307 446.81 228.666 442.274 228.666 442.274C228.666 442.274 231.036 443.461 231.518 443.33C232.001 443.2 230.135 440.812 230.039 440.045Z" fill="#8F8996"/>
    <path id="Vector_12" d="M401.095 448.074C401.095 448.074 402.82 449.57 403.475 453.817C404.13 458.064 403.317 463.984 403.317 463.984C403.317 463.984 404.373 461.431 406.652 461.29C408.93 461.149 409.906 461.522 410.526 461.568C411.108 461.561 411.688 461.483 412.251 461.336C412.251 461.336 410.945 462.597 410.758 463.347C410.571 464.097 409.603 466.354 408.684 467.337C407.765 468.319 407.349 469.291 404.546 471.967C401.743 474.644 398.13 474.813 395.39 476.7C392.65 478.588 390.407 482.18 390.407 482.18C390.407 482.18 391.544 478.88 391.217 478.306C390.889 477.732 387.917 480.359 387.917 480.359C387.917 480.359 389.407 476.82 388.974 476.485C388.541 476.151 385.924 478.817 385.924 478.817C385.924 478.817 385.987 476.454 387.685 475.02C389.382 473.587 393.115 472.992 393.981 470.238C394.848 467.484 392.168 466.241 392.168 466.241C392.168 466.241 393.073 466.35 393.041 465.129C393.009 463.907 391.703 465.129 391.703 465.129C391.703 465.129 391.861 462.692 390.879 462.311C389.896 461.931 390.115 463.308 390.115 463.308C390.115 463.308 389.086 459.043 388.09 459.572C387.093 460.1 387.625 461.251 387.625 461.251C387.625 461.251 387.273 457.758 386.259 457.223C385.244 456.687 385.156 457.969 385.156 457.969C385.156 457.969 385.132 455.18 383.653 455.68C382.174 456.18 381.941 456.286 381.941 456.286C381.941 456.286 382.783 455.416 381.941 454.962C381.701 454.836 381.427 454.789 381.159 454.828C380.891 454.867 380.642 454.991 380.448 455.18C380.448 455.18 381.881 454.089 380.744 453.694C380.093 453.459 379.403 453.356 378.712 453.391C378.712 453.391 382.892 452.433 381.092 452.131C380.29 452.014 379.495 451.851 378.712 451.641C378.712 451.641 381.959 449.701 388.618 453.095C395.277 456.49 396.932 459.822 397.524 460.008C398.116 460.195 397.989 456.645 397.989 456.645C397.989 456.645 398.771 458.512 399.267 457.765C399.764 457.018 398.147 455.025 398.147 455.025C398.147 455.025 400.355 456.363 399.982 455.025C399.609 453.687 398.179 453.265 398.179 453.265C398.179 453.265 401.292 454.673 400.996 453.462C400.7 452.25 398.911 450.866 398.911 450.866C398.911 450.866 400.873 452.455 401.151 451.053C401.429 449.651 401.204 448.183 401.095 448.074Z" fill="#736D7C"/>
    <path id="Vector_13" d="M318.405 394.275C318.405 394.275 314.648 407.305 316.032 412.26C317.416 417.214 319.201 416.743 320.381 415.686C321.561 414.63 323.55 414.566 324.17 415.161C324.79 415.757 326.181 415.619 326.181 415.619C326.181 415.619 325.477 417.641 325.072 418.51C324.667 419.38 324.138 421.88 330.791 420.694C337.443 419.507 340.478 416.94 340.478 416.94C340.377 418.019 339.894 419.027 339.115 419.782C337.82 421.025 337.379 420.873 337.555 421.169C337.731 421.465 339.577 420.366 339.577 420.366C339.577 420.366 338.7 422.078 337.249 422.694C335.798 423.31 337.467 423.398 337.467 423.398C337.467 423.398 337.073 424.057 334.964 424.367C332.854 424.677 335.052 424.849 335.052 424.849C335.052 424.849 334.263 425.553 332.023 425.289C329.783 425.025 331.935 426.166 331.935 426.166C331.935 426.166 330.791 427.092 327.709 426.497C324.628 425.902 329.005 427.554 329.005 427.554C327.529 427.533 326.064 427.295 324.656 426.849C322.68 426.145 324.262 427.554 324.262 427.554C322.949 427.38 321.653 427.097 320.388 426.708C319.022 426.205 318.881 426.392 318.067 427.864C317.254 429.336 314.423 432.089 314.31 432.167C314.197 432.244 314.574 430.959 314.31 429.797C314.046 428.635 311.345 430.762 311.345 430.762C311.31 430.058 311.481 429.359 311.838 428.751C312.422 427.797 309.063 428.3 309.063 428.3C309.606 427.956 310.076 427.509 310.447 426.983C310.908 426.237 306.953 426.325 306.798 426.258C306.643 426.191 308.58 425.553 308.929 424.986C309.278 424.419 304.703 423.842 304.703 423.842C304.703 423.842 313.035 422.528 313.732 421.155C314.43 419.782 311.313 419.253 311.313 419.253C311.313 419.253 313.024 418.799 312.288 418.06C311.552 417.32 310.852 418.616 310.852 418.616C310.852 418.616 311.422 416.503 311.007 415.584C310.591 414.665 310.26 416.243 310.26 416.243C310.249 414.987 310.381 413.735 310.654 412.51C311.07 411.017 309.929 412.577 309.929 412.577C309.929 412.577 311.69 409.192 311.56 407.474C311.429 405.755 309.566 408.393 309.566 408.393C309.566 408.393 310.359 405.657 311.38 404.209C312.401 402.762 309.971 402.727 309.971 402.727C310.686 402.426 311.442 402.236 312.215 402.163C313.102 402.163 311.158 399.286 310.862 398.994C310.566 398.702 312.598 399.543 312.796 399.874C312.993 400.205 312.401 396.402 312.07 396.075C311.739 395.747 313.148 396.645 313.584 397.392C314.021 398.138 313.877 394.666 313.563 393.68C313.25 392.694 315.391 395.888 315.391 395.888C315.391 395.888 315.743 394.339 315.409 393.317C315.074 392.296 316.25 394.173 316.465 394.98C316.68 395.786 317.219 394.624 318.405 394.275Z" fill="#5B5860"/>
    </g>
    </g>
    </g>
    <path id="D" d="M158.7 145.36C227.914 145.36 279.34 162.76 312.98 197.56C346.62 231.973 363.44 281.467 363.44 346.04C363.44 388.187 355.127 425.113 338.5 456.82C322.26 488.14 298.48 512.5 267.16 529.9C235.84 547.3 197.947 556 153.48 556C147.68 556 139.947 555.807 130.28 555.42C120.614 555.033 110.56 554.84 100.12 554.84C90.067 554.453 80.787 554.26 72.2804 554.26C58.747 554.26 45.407 554.453 32.2604 554.84C19.1137 554.84 8.48035 555.227 0.360352 556V544.4C13.507 543.627 23.367 542.08 29.9404 539.76C36.9004 537.44 41.5404 532.8 43.8604 525.84C46.1804 518.88 47.3404 508.44 47.3404 494.52V206.84C47.3404 192.533 46.1804 182.093 43.8604 175.52C41.5404 168.56 36.9004 163.92 29.9404 161.6C23.367 158.893 13.507 157.347 0.360352 156.96V145.36C8.48035 145.747 19.1137 146.327 32.2604 147.1C45.407 147.487 58.3604 147.487 71.1204 147.1C84.6537 146.713 99.927 146.327 116.94 145.94C133.954 145.553 147.874 145.36 158.7 145.36ZM144.2 155.8C126.414 155.8 114.814 159.087 109.4 165.66C103.987 172.233 101.28 185.573 101.28 205.68V495.68C101.28 515.787 103.987 529.127 109.4 535.7C115.2 542.273 126.994 545.56 144.78 545.56C186.927 545.56 219.6 538.02 242.8 522.94C266 507.473 282.24 485.047 291.52 455.66C300.8 426.273 305.44 390.507 305.44 348.36C305.44 305.053 300.22 269.287 289.78 241.06C279.727 212.447 262.907 191.18 239.32 177.26C216.12 162.953 184.414 155.8 144.2 155.8Z" fill="#45526C"/>
    </g>
</svg>
