<svg width="498" height="630" viewBox="0 0 498 630" fill="none" xmlns="http://www.w3.org/2000/svg">
<g id="Group 127">
<g id="Group 22">
<path id="Rectangle 3" d="M86 206C86 92.2293 178.229 0 292 0C405.771 0 498 92.2293 498 206V630H86V206Z" fill="#EFE6DE"/>
</g>
<g id="Group 52">
<path id="Vector" d="M132.209 167.959C132.152 166.428 132.173 164.897 132.121 163.363C132.207 161.036 131.384 158.55 132.522 156.385C133.372 154.118 136.842 154.736 136.874 157.157C137.154 158.44 136.775 159.713 136.277 160.889C135.327 163.292 134.48 165.735 133.359 168.069C133.053 168.869 132.225 169.143 132.209 167.959ZM128.717 161.328C129.287 159.124 129.92 156.915 129.639 154.615C129.535 151.857 125.541 151.657 125.177 154.398C124.687 156.624 125.018 158.871 125.351 161.086C125.538 161.957 125.986 166.721 126.901 166.637C128.016 165.161 128.208 163.094 128.717 161.328ZM121.247 165.238C121.457 165.065 121.423 164.706 121.443 164.465C121.587 162.919 121.812 161.389 121.912 159.839C122.033 157.691 122.431 155.547 122.335 153.39C122.313 152.667 122.009 151.981 121.487 151.48C119.766 149.733 116.529 151.399 117.002 153.825C117.827 157.243 119.192 160.523 120.276 163.871C120.49 164.251 120.643 165.591 121.247 165.238ZM138.108 170.683C141.153 168.57 144.112 165.729 145.456 162.209C146.39 158.486 142.104 156.588 139.909 159.697C139.314 160.482 139.07 161.45 138.737 162.355C137.733 164.931 136.382 167.366 135.925 170.125C135.78 170.22 135.673 170.364 135.625 170.531C135.576 170.697 135.588 170.876 135.658 171.035C135.729 171.194 135.853 171.322 136.009 171.398C136.166 171.474 136.344 171.492 136.512 171.449C137.077 171.269 137.614 171.011 138.108 170.683ZM37.2847 207.709C34.2288 205.852 30.6113 204.503 28.4842 201.482C27.1371 199.449 29.6014 197.044 31.6239 198.393C33.3698 199.469 34.5248 201.21 35.6692 202.864C36.4479 203.954 37.3063 204.99 38.0026 206.137C38.2454 206.542 38.4716 207.072 38.249 207.531C38.2054 207.614 38.1433 207.687 38.0673 207.743C37.9914 207.799 37.9037 207.838 37.8108 207.855C37.7179 207.872 37.6223 207.868 37.5311 207.842C37.44 207.817 37.3557 207.772 37.2847 207.709ZM34.5577 210.055C31.5456 207.82 28.9839 205.096 25.519 203.651C23.2058 202.837 21.5953 206.051 23.6261 207.439C25.4111 208.678 27.5079 209.258 29.5852 209.798C31.3447 210.166 33.1957 211.076 34.9826 210.998C35.3993 210.713 34.7927 210.25 34.5699 210.062L34.5577 210.055ZM30.0542 212.136C27.8419 210.675 25.3781 209.707 22.9166 208.786C21.04 208.048 19.1144 210.248 20.0658 212.022C20.8742 213.493 22.8251 213.606 24.2067 214.303C26.715 215.165 29.5166 215.971 32.169 215.559C34.7634 214.509 30.987 212.69 30.0664 212.143L30.0542 212.136ZM42.5297 255.392C40.8374 254.173 39.1034 253.009 37.406 251.805C36.3112 250.942 34.9808 249.838 35.025 248.318C35.4268 245.51 38.2755 245.584 39.9671 247.371C41.4699 248.992 42.5064 251.007 43.652 252.894C44.0645 253.603 44.6854 254.589 44.1567 255.389L44.1812 255.342C44.0975 255.484 43.9793 255.602 43.8375 255.686C43.6958 255.77 43.5351 255.816 43.3704 255.821C43.2057 255.826 43.0422 255.79 42.8953 255.715C42.7483 255.64 42.6226 255.529 42.5297 255.392ZM41.9364 258.781C42.654 257.954 41.1299 257.191 40.624 256.694C39.4007 255.786 38.15 254.904 36.8919 254.05C35.3656 253.119 32.7597 251.987 31.6756 254.077C31.4167 254.604 31.3754 255.212 31.5606 255.771C31.7457 256.329 32.1425 256.793 32.6654 257.062C35.2492 258.504 38.5218 258.386 41.3523 258.881C41.4494 258.921 41.5556 258.933 41.6589 258.915C41.7622 258.897 41.8584 258.851 41.9364 258.781ZM39.4993 262.756C40.8601 261.501 37.2498 260.594 36.4741 260.159C34.6911 259.437 32.4813 258.178 30.5911 259.132C28.9653 260.137 29.4983 262.817 31.38 263.131C32.842 263.463 34.3523 263.519 35.8335 263.297C37.0602 263.155 38.37 263.289 39.4993 262.756Z" fill="#FBD69E"/>
<g id="Group 51">
<path id="Vector_2" d="M117.585 212.541C114.959 211.509 112.524 209.559 111.302 206.963C110.896 205.998 110.591 204.995 110.392 203.968C109.676 198.928 109.253 193.741 109.539 188.646C110.801 180.456 113.252 172.284 116.994 164.886C117.298 164.345 117.67 163.846 118.1 163.399C118.655 162.859 119.327 162.452 120.064 162.212C120.801 161.971 121.583 161.903 122.351 162.011C127.486 163.302 132.788 164.521 137.499 167.029C138.097 167.102 139.639 169.571 139.976 169.992C140.882 170.085 140.421 172.271 140.387 172.941C138.978 180.928 131.296 209.509 124.231 212.402C122.132 213.059 119.715 213.274 117.585 212.541ZM69.1462 241.924C72.5921 240.68 77.7241 234.62 76.094 230.799C67.9139 217.386 52.6699 211.021 39.6375 203.437C39.4085 203.351 38.9588 203.124 38.717 203.047C38.7064 203.031 36.5444 203.016 36.5392 203.019C33.2843 205.75 28.76 210.896 27.6226 215.005C27.3446 216.331 27.1158 217.79 27.4758 219.13C27.7831 220.057 28.4251 220.853 28.9942 221.642C29.4769 222.276 30.0299 222.854 30.6427 223.364C40.2953 229.215 57.8081 244.517 69.1462 241.924ZM71.1427 279.452C74.8644 278.152 78.2913 274.505 77.7427 270.336C77.6248 269.241 77.2424 268.191 76.6285 267.276C74.5883 264.538 71.8695 262.289 69.0952 260.325C61.895 256.105 53.5741 254.263 46.0729 250.676C45.3165 250.38 44.5352 250.153 43.7384 249.998C41.2689 251.597 40.0283 254.531 38.0939 256.681C37.6881 257.267 37.3242 257.882 37.0049 258.519C36.1921 260.335 34.9885 263.395 35.8084 265.316C37.3823 268.335 40.9056 269.458 43.4212 271.519C50.7466 276.942 59.6235 280.146 68.7777 279.931C69.581 279.877 70.3735 279.717 71.135 279.457L71.1427 279.452Z" fill="#F8A488"/>
<path id="Vector_3" d="M121.62 269.305C118.46 258.899 115.923 248.291 114.866 237.45C113.898 229.422 114.191 222.249 116.96 215.031C117.071 214.748 117.192 214.461 117.31 214.177C117.28 214.173 117.25 214.166 117.221 214.158C116.332 213.885 115.765 212.946 115.136 212.288C113.997 210.901 112.935 209.447 111.784 208.069C111.38 207.505 110.783 207.033 110.719 206.306C110.693 205.006 112.301 204.727 113.042 205.653C115.04 207.311 117.071 208.946 118.558 211.096L118.637 211.212C119.248 210.481 120.462 210.154 121.277 209.734C121.595 209.588 121.922 209.444 122.245 209.311C123.548 208.765 124.883 208.299 126.244 207.917C127.277 207.468 128.919 207.356 128.864 208.912C128.745 209.839 127.741 210.219 127.1 210.736C124.906 212.332 122.41 213.448 119.849 214.331C119.718 214.64 119.574 214.942 119.451 215.253C113.031 231.54 119.878 254.161 124.378 270.127C132.346 298.106 145.195 324.364 157.294 350.707C157.463 351.985 156.73 352.637 155.709 352.023C155.361 351.793 155.085 351.467 154.915 351.085C154.904 351.07 154.89 351.049 154.879 351.034C154.25 349.726 153.624 348.408 153.004 347.098C152.846 346.767 152.696 346.443 152.543 346.113C151.6 344.09 150.657 342.066 149.715 340.04C149.119 338.762 148.526 337.483 147.938 336.203C147.938 336.203 147.938 336.203 147.927 336.187C137.847 314.419 128.147 292.436 121.62 269.305Z" fill="#45526C"/>
<path id="Vector_4" d="M62.9333 242.589C63.0461 240.956 69.6413 238.107 72.3657 236.98L73.1653 236.658C72.9686 235.933 72.8519 235.189 72.8171 234.439C72.699 232.485 73.0068 230.472 73.068 228.537C73.1535 227.619 73.2562 226.705 73.376 225.797C73.3849 225.571 73.4467 225.35 73.5565 225.152C73.6662 224.954 73.8208 224.785 74.0079 224.658C74.2096 224.536 74.4424 224.476 74.6781 224.483C74.9139 224.491 75.1427 224.567 75.337 224.701C76.3594 225.144 77.2223 234.614 76.7094 236.965C87.2055 244.344 95.5835 254.265 103.357 264.405C120.961 286.631 134.421 311.668 148.436 336.23C149.699 338.448 150.967 340.66 152.243 342.864C152.361 343.081 152.505 343.309 152.652 343.547C152.652 343.547 152.661 343.56 152.667 343.568C153.18 344.403 153.693 345.343 153.073 346.211C153.061 346.234 153.046 346.255 153.03 346.275C152.916 346.369 152.78 346.432 152.634 346.458C152.489 346.484 152.339 346.472 152.199 346.424C151.952 346.369 151.72 346.257 151.523 346.098C151.107 345.7 150.77 345.226 150.531 344.703C150.467 344.575 150.395 344.452 150.316 344.332C146.86 338.372 143.466 332.36 140.065 326.358C128.308 305.608 116.473 284.877 101.634 266.11C94.0584 256.216 85.9759 246.572 75.8025 239.288C75.3276 239.658 74.7458 239.96 74.3134 240.259C73.3465 240.885 72.411 241.585 71.4042 242.147C69.9344 243.063 62.9982 245.747 62.9333 242.589Z" fill="#45526C"/>
<path id="Vector_5" d="M70.0077 278.037C71.1127 276.944 72.3034 275.941 73.5686 275.04C74.1395 274.629 74.7477 274.274 75.3853 273.977C75.264 273.666 75.1594 273.348 75.0721 273.026C75.0501 272.95 75.0359 272.88 75.0149 272.811C74.4135 271.036 74.1199 269.175 74.1471 267.308C74.1518 266.478 74.1888 265.382 75.1659 265.132C77.0577 264.273 79.2325 271.635 79.1468 274.558C84.2955 276.58 89.3133 278.929 93.9102 282.075C110.393 292.607 124.122 307.209 136.342 322.432C137.394 323.808 138.445 325.187 139.493 326.569C142.939 331.1 146.337 335.66 149.64 340.3C150.453 341.441 151.265 342.587 152.061 343.74C152.061 343.74 152.069 343.753 152.075 343.761C152.629 344.551 153.178 345.344 153.721 346.139C154.455 347.487 157.266 349.813 156.256 351.334C156.066 351.495 155.828 351.586 155.578 351.595C155.329 351.604 155.082 351.53 154.877 351.384C154.177 350.951 153.588 349.946 153.102 349.333C152.38 348.308 151.661 347.29 150.945 346.278C150.622 345.804 150.283 345.341 149.953 344.88C144.658 337.422 139.262 330.047 133.629 322.838C118.813 304.914 102.158 287.156 80.5949 277.703C79.6701 277.328 78.7415 276.976 77.8042 276.622C76.9927 278.132 73.9687 279.321 72.8167 279.845C72.1793 280.1 71.4997 280.236 70.8108 280.247C70.5566 280.244 70.3085 280.162 70.1 280.013C69.8915 279.864 69.7327 279.655 69.6451 279.413C69.5575 279.172 69.5453 278.911 69.6102 278.665C69.675 278.419 69.8138 278.199 70.0077 278.037Z" fill="#45526C"/>
<path id="Vector_6" d="M194.078 205.512C185.555 208.067 177.66 217.859 176.465 226.592C175.942 224.588 174.99 222.611 173.353 221.285C172.589 220.638 171.5 219.988 170.506 220.52C164.506 224.387 159.718 238.036 160.882 244.949C160.07 242.855 158.112 240.253 155.655 240.315C153.292 240.513 149.811 246.637 148.934 248.757C146.013 256.534 144.672 265.351 147.363 273.356L147.347 273.366C145.695 272.058 143.987 270.984 141.882 272.104C141.015 272.483 140.282 273.115 139.78 273.917C137.572 278.902 137.423 284.608 137.721 289.979C137.969 293.182 138.693 296.328 139.869 299.316C140.504 301.273 141.904 303.223 142.319 305.169C142.252 305.215 142.168 305.147 142.109 305.112C141.946 304.989 141.776 304.877 141.599 304.775C140.83 304.361 139.976 304.126 139.102 304.088C138.228 304.051 137.356 304.212 136.552 304.559C136.117 304.757 135.746 305.073 135.481 305.472C135.217 305.87 135.07 306.335 135.058 306.813C134.903 308.128 134.919 309.458 135.106 310.769C136.472 316.844 139.176 322.614 141.448 328.385C145.404 337.036 152.106 343.902 157.116 351.882L157.155 351.939C157.146 351.926 157.139 351.915 157.132 351.905C161.312 338.561 171.799 323.907 177.012 310.925C177.911 308.207 178.26 305.338 178.036 302.487C177.281 297.705 172.216 301.254 169.998 302.886C177.006 296.492 190.001 287.016 188.826 276.406C188.659 275.229 188.323 273.915 187.355 273.142C186.128 272.239 184.119 273.505 182.809 273.703C187.773 269.417 192.291 264.641 196.295 259.449C197.717 257.173 199.164 254.278 198.304 251.558C196.506 247.06 193.98 247.87 190.519 250.063C194.819 245.734 199.187 241.298 202.524 236.151C203.324 234.801 203.932 233.347 204.333 231.831C204.88 229.857 204.898 227.661 203.818 225.848C203.158 224.676 202.116 223.522 200.706 223.357C198.443 223.162 195.493 225.6 194.435 227.499C196.588 221.269 199.429 214.629 198.337 207.928C197.751 205.509 196.439 204.777 194.078 205.512Z" fill="#5AA897"/>
<path id="Vector_7" d="M158.285 352.428C157.776 352.012 157.641 351.342 157.498 350.726C156.674 347.728 155.962 344.697 155.363 341.633C151.402 322.594 152.476 302.555 157.473 283.965C159.34 277.689 162.031 271.724 164.75 265.796C169.502 255.357 174.844 245.232 180.304 235.163C181.077 233.834 182.022 230.274 183.912 232.25C184.065 232.498 184.126 232.792 184.085 233.078C184.044 233.365 183.902 233.626 183.686 233.815C181.444 238.398 178.929 242.824 176.514 247.315C170.266 259.76 163.649 272.194 159.498 285.573C154.039 306.569 153.848 329.126 159.816 350.203C160.374 351.432 159.979 353.765 158.285 352.428Z" fill="#45526C"/>
<path id="Vector_8" d="M122.519 311.414C120.718 310.133 118.494 309.607 116.322 309.946C115.456 310.125 114.523 310.444 113.969 311.175C113.137 312.356 113.2 313.972 113.56 315.32C107.771 308.413 101.574 300.615 92.632 297.947C91.0404 297.466 89.2763 297.338 87.7311 298.026C84.2209 299.37 84.8023 302.677 86.6214 305.274C81.6679 299.837 74.9596 296.455 68.6744 292.844C67.9686 292.498 67.2425 292.196 66.5002 291.939C64.3153 291.185 61.9941 290.926 59.704 291.18C53.9444 292.149 52.2614 294.688 56.7438 299.193C55.5163 298.255 54.1415 297.529 52.6771 297.047C46.929 295.478 40.9338 294.604 35.0352 293.849C32.4465 293.758 29.7555 294.281 27.6323 295.818C26.5761 296.54 25.6014 297.645 25.6376 299.002C25.8604 301.387 27.5578 303.575 29.6367 304.693C26.4094 303.285 22.8474 302.853 19.3918 303.453C14.8987 304.151 10.2522 305.874 7.58149 309.758C5.22758 313.467 6.67119 316.241 10.1626 318.409C17.7674 323.44 26.7682 325.363 35.7533 324.714C32.9755 325.925 31.2151 329.078 30.4726 331.91C30.1903 333.148 30.001 334.61 30.8021 335.695C32.0884 337.089 36.0726 337.716 38.0086 338.261C40.489 338.744 43.0396 338.411 45.5009 337.991C48.3881 337.424 51.3284 337.007 54.0632 335.87C54.3279 335.76 54.6035 335.679 54.8856 335.627C52.4564 337.183 51.9093 340.511 52.8921 343.111C53.6524 345.012 55.0905 346.809 57.0673 347.497C65.3259 350.188 73.7419 347.027 81.8069 345.245C80.1226 345.74 78.7095 346.732 78.1323 348.463C77.5192 350.097 77.6679 353.381 79.1993 354.479C92.261 356.541 105.055 351.159 117.614 348.444C117.229 348.926 116.498 349.1 116 349.478C115.03 350.112 114.175 350.907 113.471 351.83C112.412 353.284 111.454 354.93 111.1 356.725C111.079 357.432 111.895 357.696 112.45 357.859C114.559 358.35 116.766 358.729 118.928 358.487C128.586 356.435 145.941 355.024 154.867 351.079C146.602 339.274 133.168 321.216 122.519 311.414Z" fill="#5AA897"/>
<path id="Vector_9" d="M158.028 354.789C156.472 354.812 155.4 353.11 154.17 352.32C150.522 349.39 146.735 346.605 142.627 344.352C118.751 331.371 92.342 324.18 65.5649 320.565C62.8677 319.973 51.1865 318.871 50.4551 316.959C50.3587 316.712 50.3457 316.44 50.4182 316.185C50.4907 315.93 50.6447 315.707 50.8565 315.548C51.0684 315.39 51.3265 315.305 51.5913 315.308C51.8561 315.31 52.1131 315.4 52.323 315.562C53.5207 315.971 54.7455 316.295 55.9883 316.532C68.5749 318.866 81.3501 320.226 93.8174 323.248C108.668 327.1 123.335 331.933 137.073 338.823C144.536 342.228 151.475 346.69 157.673 352.073C158.233 352.495 158.797 353.012 158.853 353.751C158.884 353.876 158.886 354.006 158.858 354.131C158.831 354.256 158.776 354.374 158.696 354.474C158.616 354.574 158.514 354.655 158.399 354.709C158.283 354.764 158.156 354.791 158.028 354.789Z" fill="#45526C"/>
</g>
</g>
<g id="Frame" clip-path="url(#clip0_48_2770)">
<path id="Vector_10" d="M434.553 337.997C432.817 337.688 431.164 337.02 429.699 336.035C422.818 330.878 416.319 325.103 409.611 319.716C399.594 311.038 385.679 302.174 383.203 288.209C380.618 268.028 403.209 286.488 409.473 291.91C412.325 294.462 414.849 297.359 416.988 300.535C421.425 307.828 425.401 315.465 430.151 322.573C422.754 301.462 416.202 273.826 425.958 252.63C426.39 251.697 427.132 250.629 428.306 251.124C430.113 251.986 431.219 253.901 432.264 255.536C434.817 259.776 436.058 264.733 436.665 269.607C439.101 291.151 436.029 312.812 434.943 334.261L434.984 334.243C437.962 320.319 443.376 310.864 455.216 302.668C460.765 298.929 467.079 295.19 473.966 295.266C475.474 295.304 476.955 295.679 478.3 296.364C479.353 296.926 480.545 297.367 481.402 298.22C482.79 300.085 481.463 302.583 480.445 304.319C472.352 315.645 460.556 323.77 448.64 330.628C444.16 333.287 439.526 336.353 434.553 337.997Z" fill="#B0C4A9"/>
</g>
<path id="Vector_11" d="M414.47 152.134C415.133 154.798 412.909 157.08 410.321 155.569C408.548 154.501 407.617 152.602 406.675 150.844C403.994 148.358 404.883 142.641 409.36 144.296C412.386 145.588 413.652 149.206 414.47 152.134ZM445.342 169.247C444.643 166.434 441.107 162.876 438.21 165.135C436.579 163.351 433.901 164.37 434.481 166.853C435.781 170.065 438.001 173.685 441.15 175.347C442.545 175.977 444.335 175.749 445.16 174.358C446.104 172.801 445.438 170.896 445.342 169.247ZM423.041 150.498C422.322 153.08 424.486 155.774 426.481 157.202C431.82 159.734 431.237 152.711 429.132 149.918C427.658 146.64 422.318 145.714 423.041 150.492V150.498ZM389.303 169.039C387.606 167.39 385.674 167.628 384.785 168.904C383.238 168.805 381.932 170.988 384.292 174.107C385.75 176.165 387.198 178.341 389.329 179.772C389.715 180.068 390.172 180.259 390.655 180.326C390.807 180.511 390.953 180.698 391.089 180.886C394.042 184.068 397.098 180.448 394.519 177.451C392.156 175.024 391.709 171.403 389.303 169.033V169.039ZM406.921 167.252C405.903 166.592 404.468 166.84 404.187 168.152C404.037 170.704 406.443 172.702 407.656 174.783C410.881 180.009 416.313 178.41 413.745 172.228C412.813 169.55 410.235 165.438 406.921 167.245V167.252Z" fill="#F8A488"/>
</g>
<defs>
<clipPath id="clip0_48_2770">
<rect width="99" height="87" fill="white" transform="translate(383 251)"/>
</clipPath>
</defs>
</svg>
