<svg width="550" height="485" viewBox="0 0 550 485" fill="none" xmlns="http://www.w3.org/2000/svg">
<g id="Group 128">
<g id="HEADER GRAPHIC">
<mask id="mask0_48_2771" style="mask-type:alpha" maskUnits="userSpaceOnUse" x="0" y="0" width="550" height="485">
<rect id="Rectangle 21" width="550" height="485" fill="#C4C4C4"/>
</mask>
<g mask="url(#mask0_48_2771)">
<g id="Group 40">
<path id="Rectangle 16" d="M138 299C138 185.229 230.229 93 344 93C457.771 93 550 185.229 550 299V717H138V299Z" fill="#EFE6DE"/>
<g id="Asset 2 1" clip-path="url(#clip0_48_2771)">
<g id="Layer 2">
<g id="design">
<path id="Vector" d="M320.916 187.814C320.637 191.313 320.348 194.812 320.121 198.311H319.823C318.064 198.655 316.285 198.894 314.497 199.029C313.385 199.444 312.224 199.715 311.043 199.833C307.877 200.244 304.694 200.393 301.51 200.638H301.353C296.289 201.023 291.261 201.889 286.171 201.854C276.769 201.854 267.377 201.854 257.975 201.854C251.259 201.854 244.534 201.583 237.817 201.627H237.957C235.185 201.627 232.421 201.784 229.649 201.933C215.368 202.003 201.086 201.854 186.796 201.618C175.646 201.504 164.521 201.95 153.38 202.169C150.24 201.95 147.074 201.985 143.926 201.942C142.36 201.942 140.804 202.108 139.247 202.257H139.151C135.495 202.195 131.848 202.099 128.175 202.047C127.047 200.489 127.178 198.267 126.881 196.413C126.468 192.636 126.416 188.828 126.724 185.04C125.648 174.499 129.234 164.387 132.758 154.668C134.21 150.538 135.495 146.339 136.763 142.132C138.661 135.807 140.681 129.473 141.661 122.886C141.664 122.866 141.664 122.845 141.661 122.825C142.117 119.704 142.377 116.557 142.439 113.403C142.457 110.324 142.308 107.246 141.993 104.183C141.232 97.3857 139.851 90.641 139.711 83.7826C139.604 76.71 140.577 69.6626 142.597 62.8837C144.529 56.2002 148.045 50.1554 152.129 44.5917C157.177 37.4004 163.514 31.2072 170.818 26.3259H171.387C172.261 25.731 173.136 25.1799 174.01 24.6288H174.063L174.211 24.5413C176.835 23.0104 179.599 21.9169 182.31 20.6922C185.242 19.329 188.267 18.1744 191.361 17.2367C194.888 16.2985 198.507 15.7528 202.153 15.6096C206.414 15.1663 210.721 15.5707 214.825 16.7993L215.359 16.9656C223.728 12.7665 233.497 13.7288 242.47 15.3209C249.157 16.3725 255.645 18.4375 261.71 21.4445H261.657L262.103 21.6632H262.147C275.781 28.1105 285.454 41.2412 291.497 54.9055C293.004 58.4443 294.227 62.0981 295.152 65.8318C295.677 67.7563 296.193 69.6984 296.569 71.6667C297.741 78.3501 297.82 85.1823 297.715 91.962C297.715 92.0757 297.715 92.1982 297.715 92.3206C297.662 100.299 296.692 108.224 296.552 116.203C296.552 116.115 296.552 116.019 296.552 115.931C296.508 118.133 296.595 120.336 296.814 122.527C296.998 124.058 297.26 125.554 297.592 127.059C297.596 127.076 297.596 127.094 297.592 127.111C300.032 138.046 306.338 147.503 311.314 157.371C316.448 166.74 320.156 177.089 320.916 187.814Z" fill="#FBD69E"/>
<path id="Vector_2" d="M223.072 200.936C220.21 200.535 217.397 199.843 214.676 198.871C212.065 198.06 209.605 196.828 207.391 195.223C204.768 193.281 202.293 190.639 201.724 187.35V187.193V187.21C201.724 187.21 201.724 187.21 201.724 187.149C201.669 186.749 201.639 186.345 201.637 185.942V186.108C201.637 185.828 201.637 185.557 201.637 185.277C201.641 185.251 201.641 185.224 201.637 185.198C201.637 185.198 201.637 185.128 201.637 185.093V184.979C201.73 184.271 201.946 183.584 202.275 182.95L202.459 182.644L202.52 182.547L202.581 182.469V182.407L202.634 182.337L202.774 182.171C202.824 182.109 202.88 182.05 202.94 181.996C203.421 181.503 204.003 181.118 204.645 180.868L204.803 180.806H204.855H204.908H204.969L205.24 180.728H205.354H205.415H205.502H205.59H206.027C206.193 180.719 206.359 180.719 206.525 180.728C206.671 180.719 206.817 180.719 206.963 180.728L207.216 180.772C207.519 180.839 207.813 180.941 208.091 181.078L208.213 181.139L208.301 181.183L208.379 181.226L208.537 181.323C208.895 181.55 209.28 181.743 209.656 181.935C210.38 182.296 211.121 182.62 211.878 182.906C212.739 183.197 213.614 183.443 214.501 183.641C216.44 184.023 218.404 184.257 220.378 184.341H220.501H221.69C222.049 184.341 222.407 184.341 222.757 184.341H223.168C224.976 184.291 226.777 184.101 228.555 183.772C232.426 182.978 236.196 181.751 239.793 180.115C240.947 179.541 242.071 178.908 243.16 178.217C243.895 177.718 244.577 177.159 245.268 176.607C245.224 177.736 245.207 178.856 245.215 179.984C245.215 181.323 245.259 182.661 245.303 184C245.303 183.842 245.303 183.693 245.303 183.536L245.355 184.997V185.049V185.172V185.259C245.425 188.907 245.443 192.564 245.53 196.212C245.049 196.535 244.551 196.842 244.043 197.13L243.632 197.366C243.562 197.41 238.245 199.711 237.178 199.991C232.601 201.33 227.787 201.652 223.072 200.936Z" fill="#EBAF9B"/>
<path id="Vector_3" d="M223.072 200.936C220.211 200.535 217.397 199.843 214.676 198.871C212.066 198.06 209.605 196.828 207.391 195.223C204.768 193.272 202.302 190.657 201.724 187.35V187.201V187.289C201.724 187.289 201.724 187.289 201.724 187.228C201.634 186.608 201.613 185.98 201.663 185.355C201.667 185.329 201.667 185.303 201.663 185.277C201.663 185.277 201.663 185.207 201.663 185.172V185.058C201.766 184.229 202.046 183.432 202.485 182.722L202.529 182.661L202.581 182.582V182.521L202.634 182.442C202.729 182.32 202.831 182.203 202.94 182.092C203.42 181.597 204.002 181.212 204.645 180.964L204.776 180.911H204.82H204.881H204.943C205.069 180.871 205.197 180.839 205.327 180.815H205.38H205.441H205.564H206.438C207.026 180.859 207.598 181.026 208.117 181.305L208.353 181.445C208.712 181.673 209.097 181.865 209.473 182.057C210.196 182.419 210.938 182.743 211.694 183.028C212.555 183.32 213.431 183.565 214.318 183.763C216.297 184.15 218.302 184.384 220.317 184.463C220.746 184.463 221.192 184.463 221.594 184.463H222.985H224.165C225.576 184.363 226.98 184.187 228.372 183.938C232.243 183.144 236.012 181.918 239.61 180.282C240.764 179.707 241.888 179.074 242.977 178.383C243.711 177.885 244.393 177.325 245.084 176.774C245.041 177.902 245.023 179.022 245.032 180.15C245.032 181.489 245.076 182.827 245.119 184.166V184.087C245.119 184.463 245.119 184.839 245.163 185.215V185.338V185.425C245.233 189.073 245.25 192.73 245.338 196.378C244.857 196.702 244.358 197.008 243.851 197.296C243.851 197.349 240.117 199.046 240.029 199.142C239.662 199.317 237.852 199.947 236.986 200.183C232.456 201.43 227.71 201.686 223.072 200.936Z" fill="#8C5F4E"/>
<path id="Vector_4" d="M225.529 314.931C224.566 314.858 223.613 314.682 222.687 314.406C222.572 314.387 222.46 314.351 222.355 314.301L222.031 314.204L221.9 314.161C216.776 312.162 211.807 309.788 207.033 307.057C202.984 304.888 198.838 302.902 194.859 300.61C183.123 294.119 171.246 287.742 160.262 280.07C160.065 279.972 159.88 279.852 159.711 279.711C159.562 279.615 159.396 279.519 159.256 279.414C155.315 277.058 151.5 274.497 147.826 271.742C146.071 270.466 144.4 269.078 142.824 267.586C142.35 267.186 142.039 266.626 141.949 266.012C141.748 264.061 143.847 263.195 145.141 262.18C146.575 261.2 148.097 260.369 149.61 259.556C154.079 257.028 158.312 254.123 162.518 251.201L162.3 251.359C164.224 249.994 166.156 248.621 168.098 247.274L167.871 247.431C169.491 246.311 171.029 245.074 172.471 243.731C176.131 240.338 179.555 236.699 182.72 232.839L182.545 233.049C184.356 230.862 185.982 228.535 187.749 226.313C189.516 224.091 191.352 221.983 192.9 219.639C193.512 218.624 194.072 217.609 194.597 216.559C195.121 215.51 195.471 214.276 195.891 213.13C196.311 211.984 196.494 211.066 196.766 210.007C197.561 206.263 197.78 202.423 198.462 198.635C198.655 195.364 198.602 192.083 198.305 188.82C198.217 188.356 198.121 187.892 198.025 187.437C197.002 184.262 195.996 181.069 195.218 177.815C194.692 175.818 194.462 173.755 194.535 171.691C194.745 169.443 195.331 166.783 197.43 165.567C198.631 164.994 199.932 164.661 201.261 164.588C204.654 164.247 208.038 163.879 211.388 163.241L211.703 163.179H211.545C214.977 162.538 218.361 161.661 221.673 160.555C227.348 158.588 232.857 156.172 238.149 153.329C239.811 152.454 241.376 151.3 243.265 150.967C243.906 150.892 244.551 151.072 245.062 151.468C245.572 151.864 245.906 152.444 245.994 153.084C246.278 158.002 246.278 162.933 245.994 167.851C245.508 173.567 245.368 179.307 245.574 185.041C245.574 185.041 245.574 184.997 245.574 184.979L245.521 183.317C245.521 183.755 245.521 184.192 245.565 184.612C245.513 183.265 245.469 181.917 245.46 180.57C245.452 179.223 245.46 177.867 245.504 176.52C244.813 177.071 244.131 177.631 243.396 178.13C242.308 178.82 241.184 179.454 240.029 180.028C236.391 181.682 232.577 182.918 228.66 183.711C226.779 184.062 224.872 184.252 222.958 184.279C222.538 184.279 222.127 184.279 221.708 184.279H222.066L220.492 184.236C218.518 184.152 216.553 183.918 214.615 183.536C213.728 183.338 212.852 183.092 211.991 182.801C211.235 182.515 210.493 182.191 209.77 181.83C209.394 181.638 209.009 181.445 208.651 181.218L208.432 181.086C207.866 180.773 207.233 180.599 206.587 180.579H205.975H205.87H205.695H205.625L205.327 180.649H205.485L205.24 180.71L204.89 180.833L205.222 180.719C204.481 180.949 203.806 181.354 203.255 181.9L203.202 181.952C203.088 182.069 202.98 182.191 202.879 182.32C202.847 182.356 202.818 182.394 202.791 182.434L202.73 182.512L202.651 182.626L202.59 182.722C202.151 183.432 201.87 184.229 201.768 185.058C201.772 185.107 201.772 185.157 201.768 185.207C201.768 185.207 201.768 185.277 201.768 185.312C201.772 185.338 201.772 185.364 201.768 185.39C201.75 185.708 201.75 186.026 201.768 186.344V186.055C201.77 186.48 201.802 186.904 201.864 187.324C201.864 187.236 201.864 187.158 201.864 187.079C201.864 187.175 201.864 187.28 201.908 187.385C202.485 190.718 204.96 193.342 207.575 195.258C209.788 196.863 212.249 198.095 214.86 198.906C217.581 199.878 220.394 200.57 223.256 200.971C226.471 201.443 229.739 201.443 232.954 200.971C235.504 200.415 238.024 199.725 240.502 198.906C241.52 198.324 242.585 197.826 243.685 197.419C243.685 197.419 245.11 196.614 245.81 196.142C245.723 192.485 245.705 188.846 245.635 185.189V185.102V185.198V186.265V185.329C245.731 189.817 245.749 194.296 245.88 198.784V198.687C245.88 199.562 245.924 200.376 245.941 201.216C245.941 201.023 245.941 200.822 245.941 200.621C245.941 201.88 246.02 203.14 246.081 204.4C246.077 204.464 246.077 204.528 246.081 204.592C247.148 208.441 247.988 212.352 249.256 216.148C249.686 217.343 250.186 218.511 250.751 219.648C251.06 220.19 251.384 220.715 251.722 221.222C254.693 225.505 257.933 229.596 261.421 233.469C262.05 234.108 262.698 234.712 263.388 235.298C265.814 237.152 268.163 239.091 270.437 241.115L270.227 240.94C273.736 243.848 277.413 246.547 281.238 249.023L281.011 248.866L281.999 249.504L281.763 249.356C286.062 252.074 290.505 254.556 295.073 256.791C296.236 257.255 297.372 257.784 298.475 258.375C298.744 258.527 298.976 258.736 299.157 258.986C299.338 259.236 299.464 259.521 299.525 259.824C299.586 260.127 299.582 260.439 299.513 260.74C299.443 261.04 299.31 261.323 299.122 261.568C299.359 263.09 297.854 264.009 296.866 264.892C296.061 265.574 295.274 266.265 294.496 266.974C291.37 270.082 287.994 272.929 284.404 275.486C280.906 278.198 277.233 280.735 273.664 283.359C264.447 290.454 255.01 297.268 245.574 304.074C239.959 307.932 232.631 315.28 225.529 314.931Z" fill="#EBAF9B"/>
<path id="Vector_5" d="M415.184 389.288C413.208 381.809 410.741 374.417 408.485 366.99C407.234 362.791 406.246 358.88 404.899 354.594L404.969 354.681L404.899 354.463C401.891 344.647 398.437 335.812 395.279 326.425C393.592 321.518 391.86 316.488 389.884 311.641C384.181 299.981 377.846 288.641 370.906 277.673C367.661 272.608 363.507 266.537 358.566 262.233C354.141 258.27 347.897 255.234 342.229 253.056C334.359 249.889 328.342 247.169 321.048 243.801C305.708 236.802 289.809 229.804 273.744 223.742C271.266 222.843 268.776 221.969 266.275 221.117H266.406C263.783 220.242 261.229 219.368 258.632 218.545L258.772 218.598C255.475 217.504 252.125 216.577 248.845 215.422C248.732 220.111 248.574 224.791 248.093 229.463C248.093 229.419 248.093 229.367 248.093 229.323C247.662 234.414 246.873 239.468 245.732 244.448C245.732 244.448 245.732 244.448 245.732 244.501C245.733 244.521 245.733 244.541 245.732 244.562C245.68 244.798 245.627 245.034 245.566 245.262C245.57 245.218 245.57 245.174 245.566 245.13L245.382 245.821C245.33 246.084 245.269 246.355 245.199 246.609C245.199 246.565 245.199 246.521 245.199 246.478C245.032 247.177 244.875 247.877 244.709 248.586V248.446C244.665 248.656 244.613 248.866 244.569 249.076C244.569 249.076 244.569 249.076 244.569 249.119C244.516 249.364 244.464 249.609 244.403 249.854V249.723C242.461 257.483 238.561 270.674 230.314 273.579H230.218L229.92 273.666H229.999C219.504 276.107 212.15 265.111 207.777 257.141C204.468 250.612 201.709 243.817 199.53 236.829C199.53 236.881 199.53 236.925 199.53 236.969L199.241 236.041C199.223 235.993 199.208 235.943 199.198 235.893C197.387 229.979 195.524 224.083 194.116 218.055C193.067 218.144 192.038 218.404 191.073 218.825C184.706 222.429 178.2 225.824 171.527 228.78C167.154 230.766 162.641 232.586 158.164 234.414L157.464 234.773L155.584 235.77L155.873 235.578C151.946 237.555 147.94 239.409 143.996 241.369C134.604 246.066 120.926 253.905 112.696 259.092C106.225 263.151 99.7354 267.298 93.9022 272.538C90.7538 275.302 87.6142 278.075 85.4803 281.793C85.2354 282.073 84.9993 282.353 84.7369 282.615C82.1133 285.056 80.9851 288.494 79.4897 291.652C78.1953 294.74 76.5162 297.662 75.458 300.846L75.4055 300.986C75.2219 301.52 75.0382 302.053 74.8458 302.578C74.4785 303.506 74.0762 304.433 73.7352 305.369C72.8606 307.722 71.9161 310.014 71.0416 312.367C70.613 313.531 70.167 314.791 69.7735 315.963C68.4267 319.462 67.0099 322.961 65.873 326.565V326.697C64.3513 331.552 62.7071 336.433 61.1504 341.332C60.3284 343.676 59.585 346.082 58.8154 348.444C58.2557 350.027 57.6523 351.76 57.145 353.36C55.9819 357.122 54.6613 360.962 53.6468 364.733C51.6441 370.76 49.6239 376.788 47.8311 382.876C47.1227 385.168 46.5455 387.617 45.9159 389.979C45.5553 391.127 45.2633 392.296 45.0413 393.479C44.9539 394.423 44.6827 395.464 45.3387 396.296C45.3819 396.355 45.4389 396.403 45.5048 396.435L45.4086 396.838C45.9946 397.356 46.6873 397.738 47.4376 397.958L47.5425 398.045L47.6562 398.089C48.1372 398.273 48.6707 398.447 49.1692 398.587C49.6677 398.727 50.0437 398.824 50.4635 398.955C55.7108 400.328 60.7219 402.183 66.2053 403.688C70.0533 404.711 73.8663 405.831 77.7143 406.881C83.3114 408.42 91.2523 410.179 97.5053 411.552C98.3799 411.753 99.2544 411.954 100.225 412.077H100.356C100.954 412.165 101.561 412.165 102.158 412.077C104.589 407.922 106.898 403.661 109.32 399.497C111.743 395.333 113.999 392.105 116.553 388.247C117.524 386.778 118.302 385.221 119.404 383.803C119.972 382.675 120.532 381.555 121.048 380.409C121.923 388.667 152.794 463.331 152.593 502.566C164.032 510.439 178.532 512.924 192.227 514.586C213.321 517.166 233.987 519.756 255.518 515.014C272.414 511.419 288.751 508.725 304.668 503.642C301.633 490.293 332.435 388.169 333.755 377.382C334.28 378.432 334.805 379.482 335.338 380.532C335.443 380.663 335.539 380.812 335.635 380.96C336.125 381.686 336.624 382.395 337.14 383.095C338.95 385.623 340.638 388.195 342.387 390.767L342.308 390.714C342.824 391.493 344.197 393.584 344.722 394.397C347.459 397.791 350.074 401.571 352.829 404.965L352.916 405.078C354.053 406.461 355.208 407.86 356.31 409.277C357.986 409.241 359.652 409.015 361.277 408.604H361.496C369.918 406.854 377.238 404.816 385.362 403.145C388.143 402.55 390.985 401.885 393.714 401.212L393.871 401.168C397.868 400.18 401.865 399.287 405.905 398.447C408.1 398.07 410.225 397.365 412.211 396.357C413.733 395.545 415.107 394.484 416.277 393.216C415.919 391.913 415.551 390.566 415.184 389.288Z" fill="#E7775C"/>
<path id="Vector_6" d="M443.965 499.093C443.706 493.805 443.063 488.542 442.041 483.347C441.114 478.098 439.645 472.98 438.543 467.767C438.378 467.442 438.28 467.088 438.254 466.726C438.237 466.51 438.237 466.294 438.254 466.078C436.199 459.211 434.074 452.37 431.931 445.512C431.931 445.512 431.931 445.512 431.931 445.45C431.923 445.398 431.923 445.345 431.931 445.293C431.931 445.223 431.887 445.162 431.87 445.092C431.783 444.864 431.721 444.628 431.643 444.401C431.643 444.322 431.59 444.261 431.564 444.199C431.564 444.199 431.564 444.156 431.564 444.138C431.564 444.121 431.52 443.981 431.485 443.893C431.45 443.806 431.485 443.893 431.485 443.893C427.631 431.699 423.346 419.656 418.629 407.764C417.02 403.644 415.682 399.419 413.959 395.333C413.416 395.72 412.849 396.073 412.263 396.392C410.277 397.4 408.152 398.105 405.957 398.483C401.917 399.357 397.92 400.232 393.923 401.203L393.766 401.247C391.046 401.92 388.195 402.585 385.423 403.189C377.325 404.86 369.97 406.889 361.556 408.639H361.329H361.145C363.594 416.801 365.999 424.98 368.806 433.02C355.478 425.435 321.73 405.332 317.794 402.402C312.766 398.649 306.985 394.301 302.822 389.717C302.073 388.878 301.367 388.002 300.706 387.093C299.301 385.002 298.161 382.745 297.312 380.374C297.067 379.683 296.604 378.345 296.359 377.662C295.012 373.699 293.447 369.789 291.986 365.835C291.593 361.207 290.718 356.781 289.914 352.258C288.698 344.464 286.555 336.512 285.007 328.639C283.932 323.337 283.258 318.141 281.221 312.953C280.81 311.921 280.294 310.688 279.244 310.137C279.127 309.992 278.988 309.865 278.833 309.76C276.778 308.807 274.46 311.239 273.665 312.936C273.665 312.814 273.603 312.691 273.577 312.569C273.376 311.807 273.21 311.064 273.044 310.312C272.785 308.601 272.417 306.91 271.942 305.247C271.771 304.773 271.545 304.32 271.268 303.899C271.317 303.428 271.257 302.953 271.093 302.508L271.041 302.395C270.881 302.098 270.654 301.844 270.377 301.653C270.101 301.461 269.783 301.338 269.449 301.292C266.939 301.074 265.383 303.716 264.482 305.876C263.399 309.027 262.936 312.357 263.118 315.683C263.013 315.499 262.899 315.315 262.794 315.123C261.307 312.77 259.681 310.338 258.115 308.125C257.513 307.182 256.724 306.372 255.798 305.745C253.13 304.31 251.224 306.62 251.425 309.201C251.425 310.172 251.425 311.283 251.425 312.262C251.276 317.555 252.877 323.049 257.153 326.592V326.644C257.319 327.012 257.494 327.37 257.678 327.711C257.722 327.799 257.8 327.965 257.844 328.035C257.993 328.359 258.124 328.639 258.229 328.91C258.249 328.964 258.263 329.019 258.273 329.076C258.273 329.33 258.325 329.837 258.343 330.091C258.549 331.963 259.005 333.798 259.698 335.55C260.162 336.923 260.765 338.909 261.22 340.291C262.187 341.885 263.063 343.532 263.843 345.225H263.782C262.261 344.166 260.643 342.837 258.815 342.557C258.275 342.46 257.721 342.478 257.188 342.609C256.362 342.745 255.551 342.959 254.766 343.248C252.868 343.816 250.979 344.499 249.099 345.12C248.058 345.426 247.245 345.89 246.265 346.257C245.523 346.485 244.81 346.8 244.14 347.193C243.738 347.403 243.265 347.639 242.881 347.858C242.496 348.077 242.321 348.313 242.102 348.47C241.628 348.814 241.191 349.207 240.799 349.643L240.344 350.115C239.844 350.546 239.371 351.008 238.928 351.497C238.49 351.987 238.053 352.626 237.686 353.115C236.645 354.323 235.526 355.32 234.398 356.413L234.205 356.588C233.864 356.903 233.505 357.227 233.191 357.568C232.876 357.909 232.404 358.382 232.028 358.793L231.494 359.388C231.197 359.72 230.952 360 230.681 360.263V360.306L230.576 360.193H230.532L230.392 360.044C229.602 359.153 228.764 358.306 227.882 357.507C227.392 357.035 226.78 356.448 226.29 355.994C225.801 355.539 225.136 354.83 224.594 354.244C224.419 354.017 224.253 353.789 224.078 353.544C223.903 353.299 223.606 352.906 223.361 352.626C222.917 352.137 222.444 351.675 221.944 351.243L221.463 350.754C220.833 350.108 220.145 349.523 219.408 349.004C219.014 348.768 218.603 348.584 218.201 348.365C217.524 347.977 216.809 347.657 216.067 347.412C215.579 347.233 215.1 347.028 214.633 346.799C214.161 346.589 213.688 346.432 213.225 346.275C211.344 345.662 209.569 345.006 207.68 344.455C206.831 344.134 205.952 343.9 205.057 343.755C204.526 343.628 203.976 343.611 203.439 343.703C202.182 343.962 201.005 344.513 200.002 345.312C199.494 345.662 198.961 346.003 198.48 346.371L198.375 346.432C198.411 346.367 198.443 346.3 198.471 346.231C199.223 344.602 200.069 343.019 201.007 341.489C201.471 340.046 202.083 338.06 202.564 336.634C203.381 334.633 203.843 332.505 203.928 330.344C203.928 330.222 203.981 330.161 203.998 330.117C204.102 329.818 204.225 329.526 204.366 329.242L204.278 328.927L204.357 328.805L204.409 328.674C204.602 328.306 204.785 327.948 204.952 327.58C210.409 322.821 210.802 317.083 210.68 310.408V310.207C210.89 307.643 208.983 305.29 206.307 306.707C205.382 307.339 204.594 308.152 203.99 309.096C202.459 311.291 200.491 314.161 198.996 316.706C198.996 316.575 198.996 316.453 198.996 316.33C198.996 315.534 198.996 314.721 198.952 313.951C198.952 313.898 198.952 313.855 198.952 313.802C198.655 309.997 198.078 306.611 195.944 303.987C194.781 302.447 192.148 301.275 190.985 303.558V303.654C190.837 304.063 190.787 304.5 190.836 304.932C189.909 306.366 189.63 308.317 189.306 309.97C189.079 311.344 188.738 312.709 188.431 314.064V314.012C187.914 312.99 187.158 312.108 186.228 311.44C185.623 311.017 184.917 310.763 184.181 310.705C183.936 310.695 183.692 310.744 183.47 310.847C183.248 310.951 183.054 311.106 182.904 311.3C182.569 311.473 182.272 311.711 182.03 312C180.517 314.134 179.975 316.943 179.275 319.156C178.4 322.445 177.919 325.848 177.228 329.163V329.338C176.065 335.235 174.605 341.052 173.389 346.931C172.209 353.658 170.809 360.053 170.162 366.964C168.527 371.268 166.865 375.563 165.387 379.919C164.458 382.858 163.128 385.655 161.434 388.23C160.848 389.035 160.157 389.892 159.318 390.854C157.568 392.718 155.723 394.49 153.791 396.164C150.581 398.876 147.179 401.413 143.873 403.88C137.724 408.646 131.238 412.961 124.467 416.792C114.095 422.758 103.539 428.217 93.2108 434.096C95.7908 426.843 97.9072 419.425 100.207 412.086C99.3243 411.959 98.4486 411.787 97.5836 411.569C91.3306 410.196 83.381 408.438 77.7839 406.898C73.9446 405.848 70.1316 404.729 66.2836 403.705C60.7914 402.209 55.789 400.346 50.5418 398.972C50.0957 398.841 49.6672 398.719 49.2387 398.605C48.8102 398.491 48.2067 398.29 47.7257 398.106H47.612L47.5071 398.019C41.6127 413.564 35.4908 428.995 30.5496 444.917C30.513 444.992 30.4865 445.071 30.4709 445.153C30.4709 445.153 30.4709 445.153 30.4709 445.214C30.4543 445.283 30.4309 445.351 30.401 445.415C30.331 445.634 30.2698 445.862 30.2086 446.063C30.1834 446.109 30.1657 446.16 30.1561 446.212C30.1536 446.246 30.1536 446.282 30.1561 446.316C30.1586 446.354 30.1586 446.392 30.1561 446.43C30.1561 446.43 30.1561 446.474 30.1561 446.491C30.1546 446.521 30.1546 446.55 30.1561 446.579C27.9173 453.437 25.7571 460.293 23.6757 467.145C23.6982 467.361 23.6982 467.578 23.6757 467.793C23.6394 468.151 23.5417 468.5 23.3871 468.825C22.3202 474.074 20.8509 479.156 19.8889 484.396C18.8742 489.563 18.237 494.796 17.9824 500.055C17.9824 500.257 17.9824 500.458 17.9824 500.65C18.6096 503.172 19.7494 505.538 21.3308 507.6C22.9121 509.662 24.9012 511.376 27.1739 512.635C31.0481 514.866 35.6133 515.539 40.0122 515.863C49.2299 516.738 58.1678 513.422 66.0562 508.865C73.6166 504.547 80.75 499.52 87.3601 493.853C90.6134 491.027 93.788 488.114 96.9801 485.262H97.0326C97.4174 484.913 97.8197 484.571 98.222 484.23L98.3182 484.151C107.746 476.121 117.742 468.773 127.441 461.092C137.577 453.14 148.036 445.608 157.892 437.324C164.451 431.97 170.865 426.429 177.132 420.702C184.26 414.316 190.985 407.493 198.462 401.518C198.907 401.516 199.343 401.392 199.722 401.159C200.36 401.29 201.006 401.386 201.655 401.448C203.579 401.597 205.511 401.501 207.444 401.597C209.954 401.859 212.464 402.104 214.956 402.533C215.551 402.673 216.155 402.822 216.705 403.014C217.256 403.206 217.676 403.39 218.14 403.609C218.442 403.769 218.734 403.947 219.014 404.142C219.705 404.606 220.344 405.14 220.991 405.647C222.031 406.478 223.212 407.047 224.2 407.939C224.55 408.254 224.917 408.551 225.294 408.814C226.448 409.767 228.153 410.668 229.57 409.689C230.341 409.186 230.906 408.422 231.162 407.537C232.561 409.724 234.809 409.199 236.531 407.72C237.301 407.152 237.974 406.461 238.762 405.927C240.205 405.096 241.446 403.985 242.811 403.014C243.093 402.825 243.385 402.65 243.685 402.489C244.149 402.279 244.63 402.069 245.111 401.885C245.592 401.702 246.3 401.544 246.904 401.404C249.396 401.002 251.906 400.731 254.416 400.468C256.987 400.337 259.602 400.582 262.129 400.031C262.512 400.264 262.95 400.391 263.397 400.398C270.884 406.373 277.6 413.188 284.719 419.591C290.981 425.283 297.394 430.824 303.959 436.213C317.278 447.218 331.323 457.321 344.809 468.09C351.132 472.972 357.481 477.827 363.542 483.023C363.569 483.045 363.593 483.072 363.612 483.102L364.801 484.117H364.854C368.081 486.968 371.255 489.873 374.474 492.707C381.085 498.374 388.221 503.398 395.786 507.71C403.657 512.25 412.612 515.53 421.83 514.708C426.203 514.367 430.786 513.702 434.669 511.471C436.935 510.211 438.918 508.498 440.496 506.44C442.074 504.381 443.213 502.021 443.842 499.504C443.982 499.434 443.974 499.268 443.965 499.093ZM267.56 367.418C267.453 368.893 267.222 370.356 266.869 371.792C266.865 371.802 266.862 371.812 266.862 371.823C266.862 371.834 266.865 371.844 266.869 371.854C266.703 372.728 266.581 373.603 266.353 374.478C266.283 374.758 266.196 375.047 266.1 375.353C265.925 375.913 265.759 376.464 265.566 377.006C265.479 377.216 265.391 377.435 265.295 377.627C265.248 377.731 265.193 377.831 265.129 377.925C265.129 377.925 265.068 378.065 265.033 378.143C264.91 378.362 264.779 378.581 264.639 378.791C264.237 379.351 263.835 379.902 263.389 380.427C262.981 380.878 262.546 381.305 262.086 381.704C261.319 382.349 260.519 382.953 259.689 383.515C258.731 384.152 257.738 384.736 256.716 385.264C256.427 385.396 256.139 385.518 255.841 385.632C252.194 386.464 248.806 388.179 245.977 390.627C243.14 390.958 240.382 391.778 237.826 393.05C234.328 394.896 231.914 398.902 230.829 402.577C229.518 399.226 227.471 395.867 224.192 394.109C222.04 393.064 219.752 392.325 217.396 391.913C216.942 391.825 216.478 391.782 216.023 391.729C213.215 389.249 209.834 387.509 206.185 386.664C204.834 386.091 203.542 385.388 202.328 384.564C201.506 384.005 200.701 383.383 199.94 382.754C199.48 382.347 199.042 381.914 198.629 381.459C198.191 380.952 197.754 380.383 197.387 379.832L196.984 379.184C196.956 379.113 196.924 379.043 196.888 378.974C196.827 378.883 196.775 378.787 196.731 378.686C196.635 378.476 196.547 378.266 196.46 378.056C196.18 377.234 195.9 376.385 195.664 375.545C195.428 374.705 195.314 373.796 195.148 372.921C195.148 372.921 195.148 372.921 195.148 372.877C194.703 371.057 194.448 369.195 194.387 367.322C194.766 366.625 195.19 365.953 195.655 365.31C196.702 363.965 197.817 362.675 198.996 361.444C200.273 360.14 201.873 359.178 203.08 357.804C203.955 357.997 204.829 358.268 205.704 358.434C207.997 359.127 210.368 359.533 212.761 359.641H212.709C213.337 359.699 213.962 359.793 214.58 359.921H214.677H214.572L215 360.044L215.123 360.105L215.236 360.166L215.306 360.219C215.98 360.962 216.662 361.697 217.405 362.371L217.326 362.301C217.975 362.929 218.665 363.513 219.39 364.05C220.37 365.013 221.571 365.719 222.889 366.106C224.845 366.813 226.99 366.791 228.932 366.045C229.977 365.767 230.92 365.197 231.651 364.4C233.034 365.098 234.548 365.497 236.094 365.573C237.626 365.506 239.13 365.137 240.519 364.488C242.791 363.004 244.851 361.217 246.641 359.178L246.711 359.125L246.825 359.055L246.956 359.003L247.376 358.88H247.271H247.376C247.987 358.748 248.607 358.655 249.23 358.6H249.186C251.577 358.493 253.945 358.087 256.235 357.393C256.987 357.236 257.73 357.052 258.474 356.851L258.876 356.763C259.06 356.973 259.261 357.175 259.462 357.376C260.573 358.443 261.885 359.3 262.96 360.403C264.139 361.631 265.254 362.918 266.301 364.26C266.763 364.9 267.184 365.569 267.56 366.264C267.604 366.596 267.587 366.99 267.56 367.418Z" fill="#EBAF9B"/>
<path id="Vector_7" d="M74.4079 446.229C74.2458 446.123 74.1285 445.961 74.0784 445.773C74.0284 445.586 74.0492 445.387 74.1368 445.214C74.1339 445.24 74.1339 445.267 74.1368 445.293C74.679 444.147 75.9996 443.622 77.014 442.957L77.4601 442.704L77.8973 442.459L77.8011 442.511C81.4567 440.517 84.6838 437.875 88.4006 435.985L88.3044 436.038C88.405 435.984 88.5015 435.922 88.593 435.854L88.6892 435.775C88.9405 435.503 89.2362 435.275 89.5638 435.102C89.7523 435.016 89.9664 435.005 90.1623 435.072C90.3583 435.139 90.5215 435.278 90.6185 435.461C90.7155 435.644 90.7391 435.857 90.6845 436.057C90.6299 436.257 90.5012 436.428 90.3246 436.536L90.1322 436.659L90.071 436.711C89.2737 437.379 88.3915 437.938 87.4474 438.373L87.5348 438.321C84.4127 440.167 81.518 442.389 78.3084 444.103L78.4046 444.051L78.2297 444.156L78.3171 444.103L77.8361 444.374C77.3026 444.681 76.7867 445.004 76.2882 445.354C76.1133 445.494 75.9384 445.625 75.7722 445.783V445.827C75.7436 445.89 75.7115 445.951 75.676 446.01C75.6166 446.119 75.5334 446.212 75.4328 446.284C75.3321 446.356 75.2166 446.405 75.0947 446.426C74.9728 446.447 74.8477 446.44 74.7288 446.406C74.6099 446.372 74.5002 446.311 74.4079 446.229Z" fill="#DE7B4B"/>
<path id="Vector_8" d="M387.6 445.162C387.763 445.054 387.881 444.89 387.931 444.702C387.981 444.513 387.96 444.312 387.871 444.138C387.889 444.166 387.904 444.195 387.915 444.226C387.373 443.08 386.052 442.546 385.038 441.881L384.592 441.628L384.155 441.383L384.251 441.426C380.595 439.441 377.368 436.79 373.651 434.909L373.748 434.962C373.647 434.908 373.55 434.846 373.459 434.778C373.423 434.753 373.39 434.724 373.363 434.69C373.111 434.421 372.815 434.196 372.488 434.026C372.395 433.976 372.292 433.945 372.186 433.934C372.081 433.924 371.974 433.934 371.873 433.965C371.771 433.996 371.677 434.047 371.595 434.114C371.513 434.181 371.445 434.264 371.395 434.358C371.345 434.452 371.314 434.554 371.304 434.66C371.293 434.765 371.304 434.872 371.335 434.974C371.366 435.075 371.416 435.17 371.484 435.252C371.551 435.334 371.634 435.401 371.727 435.451L371.92 435.565L371.963 435.609L372.025 435.661C372.831 436.338 373.729 436.898 374.692 437.324L374.605 437.28C377.727 439.126 380.621 441.348 383.831 443.062L383.735 443.01L383.91 443.106H383.822L384.303 443.377H384.26C384.784 443.675 385.309 444.007 385.807 444.357C385.988 444.49 386.16 444.633 386.323 444.786V444.829C386.352 444.892 386.384 444.954 386.42 445.013C386.561 445.182 386.762 445.292 386.981 445.319C387.2 445.347 387.421 445.291 387.6 445.162Z" fill="#DE7B4B"/>
<path id="Vector_9" d="M121.826 374.583C121.622 374.551 121.438 374.443 121.31 374.281C121.182 374.119 121.119 373.914 121.135 373.708C121.406 371.652 121.835 369.623 122.115 367.585C122.779 362.108 123.864 356.685 124.738 351.235C124.725 351.118 124.736 350.999 124.769 350.886C124.803 350.773 124.859 350.668 124.934 350.578C125.009 350.487 125.102 350.413 125.206 350.359C125.311 350.305 125.425 350.272 125.543 350.264C127.012 350.36 126.05 352.678 125.98 353.588C125.56 355.687 125.228 357.804 124.904 359.921C124.362 362.791 123.934 365.678 123.575 368.573C123.304 370.366 122.946 372.151 122.701 373.953C122.657 374.147 122.544 374.318 122.383 374.434C122.222 374.55 122.024 374.603 121.826 374.583Z" fill="#A8482A"/>
<path id="Vector_10" d="M332.434 375.292C332.434 373.726 332.434 372.16 332.303 370.594C332.303 370.279 332.303 369.964 332.233 369.649C332.233 369.649 332.233 369.728 332.233 369.763C332.137 368.529 332.023 367.296 331.944 366.062V365.984C331.944 365.59 331.883 365.196 331.866 364.812V364.925C331.866 364.462 331.796 363.998 331.77 363.534C331.77 363.534 331.77 363.613 331.77 363.648C331.77 363.464 331.77 363.281 331.77 363.097V363.202C331.77 363.009 331.77 362.826 331.77 362.642C331.665 360.805 331.586 358.968 331.463 357.131C331.332 354.953 330.921 352.757 330.947 350.605C330.95 350.392 331.035 350.189 331.186 350.038C331.336 349.888 331.539 349.802 331.752 349.8C332.95 349.896 332.452 351.392 332.627 352.197C332.627 352.197 332.627 352.118 332.627 352.083C333.038 355.582 333.239 359.029 333.414 362.511C333.409 362.476 333.409 362.441 333.414 362.406C333.414 362.59 333.414 362.773 333.414 362.957C333.41 362.922 333.41 362.887 333.414 362.852C333.414 363.036 333.414 363.219 333.414 363.412V363.298C333.414 363.368 333.414 363.447 333.414 363.517C333.418 363.479 333.418 363.441 333.414 363.403L333.519 364.785L333.597 365.87V365.958C333.694 367.182 333.816 368.416 333.886 369.64L333.938 370.366V370.323C334.052 371.959 334.07 373.603 334.087 375.248C334.083 375.46 333.996 375.662 333.846 375.812C333.697 375.962 333.495 376.048 333.283 376.053C333.07 376.062 332.861 375.988 332.703 375.846C332.544 375.703 332.448 375.504 332.434 375.292Z" fill="#A8482A"/>
<path id="Vector_11" d="M354.508 405.21C354.018 403.548 356.37 403.871 357.376 403.758C360.092 403.568 362.794 403.212 365.466 402.69C374.578 400.442 383.665 398.098 392.699 395.534C397.334 394.292 402.03 393.251 406.561 391.65H406.464C407.339 391.335 408.213 391.003 409.088 390.618C409.963 390.233 411.449 388.982 412.061 390.163C412.143 390.361 412.144 390.582 412.064 390.78C411.984 390.978 411.829 391.137 411.633 391.222C409.818 392.106 407.945 392.866 406.027 393.496C401.567 394.983 396.984 396.007 392.445 397.232C387.907 398.456 383.298 399.856 378.68 400.967C374.063 402.078 369.768 403.416 365.238 404.335C362.24 404.911 359.203 405.265 356.152 405.393H355.854C355.767 405.497 355.655 405.577 355.528 405.626C355.402 405.675 355.265 405.69 355.131 405.672C354.996 405.654 354.869 405.602 354.76 405.521C354.651 405.44 354.564 405.333 354.508 405.21Z" fill="#BD5942"/>
<path id="Vector_12" d="M100.627 409.619C93.0882 408.225 85.5963 406.612 78.151 404.781C74.784 403.845 71.452 402.804 68.0675 401.947C61.5434 400.101 55.0367 398.133 48.67 395.823C48.1453 395.674 47.5331 395.587 47.2358 395.08C47.156 394.917 47.1333 394.732 47.1713 394.555C47.2094 394.378 47.3059 394.219 47.4455 394.104C47.585 393.989 47.7593 393.924 47.9403 393.92C48.1212 393.916 48.2982 393.973 48.4427 394.082C58.6399 397.739 69.0994 400.608 79.5328 403.513H79.4803C84.6576 404.729 89.8437 405.936 95.056 407.012C97.0237 407.318 98.9564 407.703 100.907 408.097C101.118 408.134 101.305 408.253 101.428 408.429C101.551 408.604 101.6 408.821 101.563 409.033C101.525 409.244 101.406 409.431 101.231 409.554C101.055 409.678 100.838 409.726 100.627 409.689V409.619Z" fill="#BD5942"/>
<path id="Vector_13" d="M226.5 279.247C219.749 278.373 214.055 273.92 209.884 268.75C205.76 263.633 202.493 257.881 200.211 251.718C198.532 247.597 196.984 243.425 195.664 239.173C194.343 234.921 193.215 230.635 191.588 226.497C191.186 225.386 190.775 224.293 190.425 223.164C190.375 223.04 190.353 222.906 190.363 222.772C190.372 222.638 190.412 222.508 190.48 222.392C190.547 222.277 190.641 222.178 190.753 222.104C190.864 222.03 190.992 221.983 191.125 221.966C191.324 221.96 191.519 222.028 191.671 222.157C191.823 222.287 191.921 222.468 191.947 222.666V222.587C191.947 222.587 191.947 222.639 191.947 222.666C192.507 224.468 193.198 226.226 193.845 228.002C196.092 234.388 197.649 241.01 200.176 247.3C202.529 253.353 204.995 259.442 208.808 264.743L208.747 264.665C210.017 266.432 211.389 268.123 212.857 269.73L212.787 269.651C213.735 270.658 214.737 271.613 215.787 272.512C216.729 273.273 217.716 273.977 218.743 274.62C219.592 275.159 220.468 275.655 221.367 276.107L221.27 276.063C222.021 276.404 222.792 276.696 223.579 276.938H223.474C224.373 277.209 225.287 277.428 226.212 277.594H226.107C226.736 277.699 227.375 277.778 228.013 277.822H227.891C228.258 277.822 228.617 277.822 228.984 277.822C229.351 277.822 229.666 277.725 230.007 277.647C230.348 277.568 230.646 277.454 230.969 277.34C231.293 277.227 231.8 276.956 232.211 276.746C232.858 276.378 233.488 275.993 234.1 275.565H234.013C234.459 275.232 234.887 274.891 235.298 274.532C235.709 274.174 236.129 273.701 236.505 273.255L236.575 273.176C236.575 273.124 236.654 273.08 236.689 273.036C236.707 273.006 236.727 272.977 236.75 272.949V273.001L236.829 272.905L236.785 272.949C238.062 271.322 239.339 269.677 240.493 267.954C241.005 267.104 241.472 266.228 241.892 265.329L241.84 265.426C243.437 261.963 244.855 258.422 246.09 254.814V254.911L246.247 254.394C246.251 254.429 246.251 254.465 246.247 254.499C248.125 248.154 249.589 241.693 250.629 235.158C250.624 235.195 250.624 235.234 250.629 235.271C250.629 235.228 250.629 235.184 250.629 235.14C250.625 235.105 250.625 235.07 250.629 235.035C250.629 234.913 250.673 234.79 250.69 234.677C251.04 232.542 251.32 230.39 251.565 228.247C251.836 225.675 252.326 223.12 252.439 220.54C252.467 220.333 252.574 220.145 252.737 220.016C252.901 219.887 253.108 219.826 253.315 219.846C253.523 219.867 253.714 219.967 253.849 220.125C253.984 220.284 254.053 220.489 254.04 220.697C253.961 222.342 253.725 223.978 253.506 225.605C253.078 228.772 252.833 231.956 252.273 235.105C252.273 235.105 252.273 235.035 252.273 235L252.194 235.446C252.199 235.411 252.199 235.376 252.194 235.341C251.084 242.1 249.518 248.775 247.507 255.322C246.077 259.566 244.365 263.711 242.382 267.726C241.047 269.924 239.547 272.018 237.896 273.99L237.966 273.911C235.263 277.314 230.969 280.087 226.5 279.247Z" fill="#BD5942"/>
<path id="Vector_14" d="M269.729 121.049V121.32C269.729 121.32 269.729 121.364 269.729 121.381C269.03 129.517 267.333 137.495 265.899 145.517C264.255 153.39 263.765 162.138 258.448 168.629C256.761 170.521 254.835 172.186 252.72 173.581C247.385 177.482 241.84 181.06 236.322 184.682C232.92 186.856 229.349 188.755 225.644 190.359C223.816 191.094 222.014 192.109 220.029 192.275C218.348 192.199 216.706 191.751 215.219 190.963C210.575 188.968 206.351 186.195 202.101 183.51C195.542 179.617 189.175 175.112 184.505 169.005C181.092 164.698 178.52 159.786 176.923 154.528C175.445 149.279 174.85 143.89 173.923 138.562C171.693 125.502 169.638 112.397 168.063 99.2403C175.829 86.0134 187.54 75.6995 196.049 63.0237C196.099 62.9578 196.143 62.8875 196.18 62.8137C196.285 62.6563 196.373 62.4988 196.477 62.3501C196.582 62.2014 196.6 62.1489 196.67 62.0526C196.67 62.0002 196.722 61.9739 196.74 61.9302C197.457 60.7929 198.06 59.6207 198.664 58.431C199.311 57.0049 199.88 55.5447 200.369 54.057C200.367 54.0308 200.367 54.0044 200.369 53.9783C200.406 53.8876 200.435 53.7939 200.457 53.6983V53.6546C200.46 53.6343 200.46 53.6137 200.457 53.5933C200.457 53.4971 200.509 53.4184 200.535 53.3397C200.564 53.2627 200.588 53.1837 200.605 53.1035C200.605 53.0597 200.605 53.0247 200.605 52.981C200.605 52.9372 200.605 52.9372 200.605 52.911C201.148 51.1177 201.567 49.2631 201.935 47.4085C202.233 45.7531 202.406 44.0774 202.451 42.3959C202.451 40.7251 202.451 39.028 202.354 37.3483V37.1296C201.82 33.8776 201.473 30.5975 201.314 27.3057C202.167 26.9285 203.043 26.607 203.937 26.3434C205.302 37.2871 207.243 48.4233 212.377 58.291C213.217 59.8363 214.136 61.3371 215.132 62.7875C216.396 64.5135 217.756 66.1666 219.207 67.7388C221.05 69.6497 222.994 71.4602 225.031 73.1626C233.051 79.5574 241.648 85.1823 249.973 91.1747C255.492 95.155 260.52 100.063 263.713 106.142C263.852 106.396 263.984 106.65 264.132 106.912C264.132 106.912 264.132 106.991 264.194 107.035C265.803 110.162 267.14 113.423 268.19 116.78C268.785 118.101 269.283 119.571 269.729 121.049Z" fill="#EBAF9B"/>
<path id="Vector_15" d="M220.177 190.525C220.099 190.175 220.163 189.808 220.354 189.505C220.546 189.201 220.85 188.986 221.2 188.907C221.442 188.864 221.682 188.809 221.918 188.741H221.821L222.058 188.68H221.874H222.005C224.974 187.776 227.893 186.716 230.75 185.504H230.707C233.012 184.379 235.26 183.138 237.441 181.786C240.486 179.966 243.428 177.98 246.256 175.838L246.116 175.951L246.23 175.864C246.344 175.785 246.449 175.698 246.554 175.61L246.414 175.724C248.579 174.052 250.624 172.231 252.535 170.274V170.318L252.64 170.204C253.744 169.096 254.787 167.928 255.762 166.705C256.338 165.925 256.863 165.11 257.337 164.264C257.809 163.389 258.211 162.453 258.614 161.535C259.418 159.05 260.441 156.636 261.106 154.108V154.195C261.106 154.09 261.158 153.976 261.193 153.871V153.959C261.403 153.084 261.648 152.209 261.823 151.256C261.803 151.15 261.806 151.04 261.832 150.936C261.859 150.831 261.908 150.733 261.976 150.65C262.045 150.566 262.131 150.499 262.228 150.452C262.326 150.406 262.432 150.382 262.54 150.381C262.656 150.387 262.768 150.421 262.868 150.481C262.967 150.541 263.049 150.624 263.108 150.724C263.167 150.824 263.201 150.936 263.205 151.052C263.21 151.168 263.186 151.283 263.135 151.387C262.715 153.434 262.173 155.464 261.744 157.511C261.08 160.502 260.459 163.538 258.823 166.18C257.228 168.9 255.262 171.385 252.981 173.563C249.922 176.719 246.489 179.489 242.758 181.813C239.26 184.122 235.814 186.615 231.896 188.181C229.561 189.161 227.217 190.114 224.839 190.989C223.81 191.386 222.714 191.582 221.611 191.567C221.287 191.596 220.963 191.507 220.699 191.315C220.435 191.124 220.25 190.843 220.177 190.525Z" fill="#EBAF9B"/>
<path id="Vector_16" d="M215.018 143.995C214.058 143.921 213.124 143.65 212.273 143.198C211.423 142.747 210.675 142.125 210.076 141.371C209.598 140.63 209.34 139.768 209.333 138.886C209.336 138.374 209.443 137.868 209.648 137.399V137.46C210.304 135.711 211.056 133.961 211.668 132.211V132.343C213.321 127.33 214.991 122.23 215.367 116.92V116.99C215.464 116.045 215.411 115.092 215.586 114.164C215.582 114.113 215.593 114.061 215.616 114.015C215.639 113.969 215.674 113.93 215.717 113.902C215.751 113.886 215.788 113.877 215.825 113.875C215.862 113.874 215.9 113.879 215.935 113.892C215.97 113.906 216.002 113.925 216.029 113.951C216.056 113.977 216.078 114.008 216.093 114.042C216.415 114.914 216.537 115.846 216.452 116.771C216.368 120.49 215.914 124.191 215.096 127.82C214.505 130.859 213.626 133.835 212.473 136.708C212.087 137.829 211.523 138.881 210.802 139.822V139.77C210.774 139.804 210.75 139.843 210.732 139.883L210.671 140.015V139.971V140.015C210.671 140.015 210.671 140.085 210.671 140.128C210.675 140.166 210.675 140.204 210.671 140.242C210.667 140.294 210.667 140.347 210.671 140.4C210.676 140.42 210.676 140.441 210.671 140.461V140.531V140.601L210.776 140.732C210.839 140.801 210.906 140.865 210.977 140.924H210.933L211.275 141.204C211.467 141.336 211.668 141.458 211.869 141.572C212.07 141.686 212.508 141.869 212.84 142H212.796H212.866C213.412 142.171 213.967 142.311 214.528 142.42H214.414L215.604 142.674H215.507C215.761 142.727 216.015 142.761 216.259 142.823C216.396 142.861 216.517 142.944 216.602 143.058C216.688 143.171 216.733 143.31 216.732 143.453C216.732 144.012 216.128 144.161 215.665 144.126L215.018 143.995Z" fill="#8C5F4E"/>
<path id="Vector_17" d="M222.433 143.54C222.145 142.193 226.028 141.257 227.06 141.056H227.016H227.103H227.2C227.334 141.011 227.465 140.958 227.593 140.898H227.637L227.716 140.837C227.785 140.767 227.855 140.706 227.917 140.636L227.873 140.688L228.179 140.321C228.23 140.263 228.298 140.221 228.373 140.202C228.448 140.183 228.527 140.187 228.599 140.214C228.672 140.24 228.735 140.288 228.78 140.351C228.825 140.413 228.851 140.488 228.852 140.566C228.821 140.96 228.75 141.349 228.643 141.729C228.231 143.855 225.818 144.187 224.007 144.047C223.518 143.934 222.643 144.196 222.433 143.54Z" fill="#8C5F4E"/>
<path id="Vector_18" d="M210.82 159.794C210.147 159.712 209.48 159.58 208.826 159.4C207.935 159.162 207.059 158.87 206.203 158.525L206.316 158.587L206.063 158.455L206.185 158.517C205.739 158.28 205.311 158.018 204.856 157.773L204.681 157.677C204.042 157.327 203.422 156.951 202.809 156.557C202.804 156.528 202.804 156.499 202.809 156.47C202.832 156.409 202.871 156.356 202.922 156.316C202.973 156.276 203.034 156.251 203.098 156.242C203.177 156.242 203.273 156.242 203.36 156.242C203.444 156.244 203.524 156.278 203.584 156.336C203.644 156.395 203.68 156.473 203.684 156.557L203.946 156.715C204.57 157.017 205.209 157.286 205.861 157.519C205.929 157.551 206 157.577 206.071 157.598C206.776 157.87 207.51 158.061 208.258 158.167H208.791C210.234 158.001 211.695 157.852 213.164 157.633C213.461 157.572 213.759 157.493 214.038 157.406C215.788 156.881 217.362 155.98 219.102 155.507C222.119 154.86 225.416 154.554 228.381 155.577L228.224 155.516C228.923 155.761 229.605 156.041 230.288 156.312H230.349C231.354 156.706 232.509 156.653 233.436 157.283L233.585 157.353H233.742H233.864H234.136L234.337 157.301L234.608 157.196C234.907 157.048 235.225 156.942 235.552 156.881L235.806 156.758C236.173 156.575 236.532 156.4 236.89 156.207H237.922C237.231 156.618 236.497 156.968 235.771 157.309C235.197 157.753 234.514 158.034 233.794 158.123C232.045 159.12 230.043 158.438 228.232 157.966C227.402 157.834 226.588 157.651 225.775 157.449C224.804 157.274 223.851 157.056 222.871 156.977H222.933C222.137 156.977 221.35 156.881 220.545 156.907L220.09 156.968C219.333 157.133 218.597 157.382 217.895 157.712L217.65 157.843C216.776 158.079 215.945 158.595 215.027 158.91L215.149 158.867C214.862 158.967 214.57 159.051 214.275 159.12H214.327H214.24C213.689 159.216 213.155 159.348 212.613 159.47C212.13 159.558 211.642 159.619 211.152 159.654C211.044 159.706 210.933 159.753 210.82 159.794Z" fill="#8C5F4E"/>
<path id="Vector_19" d="M226.378 153.95C225.32 153.731 224.253 153.557 223.168 153.434C223.174 153.345 223.152 153.257 223.107 153.18H223.221C223.535 153.206 223.847 153.25 224.157 153.312C224.908 153.484 225.65 153.698 226.378 153.95Z" fill="#BF6450"/>
<path id="Vector_20" d="M212.543 158.385C212.503 158.359 212.468 158.324 212.443 158.284C212.417 158.243 212.4 158.197 212.394 158.149C212.018 155.464 219.662 153.355 221.778 153.233C222.302 153.198 222.828 153.198 223.352 153.233C224.149 153.205 224.947 153.234 225.74 153.32C226.431 153.373 227.34 153.592 227.323 154.449C227.293 154.754 227.153 155.038 226.93 155.247C226.706 155.456 226.413 155.577 226.107 155.586C224.699 155.752 223.309 155.534 221.909 155.586H222.058C221.664 155.586 221.262 155.647 220.869 155.717L220.554 155.779H220.702C219.448 156.034 218.207 156.356 216.986 156.741C215.814 157.131 214.669 157.596 213.557 158.132H213.645C213.395 158.263 213.131 158.366 212.858 158.438C212.806 158.459 212.749 158.465 212.693 158.456C212.637 158.447 212.586 158.422 212.543 158.385Z" fill="#8C5F4E"/>
<path id="Vector_21" d="M207.182 158.893C206.844 158.79 206.514 158.664 206.194 158.517C205.748 158.272 205.319 158.009 204.856 157.764H204.803L204.707 157.721L204.471 157.589C204.663 157.292 205.074 157.432 205.345 157.432H205.267C205.77 157.462 206.276 157.462 206.78 157.432C207.042 157.432 207.295 157.371 207.558 157.327C207.926 157.246 208.282 157.116 208.616 156.942C208.767 156.867 208.913 156.783 209.053 156.688C210.278 155.875 211.432 154.939 212.604 154.064C214.012 153.049 215.56 151.851 217.379 151.903C219.497 151.855 221.608 152.177 223.615 152.857C223.748 152.928 223.871 153.016 223.982 153.119C224.068 153.119 224.15 153.153 224.211 153.214C224.271 153.275 224.305 153.357 224.305 153.443C224.305 153.529 224.271 153.611 224.211 153.672C224.15 153.732 224.068 153.766 223.982 153.766L223.859 153.863C222.714 154.466 221.358 153.67 220.134 153.723C219.717 153.701 219.3 153.701 218.883 153.723C218.332 153.766 217.781 153.81 217.239 153.889H217.362L217.02 153.976L217.143 153.933C216.802 154.046 216.478 154.186 216.146 154.335C215.814 154.484 215.481 154.703 215.158 154.904C213.493 156.229 211.74 157.439 209.91 158.525L210.015 158.464C209.127 158.859 208.148 159.008 207.182 158.893Z" fill="#8C5F4E"/>
<path id="Vector_22" d="M220.02 168.017C218.535 167.798 217.089 167.368 215.726 166.74C215.206 166.575 214.707 166.349 214.239 166.066C214.157 166.003 214.085 165.926 214.03 165.839C213.986 165.793 213.959 165.735 213.951 165.672C213.937 165.623 213.937 165.572 213.95 165.523C213.964 165.473 213.991 165.429 214.027 165.394C214.064 165.359 214.11 165.334 214.16 165.323C214.209 165.312 214.261 165.315 214.309 165.331C215.144 165.272 215.983 165.304 216.811 165.428C218.884 165.407 220.948 165.702 222.932 166.302C223.134 166.302 223.335 166.364 223.545 166.381C223.836 166.399 224.128 166.399 224.419 166.381C224.986 166.346 225.549 166.276 226.107 166.171C227.026 165.974 227.934 165.729 228.827 165.436L229.763 165.051C230.078 164.973 230.637 164.422 230.891 164.763C230.908 164.791 230.92 164.823 230.925 164.856C230.93 164.89 230.928 164.923 230.92 164.956C230.912 164.988 230.897 165.019 230.877 165.046C230.857 165.073 230.832 165.096 230.803 165.113C230.427 165.288 230.06 165.471 229.701 165.655C228.035 166.632 226.213 167.313 224.314 167.667C222.854 167.798 221.42 168.341 220.02 168.017Z" fill="#8C5F4E"/>
<path id="Vector_23" d="M232.368 158.639C231.94 158.578 231.494 158.254 231.634 157.764V157.677C231.634 157.677 231.634 157.677 231.634 157.729C231.861 157.082 232.587 157.012 233.12 156.732C234.313 156.146 235.622 155.832 236.951 155.813L237.432 155.752C237.621 155.73 237.811 155.73 238 155.752H238.07C238.133 155.729 238.201 155.729 238.264 155.75C238.327 155.772 238.38 155.815 238.415 155.871C238.45 155.928 238.465 155.995 238.456 156.061C238.447 156.127 238.416 156.188 238.368 156.233L238.315 156.303C238.081 156.633 237.784 156.912 237.441 157.126L237.283 157.266L237.336 157.222C236.969 157.638 236.502 157.954 235.98 158.14L235.84 158.193C234.915 158.468 233.954 158.601 232.989 158.587C232.784 158.625 232.576 158.642 232.368 158.639Z" fill="#8C5F4E"/>
<path id="Vector_24" d="M241.28 154.554C240.922 154.073 241.438 153.565 241.674 153.163C241.91 152.76 242.207 152.341 242.706 152.288C242.87 152.28 243.032 152.319 243.175 152.4C243.318 152.48 243.436 152.6 243.514 152.744C243.593 152.888 243.629 153.051 243.619 153.215C243.609 153.379 243.553 153.537 243.458 153.67C243.152 154.274 241.884 155.21 241.28 154.554Z" fill="#8C5F4E"/>
<path id="Vector_25" d="M199.031 154.379C198.267 154.283 197.545 153.98 196.94 153.504C196.842 153.38 196.778 153.232 196.757 153.075C196.743 152.939 196.766 152.801 196.823 152.677C196.88 152.552 196.97 152.445 197.082 152.367C197.194 152.288 197.325 152.241 197.462 152.231C197.599 152.22 197.736 152.246 197.859 152.306C198.484 152.668 199.022 153.163 199.433 153.758C199.488 153.821 199.521 153.9 199.527 153.983C199.533 154.067 199.511 154.15 199.466 154.22C199.42 154.29 199.353 154.344 199.275 154.372C199.196 154.401 199.111 154.403 199.031 154.379Z" fill="#8C5F4E"/>
<path id="Vector_26" d="M202.039 95.6361C202.126 95.2162 202.223 94.8051 202.327 94.3939C202.172 94.3008 202.011 94.2161 201.846 94.1402C201.777 94.4552 201.707 94.8051 201.628 95.12L201.514 95.6186C201.435 95.8898 201.365 96.2048 201.287 96.4934L201.243 96.6771L201.199 96.8609L200.902 98.1993V98.3218V98.4267V98.5317C200.902 98.3743 200.902 98.208 200.902 98.0593V97.9019C200.902 97.7357 200.902 97.5519 200.902 97.377V97.2808V97.167V96.9571V96.8434V96.6247V96.5109C200.902 96.4497 200.902 96.336 200.902 96.2835V96.1698L200.954 95.6011C200.954 95.4962 200.954 95.3387 201.007 95.2337C201.059 95.1288 201.007 94.9538 201.068 94.8401V94.7001V94.5689V94.4377C201.068 94.2802 201.129 94.0877 201.147 93.9303C200.185 93.5541 199.135 93.3442 198.147 93.0555C196.722 92.6443 195.349 92.0932 193.897 91.7783C187.915 90.4398 181.653 89.5388 175.531 90.7723C174.01 92.7318 172.505 94.7001 171.062 96.7121C171.412 96.6159 171.771 96.5197 172.129 96.4409C172.852 96.303 173.582 96.2096 174.316 96.161C174.823 96.161 175.322 96.161 175.829 96.161C177.683 96.3272 179.528 96.6859 181.356 97.0358C183.184 97.3857 185.029 97.9106 186.883 98.3043H187.058H186.988H187.198H187.364L187.661 98.3655H187.828L188.151 98.4267H188.02C189.201 98.6717 190.372 98.8904 191.518 99.1266C193.556 99.564 195.489 100.316 197.526 100.745H197.483C197.762 100.806 198.051 100.876 198.357 100.955L198.611 101.095C199.236 101.399 199.928 101.538 200.622 101.497C200.626 101.427 200.626 101.357 200.622 101.287C200.919 99.6515 201.226 98.0243 201.567 96.406L202.039 95.6361Z" fill="#FFC995"/>
<path id="Vector_27" d="M187.854 114.602C189.875 114.532 190.994 112.852 191.545 111.103C191.534 111.145 191.52 111.186 191.501 111.225C191.918 110.065 192.012 108.813 191.772 107.603C191.702 107.245 191.606 106.729 191.23 106.58C190.434 106.335 190.557 108.12 190.356 108.618V108.513C190.282 108.919 190.183 109.319 190.058 109.712C190.036 109.78 190.01 109.847 189.98 109.913C189.717 110.411 189.472 110.928 189.175 111.4C189.024 111.617 188.861 111.824 188.685 112.021L188.624 112.1L188.685 112.021L188.545 112.161L188.283 112.371L188.134 112.459C188.033 112.51 187.927 112.554 187.819 112.59L187.583 112.66H187.382H187.181H186.997L186.796 112.607L186.648 112.546L186.411 112.406C186.219 112.266 186.027 112.117 185.843 111.96L185.939 112.03C185.863 111.97 185.793 111.902 185.729 111.829L185.624 111.697V111.645C185.559 111.552 185.503 111.452 185.458 111.348C185.327 111.09 185.213 110.824 185.117 110.551C185.028 110.293 184.952 110.03 184.89 109.764C184.89 109.537 184.82 109.3 184.802 109.064C184.798 109.021 184.798 108.977 184.802 108.933C184.798 108.872 184.798 108.811 184.802 108.749C184.798 108.348 184.711 107.953 184.549 107.586C184.485 107.463 184.386 107.363 184.264 107.299C184.142 107.235 184.003 107.21 183.867 107.227C183.184 107.367 182.992 108.207 182.992 108.811C182.782 111.627 184.881 114.759 187.854 114.602Z" fill="#CA907C"/>
<path id="Vector_28" d="M236.837 95.6361C236.75 95.2162 236.654 94.8051 236.549 94.3939C236.703 94.299 236.864 94.2142 237.03 94.1402C237.1 94.4552 237.17 94.8051 237.24 95.12L237.362 95.6186L237.581 96.4934V96.6771L237.633 96.8609L237.931 98.1993V98.3218V98.4267V98.5317C237.931 98.3743 237.931 98.208 237.931 98.0593V97.9019C237.931 97.7357 237.931 97.5519 237.878 97.377V97.167V96.9571V96.8434V96.6247V96.5109C237.878 96.4497 237.878 96.336 237.878 96.2835V96.1698C237.878 95.9861 237.878 95.7849 237.817 95.6011C237.756 95.4174 237.817 95.3387 237.817 95.2337C237.817 95.1288 237.773 94.9538 237.756 94.8401V94.7001V94.5689V94.4377C237.756 94.2802 237.703 94.0877 237.677 93.9303C238.639 93.5541 239.68 93.3442 240.677 93.0555C242.102 92.6443 243.475 92.0932 244.927 91.7783C250.9 90.4398 257.171 89.5388 263.292 90.7723C264.805 92.7318 266.318 94.7001 267.753 96.7121C267.403 96.6159 267.053 96.5197 266.694 96.4409C265.972 96.3041 265.242 96.2107 264.508 96.161C264.001 96.161 263.502 96.161 262.995 96.161C261.141 96.3272 259.296 96.6859 257.459 97.0358C255.623 97.3857 253.795 97.9106 251.932 98.3043H251.757H251.827H251.617H251.442L251.136 98.3655H250.979L250.664 98.4267H250.786C249.615 98.6717 248.443 98.8904 247.288 99.1266C245.259 99.564 243.327 100.316 241.289 100.745C241 100.806 240.72 100.876 240.414 100.955L240.161 101.095C239.536 101.401 238.843 101.54 238.149 101.497C238.153 101.427 238.153 101.357 238.149 101.287C237.858 99.6485 237.543 98.0214 237.205 96.406L236.837 95.6361Z" fill="#FFC995"/>
<path id="Vector_29" d="M238.464 101.034C238.542 101.013 238.613 100.971 238.668 100.912C238.724 100.853 238.762 100.78 238.779 100.701C238.805 100.568 238.805 100.432 238.779 100.299C238.411 98.9166 238.07 97.5257 237.755 96.126C237.67 95.4861 237.511 94.858 237.283 94.2539C237.238 94.1821 237.172 94.1254 237.094 94.0911C237.016 94.0568 236.93 94.0465 236.846 94.0615C236.347 94.219 236.54 94.7963 236.619 95.1725C236.863 96.2485 237.056 97.3332 237.371 98.3917C237.371 98.3917 237.371 98.3917 237.371 98.3393L237.581 98.9954C237.742 99.4854 237.874 99.985 237.974 100.491C237.97 100.474 237.97 100.456 237.974 100.439C237.983 100.578 238.025 100.713 238.097 100.832C238.136 100.894 238.19 100.945 238.255 100.98C238.319 101.015 238.391 101.034 238.464 101.034Z" fill="#FFC995"/>
<path id="Vector_30" d="M198.016 107.866C196.325 106.773 194.496 105.911 192.576 105.303C190.479 104.799 188.309 104.668 186.166 104.918C183.401 105.391 180.68 106.096 178.033 107.026C176.983 107.472 174.919 107.787 175.252 109.318C175.329 109.599 175.506 109.842 175.748 110.002C175.991 110.163 176.284 110.231 176.572 110.193C178.925 109.738 181.225 109.021 183.569 108.443C183.563 109.028 183.601 109.613 183.682 110.193C183.694 110.768 183.835 111.333 184.093 111.846C184.647 112.539 185.315 113.131 186.07 113.596C186.39 113.845 186.777 113.994 187.181 114.023C187.586 114.053 187.99 113.962 188.344 113.762C189.247 113.566 190.057 113.065 190.636 112.344C191.216 111.623 191.53 110.724 191.527 109.799C191.644 109.127 191.611 108.437 191.431 107.778L192.148 107.901C193.538 108.224 194.938 108.478 196.284 108.933C197.22 109.239 198.095 109.694 199.022 110.035C199.249 110.105 199.599 110.158 199.713 109.869C199.826 109.58 199.485 109.126 199.249 108.872C198.88 108.488 198.466 108.15 198.016 107.866Z" fill="#45526C"/>
<path id="Vector_31" d="M260.844 107.026C258.196 106.098 255.476 105.392 252.71 104.918C250.568 104.668 248.398 104.799 246.3 105.303C244.379 105.912 242.547 106.774 240.852 107.866C240.412 108.127 240.004 108.438 239.636 108.793C239.4 109.047 239.024 109.405 239.172 109.79C239.321 110.175 239.636 110.027 239.863 109.957C240.782 109.615 241.656 109.161 242.601 108.854C243.947 108.399 245.355 108.146 246.737 107.822L247.078 107.77C246.878 108.916 246.981 110.095 247.376 111.19C247.376 111.19 247.376 111.111 247.376 111.068C247.927 112.817 249.046 114.488 251.066 114.567C254.04 114.768 256.13 111.636 255.964 108.881C255.964 108.784 255.964 108.679 255.964 108.566C258.098 109.134 260.214 109.782 262.383 110.193C262.671 110.229 262.963 110.161 263.205 110C263.447 109.84 263.624 109.598 263.703 109.318C263.957 107.787 261.884 107.472 260.844 107.026Z" fill="#45526C"/>
<path id="Vector_32" d="M248.486 108.478C248.486 108.478 248.486 108.531 248.486 108.557C248.486 108.557 248.495 108.478 248.486 108.478Z" fill="#995232"/>
<path id="Vector_33" d="M208.038 22.8879C206.849 17.5867 199.721 19.3887 197.115 22.2843C194.667 24.8387 193.617 28.5216 192.883 31.9071C190.591 43.0695 190.819 54.5731 189.428 65.8405C188.116 76.513 178.059 83.8701 171.99 92.1632C165.588 100.911 160.419 110.534 157.577 121.093C155.968 127.05 152.933 137.513 154.271 143.838C155.356 148.938 157.857 145.018 158.417 142.088C159.029 138.982 158.557 135.781 158.985 132.658C160.472 121.889 164.888 111.269 170.354 101.961C180.805 84.2025 200.753 70.0395 205.913 49.5255C207.18 44.629 207.921 39.6114 208.126 34.5577C208.213 32.0471 208.948 26.3259 208.038 22.8879Z" fill="#FBD69E"/>
<path id="Vector_34" d="M272.843 94.9276C271.692 90.208 269.828 85.6916 267.316 81.5344C262.068 73.4163 253.174 68.2987 244.228 65.1232C239.4 63.4961 234.284 62.9887 229.474 61.3353C227.064 60.4385 224.738 59.332 222.521 58.0286C220.358 56.9417 218.307 55.6436 216.4 54.1532C214.607 52.4412 213.104 50.45 211.948 48.2571L205.704 37.9082C205.612 37.7609 205.467 37.6551 205.298 37.6136C205.13 37.5721 204.952 37.598 204.802 37.686C204.653 37.7739 204.544 37.9168 204.498 38.0841C204.452 38.2515 204.474 38.4301 204.558 38.5818C205.596 40.2964 206.634 42.0168 207.672 43.7431C207.601 43.8213 207.551 43.916 207.527 44.0183C207.503 44.1207 207.504 44.2276 207.532 44.3292C208.464 48.8427 209.798 53.2636 211.52 57.5387C215.079 65.5256 221.236 71.9641 227.148 78.2539C228.686 79.8735 230.379 81.3385 232.203 82.6279C235.771 85.1298 239.802 86.8532 243.572 89.0664C249.396 92.4956 254.294 97.2195 259.156 101.865C262.357 104.743 265.085 108.146 266.152 112.362C267.386 116.553 267.604 120.97 267.963 125.301C268.377 130.176 268.785 135.049 269.187 139.918C269.537 144.135 269.756 148.509 271.347 152.472C271.726 153.439 272.191 154.37 272.738 155.254C272.815 155.375 272.928 155.469 273.062 155.521C273.195 155.573 273.342 155.581 273.481 155.544C273.619 155.507 273.743 155.427 273.832 155.314C273.922 155.202 273.974 155.065 273.98 154.921C274.076 134.993 277.985 114.602 272.843 94.9276Z" fill="#FBD69E"/>
<path id="Vector_35" d="M184.741 28.6791C176.582 30.7436 167.25 33.683 163.35 41.9061C163.21 42.1618 163.174 42.4614 163.249 42.743C163.324 43.0247 163.504 43.2668 163.752 43.4195C164.005 43.5654 164.305 43.605 164.587 43.5295C164.87 43.4541 165.11 43.2698 165.256 43.017C168.894 35.3101 177.701 32.7644 185.371 30.7699C185.601 30.6506 185.782 30.4547 185.882 30.2161C185.983 29.9776 185.997 29.7113 185.923 29.4633C185.848 29.2154 185.689 29.0013 185.473 28.8581C185.258 28.7149 184.999 28.6516 184.741 28.6791Z" fill="#E0B4A5"/>
<path id="Vector_36" d="M149.479 140.601C149.085 150.171 145.264 159.085 142.404 168.104C138.696 179.083 138.154 190.849 139.282 202.292H139.186H137.069C136.295 194.844 136.392 187.331 137.358 179.905C139.107 166.425 146.602 154.291 147.266 140.627C147.336 139.175 149.54 139.175 149.479 140.601Z" fill="#E0B4A5"/>
<path id="Vector_37" d="M165.404 201.915L163.192 201.968C162.772 196.637 162.772 191.281 163.192 185.95C163.178 185.797 163.197 185.642 163.246 185.496C163.295 185.35 163.375 185.216 163.479 185.102C163.583 184.988 163.709 184.897 163.85 184.835C163.991 184.773 164.144 184.741 164.298 184.741C164.452 184.741 164.605 184.773 164.746 184.835C164.887 184.897 165.013 184.988 165.118 185.102C165.222 185.216 165.301 185.35 165.35 185.496C165.4 185.642 165.418 185.797 165.404 185.95C164.98 191.264 164.98 196.602 165.404 201.915Z" fill="#E0B4A5"/>
<path id="Vector_38" d="M277.373 112.555C268.776 86.652 239.409 77.2829 225.888 54.923C225.486 54.2407 225.101 53.5409 224.734 52.841C224.078 51.5813 222.163 52.6923 222.828 53.9608C234.94 77.0642 263.931 85.9871 274.198 110.42C277.492 118.263 278.698 126.826 277.697 135.273C277.697 135.566 277.813 135.846 278.019 136.053C278.226 136.259 278.506 136.375 278.798 136.375C279.089 136.369 279.365 136.251 279.57 136.045C279.775 135.84 279.894 135.563 279.9 135.273C280.796 127.607 279.932 119.837 277.373 112.555Z" fill="#E0B4A5"/>
<path id="Vector_39" d="M287.684 73.0051C283.466 61.1153 275.568 50.8803 265.138 43.7869C263.948 42.9908 262.846 44.9066 264.018 45.6939C272.192 51.3063 278.774 58.9414 283.12 67.8548C287.467 76.7683 289.431 86.6561 288.821 96.5547C288.845 96.8312 288.972 97.0885 289.177 97.2759C289.382 97.4633 289.649 97.5672 289.927 97.5672C290.204 97.5672 290.472 97.4633 290.677 97.2759C290.881 97.0885 291.009 96.8312 291.033 96.5547C291.563 88.5574 290.422 80.5373 287.684 73.0051Z" fill="#E0B4A5"/>
<path id="Vector_40" d="M280.784 201.863H278.615C278.58 197.291 278.414 192.721 278.116 188.155C278.141 187.878 278.268 187.621 278.473 187.434C278.678 187.246 278.945 187.142 279.223 187.142C279.5 187.142 279.768 187.246 279.972 187.434C280.177 187.621 280.304 187.878 280.329 188.155C280.603 192.715 280.754 197.285 280.784 201.863Z" fill="#E0B4A5"/>
<path id="Vector_41" d="M303.714 200.489C302.97 200.542 302.245 200.586 301.51 200.647C300.947 186.219 297.841 172.004 292.336 158.657C292.261 158.374 292.301 158.072 292.446 157.818C292.592 157.565 292.832 157.378 293.114 157.301C293.397 157.23 293.696 157.27 293.95 157.413C294.204 157.556 294.393 157.792 294.479 158.07C300.014 171.561 303.14 185.918 303.714 200.489Z" fill="#E0B4A5"/>
<path id="Vector_42" d="M189.91 53.2697C189.628 53.1988 189.33 53.2393 189.077 53.3827C188.825 53.5261 188.638 53.7613 188.554 54.0395C185.274 62.9362 180.01 70.9493 174.369 78.5338C165.623 89.9937 154.639 103.212 157.98 118.67C158.295 120.052 160.42 119.466 160.114 118.083C157.105 103.579 167.486 91.2096 175.681 80.4671C181.68 72.524 187.233 64.0822 190.679 54.6868C190.726 54.5433 190.743 54.3918 190.729 54.2415C190.715 54.0912 190.671 53.9453 190.599 53.8127C190.527 53.6801 190.429 53.5636 190.31 53.4702C190.192 53.3768 190.055 53.3086 189.91 53.2697Z" fill="#E0B4A5"/>
</g>
</g>
</g>
</g>
</g>
</g>
<g id="Group 58">
<g id="Group 57">
<path id="Vector_43" d="M383.104 179.04C380.251 178.903 377.438 178.312 374.771 177.289L375.653 177.867C375.229 177.703 374.838 177.465 374.498 177.165C370.949 173.639 367.114 170.278 364.29 166.114C361.437 161.44 359.319 155.174 360.203 149.682C360.686 147.348 361.528 144.664 363.686 143.373C365.448 142.491 367.469 143.448 369.004 144.394C375.361 148.597 377.045 152.864 378.795 159.957C376.993 152.359 377.829 141.443 383.812 135.826C385.635 134.173 388.319 133.374 390.324 135.167C391.844 136.474 392.755 138.37 393.278 140.285C394.995 146.363 392.646 152.505 390.847 158.276C392.692 154.538 398.614 150.904 402.817 151.985C405.804 152.736 407.558 154.474 407.737 157.626C407.894 161.341 406.648 164.979 404.245 167.816C399.046 173.199 390.552 178.092 383.104 179.04ZM423.363 235.65C431.242 231.751 441.854 226.806 446.154 218.847C447.977 215.096 450.256 206.614 443.844 206.31C439.59 206.277 435.169 208.605 432.297 211.65C434.217 207.699 437.411 196.773 432.978 193.85C432.181 193.385 431.212 193.366 430.322 193.497C428.024 193.774 426.085 195.254 424.502 196.855C420.099 201.326 418.503 207.055 418.294 213.185C418.181 204.83 418.294 194.278 410.542 189.115C405.4 185.829 402.155 194.837 401.598 198.664C401.341 200.181 401.223 201.72 401.246 203.259C401.55 212.659 404.403 221.773 408.919 229.982C410.803 233.021 412.787 237.407 416.878 237.58C419.175 237.61 421.272 236.419 423.363 235.65Z" fill="#5AA897"/>
<path id="Vector_44" d="M422.217 293.932C420.546 290.09 417.388 286.917 415.228 283.295C413.334 280.375 411.488 277.405 409.691 274.384C410.721 273.752 410.858 272.05 411.049 270.916C412.69 261.723 414.611 252.566 415.368 243.26C418.795 243.075 422.421 239.899 421.141 236.498C420.16 235.455 418.525 235.334 417.218 234.875C415.231 234.337 413.213 233.93 411.189 233.55C410.396 233.276 409.366 233.441 409.147 234.386C409.278 237.303 409.633 240.813 412.219 242.442C411.517 251.891 409.524 261.176 407.871 270.491C407.837 270.67 407.798 270.865 407.758 271.068C392.917 245.278 382.186 216.291 381.87 186.486C383.059 186.289 384.196 185.855 385.213 185.209C387.602 183.574 388.86 180.511 389.188 177.724C388.917 175.578 384.681 175.837 383.028 175.633C380.7 175.533 378.376 175.426 376.039 175.247C373.65 174.97 371.76 174.779 372.562 177.921C372.31 180.587 375.437 185.027 377.911 186.033C378.14 186.134 378.375 186.22 378.616 186.291C378.774 223.922 397.356 265.701 419.85 295.202C420.871 296.016 422.488 295.533 422.217 293.932Z" fill="#45526C"/>
</g>
<path id="Vector_45" d="M433.528 122.047C428.666 124.597 422.379 121.375 418.829 117.856C419.309 118.725 419.276 119.777 419.173 120.737C419.029 121.901 418.658 123.025 418.079 124.045C417.501 125.065 416.727 125.961 415.802 126.681C411.767 130.097 405.41 129.204 402.219 125.077C400.745 123.104 400.587 120.485 401.003 118.129C401.259 116.941 401.307 115.558 402.067 114.567L402.456 112.531C401.143 113.182 399.624 112.905 398.314 112.398C395.913 111.55 394.081 109.577 392.944 107.346C391.033 103.854 390.379 99.5359 391.935 95.7977C394.366 89.4155 401.79 92.3969 405.89 95.3175C402.14 91.9745 402.346 86.1636 404.37 81.9119C405.306 79.8696 406.768 77.7391 409.074 77.183C410.278 76.9361 411.519 76.9391 412.721 77.1916C413.924 77.4441 415.061 77.9408 416.064 78.6509C419.71 81.3618 421.318 86.1484 421.631 90.5461C422.12 88.7226 423.849 87.3823 425.278 86.2639C427.815 84.1791 431.407 85.106 433.786 86.9842C439.542 91.5004 437.688 99.2319 431.249 101.876C436.05 103.763 438.934 109.377 438.542 114.4C438.26 117.564 436.163 120.409 433.528 122.047Z" fill="#F8A488"/>
<path id="Vector_46" d="M414.426 109.526C411.557 109.222 409.26 106.486 409.813 103.587C409.995 101.359 411.12 98.8368 413.411 98.1348C417.453 96.7975 421.029 101.043 420.294 104.909C419.884 107.678 417.352 110.139 414.426 109.526Z" fill="#59724C"/>
</g>
</g>
<defs>
<clipPath id="clip0_48_2771">
<rect width="426" height="769" fill="white" transform="translate(18 14)"/>
</clipPath>
</defs>
</svg>
