<svg width="544" height="471" viewBox="0 0 544 471" fill="none" xmlns="http://www.w3.org/2000/svg">
<mask id="mask0_48_2769" style="mask-type:alpha" maskUnits="userSpaceOnUse" x="0" y="0" width="544" height="471">
<rect width="544" height="471" fill="#C4C4C4"/>
</mask>
<g mask="url(#mask0_48_2769)">
<path d="M132 285C132 171.229 224.229 79 338 79C451.771 79 544 171.229 544 285V703H132V285Z" fill="#EFE6DE"/>
<g clip-path="url(#clip0_48_2769)">
<path d="M330.408 203.104C329.508 196.037 328.117 189.041 326.245 182.167C324.165 175.242 321.446 168.526 318.123 162.104C314.741 155.883 310.646 150.091 307.513 143.707C305.825 140.065 304.594 136.229 303.847 132.286V132.354C303.675 131.496 303.521 130.638 303.383 129.78C302.173 118.324 303.014 106.791 302.525 95.3101C302.353 86.609 302.971 77.8134 301.289 69.2325C299.031 58.2574 293.356 48.0718 285.922 39.7568C282.652 36.5619 279.002 33.7808 275.054 31.4761C274.908 31.3732 274.736 31.2959 274.59 31.2101H274.539C271.234 29.3648 267.789 27.7811 264.237 26.4734C262.076 25.6339 259.822 25.0577 257.524 24.7572C254.33 24.3711 251.128 24.1308 247.934 23.676C246.75 23.5301 245.556 23.3328 244.355 23.2555C243.723 23.1719 243.082 23.2858 242.518 23.5816C242.405 23.6537 242.307 23.7474 242.231 23.8571C242.154 23.9669 242.1 24.0906 242.071 24.2213C242.043 24.352 242.04 24.487 242.064 24.6187C242.087 24.7504 242.136 24.8762 242.208 24.9889C242.281 25.1016 242.374 25.199 242.484 25.2755C242.594 25.352 242.718 25.4061 242.848 25.4348C242.979 25.4635 243.114 25.4662 243.246 25.4427C243.378 25.4192 243.504 25.3699 243.616 25.2978H243.711H243.943C244.877 25.3508 245.808 25.451 246.733 25.5982C241.11 30.0603 237.135 36.4102 233.855 42.7001C233.727 42.9403 233.607 43.1806 233.495 43.4294C232.963 44.4849 232.465 45.5575 231.993 46.6387C229.276 53.1588 227.22 59.9344 225.854 66.8641C225.666 67.7823 225.485 68.7004 225.322 69.6272C225.322 69.713 225.322 69.7988 225.279 69.876C223.438 80.5413 222.69 91.3664 223.047 102.183C221.777 103.256 220.515 104.329 219.304 105.479C219.237 105.549 219.165 105.615 219.09 105.676C216.409 108.164 213.867 110.796 211.475 113.562C205.685 120.155 200.953 127.606 197.448 135.649L197.293 136.001C197.309 135.959 197.33 135.919 197.353 135.881C186.373 161.015 187.575 190.379 198.435 215.341C205.663 232.597 219.433 245.803 236.397 253.389L236.594 253.483C243.462 256.684 250.372 259.868 257.807 261.335H257.901C262.667 262.284 267.557 262.446 272.375 261.816C283.089 265.994 294.292 266.226 304.027 259.499C315.685 265.462 321.291 251.99 324.94 243.306C322.304 253.526 317.214 263.043 310.904 271.443L310.509 271.855L310.346 271.984C310.104 271.991 309.873 272.084 309.695 272.247C309.517 272.409 309.404 272.631 309.375 272.871C309.347 273.11 309.406 273.352 309.542 273.552C309.678 273.751 309.881 273.895 310.114 273.958C311.015 274.215 311.831 273.417 312.389 272.782C314.316 270.328 316.077 267.748 317.66 265.059C319.957 261.348 321.966 257.467 323.669 253.449C329.82 237.424 332.128 220.182 330.408 203.104ZM268.212 260.082C268.416 260.073 268.62 260.05 268.821 260.014H268.89L268.212 260.082Z" fill="#E7775C"/>
<path d="M240.389 255.079C236.311 254.951 232.259 254.685 228.189 254.359H228.25C227.855 254.359 227.46 254.29 227.065 254.256H227.202C214.651 253.398 204.796 251.029 195.439 242.096C193.335 239.977 187.558 233.198 190.932 230.546C191.618 229.973 192.344 229.449 193.104 228.976L193.275 228.865L193.464 228.744L193.378 228.796L193.816 228.513H193.859L194.048 228.384H194.091L194.159 228.341L194.28 228.264C198.748 225.43 202.821 222.016 206.393 218.113C207.074 217.354 207.716 216.56 208.316 215.736L208.238 215.847C209.986 213.158 211.39 210.261 212.419 207.223L212.368 207.361L212.471 207.06C212.471 206.974 212.539 206.871 212.582 206.777L212.531 206.906C213.356 204.66 214.05 202.368 214.608 200.041V200.092V199.972C215.09 197.804 215.439 195.609 215.656 193.399C215.656 193.399 215.656 193.399 215.656 193.459C215.656 193.519 215.656 193.416 215.656 193.391C215.85 191.142 215.899 188.884 215.802 186.629C215.39 180.957 214.617 175.311 213.741 169.69C213.699 169.348 213.723 169.002 213.81 168.669C213.897 168.448 214.054 168.262 214.258 168.14C214.461 168.017 214.699 167.965 214.935 167.991C215.141 164.833 215.793 161.409 218.248 159.23C225.571 153.275 234.559 149.894 243.324 146.676C247.153 145.397 252.905 143.02 255.704 147.225C256.725 148.941 256.871 151.001 257.215 152.923C258.863 164.378 259.009 176.014 260.923 187.436V187.29C260.923 187.358 260.923 187.427 260.966 187.504V187.358C261.009 187.599 261.061 187.839 261.104 188.079L261.258 188.886C261.663 191.078 262.208 193.242 262.889 195.364L262.846 195.236L262.924 195.459L262.872 195.321C262.932 195.476 262.975 195.63 263.035 195.785C263.035 195.922 263.129 196.059 263.172 196.188C263.743 197.825 264.417 199.424 265.19 200.976V200.916C265.241 201.028 265.293 201.148 265.353 201.259L265.284 201.131C266.219 203.143 267.31 205.08 268.546 206.923C268.559 206.947 268.573 206.97 268.589 206.992C268.675 207.137 268.77 207.275 268.864 207.412L268.787 207.3C270.377 209.681 272.096 211.973 273.938 214.165L273.852 214.062C276.252 216.786 278.812 219.365 281.518 221.785L282.042 222.257C282.045 222.271 282.045 222.286 282.042 222.3L282.102 222.352L282.669 222.866L282.72 222.918L282.883 223.064L283.055 223.218L283.184 223.338L283.261 223.407L283.716 223.819C285.15 225.08 286.6 226.333 288.008 227.612L288.231 227.818V227.775C288.85 228.324 289.45 228.873 290.043 229.439C290.642 229.892 291.124 230.48 291.451 231.156C291.683 232.348 290.592 233.301 290.069 234.271C287.673 237.703 284.128 240.054 280.625 242.182C270.555 248.489 259.593 254.616 247.454 255.182H247.6C245.059 255.242 242.715 255.148 240.389 255.079Z" fill="#F2BFB0"/>
<path d="M262.898 195.768C260.653 196.535 258.359 197.146 256.03 197.595H255.841C252.472 198.299 249.03 198.588 245.591 198.454L244.784 198.393C240.165 198.085 235.804 196.394 231.486 194.85C228.756 193.871 225.932 192.833 223.657 190.979L223.502 190.851C223.475 190.82 223.443 190.794 223.408 190.774C222.578 190.042 222.004 189.065 221.768 187.985C221.768 187.985 221.768 187.985 221.768 187.933C221.625 187.249 221.661 186.54 221.871 185.874C222.269 184.728 222.969 183.712 223.897 182.931C224.891 180.291 226.397 177.874 228.327 175.817C236.379 168.197 247.479 164.49 258.27 162.817C259.129 171.012 259.472 179.292 260.846 187.418C260.846 187.418 260.846 187.47 260.846 187.496C260.889 187.684 260.923 187.882 260.957 188.062C261.395 190.524 261.994 192.955 262.752 195.339C262.752 195.339 262.752 195.339 262.752 195.296C262.837 195.51 262.838 195.613 262.898 195.768Z" fill="#8C5F4E"/>
<path d="M409.517 466.97C406.407 466.314 403.442 465.095 400.769 463.374C396.996 461.136 393.562 458.371 390.571 455.162L390.116 454.63L390.202 454.733L389.738 454.175L389.832 454.278C388.318 452.444 386.921 450.515 385.652 448.503C385.678 448.542 385.701 448.582 385.72 448.623C385.6 448.418 385.471 448.22 385.342 448.023C385.338 448.003 385.338 447.983 385.342 447.963V448.014V447.963L385.299 447.903L385.136 447.654V447.697C385.093 447.628 385.051 447.551 384.999 447.482C376.492 433.521 370.233 418.358 363.537 403.488L363.254 402.861C363.277 402.902 363.298 402.945 363.314 402.99C362.713 401.634 362.103 400.287 361.468 398.94C359.7 394.014 357.914 389.097 355.708 384.352L355.476 383.829L355.528 383.949C355.476 383.828 355.416 383.7 355.356 383.58V383.528L355.15 383.065C355.171 383.106 355.188 383.149 355.201 383.193C355.178 383.126 355.149 383.06 355.116 382.996L355.064 382.902C355.064 382.825 355.004 382.747 354.961 382.67V382.61L354.755 382.155L354.815 382.284L354.592 381.795C354.596 381.764 354.596 381.732 354.592 381.7V381.752V381.7C354.472 381.409 354.343 381.125 354.214 380.842L354.266 380.971C353.338 378.86 352.394 376.758 351.476 374.655V374.587C351.725 374.496 351.998 374.497 352.246 374.592C352.494 374.687 352.699 374.868 352.823 375.102C353.129 372.235 353.804 369.42 354.832 366.727C355.67 364.232 356.721 361.815 357.974 359.501C358 359.463 358.023 359.423 358.043 359.381C359.782 356.168 362.15 353.338 365.005 351.058C365.078 351.012 365.147 350.96 365.211 350.903L365.701 350.543L365.58 350.62L365.846 350.431C369.648 347.701 374.077 345.975 378.724 345.411H378.578L379.179 345.326H379.282H379.496H379.35C398.726 343.352 408.255 353.126 411.972 371.377C413.166 376.406 413.99 381.503 414.728 386.617C416.711 400.278 419.355 413.836 420.901 427.549C420.896 427.503 420.896 427.457 420.901 427.411C420.952 427.797 421.004 428.192 421.047 428.578C421.115 429.093 421.184 429.608 421.244 430.131C421.244 430.131 421.244 430.2 421.244 430.243C421.244 430.586 421.321 430.93 421.364 431.273C421.364 431.359 421.364 431.444 421.364 431.53C421.433 431.994 421.476 432.448 421.527 432.912C422.343 440.763 423.425 452.476 420.463 459.796C419.654 461.562 418.551 463.178 417.201 464.576C415.973 465.9 414.289 466.709 412.488 466.841H412.625C411.601 467.035 410.554 467.079 409.517 466.97Z" fill="#F2BFB0"/>
<path d="M71.4745 463.168C74.5829 462.505 77.5462 461.287 80.2223 459.573C84.0018 457.34 87.4394 454.574 90.4295 451.361L90.876 450.837L90.7902 450.94L91.2622 450.374L91.1679 450.486C92.6798 448.649 94.076 446.72 95.3486 444.711L95.2715 444.831C95.4002 444.625 95.529 444.427 95.6491 444.221C95.6475 444.201 95.6475 444.181 95.6491 444.161V444.204V444.161L95.6921 444.093L95.8552 443.835V443.887L95.9839 443.664C104.491 429.711 110.75 414.548 117.446 399.678C117.54 399.472 117.626 399.266 117.721 399.051C117.704 399.096 117.684 399.139 117.66 399.18C118.261 397.824 118.88 396.468 119.506 395.13C121.283 390.204 123.069 385.287 125.275 380.542C125.361 380.362 125.438 380.19 125.516 380.01L125.464 380.139C125.516 380.019 125.567 379.89 125.627 379.77C125.627 379.77 125.627 379.77 125.627 379.71C125.696 379.555 125.764 379.401 125.842 379.246L125.782 379.366C125.814 379.305 125.842 379.242 125.867 379.178C125.869 379.146 125.869 379.115 125.867 379.083L125.971 378.852V378.8L126.177 378.345L126.125 378.474C126.194 378.311 126.271 378.148 126.348 377.985L126.391 377.899V377.951V377.899L126.778 377.041L126.726 377.17C127.653 375.067 128.597 372.965 129.516 370.854V370.785C129.266 370.7 128.993 370.706 128.747 370.802C128.5 370.898 128.295 371.077 128.168 371.309C127.862 368.44 127.187 365.622 126.159 362.925C125.326 360.432 124.274 358.018 123.017 355.709C122.998 355.667 122.975 355.627 122.949 355.588C121.21 352.427 118.861 349.642 116.038 347.394L115.832 347.239C115.677 347.11 115.514 346.99 115.351 346.879L115.463 346.956L115.205 346.759C111.402 344.035 106.973 342.311 102.328 341.747H102.474L101.873 341.67H101.77H101.555H101.693C82.3256 339.697 72.7879 349.47 69.0707 367.722C67.8774 372.75 67.0619 377.848 66.3151 382.962C64.3406 396.614 61.6963 410.172 60.151 423.893C60.1473 423.845 60.1473 423.796 60.151 423.747C60.0909 424.142 60.0481 424.537 59.9966 424.923C59.9193 425.438 59.8592 425.961 59.7905 426.485C59.7905 426.485 59.7905 426.553 59.7905 426.587C59.7905 426.587 59.7905 426.587 59.7905 426.536L59.6619 427.566C59.6619 427.652 59.6619 427.737 59.6619 427.823C59.6018 428.287 59.5587 428.741 59.4986 429.205C58.683 437.065 57.6099 448.778 60.5717 456.098C61.3798 457.864 62.483 459.481 63.8339 460.877C65.0593 462.199 66.7402 463.009 68.5384 463.143H68.4011C69.4189 463.299 70.4542 463.308 71.4745 463.168Z" fill="#F2BFB0"/>
<path d="M258.082 477.893C252.742 477.79 247.411 477.473 242.088 477.104H241.891L241.187 477.052H241.333H241.084L240.097 476.984H239.951C231.289 476.434 222.609 476.126 213.947 475.594C207.715 475.427 201.508 474.723 195.396 473.491C190.764 472.774 186.215 471.602 181.815 469.99C180.272 469.493 178.97 468.437 178.166 467.03L178.243 467.141C176.292 464.201 174.545 461.131 173.015 457.951C168.98 449.679 145.81 393.825 143.57 380.679C142.368 373.703 141.251 366.718 140.625 359.673C138.307 363.612 136.049 367.593 133.491 371.386C133.522 371.351 133.55 371.313 133.577 371.275C132.838 372.381 132.083 373.471 131.25 374.501C130.418 375.531 129.104 376.457 127.954 375.359C120.176 368.142 110.132 364.65 100.199 360.952L98.4823 360.351L97.6238 360.051L96.2674 359.579C96.2229 359.57 96.1797 359.555 96.1387 359.536L95.7009 359.381C93.7264 358.695 91.7431 357.991 89.7687 357.288C82.9008 355.365 75.6554 354.164 69.2511 350.783C68.7438 350.48 68.3623 350.005 68.1764 349.444C67.9904 348.883 68.0124 348.274 68.2382 347.728C68.7018 345.798 69.3712 343.918 70.0065 342.039C70.0065 341.953 70.0753 341.867 70.101 341.782C70.1268 341.696 70.101 341.782 70.101 341.73C70.101 341.679 70.1868 341.464 70.2383 341.327C70.242 341.344 70.242 341.361 70.2383 341.378C77.4753 320.647 87.863 301.202 96.1301 280.882C99.564 271.898 102.749 262.777 107.041 254.144C107.041 254.187 106.998 254.221 106.981 254.264C111.119 246.327 115.154 237.96 121.575 231.645V231.696L122.202 231.138L122.125 231.207C124.597 228.95 127.919 228.092 131.061 227.191C134.203 226.29 137.62 225.561 140.943 224.891H141.045L141.904 224.711C153.725 222.377 165.65 220.644 177.462 218.25H177.531H177.608C187.91 216.019 198.212 213.633 208.513 211.788C209.166 211.651 209.818 211.488 210.479 211.376C210.533 211.372 210.588 211.372 210.642 211.376L210.694 211.522C210.908 212.114 211.149 212.707 211.415 213.281C211.776 214.071 212.162 214.835 212.531 215.615L212.488 215.53C213.722 218.224 215.367 220.711 217.364 222.901C219.857 225.45 222.685 227.649 225.769 229.439L225.64 229.362C229.062 231.411 232.816 232.849 236.731 233.61H236.594C237.582 233.799 238.579 233.936 239.581 234.022C240.972 234.082 242.337 234.099 243.728 234.022C244.832 233.947 245.93 233.804 247.016 233.593C247.694 233.447 248.355 233.267 249.008 233.069H248.922H249.008H249.05C250.441 232.575 251.803 232.002 253.128 231.353C253.987 230.881 254.923 230.375 255.781 229.826C256.639 229.276 257.678 228.47 258.571 227.715C260.083 226.368 261.516 224.935 262.863 223.424L262.769 223.527C263.692 222.472 264.552 221.363 265.344 220.206L265.267 220.318C266.327 218.719 267.293 217.06 268.16 215.349V215.435C268.96 213.828 269.666 212.174 270.272 210.484C270.272 210.484 270.272 210.415 270.272 210.372C270.341 210.175 270.401 209.978 270.469 209.78L270.77 209.643C270.944 209.581 271.122 209.533 271.302 209.497H271.345C271.574 209.449 271.807 209.418 272.041 209.403H272.556C273.277 209.454 273.981 209.566 274.693 209.686H274.556C276.153 209.995 277.706 210.467 279.269 210.922H279.14C282.076 211.831 284.935 212.973 287.871 213.891C290.807 214.809 294.043 215.47 297.091 216.413H296.962L297.22 216.491H297.091C308.062 220.069 319.197 223.124 330.28 226.299H330.228L330.563 226.402L330.426 226.359C334.915 227.783 339.457 229.019 343.861 230.692L344.11 230.787C345.995 231.522 347.84 232.355 349.638 233.284C350.84 233.936 352.008 234.64 353.149 235.412L353.029 235.326L353.287 235.506C354.068 236.055 354.832 236.596 355.596 237.162C356 237.583 356.394 238.02 356.781 238.424V238.381L357.133 238.776C357.097 238.745 357.065 238.711 357.038 238.673C361.82 244.25 364.584 251.175 367.658 257.765C367.829 258.04 367.992 258.323 368.164 258.623C373.075 267.204 378.054 275.785 382.303 284.701C386.501 293.076 390.888 301.357 394.683 309.938C394.709 310.02 394.74 310.1 394.777 310.178C394.846 310.35 394.923 310.513 394.992 310.684L395.069 310.873L395.12 310.976C395.859 312.692 396.583 314.391 397.292 316.073C397.296 316.056 397.296 316.039 397.292 316.022L397.49 316.476C399.258 320.561 400.924 324.697 402.641 328.781L402.718 328.979V328.91C402.738 328.975 402.764 329.039 402.795 329.099C403.92 331.673 405.122 334.248 406.229 336.822C406.214 336.779 406.194 336.739 406.169 336.702C406.212 336.788 406.246 336.882 406.289 336.968C406.314 337.035 406.343 337.101 406.375 337.165C407.923 340.732 409.248 344.392 410.341 348.123C410.341 348.08 410.341 348.037 410.298 347.986C411.039 350.331 411.444 352.769 411.5 355.228V355.082C411.504 355.446 411.487 355.81 411.449 356.172C411.329 356.985 411.037 357.764 410.59 358.455C410.492 358.601 410.359 358.722 410.204 358.805C410.048 358.888 409.874 358.932 409.697 358.932C409.521 358.932 409.347 358.888 409.191 358.805C409.035 358.722 408.902 358.601 408.805 358.455C406.135 359.63 403.353 360.548 400.701 361.767H400.752C400.692 361.787 400.635 361.813 400.58 361.844C396.915 363.44 393.318 365.191 389.652 366.77H389.609H389.549L388.69 367.138C380.38 370.794 371.984 374.312 363.194 376.681C359.964 377.719 356.645 378.455 353.278 378.877C350.54 379.246 349.999 377.71 349.355 375.445V375.333C348.445 371.901 347.878 368.366 346.848 364.959L346.797 364.762V364.641C346.35 363.105 345.852 361.578 345.397 360.042C343.758 369.155 342.084 378.251 340.607 387.39C339.337 395.112 319.471 452.862 312.844 465.708C312.758 465.928 312.655 466.14 312.535 466.343L312.303 466.807V466.755C311.599 468.162 310.861 469.57 310.062 470.934C309.264 472.298 308.294 473.903 306.517 474.032C298.988 475.379 291.348 476.048 283.793 477.198C275.32 478.031 266.684 477.996 258.082 477.893Z" fill="#5AA897"/>
<path d="M141.998 349.333C141.998 349.024 141.998 348.715 142.058 348.406V348.029C142.054 347.983 142.054 347.937 142.058 347.891C142.058 347.788 142.058 347.685 142.058 347.591C142.058 347.634 142.058 347.685 142.058 347.737C142.058 347.548 142.058 347.368 142.058 347.179V347.394C142.591 340.323 143.595 333.278 144.771 326.284C144.859 325.472 145.083 324.68 145.432 323.942C145.6 323.738 145.837 323.603 146.099 323.563C146.36 323.523 146.627 323.581 146.848 323.725C147.07 323.87 147.23 324.091 147.298 324.346C147.366 324.602 147.338 324.873 147.218 325.109C147.115 325.443 147.055 325.787 146.977 326.121C145.718 333.215 144.785 340.366 144.179 347.574C144.179 347.531 144.179 347.479 144.179 347.428C144.179 347.617 144.179 347.797 144.179 347.986V347.883C144.183 347.96 144.183 348.037 144.179 348.114C144.179 348.063 144.179 348.02 144.179 347.969V348.355V348.252C144.179 348.252 144.179 348.338 144.179 348.372V348.758C144.179 348.707 144.179 348.664 144.179 348.612C144.179 349.402 144.084 350.414 143.063 350.431C142.921 350.429 142.78 350.399 142.65 350.342C142.52 350.286 142.402 350.205 142.303 350.103C142.204 350.001 142.126 349.88 142.074 349.748C142.022 349.616 141.996 349.475 141.998 349.333Z" fill="#2C8878"/>
<path d="M343.208 350.732C343.208 348.578 343.011 346.441 342.891 344.287C342.891 344.201 342.891 344.107 342.891 344.013V343.652C342.891 343.652 342.891 343.712 342.891 343.747C342.71 340.383 342.238 337.045 341.869 333.707C341.882 333.566 341.923 333.428 341.989 333.302C342.055 333.177 342.145 333.065 342.254 332.974C342.364 332.884 342.49 332.815 342.625 332.773C342.761 332.731 342.904 332.716 343.045 332.729C343.187 332.742 343.324 332.782 343.45 332.848C343.576 332.915 343.687 333.005 343.778 333.114C343.869 333.223 343.938 333.349 343.98 333.485C344.022 333.62 344.037 333.763 344.024 333.904C344.024 333.853 344.024 333.801 344.024 333.75C344.479 337.062 344.882 340.374 345.046 343.704V344.159C345.174 346.347 345.32 348.535 345.38 350.732C345.38 351.016 345.267 351.289 345.066 351.49C344.865 351.691 344.592 351.804 344.307 351.804C344.023 351.804 343.75 351.691 343.548 351.49C343.347 351.289 343.234 351.016 343.234 350.732H343.208Z" fill="#2C8878"/>
<path d="M287.734 470.359C287.475 470.244 287.27 470.033 287.163 469.771C287.056 469.509 287.054 469.215 287.159 468.952C287.622 467.845 288.069 466.729 288.463 465.597C290.037 461.097 291.361 456.513 292.429 451.867C292.43 451.881 292.43 451.896 292.429 451.91V451.781C292.472 451.584 292.515 451.395 292.55 451.198C292.627 450.812 292.704 450.417 292.79 450.022C293.073 449.01 293.065 446.959 294.593 447.268C294.867 447.342 295.1 447.522 295.242 447.768C295.384 448.014 295.422 448.306 295.348 448.581C295.18 449.114 295.04 449.655 294.928 450.202C294.928 450.202 294.885 450.408 294.868 450.511C294.799 450.872 294.722 451.224 294.653 451.584V451.721L294.524 452.313V452.176C293.493 456.78 292.198 461.322 290.644 465.777C290.18 467.133 289.665 468.463 289.116 469.793C288.999 470.044 288.792 470.242 288.536 470.347C288.279 470.452 287.993 470.456 287.734 470.359Z" fill="#2C8878"/>
<path d="M279.689 462.276C279.621 461.161 279.621 460.044 279.689 458.929C279.685 458.958 279.685 458.987 279.689 459.015C279.689 458.071 279.956 456.921 281.175 457.162C281.445 457.243 281.674 457.427 281.813 457.673C281.952 457.919 281.991 458.209 281.921 458.483C281.917 458.509 281.917 458.535 281.921 458.56C281.886 458.739 281.86 458.919 281.844 459.101C281.844 459.178 281.844 459.264 281.844 459.341C281.804 460.325 281.824 461.311 281.904 462.293C281.902 462.587 281.783 462.867 281.574 463.073C281.365 463.279 281.082 463.394 280.788 463.391C280.494 463.389 280.214 463.27 280.008 463.061C279.801 462.852 279.687 462.569 279.689 462.276Z" fill="#2C8878"/>
<path d="M197.422 465.897C196.37 464.232 195.404 462.513 194.529 460.748L194.589 460.877C193.802 459.323 193.114 457.721 192.529 456.08C192.511 456.036 192.496 455.99 192.486 455.943L192.357 455.574C192.36 455.531 192.36 455.488 192.357 455.445C191.991 454.382 191.752 453.279 191.644 452.159C191.567 451.662 191.652 451.154 191.885 450.709C192.026 450.474 192.251 450.302 192.515 450.228C192.779 450.154 193.061 450.183 193.304 450.311C193.546 450.438 193.731 450.653 193.82 450.912C193.909 451.171 193.895 451.455 193.782 451.704C193.782 451.79 193.782 451.884 193.782 451.97C193.782 452.348 193.876 452.717 193.945 453.086C194.082 453.669 194.22 454.244 194.409 454.802C194.46 454.948 194.512 455.111 194.572 455.257C195.125 456.775 195.761 458.262 196.478 459.71C196.478 459.71 196.435 459.633 196.417 459.59C197.293 461.356 198.261 463.075 199.319 464.739C199.473 464.99 199.52 465.292 199.451 465.579C199.382 465.865 199.202 466.112 198.95 466.266C198.698 466.42 198.396 466.467 198.109 466.398C197.823 466.329 197.576 466.149 197.422 465.897Z" fill="#2C8878"/>
<path d="M206.324 462.027C204.942 461.564 205.852 459.968 205.972 458.972C205.972 458.904 205.972 458.844 205.972 458.783V458.921L206.05 458.535C206.05 458.414 206.092 458.286 206.118 458.166V458.303C206.195 456.201 208.857 456.587 208.247 458.56C208.247 458.56 208.247 458.517 208.247 458.5V458.586C208.243 458.603 208.243 458.621 208.247 458.638C208.247 458.638 208.247 458.706 208.247 458.741C208.243 458.721 208.243 458.7 208.247 458.68C208.247 458.783 208.247 458.886 208.179 458.998V458.947C208.168 459.022 208.154 459.096 208.136 459.17C208.136 459.273 208.136 459.376 208.076 459.479C207.766 460.457 207.844 462.379 206.324 462.027Z" fill="#2C8878"/>
<path d="M412.101 467.004C410.204 466.874 408.364 466.305 406.725 465.341C405.086 464.378 403.694 463.046 402.658 461.452C400.941 458.569 400.246 455.179 399.473 451.936C399.476 451.981 399.476 452.027 399.473 452.073C397.88 444.343 396.816 436.513 396.288 428.638C396.288 428.681 396.288 428.733 396.288 428.776C396.288 428.381 396.228 427.969 396.194 427.566C396.198 427.6 396.198 427.635 396.194 427.669C395.524 418.547 395.172 409.4 394.64 400.27C394.448 399.135 394.333 397.988 394.296 396.837V396.442C394.296 396.331 394.296 396.219 394.296 396.116V396.031C394.296 395.971 394.296 395.91 394.296 395.85C394.296 395.765 394.296 395.67 394.296 395.584C394.301 395.496 394.301 395.407 394.296 395.318C394.296 395.233 394.296 395.147 394.296 395.061V394.992V394.546V394.598C394.113 392.138 394.005 389.675 393.97 387.209C393.863 386.165 393.863 385.113 393.97 384.069C393.97 381.22 394.073 378.362 394.236 375.488C396.202 369.224 398.451 363.071 400.392 356.807C404.212 344.356 408.813 332.171 412.616 319.72C415.372 311.053 417.664 302.232 420.712 293.66C423.897 285.387 426.85 277.038 430.069 268.775C430.065 268.749 430.065 268.723 430.069 268.697C430.679 267.256 431.331 265.831 431.932 264.407L431.881 264.544L432.009 264.218L431.958 264.347C431.958 264.278 432.018 264.21 432.044 264.149C432.044 264.107 432.044 264.072 432.087 264.038V264.124C432.104 264.094 432.119 264.062 432.129 264.029C432.705 262.596 434.456 259.387 431.554 259.559C430.696 259.636 429.906 259.705 429.09 259.816C425.908 259.911 422.724 259.739 419.57 259.301C416.629 258.861 413.765 258.009 411.062 256.77L411.191 256.83C409.254 255.863 407.397 254.744 405.637 253.483C405.05 251.681 404.63 249.828 404.383 247.949C404.433 246.839 404.861 245.78 405.594 244.945C402.907 244.019 402.049 241.59 401.765 238.981C401.482 236.373 400.546 233.455 402.564 231.43C401.997 231.08 401.526 230.597 401.19 230.023C400.91 229.402 400.758 228.731 400.744 228.049C400.744 228.101 400.744 228.144 400.744 228.195C400.615 226.591 400.71 224.976 401.027 223.398C401.023 223.418 401.023 223.439 401.027 223.458C401.022 223.43 401.022 223.401 401.027 223.373C401.585 220.138 403.826 219.571 406.736 219.451C406.916 219.434 407.097 219.434 407.277 219.451L406.693 219.168L406.813 219.228L406.495 219.065L406.616 219.134L401.662 216.671L401.576 216.619H401.533C401.482 216.589 401.427 216.563 401.37 216.542L401.276 216.491C397.61 214.654 394.082 212.569 390.493 210.587C386.905 208.605 381.574 205.885 382.244 200.865C382.329 198.453 383.188 197.304 385.677 198.29C393.249 201.028 400.477 204.632 407.826 207.893L408.444 208.202L408.745 208.347L408.616 208.287L408.822 208.382L408.985 208.468L409.474 208.699L409.345 208.639L410.092 209.008C413.217 210.501 416.394 211.874 419.536 213.41C419.498 213.385 419.458 213.365 419.415 213.35C419.509 213.388 419.601 213.431 419.69 213.479C419.782 213.53 419.877 213.576 419.974 213.616L420.102 213.685H420.162C421.57 214.363 422.97 215.083 424.369 215.779L425.09 216.139L424.961 216.07L425.682 216.431L425.562 216.371L425.76 216.465H425.7L425.863 216.551H425.785L426.172 216.74L426.043 216.671L426.275 216.791L426.155 216.731C426.264 216.774 426.371 216.825 426.472 216.885L426.987 217.134C427.228 217.246 427.477 217.366 427.717 217.495L427.597 217.435L428.275 217.761L429.065 218.138L429.168 218.19L429.082 218.147L429.443 218.327L429.322 218.267L429.709 218.456L429.812 218.499L429.915 218.559L429.786 218.499L430.31 218.756H430.387C434.739 220.876 438.912 223.33 443.187 225.621C442.663 223.819 442.551 221.94 442.199 220.112V220C442.204 220.02 442.204 220.041 442.199 220.06C442.11 219.648 441.998 219.242 441.865 218.842L441.916 218.979C441.637 218.226 441.307 217.492 440.929 216.782L440.998 216.911L440.869 216.662L440.929 216.791L440.749 216.448L440.491 215.813C440.013 214.589 439.632 213.329 439.349 212.046C439.096 210.759 438.95 209.453 438.912 208.141C438.896 207.346 438.945 206.552 439.057 205.765C439.057 205.765 439.057 205.687 439.057 205.653C439.057 205.601 439.057 205.55 439.057 205.499C439.062 205.476 439.062 205.452 439.057 205.43C439.057 205.327 439.058 205.215 439.1 205.112C439.287 203.715 439.574 202.333 439.959 200.976C439.959 201.028 439.959 201.071 439.959 201.114C440.164 200.297 440.479 199.512 440.895 198.78C440.955 198.685 441.023 198.608 441.083 198.522L441.126 198.479L441.229 198.402H441.29H441.375L441.624 198.333C441.744 198.333 441.865 198.29 441.993 198.282H442.337H442.483L442.672 198.325C442.796 198.362 442.917 198.411 443.032 198.471L443.504 198.737L443.934 199.063C444.172 199.276 444.399 199.502 444.612 199.741C445.193 200.417 445.729 201.131 446.217 201.877L446.166 201.809L446.226 201.894L446.269 201.946C449.582 207.369 452.398 213.101 455.343 218.722C455.344 218.739 455.344 218.756 455.343 218.773L455.394 218.868C455.426 218.942 455.464 219.013 455.506 219.082V219.159C455.506 219.117 455.463 219.074 455.446 219.039C455.506 219.151 455.557 219.271 455.618 219.383C455.618 219.383 455.575 219.305 455.557 219.262C456.218 220.567 456.845 221.897 457.506 223.21C458.038 224.265 458.596 225.303 459.223 226.333C459.266 226.419 459.309 226.505 459.36 226.591C459.609 227.045 459.867 227.492 460.116 227.955L460.056 227.835C460.914 229.482 461.773 231.156 462.485 232.863L462.434 232.743C462.703 233.402 462.935 234.075 463.129 234.76L463.232 235.146C463.332 236.861 463.315 238.581 463.181 240.294V240.131C463.177 240.168 463.177 240.206 463.181 240.243V240.303C463.177 240.326 463.177 240.349 463.181 240.372C463.185 240.437 463.185 240.503 463.181 240.569C463.181 240.569 463.181 240.5 463.181 240.466C463.181 240.432 463.181 240.603 463.181 240.672V240.715C462.932 246.722 461.824 252.677 460.786 258.615C460.022 264.518 458.657 270.285 457.352 276.086C457.352 276.086 457.352 276.086 457.352 276.034C457.352 276.274 457.249 276.523 457.197 276.764V276.626C457.06 277.356 456.905 278.094 456.751 278.814C456.69 279.123 456.63 279.424 456.562 279.724V279.595L456.459 280.102C456.27 281.886 455.978 283.663 455.652 285.439C454.587 295.522 452.424 305.45 451.36 315.541C449.11 338.624 446.698 361.715 443.582 384.704C440.594 404.732 438.577 425.103 431.898 444.342C430.239 449.448 427.961 454.333 425.116 458.886C423.519 461.229 421.055 465.957 417.724 465.451C416.156 466.375 414.39 466.913 412.573 467.021L412.101 467.004Z" fill="#F2BFB0"/>
<path d="M68.6931 463.237C66.876 463.128 65.1106 462.59 63.5423 461.667C60.2199 462.173 57.7388 457.445 56.1421 455.102C53.296 450.535 51.0213 445.636 49.3688 440.514C42.6984 421.276 40.6809 400.905 37.6848 380.877C34.5772 357.888 32.1562 334.797 29.907 311.705C28.8511 301.623 26.6963 291.686 25.6146 281.603C25.297 279.836 24.9965 278.059 24.8077 276.274L24.7048 275.76V275.897C24.6447 275.597 24.5844 275.296 24.5157 274.987C24.3612 274.258 24.2069 273.529 24.0609 272.799V272.936C24.0094 272.688 23.9578 272.447 23.9148 272.207C23.9157 272.221 23.9157 272.236 23.9148 272.25C22.5842 266.458 21.2192 260.691 20.4809 254.788C19.4508 248.85 18.3433 242.92 18.0943 236.879C18.0943 236.81 18.0943 236.733 18.0943 236.673C18.0943 236.613 18.0943 236.733 18.0943 236.768C18.0943 236.802 18.0943 236.639 18.0943 236.57C18.098 236.547 18.098 236.524 18.0943 236.502C18.0943 236.502 18.0943 236.424 18.0943 236.39C17.9601 234.677 17.9431 232.957 18.043 231.241L18.1459 230.847C18.339 230.162 18.5712 229.489 18.8413 228.83L18.7898 228.959C19.528 227.243 20.3608 225.578 21.2193 223.93L21.1592 224.051C21.4081 223.587 21.6658 223.141 21.9061 222.678C21.9576 222.6 22.0005 222.506 22.052 222.429C22.1035 222.352 22.052 222.429 22.052 222.429C22.6444 221.399 23.2024 220.361 23.769 219.305C24.4386 218.001 25.0653 216.671 25.7263 215.367C25.7263 215.367 25.6833 215.444 25.6576 215.487L25.8378 215.144C25.8378 215.144 25.795 215.221 25.7693 215.264V215.186C25.7693 215.118 25.8464 215.049 25.8808 214.972C25.9151 214.895 25.8808 214.972 25.8808 214.972C25.8986 214.942 25.913 214.91 25.9237 214.877V214.817C28.8769 209.188 31.6928 203.473 35.0065 198.042L35.0493 197.99L35.1008 197.904L35.0493 197.973C35.5428 197.23 36.0789 196.517 36.6547 195.836C36.8684 195.595 37.0979 195.369 37.3415 195.158C37.4788 195.042 37.6221 194.933 37.7708 194.832L38.2428 194.566C38.3597 194.508 38.4803 194.456 38.6035 194.412L38.7837 194.369H38.9296H39.2817L39.6508 194.429L39.8998 194.498H39.9855H40.0456L40.1402 194.583C40.1432 194.598 40.1432 194.612 40.1402 194.626C40.2079 194.706 40.2709 194.789 40.329 194.875C40.7496 195.609 41.0672 196.397 41.2732 197.218C41.2732 197.175 41.2734 197.132 41.2305 197.081C41.6184 198.433 41.9053 199.813 42.0889 201.208C42.0889 201.32 42.0888 201.423 42.1317 201.534C42.1366 201.557 42.1366 201.58 42.1317 201.603V201.749C42.1282 201.786 42.1282 201.823 42.1317 201.86C42.2361 202.648 42.285 203.442 42.2778 204.237C42.2305 205.548 42.0841 206.853 41.8399 208.141C41.5533 209.425 41.1686 210.684 40.6895 211.908C40.6037 212.114 40.5264 212.329 40.4319 212.535C40.3375 212.741 40.3204 212.767 40.2517 212.878L40.3204 212.758L40.1915 212.998C40.1915 212.998 40.2345 212.921 40.2517 212.878C39.8785 213.586 39.5516 214.317 39.2731 215.066C39.2912 215.025 39.3054 214.982 39.3159 214.938C39.1822 215.337 39.0705 215.744 38.9811 216.156C38.9853 216.136 38.9853 216.116 38.9811 216.096C38.9811 216.139 38.9811 216.173 38.9811 216.208C38.6206 218.044 38.5091 219.923 37.994 221.725C42.2864 219.451 46.4413 217.006 50.7938 214.86L50.8711 214.817L51.3947 214.569L51.2746 214.629L51.3775 214.569L51.472 214.526L51.8583 214.337L51.7296 214.397L52.0987 214.217H52.0128L52.1073 214.165C52.3734 214.045 52.6395 213.908 52.897 213.779L53.5752 213.444L53.4466 213.513L54.1761 213.153L54.6913 212.904L55.0088 212.749L54.8887 212.818L55.1205 212.698C55.0832 212.723 55.0427 212.743 55.0002 212.758L55.3867 212.569H55.3094L55.4724 212.492H55.4123L55.6099 212.389L55.4896 212.458C55.7214 212.329 55.9619 212.217 56.2022 212.097L56.0819 212.157L56.8031 211.805C58.2024 211.11 59.6017 210.39 61.0096 209.703H61.0697L61.19 209.643L61.4818 209.506H61.4388L61.7136 209.368L61.5935 209.437C64.6926 207.901 67.8775 206.528 71.0367 205.027C71.2771 204.906 71.5345 204.795 71.7749 204.666L71.6548 204.726C71.8093 204.649 71.9811 204.572 72.1356 204.486C72.1923 204.465 72.2469 204.44 72.2987 204.409L72.4961 204.314L72.3758 204.374L72.6764 204.228C72.8824 204.126 73.0884 204.014 73.2944 203.92C80.6516 200.65 87.8886 197.055 95.4518 194.317C97.907 193.322 98.7741 194.472 98.8857 196.892C99.5553 201.912 94.3442 204.555 90.627 206.614C87.0472 208.596 83.5104 210.681 79.8533 212.509L79.7502 212.552L79.5871 212.638H79.5442L79.4582 212.681C77.8014 213.496 76.1619 214.337 74.4964 215.152L74.6251 215.083L74.2988 215.246L74.4277 215.178L73.8354 215.47C74.0176 215.443 74.2025 215.443 74.3847 215.47C77.2949 215.581 79.5355 216.156 80.0935 219.391C80.0975 219.417 80.0975 219.443 80.0935 219.468C80.0935 219.468 80.0935 219.468 80.0935 219.417C80.4034 220.996 80.4959 222.61 80.3683 224.214V224.068C80.3541 224.749 80.2022 225.42 79.9218 226.041C79.586 226.616 79.1145 227.099 78.5484 227.449C80.5658 229.474 79.5613 232.494 79.3381 235C79.1149 237.506 78.1964 240.037 75.5094 240.964C77.4066 243.066 76.6082 245.383 75.9386 247.828C75.8528 247.949 75.7669 248.077 75.6724 248.197L75.7154 248.146L75.6724 248.197C75.2215 248.734 74.743 249.247 74.2388 249.733C74.2724 249.704 74.3039 249.673 74.3332 249.639C73.7239 250.249 73.0789 250.822 72.4016 251.355L72.5047 251.269C72.0235 251.639 71.5188 251.977 70.9938 252.282H71.0539L70.9422 252.342H70.9938H70.9336C70.2542 252.725 69.5518 253.066 68.8304 253.363H68.7702C68.3496 253.526 67.9118 253.681 67.4997 253.827C64.6066 254.504 61.6707 255.028 58.7347 255.431H58.666C56.8803 255.62 55.0947 255.732 53.3177 255.938C48.7763 255.423 46.4498 254.462 49.0253 259.996C49.0205 260.025 49.0205 260.054 49.0253 260.082C49.0285 260.056 49.0285 260.031 49.0253 260.005L49.0768 260.108L49.1628 260.314L49.1112 260.185L49.2399 260.503C49.2362 260.46 49.2362 260.417 49.2399 260.374C49.8322 261.815 50.4934 263.24 51.1029 264.664C51.0995 264.693 51.0995 264.722 51.1029 264.75C54.3222 272.996 57.2753 281.354 60.4517 289.635C63.5078 298.216 65.7999 307.029 68.5556 315.695C72.3587 328.146 76.9601 340.323 80.7717 352.782C82.7205 359.038 84.9698 365.199 86.9357 371.455C87.0903 374.304 87.1845 377.161 87.2017 380.036C87.309 381.08 87.309 382.132 87.2017 383.176C87.2017 385.639 87.0559 388.102 86.8756 390.556V390.513V390.959C86.8791 390.979 86.8791 390.999 86.8756 391.019C86.8756 391.105 86.8756 391.191 86.8756 391.277C86.8756 391.363 86.8756 391.448 86.8756 391.534C86.8756 391.62 86.8756 391.714 86.8756 391.8C86.8756 391.869 86.8756 391.92 86.8756 391.989C86.8756 391.989 86.8756 392.066 86.8756 392.101V392.427C86.8756 392.555 86.8756 392.684 86.8756 392.813C86.8343 393.963 86.7195 395.109 86.5321 396.245C85.9998 405.375 85.6738 414.514 84.9698 423.644C84.974 423.61 84.974 423.575 84.9698 423.541C84.9698 423.945 84.9182 424.348 84.8839 424.751C84.8839 424.751 84.8839 424.657 84.8839 424.614C84.3637 432.489 83.2995 440.32 81.699 448.049C81.7038 448 81.7038 447.951 81.699 447.903C80.9349 451.155 80.2653 454.536 78.514 457.428C76.2305 460.8 72.5648 463.237 68.6931 463.237Z" fill="#F2BFB0"/>
<path d="M394.236 401.299C393.902 391.637 393.498 381.855 395.516 372.33L395.567 372.081V372.218L395.618 371.944V371.807C396.031 369.902 396.417 367.988 396.941 366.109C397.086 365.577 397.275 365.062 397.464 364.547C397.574 364.286 397.783 364.079 398.045 363.971C398.307 363.863 398.602 363.864 398.864 363.972C399.122 364.087 399.326 364.298 399.432 364.561C399.538 364.824 399.537 365.117 399.43 365.379C398.722 367.631 398.148 369.924 397.713 372.244C397.713 372.313 397.713 372.373 397.713 372.433C397.718 372.456 397.718 372.479 397.713 372.502C397.705 372.583 397.688 372.664 397.662 372.742V372.853C397.666 372.831 397.666 372.808 397.662 372.785C397.023 376.012 396.593 379.276 396.374 382.558C396.374 382.507 396.374 382.456 396.374 382.404C395.919 388.694 396.245 395.01 396.426 401.282C396.428 401.572 396.315 401.852 396.111 402.058C395.907 402.265 395.63 402.383 395.339 402.385C395.049 402.387 394.77 402.274 394.563 402.07C394.356 401.867 394.239 401.59 394.236 401.299Z" fill="#BF6F56"/>
<path d="M90.6615 401.299C90.9963 391.637 91.4084 381.855 89.3824 372.33L89.3308 372.081V372.218L89.2795 371.944V371.807C88.8674 369.902 88.481 367.988 87.9574 366.109C87.8114 365.577 87.6225 365.062 87.4422 364.547C87.3858 364.417 87.3045 364.3 87.2028 364.202C87.1012 364.104 86.981 364.027 86.8495 363.975C86.7179 363.923 86.5775 363.898 86.4362 363.9C86.2948 363.903 86.1554 363.933 86.0258 363.989C85.8961 364.046 85.7788 364.127 85.6806 364.229C85.5824 364.33 85.5052 364.45 85.4534 364.582C85.4016 364.713 85.3761 364.854 85.3786 364.995C85.381 365.136 85.4113 365.276 85.4677 365.405C86.1761 367.657 86.7495 369.95 87.1846 372.27C87.1797 372.333 87.1797 372.396 87.1846 372.459C87.1797 372.481 87.1797 372.505 87.1846 372.527C87.1968 372.608 87.214 372.689 87.2362 372.768V372.879C87.2323 372.856 87.2323 372.833 87.2362 372.811C87.8891 376.034 88.3336 379.295 88.5668 382.576C88.5668 382.524 88.5668 382.473 88.5668 382.421C89.0218 388.711 88.6956 395.027 88.5153 401.299C88.5153 401.584 88.6284 401.857 88.8297 402.058C89.0309 402.259 89.3038 402.372 89.5884 402.372C89.873 402.372 90.1461 402.259 90.3473 402.058C90.5486 401.857 90.6615 401.584 90.6615 401.299Z" fill="#BF6F56"/>
<path d="M409.8 233.55C408.591 232.996 407.336 232.551 406.049 232.22L405.525 232.151H404.89C404.605 232.151 404.332 232.038 404.131 231.837C403.93 231.636 403.816 231.363 403.816 231.078C403.816 230.794 403.93 230.521 404.131 230.32C404.332 230.119 404.605 230.006 404.89 230.006C406.916 230.006 408.804 230.864 410.633 231.593C410.762 231.65 410.88 231.731 410.978 231.833C411.076 231.934 411.153 232.054 411.205 232.186C411.257 232.317 411.282 232.458 411.28 232.599C411.277 232.74 411.247 232.88 411.191 233.009C411.134 233.139 411.053 233.256 410.951 233.354C410.85 233.452 410.73 233.529 410.598 233.581C410.467 233.633 410.326 233.658 410.185 233.656C410.043 233.653 409.904 233.623 409.774 233.567L409.8 233.55Z" fill="#BF6F56"/>
<path d="M412.212 246.25C411.079 245.924 409.938 245.597 408.779 245.349H408.658L408.212 245.271C408.052 245.314 407.884 245.319 407.721 245.287C407.558 245.255 407.405 245.187 407.272 245.087C407.139 244.987 407.031 244.859 406.955 244.712C406.879 244.564 406.838 244.401 406.834 244.236C406.83 244.07 406.863 243.905 406.932 243.754C407.001 243.603 407.103 243.47 407.231 243.364C407.358 243.258 407.508 243.182 407.669 243.143C407.83 243.103 407.998 243.1 408.161 243.135C409.719 243.357 411.256 243.713 412.753 244.199C412.989 244.301 413.18 244.484 413.292 244.714C413.404 244.945 413.43 245.208 413.365 245.456C413.299 245.705 413.147 245.921 412.936 246.067C412.724 246.212 412.468 246.277 412.212 246.25Z" fill="#BF6F56"/>
<path d="M410.066 221.596C409.883 221.505 409.694 221.428 409.5 221.365L409.637 221.408L409.474 221.356H409.388H409.431L409.285 221.305L409.071 221.236C408.821 221.248 408.574 221.173 408.374 221.022C408.174 220.872 408.033 220.657 407.975 220.413C407.917 220.17 407.945 219.914 408.056 219.69C408.167 219.466 408.353 219.287 408.581 219.185C409.077 219.034 409.612 219.08 410.075 219.314H410.229H410.298C411.036 219.494 411.835 220.112 411.474 220.961C411.425 221.096 411.349 221.22 411.251 221.325C411.153 221.431 411.035 221.515 410.904 221.574C410.772 221.634 410.631 221.666 410.487 221.67C410.343 221.673 410.2 221.649 410.066 221.596Z" fill="#BF6F56"/>
<path d="M65.8861 218.893C65.7772 218.633 65.7756 218.34 65.8817 218.078C65.9877 217.816 66.1929 217.606 66.4526 217.495C67.1823 217.186 67.912 216.877 68.6245 216.559C68.7542 216.503 68.8936 216.473 69.0349 216.47C69.1763 216.468 69.3169 216.493 69.4484 216.545C69.58 216.597 69.6999 216.674 69.8016 216.772C69.9033 216.87 69.9846 216.988 70.041 217.117C70.0973 217.247 70.1276 217.386 70.13 217.527C70.1325 217.669 70.1072 217.809 70.0554 217.941C70.0036 218.072 69.9264 218.192 69.8282 218.294C69.73 218.395 69.6127 218.477 69.483 218.533C68.719 218.859 67.9636 219.194 67.1996 219.503C66.944 219.579 66.6691 219.56 66.427 219.447C66.1849 219.335 65.9925 219.138 65.8861 218.893Z" fill="#BF6F56"/>
<path d="M69.0366 229.251C68.9997 228.97 69.0744 228.686 69.2445 228.46C69.4146 228.234 69.6667 228.083 69.9466 228.041L72.2988 227.74C73.2775 227.612 74.2561 227.526 75.2262 227.354C75.4993 227.33 75.7714 227.411 75.9865 227.581C76.2017 227.751 76.3437 227.997 76.3833 228.268C76.4228 228.539 76.357 228.815 76.1993 229.039C76.0416 229.264 75.804 229.419 75.5353 229.474C74.5824 229.645 73.6208 229.723 72.6679 229.851L70.247 230.16C69.967 230.193 69.6852 230.116 69.4599 229.947C69.2347 229.778 69.0831 229.528 69.0366 229.251Z" fill="#BF6F56"/>
<path d="M72.6418 242.053C71.9808 241.959 71.3197 241.873 70.6501 241.839C69.7487 241.719 68.6928 242.071 67.8858 241.556C67.6956 241.397 67.5656 241.178 67.5176 240.935C67.4695 240.692 67.5065 240.44 67.6221 240.221C67.7377 240.002 67.9249 239.829 68.1526 239.732C68.3803 239.634 68.6348 239.618 68.8732 239.685C70.2087 239.639 71.5455 239.723 72.865 239.934C73.0042 239.951 73.1388 239.995 73.2609 240.064C73.3831 240.133 73.4905 240.225 73.577 240.335C73.6635 240.446 73.7273 240.572 73.765 240.707C73.8026 240.842 73.8133 240.983 73.7964 241.122C73.7795 241.262 73.7354 241.396 73.6665 241.518C73.5976 241.64 73.5053 241.748 73.3949 241.834C73.2844 241.921 73.1581 241.984 73.023 242.022C72.8879 242.06 72.7467 242.07 72.6074 242.053H72.6418Z" fill="#BF6F56"/>
<path d="M29.418 228.118C29.2188 227.917 29.1069 227.646 29.1069 227.363C29.1069 227.08 29.2188 226.809 29.418 226.608C29.4712 226.551 29.5318 226.502 29.5982 226.462L29.5295 226.505C29.6754 226.402 29.8128 226.273 29.9673 226.153C31.3494 225.183 32.8604 224.437 34.3198 223.579C34.5657 223.435 34.8586 223.395 35.1339 223.468C35.4092 223.54 35.6444 223.719 35.7878 223.965C35.9312 224.211 35.9711 224.503 35.8987 224.778C35.8262 225.054 35.6474 225.289 35.4015 225.432C34.0966 226.17 32.7574 226.857 31.504 227.689C31.2379 227.878 30.989 228.101 30.7143 228.281L30.7656 228.238C30.5624 228.379 30.3163 228.444 30.07 228.422C29.8237 228.4 29.593 228.293 29.418 228.118Z" fill="#BF6F56"/>
<path d="M449.196 231.259C447.687 230.461 446.227 229.573 444.826 228.598C444.504 228.406 444.265 228.1 444.157 227.74C444.175 227.782 444.189 227.825 444.2 227.869C444.107 227.628 444.103 227.362 444.189 227.119C444.275 226.875 444.446 226.671 444.67 226.542C444.894 226.414 445.157 226.369 445.411 226.418C445.665 226.466 445.893 226.603 446.054 226.805L446.286 226.977C447.559 227.847 448.884 228.641 450.252 229.354C450.505 229.494 450.691 229.728 450.771 230.006C450.851 230.283 450.817 230.581 450.677 230.834C450.537 231.086 450.302 231.273 450.024 231.353C449.746 231.432 449.449 231.399 449.196 231.259Z" fill="#BF6F56"/>
<path d="M250.003 25.1348C249.992 25.1101 249.978 25.087 249.96 25.0661C249.861 24.8989 249.714 24.7649 249.538 24.6809C249.362 24.5969 249.166 24.5668 248.973 24.5942C241.65 17.3347 228.876 16.3564 219.167 17.3089C204.227 19.1848 190.413 26.2207 180.115 37.1996C176.662 40.6943 173.628 44.5791 171.075 48.7754C168.654 53.0058 167.1 57.6395 165.418 62.1875C163.742 66.5443 162.53 71.0658 161.803 75.6768C161.803 75.6768 161.803 75.5995 161.803 75.5481C161.32 78.8815 161.076 82.2453 161.074 85.6135C161.102 90.3737 161.388 95.1288 161.932 99.858C162.576 108.439 162.79 117.089 161.649 125.601C161.644 125.644 161.644 125.687 161.649 125.73C161.597 126.064 161.546 126.408 161.503 126.742C160.615 132.444 159.403 138.091 157.871 143.655C157.829 143.801 157.786 143.956 157.751 144.102L157.648 144.462C157.648 144.462 157.648 144.505 157.648 144.522C156.169 149.598 154.394 154.583 152.334 159.453L152.386 159.333C152.24 159.693 152.085 160.036 151.948 160.397C151.948 160.397 151.948 160.397 151.948 160.44V160.491C151.639 161.255 151.313 161.993 151.004 162.748C151.014 162.707 151.029 162.666 151.047 162.628C150.892 162.997 150.746 163.357 150.592 163.718C145.192 176.958 139.037 190.199 137.096 204.495C136.326 212.091 136.836 219.764 138.607 227.191C143.612 249.244 162.645 259.147 183.883 260.803C190.245 261.026 196.597 260.391 202.95 260.194C203.095 260.219 203.243 260.215 203.386 260.18C203.529 260.146 203.663 260.083 203.78 259.995C203.898 259.907 203.996 259.795 204.068 259.668C204.141 259.54 204.187 259.399 204.203 259.253C204.218 259.107 204.204 258.96 204.161 258.82C204.117 258.679 204.045 258.55 203.95 258.438C203.854 258.327 203.736 258.236 203.604 258.172C203.472 258.108 203.329 258.072 203.182 258.066C199.929 257.032 196.798 255.651 193.842 253.947H193.885C192.993 253.425 192.133 252.852 191.309 252.231C190.734 251.776 190.193 251.287 189.661 250.78C189.246 250.352 188.853 249.902 188.485 249.433C187.832 248.575 187.231 247.64 186.665 246.696C186.39 246.19 186.133 245.683 185.892 245.16C185.652 244.636 185.566 244.242 185.429 243.778C185.291 243.315 185.266 242.92 185.214 242.525C185.163 242.131 185.145 241.547 185.137 241.05C185.128 240.552 185.205 240.08 185.265 239.599C185.52 238.241 185.929 236.917 186.485 235.652C186.984 234.494 187.542 233.363 188.159 232.263C190.734 227.672 194.468 223.879 198.048 220.069C201.774 215.727 205.663 211.428 208.573 206.485C208.576 206.465 208.576 206.445 208.573 206.425V206.374C212.608 199.423 213.655 191.108 212.599 183.205C212.193 180.227 211.485 177.297 210.488 174.461C208.865 163.735 207.26 153.009 205.938 142.222C205.168 136.72 205.119 131.141 205.792 125.627C205.792 125.627 205.792 125.627 205.792 125.584C206.353 121.684 207.427 117.876 208.985 114.257C208.989 114.223 208.989 114.188 208.985 114.154V114.257C216.016 98.9999 227.485 86.403 236.997 72.7078C238.354 71.7038 239.719 70.6826 241.058 69.6443H241.109C242.105 68.8721 243.093 68.0912 244.054 67.276C245.355 66.0416 246.544 64.6948 247.608 63.2515C247.757 63.0484 247.825 62.7966 247.797 62.5462C247.769 62.2958 247.648 62.065 247.457 61.8997C247.267 61.7344 247.022 61.6467 246.77 61.6539C246.518 61.6611 246.278 61.7627 246.097 61.9386C245.189 63.1391 244.212 64.2852 243.17 65.371C242.311 66.2291 241.333 66.9156 240.397 67.6621C242.414 64.5558 244.449 61.4667 246.303 58.223V58.1801L246.346 58.1115C249.037 53.5641 251.139 48.6942 252.604 43.6182C254.854 36.2042 254.167 32.1197 250.003 25.1348ZM223.184 88.1278C200.194 119.019 201.199 125.567 206.719 162.465C204.693 156.415 202.032 150.589 199.98 144.548C198.212 139.379 196.933 134.055 196.16 128.647C196.16 128.647 196.16 128.587 196.16 128.561C196.16 128.536 196.16 128.313 196.16 128.192C195.718 125.117 195.64 122.001 195.928 118.908C196.343 116.046 197.155 113.256 198.34 110.619C198.365 110.546 198.394 110.474 198.426 110.404C200.425 105.809 202.946 101.459 205.938 97.4381C208.543 94.169 211.532 91.2246 214.84 88.6684C220.283 84.498 226.275 81.1085 231.683 76.8953C228.85 80.5679 225.992 84.3264 223.184 88.1278Z" fill="#E7775C"/>
<path d="M283.578 97.4639C282.265 88.6941 272.47 73.1625 266.581 66.3149C262.723 61.912 257.589 58.8197 251.892 57.4679C246.741 56.6699 241.539 57.4078 236.439 58.1201C235.594 55.919 234.437 53.85 233.006 51.9761C232.261 50.9402 231.29 50.0869 230.168 49.4804C229.045 48.8739 227.799 48.5302 226.524 48.475C226.047 48.5679 225.595 48.7634 225.201 49.0479C224.807 49.3323 224.479 49.699 224.241 50.1226C223.622 50.9292 223.047 51.7787 222.472 52.6197C220.539 55.3919 218.916 58.3672 217.63 61.4924C217.594 61.5645 217.562 61.639 217.536 61.7155C217.407 62.0158 217.278 62.3247 217.158 62.6337C207.397 65.74 197.611 68.8549 188.253 73.0338C181.54 75.9428 174.921 79.6326 171.504 86.4202C172.5 92.8216 174.08 99.12 175.608 105.41C175.604 105.435 175.604 105.462 175.608 105.487C175.607 105.501 175.607 105.516 175.608 105.53C176.372 108.585 177.067 111.648 177.78 114.703C177.78 114.789 177.823 114.883 177.848 114.986C177.844 115 177.844 115.015 177.848 115.029C177.848 115.029 177.848 115.072 177.848 115.089C177.848 115.244 177.926 115.398 177.96 115.553C177.96 115.664 178.02 115.784 178.046 115.896V115.99C178.587 118.384 179.17 120.77 179.763 123.147C181.016 128.124 182.338 133.075 183.566 138.069C185.549 145.698 187.094 153.515 190.305 160.749C190.365 160.903 190.442 161.058 190.511 161.203V161.246C191.063 162.433 191.697 163.58 192.408 164.679C192.442 164.741 192.48 164.801 192.52 164.859C193.738 166.731 195.08 168.52 196.538 170.213L196.701 170.394L196.821 170.522C197.25 171.012 197.679 171.475 198.117 171.947C202.65 175.079 207.243 178.099 211.999 180.88L212.093 180.94C214.394 182.278 216.677 183.686 219.047 184.921C221.364 186.045 223.757 187.009 226.207 187.804C228.867 188.778 231.578 189.608 234.328 190.293C234.938 190.415 235.561 190.455 236.182 190.413C243.908 189.298 251.12 184.535 257.541 179.867C258.528 179.155 259.507 178.425 260.46 177.73C265.379 173.912 270.255 169.922 273.946 164.859L274.058 164.756C274.06 164.739 274.06 164.722 274.058 164.704C274.058 164.653 274.118 164.602 274.152 164.559C274.149 164.545 274.149 164.53 274.152 164.516V164.464C274.729 163.6 275.251 162.7 275.715 161.77C276.585 159.99 277.362 158.165 278.041 156.304V156.261C278.036 156.241 278.036 156.22 278.041 156.201V156.149C278.666 154.324 279.185 152.465 279.595 150.58C279.599 150.537 279.599 150.494 279.595 150.451V150.348C280.531 145.809 280.848 141.158 281.647 136.619C281.922 132.843 282.377 129.102 282.651 125.335V124.992V125.06C282.651 124.966 282.651 124.872 282.651 124.777V124.425C282.651 124.477 282.651 124.511 282.651 124.563C283.081 118.35 283.269 112.12 283.338 105.89V103.436C283.597 101.457 283.678 99.4578 283.578 97.4639ZM233.323 60.6772L232.044 60.9346H232.113L232.971 60.763L233.323 60.6772Z" fill="#F2BFB0"/>
<path d="M220.618 160.603C218.819 160.384 217.074 159.844 215.467 159.007L215.578 159.067C215.044 158.75 214.533 158.394 214.05 158.003C214.082 158.031 214.117 158.057 214.153 158.08C214.061 158.019 213.972 157.953 213.887 157.883H213.844C213.631 157.801 213.452 157.65 213.336 157.453C213.22 157.256 213.175 157.025 213.208 156.799C213.241 156.574 213.35 156.366 213.517 156.21C213.685 156.054 213.9 155.96 214.128 155.943C214.512 155.948 214.88 156.098 215.158 156.364C215.134 156.352 215.113 156.334 215.098 156.312L215.149 156.364L215.218 156.407C215.9 156.978 216.657 157.454 217.467 157.823C217.742 157.925 218.034 158.028 218.325 158.106H218.197C219.126 158.363 220.069 158.57 221.021 158.724C221.216 158.824 221.372 158.985 221.466 159.183C221.559 159.381 221.585 159.604 221.539 159.818C221.493 160.032 221.378 160.224 221.212 160.366C221.045 160.508 220.836 160.591 220.618 160.603Z" fill="#8C5F4E"/>
<path d="M225.717 160.611C225.467 160.579 225.237 160.454 225.075 160.261C224.913 160.068 224.829 159.82 224.841 159.568C224.853 159.316 224.959 159.077 225.139 158.9C225.319 158.723 225.559 158.62 225.812 158.612C227.185 158.397 228.49 157.9 229.881 157.754C231.691 157.526 233.522 157.526 235.332 157.754H235.203H235.452H235.324C235.924 157.84 236.534 157.908 237.135 157.986H236.998L237.358 158.028H237.41C238.32 158.149 239.23 158.329 240.14 158.458H240.011H240.2H240.071C241.407 158.669 242.773 158.581 244.071 158.2H243.943C246.119 157.531 248.202 156.588 250.141 155.394C250.378 155.276 250.652 155.256 250.904 155.338C251.156 155.42 251.366 155.597 251.489 155.832C252.004 156.922 250.682 157.368 249.935 157.78C248.213 158.807 246.363 159.6 244.432 160.139L244.561 160.097C243.006 160.551 241.37 160.654 239.77 160.397H239.908C238.998 160.277 238.105 160.096 237.195 159.976H237.083H236.877H236.611H236.74L234.92 159.745H235.049C233.318 159.53 231.568 159.53 229.838 159.745H229.975C228.585 159.916 227.194 160.534 225.717 160.611Z" fill="#8C5F4E"/>
<path d="M233.203 169.098C232.258 169.069 231.32 168.937 230.404 168.703H230.447H230.387C228.67 168.257 229.528 166.009 231.005 166.798L231.271 166.867C231.839 166.968 232.412 167.04 232.988 167.081C233.222 167.094 233.458 167.094 233.692 167.081C234.411 167.012 235.12 166.859 235.804 166.627C235.934 166.58 236.072 166.562 236.21 166.571C236.348 166.581 236.482 166.619 236.604 166.682C236.726 166.746 236.834 166.834 236.921 166.942C237.008 167.049 237.072 167.173 237.108 167.306C237.145 167.439 237.154 167.578 237.134 167.715C237.115 167.851 237.067 167.982 236.995 168.1C236.922 168.217 236.827 168.318 236.713 168.397C236.6 168.476 236.471 168.53 236.336 168.557C235.329 168.912 234.27 169.095 233.203 169.098Z" fill="#8C5F4E"/>
<path d="M211.218 113.133C209.123 111.417 206.264 111.056 203.697 110.558C201.293 110.088 198.817 110.12 196.426 110.653H196.323C194.631 111.088 192.971 111.635 191.352 112.292C191.099 112.414 190.904 112.631 190.809 112.896C190.715 113.161 190.728 113.452 190.846 113.708C191.232 114.489 192.056 114.394 192.717 114.034H192.803L193.378 113.845C193.619 116.608 195.293 119.302 198.057 120.092H198.151C198.639 120.239 199.145 120.314 199.654 120.315H199.8C201.157 120.226 202.446 119.69 203.467 118.792C204.487 117.893 205.181 116.681 205.44 115.347C205.594 114.624 205.686 113.889 205.715 113.15C206.298 113.296 206.874 113.442 207.432 113.613H207.389H207.432H207.526H207.457C207.814 113.717 208.164 113.843 208.505 113.991C208.754 114.111 208.994 114.24 209.234 114.368L209.646 114.643L209.767 114.737C209.987 114.882 210.254 114.939 210.515 114.898C210.775 114.857 211.012 114.72 211.177 114.515C211.343 114.31 211.427 114.05 211.412 113.787C211.397 113.524 211.285 113.275 211.097 113.09L211.218 113.133Z" fill="#45526C"/>
<path d="M211.114 113.064C211.153 113.091 211.187 113.123 211.218 113.159H211.26C211.214 113.123 211.166 113.092 211.114 113.064Z" fill="#5E3A2E"/>
<path d="M211.853 95.9708C208.869 95.6791 205.87 95.5673 202.873 95.6361C198.3 95.6646 193.858 97.1695 190.21 99.9266C189.503 100.526 188.92 101.258 188.493 102.08C188.356 102.374 188.333 102.707 188.428 103.016C188.524 103.326 188.73 103.588 189.008 103.754C189.618 103.941 190.275 103.908 190.863 103.659C192.531 103.279 194.219 102.992 195.919 102.801H195.876H195.996H196.117H196.434L199.01 102.492C200.727 102.441 202.495 102.338 204.238 102.226H205.32C207.456 102.266 209.588 102.427 211.707 102.707C212.874 102.973 214.471 103.067 214.943 101.694L215.115 101.317C215.767 100.459 216.608 99.6006 216.686 98.5194C216.703 96.9319 213.149 96.2626 211.853 95.9708Z" fill="#F08A71"/>
<path d="M252.046 112.901L251.96 112.978L252.012 112.935L252.046 112.901Z" fill="#5E3A2E"/>
<path d="M271.732 111.339C270.086 110.75 268.402 110.271 266.692 109.906C266.658 109.91 266.624 109.91 266.589 109.906C264.146 109.467 261.637 109.54 259.223 110.121H259.361C256.837 110.739 254.047 111.245 252.012 112.97C251.805 113.149 251.674 113.401 251.646 113.673C251.617 113.945 251.693 114.218 251.858 114.437C251.943 114.547 252.05 114.64 252.171 114.709C252.293 114.779 252.427 114.823 252.565 114.841C252.704 114.858 252.845 114.848 252.98 114.811C253.115 114.775 253.241 114.711 253.351 114.626L253.463 114.531L253.506 114.48L253.91 114.197C254.141 114.051 254.382 113.914 254.622 113.776C254.958 113.621 255.302 113.484 255.652 113.364H255.592H255.678H255.721H255.678C256.244 113.176 256.811 113.004 257.395 112.841C257.458 113.576 257.582 114.305 257.764 115.021C258.079 116.344 258.823 117.525 259.881 118.381C260.939 119.236 262.25 119.717 263.61 119.749H263.748C264.26 119.725 264.766 119.626 265.25 119.457H265.336C266.602 118.981 267.698 118.138 268.483 117.036C269.267 115.933 269.705 114.622 269.74 113.27C269.74 113.184 269.74 113.098 269.74 113.004L270.349 113.184H270.435L270.89 113.347C271.019 113.404 271.157 113.434 271.297 113.437C271.438 113.44 271.577 113.415 271.708 113.364C271.839 113.313 271.958 113.237 272.059 113.14C272.161 113.043 272.242 112.927 272.298 112.798C272.354 112.67 272.385 112.531 272.388 112.391C272.391 112.251 272.366 112.111 272.315 111.981C272.264 111.85 272.188 111.731 272.091 111.629C271.993 111.528 271.877 111.447 271.749 111.391L271.732 111.339Z" fill="#45526C"/>
<path d="M274.178 101.119C273.002 98.957 270.658 97.7728 268.478 96.8289C264.653 95.3586 260.525 94.8546 256.459 95.3615C254.505 95.3914 252.556 95.5721 250.63 95.9021C249.342 96.2282 245.831 97.0177 245.874 98.6738C245.994 99.7722 246.878 100.605 247.591 101.403C248.226 103.119 249.54 103.024 251.025 102.647C253.514 102.213 256.029 101.947 258.554 101.849C260.271 101.849 262.039 101.917 263.79 101.9L266.366 102.098H266.692H266.838C268.542 102.222 270.239 102.437 271.92 102.741C272.522 102.96 273.181 102.96 273.783 102.741C274.034 102.564 274.212 102.302 274.284 102.004C274.357 101.706 274.319 101.392 274.178 101.119Z" fill="#F08A71"/>
<path d="M175.118 167.553C175.015 167.407 174.861 167.236 174.783 167.099C174.619 166.775 174.507 166.427 174.449 166.069C172.474 159.204 170.895 152.176 169.358 145.2C167.968 139.714 166.93 134.145 166.25 128.527C165.529 122.443 165.503 115.982 165.143 109.829V109.657V109.194V108.928V108.799V108.653V108.473C163.975 94.6064 161.709 83.1165 170.748 70.8457C171.793 69.3494 172.925 67.9167 174.139 66.5552C174.303 66.3578 174.483 66.1776 174.655 65.9974C183.686 56.4897 196.16 49.3074 209.268 47.4797C212.101 47.1278 214.994 46.5186 217.802 46.1753C219.965 45.9608 222.154 45.5747 224.309 45.9694L224.798 46.0724H224.97L225.528 46.1925C225.914 46.2605 226.304 46.3063 226.695 46.3298C228.206 44.545 230.25 43.8499 232.37 43.0175C240.096 40.3317 252.467 41.3013 260.245 43.8756C261.318 44.2465 262.363 44.6968 263.37 45.2229C267.126 47.289 270.447 50.0631 273.148 53.392C277.655 58.961 281.44 65.9459 284.668 72.2701L284.583 72.1671C285.441 73.8061 286.248 75.5137 286.969 77.2213C292.918 91.0367 293.485 105.908 294.867 120.675V120.778C294.953 121.637 295.004 122.495 295.056 123.353V123.481C295.52 132.363 295.915 140.987 295.992 149.825C296.038 150.201 296.002 150.582 295.888 150.944C295.774 151.305 295.584 151.637 295.331 151.919C294.232 152.64 293.476 151.541 293.15 150.597C289.819 142.377 286.669 134.088 283.329 125.876C283.243 122.151 281.93 118.633 280.548 115.218C279.114 111.725 277.433 108.338 275.517 105.084C275.535 105.127 275.558 105.167 275.586 105.204C275.543 105.127 275.491 105.049 275.44 104.972L275.517 105.092C275.48 105.04 275.445 104.986 275.414 104.929C272.838 100.931 270.049 97.1121 267.164 93.3622C265.385 91.2702 263.466 89.3007 261.421 87.467L261.335 87.3898C257.42 83.8544 253.3 80.525 249.23 77.1956C246.732 75.1362 244.14 73.1454 242.114 70.5882L242.062 70.5282L242.002 70.4509C241.951 70.3737 241.891 70.3136 241.83 70.2364L241.882 70.3051L241.375 69.6872L241.315 69.6186L241.272 69.5671L241.169 69.4384C240.403 68.4389 239.703 67.3897 239.075 66.2977C238.774 65.7829 238.491 65.2594 238.216 64.7274C237.95 63.8693 237.675 63.0112 237.358 62.1531C237.368 62.1972 237.383 62.2403 237.401 62.2819L237.323 62.0759C237.087 61.3904 236.892 60.6912 236.74 59.9821V60.1109C236.74 60.0422 236.74 59.9736 236.74 59.9049C236.692 59.6812 236.658 59.4548 236.637 59.227C236.647 58.9951 236.58 58.7664 236.444 58.5779C236.308 58.3895 236.113 58.2523 235.89 58.1887C235.771 58.0249 235.606 57.9007 235.415 57.8323C235.225 57.764 235.018 57.7547 234.823 57.8057C234.627 57.8567 234.451 57.9656 234.318 58.1182C234.186 58.2707 234.102 58.4598 234.078 58.6607C234.078 58.6607 234.078 58.7122 234.078 58.7379C233.892 59.334 233.645 59.9092 233.34 60.4541L233.28 60.5571C233.28 60.5142 233.28 60.4713 233.349 60.4369C233.025 61.0298 232.667 61.6029 232.275 62.1531L232.353 62.0502C231.389 63.4081 230.337 64.7009 229.202 65.9202C227.952 67.2763 226.621 68.5572 225.219 69.7559L225.142 69.816L225.047 69.8846C221.527 72.632 217.852 75.1761 214.041 77.5045L213.475 77.8649H213.415L212.333 78.56L212.428 78.4999H212.367C208.814 80.7244 205.376 83.1273 202.066 85.6994C196.194 90.251 191.301 95.9391 187.678 102.424C187.675 102.452 187.675 102.481 187.678 102.509V102.441C187.506 102.75 187.334 103.059 187.171 103.368C187.094 103.505 187.017 103.642 186.948 103.779L187.008 103.668C186.862 103.943 186.708 104.217 186.57 104.526C186.573 104.546 186.573 104.566 186.57 104.586V104.655L186.467 104.852V104.895L186.158 105.504C186.155 105.524 186.155 105.544 186.158 105.564C183.967 109.911 182.213 114.464 180.922 119.157C180.506 120.493 180.301 121.885 180.312 123.284C180.115 123.996 179.908 124.709 179.711 125.421V125.558L179.591 125.987V126.09L179.539 126.219C177.29 135.263 176.732 143.672 176.766 152.82L176.715 152.683L176.766 153.009C176.766 157.059 177.333 162.499 177.625 166.875C177.754 167.588 177.393 168.403 176.621 168.403C176.468 168.477 176.299 168.513 176.129 168.508C175.96 168.503 175.794 168.457 175.646 168.373C175.498 168.289 175.373 168.171 175.281 168.028C175.189 167.886 175.133 167.723 175.118 167.553Z" fill="#E7775C"/>
<path d="M261.893 88.1707C259.498 86.1456 257.077 84.1548 254.682 82.164L254.742 82.2155C254.715 82.1825 254.683 82.1536 254.648 82.1297L254.261 81.8036L254.364 81.8894C253.72 81.3402 253.102 80.7739 252.458 80.2247C251.6 79.4438 250.621 78.6973 249.711 77.925L249.815 78.0108C247.239 75.7369 244.612 73.5744 242.294 71.086C242.321 71.1195 242.349 71.1511 242.38 71.1803C236.285 64.3156 234.147 58.6435 232.499 49.7794C232.499 49.7794 232.499 49.7107 232.499 49.685C232.207 48.1833 231.95 46.6816 231.692 45.18C231.563 43.9185 231.065 42.6057 231.314 41.3099C231.314 41.3528 231.314 41.3872 231.314 41.4301C231.394 41.1937 231.558 40.9952 231.775 40.8732C231.993 40.7513 232.248 40.7145 232.491 40.7702C232.734 40.8259 232.948 40.9699 233.091 41.1744C233.233 41.3788 233.295 41.629 233.263 41.8763V41.9192C233.555 44.3648 234.036 46.7846 234.465 49.213C234.465 49.213 234.465 49.1701 234.465 49.1444C234.465 49.1186 234.465 49.2988 234.508 49.3846V49.2473C235.05 52.1096 235.749 54.9399 236.602 57.7253V57.8369C237.568 60.6365 238.929 63.2835 240.646 65.6971C241.663 67.1217 242.752 68.4936 243.908 69.8074C243.875 69.7781 243.843 69.7466 243.814 69.713L243.968 69.8846C246.157 72.2015 248.656 74.1751 251.025 76.3547L251.265 76.5606C252.776 77.822 254.304 79.0663 255.764 80.3877L255.884 80.4821L255.815 80.4306L255.935 80.5336L256.107 80.6881L256.262 80.8168C258.562 82.7732 260.889 84.6868 263.198 86.6175C263.404 86.7905 263.533 87.0382 263.556 87.3061C263.58 87.5741 263.496 87.8403 263.323 88.0463C263.149 88.2522 262.902 88.3811 262.634 88.4044C262.366 88.4277 262.099 88.3437 261.893 88.1707Z" fill="#BD5942"/>
<path d="M209.028 77.2042C208.933 76.9579 208.938 76.6846 209.04 76.4415C209.142 76.1983 209.335 76.0042 209.577 75.8999C211.938 74.8358 214.29 73.746 216.643 72.6648L217.673 72.1671H217.621C219.159 71.373 220.65 70.4905 222.085 69.5242H222.146H222.197L222.257 69.4813L222.592 69.2582L222.48 69.3354C223.813 68.447 225.086 67.4724 226.292 66.4179C229.202 63.8951 231.271 60.6171 233.434 57.4679L233.366 57.5795C233.996 56.5917 234.569 55.5689 235.083 54.5161L235.134 54.4045L235.177 54.3101L235.246 54.1642C235.74 53.0843 236.175 51.9786 236.551 50.852C236.748 50.277 236.946 49.6935 237.194 49.1358C237.275 48.872 237.413 48.6289 237.596 48.423C237.78 48.2171 238.006 48.0534 238.259 47.943C238.475 47.8922 238.702 47.9144 238.904 48.0062C239.106 48.0979 239.273 48.2541 239.376 48.4502C239.48 48.6463 239.517 48.8713 239.479 49.0901C239.441 49.3088 239.332 49.509 239.169 49.6592C239.171 49.6821 239.171 49.705 239.169 49.7279C238.379 51.5213 237.916 53.4349 237.014 55.1768L237.074 55.0652L236.963 55.2883C236.964 55.2598 236.964 55.2311 236.963 55.2025C236.134 56.9272 235.145 58.5705 234.01 60.1109C232.919 61.6812 231.855 63.2772 230.636 64.7532C228.593 67.1575 226.206 69.248 223.553 70.9572C223.589 70.9324 223.627 70.9095 223.665 70.8886L223.39 71.0688L223.502 70.9915L223.356 71.0859C220.43 73.0234 217.326 74.6756 214.084 76.02C212.848 76.5949 211.603 77.1613 210.367 77.7362C210.244 77.79 210.112 77.8189 209.978 77.8212C209.844 77.8235 209.711 77.7992 209.586 77.7498C209.462 77.7003 209.348 77.6266 209.253 77.5329C209.157 77.4393 209.08 77.3275 209.028 77.2042Z" fill="#BD5942"/>
<path d="M170.8 80.7996C170.539 80.7612 170.303 80.6222 170.142 80.4122C169.982 80.2022 169.91 79.9378 169.942 79.6755C170.073 77.1546 170.36 74.6441 170.8 72.1586C170.8 72.1586 170.8 72.1586 170.8 72.21C170.796 72.1615 170.796 72.1127 170.8 72.0642V72.1157V72.0642V71.9869C170.8 71.9869 170.8 71.9869 170.8 72.0556C170.796 72.0243 170.796 71.9925 170.8 71.9612C172.142 66.0044 174.658 60.3744 178.2 55.3999L178.132 55.5029L178.561 54.8765L178.492 54.9794C181.711 50.2269 185.826 46.1464 190.606 42.966C191.661 42.3311 192.683 41.3957 193.945 41.2498C194.191 41.262 194.425 41.3643 194.6 41.5373C194.776 41.7103 194.882 41.9418 194.898 42.1878C194.914 42.4338 194.838 42.6771 194.686 42.8712C194.534 43.0654 194.316 43.1969 194.074 43.2406L193.73 43.3951C192.872 43.8327 192.151 44.3648 191.378 44.8796L191.49 44.811C189.984 45.8051 188.55 46.9033 187.197 48.0975L187.3 48.0117C185.868 49.2958 184.512 50.6625 183.24 52.1048C182.124 53.3632 181.091 54.6933 180.149 56.0864L180.192 56.0263C180.063 56.2151 179.935 56.3953 179.814 56.5841L179.763 56.6441C178.357 58.7448 177.065 60.9189 175.891 63.1571C174.437 66.143 173.345 69.2916 172.638 72.5361C172.638 72.5361 172.638 72.5361 172.638 72.5876V72.6648C172.638 72.7335 172.637 72.8021 172.595 72.8622V72.7335C172.154 75.2046 171.867 77.7008 171.736 80.2075C171.654 80.3864 171.523 80.5376 171.357 80.6427C171.19 80.7478 170.997 80.8024 170.8 80.7996Z" fill="#BD5942"/>
<path d="M171.29 179.112C170.431 172.136 169.882 165.099 170.431 158.08C170.435 158.126 170.435 158.172 170.431 158.217V157.883C170.431 157.925 170.431 157.977 170.431 158.02C170.431 157.883 170.431 157.754 170.431 157.617V157.659C170.838 150.76 172.169 143.946 174.389 137.4C174.938 135.812 175.591 134.251 176.166 132.672V132.603V132.552V132.594V132.5C176.211 132.257 176.344 132.038 176.54 131.887C176.735 131.736 176.98 131.662 177.227 131.68C177.474 131.698 177.706 131.807 177.877 131.985C178.049 132.163 178.149 132.399 178.158 132.646C177.978 133.454 177.716 134.242 177.376 134.997C174.552 142.209 172.875 149.818 172.406 157.548V157.591C172.406 157.668 172.406 157.737 172.406 157.814C172.41 157.785 172.41 157.757 172.406 157.728C172.406 157.874 172.406 158.028 172.406 158.174V158.303C172.161 162.143 172.161 165.995 172.406 169.836C172.646 172.831 172.955 175.843 173.264 178.786C173.283 179.036 173.208 179.285 173.053 179.483C172.898 179.68 172.674 179.813 172.426 179.853C172.178 179.894 171.924 179.841 171.714 179.704C171.503 179.566 171.352 179.355 171.29 179.112Z" fill="#BD5942"/>
<path d="M298.361 167.021C295.502 153.189 295.176 138.833 290.635 125.344V125.266L290.566 125.086C290.566 125.086 290.566 125.009 290.566 124.974L290.489 124.743V124.786V124.726V124.657L290.446 124.537V124.58V124.46C290.446 124.46 290.446 124.46 290.446 124.511C288.978 120.521 287.287 116.625 285.441 112.807C285.445 112.826 285.445 112.847 285.441 112.867V112.927C285.417 112.886 285.397 112.843 285.381 112.798C285.349 112.746 285.32 112.691 285.295 112.635L285.08 112.197V112.257C283.621 109.246 281.724 106.448 280.221 103.471C279.784 101.935 281.861 101.523 282.23 103.076C283.819 105.83 285.458 108.551 286.883 111.399C286.867 111.358 286.847 111.318 286.823 111.279L287.149 111.923L287.089 111.803L287.201 112.009C287.199 111.986 287.199 111.963 287.201 111.94C289.111 115.838 290.816 119.834 292.309 123.91C292.309 123.91 292.309 123.988 292.352 124.031C292.352 124.116 292.412 124.211 292.446 124.305C292.446 124.262 292.446 124.219 292.403 124.185L292.506 124.485V124.554V124.606V124.563C292.506 124.563 292.506 124.631 292.506 124.666V124.777C297.056 138.361 297.382 152.82 300.233 166.755C300.191 166.958 300.087 167.142 299.937 167.284C299.786 167.425 299.595 167.517 299.39 167.546C299.186 167.575 298.977 167.54 298.793 167.446C298.608 167.352 298.458 167.204 298.361 167.021Z" fill="#BD5942"/>
<path d="M182.141 257.945C174.002 257.087 165.606 252.351 161.031 245.529L161.099 245.632C161.071 245.581 161.039 245.532 161.005 245.486C157.834 240.695 155.637 235.327 154.541 229.688V229.551V229.414V229.268V229.191C154.1 226.965 153.813 224.711 153.682 222.446V222.489C153.725 221.493 153.158 219.571 154.644 219.468C156.103 219.571 155.502 221.253 155.665 222.24V222.618C155.669 222.572 155.669 222.526 155.665 222.48C155.826 224.609 156.113 226.727 156.524 228.822V228.95V229.079C156.519 229.128 156.519 229.176 156.524 229.225C156.528 229.25 156.528 229.277 156.524 229.302C157.025 231.586 157.661 233.838 158.429 236.047C158.849 237.242 159.34 238.411 159.898 239.548L159.846 239.436C160.7 241.166 161.663 242.84 162.73 244.448L162.782 244.525C163.959 246.21 165.328 247.753 166.86 249.124C167.702 249.834 168.582 250.498 169.495 251.115C170.784 251.952 172.119 252.714 173.496 253.398C174.481 253.872 175.489 254.296 176.518 254.668L176.646 254.71C178.68 255.435 180.803 255.882 182.956 256.04C184.673 256.143 186.39 256.169 188.107 256.161C188.373 256.163 188.627 256.269 188.815 256.457C189.003 256.645 189.109 256.899 189.112 257.165C189.112 257.971 188.347 258.254 187.643 258.169C185.695 258.151 183.909 258.091 182.141 257.945Z" fill="#BD5942"/>
<path d="M176.131 250.128L175.711 249.759C172.766 247.288 170.98 243.795 169.701 240.251V240.174V240.131C169.238 238.51 168.517 236.828 168.671 235.111C168.691 234.972 168.739 234.838 168.812 234.719C168.886 234.599 168.984 234.496 169.1 234.416C169.216 234.337 169.347 234.282 169.485 234.256C169.624 234.23 169.766 234.232 169.903 234.264C170.04 234.296 170.169 234.356 170.281 234.44C170.394 234.524 170.488 234.631 170.557 234.753C170.626 234.876 170.669 235.011 170.683 235.151C170.696 235.291 170.681 235.433 170.637 235.566V235.841C170.637 236.004 170.689 236.158 170.714 236.313C170.714 236.313 170.714 236.27 170.714 236.244C170.953 237.376 171.257 238.494 171.624 239.591V239.522L171.676 239.677C172.422 241.69 173.377 243.62 174.526 245.434C174.869 245.915 175.247 246.361 175.633 246.807L175.573 246.739C176.082 247.303 176.624 247.836 177.196 248.335L177.118 248.275C177.23 248.36 177.333 248.463 177.445 248.558C177.653 248.732 177.784 248.982 177.808 249.252C177.832 249.522 177.748 249.791 177.574 249.999C177.399 250.208 177.15 250.338 176.879 250.362C176.609 250.387 176.34 250.302 176.131 250.128Z" fill="#BD5942"/>
<path d="M372.8 777.576L366.988 777.644L363.331 777.696L259.781 779.017C255.111 739.09 245.668 668.005 245.668 668.005L233.718 779.017H122.691C142.762 512.217 165.314 503.799 177.307 465.811L177.445 465.897C178.792 466.704 180.561 466.755 182.054 467.184C200.263 471.252 218.557 475.19 237.177 476.263C259.73 477.584 282.471 474.821 304.43 469.527C306.765 468.961 309.092 468.386 311.427 467.811C312.157 470.205 312.878 472.642 313.582 475.362L313.865 476.435C313.951 476.778 314.045 477.13 314.14 477.473C350.316 580.591 368.215 716.934 372.8 777.576Z" fill="#45526C"/>
<path d="M366.988 777.644L363.331 777.696C350.952 692.641 334.881 608.135 316.115 524.256C312.097 506.013 307.822 487.804 301.984 470.05L304.405 469.484C307.497 477.975 310.162 486.615 312.389 495.373C335.336 588.459 352.531 682.91 366.988 777.644Z" fill="#B4BBE4"/>
<path d="M183.969 467.527C157.168 528.538 146.978 595.024 140.797 660.917C137.105 700.244 133.783 739.605 130.418 778.966H126.838C133.088 715.363 136.461 649.796 146.729 586.752C153.597 545.683 163.787 504.717 182.064 467.116L183.969 467.527Z" fill="#B4BBE4"/>
</g>
</g>
<g clip-path="url(#clip1_48_2769)">
<path d="M233.711 148.985C232.409 148.921 231.141 148.687 229.988 148.298C228.835 147.909 227.821 147.372 227.008 146.722C226.36 146.083 226.01 145.34 226 144.58C226.01 144.138 226.159 143.702 226.439 143.298C226.439 143.298 226.439 143.335 226.439 143.35C227.317 141.842 228.337 140.333 229.167 138.825C229.153 138.864 229.133 138.901 229.108 138.938C231.35 134.616 233.616 130.218 234.138 125.64C234.138 125.64 234.138 125.678 234.138 125.7C234.268 124.886 234.138 124.064 234.434 123.264C234.429 123.221 234.443 123.177 234.474 123.139C234.506 123.1 234.553 123.068 234.612 123.045C234.657 123.03 234.706 123.021 234.757 123.018C234.807 123.016 234.858 123.02 234.906 123.031C234.954 123.041 234.998 123.058 235.035 123.08C235.072 123.102 235.102 123.129 235.122 123.158C235.558 123.91 235.724 124.714 235.609 125.512C235.476 128.708 234.832 131.887 233.687 135.001C232.885 137.621 231.693 140.187 230.128 142.664C229.605 143.631 228.84 144.537 227.862 145.349C227.866 145.334 227.866 145.319 227.862 145.304L227.767 145.402L227.696 145.515V145.478V145.515C227.7 145.548 227.7 145.581 227.696 145.613C227.696 145.613 227.696 145.674 227.696 145.711C227.684 145.756 227.684 145.802 227.696 145.847V145.9V145.968C227.699 145.985 227.699 146.003 227.696 146.021L227.839 146.134L228.112 146.3H228.052L228.515 146.541C228.776 146.654 229.049 146.76 229.321 146.858C229.594 146.956 230.199 147.114 230.638 147.227H230.721C231.46 147.378 232.213 147.499 232.975 147.589H232.821L234.434 147.808H234.316C234.648 147.853 234.992 147.884 235.324 147.936C235.511 147.968 235.675 148.039 235.791 148.138C235.908 148.236 235.968 148.357 235.964 148.48C235.964 148.962 235.146 149.091 234.529 149.06L233.711 148.985Z" fill="#8C5F4E"/>
</g>
<g clip-path="url(#clip2_48_2769)">
<path d="M383.979 158.884C382.566 154.572 382.766 149.893 382.733 145.408C383.329 137.567 383.224 129.614 384.143 121.82C385.168 116.235 387.836 111.083 389.882 105.836C391.604 101.555 392.936 96.955 395.645 93.1799C400.998 86.4662 408.005 81.2318 413.859 74.9659C415.947 73.2182 418.353 71.8915 420.946 71.059C421.154 70.9751 421.387 70.9703 421.599 71.0454C421.811 71.1206 421.988 71.2706 422.097 71.4672C423.194 73.8125 423.977 76.3561 424.728 78.8319C425.462 81.387 425.793 84.0413 425.708 86.6985C425.324 91.9736 423.659 97.096 423.5 102.417C428.181 87.6158 437.23 74.5775 449.459 65.0155C451.407 63.7002 453.588 62.7697 455.886 62.2741C457.662 61.8448 459.516 61.8542 461.287 62.3015C461.541 62.3654 461.775 62.4929 461.966 62.6722C462.157 62.8514 462.299 63.0764 462.378 63.3258C462.558 63.9179 462.632 64.5372 462.596 65.155C462.442 68.4962 461.397 71.7838 461.484 75.1299C461.51 78.1159 462.217 81.1148 461.892 84.1015C461.657 86.2558 460.927 88.325 460.559 90.4535C460.558 90.5734 460.523 90.755 460.628 90.8456C460.754 90.8781 460.907 90.7201 460.997 90.6474C462.721 88.8408 464.488 86.959 466.477 85.4288C469.545 83.0702 472.911 81.1267 476.488 79.6489C479.656 78.3641 482.935 77.3719 486.284 76.6846C495.463 75.0796 504.85 74.199 514.152 73.7512C514.389 73.7685 514.719 73.7171 514.866 73.945C514.897 74.1563 514.855 74.372 514.745 74.5553C514.502 75.0513 514.218 75.5262 513.896 75.9748C503.858 88.5419 490.565 98.5263 476.784 106.583L476.803 106.593C480.259 106.861 483.638 107.754 486.776 109.227C492.967 112.201 504.124 119.12 506.366 125.756C506.044 126.635 505.139 127.164 504.408 127.689C496.589 131.912 488.662 136.325 480.154 139.004C473.13 140.822 465.897 141.702 458.642 141.619C464.515 143.922 470.169 146.933 475.67 150.016C478.468 151.95 480.96 154.295 483.062 156.97C483.125 157.104 483.148 157.253 483.128 157.4C483.108 157.547 483.046 157.685 482.949 157.797C477.256 166.188 443.451 169.38 433.057 169.106C417.868 167.999 402.397 167.361 387.947 162.178L387.532 162.012L383.979 158.884Z" fill="#FBD69E"/>
<path d="M464.577 122.883C456.015 123.605 447.431 123.913 438.839 123.892C440.348 122.837 441.853 121.772 443.337 120.686C453.482 113.532 462.924 105.517 473.198 98.5494C475.49 97.8117 474.299 94.5477 472.151 95.4262C470.514 96.25 469.033 97.3558 467.545 98.4227C458.124 105.595 448.722 112.799 439.111 119.719C437.981 120.496 436.843 121.278 435.699 122.063C436.402 120.113 436.94 118.077 437.672 116.156C439.269 111.349 441.013 106.596 442.631 101.797C443.263 100.008 443.778 98.1527 444.663 96.4675C444.86 96.083 444.898 95.6362 444.767 95.2243C444.636 94.8125 444.348 94.469 443.965 94.2687C441.668 93.3284 441.107 96.5461 440.467 98.0655C437.873 105.57 435.265 113.07 432.727 120.595C432.369 121.965 431.367 123.362 431.728 124.792C420.759 132.286 409.799 139.726 399.296 147.936C403.397 133.542 405.712 118.619 410.096 104.282C410.861 103.038 409.352 101.337 407.982 102.032C406.577 102.933 406.626 104.929 406.052 106.362C402.443 119.719 399.842 133.325 396.296 146.706C396.069 147.918 395.393 149.233 395.933 150.438C385.779 157.965 375.405 165.225 365.017 172.422C364.217 172.95 363.565 173.845 363.727 174.844C365.185 177.432 368.418 173.729 370.115 172.844C379.071 166.681 387.922 160.377 396.665 153.932C397.239 154.133 397.85 154.211 398.456 154.159C412.614 154.206 426.77 154.488 440.927 154.478C442.658 154.335 444.516 154.731 446.174 154.178C446.771 153.871 447.627 153.148 447.215 152.379C445.858 150.233 442.013 151.52 439.79 151.226C426.775 151.165 413.761 151.014 400.743 150.914C404.049 148.457 407.341 145.98 410.62 143.482C418.234 137.699 426.313 132.463 434.247 127.058C434.787 127.511 435.589 127.499 436.276 127.257C443.627 126.955 451.001 127.231 458.347 126.586C461.591 126.378 464.831 126.121 468.07 125.885C468.992 125.867 469.992 125.497 470.443 124.645C471.056 121.662 466.28 122.884 464.577 122.883Z" fill="#B0C4A9"/>
<path d="M314.034 142.011C313.099 136.691 312.735 131.287 312.949 125.89C313.033 124.775 314.968 123.847 315.311 125.259C316.157 130.202 317.207 135.115 318.001 140.068C318.556 142.214 314.924 144.791 314.034 142.011ZM333.913 131.953C336.365 130.737 335.525 128.175 335.27 126.004C334.848 122.762 333.887 119.624 333.444 116.382C333.461 116.207 333.433 116.031 333.364 115.87C333.294 115.709 333.185 115.567 333.047 115.459C332.909 115.351 332.746 115.28 332.572 115.251C332.399 115.222 332.222 115.238 332.056 115.296C331.109 115.597 330.822 116.647 330.75 117.533C330.156 121.983 330.58 126.49 331.329 130.894C331.49 132.101 332.951 132.507 333.913 131.953ZM337.247 154.509C337.804 154.308 338.284 153.938 338.622 153.451C338.959 152.964 339.137 152.385 339.13 151.792C339.102 148.649 338.487 145.575 338.1 142.47C338.307 140.548 336.008 140.847 335.445 142.297C335.033 143.368 335.2 144.558 335.116 145.68C335.006 148.173 335.001 150.672 335.139 153.17C335.153 153.414 335.225 153.65 335.349 153.861C335.473 154.071 335.644 154.249 335.85 154.379C336.056 154.51 336.29 154.59 336.533 154.613C336.776 154.635 337.021 154.6 337.247 154.509ZM351.449 133.531C352.041 133.242 352.528 132.775 352.841 132.196C353.155 131.616 353.279 130.954 353.198 130.3C352.713 125.889 351.583 121.596 350.838 117.233C350.755 116.677 351.091 116.018 350.535 115.613C349.88 115.113 348.996 115.672 348.634 116.271C347.926 117.699 348.131 119.405 348.018 120.956C347.943 124.701 348.189 128.447 348.753 132.15C348.785 133.536 350.296 134.185 351.43 133.545L351.449 133.531ZM356.809 156.726C356.548 155.519 354.725 148.076 353.558 148.217C351.01 148.305 352.299 152.278 352.182 153.93C352.288 155.533 352.484 157.128 352.769 158.709C353.633 161.524 357.388 158.904 356.797 156.727L356.809 156.726ZM367.243 142.884C366.749 139.072 365.481 135.432 365.022 131.629C365.292 130.082 363.61 130.039 362.903 131.087C362.146 132.286 362.454 133.816 362.367 135.177C362.332 138.376 362.262 141.595 362.724 144.777C363.339 148.336 367.865 145.524 367.232 142.885L367.243 142.884Z" fill="#F8A488"/>
</g>
<defs>
<clipPath id="clip0_48_2769">
<rect width="445" height="762" fill="white" transform="translate(18 17)"/>
</clipPath>
<clipPath id="clip1_48_2769">
<rect width="10" height="26" fill="white" transform="translate(226 123)"/>
</clipPath>
<clipPath id="clip2_48_2769">
<rect width="168.61" height="162.47" fill="white" transform="translate(383.718) rotate(29.3839)"/>
</clipPath>
</defs>
</svg>
