<svg width="412" height="700" viewBox="0 0 412 700" fill="none" xmlns="http://www.w3.org/2000/svg">
<g id="Group 124">
<g id="Group 22">
<path id="Rectangle 3" d="M0 253C0 139.229 92.2293 47 206 47C319.771 47 412 139.229 412 253V677H0V253Z" fill="#EFE6DE"/>
</g>
<g id="Frame" clip-path="url(#clip0_48_2767)">
<path id="Vector" d="M264.416 32.3518C264.271 32.759 264.184 33.1837 264.05 33.5909C263.702 34.6963 263.342 35.8016 263.087 36.9244C259.424 46.9773 262.709 52.8996 263.951 54.5925C262.936 58.2751 257.567 78.631 259.082 93.8848C259.97 102.873 259.877 112.565 259.622 119.482C259.622 119.791 259.622 120.169 259.593 120.46C259.546 120.25 259.488 120.041 259.448 119.831C257.463 110.523 255.135 101.023 252.483 92.7503C249.313 83.1168 244.88 73.9476 239.303 65.4831C237.875 63.3015 236.465 61.3002 235.089 59.4386C231.406 54.3597 227.294 49.6085 222.797 45.2377C222.843 45.1679 222.919 45.1563 222.953 45.0633C223.145 44.6328 223.249 44.2488 223.394 43.8416C223.394 44.0045 223.36 44.115 223.36 44.115L225.536 44.4466C225.831 41.5326 225.617 38.5895 224.903 35.7492C224.793 35.342 224.758 34.9522 224.619 34.5334C224.039 32.7881 221.752 28.9077 218.542 25.5742C215.913 22.8283 212.675 20.4547 209.175 20.0242C205.339 19.5413 202.025 21.4321 199.309 25.6557C197.382 28.6634 196.987 31.5838 198.183 34.3472C200.603 40.0019 209.21 43.5332 215.315 45.4007C216.372 45.7264 217.318 45.9824 218.183 46.2268C219.686 46.6166 220.922 46.9016 221.462 47.0121C226.094 51.5696 230.318 56.5258 234.085 61.8238C234.636 62.5859 235.199 63.4528 235.762 64.2673C237.08 66.1871 238.386 68.229 239.709 70.4223C244.146 77.6482 247.728 85.3679 250.382 93.4252C253.357 103.005 255.83 112.734 257.794 122.571C254.781 118.499 249.187 112.641 239.175 105.578C238.92 105.398 238.74 105.241 238.484 105.06C237.678 104.479 236.912 104.025 236.116 103.49C227.764 97.8586 218.978 92.9019 209.842 88.6663C208.763 88.1718 207.747 87.7181 206.859 87.3342C204.608 86.3568 202.994 85.7227 202.216 85.4376C201.453 83.3067 200.583 81.2155 199.61 79.172C199.158 78.2121 198.647 77.2289 198.09 76.1992C195.368 71.1961 191.473 65.8322 186.563 64.1741C185.943 64.0603 185.313 64.0096 184.683 64.0229C183.591 63.8164 182.471 63.8047 181.375 63.988C179.85 64.313 178.405 64.9356 177.121 65.8205C174.335 67.7461 173.116 69.8929 173.493 72.2665C173.94 75.0415 176.801 77.6187 180.406 79.8876C181.433 80.5333 182.483 81.1442 183.609 81.7376C186.267 83.1139 188.999 84.3414 191.793 85.4143C192.768 85.7925 193.743 86.1648 194.607 86.4673C197.202 87.3865 199.198 87.9974 199.86 88.2126L200.307 86.6768L200.469 87.1712L200.98 87.3516C201.026 87.3516 202.547 87.9333 204.985 88.9631C205.873 89.3412 206.842 89.7601 207.991 90.2778C217.709 94.7031 227.03 99.9583 235.849 105.985C236.314 106.3 236.749 106.567 237.219 106.893C237.799 107.312 238.281 107.69 238.85 108.097C249.036 115.427 254.306 121.379 256.842 125.073C257.599 126.15 258.261 127.29 258.821 128.482C258.983 128.843 259.07 129.064 259.111 129.198C260.04 134.026 260.852 138.675 261.578 142.939C261.769 144.103 261.938 145.121 262.112 146.208C263.899 157.262 264.874 165.063 264.898 165.244L265.257 165.203C261.775 180.253 259.523 196.799 258.008 213.699C257.436 220.087 256.971 226.486 256.616 232.897L256.563 233.903C256.459 235.817 256.325 237.726 256.244 239.64C256.203 240.588 256.122 241.542 256.087 242.49C255.913 242.135 255.652 241.6 255.461 241.199C254.956 240.169 254.445 239.133 253.824 237.824C247.985 225.607 237.428 202.093 231.874 180.759C231.015 177.449 230.336 174.296 229.761 171.259C229.517 169.991 229.361 168.833 229.181 167.617C229.001 166.402 228.775 165.046 228.6 163.807C228.426 162.568 228.258 161.27 228.136 160.066C227.741 156.232 227.556 152.8 227.556 149.664C227.422 139.297 228.751 132.793 229.036 131.589C230.44 129.72 231.743 127.778 232.942 125.771C235.89 120.873 239.071 114.06 237.277 109.691C236.927 108.876 236.395 108.151 235.722 107.574C234.384 106.434 232.728 105.738 230.98 105.578C227.724 105.159 225.275 105.968 223.702 107.987C222.251 109.837 221.833 112.577 221.874 115.503C221.896 116.821 222 118.137 222.187 119.442C222.35 120.559 222.53 121.641 222.768 122.705C223.214 124.753 223.731 126.65 224.195 128.133C224.776 129.966 225.246 131.211 225.315 131.391L225.809 131.199C226.113 131.384 226.476 131.446 226.824 131.374C226.291 133.648 224.578 142.718 225.664 156.837C225.948 160.584 226.436 164.662 227.202 169.107C227.236 169.287 227.254 169.456 227.283 169.642C227.509 170.899 227.776 172.207 228.049 173.522C228.566 176.047 229.088 178.578 229.79 181.295C232.632 191.775 236.109 202.072 240.202 212.128C232.56 207.142 226.048 200.601 221.09 192.93C220.417 191.894 219.744 190.836 219.071 189.777C218.31 188.613 217.556 187.397 216.801 186.193C216.771 186.153 216.744 186.11 216.72 186.065C212.402 179.194 208.351 172.493 205.617 167.902C204.578 166.157 203.725 164.732 203.145 163.737L202.396 162.475C203.093 159.316 206.836 140.949 200.736 135.01C198.821 133.142 196.209 132.63 192.971 133.491C192.773 133.544 192.628 133.625 192.448 133.683C191.358 134.004 190.331 134.512 189.413 135.184C188.983 135.513 188.594 135.892 188.252 136.313C187.638 137.012 187.175 137.833 186.894 138.721C186.842 138.902 186.894 139.123 186.854 139.303C186.854 139.355 186.854 139.419 186.854 139.478C185.977 144.068 188.943 150.118 192.21 155.075C193.11 156.436 193.981 157.663 194.828 158.792C196.888 161.526 198.612 163.493 198.815 163.714L199.129 163.429L200.139 162.51L200.063 162.824L200.289 163.208C200.289 163.254 201.264 164.871 202.721 167.327L205.234 171.533C208.049 176.227 211.734 182.284 215.594 188.404L215.907 188.898C216.668 190.097 217.422 191.272 218.183 192.453C218.542 193.035 218.896 193.576 219.256 194.128C220.417 195.926 221.618 197.619 222.831 199.137C220.487 199.41 218.128 199.525 215.768 199.48C214.694 199.48 213.621 199.48 212.286 199.411C212.048 199.411 211.752 199.376 211.502 199.364C209.802 199.277 207.974 199.166 205.855 198.969C205.681 198.969 205.524 198.928 205.356 198.91C204.195 198.794 203.035 198.649 201.955 198.486L200.643 198.288C198.786 197.98 197.074 197.619 195.466 197.229C194.793 197.066 194.097 196.915 193.476 196.746C192.576 196.502 191.769 196.252 190.968 195.996C188.178 195.147 185.46 194.074 182.843 192.784C182.443 191.999 181.317 189.876 179.767 187.362C176.952 182.708 172.611 176.629 167.881 173.266C166 171.934 164.079 170.939 162.164 170.811C159.576 170.643 157.295 171.858 155.339 174.302C155.217 174.453 155.089 174.593 154.967 174.75C154.846 174.907 154.671 175.081 154.532 175.291C153.951 176.156 153.476 177.088 153.116 178.066C152.704 179.047 152.5 180.104 152.517 181.168C152.534 182.233 152.772 183.282 153.215 184.25C153.793 185.419 154.598 186.462 155.583 187.316C157.493 188.906 159.649 190.174 161.967 191.068C163.953 191.915 165.993 192.63 168.072 193.209C170.191 193.791 172.164 194.192 173.992 194.535L174.387 194.605C177.701 195.187 180.237 195.49 180.533 195.519L180.661 194.192C180.78 194.175 180.895 194.14 181.003 194.088L181.16 194.39L181.45 194.559C184.244 195.978 187.157 197.146 190.156 198.049C191.404 198.439 192.762 198.817 194.219 199.213C194.828 199.37 195.414 199.521 196.064 199.667C197.48 199.989 198.986 200.278 200.58 200.533C201.108 200.615 201.706 200.667 202.257 200.743C203.36 200.894 204.445 201.057 205.623 201.168H205.652C207.66 201.354 209.251 201.424 210.876 201.511L211.491 201.552C212.75 201.61 213.882 201.65 214.938 201.668C220.162 201.738 223.145 201.36 224.369 201.086C232.228 210.394 239.993 214.63 240.388 214.845L240.875 213.937C245.252 224.746 249.634 234.194 252.547 240.239C253.197 241.583 253.777 242.758 254.259 243.729C255.124 245.475 255.71 246.638 255.919 247.022C255.693 253.928 255.577 260.781 255.542 267.523C255.513 267.715 255.495 267.843 255.495 267.855H255.542C255.449 287.932 256.122 306.938 257.01 323.122C257.26 327.701 257.527 332.018 257.805 336.096C258.386 344.526 258.966 351.803 259.483 357.54C259.773 360.774 260.03 363.489 260.255 365.684C260.527 368.395 260.736 370.338 260.835 371.211C261.491 370.583 262.205 369.908 262.843 369.285C262.355 364.783 261.253 353.845 260.185 338.714C260.452 337.387 261.821 330.738 264.131 321.668C264.816 320.342 270.899 308.869 283.684 295.436C297.033 281.41 305.704 279.461 305.919 279.409C308.565 278.513 331.862 270.421 333.818 261.648C334.131 260.246 334.044 258.157 331.85 256.022C331.027 255.175 330.012 254.539 328.892 254.169C327.771 253.8 326.578 253.707 325.414 253.899C315.483 255.417 304.346 275.424 303.876 276.296L305.542 277.216L305.35 277.28C304.979 277.355 296 279.298 282.094 293.912C276.204 300.056 270.887 306.728 266.209 313.843C269.651 301.4 274.445 286.541 280.301 274.691C280.434 274.417 280.562 274.22 280.696 273.952C285.733 263.922 290.417 257.529 294.172 253.544C294.561 253.131 294.897 252.828 295.263 252.467C298.409 249.355 300.771 247.918 301.949 247.365L302.21 247.232C302.352 247.426 302.538 247.584 302.753 247.691C302.968 247.799 303.206 247.852 303.446 247.848L303.493 248.372C306.093 248.145 329.03 245.894 332.193 237.318C333.191 234.654 332.193 231.762 329.291 228.726C326.076 225.392 322.645 224.072 319.094 224.758C313.214 225.922 308.322 232.542 305.205 237.993C303.908 240.25 302.745 242.581 301.723 244.974C300.792 245.367 299.899 245.842 299.053 246.394C298.554 246.708 297.991 247.127 297.393 247.557C293.33 250.6 287.126 257.063 280.15 270.188L280.045 270.386C279.465 271.491 278.885 272.451 278.304 273.655C276.865 276.564 275.513 279.688 274.207 282.876C267.184 300.009 262.094 319.987 259.633 330.726C259.546 329.342 259.471 327.765 259.39 326.328C259.181 322.762 258.978 319.149 258.809 315.275C258.13 300.87 257.649 284.656 257.736 267.657C258.095 265.284 260.249 252.252 265.757 234.375C265.896 234.142 266.267 233.525 266.784 232.693C271.548 225.186 276.721 217.947 282.28 211.011C284.102 208.733 286.118 206.617 288.304 204.687C296.134 197.706 304.735 193.994 308.919 192.226C309.838 191.875 310.734 191.465 311.601 190.998C314.387 191.202 329.471 191.987 334.114 186.152C335.594 184.291 335.913 181.999 335.06 179.334C334.207 176.67 332.738 175.174 330.597 174.68C323.284 173.074 311.351 185.803 310.016 187.258L311.137 188.293C311.094 188.418 311.076 188.551 311.084 188.683L310.881 188.642L310.51 189.055C309.718 189.476 308.902 189.849 308.066 190.172C303.847 191.952 295.251 195.618 287.283 202.605C284.829 204.719 282.576 207.056 280.55 209.586C275.164 216.421 271.177 222.018 268.432 226.073C268.885 224.752 269.337 223.426 269.825 222.07C272.884 213.758 276.592 205.701 280.916 197.974C285.996 188.738 291.683 179.85 297.939 171.37L298.119 171.137L298.159 170.84C298.159 170.84 298.159 170.736 298.194 170.602C298.342 170.694 298.509 170.753 298.682 170.776L299.233 172.207C301.154 171.469 318.06 164.773 318.513 157.745C318.658 155.505 317.242 153.568 314.317 151.98C311.084 150.234 308.101 150.042 305.431 151.398C302.762 152.753 300.91 155.406 299.5 158.344C297.962 159.798 297.503 161.835 297.405 163.946C296.805 166.012 296.341 168.115 296.018 170.241C289.689 178.855 283.935 187.878 278.792 197.252C275.227 203.691 272.062 210.343 269.314 217.172L272.883 199.952L272.994 199.416L273.615 196.426L276.94 180.375V179.933C276.894 179.695 276.842 179.439 276.795 179.165L278.2 180.294C279.483 178.688 290.655 164.394 288.008 157.134C287.271 155.115 285.611 153.847 283.052 153.329C280.492 152.812 278.409 153.387 276.813 154.999C271.229 160.613 274.3 177.862 274.741 180.143L271.34 196.548L270.672 199.76L270.428 200.923L263.638 233.676C263.505 234.119 263.389 234.526 263.261 234.962C260.852 242.897 259.094 249.855 257.887 255.277C258.02 248.878 258.258 242.426 258.577 235.969C259.094 225.538 259.871 215.107 260.98 204.879C262.57 190.213 264.816 175.977 267.979 162.928C274.264 154.824 281.297 147.331 288.983 140.548C289.378 140.193 289.744 139.844 290.144 139.489L296.731 137.849C304.125 135.993 316.383 132.892 328.107 129.785C339.224 126.839 349.933 122.518 359.987 116.923L360.26 116.76L360.498 117.638C362.878 116.998 383.783 111.163 385.82 102.774C386.4 100.447 385.512 98.1898 383.214 96.0838C380.794 93.8731 378.176 93.0877 375.437 93.7568C366.685 95.822 359.656 112.466 358.542 115.241C348.89 120.544 338.642 124.675 328.014 127.546L327.544 127.679C322.698 128.965 317.747 130.251 313.081 131.449L307.277 132.938C301.914 134.3 297.219 135.481 293.998 136.289C294.851 135.591 295.849 134.946 296.737 134.259C301.108 130.885 305.702 127.81 310.486 125.056C312.048 124.154 313.51 123.147 315.129 122.321C328.327 115.584 338.496 106.643 345.64 98.9926C346.412 98.1607 347.161 97.3521 347.857 96.5551C351.623 92.3814 355.027 87.8932 358.031 83.1396L358.124 82.9768L358.159 82.7906C358.159 82.7556 358.345 81.9121 358.676 80.6322C358.753 80.8345 358.876 81.016 359.035 81.1624C359.194 81.3088 359.385 81.4161 359.593 81.4758C359.922 81.5494 360.255 81.6038 360.591 81.6387C359.831 81.8481 359.134 82.0285 358.554 82.1681L359.059 84.3148C361.16 83.8203 379.627 79.2592 381.2 71.6614C381.723 69.1308 380.405 66.6641 377.277 64.3371C373.905 61.8122 370.66 61.1315 367.642 62.2951C359.784 65.3377 356.453 80.2018 356.035 82.1739C353.144 86.6988 349.889 90.9793 346.302 94.9727C345.528 95.8337 344.723 96.7179 343.887 97.6255L343.812 97.707C336.847 105.142 326.929 113.793 314.12 120.332C313.412 120.692 312.756 121.117 312.059 121.495C304.218 125.796 296.844 130.902 290.057 136.732C287.975 138.508 286.01 140.253 284.16 141.967C278.89 146.892 273.928 152.138 269.303 157.675C270.487 153.11 271.736 148.65 273.052 144.294C273.417 143.079 273.818 141.933 274.213 140.74C277.747 129.43 281.636 118.802 285.716 109.063C287.19 106.969 298.56 91.2901 315.733 80.7893C331.984 70.8528 348.124 56.4134 352.117 52.76C352.22 52.9567 352.377 53.1199 352.569 53.2302C352.762 53.3405 352.981 53.3933 353.203 53.3824L353.005 54.1329C353.377 54.2318 354.886 54.4471 358.734 52.9694C361.577 51.8931 373.824 43.7776 374.247 36.6394C374.357 34.7544 373.667 32.0957 369.819 30.1177C367.288 28.8146 364.822 28.7215 362.494 29.8502C355.251 33.3698 351.844 47.9488 351.299 50.4853C349.024 52.5912 331.856 68.3163 314.59 78.8753C303.267 85.7983 294.416 94.9203 289.152 101.11C308.768 57.257 330.539 31.9503 330.846 31.6013L331.206 31.1882L331.096 30.653C331.092 30.6007 331.092 30.5482 331.096 30.4959C333.47 32.1016 338.24 30.6472 342.065 29.0531C340.572 29.8272 338.989 30.4134 337.352 30.7984C333.47 31.578 332.425 31.1126 332.558 31.2115L331.09 32.8579C331.583 33.3 333.116 33.905 337.788 32.9626C343.487 31.799 354.45 25.6266 353.934 16.5336C353.702 12.3391 351.473 8.97069 347.973 7.55118C343.818 5.86407 338.652 7.17888 334.497 10.9894C327.294 17.5982 328.461 28.0409 328.867 30.5657C325.919 34.0563 304.886 59.8924 286.18 102.448C286.801 95.7872 288.333 84.6929 292.094 73.6045C298.072 55.9596 304.735 27.4882 304.799 27.2031L304.909 26.7377L304.642 26.3421C304.642 26.3421 304.526 26.156 304.369 25.8884C304.583 25.838 304.781 25.7384 304.95 25.5975C306.354 24.434 307.77 23.2704 309.082 22.0138C307.909 23.3553 306.622 24.5914 305.234 25.708L306.546 27.4533C306.882 27.2031 314.752 21.2459 317.056 12.0482C318.287 7.09743 316.598 2.32116 312.936 0.412981C309.401 -1.41957 305.17 -0.0291556 301.624 4.12463C294.329 12.6765 301.044 24.7016 302.524 27.1101C301.978 29.4371 299.395 40.2637 296.186 52.0619C294.271 59.0954 292.123 66.443 290.086 72.5457C290.051 72.6388 290.016 72.7552 289.982 72.8483C284.131 90.115 283.597 107.388 283.551 108.493C279.361 118.511 275.391 129.436 271.787 141.112C271.415 142.276 271.026 143.439 270.672 144.661C269.192 149.618 267.77 154.679 266.47 159.903C266.006 156.541 265.269 151.497 264.311 145.58C264.143 144.545 263.946 143.41 263.766 142.322C263.052 138.035 262.257 133.485 261.322 128.622C261.357 128.226 261.537 125.829 261.705 122.385C261.816 120.134 261.909 117.429 261.967 114.38C262.141 107.344 261.916 100.303 261.293 93.2914C259.709 77.2406 266.174 54.5052 266.238 54.2725L266.331 53.9642L266.482 54.0456L266.412 54.1039L267.782 55.8492L270.858 53.3882L271.787 52.6495C271.908 52.5506 278.827 46.9016 283.447 40.7698C286.749 36.395 288.891 31.7816 286.517 28.7623C285.202 27.172 283.506 25.943 281.587 25.1909C279.668 24.4389 277.59 24.1883 275.547 24.463C272.99 24.8414 270.6 25.9664 268.676 27.6977C268.467 27.7907 268.322 27.9595 268.124 28.0642C267.247 28.487 266.465 29.0856 265.827 29.823C265.189 30.5605 264.709 31.4211 264.416 32.3518ZM208.885 22.2291C211.096 22.5083 213.273 23.7882 215.234 25.4636C211.943 23.2297 207.689 21.9731 204.323 23.4682C205.632 22.4908 207.263 22.0479 208.885 22.2291ZM204.329 26.4702C205.037 25.9845 205.843 25.6622 206.69 25.5264C207.537 25.3906 208.404 25.4447 209.227 25.6847C207.312 25.6847 204.944 26.1735 203.365 27.2672C203.668 26.9801 203.99 26.7138 204.329 26.4702ZM214.248 35.2373C213.255 34.4403 212.222 33.684 211.154 32.9452C211.815 33.0528 212.44 33.3169 212.978 33.7156C213.516 34.1142 213.951 34.6359 214.248 35.2373ZM209.854 35.2373C210.637 35.7333 211.385 36.2813 212.094 36.8778C211.514 36.4648 210.678 35.883 209.645 35.1325L209.854 35.2373ZM175.67 71.9698C175.437 70.5096 176.32 69.1075 178.374 67.688C178.531 67.5833 178.682 67.5193 178.833 67.4262C178.519 67.7924 178.25 68.1947 178.032 68.6246C176.093 70.2885 175.762 71.9872 176.395 73.6511C176.039 73.1365 175.792 72.5544 175.67 71.9407V71.9698ZM181.711 70.2245C181.793 70.1314 181.891 70.05 181.978 69.9569C181.978 70.0733 181.978 70.1838 181.949 70.3001L181.711 70.2245ZM186.813 69.1308C186.726 69.1308 186.639 69.1308 186.558 69.1308C186.476 69.1308 186.558 69.0551 186.558 69.0202C186.621 69.0144 186.714 69.0668 186.813 69.125V69.1308ZM187.393 76.0363C187.904 76.7751 188.392 77.5256 188.827 78.3052L188.125 77.8514C188.075 77.5999 187.952 77.3689 187.771 77.1882C187.193 76.6244 186.696 75.982 186.296 75.28C186.668 75.4894 187.057 75.7396 187.393 76.0072V76.0363ZM199.262 85.7459C199.415 85.4653 199.462 85.1393 199.396 84.8267C199.065 83.6687 198.607 82.5508 198.032 81.4932C197.533 80.5275 197.01 79.5676 196.476 78.5844C195.742 77.3423 195.132 76.0309 194.654 74.6692C195.403 75.8327 196.082 77.0776 196.691 78.2702C197.237 79.3174 197.73 80.3472 198.159 81.2955C199.088 83.3549 199.744 85.0711 200.069 85.9496C199.825 85.8972 199.535 85.8041 199.245 85.7168L199.262 85.7459ZM235.321 114.741C235.321 114.578 235.321 114.415 235.321 114.246C235.435 113.739 235.514 113.223 235.559 112.705C235.543 113.38 235.463 114.052 235.321 114.712V114.741ZM224.05 117.068C223.801 113.95 224.079 111.111 225.403 109.418C225.789 108.946 226.277 108.568 226.83 108.312C226.591 108.494 226.378 108.707 226.198 108.947C224.538 111.576 224.741 114.817 224.573 117.848C224.573 117.97 224.573 118.098 224.573 118.22C224.532 118.866 224.497 119.506 224.456 120.151C224.265 119.104 224.131 118.069 224.05 117.062V117.068ZM199.895 141.927C200.659 144.456 200.937 147.107 200.713 149.74C200.574 147.686 200.336 145.627 200.069 143.544C199.999 143.009 199.947 142.456 199.895 141.921V141.927ZM194.729 141.927C194.898 142.642 195.06 143.352 195.223 144.068C195.072 143.876 194.909 143.689 194.758 143.486C194.607 143.282 194.352 142.951 194.114 142.7C194.248 142.526 194.358 142.392 194.48 142.241C194.602 142.09 194.648 142.02 194.729 141.921V141.927ZM192.216 151.043C190.69 148.384 189.425 145.667 188.943 143.253C189.845 145.272 190.854 147.241 191.967 149.152C192.06 149.321 192.147 149.49 192.234 149.658L193.145 151.404L196.117 157.041C195.252 155.877 194.375 154.592 193.551 153.277C193.087 152.526 192.646 151.782 192.216 151.037V151.043ZM195.176 149.333C194.718 148.466 193.928 147.18 193.186 145.784C194.709 147.565 195.89 149.615 196.668 151.828C196.842 152.282 197.074 152.713 197.248 153.172L196.807 152.334L195.176 149.333ZM173.766 189.812C173.836 189.765 173.899 189.701 173.963 189.649L174.062 189.567C174.161 189.695 174.271 189.823 174.369 189.957L174.039 189.876L173.766 189.812ZM160.052 182.284C160.794 183.127 161.555 183.936 162.373 184.698L160.202 182.999C160.121 182.732 160.092 182.516 160.052 182.278V182.284ZM161.949 173.086C162.1 173.086 162.257 173.144 162.408 173.167H162.466C162.704 173.208 162.93 173.226 163.168 173.29C163.29 173.324 163.412 173.383 163.528 173.423C163.152 173.433 162.778 173.472 162.408 173.54H162.298C161.242 173.547 160.199 173.774 159.235 174.206C158.271 174.637 157.407 175.264 156.697 176.047C158.264 173.964 159.982 172.952 161.949 173.08V173.086ZM155.136 183.36C154.883 182.809 154.728 182.219 154.677 181.615C155.194 184.023 157.434 186.205 160.4 188.014C157.939 186.74 155.995 185.198 155.136 183.36ZM325.495 259.21C326.505 259.001 327.161 259.123 327.515 259.536C327.002 259.637 326.496 259.771 326 259.937C325.948 259.778 325.861 259.633 325.744 259.513C325.627 259.392 325.484 259.301 325.327 259.245C325.379 259.233 325.431 259.216 325.489 259.21H325.495ZM323.754 264.487C324.474 264.109 325.205 263.765 325.948 263.428L324.59 264.382L322.268 266.005C322.737 265.47 323.237 264.963 323.766 264.487H323.754ZM327.323 265.819C330.405 263.655 333.441 260.67 329.645 257.441C328.403 256.383 326.789 256.144 325.101 256.342C325.307 256.277 325.516 256.222 325.727 256.179C326.451 256.056 327.194 256.089 327.904 256.278C328.815 256.542 329.644 257.035 330.312 257.709C331.473 258.844 331.931 260.007 331.647 261.258C330.875 264.748 325.211 268.483 319.105 271.573C321.885 269.693 324.607 267.739 327.335 265.819H327.323ZM307.886 276.134C307.933 276.226 307.99 276.314 308.055 276.395C307.776 276.5 307.474 276.611 307.225 276.704C307.46 276.527 307.684 276.336 307.898 276.134H307.886ZM306.145 276.878C306.283 276.935 306.432 276.957 306.58 276.942L306 277.157L306.145 276.878ZM327.834 234.73C327.846 234.549 327.846 234.369 327.834 234.188C327.863 234.188 327.875 234.124 327.892 234.107C327.91 234.317 327.889 234.528 327.828 234.73H327.834ZM319.535 227.044C320.612 226.827 321.725 226.865 322.785 227.155C323.669 227.409 324.507 227.802 325.269 228.318C323.627 227.834 321.904 227.695 320.206 227.909C318.508 228.123 316.873 228.686 315.402 229.563C314.3 230.256 313.254 231.034 312.274 231.891C314.416 229.482 316.888 227.568 319.529 227.044H319.535ZM314.921 234.724C315.217 234.526 315.536 234.363 315.838 234.177C315.687 234.351 315.542 234.532 315.396 234.706L314.996 235.108C313.654 236.025 312.252 236.851 310.8 237.58C312.129 236.353 314.033 235.329 314.915 234.724H314.921ZM330.132 177.036C330.51 177.133 330.868 177.297 331.189 177.519C329.186 177.147 326.546 178.299 324.857 179.165C323.057 180.09 321.241 180.911 319.482 181.76C323.243 178.834 327.37 176.431 330.127 177.036H330.132ZM319.012 187.508C318.995 187.614 318.995 187.722 319.012 187.828C318.629 187.915 318.252 187.985 317.852 188.049C318.223 187.863 318.623 187.694 319.007 187.514L319.012 187.508ZM306.453 153.597C308.461 152.567 310.695 152.742 313.278 154.144C315.385 155.307 316.412 156.523 316.325 157.826C316.261 158.809 315.605 159.88 314.584 160.974C315.106 159.686 315.127 158.25 314.644 156.947C314.16 155.645 313.207 154.572 311.972 153.94C309.651 152.678 306.447 154.254 303.847 155.819C304.559 154.916 305.443 154.162 306.447 153.603L306.453 153.597ZM306.302 157.978C306.331 157.883 306.347 157.785 306.348 157.687L307.323 157.25C306.882 157.832 306.424 158.367 305.948 158.903C306.035 158.594 306.192 158.298 306.296 157.983L306.302 157.978ZM300.283 162.777C300.292 162.535 300.339 162.295 300.423 162.067C300.44 162.032 300.453 161.995 300.463 161.957C300.859 161.155 301.46 160.473 302.204 159.979C301.827 161.072 301.387 162.142 300.887 163.184C300.701 163.539 300.498 163.859 300.307 164.173C300.272 163.714 300.266 163.248 300.278 162.789L300.283 162.777ZM302.239 165.837C302.528 165.805 302.801 165.692 303.029 165.511C303.209 165.36 303.377 165.203 303.551 165.058V165.092C303.566 165.273 303.615 165.448 303.696 165.61C303.04 165.948 302.384 166.279 301.723 166.605C301.879 166.349 302.048 166.093 302.233 165.843L302.239 165.837ZM285.942 158.135C285.976 158.389 285.991 158.646 285.989 158.903C285.919 158.463 285.786 158.036 285.594 157.634C285.722 157.815 285.872 157.937 285.942 158.135ZM286.064 160.334C286.042 160.992 285.959 161.646 285.814 162.288C285.953 161.645 286.037 160.991 286.064 160.334ZM278.374 156.797C278.963 156.21 279.723 155.827 280.545 155.703C275.942 156.919 276.018 166.681 275.954 172.882C275.443 166.861 275.577 159.618 278.374 156.797ZM375.953 96.1478C376.07 96.1478 376.174 96.1478 376.29 96.1071C374.457 96.829 372.735 97.8084 371.177 99.0159C372.495 97.6625 374.141 96.6744 375.953 96.1478ZM373.22 100.802C372.802 101.227 372.39 101.64 371.995 102.047C371.415 102.448 370.805 102.885 370.254 103.333C371.181 102.415 372.172 101.565 373.22 100.79V100.802ZM370.817 106.928C370.753 107.12 370.707 107.329 370.643 107.51C370.063 107.911 369.482 108.301 368.902 108.673L370.817 106.928ZM364.218 114.438C364.259 114.438 364.305 114.438 364.352 114.438L364.038 114.543L364.218 114.438ZM361.142 115.02C361.254 115.145 361.39 115.246 361.543 115.317L360.962 115.503L361.142 115.02ZM375.391 65.9834C375.588 66.1172 375.774 66.1987 375.971 66.3499C378.292 68.0952 379.337 69.7882 379.047 71.3822C378.675 70.2424 378.084 69.1869 377.306 68.2756C376.71 67.4749 376.071 66.7077 375.391 65.9776V65.9834ZM373.232 67.7287C373.516 68.008 373.771 68.3105 374.021 68.5665C373.654 68.7364 373.299 68.9307 372.959 69.1482C373.077 68.6866 373.168 68.2185 373.232 67.7462V67.7287ZM362.587 78.9451C362.831 78.6542 363.063 78.3633 363.307 78.055C363.457 78.2807 363.668 78.4584 363.916 78.567C363.476 78.7633 363.018 78.9135 362.547 79.0149C362.559 78.9965 362.572 78.979 362.587 78.9626V78.9451ZM361.693 43.9346C363.472 41.9888 365.47 40.2571 367.648 38.7744C366.157 40.6826 363.725 42.5326 361.693 43.9521V43.9346ZM363.435 32.1656C364.071 31.8527 364.762 31.6686 365.469 31.6236C366.176 31.5787 366.885 31.6739 367.555 31.9038C363.864 31.1475 361.235 34.545 358.768 37.2618C358.507 37.5469 358.321 37.8436 358.078 38.1344C359.529 35.4991 361.31 33.2186 363.44 32.183L363.435 32.1656ZM363.806 38.1984C362.118 39.6129 360.53 41.1427 359.053 42.7769C360.303 40.9391 361.924 39.3851 363.812 38.2159L363.806 38.1984ZM341.281 21.6938C340.888 22.1069 340.469 22.4955 340.028 22.8574C340.423 22.328 340.788 21.816 341.119 21.339C341.152 21.4724 341.209 21.5986 341.287 21.7113L341.281 21.6938ZM345.24 21.5775C345.095 21.7404 344.897 21.9149 344.729 22.0836C345.858 20.3694 346.617 18.4373 346.958 16.4115C347.358 18.2731 346.824 20.0009 345.246 21.595L345.24 21.5775ZM348.855 10.9662C349.728 11.7087 350.433 12.6294 350.922 13.6667C351.412 14.7041 351.675 15.8342 351.694 16.9816C351.76 18.3519 351.511 19.7191 350.968 20.9783C351.734 17.4353 351.055 13.363 348.861 10.9836L348.855 10.9662ZM335.936 12.9383C338.414 10.6636 341.258 9.44775 343.905 9.38957C339.199 10.544 335.129 13.4959 332.564 17.6157C333.373 15.8546 334.521 14.2709 335.942 12.9558L335.936 12.9383ZM334.166 20.0242C335.079 18.1389 336.411 16.4889 338.06 15.2014C336.593 16.9028 335.218 18.6816 333.94 20.5303L334.166 20.0242ZM342.181 14.5265C342.525 13.9296 343.061 13.4679 343.702 13.2176C340.707 16.3009 337.265 22.2116 334.764 24.4863C336.621 20.8387 339.564 17.7204 342.187 14.544L342.181 14.5265ZM310.585 13.1827C310.109 14.1891 309.622 15.0908 309.314 15.7133C308.622 17.0618 307.847 18.3656 306.993 19.617C307.903 17.5668 308.964 15.5872 310.167 13.6946C310.33 13.4561 310.486 13.2408 310.649 13.0139C310.62 13.0838 310.603 13.1419 310.591 13.2001L310.585 13.1827ZM314.648 5.99789C315.341 7.87712 315.439 9.92528 314.926 11.8621C314.719 12.6228 314.467 13.3706 314.172 14.1018C314.265 13.6948 314.337 13.2831 314.387 12.8685C314.503 11.5595 314.683 10.2913 314.776 9.09287C314.993 8.07129 314.941 7.01067 314.625 6.01536L314.648 5.99789ZM311.166 6.39931C311.229 6.4633 311.293 6.50402 311.357 6.57383C310.592 8.37225 309.574 10.0513 308.333 11.5595C308.968 9.69171 309.927 7.95081 311.166 6.41678V6.39931ZM304.961 13.1885C305.148 11.353 305.806 9.5973 306.871 8.09225C306.091 9.73972 305.452 11.4504 304.961 13.2059V13.1885ZM303.278 5.92226C303.446 5.72446 303.62 5.56156 303.789 5.3754C303.088 6.39386 302.493 7.48163 302.013 8.62164C300.724 11.769 301.235 14.0204 301.52 17.2783C301.682 19.1865 301.787 20.6932 302.332 22.1883C300.533 17.796 298.96 10.9952 303.278 5.93973V5.92226ZM302.495 22.5607C302.67 23.0039 302.882 23.432 303.127 23.8406L303.087 23.8754C302.895 23.4857 302.698 23.0494 302.495 22.5839V22.5607ZM265.53 52.981C265.408 52.8007 265.269 52.568 265.124 52.3062C265.249 52.4732 265.41 52.6103 265.594 52.7076C265.554 52.7993 265.532 52.8982 265.53 52.9985V52.981ZM275.814 32.8288C274.503 35.2547 272.332 37.1222 270.521 39.2282C271.525 36.3543 273.121 33.9167 275.814 32.8462V32.8288Z" fill="#773532"/>
<path id="Vector_2" d="M330.336 700C330.336 699.698 327.294 669.853 335.043 643.959C342.686 618.437 357.283 554.269 353.644 518.822C350.318 486.429 340.463 465.16 334.572 452.449L333.209 449.487C327.149 436.2 295.484 384.179 285.194 384.179H285.101C284.65 384.176 284.207 384.296 283.819 384.527C283.432 384.757 283.114 385.09 282.901 385.488C278.566 392.597 287.881 422.203 294.398 435.956C298.873 445.398 302.837 449.738 305.205 452.326C306.325 453.554 307.138 454.444 307.527 455.381C308.397 457.411 312.878 492.899 311.792 495.069L309.546 493.94C309.9 491.648 306.203 458.813 305.217 456.37C304.692 455.517 304.06 454.735 303.336 454.043C300.876 451.343 296.755 446.835 292.118 437.049C286.691 425.594 275.333 393.051 280.742 384.185C281.174 383.429 281.795 382.799 282.544 382.357C283.293 381.915 284.145 381.677 285.014 381.666H285.141C297.863 381.666 330.678 437.91 335.484 448.44L336.842 451.39C342.796 464.247 352.762 485.76 356.128 518.572C359.807 554.397 345.13 619.013 337.44 644.686C329.837 670.092 332.797 699.448 332.797 699.738L330.336 700Z" fill="#773532"/>
<path id="Vector_3" d="M314.741 497.384C314.346 497.384 304.956 496.668 293.603 483.171C287.596 476.027 283.046 468.534 278.229 460.599C274.166 453.874 269.918 446.916 264.654 440.034C253.226 425.117 243.006 379.862 242.646 359.349C242.321 341.233 234.718 262.119 221.45 250.1C221.042 249.67 220.55 249.328 220.005 249.097C219.46 248.866 218.873 248.75 218.281 248.756C206.192 249.768 211.346 317.666 214.114 354.142C214.88 364.201 215.536 372.887 215.809 378.995C216.848 402.347 225.838 430.621 230.162 444.205C231.172 447.381 231.752 449.237 232.065 450.383C232.582 450.005 233.18 449.534 233.719 449.121C237.126 446.462 239.68 444.583 241.479 444.583V447.108C240.4 447.108 236.929 449.807 235.263 451.11C232.402 453.339 231.537 454.019 230.51 453.373L229.889 451.832C229.825 451.454 228.867 448.452 227.765 444.973C223.412 431.284 214.346 402.795 213.296 379.106C213.029 373.038 212.367 364.37 211.607 354.334C207.33 298.014 204.608 247.371 218.067 246.248C219.808 246.097 221.52 246.766 223.133 248.232C237.956 261.654 244.875 343.589 245.159 359.302C245.507 379.024 255.693 424.198 266.633 438.504C271.984 445.485 276.244 452.507 280.365 459.29C285.13 467.138 289.651 474.55 295.513 481.542C306.093 494.12 314.793 494.865 314.88 494.871L314.741 497.384Z" fill="#773532"/>
<path id="Vector_4" d="M195.85 470.681C195.217 468.767 180.313 423.558 181.572 400.096C182.82 376.738 207.109 282.847 208.119 278.862L210.551 279.496C210.301 280.474 185.316 377.122 184.079 400.23C182.849 423.221 198.078 469.419 198.235 469.884L195.85 470.681Z" fill="#773532"/>
<path id="Vector_5" d="M229.947 452.536C229.216 450.645 211.955 406.239 211.444 400.264C210.934 394.289 212.605 369.547 212.686 368.494L215.199 368.663C215.199 368.919 213.458 394.359 213.952 400.078C214.329 404.732 227.3 438.87 232.292 451.634L229.947 452.536Z" fill="#773532"/>
<path id="Vector_6" d="M170.423 499.833L169.877 497.727C169.158 494.964 152.269 429.661 157.324 399.95C162.379 370.24 199.146 311.068 200.713 308.567L202.843 309.899C202.46 310.51 164.764 371.159 159.802 400.375C155.339 426.618 168.873 483.323 171.775 494.975L176.418 490.379L178.159 492.183L170.423 499.833Z" fill="#773532"/>
<path id="Vector_7" d="M229.338 699.901C229.338 699.622 228.363 671.645 216.97 635.378C212.251 620.368 199.848 602.537 186.72 583.665C168.032 556.805 146.854 526.367 143.865 497.564C138.868 449.353 157.214 400.229 157.388 399.741L159.709 400.631C159.524 401.119 141.398 449.702 146.36 497.302C149.262 525.483 170.261 555.641 188.775 582.24C202.019 601.275 214.532 619.257 219.361 634.633C230.864 671.284 231.833 699.564 231.845 699.843L229.338 699.901Z" fill="#773532"/>
</g>
</g>
<defs>
<clipPath id="clip0_48_2767">
<rect width="243" height="700" fill="white" transform="translate(143)"/>
</clipPath>
</defs>
</svg>
