<svg width="412" height="700" viewBox="0 0 412 700" fill="none" xmlns="http://www.w3.org/2000/svg">
<g id="Group 22">
<path id="Rectangle 3" d="M0 253C0 139.229 92.2293 47 206 47C319.771 47 412 139.229 412 253V677H0V253Z" fill="#FCF9F4"/>
<g id="Group 19">
<path id="Vector" d="M385.827 462.765C383.553 445.352 375.938 429.926 375.831 429.769H375.782C375.373 423.696 374.01 417.724 371.744 412.076C367.154 400.964 360.726 395.347 360.454 395.116L360.396 395.182C361.731 376.968 360.009 364.661 355.13 355.983C347.895 343.156 329.065 333.505 325.826 331.929C320.421 316.257 314.85 303.058 313.317 301.029C311.364 298.48 294.874 290.974 286.428 287.361C284.532 286.536 282.761 285.81 281.055 285.109C278.438 283.876 275.743 282.817 272.987 281.941C269.821 280.7 266.582 279.656 263.288 278.815C261.574 278.303 260.338 277.99 260.041 277.891C258.722 277.627 256.646 279.813 255.921 281.71L256.901 282.189C256.798 282.559 256.726 282.937 256.687 283.319C256.514 288.433 259.53 296.517 266.576 302.291C275.055 309.237 288.315 322.526 290.474 324.72C290.54 325.825 290.812 329.034 291.974 336.904C293.408 346.579 297.553 374.238 297.989 377.175C297.272 379.525 291.397 398.391 283.354 417.347C274.454 438.258 226.724 486.555 212.995 485.218C211.584 485.066 210.229 484.585 209.038 483.812C207.847 483.04 206.854 481.999 206.138 480.772C199.95 471.187 201.688 447.777 210.547 421.182C216.901 402.111 222.266 397.64 227.943 392.897C232.467 389.111 237.156 385.201 242.653 374.37C255.649 348.741 260.074 320.356 255.921 310.903C255.427 309.772 254.802 308.704 254.058 307.719V307.661C253.836 307.397 253.663 307.216 253.457 306.977C253.251 306.737 253.193 306.663 253.053 306.523C249.361 302.398 248.463 303.38 246.79 303.99C244.96 304.659 229.254 322.237 227.671 326.658L226.056 328.721C215.038 341.787 201.4 357.303 192.096 365.428C176.983 378.626 150.621 443.867 139.356 471.707C136.884 477.827 135.104 482.241 134.296 483.981C129.417 494.564 122.981 563.063 134.296 593.939C138.276 604.835 141.597 612.631 144.259 618.883C149.203 630.432 151.676 636.206 151.676 645.816C151.676 660.598 138.252 698.84 138.12 699.227L140.262 699.978C140.814 698.394 153.942 660.986 153.942 645.816C153.942 635.736 151.264 629.434 146.385 617.992C143.732 611.764 140.435 603.969 136.496 593.155C125.371 562.725 131.667 495.332 136.496 484.938C137.32 483.148 139.117 478.71 141.605 472.565C152.665 444.898 178.886 380.045 193.596 367.16C202.925 358.986 216.497 343.56 227.482 330.502C228.133 333.719 231.075 336.095 236.349 332.796C242.117 329.158 249.954 315.432 252.904 309.971C253.261 310.574 253.583 311.196 253.869 311.835C257.808 320.81 252.995 349.029 240.683 373.364C235.401 383.782 230.894 387.543 226.542 391.173C220.609 396.122 215.005 400.808 208.413 420.489C199.2 448.156 197.601 471.731 204.243 482.026C205.136 483.549 206.375 484.84 207.86 485.793C209.345 486.746 211.034 487.335 212.789 487.512C228.561 489.071 277.066 438.076 285.463 418.27C294.091 397.995 300.206 377.851 300.297 377.628L300.371 377.381V377.125C300.371 377.125 295.83 346.827 294.322 336.598C292.855 326.7 292.822 324.357 292.822 324.225V323.755L292.501 323.425C292.353 323.276 277.404 308.148 268.1 300.526C261.673 295.263 258.912 287.955 259.036 283.377C259.036 283.302 259.036 283.253 259.036 283.179C263.329 285.249 271.001 288.862 274.487 289.951C275.749 290.423 277.132 290.463 278.42 290.067C279.708 289.67 280.828 288.858 281.607 287.757C294.99 293.234 309.839 300.13 311.545 302.382C313.869 305.409 334.009 355.653 335.155 379.014C335.864 393.598 321.83 428.656 311.587 454.26C304.574 471.773 301.228 480.294 301.698 482.587L303.923 482.15C303.618 480.319 308.743 467.5 313.704 455.11C324.03 429.307 338.171 393.978 337.438 378.907C336.894 367.738 332.106 350.473 326.914 334.998C332.683 338.083 347.302 346.588 353.194 357.072C359.786 368.827 360.355 387.725 355.048 420.25C350.59 447.604 321.393 506.863 321.096 507.433L323.132 508.439C323.42 507.837 352.798 448.305 357.289 420.621C358.657 412.232 359.63 404.734 360.223 398.003C364.255 402.36 367.463 407.413 369.692 412.917C372.551 419.838 378.048 438.917 367.409 466.617C358.072 490.902 340.099 527.139 339.918 527.502L341.954 528.517C342.135 528.154 360.157 491.826 369.527 467.475C374.282 455.102 375.938 444.469 376.012 435.667C379.69 444.435 382.243 453.635 383.61 463.045C385.761 479.543 364.838 531.115 358.732 544.239C356.367 549.312 344.146 559.838 330.004 572.013C313.202 586.482 294.157 602.889 283.181 617.126C264.664 641.155 252.558 664.731 250.787 680.189C249.27 693.503 250.787 699.656 250.787 699.912L252.987 699.368C252.987 699.302 251.553 693.28 252.987 680.445C254.314 668.822 263.403 646.443 284.92 618.512C295.756 604.489 314.71 588.14 331.43 573.737C346.362 560.877 358.155 550.715 360.726 545.196C365.093 535.85 388.2 480.97 385.827 462.765Z" fill="#773532"/>
<path id="Vector_2" d="M332.254 130.921C366.519 106.611 395.708 74.6964 367.871 47.5329C354.933 34.9203 341.706 35.1595 329.082 42.7815C330.548 23.8091 322.431 8.27643 297.042 1.94954C260.593 -7.12423 245.01 16.682 239.406 48.3577C233.967 21.5241 223.337 2.20525 203.229 9.31579C182.446 16.6655 183.452 40.7853 192.426 67.4869C179.57 54.2887 164.408 48.069 147.58 57.6542C100.254 84.5538 199.793 144.358 226.056 159.206C224.647 166.952 227.408 176.265 232.212 182.872L239.555 193.027C239.555 193.027 237.75 204.575 236.258 218.755C234.215 212.675 224.268 184.473 217.799 190.956C211.108 197.646 232.797 216.66 236.176 219.547C234.528 235.55 233.44 254.72 235.846 264.841C240.445 284.177 242.628 284.523 242.628 284.523L244.507 282.799C244.507 282.799 239.868 269.329 238.838 262.771C238.335 259.595 239.052 246.95 240.032 233.9C253.687 225.915 303.741 195.452 288.496 186.477C273.663 177.733 248.001 217.188 240.354 229.718C241.351 217.204 242.496 205.194 242.974 201.671C244.013 194.074 244.507 192.697 244.507 192.697C244.507 192.697 256.654 192.004 263.461 181.651C267.35 175.712 269.757 171.621 270.877 168.404C293.35 166.251 354.315 158.505 363.289 137.454C367.796 126.937 352.312 126.376 332.254 130.921ZM303.535 97.9253C304.615 100.87 302.975 105.3 301.269 108.698C302.275 107.659 303.296 106.62 304.359 105.547C304.442 104.722 306.156 89.1072 311.397 85.7499C311.914 85.4072 312.505 85.1933 313.122 85.1258C313.738 85.0584 314.362 85.1395 314.941 85.3622C315.379 85.5089 315.792 85.7202 316.168 85.9891C316.882 86.486 317.371 87.245 317.528 88.1009C317.981 90.1383 316.704 92.8605 314.99 95.3599L316.927 93.6194C317.437 91.1447 320.783 75.3893 325.423 73.7396C325.834 73.586 326.278 73.5418 326.711 73.6112C327.144 73.6806 327.552 73.8612 327.895 74.1355L328.109 74.3005C328.634 74.719 329.058 75.2494 329.352 75.8531C329.646 76.4567 329.801 77.1184 329.807 77.7898C329.889 80.3552 328.159 83.2753 326.337 85.7169C328.093 84.3476 329.823 83.036 331.587 81.7575V81.708C331.653 81.1306 333.177 67.5364 337.759 64.9297C338.248 64.645 338.801 64.4875 339.367 64.4716C339.933 64.4558 340.493 64.5821 340.998 64.839C341.285 64.9623 341.561 65.1114 341.822 65.2844C342.193 65.5437 342.509 65.8753 342.75 66.2594C342.99 66.6435 343.151 67.0722 343.223 67.5199C343.676 70.2008 341.212 73.9045 338.946 76.6679C340.495 75.6533 342.019 74.6717 343.519 73.7478C343.816 72.098 345.991 60.8466 351.331 60.4919C351.872 60.4231 352.42 60.5457 352.881 60.8383C353.082 60.9795 353.243 61.1697 353.35 61.391C354.257 63.1562 351.653 67.3137 349.584 70.1843C350.499 69.6646 351.488 69.0624 352.353 68.6005C357.437 65.8324 362.707 63.4234 368.126 61.391C362.837 63.6997 357.682 66.3021 352.683 69.1862C351.57 69.7966 350.334 70.572 349.156 71.2649C352.543 70.44 358.221 69.2769 359.91 71.0834C360.191 71.3915 360.375 71.7761 360.438 72.1886C360.501 72.6012 360.441 73.0232 360.264 73.4014C358.41 78.8456 345.382 75.1914 343.898 74.7542L343.618 74.6717C341.377 76.107 339.11 77.6083 336.787 79.2498C340.561 79.0106 348.785 78.8209 350.516 81.3863C350.756 81.7631 350.884 82.201 350.884 82.6483C350.884 83.0956 350.756 83.5336 350.516 83.9104C347.673 89.3382 334.858 83.663 332.386 82.5081C329.65 84.5538 326.955 86.6985 324.269 88.9587C328.249 88.2576 335.353 87.4245 337.405 89.7176C337.734 90.1178 337.941 90.6051 337.999 91.1205C338.058 91.6359 337.966 92.1572 337.734 92.6212C335.262 99.2204 319.143 95.0959 317.627 94.6422C315.435 96.5642 313.309 98.4697 311.232 100.416C315.295 99.3606 323.156 97.6613 325.653 99.8803C326.003 100.179 326.264 100.567 326.41 101.003C326.555 101.439 326.578 101.906 326.477 102.355C325.472 108.715 307.211 106.603 305.052 106.331C303.321 107.981 301.599 109.696 300.017 111.28L299.679 111.858C303.519 110.208 311.125 107.271 313.424 109.119C313.76 109.405 314.001 109.785 314.116 110.211C314.231 110.637 314.214 111.087 314.067 111.503C312.674 117.78 296.63 117.277 294.808 117.211H294.281L294.124 117.376C286.889 124.841 282.225 129.98 282.225 129.98C282.225 129.98 286.592 124.586 293.638 116.914L294.174 116.345C293.927 114.299 292.312 99.6493 296.646 95.8878C297.146 95.4514 297.751 95.1533 298.402 95.0231C299.052 94.8929 299.725 94.9351 300.354 95.1454C300.991 95.3068 301.592 95.5866 302.126 95.9703C302.768 96.4849 303.251 97.1714 303.519 97.95L303.535 97.9253ZM214.297 135.936L213.72 135.433C211.742 135.746 197.527 137.858 193.703 133.783C193.267 133.308 192.961 132.727 192.817 132.098C192.672 131.469 192.694 130.813 192.879 130.195C193.014 129.568 193.26 128.97 193.604 128.43C194.082 127.712 194.766 127.157 195.566 126.838C198.392 125.674 202.76 127.118 206.138 128.661C205.092 127.712 204.037 126.755 202.958 125.757C202.191 125.699 186.88 124.602 183.46 119.603C183.107 119.113 182.876 118.544 182.787 117.946C182.698 117.347 182.754 116.736 182.949 116.164C183.075 115.731 183.264 115.32 183.509 114.943C183.961 114.246 184.658 113.745 185.463 113.54C187.432 113.029 190.127 114.2 192.624 115.751C192.03 115.149 191.445 114.53 190.852 113.928C188.38 113.524 172.953 110.827 171.181 106.364C171.02 105.971 170.963 105.543 171.014 105.121C171.066 104.699 171.226 104.297 171.478 103.955L171.635 103.741C172.019 103.219 172.514 102.788 173.083 102.48C173.653 102.172 174.284 101.994 174.931 101.959C177.403 101.786 180.345 103.361 182.784 105.052C181.383 103.403 180.04 101.753 178.738 100.103H178.689C178.128 100.103 164.828 99.0719 162.125 94.6917C161.827 94.2253 161.652 93.6915 161.614 93.1395C161.577 92.5874 161.679 92.0347 161.911 91.5324C162.017 91.2429 162.155 90.9662 162.323 90.7075C162.558 90.3323 162.869 90.0097 163.235 89.7599C163.6 89.5101 164.014 89.3385 164.449 89.2557C167.036 88.7195 170.736 90.9797 173.514 93.0914C172.467 91.6231 171.453 90.1631 170.506 88.736C168.858 88.5133 157.84 86.8058 157.321 81.5925C157.232 81.0693 157.332 80.5318 157.601 80.0747C157.736 79.8766 157.913 79.7105 158.12 79.588C159.826 78.6311 163.979 81.0563 166.847 82.9865C166.303 82.1039 165.668 81.147 165.199 80.2974C162.306 75.4386 159.756 70.3835 157.568 65.169C160.007 70.2673 162.731 75.2245 165.726 80.017C166.361 81.0728 167.16 82.2524 167.877 83.3742C166.921 80.0747 165.611 74.5892 167.317 72.8899C167.604 72.602 167.971 72.4066 168.371 72.3287C168.77 72.2508 169.183 72.294 169.558 72.4527C174.923 74.1025 171.841 86.9213 171.47 88.3813L171.396 88.6618C172.879 90.79 174.428 92.9512 176.109 95.1619C175.739 91.4829 175.285 83.465 177.692 81.6832C178.051 81.4299 178.475 81.2865 178.914 81.2704C179.353 81.2543 179.787 81.3662 180.164 81.5925C185.561 84.1661 180.502 96.9189 179.472 99.3688C181.556 101.967 183.748 104.524 186.064 107.065C185.24 103.196 184.161 96.3415 186.32 94.2133C186.698 93.8771 187.165 93.6578 187.665 93.5816C188.165 93.5055 188.677 93.5759 189.138 93.7843C195.673 95.9703 192.187 111.841 191.841 113.342C193.794 115.405 195.722 117.409 197.684 119.364C196.497 115.446 194.56 107.816 196.629 105.341C196.908 104.998 197.273 104.735 197.688 104.582C198.102 104.428 198.55 104.388 198.986 104.467C205.224 105.217 203.831 123.117 203.642 125.237C205.347 126.887 207.045 128.479 208.66 129.972L209.237 130.277C207.473 126.582 204.358 119.265 206.073 116.955C206.339 116.621 206.701 116.375 207.109 116.248C207.518 116.122 207.955 116.121 208.363 116.246C214.536 117.376 214.635 133.049 214.626 134.839V135.284L214.791 135.433C222.331 142.222 227.507 146.585 227.507 146.585C227.507 146.585 222.027 142.527 214.297 135.936ZM230.523 105.704L230.234 105.003C228.314 104.409 214.635 100.053 212.995 94.6752C212.809 94.0557 212.787 93.3983 212.931 92.7678C213.076 92.1372 213.382 91.5551 213.819 91.0787C214.215 90.5735 214.701 90.1457 215.253 89.8166C215.999 89.377 216.862 89.1783 217.725 89.2475C220.782 89.4537 224.062 92.6872 226.411 95.5578C225.891 94.2463 225.364 92.9182 224.845 91.5489C224.177 91.1612 210.918 83.4072 210.061 77.4103C209.963 76.816 210.008 76.207 210.191 75.6333C210.375 75.0597 210.692 74.5378 211.116 74.1107C211.425 73.7892 211.778 73.5116 212.162 73.2859C212.873 72.8613 213.717 72.72 214.528 72.8899C216.522 73.3024 218.425 75.5461 219.983 78.0455C219.711 77.2206 219.464 76.3957 219.2 75.6203C217.173 74.1767 204.507 64.8968 204.886 60.1371C204.907 59.7093 205.039 59.2943 205.269 58.9328C205.499 58.5714 205.818 58.2757 206.196 58.0749C206.269 58.0271 206.347 57.9857 206.427 57.9512C207.006 57.6473 207.646 57.4777 208.299 57.4549C208.952 57.432 209.602 57.5565 210.201 57.8192C212.517 58.7678 214.437 61.4735 215.879 64.0719C215.36 61.9601 214.874 59.8979 214.437 57.8192C213.942 57.5305 202.455 50.7664 201.952 45.6439C201.891 45.0919 201.97 44.5333 202.182 44.02C202.393 43.5067 202.731 43.0551 203.164 42.7073C203.384 42.5136 203.621 42.3397 203.872 42.1876C204.252 41.9582 204.674 41.8079 205.113 41.7455C205.552 41.6831 205.999 41.7101 206.427 41.8246C208.99 42.4928 211.305 46.1553 212.863 49.2486C212.572 47.4559 212.297 45.7099 212.039 44.0106C210.663 43.0785 201.54 36.6773 203.353 31.761C203.514 31.2548 203.843 30.8185 204.284 30.5237C204.493 30.4034 204.728 30.3328 204.968 30.3174C206.897 30.2102 209.567 34.1944 211.289 37.1805C211.198 36.1576 211.05 35.0441 210.984 34.0789C210.546 28.444 210.499 22.7854 210.844 17.144C210.806 22.7806 211.081 28.4151 211.668 34.0212C211.775 35.2503 211.973 36.6526 212.121 37.9642C212.706 34.5986 213.975 29.1049 216.242 28.3295C216.628 28.2027 217.042 28.193 217.434 28.3017C217.825 28.4103 218.176 28.6323 218.442 28.9399C222.562 32.7591 214.107 42.9217 213.135 44.0683L212.945 44.291C213.333 46.8564 213.769 49.4713 214.297 52.2017C215.591 48.7372 218.689 41.3297 221.664 40.81C222.095 40.7454 222.535 40.8058 222.932 40.9842C223.329 41.1626 223.667 41.4514 223.905 41.8164C227.614 46.51 217.445 55.7157 215.434 57.4893C216.17 60.7393 217.008 64.0086 217.947 67.2972C218.903 63.4697 220.988 56.8046 223.848 55.8807C224.331 55.7436 224.844 55.7485 225.324 55.8947C225.805 56.041 226.234 56.3224 226.559 56.7056C231.503 61.5642 221.326 74.2592 220.362 75.4553C221.186 78.161 222.01 80.8171 222.941 83.4402C223.609 79.3983 225.232 71.7103 228.199 70.3658C228.597 70.1861 229.035 70.1151 229.469 70.16C229.904 70.2049 230.318 70.3642 230.671 70.6215C235.937 74.0613 226.79 89.5032 225.727 91.3179C226.551 93.5286 227.375 95.7393 228.141 97.785L228.52 98.313C228.57 94.1885 228.998 86.2779 231.561 84.9663C231.948 84.7826 232.382 84.7197 232.805 84.7859C233.228 84.8521 233.622 85.0443 233.934 85.3375C238.969 89.0825 232.138 103.188 231.347 104.788L231.116 105.25C231.148 105.317 231.176 105.386 231.198 105.457C234.973 114.877 237.684 121.08 237.684 121.08C237.684 121.08 234.552 115.033 230.523 105.704ZM257.766 144.729C257.766 144.729 267.853 153.399 262.554 156.459C257.256 159.52 254.075 146.057 254.075 146.057C254.075 146.057 255.912 162.275 248.372 159.214C240.832 156.154 250.103 145.241 250.103 145.241C250.103 145.241 232.476 150.85 235.129 141.669C237.783 132.488 250.918 140.341 250.918 140.341C250.918 140.341 236.085 127.085 244.606 122.193C253.127 117.302 254.998 136.876 254.998 136.876C257.643 124.503 261.31 121.476 266.535 125.559C271.759 129.642 258.294 140.036 258.294 140.036C258.294 140.036 272.353 135.755 270.828 143.913C269.303 152.071 257.766 144.729 257.766 144.729ZM265.941 96.9767L265.472 97.2159L265.414 97.4386C262.867 107.519 261.376 114.299 261.376 114.299C261.376 114.299 262.48 107.444 264.763 97.2819C264.812 97.0426 264.886 96.7622 264.944 96.523C263.708 94.8732 255.014 82.9783 256.876 77.5505C257.094 76.9262 257.471 76.3695 257.97 75.9356C258.469 75.5016 259.072 75.2053 259.72 75.0759C260.352 74.9005 261.01 74.8391 261.664 74.8944C262.536 74.9795 263.36 75.3275 264.029 75.8925C266.436 77.9135 267.219 82.5659 267.433 86.3603C267.787 84.958 268.158 83.5475 268.545 82.0957C268.232 81.3698 261.912 66.9425 264.804 61.4735C265.083 60.919 265.488 60.4385 265.988 60.0715C266.488 59.7044 267.068 59.4612 267.68 59.3618C268.133 59.2728 268.596 59.2478 269.056 59.2875C269.905 59.3639 270.694 59.7587 271.265 60.3929C272.666 61.9354 272.913 64.938 272.674 67.9488C272.938 67.124 273.218 66.2991 273.498 65.4742C272.674 63.0573 267.729 47.7391 270.952 44.0271C271.233 43.6959 271.594 43.4414 272 43.2871C272.407 43.1328 272.845 43.0837 273.275 43.1445H273.547C274.209 43.2446 274.841 43.4913 275.395 43.8666C275.95 44.2419 276.414 44.7364 276.753 45.3139C278.105 47.4999 278.063 50.8984 277.693 53.9175C278.517 51.8635 279.341 49.859 280.272 47.8711V47.8298C280.041 47.3019 274.586 34.7553 277.264 30.202C277.547 29.7097 277.949 29.2962 278.432 28.9994C278.916 28.7026 279.466 28.5318 280.033 28.5027C280.335 28.4779 280.638 28.4779 280.939 28.5027C281.39 28.5409 281.829 28.6703 282.228 28.883C282.627 29.0957 282.98 29.3872 283.263 29.74C284.994 31.8435 284.697 36.2896 284.087 39.8284C284.911 38.1786 285.735 36.5288 286.609 34.9946C286.024 33.386 282.316 22.5717 286.782 19.6021C287.212 19.2695 287.747 19.1026 288.29 19.132C288.535 19.1528 288.77 19.2351 288.974 19.3712C290.622 20.4435 290.457 25.3516 290.087 28.8739C290.622 27.9665 291.183 26.9519 291.735 26.1105C294.765 21.177 298.136 16.461 301.821 11.9967C298.382 16.6365 295.207 21.467 292.312 26.4652C291.661 27.5458 290.977 28.8244 290.309 30.004C292.822 27.5293 297.182 23.7761 299.522 24.502C299.919 24.6296 300.27 24.8713 300.531 25.1969C300.791 25.5225 300.951 25.9176 300.989 26.3332C302.085 31.9755 288.974 35.3163 287.474 35.671L287.186 35.7452C285.958 38.1044 284.714 40.5378 283.543 43.1197C286.7 41.0327 293.729 36.7598 296.514 38.1209C296.905 38.3296 297.229 38.645 297.447 39.0305C297.666 39.416 297.771 39.8557 297.75 40.2986C297.998 46.4275 284.021 47.9206 281.31 48.1515C279.959 51.2861 278.684 54.5004 277.486 57.7945C280.593 55.2043 286.329 50.9314 289.254 51.8965C289.738 52.0808 290.158 52.4004 290.465 52.8173C290.772 53.2342 290.952 53.7307 290.985 54.2474C292.122 61.226 276.077 65.6392 274.553 66.0433C273.613 68.7902 272.723 71.5041 271.883 74.218C274.874 71.2731 280.84 65.8784 284.112 66.5548C284.557 66.6442 284.969 66.8512 285.307 67.1544C285.645 67.4576 285.895 67.8459 286.032 68.2788C288.323 74.2922 271.454 81.576 269.435 82.4174C268.776 84.7436 268.117 87.0615 267.54 89.2392V89.9156C270.012 86.5501 275.179 80.2314 278.096 80.6851C278.528 80.7658 278.925 80.9752 279.235 81.2859C279.545 81.5965 279.754 81.9938 279.835 82.4256C281.714 88.5628 267.556 96.1353 265.941 96.9767ZM345.332 140.828C344.426 140.828 343.387 140.918 342.407 140.968C344.838 141.562 348.81 142.758 349.263 144.457C349.336 144.746 349.322 145.05 349.224 145.332C349.126 145.613 348.947 145.86 348.711 146.041C345.711 148.854 338.707 142.172 337.916 141.405L337.767 141.257C335.872 141.413 333.935 141.603 331.916 141.851C334.389 142.972 339.646 145.604 339.877 147.815C339.907 148.131 339.846 148.45 339.7 148.732C339.554 149.015 339.329 149.249 339.053 149.407C335.435 151.881 329.222 143.979 328.043 142.428C325.637 142.802 323.209 143.25 320.758 143.773C323.511 144.672 328.274 146.519 328.801 148.664C328.876 149.026 328.845 149.402 328.71 149.746C328.576 150.09 328.344 150.388 328.043 150.603C324.252 153.952 315.476 145.901 314.652 145.134C312.633 145.612 310.647 146.099 308.694 146.627C311.611 147.32 317.141 148.887 317.981 151.122C318.097 151.426 318.129 151.756 318.074 152.077C318.019 152.397 317.879 152.697 317.668 152.945C314.899 156.624 304.071 149.159 302.835 148.26C301.187 148.747 299.539 149.233 297.965 149.72C297.849 149.786 297.693 149.901 297.586 149.959C300.577 150.198 306.354 150.908 307.186 152.846C307.302 153.139 307.327 153.461 307.258 153.768C307.189 154.076 307.029 154.355 306.799 154.57C303.816 158.068 293.844 152.368 292.715 151.708L292.394 151.518L292.237 151.568C285.167 153.861 280.503 155.535 280.503 155.535C280.503 155.535 285.068 153.597 292.081 151.114L292.616 150.933C293.144 149.555 297.025 139.764 301.014 138.831C301.475 138.722 301.957 138.736 302.411 138.872C302.865 139.009 303.276 139.262 303.601 139.607C303.94 139.923 304.219 140.297 304.425 140.712C304.705 141.279 304.808 141.917 304.722 142.543C304.417 144.771 301.887 147.014 299.67 148.59C300.659 148.276 301.656 147.955 302.687 147.641C303 147.171 309.329 137.85 313.754 137.52C314.194 137.477 314.639 137.539 315.05 137.703C315.462 137.867 315.828 138.126 316.119 138.46C316.344 138.709 316.535 138.986 316.688 139.285C316.966 139.825 317.027 140.45 316.861 141.034C316.457 142.494 314.669 143.764 312.74 144.795L314.627 144.317C315.789 142.906 323.173 134.097 326.659 134.608C326.966 134.654 327.257 134.777 327.503 134.966C327.75 135.155 327.944 135.404 328.068 135.689C328.102 135.743 328.13 135.801 328.15 135.862C328.342 136.302 328.433 136.779 328.417 137.258C328.401 137.737 328.279 138.207 328.06 138.633C327.236 140.283 325.175 141.545 323.206 142.477C324.772 142.197 326.304 141.95 327.845 141.735C328.084 141.389 333.614 133.313 337.363 133.206C337.768 133.192 338.17 133.279 338.533 133.457C338.897 133.635 339.211 133.9 339.448 134.229C339.583 134.4 339.699 134.585 339.794 134.781C339.943 135.069 340.032 135.385 340.055 135.708C340.077 136.031 340.034 136.356 339.926 136.662C339.316 138.51 336.506 140.019 334.158 141.009C335.485 140.885 336.778 140.778 338.039 140.696C338.789 139.739 343.923 133.371 347.417 134.922C347.768 135.064 348.059 135.323 348.241 135.656C348.323 135.813 348.362 135.99 348.357 136.167C348.357 137.602 345.275 139.343 343 140.457C343.758 140.457 344.599 140.382 345.316 140.382C349.448 140.34 353.579 140.589 357.677 141.125C353.571 140.798 349.449 140.699 345.332 140.828Z" fill="#773532"/>
<path id="Vector_3" d="M254.181 138.337C253.434 138.322 252.698 138.53 252.069 138.935C251.44 139.341 250.946 139.924 250.65 140.611C250.353 141.299 250.268 142.059 250.405 142.795C250.542 143.531 250.894 144.21 251.418 144.745C251.942 145.279 252.612 145.646 253.345 145.797C254.077 145.949 254.838 145.879 255.531 145.596C256.223 145.313 256.816 144.83 257.233 144.208C257.65 143.587 257.873 142.855 257.873 142.106C257.879 141.616 257.788 141.129 257.605 140.674C257.422 140.219 257.152 139.805 256.809 139.455C256.466 139.105 256.057 138.826 255.606 138.634C255.156 138.442 254.671 138.341 254.181 138.337Z" fill="#773532"/>
</g>
</g>
</svg>
