<svg width="76" height="76" viewBox="0 0 76 76" fill="none" xmlns="http://www.w3.org/2000/svg">
    <g id="Frame" clip-path="url(#clip0_40_899)">
    <path id="Vector" d="M74.4815 24.6289H28.2608V19.5446H66.756C67.1413 19.5446 67.5108 19.3916 67.7832 19.1192C68.0556 18.8468 68.2087 18.4773 68.2087 18.092C68.2176 17.8958 68.1866 17.6998 68.1176 17.5158C68.0486 17.3319 67.9431 17.1638 67.8073 17.0219C67.6715 16.8799 67.5083 16.7669 67.3276 16.6898C67.1469 16.6127 66.9525 16.5731 66.756 16.5733H28.2608V11.5551H58.7665C58.963 11.5553 59.1574 11.5156 59.3381 11.4385C59.5188 11.3615 59.6819 11.2485 59.8177 11.1066C59.9535 10.9646 60.0591 10.7966 60.1281 10.6126C60.1971 10.4287 60.228 10.2327 60.2191 10.0364C60.2191 9.65115 60.0661 9.28166 59.7937 9.00924C59.5213 8.73681 59.1518 8.58376 58.7665 8.58376H28.2608V2.90521H50.0506C50.2718 2.95212 50.5008 2.94903 50.7207 2.89615C50.9406 2.84326 51.1458 2.74191 51.3216 2.59953C51.4973 2.45715 51.639 2.27734 51.7364 2.07319C51.8337 1.86905 51.8842 1.64572 51.8842 1.41956C51.8842 1.19339 51.8337 0.97007 51.7364 0.765924C51.639 0.561777 51.4973 0.381968 51.3216 0.239589C51.1458 0.0972111 50.9406 -0.00414055 50.7207 -0.0570277C50.5008 -0.109915 50.2718 -0.112997 50.0506 -0.0660955H26.1479C25.7626 -0.0660955 25.3931 0.0869097 25.1207 0.359334C24.8482 0.631759 24.6952 1.00125 24.6952 1.38651C24.6952 1.38651 24.6952 1.38653 24.6952 1.71668C24.6952 2.04683 24.6952 1.71668 24.6952 1.71668V47.9374H19.6109V10.0364C19.6111 9.83997 19.5715 9.64548 19.4944 9.46479C19.4173 9.2841 19.3044 9.12095 19.1624 8.98516C19.0204 8.84937 18.8524 8.74378 18.6684 8.67479C18.4845 8.60579 18.2885 8.57483 18.0923 8.58376C17.707 8.58376 17.3375 8.73681 17.0651 9.00924C16.7927 9.28166 16.6396 9.65115 16.6396 10.0364V48.5976H11.5553V18.092C11.5553 17.7068 11.4023 17.3373 11.1299 17.0648C10.8574 16.7924 10.4879 16.6394 10.1027 16.6394C9.71741 16.6394 9.34792 16.7924 9.07549 17.0648C8.80307 17.3373 8.65006 17.7068 8.65006 18.092V48.5976H3.10356V26.0816C3.10356 25.6963 2.9505 25.3268 2.67808 25.0544C2.40565 24.782 2.03617 24.6289 1.6509 24.6289C1.26563 24.6289 0.896147 24.782 0.623722 25.0544C0.351298 25.3268 0.198242 25.6963 0.198242 26.0816V50.0503C0.198242 50.4356 0.351298 50.8051 0.623722 51.0775C0.896147 51.3499 1.26563 51.503 1.6509 51.503H48.5979V56.5872H10.1027C9.71741 56.5872 9.34792 56.7403 9.07549 57.0127C8.80307 57.2851 8.65006 57.6546 8.65006 58.0399C8.65006 58.4251 8.80307 58.7946 9.07549 59.067C9.34792 59.3395 9.71741 59.4925 10.1027 59.4925H48.5979V64.5768H18.0923C17.707 64.5768 17.3375 64.7298 17.0651 65.0023C16.7927 65.2747 16.6396 65.6442 16.6396 66.0294C16.6307 66.2257 16.6617 66.4217 16.7307 66.6056C16.7997 66.7896 16.9052 66.9576 17.041 67.0996C17.1768 67.2416 17.34 67.3545 17.5207 67.4316C17.7014 67.5087 17.8958 67.5483 18.0923 67.5481H48.5979V73.0946H26.1479C25.7626 73.0946 25.3931 73.2477 25.1207 73.5201C24.8482 73.7925 24.6952 74.162 24.6952 74.5473C24.6952 74.9325 24.8482 75.302 25.1207 75.5744C25.3931 75.8469 25.7626 75.9999 26.1479 75.9999H50.0506C50.2468 76.0088 50.4428 75.9779 50.6268 75.9089C50.8107 75.8399 50.9787 75.7343 51.1207 75.5985C51.2626 75.4627 51.3756 75.2996 51.4527 75.1189C51.5298 74.9382 51.5694 74.7437 51.5692 74.5473V27.5343H56.6535V66.0294C56.6535 66.4147 56.8066 66.7842 57.079 67.0566C57.3514 67.329 57.7209 67.4821 58.1062 67.4821C58.4914 67.4821 58.8609 67.329 59.1334 67.0566C59.4058 66.7842 59.5588 66.4147 59.5588 66.0294V27.5343H64.6431V50.0503V58.0399C64.6431 58.4251 64.7961 58.7946 65.0685 59.067C65.3409 59.3395 65.7104 59.4925 66.0957 59.4925C66.481 59.4925 66.8504 59.3395 67.1229 59.067C67.3953 58.7946 67.5483 58.4251 67.5483 58.0399V27.5343H73.2269V50.0503C73.2269 50.4356 73.3799 50.8051 73.6524 51.0775C73.9248 51.3499 74.2943 51.503 74.6796 51.503C75.0648 51.503 75.4343 51.3499 75.7067 51.0775C75.9791 50.8051 76.1322 50.4356 76.1322 50.0503V26.0816C76.1342 25.873 76.0911 25.6663 76.0061 25.4758C75.921 25.2853 75.796 25.1153 75.6393 24.9775C75.4827 24.8397 75.2982 24.7371 75.0984 24.677C74.8986 24.6169 74.6882 24.6005 74.4815 24.6289ZM48.3998 48.5976H27.4024V27.5343H48.3998V48.5976Z" fill="#F1E9E2"/>
    </g>
    <defs>
    <clipPath id="clip0_40_899">
    <rect width="76" height="76" fill="white"/>
    </clipPath>
    </defs>
</svg>
