<svg width="350" height="492" viewBox="0 0 350 492" fill="none" xmlns="http://www.w3.org/2000/svg">
<path d="M327.273 426.675C309.765 395.027 294.593 376.441 282.189 371.427C274.975 368.515 267.429 368.799 260.027 370.936C258.543 370.836 243.131 369.575 225.491 359.332C205.273 347.595 170.632 339.113 147.665 345.222C124.291 351.44 98.641 346.181 87.9476 341.386C81.7671 338.635 75.8229 337.812 71.437 338.999C71.7828 338.885 72.0147 338.828 72.0147 338.828C72.0147 338.828 57.0886 339.638 56.8523 343.47C56.6159 347.302 69.8875 353.678 69.8875 353.678L69.8393 353.621C76.5758 359.222 88.2234 364.381 92.6005 365.883C95.8571 366.995 98.571 367.875 100.655 368.51C100.148 368.617 99.6502 368.764 99.1663 368.948C97.2972 367.534 95.6646 366.658 94.509 366.702C91.2305 366.833 99.9279 378.355 107.282 385.878C110.993 390.258 114.95 394.873 118.99 399.559C116.959 397.759 114.924 395.968 113.199 394.475C107.789 389.785 89.147 374.024 76.4313 368.151C75.7601 367.839 75.1152 367.559 74.4966 367.311C65.681 363.75 61.7547 365.905 60.4284 367.065C60.2596 367.232 60.1045 367.412 59.9644 367.604C56.6159 365.414 54.2391 364.622 53.4512 366.01C52.1381 368.357 66.9154 383.597 75.2582 388.913C80.5108 393.796 86.6388 399.279 92.8675 404.74C86.1661 401.994 73.6649 396.888 61.05 391.795C51.7923 388.05 43.1036 384.569 37.8029 382.541C24.6145 377.479 14.9628 382.8 12.3234 384.551C10.4237 385.808 9.07117 387.179 8.41022 388.401C4.01117 387.661 0.605742 387.661 0.041088 388.896C-1.13637 391.466 23.3276 400.68 30.4186 400.864C41.7204 405.537 56.1038 414.304 70.1063 423.198C86.4156 433.568 136.6 439.484 139.265 439.791C146.341 442.881 153.861 444.833 161.545 445.576C161.821 445.79 162.084 446.014 162.324 446.158C172.948 453.564 191.411 448.313 193.752 447.603C195.674 448.383 197.197 448.812 198.042 448.777C199.543 448.711 206.254 446.964 217.078 444.113C228.021 441.236 244.527 436.887 246.27 437.216C248.804 438.661 266.081 471.588 276.349 492L277.93 491.203C269.696 474.851 250.323 436.971 246.733 435.521C246.698 435.506 246.662 435.494 246.624 435.486C244.694 435.088 233.493 437.965 216.627 442.405C208.136 444.643 199.355 446.951 197.968 447.012C194.904 447.148 177.509 438.464 167.559 426.193C164.39 422.292 160.158 416.121 155.811 409.342C155.811 409.342 155.605 409.027 155.246 408.493C152.336 403.925 149.39 399.117 146.698 394.558C146.698 394.558 149.722 394.913 147.691 389.338C146.251 385.397 141.524 375.973 137.226 371.16C139.09 370.45 144.938 369.662 159.514 377.124C176.616 385.883 185.611 410.314 185.698 410.56L185.803 410.857L186.07 411.019C197.149 417.693 198.51 416.677 198.957 416.34C199.172 416.173 199.33 415.942 199.408 415.681C199.487 415.42 199.482 415.14 199.395 414.882C199.079 413.7 201.053 412.666 204.568 410.941C206.319 410.065 208.337 409.093 210.491 407.814C211.865 406.999 214.233 404.783 217.516 401.722C230.739 389.373 258.259 363.676 281.501 373.065C310.294 384.696 347.85 472.495 348.227 473.379L349.851 472.692C349.772 472.469 340.265 450.152 327.273 426.675ZM71.0518 421.718C55.631 411.913 43.0379 404.354 32.594 399.822C32.8129 398.902 32.0425 397.168 26.5667 394.304C22.0626 391.948 15.6588 389.868 10.2618 388.756C11.1034 387.672 12.1304 386.747 13.2951 386.023C18.377 382.66 27.302 380.409 37.1682 384.192C50.7374 389.404 86.9803 404.232 97.004 408.344C110.227 419.795 123.315 430.524 129.583 434.619C131.141 435.635 132.717 436.537 134.284 437.374C120.601 435.539 84.0432 429.986 71.0518 421.718ZM130.542 433.143C120.759 426.771 96.9296 406.364 79.8236 390.739C79.8236 390.739 83.7324 388.248 73.6956 378.964C69.1127 374.725 64.8537 371.081 61.4133 368.616C61.4745 368.55 61.5183 368.475 61.5883 368.41C63.453 366.781 68.1541 366.281 75.6916 369.767C88.1884 375.548 106.669 391.173 112.022 395.824C118.054 401.052 127.824 409.859 128.121 410.126C140.548 424.337 152.519 437.536 159.16 443.557C153.907 442.865 141.914 440.553 130.542 433.143ZM166.202 427.314C173.136 435.863 183.93 442.983 191.187 446.469C185.703 447.822 171.648 450.485 163.344 444.717C157.781 440.851 140.78 422.383 114.928 392.167C114.955 392.167 117.953 391.917 115.112 386.82C113.156 383.317 106.358 375.075 100.812 370.315C103.583 369.64 108.367 369.697 113.812 371.37C123.206 374.252 132.634 384.508 140.911 393.542L141.537 394.225C149.981 403.422 154.301 410.236 154.34 410.301C158.866 417.321 163.2 423.614 166.202 427.314ZM216.325 400.43C213.261 403.303 210.815 405.576 209.606 406.294C207.519 407.538 205.549 408.484 203.811 409.36C200.125 411.168 197.394 412.504 197.609 414.821C195.928 414.462 191.253 412.049 187.274 409.666C186.149 406.675 177.237 384.206 160.346 375.557C144.807 367.595 138.46 368.519 136.035 369.772C136 369.772 135.974 369.815 135.934 369.837C134.656 368.686 133.453 368.037 132.433 368.248C129.049 368.953 136.49 382.572 141.988 389.934C143.109 391.904 144.304 393.958 145.551 396.064C144.676 395.088 143.8 394.076 142.837 393.034L142.211 392.346C134.332 383.75 125.451 374.081 116.268 370.376C115.623 370.113 114.977 369.883 114.329 369.684C111.431 368.785 108.427 368.272 105.395 368.16C105.097 368.072 100.379 366.684 93.1608 364.219C84.958 361.425 65.5059 351.519 66.609 345.773C66.7813 344.837 67.1736 343.955 67.7534 343.199C68.3333 342.444 69.0842 341.837 69.9444 341.429C73.8838 339.389 80.4933 339.997 87.221 343.01C98.1639 347.858 124.3 353.271 148.112 346.952C170.637 340.961 204.695 349.325 224.598 360.882C234.311 366.574 244.986 370.433 256.092 372.268C240.036 378.298 225.102 392.237 216.325 400.43Z" fill="white"/>
<path d="M329.707 97.8401C322.099 90.1415 308.211 81.637 301.693 77.8184C287.502 69.5416 272.217 62.3247 265.363 60.6562C250.143 56.9689 202.94 49.1082 194.146 50.1111C189.222 50.6716 163.405 60.4154 138.438 69.8394C118.54 77.3498 99.7484 84.4441 91.922 86.7826C74.4134 91.9895 34.1916 78.2607 33.7889 78.1205L33.4212 79.1847C35.0889 79.7583 74.4134 93.1719 92.2196 87.8599C100.099 85.5126 118.92 78.4095 138.832 70.8948C163.738 61.497 189.489 51.7752 194.273 51.2321C202.975 50.2381 249.938 58.0768 265.061 61.7423C274.148 63.9319 301.829 77.8096 319.189 90.5006C318.589 91.1268 317.954 92.7997 320.581 96.9468C320.581 96.9468 328.262 104.457 333.454 108.245C333.12 109.08 332.611 109.834 331.961 110.455C331.31 111.076 330.534 111.55 329.685 111.845C321.325 115.037 303.908 107.492 297.25 103.559C294.484 101.995 291.837 100.229 289.332 98.2737C288.422 97.5511 287.918 97.157 286.999 96.8811C286.342 96.6884 283.672 96.0447 279.995 95.16C273.084 93.5003 262.644 90.991 259.607 89.9751C256.98 89.0992 253.006 89.3882 248.375 89.7123C244.628 89.9751 240.382 90.2728 236.43 89.9488C227.159 89.178 220.374 87.4526 219.77 86.7695C219.166 86.0863 217.984 83.4851 217.547 82.5742L216.518 83.0121C216.579 83.1522 218.054 86.4454 218.886 87.4658C220.011 88.8365 228.809 90.4305 236.325 91.0523C240.36 91.3852 244.641 91.083 248.441 90.8202C252.953 90.5006 256.845 90.229 259.235 91.0261C260.062 91.302 261.397 91.6786 263.038 92.1165C264.789 93.7237 283.318 110.623 292.365 122.942C300.27 133.688 305.593 141.965 309.147 148.341C308.228 148.849 307.134 150.382 307.484 154.91C307.484 154.91 311.034 164.492 314.461 169.721C313.691 170.347 312.618 170.688 311.156 170.702C295.679 170.85 281.042 143.279 280.893 143.003L277.829 139.18C274.83 135.444 260.478 123.765 259.882 123.27L259.173 124.146C259.322 124.264 274.056 136.241 276.962 139.885L277.439 140.476C275.417 144.571 269.67 155.366 264.439 164.216C263.638 163.025 261.217 162.171 259.344 162.994C259.344 162.994 251.172 171.183 249.561 177.704C248.541 177.458 247.58 177.011 246.733 176.39C244.821 174.967 242.768 171.963 243.669 165.718C243.669 165.6 243.704 165.486 243.726 165.368C245.039 157.279 247.963 152.02 249.894 148.547C251.111 146.357 251.916 144.899 251.855 143.686C251.723 141.081 248.165 130.395 247.281 127.768C252.161 126.739 256.149 125.346 258.613 123.428C261.379 122.92 267.026 121.343 267.696 116.824C268.164 113.667 263.428 110.448 260.907 108.972C258.924 106.051 254.879 104.041 247.6 102.373C235.699 99.6487 216.203 98.1467 202.257 98.8692C188.176 99.6137 167.498 98.0547 161.987 96.6796C156.297 95.2695 145.757 95.5323 145.315 95.541L145.341 96.6665C145.45 96.6665 156.183 96.3994 161.716 97.7744C167.437 99.1977 187.904 100.757 202.327 99.9947C216.185 99.259 235.545 100.748 247.364 103.454C252.835 104.707 256.376 106.126 258.526 107.96C255.286 107.378 243.774 105.438 241.288 106.861C238.391 108.517 236.968 116.18 239.87 119.649C242.369 122.635 253.365 123.428 256.341 123.59C247.149 128.709 223.482 129.327 206.879 129.76C202.314 129.878 197.998 129.988 194.58 130.176C186.902 130.592 178.305 135.659 168.352 141.532C153.574 150.351 135.116 161.256 110.577 162.569C69.9311 164.759 25.6255 137.319 25.1834 137.043L24.5881 137.998C25.0259 138.278 69.6379 165.906 110.634 163.695C135.448 162.359 154.043 151.394 168.982 142.583C178.809 136.789 187.296 131.783 194.693 131.385C198.103 131.197 202.406 131.087 206.949 130.969C214.054 130.785 222.038 130.575 229.649 130.041C229.439 132.401 228.616 140.778 227.273 145.841L225.959 150.824C225.829 151.309 225.651 151.78 225.43 152.23C223.775 153.377 215.362 159.346 214.18 162.617C212.867 166.366 213.401 169.699 215.603 171.788C214.539 172.685 213.787 173.513 213.712 174.135C213.489 175.922 214.588 178.19 221.219 175.83C222.059 175.488 222.926 175.107 223.788 174.695C226.467 173.714 229.505 171.932 232.429 169.926L232.477 169.896C236.329 167.203 240.019 164.285 243.529 161.159C243.201 162.447 242.899 163.787 242.654 165.258C242.654 165.381 242.615 165.503 242.597 165.622C241.59 172.418 243.91 175.755 246.099 177.362C247.089 178.083 248.214 178.596 249.408 178.869C249.23 179.918 249.347 180.996 249.745 181.982C251.684 186.3 257.409 178.116 261.182 171.805C267.464 162.215 276.336 145.214 278.253 141.497L280.004 143.686C280.556 144.759 295.049 172.055 311.213 171.897C312.624 171.952 314.012 171.529 315.153 170.697C316.076 171.954 316.978 172.847 317.779 173.053C321.719 174.06 315.499 158.295 313.402 154.144L313.367 154.074C312.492 152.195 311.472 150.242 310.373 148.245L310.329 148.17C305.339 139.167 298.511 129.388 293.32 122.333C285.393 111.556 270.423 97.4066 265.376 92.7383C269.687 93.8419 275.22 95.1688 279.728 96.2417C283.27 97.0913 286.062 97.7613 286.688 97.9496C287.406 98.1598 287.769 98.4488 288.649 99.1451C291.188 101.132 293.871 102.926 296.677 104.514C303.483 108.534 321.347 116.22 330.088 112.883C331.037 112.543 331.908 112.014 332.647 111.327C333.386 110.641 333.977 109.811 334.386 108.889C335.213 109.514 336.137 109.998 337.122 110.321C340.82 111.157 334.701 102.333 329.707 97.8401ZM232.972 168.162C233.015 166.638 232.166 164.803 228.805 164.768C228.502 164.779 228.2 164.814 227.903 164.873C227.903 164.873 226.59 164.811 223.062 166.852C220.742 168.165 218.504 169.617 216.36 171.201C213.498 168.63 214.447 164.632 215.047 162.915C216.207 159.635 226.139 152.843 226.24 152.769L226.817 152.059L228.398 146.13C229.798 140.875 230.634 132.09 230.822 129.962C235.993 129.624 241.141 128.989 246.239 128.061C247.018 130.378 250.677 141.334 250.804 143.826C250.844 144.702 250.064 146.13 248.979 148.083C246.935 151.58 245.296 155.298 244.094 159.167C240.561 162.382 236.842 165.386 232.954 168.162H232.972Z" fill="white"/>
<path d="M49 150.5C49 67.381 116.381 0 199.5 0C282.619 0 350 67.3812 350 150.5V461.216H49V150.5Z" fill="#FCF9F4"/>
<mask id="mask0_50_1884" style="mask-type:alpha" maskUnits="userSpaceOnUse" x="49" y="0" width="301" height="462">
<path d="M49 150.5C49 67.381 116.381 0 199.5 0C282.619 0 350 67.3812 350 150.5V461.216H49V150.5Z" fill="#FCF9F4"/>
</mask>
<g mask="url(#mask0_50_1884)">
<path fill-rule="evenodd" clip-rule="evenodd" d="M301.693 77.8184C308.21 81.637 322.099 90.1415 329.707 97.8401C334.701 102.333 340.82 111.157 337.122 110.321C336.137 109.998 335.212 109.514 334.386 108.889C333.977 109.811 333.386 110.641 332.647 111.327C331.908 112.014 331.037 112.543 330.088 112.883C321.346 116.22 303.483 108.534 296.677 104.514C293.871 102.926 291.188 101.132 288.649 99.1451L288.638 99.1363C287.766 98.4464 287.403 98.1589 286.688 97.9496C286.062 97.7613 283.269 97.0913 279.728 96.2417C275.22 95.1688 269.687 93.8419 265.376 92.7383C270.422 97.4066 285.392 111.556 293.319 122.333C298.511 129.388 305.339 139.167 310.329 148.17L310.373 148.245C311.471 150.242 312.491 152.195 313.367 154.074L313.402 154.144C315.498 158.295 321.718 174.06 317.779 173.053C316.978 172.847 316.076 171.954 315.153 170.697C314.012 171.529 312.624 171.952 311.213 171.897C295.048 172.055 280.556 144.759 280.004 143.686L278.253 141.497C276.336 145.214 267.464 162.215 261.182 171.805C257.409 178.116 251.684 186.3 249.745 181.982C249.347 180.996 249.23 179.918 249.408 178.869C248.214 178.596 247.088 178.083 246.099 177.362C243.91 175.755 241.59 172.418 242.597 165.622C242.603 165.581 242.612 165.539 242.62 165.497C242.637 165.418 242.654 165.338 242.654 165.258C242.899 163.787 243.201 162.447 243.529 161.159C240.019 164.285 236.329 167.203 232.477 169.896L232.429 169.926C229.505 171.932 226.467 173.714 223.788 174.695C222.926 175.107 222.059 175.488 221.219 175.83C214.587 178.19 213.489 175.922 213.712 174.135C213.786 173.513 214.539 172.685 215.603 171.788C213.401 169.699 212.867 166.366 214.18 162.617C215.362 159.346 223.775 153.377 225.43 152.23C225.651 151.78 225.829 151.309 225.959 150.824L227.272 145.841C228.616 140.778 229.439 132.401 229.649 130.041C222.037 130.575 214.053 130.785 206.949 130.969L206.624 130.977C202.201 131.092 198.022 131.201 194.693 131.385C187.298 131.783 178.815 136.785 168.993 142.576L168.982 142.583C154.042 151.394 135.448 162.359 110.634 163.695C69.6377 165.906 25.0257 138.278 24.588 137.998L25.1832 137.043C25.6253 137.319 69.931 164.759 110.577 162.569C135.116 161.256 153.574 150.351 168.351 141.532C178.305 135.659 186.902 130.592 194.579 130.176C197.923 129.992 202.124 129.883 206.578 129.768L206.879 129.76L206.885 129.76C223.487 129.327 247.15 128.709 256.341 123.59C253.365 123.428 242.369 122.635 239.87 119.649C236.968 116.18 238.39 108.517 241.288 106.861C243.774 105.438 255.286 107.378 258.525 107.96C256.376 106.126 252.835 104.707 247.364 103.454C235.545 100.748 216.185 99.259 202.327 99.9947C187.904 100.757 167.437 99.1977 161.716 97.7744C156.386 96.4498 146.23 96.6491 145.395 96.6655C145.363 96.6661 145.345 96.6665 145.341 96.6665L145.314 95.541L145.359 95.5401C146.224 95.5214 156.424 95.301 161.987 96.6796C167.498 98.0547 188.176 99.6137 202.257 98.8692C216.203 98.1467 235.698 99.6488 247.6 102.373C254.879 104.041 258.924 106.051 260.906 108.972C263.428 110.448 268.164 113.667 267.695 116.824C267.026 121.343 261.379 122.92 258.613 123.428C256.149 125.346 252.161 126.739 247.28 127.768C248.165 130.395 251.723 141.081 251.855 143.686C251.916 144.899 251.11 146.357 249.894 148.547L249.893 148.549C247.962 152.021 245.039 157.28 243.726 165.368C243.72 165.401 243.713 165.434 243.706 165.467C243.687 165.55 243.669 165.633 243.669 165.718C242.768 171.963 244.82 174.967 246.733 176.39C247.579 177.011 248.541 177.458 249.561 177.704C251.172 171.183 259.344 162.994 259.344 162.994C261.217 162.171 263.638 163.025 264.439 164.216C269.67 155.366 275.417 144.571 277.439 140.476L276.962 139.885C274.055 136.241 259.322 124.264 259.173 124.146L259.882 123.27C259.922 123.303 260.024 123.387 260.181 123.515C262.354 125.298 275.032 135.695 277.829 139.18L280.893 143.003L280.899 143.015C281.283 143.732 295.806 170.849 311.156 170.702C312.618 170.688 313.691 170.347 314.461 169.721C311.034 164.492 307.484 154.91 307.484 154.91C307.134 150.382 308.228 148.849 309.147 148.341C305.593 141.965 300.27 133.688 292.365 122.942C283.512 110.887 265.579 94.4464 263.174 92.2408L263.038 92.1165C261.397 91.6786 260.062 91.302 259.234 91.0261C256.844 90.2291 252.953 90.5006 248.44 90.8203L248.329 90.828C244.557 91.0889 240.321 91.3819 236.324 91.0523C228.809 90.4305 220.011 88.8365 218.886 87.4658C218.054 86.4454 216.579 83.1522 216.518 83.0121L217.546 82.5742C217.608 82.703 217.685 82.8657 217.773 83.0519C218.307 84.1825 219.251 86.1829 219.77 86.7695C220.374 87.4526 227.159 89.178 236.429 89.9488C240.382 90.2728 244.627 89.9751 248.374 89.7124L248.375 89.7123L248.515 89.7025C253.086 89.3825 257.007 89.1081 259.607 89.9751C262.644 90.991 273.084 93.5003 279.995 95.1601C283.672 96.0447 286.342 96.6884 286.999 96.8811C287.918 97.157 288.421 97.5511 289.332 98.2737C291.837 100.229 294.484 101.995 297.25 103.559C303.908 107.492 321.324 115.037 329.685 111.845C330.534 111.55 331.31 111.076 331.96 110.455C332.611 109.834 333.12 109.08 333.454 108.245C328.262 104.457 320.58 96.9468 320.58 96.9468C317.954 92.7997 318.589 91.1268 319.188 90.5006C301.829 77.8096 274.147 63.9319 265.06 61.7423C249.937 58.0769 202.975 50.2381 194.273 51.2321C189.509 51.7729 163.952 61.4162 139.143 70.7774L138.832 70.8948C118.92 78.4096 100.098 85.5126 92.2195 87.8599C74.4132 93.1719 35.0888 79.7583 33.4211 79.1847L33.7887 78.1205C34.1914 78.2607 74.4132 91.9895 91.9218 86.7826C99.7235 84.4515 118.421 77.3944 138.25 69.9104L138.438 69.8394C163.405 60.4154 189.222 50.6716 194.146 50.1111C202.94 49.1082 250.143 56.9689 265.362 60.6562C272.217 62.3247 287.502 69.5416 301.693 77.8184ZM232.972 168.149C233.01 166.627 232.157 164.803 228.804 164.768C228.502 164.779 228.2 164.814 227.903 164.873C227.903 164.873 226.59 164.811 223.062 166.852C220.742 168.165 218.504 169.617 216.36 171.201C213.497 168.63 214.447 164.632 215.047 162.915C216.159 159.77 225.339 153.394 226.179 152.811C226.215 152.786 226.235 152.772 226.239 152.769L226.817 152.059L228.397 146.13C229.798 140.875 230.634 132.09 230.822 129.962C235.993 129.624 241.14 128.989 246.239 128.061C247.018 130.378 250.677 141.335 250.804 143.826C250.843 144.702 250.064 146.13 248.979 148.083C246.935 151.58 245.296 155.298 244.094 159.167C240.567 162.377 236.853 165.377 232.972 168.149ZM282.189 371.427C294.593 376.441 309.765 395.027 327.273 426.675C340.265 450.152 349.772 472.469 349.851 472.692L348.227 473.379C347.85 472.495 310.294 384.696 281.501 373.065C258.259 363.676 230.739 389.373 217.516 401.722L217.356 401.871C214.156 404.855 211.843 407.013 210.491 407.814C208.622 408.923 206.856 409.802 205.278 410.587C205.037 410.707 204.8 410.825 204.568 410.941C201.053 412.666 199.079 413.7 199.395 414.882C199.482 415.14 199.487 415.42 199.408 415.681C199.33 415.942 199.172 416.173 198.957 416.34C198.51 416.677 197.149 417.693 186.07 411.019L185.803 410.857L185.698 410.56C185.611 410.314 176.616 385.883 159.514 377.124C144.938 369.662 139.09 370.45 137.226 371.16C141.524 375.973 146.251 385.397 147.691 389.338C149.722 394.913 146.698 394.558 146.698 394.558C149.39 399.117 152.336 403.925 155.246 408.493C155.605 409.027 155.811 409.342 155.811 409.342C160.158 416.121 164.39 422.292 167.559 426.193C177.509 438.464 194.904 447.148 197.968 447.012C199.355 446.951 208.136 444.643 216.627 442.405C233.493 437.965 244.694 435.088 246.624 435.486C246.662 435.494 246.698 435.506 246.733 435.521C250.323 436.971 269.696 474.851 277.93 491.203L276.349 492C266.081 471.588 248.804 438.661 246.27 437.216C244.546 436.891 228.375 441.143 217.434 444.02L217.078 444.113C206.254 446.964 199.543 448.711 198.042 448.777C197.197 448.812 195.674 448.383 193.752 447.603C191.411 448.313 172.948 453.564 162.324 446.158C162.141 446.048 161.945 445.892 161.74 445.729C161.676 445.679 161.611 445.627 161.545 445.576C153.861 444.833 146.341 442.881 139.265 439.791C136.6 439.484 86.4156 433.568 70.1063 423.198C56.1038 414.304 41.7204 405.537 30.4186 400.864C23.3276 400.68 -1.13637 391.466 0.041088 388.896C0.605742 387.661 4.01117 387.661 8.41022 388.401C9.07117 387.179 10.4237 385.808 12.3234 384.551C14.9628 382.8 24.6145 377.479 37.8029 382.541C43.1036 384.569 51.7923 388.05 61.05 391.795C73.6649 396.888 86.1661 401.994 92.8675 404.74C86.6388 399.279 80.5108 393.796 75.2582 388.913C66.9154 383.597 52.1381 368.357 53.4512 366.01C54.2391 364.622 56.6159 365.414 59.9644 367.604C60.1045 367.412 60.2596 367.232 60.4284 367.065C61.7547 365.905 65.681 363.75 74.4966 367.311C75.1152 367.559 75.7601 367.839 76.4313 368.151C89.147 374.024 107.789 389.785 113.199 394.475C114.924 395.968 116.959 397.759 118.99 399.559C114.95 394.873 110.993 390.258 107.282 385.878C99.9279 378.355 91.2305 366.833 94.509 366.702C94.7503 366.693 95.0124 366.724 95.2931 366.791C94.4426 366.508 93.5444 366.205 92.6005 365.883C88.2234 364.381 76.5758 359.222 69.8393 353.621L69.8875 353.678C69.8875 353.678 56.6159 347.302 56.8523 343.47C57.0886 339.638 72.0147 338.828 72.0147 338.828C72.0147 338.828 71.7828 338.885 71.437 338.999C75.8229 337.812 81.7671 338.635 87.9476 341.386C98.641 346.181 124.291 351.44 147.665 345.222C170.632 339.113 205.273 347.595 225.491 359.332C243.131 369.575 258.543 370.836 260.027 370.936C267.429 368.799 274.975 368.515 282.189 371.427ZM96.0547 367.044C96.9665 367.418 98.0221 368.082 99.1663 368.948C99.6502 368.764 100.148 368.617 100.655 368.51C99.3582 368.115 97.8179 367.625 96.0547 367.044ZM32.594 399.822C43.0379 404.354 55.631 411.913 71.0518 421.718C84.0432 429.986 120.601 435.539 134.284 437.374C132.717 436.537 131.141 435.635 129.583 434.619C123.315 430.524 110.227 419.795 97.004 408.344C86.9803 404.232 50.7374 389.404 37.1682 384.192C27.302 380.409 18.377 382.66 13.2951 386.023C12.1304 386.747 11.1034 387.672 10.2618 388.756C15.6588 389.868 22.0626 391.948 26.5667 394.304C32.0425 397.168 32.8129 398.902 32.594 399.822ZM79.8236 390.739C96.9296 406.364 120.759 426.771 130.542 433.143C141.914 440.553 153.907 442.865 159.16 443.557C152.519 437.536 140.548 424.337 128.121 410.126C128.104 410.11 128.053 410.064 127.971 409.991C126.679 408.828 117.696 400.743 112.022 395.824C106.669 391.173 88.1884 375.548 75.6916 369.767C68.1541 366.281 63.453 366.781 61.5883 368.41C61.548 368.448 61.5164 368.488 61.4851 368.529C61.4621 368.558 61.4392 368.588 61.4133 368.616C64.8537 371.081 69.1127 374.725 73.6956 378.964C83.7324 388.248 79.8236 390.739 79.8236 390.739ZM191.187 446.469C183.93 442.983 173.136 435.863 166.202 427.315C163.2 423.614 158.866 417.321 154.34 410.301C154.301 410.236 149.981 403.422 141.537 394.225L140.911 393.542C132.634 384.508 123.206 374.252 113.812 371.37C108.367 369.697 103.583 369.64 100.812 370.315C106.358 375.075 113.156 383.317 115.112 386.82C117.953 391.917 114.955 392.167 114.928 392.167C140.78 422.384 157.781 440.851 163.344 444.717C171.648 450.485 185.703 447.822 191.187 446.469ZM209.606 406.294C210.815 405.576 213.261 403.303 216.325 400.43C225.102 392.237 240.036 378.298 256.092 372.268C244.986 370.433 234.311 366.574 224.598 360.882C204.695 349.325 170.637 340.961 148.112 346.952C124.3 353.271 98.1639 347.858 87.221 343.01C80.4933 339.997 73.8838 339.389 69.9444 341.429C69.0842 341.837 68.3333 342.444 67.7534 343.199C67.1736 343.955 66.7813 344.837 66.609 345.773C65.5059 351.519 84.958 361.425 93.1608 364.219C100.374 366.683 105.091 368.071 105.394 368.16L105.395 368.16C108.427 368.272 111.431 368.785 114.329 369.684C114.977 369.883 115.623 370.113 116.268 370.376C125.451 374.081 134.332 383.75 142.211 392.346L142.837 393.034C143.473 393.723 144.071 394.398 144.656 395.058C144.957 395.398 145.254 395.733 145.551 396.064C144.304 393.958 143.109 391.904 141.988 389.934C136.49 382.572 129.049 368.953 132.433 368.248C133.453 368.037 134.656 368.686 135.934 369.837C135.95 369.829 135.963 369.817 135.976 369.805C135.996 369.788 136.014 369.772 136.035 369.772C138.46 368.519 144.807 367.595 160.346 375.557C177.237 384.206 186.149 406.675 187.274 409.666C191.253 412.049 195.928 414.462 197.609 414.821C197.395 412.508 200.115 411.173 203.79 409.37L203.811 409.36C204.091 409.218 204.377 409.075 204.669 408.93C206.187 408.171 207.855 407.337 209.606 406.294Z" fill="#773532"/>
</g>
<path d="M199.186 222.237C200.746 222.237 202.096 222.807 203.236 223.947C204.376 225.087 204.946 226.437 204.946 227.997C204.946 229.557 204.376 230.907 203.236 232.047C202.096 233.187 200.746 233.757 199.186 233.757C197.626 233.757 196.276 233.187 195.136 232.047C193.996 230.907 193.426 229.557 193.426 227.997C193.426 226.437 193.996 225.087 195.136 223.947C196.276 222.807 197.626 222.237 199.186 222.237ZM203.866 243.747V282.717C203.866 285.237 204.376 286.947 205.396 287.847C206.476 288.747 208.246 289.197 210.706 289.197V291.087C209.686 291.027 208.126 290.967 206.026 290.907C203.986 290.787 201.916 290.727 199.816 290.727C197.776 290.727 195.706 290.787 193.606 290.907C191.506 290.967 189.946 291.027 188.926 291.087V289.197C191.386 289.197 193.126 288.747 194.146 287.847C195.226 286.947 195.766 285.237 195.766 282.717V254.547C195.766 251.847 195.286 249.867 194.326 248.607C193.366 247.287 191.566 246.627 188.926 246.627V244.737C190.846 244.917 192.706 245.007 194.506 245.007C196.246 245.007 197.896 244.917 199.456 244.737C201.076 244.497 202.546 244.167 203.866 243.747Z" fill="#773532"/>
</svg>
