<svg width="51" height="52" viewBox="0 0 51 52" fill="none" xmlns="http://www.w3.org/2000/svg">
<g id="Group 25">
<path id="Vector" d="M25.5431 51.9999C25.291 51.9999 25.0491 51.8989 24.8708 51.7192C24.6925 51.5395 24.5923 51.2958 24.5923 51.0416V33.0516C24.5923 32.7974 24.6925 32.5537 24.8708 32.3739C25.0491 32.1942 25.291 32.0933 25.5431 32.0933C25.7877 32.1045 26.0186 32.2104 26.1877 32.3889C26.3568 32.5674 26.451 32.8048 26.4507 33.0516V50.9545C26.4626 51.0839 26.4482 51.2143 26.4084 51.3379C26.3687 51.4615 26.3044 51.5757 26.2195 51.6735C26.1346 51.7712 26.0309 51.8506 25.9146 51.9067C25.7983 51.9628 25.6719 51.9946 25.5431 51.9999Z" fill="#45526C"/>
<path id="Vector_2" d="M19.7948 46.1192C19.6664 46.1251 19.5381 46.1046 19.4177 46.0591C19.2973 46.0136 19.1873 45.9439 19.0944 45.8544C19.0015 45.7648 18.9275 45.6571 18.8771 45.5379C18.8266 45.4187 18.8006 45.2905 18.8008 45.1609V33.0513C18.8006 32.9217 18.8266 32.7935 18.8771 32.6743C18.9275 32.5551 19.0015 32.4474 19.0944 32.3578C19.1873 32.2683 19.2973 32.1986 19.4177 32.1531C19.5381 32.1076 19.6664 32.0871 19.7948 32.093C20.047 32.093 20.2889 32.194 20.4672 32.3737C20.6455 32.5534 20.7457 32.7972 20.7457 33.0513V45.1173C20.7515 45.2468 20.7313 45.3761 20.6861 45.4974C20.641 45.6188 20.5718 45.7296 20.483 45.8233C20.3941 45.9169 20.2873 45.9914 20.169 46.0423C20.0507 46.0931 19.9234 46.1193 19.7948 46.1192Z" fill="#45526C"/>
<path id="Vector_3" d="M14.0031 40.3696C13.8745 40.3697 13.7472 40.3435 13.629 40.2927C13.5107 40.2418 13.4039 40.1673 13.315 40.0737C13.2261 39.98 13.157 39.8692 13.1118 39.7478C13.0667 39.6265 13.0464 39.4972 13.0523 39.3677V33.0516C13.0523 32.7974 13.1524 32.5537 13.3307 32.3739C13.5091 32.1942 13.7509 32.0933 14.0031 32.0933C14.2553 32.0933 14.4971 32.1942 14.6754 32.3739C14.8538 32.5537 14.9539 32.7974 14.9539 33.0516V39.2806C14.9726 39.4169 14.9618 39.5557 14.9225 39.6875C14.8831 39.8193 14.816 39.941 14.7258 40.0444C14.6356 40.1477 14.5243 40.2303 14.3996 40.2864C14.2749 40.3425 14.1397 40.3709 14.0031 40.3696Z" fill="#45526C"/>
<path id="Vector_4" d="M8.25529 34.5324C8.12684 34.5383 7.99853 34.5178 7.87813 34.4723C7.75774 34.4268 7.64774 34.3572 7.55482 34.2676C7.4619 34.178 7.38796 34.0703 7.3375 33.9511C7.28704 33.8319 7.2611 33.7037 7.26123 33.5741V33.0513C7.2611 32.9218 7.28704 32.7935 7.3375 32.6743C7.38796 32.5551 7.4619 32.4474 7.55482 32.3578C7.64774 32.2683 7.75774 32.1986 7.87813 32.1531C7.99853 32.1076 8.12684 32.0871 8.25529 32.093C8.49991 32.1042 8.73079 32.2101 8.89986 32.3887C9.06894 32.5672 9.16317 32.8046 9.16291 33.0513V33.4869C9.17474 33.6163 9.16035 33.7468 9.12059 33.8704C9.08084 33.994 9.01656 34.1081 8.93166 34.2059C8.84677 34.3037 8.74303 34.3831 8.62675 34.4392C8.51048 34.4953 8.3841 34.527 8.25529 34.5324Z" fill="#45526C"/>
<path id="Vector_5" d="M8.16865 34.3149C7.91647 34.3149 7.67462 34.214 7.4963 34.0342C7.31798 33.8545 7.21779 33.6108 7.21779 33.3566C7.21783 31.6774 6.55896 30.0664 5.38491 28.875C4.21085 27.6836 2.6169 27.0084 0.950844 26.9969C0.698664 26.9969 0.456821 26.896 0.278503 26.7163C0.100184 26.5365 0 26.2928 0 26.0386C0 25.7845 0.100184 25.5407 0.278503 25.361C0.456821 25.1813 0.698664 25.0803 0.950844 25.0803C3.12877 25.0803 5.2175 25.9523 6.75752 27.5044C8.29754 29.0565 9.16271 31.1616 9.16271 33.3566C9.16285 33.4862 9.13689 33.6145 9.08643 33.7337C9.03596 33.8529 8.96203 33.9605 8.86911 34.0501C8.77618 34.1397 8.66621 34.2094 8.54581 34.2549C8.42541 34.3004 8.2971 34.3208 8.16865 34.3149Z" fill="#45526C"/>
<path id="Vector_6" d="M13.9603 34.315C13.7082 34.315 13.4663 34.2141 13.288 34.0343C13.1097 33.8546 13.0095 33.6109 13.0095 33.3567C13.0209 30.9047 12.2907 28.5074 10.9163 26.4841C9.54195 24.4609 7.58853 22.9076 5.31628 22.0313C5.19539 21.9879 5.08447 21.9202 4.9902 21.8325C4.89593 21.7447 4.82025 21.6386 4.76775 21.5206C4.71525 21.4025 4.68702 21.275 4.68472 21.1457C4.68243 21.0164 4.70613 20.8879 4.75441 20.7681C4.85882 20.5372 5.04627 20.3548 5.27891 20.2578C5.51155 20.1607 5.77205 20.1563 6.00781 20.2453C8.62636 21.2645 10.8779 23.0579 12.4669 25.39C14.0558 27.7222 14.9079 30.4841 14.9112 33.3132C14.917 33.4426 14.8968 33.5719 14.8516 33.6933C14.8064 33.8146 14.7373 33.9255 14.6484 34.0191C14.5596 34.1128 14.4528 34.1873 14.3345 34.2381C14.2162 34.289 14.0889 34.3152 13.9603 34.315Z" fill="#45526C"/>
<path id="Vector_7" d="M19.7516 34.3148C19.4994 34.3148 19.2575 34.2139 19.0792 34.0341C18.9009 33.8544 18.8007 33.6107 18.8007 33.3565C18.8015 30.1342 17.9436 26.9708 16.3166 24.197C14.6896 21.4231 12.3532 19.1406 9.55158 17.588C9.4403 17.5286 9.34183 17.4475 9.2619 17.3494C9.18198 17.2513 9.12219 17.1382 9.086 17.0166C9.04981 16.895 9.03795 16.7674 9.0511 16.6412C9.06424 16.5149 9.10215 16.3926 9.1626 16.2812C9.29012 16.0517 9.50212 15.8819 9.75281 15.8085C10.0035 15.7352 10.2728 15.7642 10.5024 15.8892C13.5894 17.6133 16.1629 20.1379 17.9563 23.2014C19.7497 26.2649 20.6978 29.756 20.7024 33.313C20.7083 33.4424 20.688 33.5717 20.6428 33.6931C20.5977 33.8144 20.5286 33.9253 20.4397 34.0189C20.3508 34.1126 20.244 34.1871 20.1257 34.2379C20.0075 34.2888 19.8802 34.315 19.7516 34.3148Z" fill="#45526C"/>
<path id="Vector_8" d="M25.5431 34.3148C25.291 34.3148 25.0491 34.2138 24.8708 34.0341C24.6925 33.8544 24.5923 33.6107 24.5923 33.3565C24.6153 33.1685 24.6153 32.9783 24.5923 32.7902V32.3111C24.5923 32.0569 24.6925 31.8132 24.8708 31.6335C25.0491 31.4537 25.291 31.3528 25.5431 31.3528C25.7953 31.3528 26.0372 31.4537 26.2155 31.6335C26.3938 31.8132 26.494 32.0569 26.494 32.3111V33.4001C26.4828 33.6466 26.3778 33.8793 26.2006 34.0497C26.0235 34.2201 25.788 34.3151 25.5431 34.3148Z" fill="#45526C"/>
<path id="Vector_9" d="M25.5003 33.2694C25.2481 33.2694 25.0063 33.1685 24.8279 32.9887C24.6496 32.809 24.5495 32.5653 24.5495 32.3111C24.3811 28.5016 23.308 24.7884 21.4202 21.4836C19.5325 18.1788 16.8853 15.3789 13.7011 13.3192C13.4834 13.1806 13.3291 12.9604 13.2724 12.7072C13.2157 12.4539 13.261 12.1884 13.3986 11.9689C13.5362 11.7494 13.7546 11.5939 14.0059 11.5367C14.2571 11.4796 14.5206 11.5253 14.7384 11.6639C18.1826 13.8942 21.0445 16.9261 23.0829 20.5042C25.1213 24.0823 26.2765 28.1018 26.4511 32.224C26.463 32.3534 26.4486 32.4838 26.4088 32.6074C26.3691 32.731 26.3048 32.8452 26.2199 32.943C26.135 33.0408 26.0313 33.1201 25.915 33.1762C25.7987 33.2324 25.6723 33.264 25.5435 33.2694H25.5003Z" fill="#45526C"/>
<path id="Vector_10" d="M25.457 51.869C25.3285 51.8749 25.2002 51.8545 25.0798 51.8089C24.9594 51.7634 24.8494 51.6938 24.7565 51.6042C24.6636 51.5146 24.5896 51.407 24.5392 51.2878C24.4887 51.1686 24.4628 51.0403 24.4629 50.9107V33.0513C24.4628 32.9217 24.4887 32.7935 24.5392 32.6743C24.5896 32.5551 24.6636 32.4474 24.7565 32.3578C24.8494 32.2683 24.9594 32.1986 25.0798 32.1531C25.2002 32.1076 25.3285 32.0871 25.457 32.093C25.5854 32.0871 25.7137 32.1076 25.8341 32.1531C25.9545 32.1986 26.0645 32.2683 26.1574 32.3578C26.2503 32.4474 26.3243 32.5551 26.3747 32.6743C26.4252 32.7935 26.4512 32.9217 26.451 33.0513V50.9107C26.4512 51.0403 26.4252 51.1686 26.3747 51.2878C26.3243 51.407 26.2503 51.5146 26.1574 51.6042C26.0645 51.6938 25.9545 51.7634 25.8341 51.8089C25.7137 51.8545 25.5854 51.8749 25.457 51.869Z" fill="#45526C"/>
<path id="Vector_11" d="M31.2047 46.1194C30.9526 46.1194 30.7107 46.0184 30.5324 45.8387C30.3541 45.659 30.2539 45.4153 30.2539 45.1611V33.0516C30.2539 32.7974 30.3541 32.5537 30.5324 32.3739C30.7107 32.1942 30.9526 32.0933 31.2047 32.0933C31.4569 32.0933 31.6988 32.1942 31.8771 32.3739C32.0554 32.5537 32.1556 32.7974 32.1556 33.0516V45.2482C32.134 45.487 32.0243 45.7089 31.8483 45.8702C31.6723 46.0315 31.4426 46.1204 31.2047 46.1194Z" fill="#45526C"/>
<path id="Vector_12" d="M36.9967 40.4567C36.7446 40.4567 36.5027 40.3557 36.3244 40.176C36.1461 39.9963 36.0459 39.7525 36.0459 39.4984V33.0516C36.0459 32.9257 36.0705 32.8011 36.1183 32.6848C36.1661 32.5686 36.2361 32.4629 36.3244 32.3739C36.4127 32.285 36.5175 32.2144 36.6329 32.1662C36.7482 32.118 36.8719 32.0933 36.9967 32.0933C37.1216 32.0933 37.2452 32.118 37.3606 32.1662C37.476 32.2144 37.5808 32.285 37.6691 32.3739C37.7574 32.4629 37.8274 32.5686 37.8752 32.6848C37.923 32.8011 37.9476 32.9257 37.9476 33.0516V39.4113C37.9596 39.5442 37.944 39.6783 37.9016 39.8048C37.8592 39.9313 37.7911 40.0475 37.7016 40.1459C37.6121 40.2444 37.5031 40.3229 37.3817 40.3764C37.2604 40.4299 37.1292 40.4572 36.9967 40.4567Z" fill="#45526C"/>
<path id="Vector_13" d="M42.7446 34.663C42.616 34.6632 42.4887 34.637 42.3704 34.5862C42.2521 34.5353 42.1453 34.4608 42.0564 34.3671C41.9676 34.2735 41.8985 34.1626 41.8533 34.0413C41.8081 33.92 41.7879 33.7906 41.7937 33.6612V33.0513C41.7937 32.7972 41.8939 32.5534 42.0722 32.3737C42.2505 32.194 42.4924 32.093 42.7446 32.093C42.873 32.0871 43.0013 32.1076 43.1217 32.1531C43.2421 32.1986 43.3521 32.2683 43.445 32.3578C43.5379 32.4474 43.6119 32.5551 43.6623 32.6743C43.7128 32.7935 43.7387 32.9217 43.7386 33.0513V33.5741C43.7506 33.7128 43.7338 33.8525 43.6893 33.9843C43.6447 34.116 43.5734 34.237 43.4799 34.3395C43.3863 34.442 43.2727 34.5237 43.146 34.5794C43.0194 34.6351 42.8827 34.6636 42.7446 34.663Z" fill="#45526C"/>
<path id="Vector_14" d="M42.8315 34.3149C42.5793 34.3149 42.3374 34.214 42.1591 34.0342C41.9808 33.8545 41.8806 33.6108 41.8806 33.3566C41.8806 31.1691 42.7398 29.0706 44.2705 27.5197C45.8012 25.9689 47.8788 25.0918 50.0493 25.0803C50.3014 25.0803 50.5433 25.1813 50.7216 25.361C50.8999 25.5407 51.0001 25.7845 51.0001 26.0386C51.0001 26.2928 50.8999 26.5365 50.7216 26.7163C50.5433 26.896 50.3014 26.9969 50.0493 26.9969C48.3757 26.9969 46.7707 27.667 45.5873 28.8596C44.4039 30.0523 43.7391 31.6699 43.7391 33.3566C43.7393 33.6034 43.6451 33.8408 43.476 34.0193C43.307 34.1978 43.0761 34.3037 42.8315 34.3149Z" fill="#45526C"/>
<path id="Vector_15" d="M37.0397 34.3149C36.7875 34.3149 36.5457 34.2139 36.3674 34.0342C36.1891 33.8545 36.0889 33.6107 36.0889 33.3566C36.0868 30.5145 36.9467 27.7396 38.5535 25.404C40.1603 23.0683 42.4371 21.2835 45.0787 20.2888C45.1968 20.2332 45.3254 20.2039 45.4557 20.2029C45.586 20.2019 45.715 20.2292 45.8339 20.2829C45.9529 20.3366 46.0589 20.4155 46.1448 20.5143C46.2308 20.613 46.2947 20.7292 46.3321 20.855C46.4177 21.098 46.4071 21.3649 46.3024 21.6002C46.1978 21.8355 46.0072 22.021 45.7702 22.1183C43.4783 22.9752 41.5029 24.5211 40.1115 26.5467C38.72 28.5724 37.9796 30.98 37.9906 33.4437C37.9689 33.6825 37.8593 33.9044 37.6833 34.0657C37.5072 34.227 37.2776 34.3159 37.0397 34.3149Z" fill="#45526C"/>
<path id="Vector_16" d="M31.2482 34.3149C30.996 34.3149 30.7542 34.2139 30.5759 34.0342C30.3975 33.8545 30.2974 33.6107 30.2974 33.3566C30.306 29.7899 31.2652 26.2911 33.0747 23.226C34.8843 20.1608 37.4777 17.642 40.5838 15.9328C40.6943 15.8719 40.8157 15.8337 40.9409 15.8204C41.0662 15.8072 41.1928 15.8191 41.3134 15.8556C41.4341 15.8921 41.5463 15.9523 41.6437 16.0329C41.741 16.1134 41.8215 16.2127 41.8804 16.3248C41.9409 16.4362 41.9788 16.5585 41.9919 16.6848C42.0051 16.811 41.9932 16.9386 41.957 17.0602C41.9208 17.1818 41.861 17.2949 41.7811 17.393C41.7012 17.4911 41.6027 17.5722 41.4914 17.6316C38.6754 19.1821 36.3261 21.469 34.6908 24.2516C33.0555 27.0342 32.1947 30.2096 32.1991 33.4437C32.1774 33.6825 32.0678 33.9044 31.8918 34.0657C31.7157 34.2269 31.4861 34.3159 31.2482 34.3149Z" fill="#45526C"/>
<path id="Vector_17" d="M25.4572 34.3147C25.205 34.3147 24.9632 34.2137 24.7848 34.034C24.6065 33.8543 24.5063 33.6105 24.5063 33.3564V32.2674C24.5358 32.0162 24.6511 31.7831 24.8325 31.6082C25.0139 31.4333 25.2501 31.3276 25.5004 31.3091C25.6253 31.3147 25.7479 31.345 25.8612 31.3984C25.9744 31.4518 26.0761 31.5272 26.1604 31.6203C26.2447 31.7134 26.31 31.8223 26.3525 31.9408C26.395 32.0593 26.4139 32.1851 26.408 32.311V32.7901C26.385 32.9781 26.385 33.1683 26.408 33.3564C26.408 33.6105 26.3079 33.8543 26.1295 34.034C25.9512 34.2137 25.7094 34.3147 25.4572 34.3147Z" fill="#45526C"/>
<path id="Vector_18" d="M25.5 33.2695C25.3712 33.2641 25.2448 33.2324 25.1286 33.1763C25.0123 33.1202 24.9085 33.0408 24.8236 32.943C24.7387 32.8452 24.6745 32.7311 24.6347 32.6075C24.595 32.4839 24.5806 32.3534 24.5924 32.224C24.7721 28.0921 25.9337 24.064 27.9794 20.4786C30.0252 16.8932 32.8953 13.8553 36.3483 11.6204C36.5701 11.4979 36.8287 11.4612 37.0755 11.5174C37.3222 11.5735 37.5401 11.7186 37.6881 11.9254C37.759 12.0332 37.8075 12.1544 37.8307 12.2816C37.8538 12.4088 37.8512 12.5395 37.8229 12.6656C37.7947 12.7918 37.7413 12.9109 37.6662 13.0157C37.591 13.1206 37.4956 13.209 37.3856 13.2757C34.182 15.3324 31.5163 18.1355 29.6132 21.4484C27.7101 24.7614 26.6255 28.4871 26.4509 32.3112C26.4509 32.5653 26.3507 32.8091 26.1724 32.9888C25.994 33.1685 25.7522 33.2695 25.5 33.2695Z" fill="#45526C"/>
<path id="Vector_19" d="M19.7949 17.6753C19.5312 17.6753 19.2784 17.5697 19.0919 17.3818C18.9055 17.1939 18.8008 16.9391 18.8008 16.6734V6.91609C18.8006 6.78649 18.8266 6.65821 18.8771 6.53901C18.9275 6.41981 19.0015 6.31216 19.0944 6.22258C19.1873 6.133 19.2973 6.06335 19.4177 6.01783C19.5381 5.97232 19.6664 5.95189 19.7949 5.95778C20.047 5.95778 20.2889 6.05875 20.4672 6.23847C20.6455 6.41818 20.7457 6.66193 20.7457 6.91609V16.717C20.7457 16.9711 20.6455 17.2149 20.4672 17.3946C20.2889 17.5743 20.047 17.6753 19.7949 17.6753Z" fill="#45526C"/>
<path id="Vector_20" d="M25.4566 27.6502C25.193 27.6502 24.9401 27.5446 24.7537 27.3568C24.5673 27.1689 24.4625 26.914 24.4625 26.6483V1.20962C24.4318 1.06367 24.4339 0.912651 24.4685 0.767587C24.5031 0.622524 24.5694 0.487073 24.6626 0.371148C24.7558 0.255224 24.8735 0.161753 25.0072 0.0975394C25.1408 0.0333255 25.2869 0 25.435 0C25.583 0 25.7292 0.0333255 25.8628 0.0975394C25.9965 0.161753 26.1142 0.255224 26.2074 0.371148C26.3006 0.487073 26.3669 0.622524 26.4015 0.767587C26.4361 0.912651 26.4382 1.06367 26.4075 1.20962V26.6483C26.4133 26.7778 26.393 26.9071 26.3479 27.0284C26.3027 27.1498 26.2336 27.2606 26.1447 27.3543C26.0558 27.4479 25.949 27.5225 25.8308 27.5733C25.7125 27.6242 25.5852 27.6503 25.4566 27.6502Z" fill="#45526C"/>
<path id="Vector_21" d="M31.2047 18.4158C30.9526 18.4158 30.7107 18.3148 30.5324 18.1351C30.3541 17.9554 30.2539 17.7116 30.2539 17.4574V6.91608C30.2539 6.66192 30.3541 6.41817 30.5324 6.23845C30.7107 6.05873 30.9526 5.95776 31.2047 5.95776C31.4569 5.95776 31.6988 6.05873 31.8771 6.23845C32.0554 6.41817 32.1556 6.66192 32.1556 6.91608V17.5881C32.1241 17.819 32.0101 18.0304 31.8351 18.1828C31.6601 18.3351 31.436 18.4179 31.2047 18.4158Z" fill="#45526C"/>
</g>
</svg>
