<svg width="60" height="52" viewBox="0 0 60 52" fill="none" xmlns="http://www.w3.org/2000/svg">
<g id="Group 28">
<path id="Vector" d="M29.9999 31.556C27.4463 31.556 24.9973 30.538 23.1917 28.7259C21.386 26.9138 20.3716 24.4561 20.3716 21.8934C20.3714 21.7421 20.4018 21.5924 20.461 21.4532C20.5202 21.314 20.6068 21.1883 20.7158 21.0838C20.8247 20.9792 20.9537 20.8978 21.0949 20.8447C21.236 20.7916 21.3865 20.7677 21.5371 20.7746C21.8328 20.7746 22.1164 20.8925 22.3254 21.1023C22.5345 21.3121 22.652 21.5967 22.652 21.8934C22.652 23.8492 23.4262 25.7248 24.8042 27.1077C26.1822 28.4906 28.0511 29.2675 29.9999 29.2675C31.9488 29.2675 33.8177 28.4906 35.1958 27.1077C36.5738 25.7248 37.3479 23.8492 37.3479 21.8934C37.3479 21.5967 37.4654 21.3121 37.6745 21.1023C37.8836 20.8925 38.1671 20.7746 38.4628 20.7746C38.6134 20.7677 38.7638 20.7916 38.905 20.8447C39.0462 20.8978 39.1751 20.9792 39.2841 21.0838C39.393 21.1883 39.4797 21.314 39.5389 21.4532C39.5981 21.5924 39.6285 21.7421 39.6283 21.8934C39.6283 24.4561 38.6139 26.9138 36.8083 28.7259C35.0026 30.538 32.5536 31.556 29.9999 31.556Z" fill="#45526C"/>
<path id="Vector_2" d="M30 38.3707C25.6495 38.3573 21.4811 36.617 18.4048 33.5298C15.3286 30.4426 13.5944 26.2593 13.5811 21.8934C13.5809 21.7421 13.6113 21.5924 13.6705 21.4532C13.7297 21.314 13.8164 21.1883 13.9253 21.0838C14.0343 20.9792 14.1632 20.8978 14.3044 20.8447C14.4456 20.7916 14.596 20.7677 14.7466 20.7746C15.0423 20.7746 15.3259 20.8925 15.5349 21.1023C15.744 21.3121 15.8614 21.5967 15.8614 21.8934C15.8614 25.6565 17.3511 29.2655 20.0025 31.9264C22.654 34.5873 26.2502 36.0822 30 36.0822C33.7497 36.0822 37.3459 34.5873 39.9974 31.9264C42.6489 29.2655 44.1385 25.6565 44.1385 21.8934C44.1385 21.5967 44.256 21.3121 44.465 21.1023C44.6741 20.8925 44.9577 20.7746 45.2534 20.7746C45.404 20.7677 45.5544 20.7916 45.6956 20.8447C45.8368 20.8978 45.9657 20.9792 46.0747 21.0838C46.1836 21.1883 46.2703 21.314 46.3295 21.4532C46.3886 21.5924 46.4191 21.7421 46.4189 21.8934C46.4056 26.2593 44.6714 30.4426 41.5952 33.5298C38.5189 36.617 34.3504 38.3573 30 38.3707Z" fill="#45526C"/>
<path id="Vector_3" d="M30 45.1854C23.8485 45.172 17.9529 42.7137 13.6032 38.3485C9.25348 33.9833 6.80392 28.0667 6.79053 21.8934C6.79037 21.7421 6.82078 21.5924 6.87995 21.4532C6.93912 21.314 7.02579 21.1883 7.13474 21.0838C7.24369 20.9792 7.37266 20.8978 7.51383 20.8447C7.65499 20.7916 7.80543 20.7677 7.95605 20.7746C8.25173 20.7746 8.5353 20.8925 8.74437 21.1023C8.95345 21.3121 9.07092 21.5967 9.07092 21.8934C9.07092 27.4639 11.2759 32.8062 15.2009 36.7451C19.1259 40.684 24.4492 42.8969 30 42.8969C35.5507 42.8969 40.8741 40.684 44.7991 36.7451C48.724 32.8062 50.929 27.4639 50.929 21.8934C50.929 21.5967 51.0465 21.3121 51.2556 21.1023C51.4647 20.8925 51.7482 20.7746 52.0439 20.7746C52.1945 20.7677 52.3449 20.7916 52.4861 20.8447C52.6273 20.8978 52.7562 20.9792 52.8652 21.0838C52.9741 21.1883 53.0608 21.314 53.12 21.4532C53.1792 21.5924 53.2096 21.7421 53.2094 21.8934C53.196 28.0667 50.7465 33.9833 46.3968 38.3485C42.047 42.7137 36.1514 45.172 30 45.1854Z" fill="#45526C"/>
<path id="Vector_4" d="M30 52.0001C22.0476 51.9866 14.4248 48.8104 8.80159 43.1672C3.1784 37.524 0.0133997 29.8741 5.95497e-07 21.8934C-0.000155243 21.7421 0.0302769 21.5924 0.0894462 21.4532C0.148615 21.314 0.235299 21.1883 0.344251 21.0838C0.453204 20.9792 0.582152 20.8978 0.723317 20.8447C0.864483 20.7916 1.01492 20.7677 1.16554 20.7746C1.46122 20.7746 1.74479 20.8925 1.95387 21.1023C2.16294 21.3121 2.28041 21.5967 2.28041 21.8934C2.28041 29.2713 5.20084 36.3469 10.3993 41.5638C15.5977 46.7807 22.6483 49.7116 30 49.7116C37.3517 49.7116 44.4023 46.7807 49.6007 41.5638C54.7991 36.3469 57.7196 29.2713 57.7196 21.8934C57.7196 21.5967 57.837 21.3121 58.0461 21.1023C58.2552 20.8925 58.5388 20.7746 58.8344 20.7746C58.9851 20.7677 59.1355 20.7916 59.2767 20.8447C59.4178 20.8978 59.5468 20.9792 59.6558 21.0838C59.7647 21.1883 59.8514 21.314 59.9105 21.4532C59.9697 21.5924 60.0002 21.7421 60 21.8934C59.9866 29.8741 56.8216 37.524 51.1984 43.1672C45.5752 48.8104 37.9524 51.9866 30 52.0001Z" fill="#45526C"/>
<path id="Vector_5" d="M38.4633 2.31394H21.5376C21.3678 2.35007 21.1921 2.34767 21.0234 2.30694C20.8546 2.26621 20.697 2.18816 20.5622 2.0785C20.4273 1.96884 20.3185 1.83034 20.2438 1.6731C20.1691 1.51587 20.1304 1.34388 20.1304 1.16968C20.1304 0.995493 20.1691 0.8235 20.2438 0.666266C20.3185 0.509033 20.4273 0.37053 20.5622 0.26087C20.697 0.151211 20.8546 0.0731641 21.0234 0.0324305C21.1921 -0.00830309 21.3678 -0.0106959 21.5376 0.0254277H38.4633C38.6331 -0.0106959 38.8088 -0.00830309 38.9775 0.0324305C39.1463 0.0731641 39.3039 0.151211 39.4387 0.26087C39.5736 0.37053 39.6823 0.509033 39.757 0.666266C39.8317 0.8235 39.8705 0.995493 39.8705 1.16968C39.8705 1.34388 39.8317 1.51587 39.757 1.6731C39.6823 1.83034 39.5736 1.96884 39.4387 2.0785C39.3039 2.18816 39.1463 2.26621 38.9775 2.30694C38.8088 2.34767 38.6331 2.35007 38.4633 2.31394Z" fill="#45526C"/>
<path id="Vector_6" d="M45.2537 8.87413H14.8483C14.5526 8.87413 14.269 8.75626 14.0599 8.54644C13.8509 8.33661 13.7334 8.05204 13.7334 7.7553C13.7334 7.45857 13.8509 7.17399 14.0599 6.96417C14.269 6.75435 14.5526 6.63647 14.8483 6.63647H45.2537C45.5493 6.63647 45.8329 6.75435 46.042 6.96417C46.2511 7.17399 46.3685 7.45857 46.3685 7.7553C46.3685 8.05204 46.2511 8.33661 46.042 8.54644C45.8329 8.75626 45.5493 8.87413 45.2537 8.87413Z" fill="#45526C"/>
<path id="Vector_7" d="M52.0439 15.6892H7.95606C7.78626 15.7253 7.61058 15.7229 7.44182 15.6822C7.27305 15.6414 7.11547 15.5634 6.98061 15.4537C6.84575 15.3441 6.73701 15.2056 6.6623 15.0483C6.5876 14.8911 6.54883 14.7191 6.54883 14.5449C6.54883 14.3707 6.5876 14.1987 6.6623 14.0415C6.73701 13.8843 6.84575 13.7458 6.98061 13.6361C7.11547 13.5265 7.27305 13.4484 7.44182 13.4077C7.61058 13.3669 7.78626 13.3645 7.95606 13.4007H52.0439C52.2137 13.3645 52.3894 13.3669 52.5582 13.4077C52.7269 13.4484 52.8845 13.5265 53.0193 13.6361C53.1542 13.7458 53.263 13.8843 53.3377 14.0415C53.4124 14.1987 53.4512 14.3707 53.4512 14.5449C53.4512 14.7191 53.4124 14.8911 53.3377 15.0483C53.263 15.2056 53.1542 15.3441 53.0193 15.4537C52.8845 15.5634 52.7269 15.6414 52.5582 15.6822C52.3894 15.7229 52.2137 15.7253 52.0439 15.6892Z" fill="#45526C"/>
<path id="Vector_8" d="M58.8852 22.6561H1.16563C0.869952 22.6561 0.586383 22.5382 0.377305 22.3284C0.168227 22.1186 0.0507812 21.834 0.0507812 21.5373C0.0507812 21.2406 0.168227 20.956 0.377305 20.7462C0.586383 20.5363 0.869952 20.4185 1.16563 20.4185H58.8852C59.1809 20.4185 59.4645 20.5363 59.6735 20.7462C59.8826 20.956 60.0001 21.2406 60.0001 21.5373C60.0001 21.834 59.8826 22.1186 59.6735 22.3284C59.4645 22.5382 59.1809 22.6561 58.8852 22.6561Z" fill="#45526C"/>
</g>
</svg>
