<svg width="49" height="52" viewBox="0 0 49 52" fill="none" xmlns="http://www.w3.org/2000/svg">
<g id="Group 23">
<path id="Vector" d="M42.0347 13.7765C41.7732 13.7765 41.5224 13.6721 41.3374 13.4864C41.1525 13.3007 41.0486 13.0487 41.0486 12.786V11.3904C41.0486 11.1277 41.1525 10.8758 41.3374 10.69C41.5224 10.5043 41.7732 10.3999 42.0347 10.3999C42.2963 10.3999 42.5471 10.5043 42.7321 10.69C42.917 10.8758 43.0209 11.1277 43.0209 11.3904V12.786C43.0209 13.0487 42.917 13.3007 42.7321 13.4864C42.5471 13.6721 42.2963 13.7765 42.0347 13.7765Z" fill="#45526C"/>
<path id="Vector_2" d="M42.0348 28.4984C41.9014 28.4985 41.7694 28.4715 41.6467 28.4189C41.5241 28.3664 41.4133 28.2894 41.3211 28.1926C41.2289 28.0958 41.1573 27.9812 41.1104 27.8558C41.0636 27.7304 41.0426 27.5967 41.0486 27.4629V14.4067C41.0486 14.144 41.1525 13.8921 41.3375 13.7064C41.5224 13.5206 41.7732 13.4163 42.0348 13.4163C42.2963 13.4163 42.5472 13.5206 42.7321 13.7064C42.917 13.8921 43.0209 14.144 43.0209 14.4067V27.4629C43.027 27.5967 43.006 27.7304 42.9591 27.8558C42.9123 27.9812 42.8406 28.0958 42.7484 28.1926C42.6563 28.2894 42.5455 28.3664 42.4228 28.4189C42.3002 28.4715 42.1681 28.4985 42.0348 28.4984Z" fill="#45526C"/>
<path id="Vector_3" d="M42.0347 15.3974C41.9052 15.3974 41.777 15.3717 41.6574 15.322C41.5377 15.2722 41.429 15.1992 41.3374 15.1073C41.2459 15.0153 41.1732 14.9061 41.1237 14.7859C41.0741 14.6658 41.0486 14.537 41.0486 14.4069V12.7861C41.0486 12.5234 41.1525 12.2715 41.3374 12.0858C41.5224 11.9 41.7732 11.7957 42.0347 11.7957C42.2963 11.7957 42.5471 11.9 42.7321 12.0858C42.917 12.2715 43.0209 12.5234 43.0209 12.7861V14.4069C43.0209 14.6696 42.917 14.9215 42.7321 15.1073C42.5471 15.293 42.2963 15.3974 42.0347 15.3974Z" fill="#45526C"/>
<path id="Vector_4" d="M42.0347 11.1201C41.7732 11.1201 41.5224 11.0158 41.3374 10.83C41.1525 10.6443 41.0486 10.3924 41.0486 10.1297V9.00414C41.0486 8.74145 41.1525 8.48952 41.3374 8.30377C41.5224 8.11802 41.7732 8.01367 42.0347 8.01367C42.2963 8.01367 42.5471 8.11802 42.7321 8.30377C42.917 8.48952 43.0209 8.74145 43.0209 9.00414V10.1297C43.0209 10.3924 42.917 10.6443 42.7321 10.83C42.5471 11.0158 42.2963 11.1201 42.0347 11.1201Z" fill="#45526C"/>
<path id="Vector_5" d="M42.0348 12.426C41.9014 12.4261 41.7694 12.3991 41.6467 12.3465C41.5241 12.2939 41.4133 12.2169 41.3211 12.1201C41.2289 12.0233 41.1573 11.9088 41.1104 11.7833C41.0636 11.6579 41.0426 11.5243 41.0486 11.3905V10.1299C41.0486 9.86718 41.1525 9.61525 41.3375 9.42951C41.5224 9.24376 41.7732 9.1394 42.0348 9.1394C42.2963 9.1394 42.5472 9.24376 42.7321 9.42951C42.917 9.61525 43.0209 9.86718 43.0209 10.1299V11.3905C43.027 11.5243 43.006 11.6579 42.9591 11.7833C42.9123 11.9088 42.8406 12.0233 42.7484 12.1201C42.6563 12.2169 42.5455 12.2939 42.4228 12.3465C42.3002 12.3991 42.1681 12.4261 42.0348 12.426Z" fill="#45526C"/>
<path id="Vector_6" d="M36.1629 28.4983C36.0295 28.4985 35.8975 28.4714 35.7748 28.4189C35.6522 28.3663 35.5414 28.2893 35.4492 28.1925C35.357 28.0957 35.2853 27.9811 35.2385 27.8557C35.1917 27.7303 35.1706 27.5966 35.1767 27.4628V12.7859C35.1449 12.635 35.147 12.4789 35.1829 12.329C35.2188 12.1791 35.2876 12.0391 35.3842 11.9193C35.4809 11.7994 35.603 11.7028 35.7416 11.6365C35.8801 11.5701 36.0317 11.5356 36.1853 11.5356C36.3388 11.5356 36.4904 11.5701 36.629 11.6365C36.7676 11.7028 36.8897 11.7994 36.9863 11.9193C37.083 12.0391 37.1518 12.1791 37.1877 12.329C37.2236 12.4789 37.2257 12.635 37.1939 12.7859V27.4628C37.1939 27.7375 37.0852 28.0008 36.8919 28.195C36.6985 28.3892 36.4363 28.4983 36.1629 28.4983Z" fill="#45526C"/>
<path id="Vector_7" d="M30.3357 28.4987C30.0622 28.4987 29.8 28.3896 29.6067 28.1955C29.4133 28.0013 29.3047 27.7379 29.3047 27.4633V14.4071C29.3275 14.1523 29.4476 13.9163 29.6398 13.7485C29.8319 13.5806 30.0813 13.494 30.3357 13.5066C30.4653 13.4943 30.596 13.5078 30.7204 13.5464C30.8448 13.5851 30.9603 13.6481 31.0603 13.7318C31.1603 13.8155 31.2429 13.9182 31.3031 14.0342C31.3634 14.1501 31.4002 14.2768 31.4115 14.4071V27.4633C31.4185 27.605 31.3951 27.7466 31.3429 27.8785C31.2907 28.0103 31.2109 28.1294 31.1089 28.2276C31.0069 28.3258 30.885 28.4008 30.7516 28.4476C30.6182 28.4944 30.4764 28.5118 30.3357 28.4987Z" fill="#45526C"/>
<path id="Vector_8" d="M24.4632 28.4985C24.3299 28.4986 24.1979 28.4716 24.0752 28.419C23.9525 28.3665 23.8418 28.2895 23.7496 28.1927C23.6574 28.0959 23.5857 27.9813 23.5389 27.8559C23.4921 27.7305 23.471 27.5968 23.4771 27.463V24.5366C23.4771 24.2739 23.581 24.022 23.7659 23.8362C23.9509 23.6505 24.2017 23.5461 24.4632 23.5461C24.7248 23.5461 24.9756 23.6505 25.1606 23.8362C25.3455 24.022 25.4494 24.2739 25.4494 24.5366V27.463C25.4555 27.5968 25.4344 27.7305 25.3876 27.8559C25.3408 27.9813 25.2691 28.0959 25.1769 28.1927C25.0847 28.2895 24.9739 28.3665 24.8513 28.419C24.7286 28.4716 24.5966 28.4986 24.4632 28.4985Z" fill="#45526C"/>
<path id="Vector_9" d="M18.5911 38.6281C18.3296 38.6281 18.0788 38.5237 17.8938 38.338C17.7089 38.1522 17.605 37.9003 17.605 37.6376V24.5364C17.605 24.2737 17.7089 24.0218 17.8938 23.836C18.0788 23.6503 18.3296 23.5459 18.5911 23.5459C18.7244 23.5399 18.8574 23.561 18.9823 23.608C19.1072 23.6551 19.2212 23.727 19.3176 23.8196C19.414 23.9122 19.4907 24.0235 19.543 24.1467C19.5953 24.2699 19.6223 24.4025 19.6221 24.5364V37.6376C19.6223 37.7716 19.5953 37.9041 19.543 38.0273C19.4907 38.1505 19.414 38.2618 19.3176 38.3544C19.2212 38.447 19.1072 38.519 18.9823 38.566C18.8574 38.6131 18.7244 38.6342 18.5911 38.6281Z" fill="#45526C"/>
<path id="Vector_10" d="M12.7636 40.2489C12.6304 40.2549 12.4974 40.2338 12.3725 40.1868C12.2476 40.1397 12.1335 40.0678 12.0372 39.9752C11.9408 39.8826 11.8641 39.7713 11.8118 39.6481C11.7594 39.5249 11.7325 39.3923 11.7327 39.2584V24.5364C11.7325 24.4025 11.7594 24.2699 11.8118 24.1467C11.8641 24.0235 11.9408 23.9122 12.0372 23.8196C12.1335 23.727 12.2476 23.6551 12.3725 23.608C12.4974 23.561 12.6304 23.5399 12.7636 23.5459C13.0252 23.5459 13.276 23.6503 13.461 23.836C13.6459 24.0218 13.7498 24.2737 13.7498 24.5364V39.2584C13.7498 39.5211 13.6459 39.773 13.461 39.9588C13.276 40.1445 13.0252 40.2489 12.7636 40.2489Z" fill="#45526C"/>
<path id="Vector_11" d="M6.89167 42.8601C6.63013 42.8601 6.3793 42.7558 6.19436 42.57C6.00942 42.3843 5.90552 42.1324 5.90552 41.8697V40.519C5.90552 40.2563 6.00942 40.0044 6.19436 39.8187C6.3793 39.6329 6.63013 39.5286 6.89167 39.5286C7.15322 39.5286 7.40405 39.6329 7.58899 39.8187C7.77393 40.0044 7.87783 40.2563 7.87783 40.519V41.8697C7.87783 42.1324 7.77393 42.3843 7.58899 42.57C7.40405 42.7558 7.15322 42.8601 6.89167 42.8601Z" fill="#45526C"/>
<path id="Vector_12" d="M6.89167 38.6283C6.63013 38.6283 6.3793 38.5239 6.19436 38.3382C6.00942 38.1524 5.90552 37.9005 5.90552 37.6378V24.5366C5.90552 24.2739 6.00942 24.022 6.19436 23.8362C6.3793 23.6505 6.63013 23.5461 6.89167 23.5461C7.15322 23.5461 7.40405 23.6505 7.58899 23.8362C7.77393 24.022 7.87783 24.2739 7.87783 24.5366V37.6378C7.87783 37.9005 7.77393 38.1524 7.58899 38.3382C7.40405 38.5239 7.15322 38.6283 6.89167 38.6283Z" fill="#45526C"/>
<path id="Vector_13" d="M6.89136 41.5995C6.75396 41.6001 6.61795 41.5718 6.49206 41.5165C6.36617 41.4612 6.25318 41.3801 6.16033 41.2783C6.06748 41.1766 5.99682 41.0565 5.95289 40.9257C5.90896 40.795 5.89271 40.6564 5.90521 40.519V39.2134C5.90521 38.9507 6.00911 38.6988 6.19405 38.513C6.37899 38.3273 6.62982 38.2229 6.89136 38.2229C7.15291 38.2229 7.40374 38.3273 7.58868 38.513C7.77362 38.6988 7.87752 38.9507 7.87752 39.2134V40.519C7.89001 40.6564 7.87377 40.795 7.82984 40.9257C7.7859 41.0565 7.71525 41.1766 7.6224 41.2783C7.52955 41.3801 7.41656 41.4612 7.29067 41.5165C7.16478 41.5718 7.02877 41.6001 6.89136 41.5995Z" fill="#45526C"/>
<path id="Vector_14" d="M6.89172 40.2489C6.75835 40.2491 6.62635 40.222 6.50368 40.1695C6.38102 40.1169 6.27024 40.0399 6.17806 39.9431C6.08588 39.8463 6.0142 39.7317 5.96736 39.6063C5.92052 39.4809 5.8995 39.3472 5.90556 39.2134V37.6377C5.90556 37.375 6.00946 37.1231 6.1944 36.9373C6.37934 36.7516 6.63017 36.6472 6.89172 36.6472C7.15326 36.6472 7.40409 36.7516 7.58903 36.9373C7.77397 37.1231 7.87787 37.375 7.87787 37.6377V39.2134C7.88393 39.3472 7.86291 39.4809 7.81607 39.6063C7.76924 39.7317 7.69756 39.8463 7.60537 39.9431C7.51319 40.0399 7.40241 40.1169 7.27975 40.1695C7.15709 40.222 7.02508 40.2491 6.89172 40.2489Z" fill="#45526C"/>
<path id="Vector_15" d="M6.89172 44.0309C6.75835 44.031 6.62635 44.004 6.50368 43.9514C6.38102 43.8989 6.27024 43.8219 6.17806 43.7251C6.08588 43.6283 6.0142 43.5137 5.96736 43.3883C5.92052 43.2629 5.8995 43.1292 5.90556 42.9954V41.8699C5.90556 41.6072 6.00946 41.3552 6.1944 41.1695C6.37934 40.9837 6.63017 40.8794 6.89172 40.8794C7.15326 40.8794 7.40409 40.9837 7.58903 41.1695C7.77397 41.3552 7.87787 41.6072 7.87787 41.8699V42.9954C7.88393 43.1292 7.86291 43.2629 7.81607 43.3883C7.76924 43.5137 7.69756 43.6283 7.60537 43.7251C7.51319 43.8219 7.40241 43.8989 7.27975 43.9514C7.15709 44.004 7.02508 44.031 6.89172 44.0309Z" fill="#45526C"/>
<path id="Vector_16" d="M1.01965 28.4985C0.886282 28.4986 0.754276 28.4716 0.631612 28.419C0.508947 28.3665 0.398173 28.2895 0.305989 28.1927C0.213805 28.0959 0.142127 27.9813 0.0952891 27.8559C0.0484515 27.7305 0.027428 27.5968 0.0334901 27.463V24.5366C0.0334901 24.2739 0.137388 24.022 0.322328 23.8362C0.507269 23.6505 0.758101 23.5461 1.01965 23.5461C1.28119 23.5461 1.53202 23.6505 1.71696 23.8362C1.9019 24.022 2.0058 24.2739 2.0058 24.5366V27.463C2.01186 27.5968 1.99084 27.7305 1.944 27.8559C1.89717 27.9813 1.82549 28.0959 1.7333 28.1927C1.64112 28.2895 1.53034 28.3665 1.40768 28.419C1.28502 28.4716 1.15301 28.4986 1.01965 28.4985Z" fill="#45526C"/>
<path id="Vector_17" d="M47.8173 28.4985C47.6839 28.4986 47.5519 28.4716 47.4292 28.419C47.3066 28.3665 47.1958 28.2895 47.1036 28.1927C47.0114 28.0959 46.9397 27.9813 46.8929 27.8559C46.8461 27.7305 46.825 27.5968 46.8311 27.463V24.5366C46.8311 24.2739 46.935 24.022 47.1199 23.8362C47.3049 23.6505 47.5557 23.5461 47.8173 23.5461C48.0788 23.5461 48.3296 23.6505 48.5146 23.8362C48.6995 24.022 48.8034 24.2739 48.8034 24.5366V27.463C48.8095 27.5968 48.7885 27.7305 48.7416 27.8559C48.6948 27.9813 48.6231 28.0959 48.5309 28.1927C48.4387 28.2895 48.328 28.3665 48.2053 28.419C48.0826 28.4716 47.9506 28.4986 47.8173 28.4985Z" fill="#45526C"/>
<path id="Vector_18" d="M18.5915 2.79132C18.37 2.79539 18.1542 2.72087 17.982 2.58088C17.8098 2.44088 17.6923 2.24439 17.6501 2.02596C17.6166 1.89882 17.6085 1.76624 17.6265 1.63595C17.6445 1.50567 17.6882 1.38029 17.755 1.26713C17.8217 1.15397 17.9103 1.0553 18.0154 0.976883C18.1205 0.898463 18.2402 0.841862 18.3673 0.810384C20.3559 0.276138 22.4051 0.00372832 24.4636 0C24.7251 0 24.976 0.104353 25.1609 0.290102C25.3458 0.475851 25.4497 0.72778 25.4497 0.990469C25.4497 1.25316 25.3458 1.50509 25.1609 1.69084C24.976 1.87659 24.7251 1.98094 24.4636 1.98094C22.5712 1.99744 20.6885 2.25461 18.8604 2.7463L18.5915 2.79132Z" fill="#45526C"/>
<path id="Vector_19" d="M30.3353 2.79132H30.0664C28.2403 2.28442 26.3575 2.01212 24.4632 1.98094C24.2017 1.98094 23.9508 1.87659 23.7659 1.69084C23.5809 1.50509 23.4771 1.25316 23.4771 0.990469C23.4771 0.72778 23.5809 0.475851 23.7659 0.290102C23.9508 0.104353 24.2017 0 24.4632 0C26.5217 0.00372832 28.5709 0.276138 30.5594 0.810384C30.6986 0.825681 30.8329 0.870563 30.9535 0.942046C31.0741 1.01353 31.1781 1.10997 31.2586 1.22497C31.3392 1.33996 31.3945 1.47086 31.4208 1.60897C31.4471 1.74708 31.4438 1.88923 31.4111 2.02596C31.3673 2.26961 31.2301 2.48627 31.0289 2.62938C30.8277 2.77249 30.5787 2.83064 30.3353 2.79132Z" fill="#45526C"/>
<path id="Vector_20" d="M6.89192 9.9947C6.65045 9.98874 6.41629 9.91034 6.21955 9.7696C6.03332 9.57645 5.9292 9.31812 5.9292 9.04926C5.9292 8.78039 6.03332 8.52206 6.21955 8.32892C7.95823 6.36724 9.98353 4.68223 12.2261 3.33155C12.4431 3.22764 12.6904 3.20689 12.9215 3.27322C13.1526 3.33954 13.3517 3.48837 13.4812 3.69172C13.6003 3.92115 13.6295 4.18702 13.5631 4.43698C13.4967 4.68695 13.3396 4.90291 13.1226 5.04236C11.0263 6.23109 9.13434 7.75128 7.51948 9.54449C7.37616 9.77045 7.15122 9.93182 6.89192 9.9947Z" fill="#45526C"/>
<path id="Vector_21" d="M12.7638 5.17771C12.5654 5.16395 12.3753 5.09289 12.2162 4.97307C12.0571 4.85325 11.936 4.68979 11.8673 4.50239C11.7371 4.27539 11.7017 4.00582 11.7689 3.75269C11.8361 3.49956 12.0004 3.28348 12.2259 3.15175C14.1473 2.0727 16.2166 1.28386 18.367 0.810638C18.4936 0.770051 18.6273 0.756848 18.7593 0.771898C18.8914 0.786948 19.0188 0.82991 19.1331 0.897956C19.2474 0.966003 19.3461 1.05759 19.4226 1.1667C19.4992 1.2758 19.5519 1.39995 19.5772 1.53098C19.6108 1.65812 19.6188 1.7907 19.6008 1.92099C19.5828 2.05127 19.5392 2.17665 19.4724 2.28981C19.4056 2.40297 19.3171 2.50164 19.212 2.58006C19.1068 2.65848 18.9872 2.71508 18.86 2.74655C16.9706 3.26048 15.1607 4.03309 13.481 5.04264L12.7638 5.17771Z" fill="#45526C"/>
<path id="Vector_22" d="M36.1628 5.17771L35.8938 5.04264C34.0744 3.99371 32.1108 3.22002 30.0666 2.74655C29.9394 2.71508 29.8198 2.65848 29.7146 2.58006C29.6095 2.50164 29.5209 2.40297 29.4542 2.28981C29.3874 2.17665 29.3438 2.05127 29.3258 1.92099C29.3078 1.7907 29.3158 1.65812 29.3494 1.53098C29.3747 1.39995 29.4274 1.2758 29.5039 1.1667C29.5805 1.05759 29.6792 0.966003 29.7935 0.897956C29.9078 0.82991 30.0352 0.786948 30.1673 0.771898C30.2993 0.756848 30.433 0.770051 30.5596 0.810638C32.7145 1.35671 34.782 2.20548 36.7007 3.33183C36.9262 3.46356 37.0905 3.67964 37.1577 3.93278C37.2249 4.18591 37.1895 4.45548 37.0593 4.68247C36.9657 4.83624 36.8338 4.96281 36.6765 5.04967C36.5193 5.13652 36.3422 5.18066 36.1628 5.17771Z" fill="#45526C"/>
<path id="Vector_23" d="M42.0348 9.99461C41.8993 9.99998 41.7643 9.9744 41.6401 9.91981C41.5159 9.86523 41.4056 9.78305 41.3176 9.67946C39.7673 7.85322 37.9362 6.28772 35.8937 5.04226C35.6768 4.90282 35.5196 4.68686 35.4533 4.43689C35.3869 4.18692 35.4161 3.92106 35.5351 3.69163C35.661 3.50904 35.8444 3.37426 36.0558 3.30894C36.2671 3.24362 36.4942 3.25155 36.7006 3.33145C38.9914 4.65078 41.0508 6.33904 42.7968 8.32882C42.983 8.52197 43.0872 8.78029 43.0872 9.04916C43.0872 9.31803 42.983 9.57635 42.7968 9.7695C42.5752 9.9285 42.3068 10.0078 42.0348 9.99461Z" fill="#45526C"/>
<path id="Vector_24" d="M47.7724 23.456C47.5217 23.4459 47.2831 23.3444 47.1016 23.1703C46.92 22.9962 46.8079 22.7617 46.7863 22.5105C46.3877 17.7533 44.4696 13.2528 41.3176 9.67943C41.2199 9.58684 41.1421 9.47519 41.0889 9.35132C41.0357 9.22746 41.0083 9.09398 41.0083 8.95909C41.0083 8.82419 41.0357 8.69072 41.0889 8.56685C41.1421 8.44298 41.2199 8.33133 41.3176 8.23875C41.5023 8.05454 41.7521 7.95117 42.0124 7.95117C42.2727 7.95117 42.5225 8.05454 42.7072 8.23875C46.2104 12.2163 48.3477 17.2198 48.8034 22.5105C48.8157 22.6442 48.8008 22.7791 48.7595 22.9068C48.7183 23.0346 48.6516 23.1526 48.5636 23.2536C48.4755 23.3547 48.368 23.4367 48.2474 23.4947C48.1268 23.5527 47.9957 23.5855 47.8621 23.591L47.7724 23.456Z" fill="#45526C"/>
<path id="Vector_25" d="M1.0196 25.527C0.758058 25.527 0.507226 25.4226 0.322286 25.2369C0.137346 25.0511 0.0334473 24.7992 0.0334473 24.5365C0.0356274 18.5691 2.20292 12.8071 6.12968 8.32883C6.31441 8.14463 6.56417 8.04126 6.82448 8.04126C7.08478 8.04126 7.33454 8.14463 7.51927 8.32883C7.70549 8.52198 7.80961 8.78031 7.80961 9.04917C7.80961 9.31804 7.70549 9.57637 7.51927 9.76952C3.96859 13.863 2.01049 19.1075 2.00576 24.5365C2.00576 24.7992 1.90186 25.0511 1.71692 25.2369C1.53198 25.4226 1.28115 25.527 1.0196 25.527Z" fill="#45526C"/>
<path id="Vector_26" d="M30.3357 5.17748C28.4962 4.86258 26.6169 4.86258 24.7774 5.17748C24.6479 5.2194 24.5114 5.23517 24.3759 5.22388C24.2403 5.21258 24.1083 5.17445 23.9874 5.11167C23.8666 5.0489 23.7593 4.96272 23.6718 4.85811C23.5843 4.7535 23.5182 4.63253 23.4775 4.50216C23.4293 4.35971 23.414 4.2081 23.4329 4.05885C23.4518 3.9096 23.5042 3.76662 23.5863 3.64077C23.6684 3.51493 23.778 3.40952 23.9067 3.33255C24.0354 3.25558 24.1799 3.20906 24.3291 3.19654C26.3624 2.85896 28.437 2.85896 30.4702 3.19654C30.7317 3.19654 30.9826 3.3009 31.1675 3.48665C31.3525 3.67239 31.4564 3.92432 31.4564 4.18701C31.4564 4.4497 31.3525 4.70163 31.1675 4.88738C30.9826 5.07313 30.7317 5.17748 30.4702 5.17748H30.3357Z" fill="#45526C"/>
<path id="Vector_27" d="M18.5911 6.93293C18.4062 6.93632 18.2242 6.88747 18.0657 6.79195C17.9072 6.69642 17.7786 6.55807 17.6946 6.39267C17.5865 6.14725 17.5775 5.86927 17.6695 5.61732C17.7614 5.36536 17.9472 5.15911 18.1876 5.04203C20.1345 4.13024 22.2032 3.50841 24.3287 3.19616C24.4584 3.17716 24.5905 3.18432 24.7174 3.2172C24.8443 3.25009 24.9634 3.30804 25.0677 3.38769C25.1721 3.46733 25.2596 3.56706 25.3251 3.68104C25.3906 3.79503 25.4328 3.92099 25.4493 4.05157C25.4683 4.18181 25.4611 4.31453 25.4284 4.44198C25.3956 4.56942 25.3379 4.68903 25.2586 4.79383C25.1794 4.89862 25.0801 4.98648 24.9666 5.05229C24.8531 5.1181 24.7277 5.16053 24.5977 5.1771C22.6738 5.45675 20.8012 6.01797 19.0393 6.84289C18.9037 6.9212 18.7463 6.95282 18.5911 6.93293Z" fill="#45526C"/>
<path id="Vector_28" d="M42.0347 11.1202C41.7715 11.1176 41.5175 11.022 41.3175 10.8501C39.7601 9.20237 37.9236 7.84565 35.8936 6.84322C35.6564 6.73512 35.4714 6.53715 35.379 6.29253C35.2867 6.04791 35.2944 5.77651 35.4006 5.5376C35.5171 5.29613 35.7225 5.10953 35.9733 5.01715C36.2242 4.92477 36.501 4.93381 36.7453 5.04237C39.0412 6.16669 41.1204 7.691 42.8864 9.5445C42.9829 9.63308 43.0599 9.74088 43.1126 9.86103C43.1654 9.98117 43.1926 10.111 43.1926 10.2423C43.1926 10.3736 43.1654 10.5035 43.1126 10.6236C43.0599 10.7438 42.9829 10.8516 42.8864 10.9402C42.7635 11.0257 42.6249 11.0857 42.4786 11.1166C42.3324 11.1476 42.1814 11.1488 42.0347 11.1202Z" fill="#45526C"/>
<path id="Vector_29" d="M12.7639 11.1201C12.4992 11.1259 12.2424 11.0292 12.0467 10.85C11.9502 10.7614 11.8731 10.6536 11.8204 10.5335C11.7677 10.4133 11.7405 10.2835 11.7405 10.1522C11.7405 10.0209 11.7677 9.891 11.8204 9.77086C11.8731 9.65071 11.9502 9.54291 12.0467 9.45433C13.8127 7.60082 15.8919 6.07652 18.1878 4.95219C18.4256 4.84557 18.6958 4.83781 18.9394 4.93059C19.183 5.02338 19.3801 5.20918 19.4877 5.44743C19.548 5.56187 19.5843 5.68754 19.5942 5.81664C19.6042 5.94574 19.5877 6.07551 19.5456 6.19793C19.5036 6.32034 19.437 6.43277 19.3499 6.52826C19.2628 6.62376 19.1572 6.70026 19.0394 6.75305C16.9639 7.78431 15.0831 9.17066 13.4811 10.85C13.3855 10.9408 13.2729 11.0115 13.1497 11.0578C13.0265 11.1042 12.8953 11.1254 12.7639 11.1201Z" fill="#45526C"/>
<path id="Vector_30" d="M6.89212 25.5269C6.63058 25.5269 6.37975 25.4226 6.19481 25.2368C6.00987 25.0511 5.90597 24.7992 5.90597 24.5365C5.88125 18.8902 8.09017 13.4652 12.047 9.45432C12.2318 9.27012 12.4815 9.16675 12.7418 9.16675C13.0021 9.16675 13.2519 9.27012 13.4366 9.45432C13.5343 9.54691 13.6121 9.65856 13.6653 9.78243C13.7185 9.90629 13.7459 10.0398 13.7459 10.1747C13.7459 10.3096 13.7185 10.443 13.6653 10.5669C13.6121 10.6908 13.5343 10.8024 13.4366 10.895C9.9101 14.5029 7.91712 19.3457 7.87828 24.4014C7.8976 24.5423 7.88647 24.6858 7.84564 24.822C7.80481 24.9582 7.73524 25.084 7.64166 25.1908C7.54809 25.2976 7.4327 25.3829 7.30336 25.4409C7.17402 25.4989 7.03376 25.5283 6.89212 25.5269Z" fill="#45526C"/>
<path id="Vector_31" d="M47.7723 23.456C47.5284 23.4475 47.2954 23.3523 47.1149 23.1874C46.9343 23.0225 46.8178 22.7987 46.7861 22.5556C46.36 18.1376 44.4283 14.0029 41.3174 10.8501C41.1312 10.6569 41.0271 10.3986 41.0271 10.1297C41.0271 9.86087 41.1312 9.60255 41.3174 9.4094C41.5022 9.2252 41.7519 9.12183 42.0122 9.12183C42.2725 9.12183 42.5223 9.2252 42.707 9.4094C46.1799 12.9416 48.3331 17.569 48.8033 22.5106C48.8156 22.6408 48.8021 22.7721 48.7637 22.897C48.7252 23.0219 48.6625 23.138 48.5791 23.2384C48.4958 23.3389 48.3935 23.4218 48.2781 23.4823C48.1627 23.5428 48.0365 23.5798 47.9068 23.5911L47.7723 23.456Z" fill="#45526C"/>
<path id="Vector_32" d="M36.1623 6.93309C36.031 6.97456 35.8902 6.97456 35.7589 6.93309C33.9837 6.1021 32.0953 5.5407 30.1558 5.2673C30.0206 5.2463 29.8912 5.19728 29.7759 5.12335C29.6606 5.04942 29.5618 4.9522 29.4859 4.83788C29.4101 4.72355 29.3587 4.59462 29.3351 4.45928C29.3115 4.32393 29.3162 4.18514 29.3489 4.05172C29.3591 3.91854 29.3972 3.78904 29.4608 3.67174C29.5244 3.55444 29.612 3.452 29.7179 3.37118C29.8238 3.29037 29.9455 3.233 30.0751 3.20285C30.2046 3.17271 30.3391 3.17048 30.4695 3.19632C32.595 3.50857 34.6638 4.1304 36.6106 5.04219C36.851 5.15927 37.0368 5.36552 37.1288 5.61747C37.2208 5.86943 37.2118 6.14741 37.1037 6.39283C37.0165 6.5654 36.8808 6.70853 36.7136 6.80454C36.5463 6.90055 36.3546 6.94524 36.1623 6.93309Z" fill="#45526C"/>
<path id="Vector_33" d="M36.1627 9.00437H35.8937C34.1296 8.34567 32.2622 8.0102 30.3802 8.0139C30.1187 8.0139 29.8678 7.90954 29.6829 7.7238C29.4979 7.53805 29.394 7.28612 29.394 7.02343C29.394 6.76074 29.4979 6.50881 29.6829 6.32306C29.8678 6.13731 30.1187 6.03296 30.3802 6.03296C32.4884 6.03675 34.5804 6.40217 36.5661 7.11347C36.7701 7.20735 36.9361 7.3683 37.0367 7.56974C37.1374 7.77119 37.1666 8.00108 37.1196 8.22146C37.0726 8.44183 36.9521 8.63951 36.7781 8.78185C36.6042 8.9242 36.387 9.00269 36.1627 9.00437Z" fill="#45526C"/>
<path id="Vector_34" d="M42.035 12.4259C41.7865 12.4166 41.5489 12.3211 41.3626 12.1557C39.7645 10.7533 37.9059 9.68229 35.8939 9.00425C35.7686 8.95938 35.6535 8.88948 35.5557 8.79876C35.458 8.70804 35.3795 8.59838 35.325 8.47639C35.2706 8.3544 35.2413 8.2226 35.2389 8.08893C35.2365 7.95526 35.2611 7.8225 35.3112 7.69863C35.402 7.45513 35.5846 7.25727 35.8194 7.14777C36.0542 7.03827 36.3225 7.02591 36.5663 7.11335C38.8555 7.91147 40.9598 9.16734 42.7522 10.8051C42.9356 10.9906 43.0385 11.2415 43.0385 11.5029C43.0385 11.7644 42.9356 12.0152 42.7522 12.2008C42.546 12.3565 42.2927 12.436 42.035 12.4259Z" fill="#45526C"/>
<path id="Vector_35" d="M24.4631 9.00422C24.257 8.99912 24.0571 8.93204 23.8893 8.81166C23.7215 8.69127 23.5935 8.52311 23.5218 8.3289C23.4798 8.20478 23.4627 8.07352 23.4715 7.94272C23.4804 7.81192 23.515 7.68418 23.5733 7.56692C23.6317 7.44966 23.7127 7.3452 23.8116 7.25961C23.9105 7.17402 24.0253 7.10899 24.1494 7.0683C26.1341 6.35355 28.2268 5.98802 30.3352 5.98779C30.5968 5.98779 30.8476 6.09215 31.0326 6.27789C31.2175 6.46364 31.3214 6.71557 31.3214 6.97826C31.3214 7.24095 31.2175 7.49288 31.0326 7.67863C30.8476 7.86438 30.5968 7.96873 30.3352 7.96873C28.4501 7.97547 26.5819 8.32634 24.8217 9.00422H24.4631Z" fill="#45526C"/>
<path id="Vector_36" d="M47.8174 24.0416C47.5735 24.033 47.3406 23.9378 47.16 23.7729C46.9794 23.6081 46.8629 23.3842 46.8313 23.1412C46.486 18.9084 44.5268 14.9731 41.3626 12.156C41.1664 11.9769 41.0491 11.7268 41.0365 11.4609C41.0239 11.1949 41.117 10.9348 41.2953 10.7378C41.4737 10.5408 41.7226 10.423 41.9874 10.4103C42.2522 10.3977 42.5112 10.4912 42.7073 10.6703C46.2264 13.8359 48.4073 18.233 48.8036 22.9611C48.8159 23.0913 48.8024 23.2226 48.764 23.3475C48.7255 23.4724 48.6628 23.5885 48.5794 23.6889C48.4961 23.7894 48.3938 23.8722 48.2784 23.9328C48.163 23.9933 48.0368 24.0303 47.9071 24.0416H47.8174Z" fill="#45526C"/>
<path id="Vector_37" d="M12.7636 25.5271C12.6304 25.5332 12.4974 25.512 12.3725 25.465C12.2476 25.418 12.1335 25.346 12.0372 25.2534C11.9408 25.1608 11.8641 25.0495 11.8118 24.9263C11.7594 24.8031 11.7325 24.6705 11.7327 24.5366C11.7531 21.917 12.3178 19.3305 13.3907 16.9428C14.4636 14.555 16.0211 12.4185 17.9634 10.67C18.0556 10.5719 18.1667 10.4938 18.2901 10.4404C18.4134 10.3869 18.5463 10.3594 18.6806 10.3594C18.8149 10.3594 18.9478 10.3869 19.0711 10.4404C19.1944 10.4938 19.3056 10.5719 19.3978 10.67C19.5812 10.8556 19.6841 11.1064 19.6841 11.3679C19.6841 11.6293 19.5812 11.8802 19.3978 12.0657C17.6298 13.6234 16.212 15.5409 15.2382 17.691C14.2644 19.841 13.7571 22.1745 13.7498 24.5366C13.7498 24.7993 13.6459 25.0512 13.461 25.237C13.276 25.4227 13.0252 25.5271 12.7636 25.5271Z" fill="#45526C"/>
<path id="Vector_38" d="M18.5909 12.4262C18.4678 12.4106 18.349 12.3708 18.2413 12.309C18.1336 12.2472 18.0391 12.1646 17.9633 12.066C17.7799 11.8805 17.677 11.6296 17.677 11.3682C17.677 11.1067 17.7799 10.8559 17.9633 10.6703C19.7755 9.03633 21.8936 7.78132 24.194 6.97859C24.4379 6.89114 24.7061 6.9035 24.941 7.013C25.1758 7.12251 25.3583 7.32036 25.4491 7.56386C25.5132 7.70136 25.5464 7.85133 25.5464 8.00315C25.5463 8.15496 25.5131 8.30491 25.4489 8.44238C25.3848 8.57984 25.2913 8.70146 25.1751 8.7986C25.059 8.89575 24.923 8.96606 24.7768 9.00455C22.738 9.71754 20.863 10.8352 19.2633 12.2911C19.0658 12.4238 18.824 12.4724 18.5909 12.4262Z" fill="#45526C"/>
<path id="Vector_39" d="M18.5912 25.5273C18.3296 25.5273 18.0788 25.4229 17.8938 25.2372C17.7089 25.0514 17.605 24.7995 17.605 24.5368C17.6015 22.0963 18.1673 19.6889 19.2571 17.5076C20.3469 15.3263 21.9303 13.4318 23.8805 11.9759C23.9747 11.8599 24.0937 11.7669 24.2287 11.7038C24.3638 11.6407 24.5113 11.6091 24.6602 11.6114C24.8091 11.6138 24.9556 11.65 25.0886 11.7173C25.2216 11.7846 25.3377 11.8813 25.4282 12.0001C25.5187 12.119 25.5812 12.2568 25.611 12.4034C25.6408 12.55 25.6372 12.7014 25.6004 12.8464C25.5637 12.9913 25.4947 13.126 25.3986 13.2404C25.3026 13.3547 25.182 13.4458 25.046 13.5066C23.337 14.7825 21.9541 16.4478 21.0111 18.3655C20.0682 20.2831 19.5921 22.3983 19.6221 24.5368C19.6223 24.6708 19.5954 24.8034 19.543 24.9266C19.4907 25.0498 19.414 25.161 19.3176 25.2536C19.2213 25.3462 19.1072 25.4182 18.9823 25.4652C18.8574 25.5123 18.7244 25.5334 18.5912 25.5273Z" fill="#45526C"/>
<path id="Vector_40" d="M36.1624 11.1201H35.8934C34.0882 10.7599 32.23 10.7599 30.4247 11.1201C30.1642 11.1603 29.8981 11.0987 29.6814 10.948C29.4646 10.7973 29.3135 10.5689 29.2593 10.3097C29.2009 10.1676 29.178 10.0133 29.1924 9.8602C29.2069 9.70712 29.2583 9.55988 29.3422 9.43126C29.4261 9.30264 29.5399 9.19652 29.6739 9.12209C29.8079 9.04766 29.9579 9.00717 30.111 9.00413C32.1833 8.59856 34.3141 8.59856 36.3865 9.00413C36.5159 9.025 36.6396 9.0728 36.7496 9.14445C36.8595 9.2161 36.9534 9.31003 37.0251 9.42023C37.0969 9.53042 37.1449 9.65445 37.1662 9.78437C37.1874 9.91429 37.1814 10.0472 37.1485 10.1747C37.137 10.4295 37.028 10.67 36.8443 10.8461C36.6606 11.0222 36.4163 11.1204 36.1624 11.1201Z" fill="#45526C"/>
<path id="Vector_41" d="M42.0347 13.7765C41.8449 13.8355 41.6418 13.8355 41.452 13.7765C39.8405 12.4524 37.9331 11.5409 35.8936 11.1203C35.6347 11.056 35.4107 10.8934 35.2686 10.6668C35.1265 10.4401 35.0774 10.167 35.1316 9.90471C35.1302 9.75269 35.1652 9.60256 35.2338 9.46706C35.3025 9.33155 35.4026 9.21466 35.5258 9.1263C35.6489 9.03794 35.7915 8.98071 35.9414 8.95947C36.0912 8.93823 36.244 8.9536 36.3867 9.00428C38.6568 9.48688 40.7971 10.4542 42.6622 11.8406C42.8355 12.0314 42.9315 12.2803 42.9315 12.5385C42.9315 12.7966 42.8355 13.0455 42.6622 13.2363C42.6055 13.3684 42.5194 13.4857 42.4107 13.5793C42.3019 13.6729 42.1733 13.7404 42.0347 13.7765Z" fill="#45526C"/>
<path id="Vector_42" d="M47.8172 24.0415C47.5733 24.0329 47.3403 23.9377 47.1597 23.7728C46.9792 23.6079 46.8627 23.3841 46.831 23.141C46.661 21.2451 46.094 19.4066 45.167 17.7462C44.2399 16.0858 42.9739 14.641 41.452 13.5065C41.3555 13.4179 41.2784 13.3101 41.2257 13.1899C41.173 13.0698 41.1458 12.9399 41.1458 12.8086C41.1458 12.6774 41.173 12.5475 41.2257 12.4273C41.2784 12.3072 41.3555 12.1994 41.452 12.1108C41.6367 11.9266 41.8865 11.8232 42.1468 11.8232C42.4071 11.8232 42.6568 11.9266 42.8416 12.1108C44.5534 13.4178 45.9811 15.0625 47.0372 16.9438C48.0932 18.8251 48.7552 20.9034 48.9826 23.051C49.0087 23.1856 49.0053 23.3243 48.9727 23.4574C48.94 23.5906 48.8789 23.715 48.7937 23.8221C48.7084 23.9292 48.6009 24.0163 48.4787 24.0775C48.3566 24.1387 48.2226 24.1725 48.0861 24.1765L47.8172 24.0415Z" fill="#45526C"/>
<path id="Vector_43" d="M24.4635 13.7766C24.2526 13.78 24.0461 13.7154 23.8744 13.5922C23.7027 13.4691 23.5749 13.2939 23.5097 13.0924C23.4445 12.8909 23.4454 12.6737 23.5121 12.4727C23.5789 12.2717 23.7081 12.0975 23.8808 11.9757C25.7125 10.5333 27.8408 9.51829 30.1115 9.00431C30.2565 8.94421 30.4142 8.92148 30.5703 8.93819C30.7263 8.95491 30.8757 9.01053 31.0049 9.1C31.134 9.18948 31.2389 9.30997 31.3099 9.45051C31.3809 9.59105 31.4158 9.74719 31.4114 9.90473C31.4656 10.167 31.4165 10.4401 31.2744 10.6668C31.1323 10.8935 30.9083 11.056 30.6494 11.1203C28.6185 11.4541 26.697 12.2724 25.0462 13.5064C24.8918 13.6656 24.6843 13.7618 24.4635 13.7766Z" fill="#45526C"/>
<path id="Vector_44" d="M42.0346 15.397C41.8734 15.4433 41.7026 15.4433 41.5415 15.397C39.9131 14.4273 38.0555 13.9143 36.1625 13.9113C36.033 13.9113 35.9047 13.8857 35.7851 13.8359C35.6654 13.7862 35.5567 13.7132 35.4652 13.6212C35.3736 13.5293 35.3009 13.4201 35.2514 13.2999C35.2018 13.1797 35.1763 13.0509 35.1763 12.9209C35.1703 12.7871 35.1913 12.6534 35.2381 12.528C35.2849 12.4026 35.3566 12.288 35.4488 12.1912C35.541 12.0944 35.6518 12.0174 35.7744 11.9648C35.8971 11.9123 36.0291 11.8852 36.1625 11.8854C38.3906 11.8421 40.5892 12.402 42.5277 13.5062C42.6439 13.5667 42.7464 13.651 42.8284 13.7536C42.9104 13.8561 42.9702 13.9748 43.004 14.1019C43.0377 14.229 43.0447 14.3618 43.0244 14.4918C43.0042 14.6218 42.9571 14.7461 42.8863 14.8568C42.8098 15.0186 42.6892 15.1553 42.5384 15.251C42.3876 15.3466 42.2129 15.3973 42.0346 15.397Z" fill="#45526C"/>
<path id="Vector_45" d="M30.3356 15.3971C30.157 15.3958 29.9815 15.3499 29.825 15.2634C29.6684 15.1769 29.5358 15.0527 29.4391 14.9019C29.3066 14.668 29.27 14.3916 29.3369 14.1311C29.4038 13.8706 29.5691 13.6465 29.7977 13.5062C31.7236 12.3513 33.9199 11.7299 36.1629 11.7054C36.3131 11.6734 36.4685 11.6755 36.6177 11.7116C36.767 11.7476 36.9064 11.8167 37.0257 11.9138C37.145 12.0109 37.2412 12.1335 37.3073 12.2727C37.3733 12.4119 37.4076 12.5641 37.4076 12.7184C37.4076 12.8726 37.3733 13.0248 37.3073 13.164C37.2412 13.3032 37.145 13.4258 37.0257 13.5229C36.9064 13.62 36.767 13.6891 36.6177 13.7251C36.4685 13.7612 36.3131 13.7633 36.1629 13.7313C34.2847 13.7401 32.4431 14.253 30.8287 15.217L30.3356 15.3971Z" fill="#45526C"/>
<path id="Vector_46" d="M47.9072 25.5272C47.6456 25.5272 47.3948 25.4229 47.2099 25.2371C47.0249 25.0514 46.921 24.7994 46.921 24.5367C46.9156 22.6523 46.4155 20.8026 45.471 19.1743C44.5266 17.546 43.1714 16.1966 41.542 15.2623C41.3102 15.131 41.1398 14.9125 41.0683 14.655C40.9969 14.3975 41.0302 14.122 41.161 13.8892C41.2918 13.6564 41.5093 13.4852 41.7657 13.4135C42.022 13.3417 42.2963 13.3752 42.5281 13.5065C44.4602 14.6216 46.0657 16.2282 47.1831 18.1645C48.3005 20.1009 48.8904 22.2987 48.8933 24.5367C48.8933 24.7994 48.7894 25.0514 48.6045 25.2371C48.4196 25.4229 48.1687 25.5272 47.9072 25.5272Z" fill="#45526C"/>
<path id="Vector_47" d="M24.4634 25.527C24.2018 25.527 23.951 25.4226 23.766 25.2369C23.5811 25.0511 23.4772 24.7992 23.4772 24.5365C23.4664 22.301 24.0457 20.1026 25.1559 18.1651C26.2661 16.2275 27.8677 14.6201 29.7976 13.5063C30.0234 13.369 30.2944 13.3274 30.5508 13.3907C30.8072 13.4541 31.028 13.6171 31.1647 13.844C31.3015 14.0708 31.3428 14.343 31.2798 14.6005C31.2167 14.858 31.0544 15.0798 30.8285 15.2171C29.1991 16.1514 27.8439 17.5008 26.8995 19.1291C25.9551 20.7574 25.4549 22.6071 25.4495 24.4915C25.4556 24.6253 25.4345 24.759 25.3877 24.8844C25.3409 25.0098 25.2692 25.1244 25.177 25.2212C25.0848 25.318 24.9741 25.395 24.8514 25.4475C24.7287 25.5001 24.5967 25.5271 24.4634 25.527Z" fill="#45526C"/>
<path id="Vector_48" d="M36.1628 48.8481C35.991 48.8434 35.8231 48.7956 35.6743 48.7091C35.5256 48.6226 35.4007 48.5002 35.3111 48.3529C35.1809 48.1259 35.1455 47.8563 35.2127 47.6032C35.28 47.35 35.4443 47.134 35.6697 47.0022C37.7747 45.8067 39.6805 44.2876 41.3177 42.5001C41.4944 42.3195 41.7332 42.2138 41.985 42.2045C42.2369 42.1953 42.4827 42.2832 42.6721 42.4503C42.8614 42.6174 42.9798 42.851 43.0031 43.1031C43.0263 43.3551 42.9525 43.6066 42.797 43.8057C41.0441 45.8007 38.9863 47.5028 36.7007 48.8481H36.1628Z" fill="#45526C"/>
<path id="Vector_49" d="M30.3354 51.2344C30.1084 51.2403 29.8864 51.1674 29.7067 51.028C29.527 50.8885 29.4008 50.6911 29.3493 50.469C29.3431 50.2528 29.4109 50.041 29.5414 49.8689C29.672 49.6969 29.8573 49.575 30.0665 49.5236C32.1094 48.9402 34.0682 48.0927 35.8938 47.0024C36.0075 46.9304 36.1346 46.8825 36.2674 46.8617C36.4002 46.8409 36.5358 46.8475 36.6659 46.8813C36.7961 46.915 36.9179 46.9751 37.0241 47.0578C37.1303 47.1406 37.2185 47.2443 37.2833 47.3625C37.4023 47.592 37.4315 47.8578 37.3652 48.1078C37.2988 48.3578 37.1417 48.5737 36.9247 48.7132C34.9969 49.8208 32.9321 50.6685 30.7837 51.2344H30.3354Z" fill="#45526C"/>
<path id="Vector_50" d="M1.15408 30.5696C0.887423 30.5951 0.621341 30.5154 0.412173 30.3474C0.203006 30.1793 0.0671768 29.9361 0.0334473 29.6692C0.0334473 28.9488 0.0334473 28.2285 0.0334473 27.4631C0.0334473 27.2004 0.137346 26.9485 0.322286 26.7628C0.507226 26.577 0.758058 26.4727 1.0196 26.4727C1.28115 26.4727 1.53198 26.577 1.71692 26.7628C1.90186 26.9485 2.00576 27.2004 2.00576 27.4631C1.96121 28.1377 1.96121 28.8145 2.00576 29.4891C2.01808 29.6193 2.00462 29.7506 1.96615 29.8755C1.92768 30.0004 1.86496 30.1165 1.78162 30.2169C1.69827 30.3174 1.59595 30.4002 1.48055 30.4608C1.36515 30.5213 1.23896 30.5583 1.10925 30.5696H1.15408Z" fill="#45526C"/>
<path id="Vector_51" d="M12.7639 48.8482H12.226C9.93055 47.4619 7.87216 45.7138 6.12973 43.6707C5.97416 43.4715 5.90041 43.2201 5.92363 42.9681C5.94686 42.716 6.06529 42.4824 6.25462 42.3153C6.44394 42.1482 6.68978 42.0603 6.94165 42.0695C7.19353 42.0788 7.43231 42.1845 7.60897 42.3651C9.24622 44.1526 11.1519 45.6717 13.257 46.8672C13.4824 46.9989 13.6467 47.215 13.7139 47.4682C13.7812 47.7213 13.7458 47.9909 13.6156 48.2179C13.5435 48.3904 13.4263 48.5401 13.2763 48.6511C13.1264 48.7621 12.9493 48.8302 12.7639 48.8482Z" fill="#45526C"/>
<path id="Vector_52" d="M24.4632 51.9996C24.2017 51.9996 23.9508 51.8952 23.7659 51.7094C23.5809 51.5237 23.4771 51.2718 23.4771 51.0091C23.4771 50.879 23.5026 50.7502 23.5521 50.63C23.6017 50.5099 23.6743 50.4007 23.7659 50.3087C23.8575 50.2167 23.9662 50.1438 24.0858 50.094C24.2055 50.0442 24.3337 50.0186 24.4632 50.0186C26.3443 50.0939 28.2273 49.9275 30.0664 49.5234C30.1821 49.4551 30.3111 49.4125 30.4447 49.3985C30.5782 49.3844 30.7132 49.3992 30.8405 49.4418C30.9679 49.4845 31.0847 49.554 31.1831 49.6457C31.2815 49.7374 31.3593 49.8492 31.4111 49.9736C31.4688 50.2356 31.4273 50.5099 31.2947 50.7429C31.1622 50.9759 30.948 51.1511 30.6939 51.2342C28.6557 51.7429 26.5634 51.9999 24.4632 51.9996Z" fill="#45526C"/>
<path id="Vector_53" d="M42.0347 44.031C41.7982 44.0276 41.5726 43.9305 41.4071 43.7608C41.304 43.6764 41.2209 43.57 41.1638 43.4493C41.1068 43.3286 41.0771 43.1966 41.0771 43.063C41.0771 42.9294 41.1068 42.7974 41.1638 42.6767C41.2209 42.556 41.304 42.4496 41.4071 42.3652C44.9883 38.2366 46.9485 32.9387 46.9206 27.4631C46.9206 27.2004 47.0245 26.9485 47.2094 26.7628C47.3944 26.577 47.6452 26.4727 47.9068 26.4727C48.1683 26.4727 48.4191 26.577 48.6041 26.7628C48.789 26.9485 48.8929 27.2004 48.8929 27.4631C48.899 33.432 46.7306 39.1969 42.7967 43.6708C42.599 43.8858 42.3256 44.015 42.0347 44.031Z" fill="#45526C"/>
<path id="Vector_54" d="M18.5909 51.2344C16.4425 50.6685 14.3777 49.8208 12.4499 48.7132C12.2329 48.5737 12.0758 48.3578 12.0094 48.1078C11.9431 47.8578 11.9723 47.592 12.0913 47.3625C12.1561 47.2443 12.2443 47.1406 12.3505 47.0578C12.4567 46.9751 12.5785 46.915 12.7087 46.8813C12.8388 46.8475 12.9744 46.8409 13.1072 46.8617C13.24 46.8825 13.3671 46.9304 13.4808 47.0024C15.1656 48.0584 16.9718 48.905 18.8599 49.5235C18.987 49.555 19.1067 49.6116 19.2118 49.69C19.317 49.7685 19.4055 49.8671 19.4723 49.9803C19.539 50.0935 19.5827 50.2188 19.6007 50.3491C19.6187 50.4794 19.6107 50.612 19.5771 50.7391C19.4805 50.9109 19.3351 51.0499 19.1594 51.1381C18.9837 51.2263 18.7857 51.2598 18.5909 51.2344Z" fill="#45526C"/>
<path id="Vector_55" d="M24.4633 51.9998C22.4081 51.9892 20.3616 51.7323 18.3671 51.2344C18.113 51.1513 17.8988 50.9761 17.7663 50.7431C17.6337 50.5101 17.5922 50.2359 17.6499 49.9738C17.7565 49.758 17.9412 49.5913 18.1661 49.5076C18.391 49.4239 18.6393 49.4296 18.8602 49.5236C20.6895 50.0035 22.5726 50.2456 24.4633 50.2439C24.7249 50.2439 24.9757 50.3483 25.1606 50.534C25.3456 50.7198 25.4495 50.9717 25.4495 51.2344C25.3979 51.4565 25.2717 51.6539 25.092 51.7934C24.9124 51.9328 24.6903 52.0057 24.4633 51.9998Z" fill="#45526C"/>
<path id="Vector_56" d="M6.89172 44.031C6.60075 44.015 6.32742 43.8858 6.12969 43.6708C2.67076 39.771 0.535853 34.8676 0.0334574 29.6692C0.0211884 29.5355 0.036123 29.4006 0.0773532 29.2729C0.118583 29.1451 0.185248 29.0271 0.273295 28.9261C0.361342 28.825 0.468932 28.743 0.589524 28.685C0.710117 28.627 0.841194 28.5942 0.974788 28.5887C1.10439 28.5763 1.23516 28.5898 1.35953 28.6285C1.48391 28.6671 1.59943 28.7301 1.69945 28.8138C1.79946 28.8975 1.88199 29.0003 1.94225 29.1162C2.00252 29.2321 2.03934 29.3588 2.05059 29.4891C2.50248 34.2717 4.4659 38.7836 7.65375 42.3652C7.75024 42.4538 7.8273 42.5616 7.88002 42.6817C7.93274 42.8019 7.95997 42.9317 7.95997 43.063C7.95997 43.1943 7.93274 43.3242 7.88002 43.4443C7.8273 43.5645 7.75024 43.6723 7.65375 43.7609C7.55665 43.8627 7.43712 43.9401 7.30476 43.9871C7.1724 44.034 7.03093 44.049 6.89172 44.031Z" fill="#45526C"/>
<path id="Vector_57" d="M18.5908 48.8479C16.4601 48.5345 14.3893 47.8969 12.4498 46.957C12.2126 46.8489 12.0276 46.6509 11.9352 46.4063C11.8428 46.1617 11.8505 45.8903 11.9567 45.6514C12.0733 45.4099 12.2786 45.2233 12.5295 45.1309C12.7803 45.0385 13.0571 45.0476 13.3015 45.1561C15.0559 46.0093 16.9306 46.5863 18.8598 46.8669C18.9924 46.8771 19.1213 46.9154 19.2381 46.9793C19.3549 47.0432 19.4569 47.1312 19.5374 47.2376C19.6178 47.3439 19.675 47.4662 19.705 47.5963C19.735 47.7264 19.7372 47.8614 19.7115 47.9925C19.695 48.1231 19.6527 48.249 19.5872 48.363C19.5217 48.477 19.4342 48.5767 19.3299 48.6564C19.2255 48.736 19.1064 48.794 18.9796 48.8268C18.8527 48.8597 18.7205 48.8669 18.5908 48.8479Z" fill="#45526C"/>
<path id="Vector_58" d="M1.15408 30.5696C0.894135 30.5962 0.633838 30.5226 0.42581 30.3639C0.217783 30.2051 0.0775445 29.9729 0.0334473 29.7142C0.0334473 28.9488 0.0334473 28.2285 0.0334473 27.4631C0.0334473 27.2004 0.137346 26.9485 0.322286 26.7628C0.507226 26.577 0.758058 26.4727 1.0196 26.4727C1.28115 26.4727 1.53198 26.577 1.71692 26.7628C1.90186 26.9485 2.00576 27.2004 2.00576 27.4631C1.96121 28.1377 1.96121 28.8145 2.00576 29.4891C2.01808 29.6193 2.00462 29.7506 1.96615 29.8755C1.92768 30.0004 1.86496 30.1165 1.78162 30.2169C1.69827 30.3174 1.59595 30.4003 1.48055 30.4608C1.36515 30.5213 1.23896 30.5583 1.10925 30.5696H1.15408Z" fill="#45526C"/>
<path id="Vector_59" d="M30.3352 47.0921C30.1443 47.0974 29.9563 47.0443 29.7962 46.9397C29.636 46.8352 29.5114 46.6842 29.4387 46.5068C29.3776 46.389 29.3407 46.2601 29.3302 46.1277C29.3198 45.9953 29.3359 45.8621 29.3778 45.7361C29.4196 45.6101 29.4862 45.4938 29.5737 45.3942C29.6611 45.2945 29.7677 45.2136 29.8869 45.1562C31.97 44.1732 33.8662 42.8325 35.4901 41.1943C35.6748 41.0101 35.9246 40.9067 36.1849 40.9067C36.4452 40.9067 36.6949 41.0101 36.8797 41.1943C36.9773 41.2869 37.0552 41.3985 37.1084 41.5224C37.1615 41.6463 37.189 41.7798 37.189 41.9147C37.189 42.0495 37.1615 42.183 37.1084 42.3069C37.0552 42.4308 36.9773 42.5424 36.8797 42.635C35.1282 44.5051 33.0458 46.0317 30.7386 47.1371L30.3352 47.0921Z" fill="#45526C"/>
<path id="Vector_60" d="M6.89174 42.8606C6.62701 42.8664 6.3702 42.7697 6.17454 42.5904C2.73103 39.1052 0.566113 34.5501 0.0334801 29.6693C0.0211576 29.5392 0.0346198 29.4078 0.0730901 29.2829C0.11156 29.158 0.174277 29.042 0.257623 28.9415C0.340968 28.841 0.443292 28.7582 0.558692 28.6976C0.674092 28.6371 0.800283 28.6001 0.929985 28.5888C1.19436 28.5741 1.45487 28.6578 1.66163 28.8239C1.86839 28.9901 2.00689 29.227 2.05062 29.4892C2.50497 33.8994 4.43249 38.0252 7.5193 41.1948C7.65003 41.3357 7.73704 41.5118 7.76968 41.7015C7.80231 41.8913 7.77916 42.0865 7.70306 42.2632C7.62696 42.44 7.5012 42.5906 7.34119 42.6967C7.18117 42.8028 6.99383 42.8598 6.80209 42.8606H6.89174Z" fill="#45526C"/>
<path id="Vector_61" d="M24.4633 48.8479C24.2234 48.8502 23.991 48.7646 23.8095 48.6071C23.628 48.4497 23.5098 48.2312 23.4771 47.9925C23.4582 47.8623 23.4653 47.7296 23.4981 47.6021C23.5308 47.4747 23.5885 47.3551 23.6678 47.2503C23.7471 47.1455 23.8464 47.0576 23.9599 46.9918C24.0734 46.926 24.1988 46.8836 24.3288 46.867C26.267 46.5502 28.143 45.9272 29.8871 45.0211C30.1315 44.9126 30.4083 44.9035 30.6591 44.9959C30.91 45.0883 31.1153 45.2749 31.2319 45.5164C31.3381 45.7553 31.3458 46.0267 31.2534 46.2713C31.161 46.5159 30.976 46.7139 30.7388 46.822C28.8016 47.7679 26.7299 48.4058 24.5978 48.7129L24.4633 48.8479Z" fill="#45526C"/>
<path id="Vector_62" d="M36.1629 42.8604C35.9128 42.8593 35.6725 42.7627 35.4905 42.5903C35.3941 42.5017 35.317 42.3939 35.2643 42.2738C35.2116 42.1536 35.1843 42.0238 35.1843 41.8925C35.1843 41.7612 35.2116 41.6313 35.2643 41.5112C35.317 41.391 35.3941 41.2832 35.4905 41.1946C39.0671 37.5284 41.0637 32.5959 41.0489 27.4631C41.0489 27.2004 41.1528 26.9485 41.3377 26.7628C41.5227 26.577 41.7735 26.4727 42.035 26.4727C42.2966 26.4727 42.5474 26.577 42.7323 26.7628C42.9173 26.9485 43.0212 27.2004 43.0212 27.4631C43.0393 30.2665 42.5062 33.0458 41.4523 35.6417C40.3985 38.2376 38.8447 40.5989 36.8801 42.5903C36.6845 42.7695 36.4277 42.8662 36.1629 42.8604Z" fill="#45526C"/>
<path id="Vector_63" d="M21.5496 49.0735C20.5151 49.0609 19.4822 48.9857 18.4567 48.8484C18.1955 48.794 17.9637 48.6441 17.8063 48.4278C17.649 48.2116 17.5772 47.9443 17.605 47.6778C17.6265 47.5468 17.674 47.4214 17.7447 47.3091C17.8155 47.1969 17.9079 47.1001 18.0167 47.0245C18.1254 46.9489 18.2482 46.896 18.3777 46.869C18.5072 46.8421 18.6407 46.8415 18.7704 46.8674C20.6134 47.1378 22.4858 47.1378 24.3288 46.8674C24.584 46.8283 24.8443 46.8912 25.0539 47.0427C25.2634 47.1943 25.4054 47.4223 25.4494 47.6778C25.4882 47.9461 25.4208 48.2189 25.2615 48.4378C25.1023 48.6566 24.864 48.804 24.5977 48.8484C23.587 48.984 22.5692 49.0592 21.5496 49.0735Z" fill="#45526C"/>
<path id="Vector_64" d="M12.764 47.0923C12.6179 47.1374 12.4618 47.1374 12.3157 47.0923C10.0158 45.9746 7.93553 44.4495 6.17466 42.5902C6.08342 42.4956 6.01163 42.3838 5.96337 42.2614C5.91512 42.1389 5.89136 42.0081 5.89344 41.8764C5.89552 41.7447 5.9234 41.6147 5.9755 41.4939C6.0276 41.373 6.10289 41.2636 6.19708 41.172C6.29126 41.0804 6.40249 41.0082 6.52443 40.9598C6.64636 40.9113 6.7766 40.8874 6.90772 40.8895C7.03883 40.8916 7.16825 40.9196 7.28859 40.972C7.40893 41.0243 7.51783 41.0999 7.60907 41.1945C9.21949 42.7932 11.102 44.0893 13.1674 45.0213C13.3597 45.1287 13.5128 45.295 13.6042 45.4961C13.6957 45.6971 13.7207 45.9222 13.6756 46.1385C13.6305 46.3548 13.5177 46.551 13.3537 46.6983C13.1897 46.8456 12.983 46.9363 12.764 46.9572V47.0923Z" fill="#45526C"/>
<path id="Vector_65" d="M18.5908 46.1468C18.4492 46.1482 18.3089 46.1188 18.1796 46.0608C18.0503 46.0028 17.9349 45.9175 17.8413 45.8107C17.7477 45.7039 17.6782 45.5781 17.6373 45.4419C17.5965 45.3057 17.5854 45.1622 17.6047 45.0213C17.5986 44.8875 17.6196 44.7538 17.6665 44.6284C17.7133 44.503 17.785 44.3884 17.8772 44.2916C17.9694 44.1948 18.0801 44.1178 18.2028 44.0653C18.3255 44.0127 18.4575 43.9857 18.5908 43.9858C20.483 43.9829 22.3615 43.6634 24.1492 43.0404C24.393 42.9529 24.6613 42.9653 24.8961 43.0748C25.1309 43.1843 25.3134 43.3821 25.4043 43.6256C25.4906 43.8824 25.4733 44.163 25.3559 44.4071C25.2386 44.6513 25.0307 44.8394 24.7767 44.9312C22.8001 45.6921 20.7072 46.1034 18.5908 46.1468Z" fill="#45526C"/>
<path id="Vector_66" d="M24.4631 45.0212C24.257 45.0161 24.0571 44.9491 23.8893 44.8287C23.7215 44.7083 23.5935 44.5401 23.5218 44.3459C23.4798 44.2218 23.4627 44.0905 23.4715 43.9597C23.4804 43.8289 23.515 43.7012 23.5733 43.5839C23.6317 43.4667 23.7127 43.3622 23.8116 43.2766C23.9105 43.191 24.0253 43.126 24.1494 43.0853C26.1801 42.3552 28.052 41.2394 29.6629 39.7988C29.7511 39.7019 29.8584 39.6245 29.978 39.5715C30.0976 39.5186 30.2269 39.4912 30.3576 39.4912C30.4884 39.4912 30.6177 39.5186 30.7373 39.5715C30.8569 39.6245 30.9642 39.7019 31.0524 39.7988C31.2387 39.9919 31.3428 40.2502 31.3428 40.5191C31.3428 40.788 31.2387 41.0463 31.0524 41.2394C29.2298 42.904 27.0969 44.1894 24.7769 45.0212H24.4631Z" fill="#45526C"/>
<path id="Vector_67" d="M18.5913 46.1469C16.4805 46.1286 14.3884 45.748 12.4054 45.0213C12.1596 44.9208 11.9619 44.729 11.8534 44.4859C11.7448 44.2427 11.7338 43.9668 11.8226 43.7157C11.9135 43.4722 12.096 43.2744 12.3308 43.1649C12.5657 43.0554 12.8339 43.043 13.0778 43.1304C14.8499 43.7535 16.7137 44.0731 18.5913 44.0759C18.7415 44.0439 18.8969 44.046 19.0462 44.0821C19.1954 44.1181 19.3348 44.1872 19.4541 44.2843C19.5734 44.3814 19.6696 44.504 19.7357 44.6432C19.8018 44.7824 19.836 44.9347 19.836 45.0889C19.836 45.2431 19.8018 45.3953 19.7357 45.5345C19.6696 45.6737 19.5734 45.7963 19.4541 45.8934C19.3348 45.9905 19.1954 46.0596 19.0462 46.0956C18.8969 46.1317 18.7415 46.1338 18.5913 46.1018V46.1469Z" fill="#45526C"/>
<path id="Vector_68" d="M30.3353 41.5996C30.1932 41.6054 30.0515 41.5802 29.92 41.5258C29.7884 41.4714 29.6702 41.3891 29.5733 41.2845C29.3871 41.0913 29.283 40.833 29.283 40.5641C29.283 40.2953 29.3871 40.0369 29.5733 39.8438C31.3218 38.2921 32.7247 36.3873 33.6902 34.2538C34.6557 32.1204 35.1621 29.8064 35.1765 27.4629C35.1765 27.2002 35.2804 26.9483 35.4653 26.7626C35.6502 26.5768 35.9011 26.4725 36.1626 26.4725C36.2958 26.4664 36.4289 26.4875 36.5538 26.5345C36.6786 26.5816 36.7927 26.6536 36.8891 26.7462C36.9855 26.8387 37.0621 26.95 37.1145 27.0732C37.1668 27.1964 37.1937 27.329 37.1936 27.4629C37.1851 30.0868 36.6304 32.6798 35.5651 35.0756C34.4998 37.4714 32.9474 39.6169 31.0077 41.3745C30.8077 41.5086 30.5755 41.5863 30.3353 41.5996Z" fill="#45526C"/>
<path id="Vector_69" d="M1.10925 29.9843C0.978541 30.0034 0.845302 29.9946 0.718197 29.9585C0.591091 29.9224 0.472966 29.8599 0.371499 29.775C0.270032 29.6901 0.187495 29.5846 0.129253 29.4656C0.0710115 29.3465 0.0383688 29.2165 0.0334473 29.0839C0.0334473 28.5436 0.0334473 28.0034 0.0334473 27.4631C0.0334473 27.2004 0.137346 26.9485 0.322286 26.7628C0.507226 26.577 0.758058 26.4727 1.0196 26.4727C1.28115 26.4727 1.53198 26.577 1.71692 26.7628C1.90186 26.9485 2.00576 27.2004 2.00576 27.4631C2.00576 27.9584 2.00576 28.4536 2.00576 28.9038C2.01803 29.0375 2.00309 29.1724 1.96186 29.3001C1.92063 29.4279 1.85397 29.5459 1.76592 29.6469C1.67787 29.748 1.57028 29.83 1.44969 29.888C1.3291 29.946 1.19802 29.9788 1.06443 29.9843H1.10925Z" fill="#45526C"/>
<path id="Vector_70" d="M6.89175 41.5996C6.65028 41.5937 6.41611 41.5153 6.21937 41.3745C2.66709 38.2238 0.453117 33.8249 0.0334801 29.0837C0.0211576 28.9535 0.0346198 28.8222 0.0730901 28.6973C0.11156 28.5724 0.174277 28.4563 0.257623 28.3559C0.340968 28.2554 0.443292 28.1725 0.558692 28.112C0.674092 28.0515 0.800283 28.0145 0.929985 28.0032C1.0607 27.9842 1.19394 27.993 1.32104 28.029C1.44815 28.0651 1.56627 28.1276 1.66774 28.2125C1.76921 28.2975 1.85174 28.4029 1.90999 28.522C1.96823 28.641 2.00087 28.7711 2.00579 28.9036C2.37645 33.1362 4.36934 37.0587 7.56412 39.8438C7.6618 39.9364 7.73962 40.048 7.79281 40.1719C7.846 40.2958 7.87343 40.4293 7.87343 40.5642C7.87343 40.699 7.846 40.8325 7.79281 40.9564C7.73962 41.0803 7.6618 41.1919 7.56412 41.2845C7.48094 41.3822 7.3779 41.4609 7.26192 41.5152C7.14594 41.5696 7.01972 41.5984 6.89175 41.5996Z" fill="#45526C"/>
<path id="Vector_71" d="M12.764 45.0212H12.4054C10.1268 44.2005 8.02668 42.9471 6.21955 41.3295C6.03332 41.1363 5.9292 40.878 5.9292 40.6091C5.9292 40.3403 6.03332 40.0819 6.21955 39.8888C6.31173 39.7907 6.42289 39.7125 6.54622 39.6591C6.66955 39.6057 6.80244 39.5781 6.93675 39.5781C7.07106 39.5781 7.20395 39.6057 7.32728 39.6591C7.45061 39.7125 7.56177 39.7907 7.65395 39.8888C9.258 41.3388 11.1318 42.4558 13.1675 43.1753C13.2723 43.2356 13.364 43.3166 13.4369 43.4134C13.5099 43.5101 13.5626 43.6207 13.5919 43.7385C13.6212 43.8562 13.6265 43.9787 13.6075 44.0986C13.5885 44.2184 13.5455 44.3332 13.4812 44.4359C13.4219 44.5872 13.3247 44.7205 13.1991 44.8231C13.0734 44.9256 12.9236 44.9938 12.764 45.0212Z" fill="#45526C"/>
<path id="Vector_72" d="M15.6772 43.1753C14.6229 43.1864 13.5706 43.0807 12.5394 42.8602C12.41 42.8393 12.2863 42.7915 12.1764 42.7198C12.0664 42.6482 11.9725 42.5543 11.9008 42.4441C11.829 42.3339 11.781 42.2098 11.7598 42.0799C11.7385 41.95 11.7445 41.8171 11.7774 41.6896C11.8313 41.4331 11.9842 41.2085 12.2026 41.065C12.4211 40.9216 12.6873 40.8709 12.9428 40.9242C14.7481 41.2845 16.6063 41.2845 18.4115 40.9242C18.5384 40.8912 18.6708 40.8852 18.8001 40.9065C18.9295 40.9279 19.053 40.9761 19.1627 41.0482C19.2724 41.1202 19.3659 41.2145 19.4373 41.325C19.5086 41.4354 19.5562 41.5596 19.577 41.6896C19.6301 41.9463 19.5797 42.2136 19.4368 42.4331C19.294 42.6525 19.0703 42.8061 18.815 42.8602C17.7834 43.0786 16.7314 43.1842 15.6772 43.1753Z" fill="#45526C"/>
<path id="Vector_73" d="M1.10933 29.9843C0.979723 29.9967 0.848961 29.9832 0.724585 29.9445C0.600209 29.9059 0.484681 29.8429 0.384667 29.7592C0.284652 29.6755 0.202131 29.5727 0.141862 29.4568C0.0815944 29.3409 0.0447727 29.2142 0.0335218 29.0839C-0.0111739 28.5446 -0.0111739 28.0024 0.0335218 27.4631C0.0335218 27.2004 0.13742 26.9485 0.32236 26.7628C0.5073 26.577 0.758133 26.4727 1.01968 26.4727C1.28122 26.4727 1.53206 26.577 1.717 26.7628C1.90194 26.9485 2.00583 27.2004 2.00583 27.4631C2.00583 27.9584 2.00583 28.4536 2.00583 28.9038C2.01816 29.034 2.00469 29.1653 1.96622 29.2902C1.92775 29.4152 1.86504 29.5312 1.78169 29.6316C1.69835 29.7321 1.59602 29.815 1.48062 29.8755C1.36522 29.936 1.23903 29.973 1.10933 29.9843Z" fill="#45526C"/>
<path id="Vector_74" d="M12.7641 42.9053C10.4818 42.4605 8.33356 41.4895 6.48852 40.0689C6.31528 39.8782 6.21924 39.6293 6.21924 39.3711C6.21924 39.1129 6.31528 38.864 6.48852 38.6733C6.57672 38.5764 6.68405 38.499 6.80367 38.446C6.92329 38.3931 7.05259 38.3657 7.18331 38.3657C7.31404 38.3657 7.44333 38.3931 7.56295 38.446C7.68257 38.499 7.7899 38.5764 7.8781 38.6733C9.50194 39.885 11.3675 40.7297 13.3468 41.1495C13.6083 41.1495 13.8592 41.2538 14.0441 41.4395C14.229 41.6253 14.3329 41.8772 14.3329 42.1399C14.3329 42.4026 14.229 42.6545 14.0441 42.8403C13.8592 43.026 13.6083 43.1304 13.3468 43.1304L12.7641 42.9053Z" fill="#45526C"/>
<path id="Vector_75" d="M18.5911 42.905C18.3601 42.9005 18.1373 42.8181 17.9585 42.6712C17.7797 42.5242 17.6552 42.3212 17.605 42.0947C17.5649 41.8329 17.6263 41.5657 17.7763 41.348C17.9264 41.1303 18.1538 40.9786 18.4118 40.9241C20.3911 40.5043 22.2567 39.6597 23.8805 38.4479C23.9687 38.351 24.076 38.2736 24.1957 38.2207C24.3153 38.1677 24.4446 38.1404 24.5753 38.1404C24.706 38.1404 24.8353 38.1677 24.9549 38.2207C25.0746 38.2736 25.1819 38.351 25.2701 38.4479C25.4535 38.6335 25.5564 38.8843 25.5564 39.1458C25.5564 39.4072 25.4535 39.6581 25.2701 39.8436C23.4365 41.2551 21.3049 42.2255 19.0394 42.6799L18.5911 42.905Z" fill="#45526C"/>
<path id="Vector_76" d="M24.4633 40.2489C24.307 40.2472 24.1532 40.2098 24.0134 40.1396C23.8736 40.0694 23.7516 39.9682 23.6565 39.8437C23.5787 39.7377 23.5228 39.6172 23.492 39.4893C23.4612 39.3614 23.4561 39.2286 23.4769 39.0986C23.4978 38.9687 23.5442 38.8442 23.6136 38.7325C23.6829 38.6208 23.7736 38.5241 23.8806 38.448C25.5834 37.1766 26.9625 35.5185 27.9052 33.6092C28.8479 31.7 29.3274 29.5938 29.3044 27.4628C29.3043 27.3289 29.3312 27.1963 29.3836 27.0731C29.4359 26.9499 29.5126 26.8386 29.6089 26.7461C29.7053 26.6535 29.8194 26.5815 29.9443 26.5344C30.0691 26.4874 30.2022 26.4663 30.3354 26.4724C30.4723 26.4598 30.6102 26.4761 30.7404 26.5203C30.8706 26.5644 30.9902 26.6353 31.0915 26.7286C31.1927 26.8219 31.2735 26.9353 31.3286 27.0618C31.3836 27.1882 31.4118 27.3248 31.4112 27.4628C31.4183 29.904 30.854 32.3126 29.764 34.4945C28.6739 36.6764 27.0885 38.5704 25.1357 40.0238C24.9493 40.1839 24.7081 40.2647 24.4633 40.2489Z" fill="#45526C"/>
<path id="Vector_77" d="M6.89209 40.2488C6.68655 40.3042 6.47009 40.3042 6.26454 40.2488C4.50606 38.9291 3.04289 37.2534 1.96962 35.3301C0.896355 33.4069 0.236879 31.2788 0.0338283 29.0835C0.015003 28.9557 0.0224278 28.8255 0.0556449 28.7008C0.0888621 28.576 0.147167 28.4594 0.226966 28.3582C0.306764 28.257 0.406365 28.1732 0.519625 28.1121C0.632886 28.051 0.757406 28.0139 0.885508 28.003C1.15216 27.9774 1.41825 28.0571 1.62741 28.2252C1.83658 28.3933 1.97241 28.6365 2.00614 28.9034C2.20428 30.7795 2.78396 32.5946 3.70924 34.2364C4.63452 35.8783 5.88568 37.3117 7.38517 38.4479C7.49212 38.524 7.58289 38.6207 7.6522 38.7324C7.72151 38.8441 7.76795 38.9686 7.78882 39.0985C7.80968 39.2285 7.80456 39.3613 7.77373 39.4892C7.74291 39.6171 7.68701 39.7376 7.6093 39.8436C7.52386 39.957 7.41608 40.0514 7.29269 40.1212C7.1693 40.1909 7.03293 40.2343 6.89209 40.2488Z" fill="#45526C"/>
<path id="Vector_78" d="M6.89187 38.6284C6.73074 38.6747 6.55992 38.6747 6.39879 38.6284C4.44055 37.5092 2.81704 35.883 1.6975 33.9192C0.577952 31.9553 0.00335734 29.7259 0.0336062 27.4631C0.0336062 27.2004 0.137504 26.9485 0.322445 26.7628C0.507385 26.577 0.758217 26.4727 1.01976 26.4727C1.28131 26.4727 1.53214 26.577 1.71708 26.7628C1.90202 26.9485 2.00592 27.2004 2.00592 27.4631C1.99744 29.3504 2.49174 31.2055 3.43755 32.8363C4.38336 34.467 5.74626 35.814 7.38495 36.7375C7.56222 36.8575 7.69798 37.0298 7.77345 37.2307C7.84893 37.4315 7.86038 37.651 7.80622 37.8586C7.75207 38.0663 7.63499 38.2519 7.47118 38.3899C7.30736 38.5278 7.10493 38.6111 6.89187 38.6284Z" fill="#45526C"/>
<path id="Vector_79" d="M12.764 40.2492C12.5024 40.2492 12.2516 40.1448 12.0667 39.9591C11.8817 39.7733 11.7778 39.5214 11.7778 39.2587C11.7778 38.996 11.8817 38.7441 12.0667 38.5583C12.2516 38.3726 12.5024 38.2682 12.764 38.2682C14.6002 38.22 16.3922 37.6925 17.9637 36.7375C18.1897 36.6067 18.4581 36.5712 18.7101 36.6387C18.9622 36.7062 19.1773 36.8712 19.3085 37.0977C19.3801 37.2119 19.4278 37.3396 19.4485 37.4729C19.4692 37.6063 19.4626 37.7425 19.429 37.8732C19.3954 38.0039 19.3356 38.1263 19.2532 38.233C19.1708 38.3396 19.0676 38.4282 18.9499 38.4933C17.0788 39.6178 14.9443 40.2237 12.764 40.2492Z" fill="#45526C"/>
<path id="Vector_80" d="M18.5914 38.6284C18.367 38.639 18.1453 38.5756 17.9601 38.448C17.7748 38.3204 17.6361 38.1355 17.5651 37.9215C17.4941 37.7075 17.4946 37.476 17.5666 37.2623C17.6385 37.0486 17.778 36.8643 17.9638 36.7375C19.6276 35.8316 21.0176 34.4923 21.9878 32.8603C22.958 31.2283 23.4726 29.3639 23.4774 27.4631C23.4774 27.2004 23.5812 26.9485 23.7662 26.7628C23.9511 26.577 24.202 26.4727 24.4635 26.4727C24.7251 26.4727 24.9759 26.577 25.1608 26.7628C25.3458 26.9485 25.4497 27.2004 25.4497 27.4631C25.4559 29.703 24.8699 31.9045 23.7516 33.8424C22.6333 35.7804 21.0227 37.3854 19.0845 38.4933C18.9366 38.5855 18.7653 38.6324 18.5914 38.6284Z" fill="#45526C"/>
<path id="Vector_81" d="M12.7641 40.2489C10.5232 40.2535 8.32312 39.6466 6.39887 38.4931C6.28115 38.428 6.17792 38.3394 6.09552 38.2328C6.01312 38.1261 5.95329 38.0037 5.91971 37.873C5.88613 37.7423 5.8795 37.6061 5.90023 37.4727C5.92096 37.3394 5.96862 37.2117 6.04027 37.0975C6.17911 36.8796 6.39413 36.7217 6.64301 36.6551C6.89189 36.5884 7.15659 36.6177 7.38502 36.7373C9.0098 37.7207 10.8671 38.2493 12.7641 38.268C13.0256 38.268 13.2764 38.3724 13.4614 38.5581C13.6463 38.7439 13.7502 38.9958 13.7502 39.2585C13.7502 39.5212 13.6463 39.7731 13.4614 39.9588C13.2764 40.1446 13.0256 40.2489 12.7641 40.2489Z" fill="#45526C"/>
</g>
</svg>
