<svg width="59" height="52" viewBox="0 0 59 52" fill="none" xmlns="http://www.w3.org/2000/svg">
<g id="Group 24">
<path id="Vector" d="M46.6023 51.9505C46.4145 51.9453 46.2309 51.8929 46.0683 51.7981C45.9057 51.7032 45.7692 51.5689 45.6712 51.4073L28.4715 21.4323C28.3941 21.3109 28.3427 21.1745 28.3205 21.0319C28.2983 20.8894 28.3059 20.7437 28.3428 20.6043C28.3797 20.4648 28.4451 20.3347 28.5348 20.2221C28.6244 20.1096 28.7364 20.0172 28.8635 19.9508C29.1133 19.8197 29.4027 19.7875 29.6747 19.8606C29.9468 19.9337 30.1818 20.1068 30.3336 20.3458L47.5823 50.3209C47.7124 50.5725 47.7443 50.8641 47.6718 51.1383C47.5992 51.4125 47.4275 51.6494 47.1903 51.8023C47.0083 51.8969 46.807 51.9476 46.6023 51.9505Z" fill="#45526C"/>
<path id="Vector_2" d="M50.375 45.3827C50.1872 45.3775 50.0036 45.3251 49.841 45.2303C49.6784 45.1354 49.5419 45.0011 49.444 44.8395L36.0175 21.4323C35.94 21.3109 35.8886 21.1746 35.8664 21.032C35.8442 20.8894 35.8519 20.7438 35.8888 20.6043C35.9257 20.4649 35.991 20.3347 36.0807 20.2222C36.1704 20.1097 36.2823 20.0173 36.4095 19.9508C36.5299 19.8728 36.6652 19.821 36.8067 19.7986C36.9482 19.7763 37.0927 19.784 37.2311 19.8211C37.3694 19.8583 37.4986 19.9242 37.6102 20.0146C37.7219 20.1049 37.8136 20.2178 37.8795 20.3459L51.3061 43.7037C51.3844 43.829 51.4365 43.969 51.4591 44.1153C51.4818 44.2616 51.4746 44.411 51.4379 44.5544C51.4011 44.6977 51.3357 44.832 51.2457 44.949C51.1556 45.066 51.0427 45.1631 50.914 45.2346C50.7524 45.3356 50.5652 45.3871 50.375 45.3827Z" fill="#45526C"/>
<path id="Vector_3" d="M36.9487 21.9755C36.7589 21.9803 36.5714 21.9321 36.4071 21.8363C36.2428 21.7404 36.108 21.6006 36.0177 21.4323L32.1955 14.8644C32.0548 14.602 32.0222 14.2944 32.1048 14.008C32.1873 13.7215 32.3783 13.4793 32.6365 13.3336C32.8862 13.2025 33.1756 13.1703 33.4477 13.2434C33.7197 13.3165 33.9548 13.4896 34.1066 13.7287L37.8797 20.3459C38.0221 20.5949 38.0608 20.8905 37.9873 21.1682C37.9138 21.4458 37.7342 21.6829 37.4877 21.8273C37.3261 21.9284 37.1388 21.9799 36.9487 21.9755Z" fill="#45526C"/>
<path id="Vector_4" d="M54.1479 38.7654C53.9601 38.7603 53.7765 38.7079 53.6139 38.613C53.4513 38.5181 53.3148 38.3838 53.2168 38.2222L43.4165 21.4323C43.2717 21.1758 43.2316 20.8726 43.3048 20.5868C43.378 20.3011 43.5586 20.0553 43.8085 19.9014C44.0556 19.758 44.349 19.719 44.6245 19.793C44.9 19.8671 45.1352 20.0481 45.2785 20.2965L55.0789 37.0864C55.2237 37.3429 55.2638 37.6461 55.1906 37.9319C55.1174 38.2176 54.9368 38.4634 54.6869 38.6173C54.5253 38.7183 54.338 38.7698 54.1479 38.7654Z" fill="#45526C"/>
<path id="Vector_5" d="M44.4947 21.9755C44.3049 21.9803 44.1174 21.9321 43.9531 21.8363C43.7888 21.7404 43.654 21.6006 43.5636 21.4323L39.7905 14.8644C39.7122 14.7392 39.6601 14.5991 39.6374 14.4528C39.6148 14.3065 39.622 14.1571 39.6587 14.0138C39.6954 13.8704 39.7608 13.7361 39.8509 13.6192C39.941 13.5022 40.0538 13.405 40.1825 13.3336C40.4322 13.2025 40.7216 13.1703 40.9937 13.2434C41.2657 13.3165 41.5008 13.4896 41.6526 13.7287L45.4257 20.2965C45.5705 20.553 45.6106 20.8562 45.5374 21.1419C45.4642 21.4277 45.2836 21.6735 45.0337 21.8273C44.8721 21.9284 44.6848 21.9799 44.4947 21.9755Z" fill="#45526C"/>
<path id="Vector_6" d="M40.7219 15.4076C40.532 15.4124 40.3446 15.3642 40.1803 15.2683C40.016 15.1725 39.8812 15.0326 39.7908 14.8644L35.9687 8.24713C35.8263 7.99815 35.7876 7.70247 35.8611 7.42482C35.9346 7.14717 36.1142 6.91016 36.3607 6.76567C36.485 6.68673 36.624 6.63423 36.7691 6.61139C36.9143 6.58855 37.0626 6.59585 37.2048 6.63285C37.3471 6.66985 37.4803 6.73576 37.5964 6.82653C37.7124 6.91731 37.8089 7.03103 37.8797 7.16072L41.6529 13.7286C41.7601 13.8945 41.8203 14.0868 41.827 14.2847C41.8336 14.4826 41.7865 14.6786 41.6906 14.8515C41.5948 15.0243 41.4539 15.1675 41.2831 15.2655C41.1124 15.3635 40.9183 15.4127 40.7219 15.4076Z" fill="#45526C"/>
<path id="Vector_7" d="M44.495 8.79046C44.3052 8.7953 44.1177 8.7471 43.9534 8.65123C43.7891 8.55536 43.6543 8.41555 43.5639 8.24726L39.7418 1.63004C39.6117 1.37839 39.5798 1.08677 39.6523 0.812594C39.7249 0.538414 39.8966 0.301534 40.1338 0.14858C40.3883 0.00265856 40.6892 -0.0377044 40.9727 0.0360336C41.2563 0.109772 41.5002 0.291821 41.6528 0.543637L45.426 7.11147C45.559 7.37053 45.5926 7.66994 45.5203 7.95239C45.448 8.23484 45.2748 8.48049 45.034 8.64231C44.8695 8.73651 44.6841 8.78746 44.495 8.79046Z" fill="#45526C"/>
<path id="Vector_8" d="M57.9218 32.1481C57.732 32.1529 57.5445 32.1047 57.3802 32.0089C57.2159 31.913 57.0811 31.7732 56.9908 31.6049L51.1105 21.4321C51.003 21.3062 50.9242 21.158 50.8797 20.998C50.8352 20.838 50.8261 20.6702 50.853 20.5063C50.8799 20.3423 50.9421 20.1864 51.0353 20.0493C51.1285 19.9123 51.2504 19.7975 51.3924 19.7131C51.5344 19.6287 51.6931 19.5768 51.8572 19.5609C52.0213 19.545 52.1868 19.5656 52.3422 19.6212C52.4975 19.6768 52.6389 19.7661 52.7563 19.8827C52.8737 19.9994 52.9642 20.1406 53.0216 20.2963L58.8528 30.5185C58.9952 30.7674 59.0339 31.0631 58.9604 31.3408C58.8869 31.6184 58.7073 31.8555 58.4608 31.9999C58.2992 32.101 58.1119 32.1525 57.9218 32.1481Z" fill="#45526C"/>
<path id="Vector_9" d="M48.2676 15.3583C48.0798 15.3531 47.8962 15.3008 47.7336 15.2059C47.571 15.111 47.4346 14.9767 47.3366 14.8151L43.5634 8.24726C43.4851 8.122 43.433 7.98193 43.4104 7.83564C43.3877 7.68936 43.3949 7.53995 43.4317 7.39659C43.4684 7.25323 43.5338 7.11894 43.6239 7.00197C43.7139 6.88501 43.8268 6.78783 43.9555 6.71641C44.2052 6.58529 44.4945 6.55313 44.7666 6.62624C45.0387 6.69936 45.2737 6.87246 45.4255 7.11147L49.1987 13.7287C49.2761 13.8501 49.3275 13.9864 49.3497 14.129C49.3719 14.2716 49.3643 14.4172 49.3274 14.5567C49.2905 14.6961 49.2251 14.8263 49.1354 14.9388C49.0458 15.0513 48.9338 15.1437 48.8067 15.2102C48.6451 15.3112 48.4578 15.3627 48.2676 15.3583Z" fill="#45526C"/>
<path id="Vector_10" d="M52.041 21.9753C51.8532 21.9701 51.6696 21.9178 51.507 21.8229C51.3444 21.728 51.2079 21.5937 51.11 21.4321L47.3368 14.8149C47.1945 14.5659 47.1558 14.2702 47.2293 13.9926C47.3027 13.7149 47.4824 13.4779 47.7289 13.3334C47.8493 13.2554 47.9846 13.2035 48.1261 13.1812C48.2676 13.1589 48.4121 13.1665 48.5505 13.2037C48.6888 13.2409 48.818 13.3068 48.9296 13.3971C49.0413 13.4875 49.133 13.6003 49.1989 13.7285L53.0211 20.2963C53.1541 20.5554 53.1877 20.8548 53.1154 21.1372C53.043 21.4197 52.8699 21.6653 52.6291 21.8272L52.041 21.9753Z" fill="#45526C"/>
<path id="Vector_11" d="M36.9489 8.79044C36.7553 8.83489 36.5544 8.83489 36.3609 8.79044C36.1237 8.63748 35.9519 8.4006 35.8794 8.12642C35.8068 7.85224 35.8387 7.56062 35.9688 7.30896L39.742 0.691748C39.8854 0.443361 40.1205 0.262339 40.3961 0.188298C40.6716 0.114257 40.965 0.153229 41.212 0.296691C41.3382 0.36406 41.4499 0.456022 41.5405 0.56723C41.6311 0.678437 41.6989 0.806676 41.7399 0.944504C41.7809 1.08233 41.7944 1.22701 41.7795 1.37012C41.7646 1.51323 41.7216 1.65193 41.6531 1.77816L37.8799 8.39538C37.7659 8.52969 37.6224 8.63533 37.4608 8.70391C37.2991 8.7725 37.1239 8.80212 36.9489 8.79044Z" fill="#45526C"/>
<path id="Vector_12" d="M33.1756 15.4078C32.9821 15.4523 32.7811 15.4523 32.5876 15.4078C32.3468 15.246 32.1736 15.0004 32.1013 14.7179C32.0289 14.4355 32.0625 14.1361 32.1956 13.877L35.9687 7.30916C36.0396 7.17947 36.136 7.06575 36.2521 6.97497C36.3682 6.8842 36.5014 6.81829 36.6437 6.78129C36.7859 6.7443 36.9342 6.73699 37.0793 6.75983C37.2245 6.78267 37.3635 6.83517 37.4878 6.9141C37.7343 7.05859 37.9139 7.2956 37.9874 7.57325C38.0609 7.85091 38.0222 8.14659 37.8798 8.39557L34.1067 14.9634C34.0006 15.1099 33.8598 15.2273 33.6972 15.305C33.5346 15.3826 33.3553 15.418 33.1756 15.4078Z" fill="#45526C"/>
<path id="Vector_13" d="M29.4026 21.9756C29.2264 22.0263 29.0397 22.0263 28.8636 21.9756C28.6053 21.8298 28.4143 21.5876 28.3318 21.3012C28.2493 21.0148 28.2819 20.7071 28.4226 20.4447L32.1957 13.8275C32.3563 13.5848 32.6 13.4103 32.8803 13.3374C33.1606 13.2645 33.4577 13.2983 33.7147 13.4324C33.9519 13.5854 34.1237 13.8223 34.1962 14.0965C34.2688 14.3706 34.2369 14.6622 34.1068 14.9139L30.4806 21.4324C30.3704 21.6165 30.2106 21.7652 30.0197 21.8614C29.8289 21.9575 29.6149 21.9971 29.4026 21.9756Z" fill="#45526C"/>
<path id="Vector_14" d="M23.5713 32.1977C23.3952 32.2484 23.2085 32.2484 23.0323 32.1977C22.9061 32.1303 22.7945 32.0383 22.7039 31.9271C22.6133 31.8159 22.5455 31.6877 22.5044 31.5499C22.4634 31.412 22.45 31.2674 22.4649 31.1243C22.4798 30.9811 22.5228 30.8424 22.5913 30.7162L28.4225 20.4941C28.5752 20.2423 28.8191 20.0602 29.1027 19.9865C29.3862 19.9127 29.6871 19.9531 29.9416 20.099C30.1788 20.252 30.3505 20.4889 30.4231 20.763C30.4956 21.0372 30.4637 21.3288 30.3336 21.5805L24.5024 31.8026C24.3884 31.9369 24.2449 32.0426 24.0832 32.1112C23.9216 32.1797 23.7463 32.2094 23.5713 32.1977Z" fill="#45526C"/>
<path id="Vector_15" d="M25.58 15.4079H25.041C24.8039 15.255 24.6321 15.0181 24.5595 14.7439C24.487 14.4697 24.5189 14.1781 24.649 13.9264L28.4222 7.30922C28.5651 7.05383 28.8029 6.86613 29.0832 6.78741C29.3635 6.70869 29.6633 6.74541 29.9167 6.88948C30.1701 7.03354 30.3564 7.27316 30.4345 7.55562C30.5126 7.83808 30.4762 8.14025 30.3332 8.39564L26.5111 15.0129C26.4027 15.1538 26.2601 15.2642 26.097 15.3334C25.9339 15.4026 25.7558 15.4283 25.58 15.4079Z" fill="#45526C"/>
<path id="Vector_16" d="M29.3533 8.79047C29.1763 8.83441 28.9913 8.83441 28.8143 8.79047C28.5678 8.64598 28.3882 8.40897 28.3147 8.13132C28.2412 7.85366 28.2799 7.55798 28.4223 7.309L32.1954 0.691782C32.3472 0.452772 32.5823 0.279681 32.8543 0.206567C33.1264 0.133452 33.4158 0.16561 33.6655 0.296724C33.912 0.441214 34.0916 0.678225 34.1651 0.955879C34.2385 1.23353 34.1999 1.52921 34.0575 1.7782L30.4804 8.24726C30.3621 8.43536 30.1937 8.58608 29.9943 8.68215C29.795 8.77823 29.5728 8.81577 29.3533 8.79047Z" fill="#45526C"/>
<path id="Vector_17" d="M15.7796 32.1974H15.2406C14.9941 32.0529 14.8145 31.8159 14.741 31.5383C14.6675 31.2606 14.7062 30.9649 14.8486 30.716L24.649 13.926C24.793 13.6785 25.0246 13.4951 25.2973 13.4126C25.57 13.3302 25.8636 13.3548 26.119 13.4816C26.2477 13.553 26.3606 13.6502 26.4506 13.7671C26.5407 13.8841 26.6061 14.0184 26.6428 14.1617C26.6795 14.3051 26.6868 14.4545 26.6641 14.6008C26.6415 14.7471 26.5894 14.8872 26.511 15.0124L16.9557 31.8024C16.8194 31.9769 16.6354 32.1073 16.4264 32.1775C16.2173 32.2477 15.9925 32.2546 15.7796 32.1974Z" fill="#45526C"/>
<path id="Vector_18" d="M8.42934 32.2469H7.89032C7.64949 32.0851 7.47634 31.8395 7.40401 31.557C7.33168 31.2745 7.36526 30.9751 7.49831 30.7161L20.6798 7.16075C20.832 6.93124 21.0652 6.76872 21.332 6.7062C21.5988 6.64369 21.8792 6.68588 22.1163 6.82419C22.3533 6.96249 22.5293 7.18656 22.6083 7.45085C22.6874 7.71515 22.6636 7.99987 22.5419 8.24716L9.40938 31.7037C9.30362 31.8691 9.15864 32.0054 8.98754 32.1003C8.81645 32.1951 8.62461 32.2455 8.42934 32.2469Z" fill="#45526C"/>
<path id="Vector_19" d="M21.8069 8.79038C21.7217 8.82706 21.63 8.84596 21.5374 8.84596C21.4447 8.84596 21.353 8.82706 21.2679 8.79038C21.1407 8.72397 21.0288 8.63154 20.9391 8.51901C20.8494 8.40649 20.7841 8.27635 20.7472 8.13691C20.7103 7.99747 20.7026 7.8518 20.7248 7.70922C20.747 7.56665 20.7984 7.4303 20.8759 7.30891L24.649 0.691685C24.723 0.568471 24.8204 0.461155 24.9355 0.375859C25.0507 0.290563 25.1814 0.228965 25.3202 0.194573C25.4589 0.160182 25.6031 0.153667 25.7444 0.175415C25.8856 0.197163 26.0213 0.246747 26.1436 0.321324C26.2658 0.395901 26.3723 0.494018 26.4569 0.61007C26.5416 0.726123 26.6027 0.857837 26.6368 0.997696C26.671 1.13756 26.6774 1.28282 26.6559 1.42519C26.6343 1.56757 26.5851 1.70427 26.5111 1.82748L22.7379 8.39532C22.6295 8.53629 22.4869 8.6467 22.3238 8.71591C22.1607 8.78511 21.9827 8.81076 21.8069 8.79038Z" fill="#45526C"/>
<path id="Vector_20" d="M1.07891 32.247C0.902766 32.2978 0.716026 32.2978 0.539884 32.247C0.293409 32.1025 0.113781 31.8655 0.0403102 31.5879C-0.0331606 31.3102 0.00551146 31.0145 0.147868 30.7656L17.2496 0.741148C17.4022 0.489331 17.6462 0.307281 17.9297 0.233543C18.2132 0.159805 18.5141 0.200168 18.7686 0.34609C19.0151 0.490579 19.1947 0.727591 19.2682 1.00524C19.3417 1.2829 19.303 1.57858 19.1606 1.82756L2.00994 31.852C1.90155 31.9929 1.75893 32.1034 1.59584 32.1726C1.43275 32.2418 1.25471 32.2674 1.07891 32.247Z" fill="#45526C"/>
<path id="Vector_21" d="M8.42926 32.247C8.14335 32.247 7.86914 32.1326 7.66697 31.9288C7.4648 31.7251 7.35121 31.4487 7.35121 31.1606C7.34459 31.0138 7.36757 30.8672 7.41877 30.7297C7.46997 30.5921 7.54833 30.4664 7.6491 30.3603C7.74987 30.2541 7.87097 30.1696 8.00507 30.112C8.13916 30.0543 8.28347 30.0247 8.42926 30.0248H15.7796C15.9252 30.0181 16.0707 30.0413 16.2072 30.0929C16.3437 30.1445 16.4684 30.2235 16.5737 30.325C16.6791 30.4266 16.7629 30.5486 16.8201 30.6837C16.8773 30.8189 16.9067 30.9643 16.9066 31.1112C16.9066 31.3994 16.793 31.6757 16.5908 31.8794C16.3887 32.0832 16.1145 32.1976 15.8285 32.1976L8.42926 32.247Z" fill="#45526C"/>
<path id="Vector_22" d="M1.07915 32.2469C0.793239 32.2469 0.519036 32.1324 0.316863 31.9287C0.114691 31.7249 0.0011144 31.4486 0.0011144 31.1604C-0.00551251 31.0137 0.0174683 30.8671 0.06867 30.7295C0.119872 30.592 0.198229 30.4663 0.299002 30.3601C0.399776 30.254 0.520875 30.1695 0.654969 30.1118C0.789063 30.0542 0.933364 30.0245 1.07915 30.0247H8.42945C8.72836 30.0247 9.01503 30.1443 9.2264 30.3573C9.43776 30.5703 9.55649 30.8592 9.55649 31.1604C9.55664 31.3074 9.52722 31.4528 9.47 31.5879C9.41278 31.7231 9.32896 31.8451 9.22361 31.9467C9.11826 32.0482 8.99357 32.1272 8.85706 32.1788C8.72056 32.2304 8.57509 32.2535 8.42945 32.2469H1.07915Z" fill="#45526C"/>
<path id="Vector_23" d="M23.5709 32.1976C23.2803 32.1979 23.0008 32.0851 22.7908 31.8826C22.5808 31.6802 22.4565 31.4038 22.4438 31.1112C22.4437 30.9643 22.4731 30.8189 22.5303 30.6837C22.5876 30.5486 22.6714 30.4266 22.7767 30.325C22.8821 30.2235 23.0068 30.1445 23.1433 30.0929C23.2798 30.0413 23.4253 30.0181 23.5709 30.0248H35.3804C35.5262 30.0247 35.6705 30.0543 35.8046 30.112C35.9387 30.1696 36.0597 30.2541 36.1605 30.3603C36.2613 30.4664 36.3397 30.5921 36.3909 30.7297C36.4421 30.8672 36.465 31.0138 36.4584 31.1606C36.4584 31.4487 36.3448 31.7251 36.1427 31.9288C35.9405 32.1326 35.6663 32.247 35.3804 32.247L23.5709 32.1976Z" fill="#45526C"/>
<path id="Vector_24" d="M15.7797 32.1975C15.4938 32.1975 15.2196 32.083 15.0174 31.8793C14.8152 31.6755 14.7017 31.3992 14.7017 31.1111C14.7017 30.8229 14.8152 30.5466 15.0174 30.3429C15.2196 30.1391 15.4938 30.0247 15.7797 30.0247H23.375C23.6609 30.0247 23.9351 30.1391 24.1373 30.3429C24.3395 30.5466 24.4531 30.8229 24.4531 31.1111C24.4531 31.3992 24.3395 31.6755 24.1373 31.8793C23.9351 32.083 23.6609 32.1975 23.375 32.1975H15.7797Z" fill="#45526C"/>
<path id="Vector_25" d="M19.7979 38.8147C19.512 38.8147 19.2378 38.7003 19.0356 38.4965C18.8335 38.2928 18.7199 38.0165 18.7199 37.7283C18.7132 37.5816 18.7362 37.4349 18.7874 37.2974C18.8386 37.1598 18.917 37.0341 19.0178 36.928C19.1185 36.8218 19.2396 36.7373 19.3737 36.6797C19.5078 36.622 19.6521 36.5924 19.7979 36.5925H39.0557C39.3416 36.5925 39.6158 36.707 39.818 36.9107C40.0201 37.1145 40.1337 37.3908 40.1337 37.6789C40.1337 37.9671 40.0201 38.2434 39.818 38.4471C39.6158 38.6509 39.3416 38.7653 39.0557 38.7653L19.7979 38.8147Z" fill="#45526C"/>
<path id="Vector_26" d="M4.70519 38.8147C4.55955 38.8213 4.41407 38.7982 4.27757 38.7466C4.14107 38.695 4.01636 38.616 3.91101 38.5145C3.80565 38.4129 3.72183 38.2909 3.66462 38.1557C3.6074 38.0206 3.57797 37.8752 3.57813 37.7283C3.57813 37.4401 3.69171 37.1638 3.89388 36.9601C4.09606 36.7563 4.37026 36.6418 4.65617 36.6418H12.2515C12.5374 36.6418 12.8116 36.7563 13.0138 36.9601C13.2159 37.1638 13.3295 37.4401 13.3295 37.7283C13.3295 38.0164 13.2159 38.2927 13.0138 38.4965C12.8116 38.7002 12.5374 38.8147 12.2515 38.8147H4.70519Z" fill="#45526C"/>
<path id="Vector_27" d="M12.2514 38.8147C11.9655 38.8147 11.6913 38.7002 11.4891 38.4965C11.2869 38.2927 11.1733 38.0164 11.1733 37.7283C11.1733 37.4401 11.2869 37.1638 11.4891 36.9601C11.6913 36.7563 11.9655 36.6418 12.2514 36.6418H19.7977C19.9435 36.6417 20.0878 36.6713 20.2219 36.729C20.356 36.7867 20.4771 36.8711 20.5778 36.9773C20.6786 37.0835 20.757 37.2091 20.8082 37.3467C20.8594 37.4843 20.8823 37.6309 20.8757 37.7776C20.8757 38.0658 20.7621 38.3421 20.56 38.5458C20.3578 38.7496 20.0836 38.8641 19.7977 38.8641L12.2514 38.8147Z" fill="#45526C"/>
<path id="Vector_28" d="M8.47856 45.4322C8.19265 45.4322 7.91844 45.3177 7.71627 45.114C7.5141 44.9102 7.40053 44.6339 7.40053 44.3458C7.3939 44.199 7.41688 44.0524 7.46808 43.9148C7.51929 43.7773 7.59764 43.6516 7.69842 43.5454C7.79919 43.4392 7.92029 43.3548 8.05438 43.2971C8.18848 43.2394 8.33277 43.2098 8.47856 43.21H16.0249C16.3108 43.21 16.585 43.3244 16.7872 43.5282C16.9893 43.7319 17.1029 44.0082 17.1029 44.2964C17.1096 44.4431 17.0866 44.5897 17.0354 44.7273C16.9842 44.8649 16.9058 44.9905 16.805 45.0967C16.7043 45.2029 16.5832 45.2873 16.4491 45.345C16.315 45.4027 16.1707 45.4323 16.0249 45.4322H8.47856Z" fill="#45526C"/>
<path id="Vector_29" d="M16.0249 45.4322C15.8792 45.4323 15.7348 45.4027 15.6008 45.345C15.4667 45.2873 15.3456 45.2029 15.2448 45.0967C15.144 44.9905 15.0657 44.8649 15.0145 44.7273C14.9633 44.5897 14.9403 44.4431 14.9469 44.2964C14.9469 44.0082 15.0605 43.7319 15.2627 43.5282C15.4648 43.3244 15.739 43.21 16.0249 43.21H42.829C43.1149 43.21 43.3891 43.3244 43.5913 43.5282C43.7935 43.7319 43.9071 44.0082 43.9071 44.2964C43.9137 44.4431 43.8907 44.5897 43.8395 44.7273C43.7883 44.8649 43.7099 44.9905 43.6091 45.0967C43.5084 45.2029 43.3873 45.2873 43.2532 45.345C43.1191 45.4027 42.9748 45.4323 42.829 45.4322H16.0249Z" fill="#45526C"/>
<path id="Vector_30" d="M12.2514 52C11.9655 52 11.6913 51.8855 11.4891 51.6818C11.2869 51.478 11.1733 51.2017 11.1733 50.9136C11.1733 50.6254 11.2869 50.3491 11.4891 50.1453C11.6913 49.9416 11.9655 49.8271 12.2514 49.8271H46.5527C46.8387 49.8271 47.1129 49.9416 47.315 50.1453C47.5172 50.3491 47.6308 50.6254 47.6308 50.9136C47.6308 51.2017 47.5172 51.478 47.315 51.6818C47.1129 51.8855 46.8387 52 46.5527 52H12.2514Z" fill="#45526C"/>
<path id="Vector_31" d="M57.9215 32.1483C57.7317 32.1531 57.5442 32.1049 57.3799 32.0091C57.2156 31.9132 57.0808 31.7734 56.9905 31.6051L39.7418 1.63004C39.6117 1.37839 39.5798 1.08678 39.6523 0.812595C39.7249 0.538415 39.8966 0.301535 40.1338 0.14858C40.3883 0.00265856 40.6892 -0.0377045 40.9727 0.0360336C41.2563 0.109772 41.5002 0.291821 41.6529 0.543638L58.8525 30.4693C58.9973 30.7258 59.0374 31.029 58.9642 31.3147C58.891 31.6005 58.7104 31.8463 58.4605 32.0001C58.2989 32.1012 58.1116 32.1527 57.9215 32.1483Z" fill="#45526C"/>
<path id="Vector_32" d="M50.3752 32.1482C50.1854 32.153 49.998 32.1048 49.8337 32.0089C49.6694 31.913 49.5346 31.7732 49.4442 31.6049L35.9687 8.24713C35.8263 7.99815 35.7876 7.70247 35.8611 7.42482C35.9346 7.14717 36.1142 6.91016 36.3607 6.76567C36.485 6.68673 36.624 6.63423 36.7691 6.61139C36.9143 6.58855 37.0626 6.59585 37.2048 6.63285C37.3471 6.66985 37.4803 6.73576 37.5964 6.82653C37.7124 6.91731 37.8089 7.03103 37.8797 7.16072L51.3063 30.5185C51.3837 30.6399 51.4352 30.7763 51.4573 30.9188C51.4795 31.0614 51.4719 31.2071 51.435 31.3465C51.3981 31.486 51.3327 31.6161 51.243 31.7286C51.1534 31.8412 51.0414 31.9336 50.9143 32C50.7498 32.0942 50.5644 32.1451 50.3752 32.1482Z" fill="#45526C"/>
<path id="Vector_33" d="M54.1484 38.7655C53.9606 38.7603 53.777 38.7079 53.6144 38.6131C53.4518 38.5182 53.3153 38.3839 53.2174 38.2223L49.4442 31.6051C49.3668 31.4837 49.3153 31.3473 49.2932 31.2048C49.271 31.0622 49.2786 30.9165 49.3155 30.7771C49.3524 30.6376 49.4178 30.5075 49.5074 30.395C49.5971 30.2824 49.7091 30.19 49.8362 30.1236C50.0833 29.9801 50.3767 29.9412 50.6522 30.0152C50.9277 30.0892 51.1629 30.2703 51.3063 30.5186L54.9814 37.0865C55.0598 37.2118 55.1119 37.3518 55.1345 37.4981C55.1572 37.6444 55.1499 37.7938 55.1132 37.9372C55.0765 38.0805 55.0111 38.2148 54.921 38.3318C54.831 38.4488 54.7181 38.5459 54.5894 38.6174C54.4563 38.7017 54.3051 38.7525 54.1484 38.7655Z" fill="#45526C"/>
<path id="Vector_34" d="M42.829 32.1978C42.6329 32.201 42.4393 32.1526 42.2674 32.0574C42.0956 31.9621 41.9513 31.8233 41.849 31.6546L32.0486 14.8646C31.9155 14.6056 31.882 14.3062 31.9543 14.0237C32.0266 13.7413 32.1998 13.4956 32.4406 13.3338C32.6977 13.1997 32.9948 13.1659 33.2751 13.2388C33.5553 13.3117 33.7991 13.4862 33.9597 13.7289L43.7601 30.5188C43.8931 30.7779 43.9267 31.0773 43.8544 31.3597C43.7821 31.6422 43.6089 31.8878 43.3681 32.0497L42.829 32.1978Z" fill="#45526C"/>
<path id="Vector_35" d="M46.6021 38.7655C46.4123 38.7703 46.2248 38.7221 46.0605 38.6263C45.8962 38.5304 45.7614 38.3906 45.671 38.2223L41.8489 31.6545C41.7158 31.3954 41.6823 31.096 41.7546 30.8135C41.8269 30.5311 42.0001 30.2854 42.2409 30.1236C42.498 29.9895 42.7951 29.9557 43.0754 30.0286C43.3556 30.1015 43.5994 30.2759 43.76 30.5186L47.5331 37.0865C47.6779 37.343 47.718 37.6462 47.6448 37.9319C47.5716 38.2177 47.391 38.4635 47.1411 38.6173C46.9795 38.7184 46.7922 38.7699 46.6021 38.7655Z" fill="#45526C"/>
<path id="Vector_36" d="M50.3751 45.3334C50.1872 45.3282 50.0037 45.2758 49.8411 45.181C49.6785 45.0861 49.542 44.9518 49.444 44.7902L45.6709 38.2224C45.5925 38.0971 45.5405 37.957 45.5178 37.8107C45.4951 37.6644 45.5024 37.515 45.5391 37.3717C45.5758 37.2283 45.6412 37.094 45.7313 36.9771C45.8214 36.8601 45.9342 36.7629 46.0629 36.6915C46.3126 36.5604 46.602 36.5282 46.874 36.6013C47.1461 36.6745 47.3812 36.8476 47.5329 37.0866L51.3061 43.7038C51.3835 43.8252 51.435 43.9615 51.4571 44.1041C51.4793 44.2467 51.4717 44.3923 51.4348 44.5318C51.3979 44.6712 51.3325 44.8014 51.2429 44.9139C51.1532 45.0264 51.0412 45.1188 50.9141 45.1853C50.7525 45.2863 50.5652 45.3378 50.3751 45.3334Z" fill="#45526C"/>
<path id="Vector_37" d="M46.6021 51.9506C46.4143 51.9454 46.2307 51.893 46.0681 51.7981C45.9055 51.7033 45.769 51.5689 45.6711 51.4074L41.8979 44.8395C41.7531 44.583 41.7131 44.2798 41.7862 43.9941C41.8594 43.7083 42.0401 43.4625 42.2899 43.3087C42.537 43.1652 42.8304 43.1262 43.1059 43.2003C43.3814 43.2743 43.6166 43.4553 43.76 43.7037L47.5822 50.321C47.7123 50.5726 47.7442 50.8642 47.6716 51.1384C47.5991 51.4126 47.4273 51.6495 47.1901 51.8024C47.0082 51.897 46.8069 51.9477 46.6021 51.9506Z" fill="#45526C"/>
<path id="Vector_38" d="M35.3806 32.1976C35.1928 32.1924 35.0092 32.14 34.8466 32.0452C34.684 31.9503 34.5475 31.816 34.4496 31.6544L28.5693 21.4323C28.5008 21.306 28.4578 21.1673 28.4429 21.0242C28.428 20.8811 28.4414 20.7364 28.4825 20.5986C28.5235 20.4608 28.5913 20.3325 28.6819 20.2213C28.7725 20.1101 28.8842 20.0182 29.0103 19.9508C29.2601 19.8197 29.5494 19.7875 29.8215 19.8606C30.0936 19.9337 30.3286 20.1068 30.4804 20.3458L36.3116 30.5186C36.39 30.6438 36.4421 30.7839 36.4647 30.9302C36.4874 31.0765 36.4801 31.2259 36.4434 31.3693C36.4067 31.5126 36.3413 31.6469 36.2512 31.7639C36.1612 31.8808 36.0483 31.978 35.9196 32.0494C35.758 32.1505 35.5707 32.202 35.3806 32.1976Z" fill="#45526C"/>
<path id="Vector_39" d="M42.8288 45.3825C42.639 45.3874 42.4515 45.3392 42.2872 45.2433C42.1229 45.1474 41.9881 45.0076 41.8978 44.8393L38.0756 38.2221C37.9332 37.9731 37.8946 37.6774 37.968 37.3998C38.0415 37.1221 38.2212 36.8851 38.4676 36.7406C38.7221 36.5947 39.023 36.5543 39.3066 36.6281C39.5901 36.7018 39.834 36.8839 39.9867 37.1357L43.7598 43.7035C43.9046 43.96 43.9447 44.2632 43.8715 44.549C43.7983 44.8347 43.6177 45.0805 43.3678 45.2344C43.2062 45.3354 43.0189 45.3869 42.8288 45.3825Z" fill="#45526C"/>
<path id="Vector_40" d="M39.0557 38.7655C38.8604 38.7641 38.6686 38.7137 38.4975 38.6188C38.3264 38.524 38.1814 38.3877 38.0756 38.2223L34.3025 31.6545C34.1694 31.3954 34.1359 31.096 34.2082 30.8135C34.2805 30.5311 34.4537 30.2854 34.6945 30.1236C34.9416 29.9801 35.235 29.9412 35.5105 30.0152C35.786 30.0892 36.0212 30.2703 36.1646 30.5186L39.9867 37.1359C40.1168 37.3875 40.1487 37.6792 40.0762 37.9533C40.0036 38.2275 39.8319 38.4644 39.5947 38.6174L39.0557 38.7655Z" fill="#45526C"/>
</g>
</svg>
