<svg width="54" height="52" viewBox="0 0 54 52" fill="none" xmlns="http://www.w3.org/2000/svg">
<g id="Group 26">
<path id="Vector" d="M27.228 32.1407C27.0614 32.1449 26.8968 32.103 26.7526 32.0197C26.6083 31.9364 26.49 31.8148 26.4106 31.6686C26.2796 31.4508 26.2377 31.191 26.2938 30.9432C26.3499 30.6954 26.4996 30.4787 26.7118 30.3382L35.3155 25.1027C35.5338 24.9719 35.7943 24.9302 36.0426 24.9862C36.291 25.0421 36.5082 25.1914 36.6491 25.4031C36.7701 25.6233 36.8063 25.8801 36.7508 26.1251C36.6954 26.3701 36.5521 26.5865 36.3479 26.7334L27.7442 31.969C27.5939 32.0778 27.4137 32.1377 27.228 32.1407Z" fill="#45526C"/>
<path id="Vector_2" d="M27.2281 38.7493C27.0498 38.7257 26.8819 38.6518 26.7441 38.5364C26.6063 38.421 26.5044 38.2688 26.4502 38.0977C26.396 37.9265 26.3918 37.7435 26.4382 37.5701C26.4846 37.3967 26.5795 37.24 26.7119 37.1185L41.0371 28.5356C41.2605 28.4088 41.5247 28.3737 41.7736 28.4378C42.0225 28.5019 42.2367 28.6601 42.3707 28.8789C42.4849 29.0976 42.5129 29.3511 42.4492 29.5893C42.3855 29.8276 42.2347 30.0335 42.0265 30.1664L27.7013 38.7493C27.5467 38.7934 27.3828 38.7934 27.2281 38.7493Z" fill="#45526C"/>
<path id="Vector_3" d="M27.2282 45.3581C27.0169 45.3672 26.8085 45.3053 26.6365 45.1824C26.4645 45.0595 26.3387 44.8826 26.2793 44.6801C26.2199 44.4775 26.2302 44.2609 26.3086 44.0649C26.3871 43.8688 26.5291 43.7047 26.712 43.5986L46.8017 31.7113C47.0186 31.5866 47.2762 31.5527 47.518 31.6171C47.7599 31.6814 47.9664 31.8387 48.0922 32.0546C48.1602 32.1601 48.2054 32.2786 48.2248 32.4025C48.2443 32.5264 48.2376 32.653 48.2052 32.7742C48.1728 32.8953 48.1154 33.0084 48.0367 33.1062C47.958 33.204 47.8597 33.2843 47.7481 33.342L27.7014 45.2294C27.557 45.3112 27.3943 45.3555 27.2282 45.3581Z" fill="#45526C"/>
<path id="Vector_4" d="M27.2282 51.9667C27.0169 51.9758 26.8085 51.9139 26.6365 51.791C26.4645 51.6681 26.3387 51.4913 26.2793 51.2887C26.2199 51.0861 26.2302 50.8695 26.3086 50.6735C26.3871 50.4774 26.5291 50.3133 26.712 50.2072L52.5232 35.0155C52.74 34.8908 52.9976 34.8569 53.2395 34.9213C53.4814 34.9856 53.6878 35.143 53.8137 35.3588C53.9408 35.5817 53.976 35.8452 53.9118 36.0935C53.8475 36.3418 53.6889 36.5555 53.4696 36.6892L27.6584 51.838C27.5268 51.9132 27.3796 51.9573 27.2282 51.9667Z" fill="#45526C"/>
<path id="Vector_5" d="M53.0392 36.8182C52.8845 36.8623 52.7206 36.8623 52.566 36.8182L26.4107 21.6264C26.2025 21.4935 26.0517 21.2876 25.988 21.0494C25.9243 20.8111 25.9523 20.5577 26.0665 20.339C26.125 20.2227 26.2068 20.1197 26.307 20.0365C26.4072 19.9533 26.5236 19.8916 26.6488 19.8553C26.774 19.819 26.9054 19.809 27.0346 19.8257C27.1639 19.8425 27.2884 19.8858 27.4001 19.9528L53.5124 34.9729C53.6825 35.0872 53.8128 35.2515 53.8852 35.4429C53.9577 35.6344 53.9686 35.8436 53.9167 36.0415C53.8647 36.2395 53.7523 36.4164 53.5951 36.5479C53.4379 36.6793 53.2436 36.7588 53.0392 36.7753V36.8182Z" fill="#45526C"/>
<path id="Vector_6" d="M53.0392 30.1661C52.8845 30.2103 52.7206 30.2103 52.566 30.1661L26.4107 15.146C26.2025 15.0131 26.0517 14.8073 25.988 14.569C25.9243 14.3307 25.9523 14.0773 26.0665 13.8586C26.1935 13.6325 26.4045 13.4652 26.654 13.3929C26.9035 13.3206 27.1715 13.3492 27.4001 13.4724L53.5124 28.5354C53.6917 28.6398 53.8316 28.8001 53.9106 28.9917C53.9895 29.1832 54.0032 29.3954 53.9494 29.5954C53.8956 29.7955 53.7773 29.9723 53.6129 30.0987C53.4484 30.2251 53.2468 30.294 53.0392 30.2949V30.1661Z" fill="#45526C"/>
<path id="Vector_7" d="M53.0391 23.5575C52.8844 23.6016 52.7205 23.6016 52.5659 23.5575L26.4106 8.53739C26.278 8.47864 26.1594 8.3927 26.0624 8.28515C25.9654 8.17761 25.8921 8.05087 25.8475 7.91321C25.8029 7.77556 25.7878 7.63006 25.8033 7.4862C25.8188 7.34235 25.8644 7.20336 25.9374 7.0783C26.0706 6.87059 26.277 6.72016 26.5158 6.65662C26.7547 6.59308 27.0087 6.62103 27.2279 6.73497L53.3832 21.798C53.5996 21.9236 53.7573 22.1295 53.8218 22.3708C53.8863 22.6121 53.8523 22.8691 53.7274 23.0854C53.6541 23.2094 53.5545 23.3159 53.4356 23.3975C53.3167 23.479 53.1814 23.5336 53.0391 23.5575Z" fill="#45526C"/>
<path id="Vector_8" d="M53.039 16.9486C52.8843 16.9927 52.7204 16.9927 52.5657 16.9486L26.4105 1.75682C26.1941 1.63126 26.0364 1.42529 25.9719 1.184C25.9074 0.942708 25.9414 0.685759 26.0663 0.469386C26.1922 0.253531 26.3987 0.0962252 26.6405 0.0318816C26.8824 -0.0324621 27.14 0.0014058 27.3569 0.126078L53.5122 15.1891C53.6238 15.2468 53.7221 15.3271 53.8008 15.4249C53.8795 15.5227 53.9369 15.6358 53.9693 15.757C54.0017 15.8782 54.0084 16.0048 53.9889 16.1287C53.9695 16.2526 53.9243 16.371 53.8563 16.4765C53.7703 16.6169 53.6505 16.7337 53.5077 16.8161C53.365 16.8986 53.2038 16.9441 53.039 16.9486Z" fill="#45526C"/>
<path id="Vector_9" d="M18.3234 26.9907C18.1625 26.9909 18.0039 26.9519 17.8615 26.8771C17.719 26.8023 17.597 26.694 17.5061 26.5615C17.385 26.3413 17.3488 26.0845 17.4043 25.8395C17.4597 25.5945 17.603 25.3782 17.8072 25.2312L26.4109 19.9956C26.6226 19.8672 26.8764 19.8267 27.1177 19.8829C27.359 19.939 27.5686 20.0874 27.7015 20.296C27.8325 20.5138 27.8743 20.7736 27.8183 21.0214C27.7622 21.2692 27.6125 21.4859 27.4003 21.6263L18.7966 26.8619C18.6547 26.9497 18.4903 26.9945 18.3234 26.9907Z" fill="#45526C"/>
<path id="Vector_10" d="M12.559 23.6863C12.3949 23.6781 12.2352 23.631 12.093 23.5489C11.9509 23.4668 11.8304 23.3521 11.7416 23.2142C11.6166 22.9978 11.5827 22.7409 11.6472 22.4996C11.7117 22.2583 11.8694 22.0523 12.0858 21.9268L26.4109 13.3439C26.6302 13.2299 26.8842 13.202 27.1231 13.2655C27.3619 13.329 27.5683 13.4795 27.7015 13.6872C27.7712 13.79 27.8188 13.9061 27.8413 14.0282C27.8639 14.1502 27.861 14.2756 27.8327 14.3965C27.8044 14.5174 27.7514 14.6311 27.677 14.7306C27.6027 14.8301 27.5085 14.9131 27.4004 14.9746L13.0322 23.5575L12.559 23.6863Z" fill="#45526C"/>
<path id="Vector_11" d="M6.83713 20.382C6.62574 20.3911 6.41741 20.3292 6.2454 20.2063C6.0734 20.0834 5.94764 19.9065 5.8882 19.704C5.82877 19.5014 5.8391 19.2848 5.91753 19.0888C5.99596 18.8927 6.13798 18.7286 6.3209 18.6225L26.4106 6.73517C26.5163 6.66735 26.6351 6.6223 26.7593 6.6029C26.8835 6.58349 27.0104 6.59016 27.1319 6.62247C27.2533 6.65479 27.3667 6.71203 27.4647 6.79055C27.5627 6.86908 27.6433 6.96715 27.7011 7.07849C27.7708 7.18134 27.8184 7.29742 27.841 7.41948C27.8635 7.54153 27.8606 7.66693 27.8323 7.7878C27.8041 7.90867 27.7511 8.02241 27.6767 8.12189C27.6023 8.22137 27.5081 8.30446 27.4 8.36593L7.31033 20.2533C7.16846 20.3411 7.00404 20.3858 6.83713 20.382Z" fill="#45526C"/>
<path id="Vector_12" d="M1.07279 17.0773C0.886429 17.0961 0.698556 17.0617 0.53102 16.9781C0.363484 16.8945 0.223168 16.7653 0.126386 16.6053C0.00141176 16.3889 -0.0325416 16.1319 0.0319579 15.8906C0.0964575 15.6494 0.254156 15.4434 0.470535 15.3178L26.2817 0.126078C26.4986 0.0014058 26.7561 -0.0324621 26.998 0.0318815C27.2399 0.0962252 27.4464 0.25353 27.5722 0.469386C27.6419 0.57223 27.6895 0.688314 27.7121 0.810369C27.7346 0.932425 27.7317 1.05782 27.7034 1.17869C27.6752 1.29956 27.6222 1.4133 27.5478 1.51278C27.4734 1.61227 27.3792 1.69535 27.2711 1.75682L1.45996 16.9486C1.34312 17.0219 1.21033 17.066 1.07279 17.0773Z" fill="#45526C"/>
<path id="Vector_13" d="M27.2283 32.1402H26.712L0.599768 16.9484C0.369035 16.8369 0.190744 16.6403 0.10247 16.4001C0.0141956 16.1599 0.0228337 15.895 0.126564 15.661C0.184421 15.5497 0.264936 15.4516 0.362959 15.3731C0.460983 15.2945 0.574356 15.2373 0.695827 15.205C0.817299 15.1727 0.944194 15.166 1.0684 15.1854C1.1926 15.2048 1.31137 15.2499 1.41712 15.3177L27.5724 30.3378C27.7806 30.4707 27.9314 30.6766 27.9951 30.9149C28.0588 31.1531 28.0308 31.4066 27.9165 31.6252C27.8508 31.7592 27.7541 31.8758 27.6345 31.9653C27.5148 32.0548 27.3756 32.1147 27.2283 32.1402Z" fill="#45526C"/>
<path id="Vector_14" d="M27.2284 38.7494H26.7122L0.599929 23.5576C0.38355 23.4321 0.225852 23.2261 0.161352 22.9848C0.0968529 22.7435 0.130806 22.4866 0.255781 22.2702C0.38165 22.0543 0.588118 21.897 0.829992 21.8327C1.07186 21.7683 1.32944 21.8022 1.54634 21.9269L27.7016 37.1186C27.913 37.2593 28.0651 37.4727 28.1286 37.7182C28.192 37.9637 28.1626 38.2239 28.0458 38.449C27.9415 38.558 27.8137 38.6417 27.672 38.6938C27.5303 38.7458 27.3786 38.7649 27.2284 38.7494Z" fill="#45526C"/>
<path id="Vector_15" d="M27.2284 45.358C27.0738 45.4021 26.9098 45.4021 26.7552 45.358L0.599929 30.1663C0.38355 30.0407 0.225852 29.8347 0.161352 29.5934C0.0968529 29.3521 0.130806 29.0952 0.255781 28.8788C0.38165 28.663 0.588118 28.5056 0.829992 28.4413C1.07186 28.377 1.32944 28.4108 1.54634 28.5355L27.7016 43.5985C27.918 43.7241 28.0757 43.93 28.1402 44.1713C28.2047 44.4126 28.1707 44.6696 28.0458 44.886C27.9598 45.0264 27.8399 45.1431 27.6972 45.2255C27.5544 45.308 27.3933 45.3535 27.2284 45.358Z" fill="#45526C"/>
<path id="Vector_16" d="M27.2275 51.9669C27.0729 52.011 26.9089 52.011 26.7543 51.9669L0.599008 36.8181C0.365137 36.6981 0.185952 36.4937 0.0980146 36.2465C0.0100777 35.9993 0.0200169 35.7279 0.125804 35.4877C0.259048 35.28 0.465403 35.1296 0.704251 35.066C0.943098 35.0025 1.19714 35.0305 1.41636 35.1444L27.5716 50.2074C27.751 50.3118 27.8909 50.4722 27.9698 50.6637C28.0488 50.8553 28.0624 51.0674 28.0086 51.2675C27.9548 51.4675 27.8366 51.6443 27.6721 51.7707C27.5076 51.8971 27.3061 51.9661 27.0984 51.9669H27.2275Z" fill="#45526C"/>
</g>
</svg>
