<svg width="43" height="56" viewBox="0 0 43 56" fill="none" xmlns="http://www.w3.org/2000/svg">
<g id="Group 27">
<path id="Vector" d="M17.9453 39.0481C17.8074 39.0504 17.6707 39.0221 17.545 38.9653C17.4194 38.9086 17.3081 38.8247 17.219 38.7198C17.1299 38.6148 17.0653 38.4915 17.0299 38.3587C16.9944 38.2259 16.9891 38.0869 17.0142 37.9517C17.0085 37.8264 17.0283 37.7012 17.0725 37.5837C17.1168 37.4663 17.1844 37.3589 17.2715 37.2683C17.3585 37.1776 17.4631 37.1055 17.5789 37.0563C17.6947 37.007 17.8194 36.9817 17.9453 36.9818C19.5728 36.9818 21.1337 36.3376 22.2845 35.191C23.4354 34.0443 24.0819 32.489 24.0819 30.8674C24.0818 30.7419 24.1072 30.6177 24.1566 30.5024C24.206 30.387 24.2784 30.2827 24.3694 30.196C24.4604 30.1093 24.5681 30.0419 24.686 29.9978C24.8039 29.9538 24.9295 29.934 25.0553 29.9397C25.3022 29.9397 25.5391 30.0374 25.7137 30.2114C25.8883 30.3854 25.9864 30.6213 25.9864 30.8674C26.0089 31.9337 25.8176 32.9937 25.4236 33.9853C25.0296 34.9769 24.4408 35.8802 23.6919 36.6421C22.943 37.404 22.0489 38.0093 21.0621 38.4225C20.0753 38.8356 19.0156 39.0483 17.9453 39.0481Z" fill="#45526C"/>
<path id="Vector_2" d="M17.9452 44.6987C17.8229 44.6987 17.7019 44.6747 17.5889 44.628C17.4759 44.5814 17.3733 44.5131 17.2868 44.4269C17.2004 44.3408 17.1318 44.2385 17.085 44.126C17.0382 44.0134 17.0141 43.8928 17.0141 43.771C17.0084 43.6456 17.0283 43.5204 17.0725 43.403C17.1167 43.2855 17.1844 43.1782 17.2714 43.0875C17.3585 42.9969 17.463 42.9247 17.5789 42.8755C17.6947 42.8263 17.8193 42.8009 17.9452 42.8011C21.0768 42.8011 24.0802 41.5615 26.2946 39.3552C28.5089 37.1488 29.753 34.1563 29.753 31.036C29.7492 30.8943 29.7782 30.7535 29.8376 30.6246C29.897 30.4957 29.9852 30.3821 30.0956 30.2925C30.2059 30.2029 30.3354 30.1397 30.4741 30.1078C30.6128 30.0759 30.757 30.0761 30.8957 30.1083C31.1426 30.1083 31.3794 30.2061 31.554 30.3801C31.7286 30.554 31.8267 30.79 31.8267 31.036C31.8269 32.8445 31.4667 34.635 30.767 36.3038C30.0673 37.9725 29.0421 39.4862 27.7508 40.7571C26.4596 42.028 24.9279 43.0309 23.2447 43.7075C21.5614 44.3841 19.7601 44.721 17.9452 44.6987Z" fill="#45526C"/>
<path id="Vector_3" d="M17.9452 50.3493C17.6983 50.3493 17.4615 50.2516 17.2868 50.0776C17.1122 49.9036 17.0141 49.6676 17.0141 49.4216C17.0084 49.2963 17.0283 49.1711 17.0725 49.0536C17.1167 48.9361 17.1844 48.8288 17.2714 48.7382C17.3585 48.6475 17.463 48.5754 17.5789 48.5261C17.6947 48.4769 17.8193 48.4516 17.9452 48.4517C22.5809 48.4517 27.0267 46.6169 30.3047 43.3508C33.5826 40.0847 35.4241 35.655 35.4241 31.0361C35.424 30.9106 35.4494 30.7864 35.4988 30.6711C35.5482 30.5557 35.6206 30.4515 35.7116 30.3647C35.8026 30.278 35.9103 30.2106 36.0282 30.1665C36.1461 30.1225 36.2717 30.1027 36.3975 30.1084C36.6444 30.1084 36.8813 30.2061 37.0559 30.3801C37.2305 30.5541 37.3286 30.79 37.3286 31.0361C37.3174 36.1548 35.2716 41.0608 31.639 44.6803C28.0063 48.2998 23.0826 50.3382 17.9452 50.3493Z" fill="#45526C"/>
<path id="Vector_4" d="M17.9452 55.9999C17.8193 56 17.6947 55.9747 17.5789 55.9255C17.463 55.8762 17.3585 55.8041 17.2714 55.7134C17.1844 55.6228 17.1167 55.5155 17.0725 55.398C17.0283 55.2805 17.0084 55.1553 17.0141 55.03C17.0141 54.9082 17.0382 54.7875 17.085 54.675C17.1318 54.5624 17.2004 54.4602 17.2868 54.374C17.3733 54.2879 17.4759 54.2195 17.5889 54.1729C17.7019 54.1263 17.8229 54.1023 17.9452 54.1023C24.085 54.1023 29.9733 51.6721 34.3147 47.3464C38.6562 43.0206 41.0952 37.1536 41.0952 31.0361C41.0952 30.79 41.1933 30.5541 41.3679 30.3801C41.5425 30.2061 41.7793 30.1084 42.0263 30.1084C42.1521 30.1027 42.2777 30.1225 42.3956 30.1665C42.5135 30.2106 42.6212 30.278 42.7122 30.3647C42.8032 30.4515 42.8756 30.5557 42.925 30.6711C42.9744 30.7864 42.9998 30.9106 42.9997 31.0361C42.9885 37.6535 40.3452 43.9966 35.649 48.6758C30.9528 53.355 24.5866 55.9887 17.9452 55.9999Z" fill="#45526C"/>
<path id="Vector_5" d="M25.0556 31.9638C24.8086 31.9638 24.5718 31.866 24.3972 31.6921C24.2226 31.5181 24.1245 31.2821 24.1245 31.0361V0.927709C24.1245 0.681665 24.2226 0.445699 24.3972 0.27172C24.5718 0.0977404 24.8086 0 25.0556 0C25.3025 0 25.5393 0.0977404 25.714 0.27172C25.8886 0.445699 25.9867 0.681665 25.9867 0.927709V31.0361C25.9867 31.2821 25.8886 31.5181 25.714 31.6921C25.5393 31.866 25.3025 31.9638 25.0556 31.9638Z" fill="#45526C"/>
<path id="Vector_6" d="M30.8959 31.9638C30.649 31.9638 30.4122 31.8661 30.2376 31.6921C30.0629 31.5181 29.9648 31.2821 29.9648 31.0361V6.57833C29.9648 6.33228 30.0629 6.09632 30.2376 5.92234C30.4122 5.74836 30.649 5.65062 30.8959 5.65062C31.0217 5.64491 31.1474 5.66469 31.2653 5.70875C31.3831 5.75282 31.4908 5.82025 31.5818 5.90697C31.6728 5.99369 31.7452 6.0979 31.7946 6.21329C31.844 6.32868 31.8695 6.45287 31.8693 6.57833V31.0361C31.8695 31.1616 31.844 31.2857 31.7946 31.4011C31.7452 31.5165 31.6728 31.6207 31.5818 31.7075C31.4908 31.7942 31.3831 31.8616 31.2653 31.9057C31.1474 31.9497 31.0217 31.9695 30.8959 31.9638Z" fill="#45526C"/>
<path id="Vector_7" d="M36.3548 31.9636C36.1079 31.9636 35.871 31.8658 35.6964 31.6918C35.5218 31.5179 35.4237 31.2819 35.4237 31.0358V12.1865C35.4237 11.9405 35.5218 11.7045 35.6964 11.5305C35.871 11.3565 36.1079 11.2588 36.3548 11.2588C36.6017 11.2588 36.8386 11.3565 37.0132 11.5305C37.1878 11.7045 37.2859 11.9405 37.2859 12.1865V31.0358C37.2859 31.2819 37.1878 31.5179 37.0132 31.6918C36.8386 31.8658 36.6017 31.9636 36.3548 31.9636Z" fill="#45526C"/>
<path id="Vector_8" d="M41.9833 31.9642C41.7364 31.9642 41.4995 31.8665 41.3249 31.6925C41.1503 31.5186 41.0522 31.2826 41.0522 31.0365V17.8378C41.0465 17.7124 41.0664 17.5873 41.1106 17.4698C41.1548 17.3523 41.2225 17.245 41.3095 17.1544C41.3965 17.0637 41.5011 16.9916 41.617 16.9423C41.7328 16.8931 41.8574 16.8678 41.9833 16.8679C42.1091 16.8622 42.2347 16.882 42.3526 16.926C42.4705 16.9701 42.5782 17.0375 42.6692 17.1243C42.7602 17.211 42.8326 17.3152 42.882 17.4306C42.9314 17.546 42.9568 17.6702 42.9567 17.7956V31.0365C42.9568 31.162 42.9314 31.2862 42.882 31.4016C42.8326 31.517 42.7602 31.6212 42.6692 31.7079C42.5782 31.7946 42.4705 31.8621 42.3526 31.9061C42.2347 31.9502 42.1091 31.97 41.9833 31.9642Z" fill="#45526C"/>
<path id="Vector_9" d="M17.9452 25.8918C17.8193 25.8919 17.6947 25.8666 17.5789 25.8173C17.463 25.7681 17.3585 25.696 17.2714 25.6053C17.1844 25.5146 17.1167 25.4073 17.0725 25.2899C17.0283 25.1724 17.0084 25.0472 17.0141 24.9219C17.0086 23.8662 17.2124 22.8198 17.614 21.8429C18.0156 20.8659 18.6071 19.9777 19.3543 19.2292C20.1016 18.4808 20.9899 17.8868 21.9682 17.4816C22.9466 17.0763 23.9957 16.8677 25.0553 16.8677C25.3022 16.8677 25.539 16.9654 25.7136 17.1394C25.8882 17.3134 25.9863 17.5493 25.9863 17.7954C25.9863 18.0414 25.8882 18.2774 25.7136 18.4514C25.539 18.6254 25.3022 18.7231 25.0553 18.7231C23.4277 18.7231 21.8668 19.3673 20.716 20.514C19.5652 21.6607 18.9186 23.2159 18.9186 24.8375C18.9304 24.9718 18.9139 25.1071 18.8703 25.2346C18.8267 25.3622 18.7568 25.4794 18.6653 25.5785C18.5737 25.6777 18.4623 25.7568 18.3384 25.8107C18.2144 25.8647 18.0805 25.8923 17.9452 25.8918Z" fill="#45526C"/>
<path id="Vector_10" d="M12.2743 25.8918C12.1484 25.892 12.0238 25.8666 11.908 25.8174C11.7922 25.7682 11.6876 25.696 11.6005 25.6054C11.5135 25.5147 11.4458 25.4074 11.4016 25.2899C11.3574 25.1725 11.3375 25.0473 11.3432 24.922C11.3544 21.3057 12.8041 17.8414 15.3744 15.2883C17.9447 12.7352 21.4261 11.3015 25.0555 11.3015C25.3024 11.3015 25.5392 11.3993 25.7138 11.5732C25.8885 11.7472 25.9866 11.9832 25.9866 12.2292C25.9866 12.4753 25.8885 12.7112 25.7138 12.8852C25.5392 13.0592 25.3024 13.1569 25.0555 13.1569C21.9273 13.168 18.9304 14.4111 16.7184 16.6151C14.5065 18.8191 13.2589 21.8051 13.2477 24.922C13.2477 25.0493 13.2225 25.1754 13.1736 25.2931C13.1247 25.4108 13.053 25.5177 12.9626 25.6078C12.8722 25.6978 12.7649 25.7693 12.6468 25.818C12.5287 25.8668 12.4021 25.8918 12.2743 25.8918Z" fill="#45526C"/>
<path id="Vector_11" d="M6.60315 25.8915C6.46389 25.9175 6.32052 25.9114 6.18396 25.8738C6.0474 25.8362 5.92126 25.768 5.81514 25.6745C5.70903 25.581 5.62573 25.4645 5.5716 25.3341C5.51748 25.2036 5.49394 25.0626 5.5028 24.9217C5.514 19.8068 7.56112 14.9052 11.195 11.2924C14.8289 7.67961 19.7527 5.65062 24.8861 5.65063C25.1331 5.65063 25.3699 5.74837 25.5445 5.92235C25.7191 6.09633 25.8172 6.3323 25.8172 6.57834C25.8172 6.82439 25.7191 7.06035 25.5445 7.23433C25.3699 7.40831 25.1331 7.50605 24.8861 7.50605C20.2539 7.51719 15.8146 9.35562 12.5391 12.6193C9.26356 15.8829 7.41845 20.3062 7.40728 24.9217C7.4108 25.1522 7.33179 25.3764 7.18443 25.5541C7.03708 25.7319 6.831 25.8515 6.60315 25.8915Z" fill="#45526C"/>
<path id="Vector_12" d="M0.932029 25.8915C0.806114 25.8916 0.681493 25.8663 0.565679 25.8171C0.449866 25.7678 0.345276 25.6957 0.258241 25.605C0.171205 25.5144 0.10353 25.4071 0.0593085 25.2896C0.0150869 25.1721 -0.00476101 25.0469 0.000962475 24.9216C0.0121745 18.3081 2.65677 11.9693 7.35418 7.29681C12.0516 2.62431 18.4179 -9.43534e-06 25.0554 0C25.3024 0 25.5392 0.0977404 25.7138 0.271719C25.8884 0.445699 25.9865 0.681665 25.9865 0.927708C25.9865 1.17375 25.8884 1.40972 25.7138 1.5837C25.5392 1.75768 25.3024 1.85542 25.0554 1.85542C18.9191 1.86656 13.0373 4.30032 8.69827 8.62366C4.35923 12.947 1.91663 18.8075 1.90544 24.9216C1.90544 25.1788 1.80288 25.4255 1.62033 25.6074C1.43778 25.7893 1.19019 25.8915 0.932029 25.8915Z" fill="#45526C"/>
<path id="Vector_13" d="M17.9452 56.0001C17.8193 56.0002 17.6947 55.9749 17.5789 55.9256C17.463 55.8764 17.3585 55.8043 17.2714 55.7136C17.1844 55.6229 17.1167 55.5156 17.0725 55.3982C17.0283 55.2807 17.0084 55.1555 17.0141 55.0302V24.9218C17.0141 24.6758 17.1122 24.4398 17.2868 24.2658C17.4615 24.0919 17.6983 23.9941 17.9452 23.9941C18.071 23.9884 18.1966 24.0082 18.3145 24.0523C18.4324 24.0963 18.5401 24.1638 18.6311 24.2505C18.7221 24.3372 18.7945 24.4414 18.8439 24.5568C18.8933 24.6722 18.9187 24.7964 18.9186 24.9218V55.0302C18.9186 55.2874 18.8161 55.5341 18.6335 55.716C18.451 55.8979 18.2034 56.0001 17.9452 56.0001Z" fill="#45526C"/>
<path id="Vector_14" d="M12.3167 50.3495C12.0698 50.3495 11.8329 50.2517 11.6583 50.0778C11.4837 49.9038 11.3856 49.6678 11.3856 49.4218V24.9218C11.3855 24.7964 11.4109 24.6722 11.4603 24.5568C11.5097 24.4414 11.5821 24.3372 11.6731 24.2505C11.7641 24.1638 11.8718 24.0963 11.9897 24.0523C12.1076 24.0082 12.2332 23.9884 12.359 23.9941C12.6059 23.9941 12.8428 24.0919 13.0174 24.2658C13.192 24.4398 13.2901 24.6758 13.2901 24.9218V49.4218C13.2902 49.5472 13.2648 49.6714 13.2154 49.7868C13.166 49.9022 13.0936 50.0064 13.0026 50.0931C12.9116 50.1798 12.8039 50.2473 12.686 50.2913C12.5681 50.3354 12.4425 50.3552 12.3167 50.3495Z" fill="#45526C"/>
<path id="Vector_15" d="M6.64543 44.6989C6.52316 44.6989 6.40209 44.6749 6.28913 44.6283C6.17616 44.5817 6.07352 44.5133 5.98707 44.4272C5.90061 44.341 5.83202 44.2388 5.78523 44.1262C5.73844 44.0137 5.71436 43.893 5.71436 43.7712V24.9218C5.71436 24.6758 5.81246 24.4398 5.98707 24.2659C6.16168 24.0919 6.3985 23.9941 6.64543 23.9941C6.89237 23.9941 7.12919 24.0919 7.3038 24.2659C7.47841 24.4398 7.57651 24.6758 7.57651 24.9218V43.7712C7.57651 43.893 7.55243 44.0137 7.50564 44.1262C7.45885 44.2388 7.39026 44.341 7.3038 44.4272C7.21734 44.5133 7.1147 44.5817 7.00174 44.6283C6.88878 44.6749 6.7677 44.6989 6.64543 44.6989Z" fill="#45526C"/>
<path id="Vector_16" d="M1.01637 39.0905C0.890581 39.0962 0.76494 39.0764 0.647046 39.0323C0.529152 38.9883 0.421461 38.9208 0.33047 38.8341C0.239478 38.7474 0.167085 38.6432 0.11767 38.5278C0.0682545 38.4124 0.0428391 38.2882 0.0429692 38.1628V24.9218C0.0428391 24.7964 0.0682545 24.6722 0.11767 24.5568C0.167085 24.4414 0.239478 24.3372 0.33047 24.2505C0.421461 24.1638 0.529152 24.0963 0.647046 24.0523C0.76494 24.0082 0.890581 23.9884 1.01637 23.9941C1.2633 23.9941 1.50013 24.0919 1.67474 24.2658C1.84935 24.4398 1.94745 24.6758 1.94745 24.9218V38.1628C1.94745 38.4088 1.84935 38.6448 1.67474 38.8188C1.50013 38.9927 1.2633 39.0905 1.01637 39.0905Z" fill="#45526C"/>
</g>
</svg>
