<svg width="412" height="653" viewBox="0 0 412 653" fill="none" xmlns="http://www.w3.org/2000/svg">
<g id="Group 123">
<g id="Group 22">
<path id="Rectangle 3" d="M0 206C0 92.2293 92.2293 0 206 0C319.771 0 412 92.2293 412 206V630H0V206Z" fill="#FCF9F4"/>
</g>
<g id="Group 49">
<g id="Group 65">
<path id="Vector" fill-rule="evenodd" clip-rule="evenodd" d="M230.207 69.274C231.238 88.2342 224.065 134.415 231.716 147.69C230.352 152.117 230.509 149.535 228.199 154.21L229.8 156.883C232.976 163.586 231.48 196.173 231.513 206.305C231.513 215.381 231.257 218.1 241.133 216.62C244.256 208.848 241.264 207.107 244.696 202.132H249.801C250.05 202.902 249.079 203.56 251.868 203.814C252.72 204.463 253.766 204.812 254.84 204.806L267.308 204.721C268.595 204.707 269.825 204.188 270.728 203.277C271.632 202.365 272.136 201.136 272.131 199.857C272.118 198.577 271.596 197.354 270.679 196.456C269.762 195.558 268.523 195.058 267.235 195.065L259.092 195.123V192.241L267.222 192.183C268.509 192.171 269.739 191.653 270.642 190.743C271.546 189.833 272.05 188.604 272.045 187.325C272.033 186.047 271.512 184.825 270.596 183.927C269.68 183.029 268.443 182.528 267.157 182.533L259.033 182.592L259.073 179.286L267.13 179.234C268.418 179.22 269.647 178.701 270.551 177.79C271.454 176.879 271.959 175.649 271.953 174.37C271.941 173.09 271.419 171.868 270.502 170.969C269.584 170.071 268.346 169.571 267.058 169.578L254.591 169.663C253.871 169.669 253.161 169.835 252.513 170.147C251.865 170.459 251.295 170.911 250.844 171.469C249.04 171.919 249.86 172.734 249.67 173.425H244.761C239.709 167.355 243.16 161.363 245.352 154.099C242.766 148.453 241.71 153.108 242.399 146.927C242.74 143.889 244.145 142.748 244.433 137.245C245.345 120.084 244.243 86.0304 242.012 69.3C261.868 67.1615 277.117 53.9259 276.999 38.004C276.875 20.7194 258.626 6.84483 236.277 7.00131C213.928 7.15779 195.876 21.2932 196.001 38.5777C196.112 54.141 210.922 66.9463 230.207 69.2218V69.274ZM263.325 37.9779C263.397 47.2885 257.091 54.8778 249.243 54.93C243.429 54.9756 238.396 50.8615 236.159 44.9413C234.006 50.8941 229.039 55.0734 223.219 55.119C215.345 55.1712 208.96 47.6732 208.894 38.3691C208.829 29.065 215.128 21.4627 222.976 21.4171C228.797 21.3779 233.823 25.4856 236.06 31.4123C238.219 25.4595 243.186 21.2736 249 21.2345C256.874 21.1758 263.259 28.6739 263.325 37.9844V37.9779Z" fill="#773532"/>
<path id="Vector_2" d="M298.342 653C298.342 652.713 295.37 623.683 302.931 598.495C310.377 573.669 324.613 511.258 321.058 476.785C317.774 445.276 308.21 424.587 302.471 412.223L301.133 409.341C295.23 396.419 264.337 345.822 254.337 345.822H254.255C253.816 345.823 253.384 345.942 253.006 346.165C252.628 346.389 252.317 346.71 252.104 347.095C247.876 354.007 256.964 382.807 263.319 396.189C267.678 405.368 271.529 409.588 273.852 412.108C274.761 412.973 275.529 413.976 276.126 415.08C276.947 417.05 281.347 451.573 280.288 453.666L278.096 452.566C278.441 450.341 274.813 418.405 273.877 416.024C273.364 415.193 272.749 414.429 272.046 413.75C269.64 411.123 265.626 406.739 261.102 397.224C255.815 386.083 244.74 354.426 250.011 345.798C250.435 345.063 251.042 344.45 251.772 344.018C252.503 343.587 253.333 343.351 254.181 343.335H254.304C266.709 343.335 298.695 398.045 303.383 408.291L304.704 411.156C310.517 423.659 320.229 444.578 323.513 476.498C327.101 511.34 312.791 574.194 305.287 599.168C297.899 623.872 300.764 652.425 300.797 652.713L298.342 653Z" fill="#773532"/>
<path id="Vector_3" d="M283.129 455.932C282.743 455.932 273.589 455.234 262.522 442.107C256.661 435.153 252.227 427.863 247.531 420.145C243.487 413.243 239.069 406.567 234.297 400.146C223.157 385.64 213.19 341.619 212.837 321.669C212.517 304.051 205.111 227.1 192.173 215.41C191.775 214.99 191.294 214.658 190.762 214.434C190.229 214.209 189.656 214.097 189.078 214.104C177.297 215.081 182.321 281.121 185.022 316.604C185.769 326.39 186.41 334.837 186.664 340.781C187.674 363.49 196.442 390.992 200.621 404.21C201.606 407.297 202.172 409.136 202.484 410.22C202.985 409.85 203.568 409.399 204.126 408.98C207.41 406.402 209.939 404.571 211.696 404.571V407.034C210.637 407.034 207.254 409.662 205.629 410.926C202.837 413.093 202 413.75 200.998 413.126L200.391 411.632C200.333 411.262 199.397 408.348 198.322 404.957C194.077 391.641 185.244 363.908 184.209 340.921C183.955 335.018 183.314 326.587 182.567 316.825C178.405 262.017 175.753 212.758 188.84 211.658C189.75 211.616 190.659 211.766 191.508 212.099C192.356 212.431 193.125 212.938 193.765 213.587C208.215 226.649 214.963 306.358 215.234 321.628C215.579 340.806 225.513 384.745 236.185 398.66C241.017 405.147 245.487 411.895 249.576 418.873C254.222 426.508 258.606 433.716 264.353 440.522C274.665 452.755 283.154 453.477 283.236 453.485L283.129 455.932Z" fill="#773532"/>
<path id="Vector_4" d="M167.215 429.956C166.599 428.093 152.076 384.129 153.299 361.298C154.522 338.466 178.167 247.239 179.176 243.389L181.549 244.004C181.303 244.949 156.92 338.959 155.746 361.404C154.572 383.85 169.39 428.725 169.546 429.16L167.215 429.956Z" fill="#773532"/>
<path id="Vector_5" d="M200.465 412.305C199.75 410.466 182.904 367.275 182.403 361.462C181.902 355.649 183.552 331.587 183.618 330.56L186.081 330.725C186.081 330.979 184.439 355.723 184.866 361.265C185.235 365.797 197.895 399.03 202.747 411.41L200.465 412.305Z" fill="#773532"/>
<path id="Vector_6" d="M142.429 458.313L141.896 456.269C141.19 453.576 124.729 390.073 129.655 361.158C134.581 332.243 170.433 274.709 171.96 272.271L174.037 273.576C173.668 274.167 136.913 333.155 132.077 361.569C127.726 387.101 140.919 442.246 143.743 453.584L148.3 449.118L150.015 450.867L142.429 458.313Z" fill="#773532"/>
<path id="Vector_7" d="M199.865 652.91C199.865 652.639 198.921 625.423 187.813 590.146C183.208 575.549 171.115 558.21 158.315 539.844C140.098 513.729 119.45 484.124 116.536 456.104C111.659 409.21 129.54 361.429 129.721 360.953L132.011 361.823C131.831 362.299 114.163 409.555 118.974 455.85C121.823 483.262 142.274 512.596 160.327 538.473C173.241 556.986 185.441 574.482 190.145 589.432C201.368 625.062 202.303 652.581 202.32 652.86L199.865 652.91Z" fill="#773532"/>
<path id="Vector_8" d="M250.651 336.668C250.651 336.668 259.107 370.329 270.773 369.508C282.439 368.687 257.917 337.35 250.651 336.668Z" fill="#773532"/>
<path id="Vector_9" d="M181.541 219.375C181.541 219.375 179.078 243.183 187.715 244.308C196.351 245.433 192.575 199.154 187.37 199.154C182.165 199.154 181.541 219.375 181.541 219.375Z" fill="#773532"/>
<path id="Vector_10" fill-rule="evenodd" clip-rule="evenodd" d="M337.782 78.6674L335.269 62.7815L332.757 78.6674L316.026 83.2896L332.757 87.9199L335.269 110.899L337.782 87.9199L354.521 83.2896L337.782 78.6674Z" fill="#773532"/>
<path id="Vector_11" fill-rule="evenodd" clip-rule="evenodd" d="M314.499 17.9477L312.701 6.59351L310.903 17.9477L298.949 21.2562L310.903 24.5565L312.701 40.9761L314.499 24.5565L326.452 21.2562L314.499 17.9477Z" fill="#773532"/>
<path id="Vector_12" fill-rule="evenodd" clip-rule="evenodd" d="M73.5494 278.059L71.7514 266.713L69.9535 278.059L58 281.367L69.9535 284.676L71.7514 301.095L73.5494 284.676L85.511 281.367L73.5494 278.059Z" fill="#773532"/>
</g>
</g>
</g>
</svg>
