<svg width="412" height="653" viewBox="0 0 412 653" fill="none" xmlns="http://www.w3.org/2000/svg">
<g id="Group 125">
<g id="Group 22">
<path id="Rectangle 3" d="M0 206C0 92.2293 92.2293 0 206 0C319.771 0 412 92.2293 412 206V630H0V206Z" fill="#FCF9F4"/>
</g>
<g id="Group 50">
<g id="Frame" clip-path="url(#clip0_48_2768)">
<path id="Vector" d="M99.7382 649.885C87.7043 632.812 94.4193 607.674 102.973 591.438C114.612 569.326 133.815 551.694 151.854 534.504C168.019 519.13 184.871 504.455 201.898 489.965C232.332 464.082 264.162 439.921 280.968 403.086C294.2 374.13 301.02 342.789 317.395 315.137L314.043 314.555C316.976 331.5 310.971 353.077 304.535 368.242C297.552 384.803 286.903 400.514 274.939 414.096C273.67 415.539 276.254 416.423 277.43 416.016C312.065 402.609 337.809 353.17 316.383 319.175C315.568 317.883 312.158 318.221 313.194 319.862C333.945 352.728 308.736 400.945 275.253 413.898L277.732 415.818C290.721 401.073 302.289 383.965 309.295 365.704C315.009 350.854 320.305 330.79 317.5 314.496C317.279 313.205 314.788 312.844 314.148 313.914C297.04 342.812 290.395 375.771 275.905 405.751C256.365 446.182 216.667 472.81 183.195 501.871C163.981 518.56 145.197 535.773 127.542 554.01C113.669 568.348 100.716 584.025 94.0819 602.89C89.0891 617.135 86.9478 636.967 96.5027 650.525C97.3756 651.771 100.797 651.41 99.6916 649.839L99.7382 649.885Z" fill="#773532"/>
<path id="Vector_2" d="M341.603 408.16C319.816 407.613 299.566 413.444 282.562 426.13C270.289 435.215 257.363 443.384 243.889 450.57C243.074 451 239.466 452.094 238.966 453.223C238.826 453.526 239.14 453.887 239.327 454.108C240.968 456.063 242.073 455.271 244.284 455.493C248.777 455.923 255.085 453.712 259.414 452.886C269.097 451 278.896 449.255 288.311 446.403C308.445 440.293 329.72 428.853 342.371 412.117C342.825 411.524 340.427 409.545 339.822 409.79C324.591 416.454 309.404 423.201 294.259 430.028C278.163 437.325 262.358 446.136 245.378 451.326C244.715 451.524 246.938 453.945 247.788 453.654C264.779 448.475 280.665 439.688 296.726 432.368C311.856 425.517 327.04 418.77 342.278 412.129L339.729 409.801C329.255 423.686 312.379 433.846 296.237 440.363C282.271 445.996 267.142 448.591 252.385 451.315C249.824 451.792 244.168 451.699 241.91 453.049C242.329 452.793 234.462 456.354 241.91 455.132C244.18 454.759 246.717 452.653 248.614 451.64C261.352 444.699 273.6 436.895 285.274 428.283C302.196 415.725 322.435 409.906 344.023 410.453C344.419 410.453 342.627 408.125 341.614 408.125L341.603 408.16Z" fill="#773532"/>
<path id="Vector_3" d="M234.008 462.057C241.98 443.517 248.148 423.069 249.3 402.853C250.278 385.827 246.973 362.003 233.775 348.794C233.449 348.456 230.284 348.224 230.284 348.701C235.8 386.827 237.011 423.767 228.91 461.405L232.402 461.498C222.265 447.532 222.16 425.874 222.742 409.987C223.452 390.761 225.803 370.08 232.891 352.064C232.96 351.89 229.678 351.133 229.399 351.878C221.741 371.325 219.367 393.903 219.111 414.724C218.936 429.4 219.751 448.777 229.027 461.568C229.318 461.975 232.355 462.22 232.518 461.649C240.665 424.023 239.419 387.072 233.903 348.945L230.411 348.852C244.377 362.818 247.205 388.492 245.541 406.438C243.772 425.408 238.046 444.448 230.54 461.929C230.54 462.068 233.728 462.871 234.031 462.115L234.008 462.057Z" fill="#773532"/>
<path id="Vector_4" d="M215.131 478.909C249.149 461.207 289.743 469.447 325.449 479.351L325.332 476.534C287.985 478.501 250.592 477.151 213.199 478.164C212.035 478.164 211.29 479.328 212.163 480.27C222.637 491.769 244.517 493.154 258.715 493.154C279.932 493.154 301.649 488.138 321.236 480.806C323.133 480.096 320.735 477.652 319.106 478.269C302.358 484.587 284.801 488.506 266.955 489.907C252.768 490.943 237.068 490.337 223.743 484.495C221.136 483.331 218.715 481.19 216.155 480.212C214.013 479.386 213.42 480.689 215.747 481.039C223.72 482.202 233.03 480.713 241.072 480.666C253.141 480.666 265.21 480.969 277.278 480.934C293.479 480.934 309.691 480.305 325.856 479.456C327.928 479.351 327.404 477.128 325.74 476.639C289.243 466.514 247.764 458.321 212.966 476.418C211.139 477.361 213.536 479.77 215.096 478.955L215.131 478.909Z" fill="#773532"/>
<path id="Vector_5" d="M167.112 369.649C153.553 412.268 180.717 451.966 217.214 475.557C218.308 476.267 219.542 475.941 219.111 474.521C208.637 436.266 193.914 394.497 165.261 364.866C164.342 363.912 162.456 363.865 163.027 365.588C175.002 401.829 189.248 440.933 213.804 471.425C215.154 473.101 216.923 471.6 215.585 469.947C196.125 445.798 183.94 415.795 173.396 387.316C171.394 381.928 170.103 374.945 167.205 369.975C166.146 368.16 162.91 363.411 164.796 367.648C166.902 372.454 173.35 377.889 176.364 382.114C182.773 391.098 188.381 400.627 193.123 410.593C201.712 428.609 208.404 447.59 214.141 466.572C214.932 468.828 215.604 471.124 216.155 473.45C216.434 474.963 219.03 473.578 217.552 472.845C213.257 470.739 209.044 466.665 205.471 463.674C177.062 439.921 158.371 407.625 169.823 371.628C170.266 370.243 167.589 368.009 167.112 369.51V369.649Z" fill="#773532"/>
<path id="Vector_6" d="M180.996 507.446C176.341 468.039 166.227 426.374 139.89 394.474C139.736 394.256 139.521 394.088 139.274 393.989C139.026 393.89 138.754 393.865 138.492 393.916C138.231 393.968 137.989 394.094 137.797 394.28C137.605 394.465 137.471 394.703 137.411 394.963C128.194 433.718 130.999 493.026 177.109 510.681C177.357 510.777 177.628 510.796 177.887 510.737C178.146 510.678 178.382 510.543 178.564 510.35C178.747 510.156 178.867 509.913 178.911 509.651C178.954 509.388 178.918 509.119 178.808 508.877C166.006 475.778 151.749 442.272 143.277 407.904C142.788 405.914 139.867 406.287 140.39 408.428C147.92 438.978 160.362 468.702 171.604 498.17C172.419 500.288 173.024 503.617 174.42 505.514C177.842 510.169 173.466 506.771 177.446 507.55C173.757 506.829 169.742 503.535 166.809 501.405C149.189 488.603 139.227 468.574 136.911 447.87C135.27 433.089 136.375 418.041 138.947 403.505C139.212 401.489 139.6 399.491 140.111 397.523C140.879 394.986 139.518 398.07 138.098 396.72C141.589 400.014 144.324 405.065 146.838 408.987C165.832 438.466 173.897 473.183 177.947 507.096C178.168 508.982 181.264 509.622 180.996 507.411V507.446Z" fill="#773532"/>
<path id="Vector_7" d="M163.143 522.959C184.197 514.207 206.844 512.811 229.574 515.616C243.012 517.276 256.473 518.696 269.958 519.875C273.229 520.166 276.848 520.899 280.118 520.725C282.644 520.608 282.772 519.701 279.734 519.805C271.948 520.073 263.871 522.459 256.132 523.425C242.833 525.184 229.404 525.752 216.004 525.124C198.22 524.208 180.426 523.669 162.619 523.506C161.921 523.506 160.571 523.844 160.291 524.565C154.717 538.147 196.777 538.985 200.618 539.078C220.985 539.544 245.89 537.449 263.255 526.137C264.709 525.194 261.311 525.38 260.589 525.857C242.597 537.577 215.724 538.589 194.776 537.181C186.629 536.634 171.569 536.553 165.575 529.628C162.712 526.334 164.644 523.809 162.084 525.101C163.958 524.193 168.729 525.182 170.894 525.217C178.179 525.345 185.465 525.508 192.75 525.752C204.726 526.148 216.76 527.382 228.736 527.149C246.647 526.788 264.663 524.146 282.143 520.783C282.632 520.69 285.239 519.386 283.435 519.247C242.317 516.139 201.06 505.665 161.921 521.947C159.745 522.843 161.816 523.541 163.201 522.959H163.143Z" fill="#773532"/>
<path id="Vector_8" d="M142.508 543.722C151.202 531.385 145.429 514.149 138.784 502.127C128.112 482.819 116.672 463.872 106.069 444.529C105.778 444.006 103.532 442.481 103.148 443.552C90.346 479.165 131.394 505.292 135.979 537.367C136.468 540.789 138.307 541.953 134.49 543.885C123.201 549.599 108.56 515.569 106.314 509.808C100.029 493.631 98.3182 472.426 107.012 456.866C107.64 455.702 104.603 453.968 103.986 455.074C93.8491 473.218 97.4686 497.53 106.058 515.767C109.468 523.029 122.514 551.123 136.2 546.41C146.407 542.919 135.409 525.88 132.046 520.119C119.721 499.008 96.9098 471.006 106.162 445.344L103.241 444.367C111.691 459.729 120.303 475.002 129.078 490.186C137.516 504.757 150.958 525.659 139.482 541.918C138.772 542.942 141.81 544.781 142.508 543.722Z" fill="#773532"/>
<path id="Vector_9" d="M105.546 586.446C110.655 573.166 105.813 559.969 98.6557 548.226C90.7883 535.331 82.5835 522.622 74.2738 509.983C73.8316 509.32 71.1083 509.552 70.8406 510.274C66.453 522.308 75.7403 535.878 81.0124 546.352C87.4017 559.026 93.4769 571.828 99.6335 584.607C100.425 586.283 102.985 584.968 101.519 585.2C98.7139 585.654 93.6165 581.93 91.766 580.545C83.0141 573.748 78.0331 562.832 74.7046 552.87C70.9571 541.639 68.3733 527.65 72.5281 516.267C72.6678 515.907 69.3742 515.476 69.0367 516.419C61.9723 535.726 73.6919 586.353 101.624 586.388C101.705 586.388 104.044 586.294 103.8 585.782C98.2447 574.012 92.5807 562.3 86.8082 550.647C80.9891 539.008 69.5838 523.46 74.4369 510.157L71.0034 510.448C77.9863 521.109 84.8761 531.847 91.6728 542.663C100.052 556.128 108.316 570.595 102.24 586.353C101.961 587.074 105.348 587.237 105.639 586.48L105.546 586.446Z" fill="#773532"/>
<path id="Vector_10" d="M94.8616 612.329C99.4238 594.325 115.81 587.574 133.268 584.863C149.688 582.289 165.915 578.599 181.834 573.818L180.228 571.235C164.609 581.709 148.258 590.007 129.963 595.372C121.246 597.932 98.6091 599.667 95.1526 609.338C95.0985 609.676 95.1659 610.023 95.3427 610.317C95.5194 610.611 95.7942 610.833 96.1186 610.944C127.542 621.162 162.317 601.11 178.447 575.936C179.611 574.191 176.282 573.097 175.282 574.668C167.251 587.202 154.402 597.944 140.786 604.345C129.736 609.631 117.38 611.565 105.243 609.908C103.951 609.722 99.6449 609.582 98.6207 608.57C97.4569 608.081 97.5268 608.442 98.6906 609.629C99.8692 607.952 101.642 606.787 103.649 606.37C117.684 599.748 134.408 598.363 148.816 592.323C160.526 587.203 171.715 580.967 182.229 573.702C183.882 572.538 182.369 570.594 180.624 571.118C172.954 573.446 165.168 575.389 157.347 577.205C143.381 580.429 127.507 580.592 114.286 585.992C103.276 590.507 94.2448 600.504 91.3702 611.84C90.8814 613.772 94.3496 614.168 94.8616 612.387V612.329Z" fill="#773532"/>
<path id="Vector_11" d="M126.995 559.119C143.137 542.197 166.215 543.675 188.235 546.736C200.036 548.388 211.814 550.227 223.58 552.148C226.652 552.66 230.318 553.94 233.414 553.788C235.8 553.684 235.742 553.079 233.472 552.625C226.99 551.286 218.564 552.741 212 552.753C201.409 552.753 190.807 552.753 180.216 552.613C161.455 552.311 143.66 553.87 125.773 559.293C124.539 559.666 125.633 560.457 126.343 560.678C157.417 570.396 190.225 564.531 220.729 557.059C222.544 556.617 219.413 555.348 218.401 555.581C199.78 560.143 179.913 564.612 160.571 564.403C155.752 564.403 132.639 564.461 128.659 559.747C128.484 559.549 127.856 560.748 131.068 559.887C134.28 559.026 137.574 558.199 140.867 557.478C171.208 550.809 204.761 554.545 235.951 554.219C237.93 554.219 237.313 552.927 235.718 552.66C213.466 548.819 190.807 544.397 168.31 542.697C152.017 541.534 134.874 546.422 123.666 558.176C122.933 558.944 126.192 559.922 126.948 559.131L126.995 559.119Z" fill="#773532"/>
<path id="Vector_12" d="M192.809 290.51C192.687 287.185 193.027 283.86 193.821 280.629L196.37 281.444C196.37 281.444 195.02 285.913 195.66 295.596C196.649 310.318 226.908 346.885 241.258 350.703C244.913 351.68 246.007 350.028 246.368 349.539C250.173 343.836 252.652 330.58 255.282 316.545C258.425 299.786 261.672 282.445 267.758 274.042C279.187 258.284 302.021 244.563 313.24 251.161C322.551 256.643 315.091 275.392 303.755 303.754C301.113 310.376 298.378 317.208 295.608 324.575C286.891 347.49 286.717 354.997 286.508 364.506C286.419 373.506 285.417 382.475 283.517 391.273C277.104 422.79 255.713 467.55 236.847 507.05L234.159 512.671C215.084 552.625 226.292 651.503 226.408 652.492L223.754 652.806C223.277 648.71 212.349 552.171 231.75 511.519L234.438 505.898C253.234 466.537 274.555 421.928 280.898 390.68C282.771 382.028 283.754 373.207 283.831 364.354C284.052 354.59 284.226 346.897 293.141 323.539C295.946 316.149 298.693 309.294 301.288 302.672C311.762 276.568 319.269 257.702 311.902 253.361C302.289 247.717 280.421 261.042 269.935 275.474C264.197 283.388 261.008 300.426 257.924 316.894C255.236 331.209 252.71 344.732 248.614 350.877C247.45 352.6 245.122 354.369 240.595 353.205C224.79 348.992 194.112 311.913 193.018 295.701C192.867 293.827 192.809 292.069 192.809 290.51Z" fill="#773532"/>
<path id="Vector_13" d="M82.4091 369.836C82.3795 367.585 82.5942 365.337 83.0492 363.132C89.4269 334.397 90.102 314.869 90.1137 314.682V314.31L90.2998 314.007C90.4743 313.74 107.117 287.24 114.205 275.322C121.409 263.218 156.346 243.201 162.34 244.644C163.12 244.83 164.831 245.121 167.205 245.528C180.007 247.74 210.173 252.919 219.728 262.462C223.464 266.186 223.289 269.445 222.463 271.435C219.332 279.302 202.294 283.073 194.287 283.271C184.104 283.527 170.033 280.85 166.355 280.105C164.237 283.376 155.881 296.399 152.867 303.673C149.526 311.819 151.179 330.44 151.202 330.627L148.537 330.871C148.467 330.08 146.803 311.389 150.388 302.66C153.879 294.118 164.191 278.534 164.621 277.882L165.122 277.126L166.018 277.312C166.181 277.312 182.986 280.873 194.252 280.606C202.969 280.396 217.703 276.23 220.007 270.446C220.775 268.549 220.007 266.547 217.866 264.347C208.916 255.409 178.296 250.149 166.774 248.17C164.319 247.74 162.538 247.437 161.735 247.239C158.022 246.343 123.922 264.266 116.532 276.684C109.829 287.926 94.6407 312.145 92.7786 315.09C92.6505 317.929 91.6149 336.841 85.6678 363.679C82.6535 377.226 91.4867 404.192 100.925 432.752C111.597 465.222 122.631 498.798 119.186 519.957C112.773 559.282 93.8493 651.968 93.6514 652.899L91.0328 652.364C91.2307 651.433 110.155 558.805 116.556 519.538C119.907 498.985 108.967 465.746 98.3882 433.59C90.195 408.742 82.4091 385.047 82.4091 369.836Z" fill="#773532"/>
<path id="Vector_14" d="M103.928 292.314C104.149 291.313 109.444 267.874 122.467 257.12C134.42 247.263 186.477 212.802 189.689 212.069L191.016 211.754C191.238 211.685 191.68 211.557 193.798 210.998L194.694 210.765C258.506 193.983 261.579 198.952 262.591 200.582C267.165 207.984 265.21 213.512 254.2 224.196C242.748 235.31 215.876 240.966 213.129 241.525L191.435 252.814L190.213 250.486L212.419 238.976C212.698 238.976 241.084 233.238 252.338 222.31C264.302 210.672 263.336 206.901 260.31 202.013C259.065 200.221 244.017 200.605 195.381 213.384L194.461 213.628C192.436 214.152 192.017 214.28 191.796 214.338C191.297 214.498 190.788 214.622 190.271 214.71C187.432 215.723 137.539 248.193 124.155 259.215C111.842 269.352 106.581 292.686 106.535 292.966L103.928 292.314Z" fill="#773532"/>
<path id="Vector_15" d="M90.9514 311.831C92.4944 303.984 93.567 296.052 94.1636 288.078C95.1528 274.601 110.015 229.479 119.768 221.81C128.95 214.629 215.608 133.721 216.481 132.906L217.121 132.301L217.935 132.661C225.57 136.083 230.225 140.808 231.773 146.627C235.044 158.882 224.441 173.395 215.945 185.033C214.63 186.837 213.385 188.525 212.256 190.154C201.049 206.18 191.191 214.082 190.772 214.408L189.119 212.313C189.212 212.232 199.105 204.295 210.068 188.618C211.232 187 212.466 185.278 213.781 183.462C221.927 172.266 232.134 158.312 229.201 147.314C227.886 142.403 224.104 138.516 217.644 135.455C208.986 143.532 130.358 216.922 121.42 223.905C112.272 231.062 97.7365 275.45 96.7938 288.264C96.1892 296.357 95.097 304.405 93.5234 312.367L90.9514 311.831Z" fill="#773532"/>
<path id="Vector_16" d="M163.259 182.589C166.064 174.594 180.356 134.605 187.152 132.603C189.042 132.096 191.025 132.054 192.934 132.479C194.843 132.905 196.621 133.786 198.116 135.047C201.828 138.131 203.574 142.985 202.992 148.699L200.339 148.443C200.816 143.625 199.419 139.598 196.416 137.107C195.26 136.122 193.883 135.43 192.401 135.092C190.92 134.753 189.379 134.778 187.909 135.164C184.266 136.234 173.792 160.57 165.797 183.474L163.259 182.589Z" fill="#773532"/>
<path id="Vector_17" d="M232.448 264.335C232.448 264.335 196.556 248.985 192.809 252.104C189.061 255.223 193.158 259.447 203.132 263.009C213.105 266.57 233.996 269.456 232.448 264.335Z" fill="#773532"/>
<path id="Vector_18" d="M271.948 195.542C271.948 195.542 227.653 197.009 225.267 203.294C222.882 209.578 234.229 210.567 243.888 209.241C253.548 207.914 277.29 200.896 271.948 195.542Z" fill="#773532"/>
<path id="Vector_19" d="M222.975 123.665C222.975 123.665 192.099 155.088 191.459 157.823C190.819 160.558 196.638 162.408 204.435 158.836C212.233 155.263 232.798 126.33 222.975 123.665Z" fill="#773532"/>
<path id="Vector_20" d="M187.455 121.058C187.455 121.058 169.439 155.74 173.885 157.881C178.331 160.023 182.346 150.898 185.686 142.298C189.026 133.697 193.03 122.117 187.455 121.058Z" fill="#773532"/>
<path id="Vector_21" d="M317.384 261.985C317.384 261.985 325.938 241.618 320.875 238.499C315.813 235.38 297.948 251.662 297.948 251.662C297.948 251.662 304.035 247.938 310.238 250.638C316.441 253.338 317.384 261.985 317.384 261.985Z" fill="#773532"/>
<path id="Vector_22" d="M173.222 300.693C171.735 304.548 169.88 308.251 167.682 311.75C165.457 315.368 162.976 318.821 160.257 322.084C158.744 323.865 157.161 325.692 155.403 327.415C153.646 329.137 151.854 330.906 149.922 332.466L138.691 341.52C135.2 344.441 131.801 347.107 129.031 349.527C123.41 354.287 119.721 357.569 119.721 357.569C122.253 354.31 124.974 351.201 127.868 348.259C130.463 345.617 133.501 342.533 136.945 339.449C140.39 336.364 144.266 333.21 147.967 330.138C149.852 328.625 151.633 326.984 153.344 325.331C155.054 323.679 156.707 322.015 158.255 320.339C161.088 317.3 163.765 314.119 166.274 310.807C168.462 307.863 170.277 305.395 171.418 303.58C172.558 301.764 173.222 300.693 173.222 300.693Z" fill="#773532"/>
</g>
</g>
</g>
<defs>
<clipPath id="clip0_48_2768">
<rect width="277.07" height="531.934" fill="white" transform="translate(67 121)"/>
</clipPath>
</defs>
</svg>
