<svg width="312" height="129" viewBox="0 0 312 129" fill="none" xmlns="http://www.w3.org/2000/svg">
    <g clip-path="url(#clip0_50_1895)">
        <path d="M196.576 109.569H195.003V84.4785H196.576V109.569Z" fill="#42526E"/>
        <path d="M235.539 100.077C236.555 99.4153 238.486 97.8085 238.486 92.6944C238.486 91.6268 238.85 84.5215 231.212 84.5215H226.36V99.8371H224.354V101.278H226.36V109.547H232.592C233.827 109.547 240.198 109.579 240.198 104.513C240.198 102.965 238.941 100.419 235.539 100.077ZM227.927 85.9468H230.629C236.62 85.9468 236.78 91.915 236.78 92.7745C236.78 99.1804 232.897 99.7677 232.148 99.7677H227.927V85.9468ZM233.127 108.122H227.927V101.182H232.795C233.774 101.182 238.326 101.348 238.326 104.524C238.326 108.266 233.127 108.122 233.127 108.122Z" fill="#42526E"/>
        <path d="M104.057 85.92V84.4946H92.3585V99.8102H90.4702V101.252H92.3585V109.521H104.057V108.095H93.9257V101.252H93.9792V101.134H103.774V99.7088H93.9257V85.92H104.057Z" fill="#42526E"/>
        <path d="M260.562 85.9517V84.5264H248.858V99.8419H246.976V101.283H248.858V109.547H260.562V108.122H250.431V101.283H250.485V101.161H260.279V99.7405H250.431V85.9517H260.562Z" fill="#42526E"/>
        <path d="M13.5922 85.92V84.4946H1.8829V99.8102H0V101.252H1.8829V109.521H13.5922V108.095H3.45555V101.252H3.50904V101.134H13.3033V99.7088H3.45555V85.92H13.5922Z" fill="#42526E"/>
        <path d="M80.9487 84.4468V99.709H66.1529V84.5429H64.5803V99.8104H62.783V101.252H64.5803V109.521H66.1529V101.252H66.292V101.134H80.9487V109.521H82.516V84.4468H80.9487Z" fill="#42526E"/>
        <path d="M55.7114 85.9146H49.3834V109.494H47.8161V85.9146H41.488V84.4946H55.7114V85.9146Z" fill="#42526E"/>
        <path d="M218.459 85.9468H212.131V109.547H210.591V85.9468H204.236V84.5215H218.459V85.9468Z" fill="#42526E"/>
        <path d="M281.023 93.1428C281.023 92.1339 281.023 84.5215 273.534 84.5215H269.255V99.8851H267.372V101.326H269.255V109.547H270.822V101.3H270.881H273.09L278.691 109.558H280.258L274.62 101.241C280.75 100.574 281.023 94.0984 281.023 93.1428ZM270.79 99.8851V85.9468H273.395C279.231 85.9468 279.45 92.246 279.45 93.0414C279.45 94.5682 278.98 99.8638 273.566 99.8638H270.774L270.79 99.8851Z" fill="#42526E"/>
        <path d="M159.496 93.1428C159.496 92.1339 159.496 84.5215 152.007 84.5215H147.728V99.8851H145.85V101.326H147.728V109.547H149.3V101.3H149.359H151.568L157.164 109.558H158.704L153.066 101.241C159.239 100.574 159.496 94.0984 159.496 93.1428ZM149.268 99.8851V85.9468H151.868C157.704 85.9468 157.928 92.246 157.928 93.0414C157.928 94.5682 157.458 99.8638 152.044 99.8638H149.252L149.268 99.8851Z" fill="#42526E"/>
        <path d="M124.812 93.1106C124.812 92.1017 124.812 84.4946 117.323 84.4946H113.044V99.8315H111.161V101.273H113.044V109.494H114.611V101.273H114.67H116.879L122.447 109.494H124.015L118.382 101.177C124.539 100.542 124.812 94.0662 124.812 93.1106ZM114.579 99.8315V85.9146H117.184C123.02 85.9146 123.239 92.2138 123.239 93.0092C123.239 94.536 122.768 99.8315 117.355 99.8315H114.563H114.579Z" fill="#42526E"/>
        <path d="M33.3895 97.3118L28.7946 94.8456C28.0671 94.4932 27.4573 94.1783 26.9706 93.8953C26.5765 93.6764 26.2039 93.4208 25.8579 93.132C25.3991 92.7909 25.0269 92.347 24.7714 91.8361C24.5159 91.3252 24.3842 90.7615 24.3869 90.1906C24.3811 89.5485 24.5029 88.9116 24.7453 88.3168C24.9713 87.7468 25.3014 87.2237 25.7189 86.7741C26.1257 86.325 26.6186 85.962 27.1685 85.7064C27.7457 85.45 28.3715 85.3207 29.0032 85.3274C29.9902 85.3039 30.9637 85.5592 31.8115 86.064C32.6487 86.6174 33.3551 87.3461 33.8817 88.1994L35.0585 87.2919C34.4715 86.2384 33.6046 85.3669 32.5532 84.7736C31.5018 84.1802 30.3067 83.8878 29.0995 83.9287C28.266 83.8989 27.4351 84.0393 26.6579 84.3413C25.8806 84.6433 25.1734 85.1006 24.5795 85.685C23.9916 86.2919 23.5338 87.012 23.234 87.8013C22.9341 88.5907 22.7986 89.4327 22.8357 90.276C22.8148 91.1707 23.0382 92.0543 23.482 92.832C23.9259 93.6097 24.5733 94.2522 25.3551 94.6907L29.7789 97.157C30.9054 97.6711 31.9801 98.2914 32.9883 99.0094C33.4962 99.3835 33.9105 99.8696 34.1991 100.43C34.4877 100.99 34.6426 101.609 34.6519 102.239C34.659 103.036 34.5022 103.827 34.1912 104.561C33.8802 105.296 33.4217 105.959 32.8439 106.51C32.2939 107.056 31.6412 107.487 30.9233 107.781C30.2054 108.074 29.4365 108.222 28.6609 108.218C27.3828 108.248 26.138 107.809 25.1625 106.985C24.1354 106.065 23.34 104.916 22.841 103.632L21.5786 104.604C22.1213 106.011 23.0478 107.239 24.2532 108.149C25.5098 109.057 27.0293 109.531 28.5807 109.499C30.5654 109.516 32.4841 108.788 33.9565 107.46C34.6918 106.825 35.2777 106.036 35.6725 105.149C36.0673 104.263 36.2613 103.3 36.2406 102.33C36.2724 101.32 36.0342 100.319 35.5506 99.4311C35.0045 98.5672 34.2647 97.8417 33.3895 97.3118Z" fill="#42526E"/>
        <path d="M177.249 84.1743C175.077 84.1743 172.954 84.8171 171.148 86.0213C169.342 87.2256 167.935 88.9372 167.104 90.9398C166.272 92.9424 166.055 95.146 166.479 97.2719C166.902 99.3979 167.948 101.351 169.484 102.883C171.02 104.416 172.977 105.46 175.107 105.883C177.237 106.306 179.445 106.089 181.452 105.259C183.459 104.43 185.174 103.025 186.38 101.223C187.587 99.4203 188.231 97.3014 188.231 95.1338C188.228 92.2281 187.071 89.4421 185.012 87.3874C182.953 85.3327 180.161 84.1771 177.249 84.1743ZM177.249 104.46C175.397 104.46 173.586 103.912 172.046 102.885C170.505 101.857 169.305 100.398 168.596 98.6896C167.887 96.9816 167.702 95.1021 168.063 93.2889C168.424 91.4757 169.316 89.8102 170.626 88.5029C171.936 87.1957 173.605 86.3054 175.422 85.9447C177.239 85.5841 179.122 85.7692 180.834 86.4767C182.545 87.1841 184.008 88.3822 185.037 89.9194C186.066 91.4565 186.616 93.2638 186.616 95.1125C186.617 97.594 185.632 99.9745 183.875 101.731C182.119 103.488 179.736 104.477 177.249 104.481V104.46Z" fill="#FF9E81"/>
        <path d="M183.401 108.149H171.093V109.66H183.401V108.149Z" fill="#FF9E81"/>
        <path d="M310.502 99.8157C310.444 100.941 310.156 102.043 309.654 103.053C309.153 104.063 308.449 104.96 307.587 105.688C306.56 106.552 305.405 107.253 304.163 107.764C302.979 108.27 301.707 108.536 300.419 108.549C298.955 108.56 297.504 108.265 296.161 107.683C294.818 107.101 293.612 106.245 292.62 105.17C290.529 102.997 289.368 100.096 289.384 97.0825C289.372 95.5976 289.655 94.1251 290.218 92.7505C290.781 91.3759 291.612 90.1265 292.663 89.0751C293.641 87.9917 294.838 87.1264 296.175 86.5359C297.511 85.9453 298.957 85.6428 300.419 85.6479C302.258 85.6224 304.068 86.0986 305.656 87.0252C307.316 88.0455 308.742 89.4044 309.839 91.0129L311.128 90.0146C309.856 88.2557 308.226 86.7841 306.346 85.696C304.563 84.7091 302.554 84.2014 300.515 84.2226C298.835 84.1972 297.168 84.521 295.62 85.1735C294.072 85.8261 292.677 86.793 291.523 88.0128C290.32 89.2105 289.371 90.6381 288.733 92.2103C288.095 93.7824 287.782 95.4667 287.811 97.1626C287.793 98.824 288.108 100.472 288.737 102.011C289.366 103.549 290.297 104.946 291.475 106.12C292.62 107.305 293.995 108.244 295.517 108.879C297.038 109.514 298.674 109.833 300.323 109.814C302.057 109.804 303.771 109.45 305.367 108.773C306.963 108.14 308.395 107.154 309.555 105.891C310.524 104.87 311.225 103.627 311.599 102.271C311.808 101.461 311.949 100.634 312.021 99.7997L310.502 99.8157Z" fill="#42526E"/>
        <path d="M305.169 99.8635L312 99.8154L311.818 101.193H305.169V99.8635Z" fill="#42526E"/>
        <path d="M164.085 69.8408C163.799 69.8003 163.53 69.68 163.309 69.4938C162.587 68.7785 162.652 66.4403 162.502 65.4687C162.422 64.6165 162.084 63.8086 161.534 63.1519C160.904 62.5667 160.1 62.2014 159.244 62.111C157.668 61.877 156.076 61.7681 154.483 61.7853C154.192 61.789 153.902 61.7603 153.617 61.6999C153.343 61.6644 153.079 61.5729 152.842 61.4312C152.605 61.2894 152.4 61.1005 152.239 60.8761C152.079 60.6517 151.966 60.3967 151.909 60.1269C151.851 59.8572 151.85 59.5785 151.905 59.3083C152.06 58.3581 152.654 57.5521 152.563 56.5485C152.396 55.6543 151.944 54.838 151.274 54.2209C151.167 54.1297 151.084 54.014 151.032 53.8839C150.98 53.7538 150.96 53.613 150.974 53.4736C151.071 53.0946 151.622 52.8223 151.809 52.7529C151.874 52.7286 151.93 52.6837 151.967 52.6251C152.005 52.5664 152.022 52.4972 152.017 52.4279C152.011 52.3585 151.983 52.2928 151.937 52.2407C151.891 52.1886 151.829 52.1529 151.761 52.139C151.373 52.0252 151.029 51.7984 150.771 51.4877C150.605 51.2956 150.621 51.2529 150.744 50.9219C150.986 50.3173 151.079 49.664 151.017 49.0161C150.958 48.178 150.354 47.8417 149.824 47.5427C149.447 47.3824 149.127 47.1104 148.91 46.7633C148.15 45.2313 149.519 44.1316 150.365 43.0639C151.502 41.7482 152.315 40.1851 152.74 38.4997C153.087 36.8127 152.825 35.0618 152.97 33.3482C153.756 24.0809 164.588 19.901 172.665 20.5042C179.651 21.0381 185.177 24.5347 187.45 29.8836C190.521 37.1064 186.632 42.5034 182.518 48.2154C181.619 49.3541 180.785 50.5429 180.02 51.776C178.624 54.2903 178.95 57.4293 179.186 60.1945C179.421 62.9597 179.833 65.773 180.314 68.5329C180.342 68.6899 180.336 68.851 180.295 69.0052C180.254 69.1594 180.181 69.3029 180.079 69.4258C179.977 69.5486 179.85 69.648 179.706 69.7169C179.562 69.7858 179.404 69.8226 179.245 69.8248H167.632C166.84 69.8248 165.16 70.065 164.085 69.8408Z" fill="#36A995"/>
        <path d="M170.54 38.4168C172.315 37.6256 173.111 35.5483 172.319 33.777C171.526 32.0057 169.444 31.2112 167.669 32.0024C165.894 32.7936 165.098 34.871 165.891 36.6422C166.684 38.4135 168.765 39.208 170.54 38.4168Z" fill="white"/>
        <path d="M155.92 22.7391C156.768 20.1499 155.353 17.3644 152.758 16.5176C150.164 15.6708 147.373 17.0834 146.524 19.6726C145.676 22.2619 147.091 25.0473 149.686 25.8941C152.28 26.7409 155.071 25.3284 155.92 22.7391Z" fill="#FF9E81"/>
        <path d="M135.168 70.2947C135.12 70.3047 135.071 70.3047 135.023 70.2947C134.724 70.1933 134.724 69.7609 134.777 69.4673C135.756 63.8514 136.639 58.2035 136.847 52.5129C136.996 50.6355 136.84 48.7465 136.387 46.9183C135.596 44.1958 133.713 42.2153 132.135 39.9519C130.626 37.7792 129.048 35.6438 127.657 33.3964C125.015 29.1258 123.02 24.3587 123.539 19.2446C123.753 17.2871 124.26 15.3726 125.042 13.5646C128.305 5.88817 136.216 0.859496 146.203 0.112135C157.078 -0.704625 167.145 3.71548 171.879 11.3706C172.551 12.4668 173.13 13.6167 173.612 14.8085C174.468 16.9438 174.446 19.0791 174.425 21.3746C174.425 22.3408 174.425 23.3337 174.473 24.3C174.62 26.2441 175.263 28.1184 176.34 29.745C177.453 31.4746 179.287 32.8946 180.047 34.8217C180.491 35.9481 180.427 37.3628 179.576 38.2276C178.892 38.9269 177.79 39.1938 177.308 40.0373C176.88 40.7846 177.089 41.7188 177.351 42.5356C177.534 42.9629 177.604 43.4296 177.554 43.8915C177.383 44.7136 176.484 45.1407 175.714 45.445C176.399 45.7439 177.142 46.2244 177.196 46.9717C177.239 47.6337 176.704 48.1728 176.254 48.664C175.611 49.3018 175.172 50.1154 174.992 51.0021C174.698 53.0307 176.527 55.1019 175.736 56.9917C175.516 57.4348 175.198 57.8227 174.808 58.1268C174.417 58.4308 173.962 58.6431 173.478 58.748C172.509 58.9457 171.519 59.0264 170.531 58.9882C168.674 59.0084 166.821 59.187 164.994 59.5221C164.093 59.6266 163.232 59.9551 162.491 60.4776C161.378 61.3905 161.1 62.9492 160.886 64.3692L160.121 69.6488C160.089 69.8677 160.036 70.1293 159.833 70.2253C159.713 70.2641 159.582 70.2538 159.47 70.1968C159.358 70.1397 159.273 70.0406 159.233 69.9211C159.166 69.6801 159.166 69.4254 159.233 69.1844L160.239 63.0934C160.318 62.165 160.621 61.2694 161.122 60.483C161.774 59.7446 162.636 59.2215 163.593 58.9829C165.88 58.309 168.261 58.0098 170.643 58.0967C171.436 58.1532 172.233 58.1048 173.013 57.9526C173.404 57.8729 173.772 57.7069 174.091 57.4668C174.409 57.2266 174.669 56.9184 174.853 56.5646C175.447 55.2087 174.377 53.7353 174.163 52.294C173.933 50.6925 174.757 49.1284 175.768 47.8899C176.024 47.5803 176.303 47.1746 176.142 46.8222C175.859 46.2404 173.874 45.856 175.072 44.799C175.559 44.372 176.18 44.3186 176.64 43.8008L176.688 43.742C176.688 43.678 176.629 43.5712 176.591 43.4698C176.228 42.5586 176.087 41.5742 176.18 40.5978C176.281 39.1778 177.324 38.5906 178.089 38.1635C178.536 37.9752 178.919 37.6619 179.191 37.2614C179.897 35.836 178.726 34.2132 177.624 32.9533C176.046 31.149 174.596 29.1578 173.949 26.8143C172.879 23.0028 174.232 18.8549 172.735 15.1661C172.273 14.0222 171.717 12.9187 171.071 11.8671C166.535 4.50021 156.8 0.250928 146.267 1.03566C136.639 1.75633 129.005 6.58215 125.881 13.9383C121.356 24.5882 128.749 33.8609 134.82 42.0338C135.752 43.2111 136.502 44.521 137.045 45.9201C137.571 47.5979 137.812 49.3518 137.757 51.1089C137.734 54.3562 137.495 57.5984 137.04 60.8139C136.683 63.7464 136.232 66.6647 135.686 69.5687C135.628 69.857 135.446 70.2627 135.168 70.2947Z" fill="#42526E"/>
        <path d="M88.8174 128.936V119.861H92.5618C92.9325 119.861 93.2983 119.945 93.6316 120.106C93.9568 120.266 94.2461 120.489 94.4821 120.763C94.7163 121.038 94.9059 121.348 95.0438 121.681C95.1769 122.009 95.2459 122.358 95.2471 122.711C95.2498 123.195 95.138 123.672 94.9208 124.105C94.7169 124.536 94.401 124.904 94.0061 125.172C93.6005 125.45 93.1178 125.594 92.626 125.583H89.7V128.925L88.8174 128.936ZM89.7107 124.799H92.6153C92.9497 124.807 93.2774 124.704 93.546 124.505C93.8149 124.309 94.0272 124.046 94.1612 123.742C94.3074 123.422 94.3822 123.074 94.3805 122.722C94.3841 122.361 94.2958 122.004 94.1237 121.687C93.9657 121.386 93.7361 121.13 93.4551 120.939C93.1841 120.76 92.8656 120.665 92.5404 120.667H89.7L89.7107 124.799Z" fill="#362F57"/>
        <path d="M106.02 121.569C105.889 121.423 105.74 121.294 105.576 121.185C105.396 121.062 105.202 120.96 104.999 120.88C104.776 120.795 104.547 120.727 104.314 120.678C104.058 120.627 103.799 120.602 103.538 120.603C102.923 120.553 102.309 120.711 101.794 121.051C101.616 121.202 101.475 121.392 101.383 121.605C101.29 121.819 101.248 122.052 101.259 122.284C101.241 122.586 101.334 122.885 101.522 123.123C101.746 123.361 102.031 123.534 102.345 123.624C102.72 123.747 103.201 123.881 103.779 124.019C104.35 124.13 104.91 124.291 105.453 124.5C105.87 124.656 106.238 124.917 106.523 125.258C106.797 125.633 106.933 126.091 106.908 126.555C106.915 126.925 106.832 127.291 106.667 127.623C106.504 127.926 106.271 128.188 105.988 128.386C105.673 128.599 105.321 128.753 104.95 128.84C104.519 128.939 104.077 128.988 103.634 128.984C103.181 128.986 102.729 128.938 102.286 128.84C101.862 128.742 101.451 128.595 101.062 128.402C100.674 128.207 100.314 127.961 99.9917 127.671L100.436 126.939C100.612 127.12 100.808 127.281 101.019 127.42C101.257 127.577 101.51 127.711 101.773 127.82C102.061 127.945 102.363 128.039 102.672 128.098C102.997 128.163 103.329 128.195 103.661 128.194C104.253 128.226 104.841 128.089 105.357 127.799C105.552 127.673 105.711 127.499 105.817 127.293C105.923 127.086 105.973 126.856 105.961 126.624C105.978 126.298 105.869 125.977 105.656 125.728C105.397 125.478 105.082 125.295 104.736 125.194C104.241 125.027 103.738 124.886 103.228 124.772C102.681 124.655 102.144 124.494 101.623 124.292C101.237 124.15 100.898 123.904 100.644 123.582C100.412 123.239 100.297 122.831 100.318 122.418C100.303 121.912 100.447 121.413 100.73 120.993C101.021 120.599 101.418 120.295 101.875 120.117C102.409 119.905 102.98 119.802 103.554 119.813C103.93 119.811 104.305 119.852 104.672 119.936C105.005 120.012 105.327 120.13 105.63 120.288C105.928 120.444 106.205 120.638 106.453 120.864L106.02 121.569Z" fill="#362F57"/>
        <path d="M112.6 119.872L115.563 124.751L118.558 119.872H119.532L116.012 125.568V128.936H115.119V125.541L111.631 119.872H112.6Z" fill="#362F57"/>
        <path d="M124.24 124.329C124.24 123.773 124.338 123.222 124.528 122.701C124.72 122.171 125.003 121.677 125.363 121.243C125.734 120.794 126.197 120.43 126.722 120.176C127.294 119.909 127.919 119.776 128.551 119.786C129.28 119.758 130.001 119.944 130.626 120.32C131.178 120.665 131.619 121.159 131.9 121.745L131.199 122.177C131.027 121.808 130.772 121.483 130.455 121.227C130.172 121.002 129.849 120.831 129.503 120.725C129.177 120.625 128.838 120.573 128.497 120.571C127.997 120.56 127.501 120.671 127.053 120.896C126.638 121.105 126.272 121.402 125.983 121.766C125.694 122.127 125.475 122.538 125.336 122.978C125.192 123.418 125.118 123.877 125.117 124.339C125.115 124.831 125.202 125.32 125.374 125.781C125.537 126.226 125.78 126.638 126.09 126.998C126.389 127.346 126.752 127.632 127.16 127.841C127.578 128.05 128.04 128.156 128.508 128.151C128.872 128.151 129.233 128.091 129.578 127.975C129.942 127.857 130.282 127.677 130.584 127.441C130.903 127.184 131.16 126.857 131.332 126.485L132.076 126.87C131.887 127.32 131.587 127.714 131.204 128.018C130.813 128.331 130.369 128.573 129.894 128.733C129.439 128.889 128.962 128.97 128.481 128.973C127.885 128.979 127.296 128.842 126.764 128.573C126.249 128.31 125.79 127.947 125.416 127.505C125.039 127.058 124.742 126.548 124.539 126C124.343 125.464 124.242 124.899 124.24 124.329Z" fill="#362F57"/>
        <path d="M143.951 119.872V128.947H143.068V124.708H137.682V128.947H136.772V119.872H137.666V123.907H143.052V119.872H143.951Z" fill="#362F57"/>
        <path d="M152.916 129C152.315 129.008 151.719 128.877 151.178 128.616C150.661 128.367 150.204 128.013 149.835 127.575C149.46 127.137 149.167 126.636 148.968 126.096C148.656 125.276 148.576 124.385 148.737 123.523C148.898 122.66 149.295 121.858 149.883 121.206C150.265 120.781 150.727 120.435 151.242 120.186C151.769 119.933 152.347 119.804 152.932 119.807C153.536 119.799 154.132 119.937 154.671 120.208C155.186 120.467 155.641 120.831 156.008 121.276C156.377 121.716 156.668 122.216 156.869 122.754C157.075 123.289 157.18 123.857 157.179 124.43C157.182 125.022 157.073 125.609 156.858 126.16C156.648 126.697 156.346 127.194 155.965 127.628C155.583 128.051 155.121 128.396 154.606 128.642C154.077 128.887 153.499 129.009 152.916 129ZM149.557 124.404C149.555 124.889 149.637 125.371 149.798 125.829C149.951 126.272 150.185 126.683 150.488 127.041C150.783 127.392 151.147 127.679 151.557 127.884C151.979 128.094 152.445 128.2 152.916 128.194C153.403 128.203 153.885 128.091 154.318 127.868C154.732 127.659 155.096 127.364 155.387 127.003C155.683 126.64 155.91 126.226 156.056 125.781C156.37 124.877 156.37 123.893 156.056 122.989C155.899 122.547 155.664 122.136 155.361 121.777C155.065 121.427 154.701 121.14 154.291 120.934C153.868 120.728 153.403 120.624 152.932 120.63C152.452 120.621 151.976 120.729 151.547 120.945C151.133 121.155 150.769 121.449 150.477 121.809C150.18 122.172 149.95 122.584 149.798 123.026C149.639 123.468 149.558 123.934 149.557 124.404Z" fill="#362F57"/>
        <path d="M161.914 128.936V119.861H162.807V128.135H168.054V128.925L161.914 128.936Z" fill="#362F57"/>
        <path d="M176.993 129C176.391 129.008 175.796 128.877 175.254 128.616C174.738 128.367 174.28 128.013 173.912 127.575C173.537 127.136 173.242 126.636 173.04 126.096C172.838 125.555 172.734 124.981 172.735 124.404C172.733 123.812 172.842 123.226 173.056 122.674C173.264 122.135 173.569 121.638 173.955 121.206C174.34 120.782 174.803 120.436 175.319 120.186C175.845 119.933 176.424 119.803 177.009 119.807C177.612 119.799 178.209 119.937 178.747 120.208C179.262 120.469 179.717 120.832 180.085 121.276C180.454 121.716 180.745 122.216 180.946 122.754C181.367 123.851 181.367 125.064 180.946 126.16C180.736 126.699 180.432 127.196 180.047 127.628C179.668 128.053 179.208 128.398 178.694 128.642C178.161 128.888 177.58 129.01 176.993 129ZM173.628 124.404C173.628 124.889 173.712 125.371 173.874 125.829C174.028 126.272 174.262 126.683 174.564 127.041C174.859 127.392 175.224 127.679 175.634 127.884C176.056 128.094 176.522 128.2 176.993 128.194C177.48 128.203 177.962 128.091 178.394 127.868C178.807 127.658 179.172 127.363 179.464 127.003C179.758 126.639 179.984 126.225 180.133 125.781C180.446 124.877 180.446 123.893 180.133 122.989C179.974 122.546 179.737 122.136 179.432 121.777C179.138 121.425 178.774 121.138 178.362 120.934C177.939 120.728 177.474 120.624 177.004 120.63C176.523 120.621 176.048 120.729 175.618 120.945C175.205 121.155 174.841 121.45 174.548 121.809C174.253 122.172 174.025 122.584 173.874 123.026C173.714 123.468 173.631 123.934 173.628 124.404Z" fill="#362F57"/>
        <path d="M190.21 129C189.624 129.006 189.045 128.872 188.52 128.61C188.001 128.35 187.54 127.987 187.167 127.542C186.784 127.106 186.482 126.605 186.274 126.064C186.067 125.525 185.962 124.953 185.963 124.377C185.959 123.783 186.064 123.193 186.274 122.636C186.474 122.1 186.771 121.604 187.151 121.174C187.521 120.75 187.974 120.407 188.483 120.165C189.005 119.915 189.578 119.787 190.157 119.791C190.923 119.755 191.683 119.94 192.345 120.325C192.893 120.677 193.335 121.172 193.623 121.756L192.933 122.215C192.68 121.693 192.273 121.261 191.767 120.976C191.274 120.713 190.722 120.577 190.162 120.581C189.688 120.574 189.22 120.684 188.798 120.902C188.386 121.108 188.021 121.399 187.729 121.756C187.438 122.117 187.215 122.527 187.071 122.967C186.921 123.42 186.845 123.894 186.846 124.371C186.843 124.867 186.93 125.359 187.103 125.823C187.267 126.269 187.514 126.68 187.83 127.035C188.128 127.379 188.492 127.66 188.9 127.863C189.316 128.065 189.774 128.167 190.237 128.162C190.788 128.163 191.33 128.022 191.81 127.751C192.364 127.421 192.846 126.983 193.227 126.464V127.409C192.881 127.888 192.428 128.28 191.905 128.556C191.382 128.832 190.802 128.984 190.21 129ZM193.126 125.172H191.104V124.484H193.88V128.936H193.126V125.172Z" fill="#362F57"/>
        <path d="M198.587 128.936V119.861H199.486V128.936H198.587Z" fill="#362F57"/>
        <path d="M210.227 121.569C210.098 121.421 209.949 121.291 209.783 121.185C209.602 121.062 209.409 120.96 209.205 120.881C208.983 120.794 208.754 120.726 208.521 120.678C208.267 120.628 208.009 120.602 207.75 120.603C207.134 120.554 206.518 120.712 206.001 121.051C205.823 121.202 205.682 121.392 205.589 121.606C205.497 121.819 205.455 122.052 205.466 122.285C205.45 122.586 205.543 122.884 205.728 123.123C205.953 123.361 206.237 123.534 206.552 123.624C206.932 123.747 207.408 123.881 207.986 124.019C208.558 124.131 209.12 124.292 209.665 124.5C210.08 124.659 210.448 124.919 210.735 125.258C211.016 125.638 211.154 126.105 211.126 126.577C211.132 126.947 211.05 127.313 210.885 127.644C210.724 127.95 210.491 128.212 210.206 128.408C209.892 128.621 209.542 128.775 209.173 128.861C208.74 128.961 208.297 129.009 207.852 129.005C207.399 129.007 206.947 128.958 206.504 128.861C206.082 128.764 205.672 128.617 205.284 128.424C204.896 128.229 204.536 127.983 204.215 127.692L204.664 126.961C204.837 127.143 205.031 127.304 205.242 127.441C205.481 127.596 205.734 127.73 205.996 127.842C206.284 127.967 206.586 128.06 206.895 128.119C207.22 128.184 207.552 128.216 207.884 128.215C208.476 128.248 209.064 128.111 209.58 127.82C209.777 127.696 209.937 127.522 210.044 127.316C210.152 127.109 210.202 126.878 210.19 126.646C210.204 126.318 210.094 125.998 209.879 125.749C209.621 125.498 209.305 125.315 208.959 125.215C208.464 125.049 207.961 124.908 207.451 124.794C206.904 124.676 206.367 124.515 205.846 124.313C205.462 124.169 205.124 123.923 204.867 123.603C204.635 123.261 204.52 122.852 204.541 122.439C204.525 121.932 204.671 121.433 204.958 121.014C205.248 120.619 205.645 120.315 206.103 120.139C206.635 119.927 207.204 119.824 207.777 119.834C208.153 119.832 208.528 119.873 208.895 119.957C209.23 120.032 209.554 120.151 209.858 120.309C210.155 120.467 210.432 120.661 210.682 120.886L210.227 121.569Z" fill="#362F57"/>
        <path d="M223.188 120.667H219.952V128.936H219.058V120.667H215.822V119.872H223.188V120.667Z" fill="#362F57"/>
        </g>
        <defs>
        <clipPath id="clip0_50_1895">
        <rect width="312" height="129" fill="white"/>
        </clipPath>
    </defs>
</svg>
