<svg viewBox="0 0 306 48" fill="none" xmlns="http://www.w3.org/2000/svg">
    <g id="Group 137">
    <g id="Group 133">
    <path id="Vector" d="M27.6054 47.685C27.411 47.6573 27.2283 47.5752 27.0784 47.448C26.5877 46.9595 26.6314 45.3627 26.5296 44.6992C26.4751 44.1172 26.2457 43.5655 25.8717 43.117C25.4437 42.7174 24.8978 42.4679 24.3162 42.4061C23.2455 42.2464 22.1639 42.172 21.0815 42.1838C20.8837 42.1862 20.6862 42.1667 20.4927 42.1254C20.3065 42.1012 20.1273 42.0387 19.9663 41.9419C19.8052 41.8451 19.6658 41.7161 19.5567 41.5628C19.4475 41.4096 19.3711 41.2354 19.332 41.0512C19.2929 40.867 19.2922 40.6767 19.3297 40.4922C19.4351 39.8433 19.8385 39.2928 19.7767 38.6074C19.663 37.9968 19.3558 37.4393 18.9008 37.0179C18.8284 36.9556 18.7721 36.8766 18.7367 36.7877C18.7012 36.6989 18.6877 36.6027 18.6973 36.5075C18.7627 36.2487 19.137 36.0628 19.2642 36.0154C19.3086 35.9987 19.3464 35.9681 19.3718 35.9281C19.3973 35.888 19.4091 35.8407 19.4054 35.7934C19.4017 35.746 19.3827 35.7012 19.3514 35.6656C19.32 35.63 19.2779 35.6056 19.2315 35.5961C18.9682 35.5184 18.7341 35.3635 18.5592 35.1514C18.4465 35.0201 18.4574 34.9909 18.541 34.7649C18.705 34.352 18.7686 33.9059 18.7263 33.4634C18.6864 32.8911 18.2757 32.6614 17.9159 32.4572C17.6593 32.3478 17.4424 32.162 17.2944 31.925C16.7783 30.8787 17.7087 30.1277 18.2829 29.3986C19.0558 28.5 19.6085 27.4326 19.8967 26.2816C20.1329 25.1295 19.9548 23.9338 20.0529 22.7635C20.5872 16.4347 27.947 13.5802 33.4351 13.9922C38.1818 14.3567 41.9362 16.7446 43.4808 20.3975C45.567 25.33 42.9248 29.0158 40.1298 32.9166C39.5187 33.6943 38.952 34.5061 38.4325 35.3482C37.4839 37.0653 37.7056 39.2089 37.8656 41.0974C38.0255 42.9858 38.3053 44.907 38.6324 46.7918C38.6514 46.899 38.6469 47.0091 38.6193 47.1144C38.5916 47.2196 38.5415 47.3176 38.4724 47.4016C38.4032 47.4855 38.3167 47.5533 38.2188 47.6004C38.121 47.6474 38.0141 47.6726 37.9055 47.6741H30.0151C29.4772 47.6741 28.3359 47.8381 27.6054 47.685Z" fill="#36A995"/>
    <path id="Vector_2" d="M31.9912 26.2249C33.1972 25.6845 33.7381 24.2659 33.1994 23.0563C32.6607 21.8466 31.2464 21.3041 30.0405 21.8444C28.8345 22.3847 28.2936 23.8034 28.8323 25.013C29.371 26.2226 30.7853 26.7652 31.9912 26.2249Z" fill="white"/>
    <path id="Vector_3" d="M22.0573 15.5182C22.6339 13.7499 21.6722 11.8477 19.9093 11.2694C18.1465 10.6911 16.2501 11.6558 15.6735 13.424C15.097 15.1922 16.0587 17.0945 17.8215 17.6728C19.5844 18.2511 21.4808 17.2864 22.0573 15.5182Z" fill="#FF9E81"/>
    <path id="Vector_4" d="M7.95742 47.9949C7.92506 48.0017 7.89165 48.0017 7.85929 47.9949C7.65576 47.9256 7.65575 47.6303 7.6921 47.4298C8.35721 43.5946 8.95691 39.7376 9.09865 35.8513C9.19941 34.5692 9.09387 33.2792 8.78608 32.0307C8.24818 30.1715 6.96883 28.8189 5.89666 27.2732C4.87174 25.7894 3.79956 24.3312 2.8546 22.7964C1.05916 19.8799 -0.296495 16.6243 0.0560503 13.1318C0.201809 11.795 0.546045 10.4876 1.07734 9.25288C3.29438 4.01047 8.66978 0.576295 15.4554 0.0659082C22.8443 -0.491872 29.6844 2.5267 32.9009 7.75453C33.3574 8.50315 33.7513 9.28843 34.0785 10.1023C34.66 11.5606 34.6455 13.0188 34.6309 14.5864C34.6309 15.2463 34.6309 15.9244 34.6636 16.5842C34.7636 17.9119 35.2003 19.1919 35.9321 20.3028C36.688 21.4839 37.9347 22.4537 38.4508 23.7697C38.7524 24.539 38.7088 25.5051 38.1309 26.0957C37.6657 26.5732 36.917 26.7555 36.5899 27.3315C36.2991 27.8419 36.4409 28.4799 36.619 29.0377C36.743 29.3295 36.7906 29.6482 36.7571 29.9637C36.6408 30.5251 36.0302 30.8167 35.5068 31.0245C35.972 31.2287 36.4772 31.5568 36.5136 32.0672C36.5427 32.5192 36.1792 32.8874 35.8739 33.2228C35.437 33.6584 35.1386 34.2141 35.0162 34.8196C34.8163 36.205 36.0593 37.6195 35.5214 38.91C35.3719 39.2126 35.1564 39.4775 34.8909 39.6852C34.6253 39.8928 34.3166 40.0378 33.9876 40.1094C33.329 40.2445 32.6567 40.2995 31.985 40.2735C30.723 40.2872 29.4646 40.4092 28.2233 40.638C27.6108 40.7094 27.026 40.9338 26.5224 41.2906C25.7664 41.914 25.5774 42.9785 25.432 43.9483L24.9123 47.5538C24.8905 47.7033 24.8541 47.8819 24.716 47.9475C24.6346 47.974 24.546 47.9669 24.4697 47.928C24.3934 47.889 24.3356 47.8213 24.309 47.7397C24.2634 47.5751 24.2634 47.4012 24.309 47.2366L24.9923 43.077C25.046 42.4429 25.2517 41.8313 25.5919 41.2943C26.0352 40.79 26.6208 40.4328 27.2711 40.2698C28.8247 39.8097 30.4425 39.6053 32.0613 39.6647C32.6 39.7032 33.1414 39.6702 33.6714 39.5662C33.9371 39.5118 34.1873 39.3984 34.4036 39.2344C34.62 39.0704 34.797 38.8599 34.9217 38.6184C35.3251 37.6924 34.5982 36.6862 34.4528 35.7019C34.2965 34.6082 34.8562 33.54 35.5432 32.6942C35.7176 32.4828 35.9066 32.2057 35.7976 31.9651C35.605 31.5677 34.2566 31.3052 35.0707 30.5834C35.4014 30.2918 35.823 30.2553 36.1356 29.9017L36.1683 29.8616C36.1683 29.8178 36.1283 29.7449 36.1029 29.6757C35.8558 29.0534 35.7599 28.3811 35.823 27.7143C35.8921 26.7446 36.6008 26.3436 37.1205 26.0519C37.4241 25.9233 37.6841 25.7093 37.8692 25.4358C38.349 24.4624 37.553 23.3541 36.8043 22.4938C35.7322 21.2616 34.7472 19.9017 34.3074 18.3013C33.5805 15.6983 34.5001 12.8657 33.4824 10.3466C33.1688 9.56533 32.7907 8.81171 32.3521 8.09357C29.27 3.06261 22.6553 0.160693 15.499 0.696599C8.9569 1.18876 3.7705 4.4844 1.64796 9.50807C-1.42682 16.7811 3.59604 23.1135 7.72118 28.695C8.35442 29.499 8.86406 30.3936 9.23313 31.349C9.59044 32.4948 9.75383 33.6926 9.71651 34.8925C9.70142 37.1102 9.53872 39.3244 9.22949 41.5203C8.98719 43.5229 8.68068 45.5159 8.30997 47.4991C8.26999 47.696 8.14641 47.973 7.95742 47.9949Z" fill="#42526E"/>
    </g>
    <g id="Group 136">
    <g id="Group 135">
    <path id="Vector_5" d="M214.179 26.4783H212.929V6.44226H214.179V26.4783Z" fill="#42526E"/>
    <path id="Vector_6" d="M245.135 18.8987C245.943 18.37 247.477 17.0869 247.477 13.0029C247.477 12.1504 247.766 6.47632 241.697 6.47632H237.843V18.7068H236.249V19.8578H237.843V26.4612H242.794C243.775 26.4612 248.837 26.4868 248.837 22.4412C248.837 21.2049 247.838 19.1715 245.135 18.8987ZM239.088 7.61454H241.234C245.994 7.61454 246.121 12.3806 246.121 13.0669C246.121 18.1825 243.036 18.6514 242.441 18.6514H239.088V7.61454ZM243.219 25.323H239.088V19.7811H242.955C243.733 19.7811 247.35 19.9133 247.35 22.4497C247.35 25.4381 243.219 25.323 243.219 25.323Z" fill="#42526E"/>
    <path id="Vector_7" d="M140.671 7.59323V6.45502H131.377V18.6855H129.876V19.8365H131.377V26.4399H140.671V25.3017H132.622V19.8365H132.664V19.7427H140.446V18.6045H132.622V7.59323H140.671Z" fill="#42526E"/>
    <path id="Vector_8" d="M265.017 7.61881V6.48059H255.718V18.7111H254.222V19.8621H255.718V26.4612H265.017V25.323H256.967V19.8621H257.01V19.7641H264.792V18.6301H256.967V7.61881H265.017Z" fill="#42526E"/>
    <path id="Vector_9" d="M68.796 7.59323V6.45502H59.4928V18.6855H57.9968V19.8365H59.4928V26.4399H68.796V25.3017H60.7423V19.8365H60.7848V19.7427H68.5665V18.6045H60.7423V7.59323H68.796Z" fill="#42526E"/>
    <path id="Vector_10" d="M122.312 6.41656V18.6044H110.556V6.4933H109.307V18.6854H107.879V19.8364H109.307V26.4398H110.556V19.8364H110.667V19.7427H122.312V26.4398H123.557V6.41656H122.312Z" fill="#42526E"/>
    <path id="Vector_11" d="M102.26 7.58896H97.2324V26.4186H95.9872V7.58896H90.9595V6.45502H102.26V7.58896Z" fill="#42526E"/>
    <path id="Vector_12" d="M231.565 7.61454H226.538V26.4612H225.314V7.61454H220.265V6.47632H231.565V7.61454Z" fill="#42526E"/>
    <path id="Vector_13" d="M281.273 13.361C281.273 12.5553 281.273 6.47632 275.323 6.47632H271.923V18.7452H270.427V19.8962H271.923V26.4612H273.168V19.8749H273.215H274.97L279.42 26.4697H280.665L276.186 19.828C281.056 19.2951 281.273 14.1241 281.273 13.361ZM273.143 18.7452V7.61454H275.212C279.849 7.61454 280.023 12.6449 280.023 13.28C280.023 14.4993 279.649 18.7281 275.348 18.7281H273.13L273.143 18.7452Z" fill="#42526E"/>
    <path id="Vector_14" d="M184.718 13.361C184.718 12.5553 184.718 6.47632 178.768 6.47632H175.368V18.7452H173.876V19.8962H175.368V26.4612H176.617V19.8749H176.664H178.419L182.865 26.4697H184.089L179.609 19.828C184.514 19.2951 184.718 14.1241 184.718 13.361ZM176.592 18.7452V7.61454H178.657C183.294 7.61454 183.473 12.6449 183.473 13.28C183.473 14.4993 183.099 18.7281 178.798 18.7281H176.579L176.592 18.7452Z" fill="#42526E"/>
    <path id="Vector_15" d="M157.161 13.3355C157.161 12.5298 157.161 6.45502 151.211 6.45502H147.811V18.7026H146.315V19.8536H147.811V26.4186H149.056V19.8536H149.103H150.858L155.283 26.4186H156.528L152.053 19.7768C156.944 19.2695 157.161 14.0985 157.161 13.3355ZM149.031 18.7026V7.58896H151.101C155.737 7.58896 155.912 12.6193 155.912 13.2545C155.912 14.4737 155.538 18.7026 151.237 18.7026H149.018H149.031Z" fill="#42526E"/>
    <path id="Vector_16" d="M84.525 16.6904L80.8743 14.7209C80.2963 14.4396 79.8118 14.1881 79.4251 13.9621C79.112 13.7873 78.816 13.5832 78.5411 13.3525C78.1765 13.0801 77.8808 12.7257 77.6778 12.3177C77.4748 11.9097 77.3702 11.4596 77.3723 11.0036C77.3677 10.4909 77.4645 9.9823 77.6571 9.50731C77.8366 9.05213 78.0989 8.63438 78.4306 8.27531C78.7538 7.91673 79.1454 7.62681 79.5823 7.42272C80.0409 7.21794 80.5381 7.11471 81.0401 7.12005C81.8242 7.10126 82.5977 7.30519 83.2713 7.70833C83.9364 8.15023 84.4977 8.7321 84.916 9.41352L85.851 8.68882C85.3846 7.84753 84.6959 7.15164 83.8605 6.67779C83.0252 6.20393 82.0757 5.97047 81.1166 6.00313C80.4543 5.97932 79.7942 6.09143 79.1766 6.3326C78.5591 6.57377 77.9972 6.93892 77.5253 7.40566C77.0583 7.89031 76.6945 8.46535 76.4563 9.09567C76.2181 9.72599 76.1104 10.3984 76.1399 11.0718C76.1233 11.7863 76.3008 12.4919 76.6534 13.113C77.006 13.734 77.5205 14.2471 78.1416 14.5973L81.6563 16.5668C82.5513 16.9773 83.4052 17.4727 84.2063 18.0461C84.6097 18.3448 84.939 18.733 85.1682 19.1804C85.3975 19.6278 85.5206 20.1222 85.528 20.6252C85.5336 21.2619 85.409 21.8931 85.162 22.4796C84.9149 23.0662 84.5506 23.5957 84.0915 24.0356C83.6545 24.4714 83.136 24.8164 82.5656 25.0505C81.9952 25.2846 81.3843 25.4033 80.7681 25.3997C79.7526 25.4239 78.7636 25.0735 77.9886 24.415C77.1725 23.6804 76.5406 22.7632 76.1441 21.7378L75.1411 22.5137C75.5723 23.6376 76.3084 24.6181 77.2661 25.3443C78.2645 26.0698 79.4717 26.4484 80.7043 26.4228C82.2812 26.4363 83.8056 25.8551 84.9755 24.7944C85.5597 24.2874 86.0252 23.6574 86.3389 22.9492C86.6526 22.2411 86.8067 21.4723 86.7903 20.6976C86.8155 19.8909 86.6263 19.092 86.242 18.3828C85.8081 17.6929 85.2203 17.1135 84.525 16.6904Z" fill="#42526E"/>
    <path id="Vector_17" d="M198.824 6.19928C197.098 6.19928 195.411 6.71257 193.976 7.67424C192.541 8.63592 191.423 10.0028 190.763 11.602C190.102 13.2012 189.929 14.9609 190.266 16.6586C190.603 18.3563 191.434 19.9157 192.654 21.1397C193.874 22.3637 195.429 23.1972 197.121 23.5349C198.814 23.8726 200.568 23.6993 202.163 23.0369C203.757 22.3745 205.12 21.2527 206.078 19.8135C207.037 18.3742 207.549 16.6822 207.549 14.9512C207.547 12.6307 206.627 10.406 204.991 8.76515C203.355 7.12434 201.137 6.20154 198.824 6.19928ZM198.824 22.3986C197.352 22.3986 195.913 21.9608 194.689 21.1406C193.465 20.3204 192.512 19.1546 191.948 17.7907C191.385 16.4267 191.238 14.9259 191.525 13.4779C191.812 12.0299 192.521 10.6999 193.562 9.65594C194.602 8.61202 195.928 7.90109 197.372 7.61307C198.815 7.32505 200.312 7.47288 201.671 8.03785C203.031 8.60282 204.193 9.55956 205.011 10.7871C205.829 12.0146 206.265 13.4578 206.265 14.9341C206.266 16.9158 205.483 18.8168 204.088 20.2196C202.693 21.6224 200.799 22.4123 198.824 22.4157V22.3986Z" fill="#FF9E81"/>
    <path id="Vector_18" d="M203.711 25.3443H193.932V26.5507H203.711V25.3443Z" fill="#FF9E81"/>
    <path id="Vector_19" d="M304.694 18.6898C304.649 19.5887 304.419 20.4687 304.021 21.2753C303.622 22.0818 303.063 22.7979 302.378 23.3791C301.562 24.0695 300.645 24.6289 299.658 25.0374C298.717 25.4407 297.706 25.6537 296.683 25.664C295.52 25.6727 294.368 25.4371 293.3 24.9724C292.233 24.5077 291.275 23.8241 290.487 22.9656C288.825 21.2299 287.903 18.9134 287.916 16.5072C287.906 15.3213 288.131 14.1454 288.579 13.0477C289.026 11.95 289.686 10.9523 290.521 10.1127C291.298 9.24749 292.249 8.55654 293.311 8.08494C294.373 7.61335 295.522 7.37172 296.683 7.37583C298.144 7.35544 299.583 7.73575 300.844 8.47569C302.163 9.29046 303.296 10.3757 304.167 11.6601L305.192 10.863C304.181 9.4583 302.886 8.28317 301.392 7.41421C299.976 6.62614 298.379 6.2207 296.76 6.23762C295.425 6.21732 294.1 6.47595 292.87 6.99703C291.64 7.51811 290.532 8.29026 289.616 9.26434C288.659 10.2208 287.905 11.3608 287.399 12.6163C286.892 13.8718 286.643 15.2168 286.666 16.5711C286.652 17.8978 286.902 19.2141 287.402 20.4425C287.902 21.6709 288.641 22.7867 289.577 23.7244C290.487 24.6705 291.58 25.4202 292.788 25.9275C293.997 26.4347 295.296 26.6889 296.607 26.6744C297.984 26.6663 299.347 26.3837 300.614 25.8431C301.882 25.3372 303.02 24.5502 303.942 23.5411C304.712 22.7258 305.269 21.7332 305.566 20.6508C305.732 20.0033 305.844 19.3431 305.901 18.677L304.694 18.6898Z" fill="#42526E"/>
    <path id="Vector_20" d="M300.457 18.7281L305.884 18.6898L305.74 19.7896H300.457V18.7281Z" fill="#42526E"/>
    </g>
    <g id="Group 134">
    <path id="Vector_21" d="M57.9968 41.9445V34.6974H60.9718C61.2663 34.6973 61.557 34.7643 61.8218 34.8935C62.0801 35.0206 62.31 35.199 62.4975 35.4178C62.6836 35.6373 62.8342 35.8847 62.9438 36.1511C63.0495 36.4124 63.1043 36.6917 63.1053 36.9738C63.1075 37.36 63.0186 37.7412 62.846 38.0865C62.684 38.4306 62.4331 38.725 62.1193 38.9391C61.7971 39.161 61.4136 39.2758 61.0228 39.2673H58.6981V41.9359L57.9968 41.9445ZM58.7066 38.6406H61.0143C61.28 38.6475 61.5403 38.565 61.7538 38.4062C61.9674 38.2497 62.1361 38.0394 62.2425 37.7966C62.3587 37.541 62.4182 37.2632 62.4168 36.9823C62.4197 36.6938 62.3495 36.4092 62.2128 36.1553C62.0872 35.9157 61.9048 35.7107 61.6815 35.5585C61.4662 35.4152 61.2132 35.3395 60.9548 35.3411H58.6981L58.7066 38.6406Z" fill="#362F57"/>
    <path id="Vector_22" d="M71.6647 36.0614C71.5603 35.9448 71.4418 35.8417 71.312 35.7545C71.1684 35.6567 71.0145 35.5752 70.853 35.5115C70.6763 35.4429 70.4944 35.3887 70.309 35.3495C70.106 35.3094 69.8996 35.2894 69.6927 35.2898C69.2039 35.2501 68.716 35.3762 68.3072 35.6479C68.1657 35.7682 68.0537 35.9197 67.98 36.0905C67.9063 36.2612 67.8729 36.4468 67.8822 36.6326C67.8674 36.8738 67.9416 37.112 68.0905 37.3019C68.2688 37.492 68.4949 37.6304 68.745 37.7026C69.0425 37.8007 69.425 37.9073 69.884 38.0181C70.3378 38.1066 70.7829 38.235 71.2142 38.4018C71.545 38.5263 71.8379 38.7349 72.0642 39.0071C72.282 39.3068 72.3901 39.6727 72.3702 40.043C72.3753 40.3385 72.3097 40.6308 72.179 40.8956C72.0488 41.1382 71.864 41.347 71.6392 41.5052C71.3888 41.6755 71.1093 41.7983 70.8147 41.8676C70.4719 41.947 70.121 41.9856 69.7692 41.9827C69.4091 41.9842 69.0499 41.9456 68.6982 41.8676C68.3613 41.7897 68.0346 41.6724 67.725 41.518C67.417 41.3622 67.1311 41.1658 66.875 40.934L67.2278 40.35C67.3681 40.4941 67.5234 40.6227 67.691 40.7336C67.8803 40.8588 68.081 40.9658 68.2902 41.0534C68.5194 41.1533 68.7588 41.2277 69.0042 41.275C69.2631 41.3269 69.5265 41.3526 69.7905 41.3518C70.2603 41.3771 70.7276 41.2676 71.1377 41.0363C71.2929 40.9361 71.419 40.7967 71.5033 40.632C71.5876 40.4674 71.6272 40.2833 71.618 40.0984C71.6309 39.8375 71.5443 39.5814 71.3757 39.3823C71.1699 39.1831 70.9191 39.0368 70.6447 38.956C70.2514 38.8228 69.8513 38.7104 69.4462 38.6192C69.0118 38.5254 68.5854 38.3971 68.1712 38.2355C67.8647 38.1224 67.5954 37.9261 67.3935 37.6686C67.2089 37.3952 67.1179 37.069 67.1343 36.7392C67.1223 36.3349 67.2368 35.9369 67.4615 35.601C67.6927 35.2864 68.0081 35.044 68.371 34.9019C68.7954 34.7329 69.249 34.6503 69.7055 34.6589C70.0043 34.6575 70.3023 34.6904 70.5937 34.7569C70.8582 34.8178 71.1139 34.9124 71.3545 35.0383C71.5913 35.1631 71.8113 35.3178 72.009 35.4987L71.6647 36.0614Z" fill="#362F57"/>
    <path id="Vector_23" d="M76.8923 34.7058L79.2468 38.6022L81.6268 34.7058H82.4002L79.6038 39.2544V41.9444H78.894V39.2331L76.123 34.7058H76.8923Z" fill="#362F57"/>
    <path id="Vector_24" d="M86.1401 38.2655C86.1405 37.8219 86.2181 37.3819 86.3696 36.9652C86.5222 36.5419 86.7465 36.1482 87.0326 35.8015C87.3273 35.4429 87.6955 35.1521 88.1121 34.9489C88.5669 34.7363 89.0639 34.6299 89.5656 34.6377C90.1449 34.6156 90.7181 34.7637 91.2146 35.064C91.6526 35.3394 92.0034 35.7342 92.2261 36.2022L91.6693 36.5475C91.5327 36.2527 91.3306 35.9931 91.0786 35.7887C90.8539 35.6085 90.5972 35.4725 90.3221 35.3879C90.0632 35.3077 89.794 35.2661 89.5231 35.2643C89.1252 35.2555 88.7311 35.3447 88.3756 35.5244C88.0454 35.6914 87.7554 35.9285 87.5256 36.2192C87.2961 36.5072 87.1217 36.8353 87.0114 37.1869C86.8968 37.5379 86.838 37.9047 86.8371 38.274C86.8357 38.6668 86.9048 39.0567 87.0411 39.425C87.1714 39.7806 87.3643 40.1098 87.6106 40.397C87.8476 40.6748 88.1363 40.9036 88.4606 41.0705C88.7929 41.2373 89.1601 41.3221 89.5316 41.3178C89.8207 41.3176 90.1078 41.27 90.3816 41.1771C90.6709 41.0832 90.9413 40.9389 91.1806 40.7508C91.4347 40.5456 91.6383 40.2845 91.7756 39.9877L92.3663 40.2946C92.216 40.6537 91.9777 40.969 91.6736 41.2112C91.3626 41.4614 91.0101 41.6547 90.6324 41.7824C90.2711 41.9067 89.8922 41.9715 89.5104 41.9743C89.0366 41.9793 88.5686 41.8696 88.1461 41.6545C87.7363 41.4443 87.3723 41.1545 87.0751 40.8019C86.7753 40.4446 86.5395 40.0379 86.3781 39.5998C86.2224 39.1722 86.1419 38.7207 86.1401 38.2655Z" fill="#362F57"/>
    <path id="Vector_25" d="M101.801 34.7058V41.9529H101.1V38.5681H96.8202V41.9529H96.0977V34.7058H96.8074V37.9286H101.087V34.7058H101.801Z" fill="#362F57"/>
    <path id="Vector_26" d="M108.924 41.9956C108.446 42.0021 107.973 41.897 107.543 41.6886C107.133 41.4904 106.769 41.207 106.476 40.8573C106.178 40.508 105.945 40.1081 105.788 39.6765C105.539 39.0215 105.476 38.3105 105.604 37.6216C105.732 36.9327 106.047 36.2925 106.515 35.7716C106.818 35.4323 107.185 35.1557 107.594 34.9574C108.013 34.7551 108.472 34.6515 108.937 34.6547C109.416 34.6481 109.89 34.7578 110.318 34.9744C110.727 35.1817 111.089 35.472 111.381 35.827C111.674 36.1788 111.905 36.5782 112.065 37.0079C112.228 37.4351 112.312 37.8888 112.311 38.3464C112.313 38.8188 112.227 39.2873 112.056 39.7276C111.89 40.1568 111.649 40.5535 111.347 40.9C111.043 41.238 110.676 41.5132 110.267 41.7099C109.847 41.905 109.388 42.0026 108.924 41.9956ZM106.255 38.3251C106.254 38.7127 106.319 39.0976 106.447 39.4633C106.569 39.8169 106.754 40.1449 106.995 40.431C107.229 40.7115 107.519 40.9407 107.845 41.1046C108.18 41.2718 108.55 41.3565 108.924 41.3518C109.311 41.3593 109.694 41.2699 110.038 41.0918C110.367 40.9245 110.656 40.6891 110.888 40.4012C111.123 40.1111 111.303 39.7802 111.419 39.425C111.668 38.7028 111.668 37.9176 111.419 37.1954C111.294 36.8421 111.107 36.5143 110.866 36.2277C110.632 35.9477 110.342 35.7186 110.016 35.5542C109.68 35.3899 109.311 35.3066 108.937 35.3112C108.555 35.3044 108.177 35.3907 107.836 35.5627C107.508 35.7306 107.218 35.9659 106.986 36.2533C106.75 36.5426 106.567 36.8717 106.447 37.2253C106.321 37.5782 106.256 37.9502 106.255 38.3251Z" fill="#362F57"/>
    <path id="Vector_27" d="M116.073 41.9445V34.6974H116.782V41.305H120.951V41.9359L116.073 41.9445Z" fill="#362F57"/>
    <path id="Vector_28" d="M128.053 41.9956C127.575 42.0021 127.102 41.897 126.672 41.6886C126.262 41.4904 125.898 41.207 125.605 40.8573C125.308 40.5071 125.073 40.1075 124.912 39.6765C124.752 39.2442 124.67 38.7865 124.67 38.3251C124.668 37.8528 124.755 37.3843 124.925 36.9439C125.091 36.5132 125.333 36.1161 125.639 35.7716C125.945 35.4331 126.313 35.1567 126.723 34.9574C127.142 34.7546 127.601 34.6511 128.066 34.6547C128.545 34.6481 129.019 34.7578 129.447 34.9744C129.856 35.1828 130.217 35.473 130.51 35.827C130.803 36.1788 131.034 36.5782 131.194 37.0079C131.528 37.8835 131.528 38.8521 131.194 39.7277C131.027 40.1578 130.785 40.5548 130.48 40.9C130.179 41.2391 129.813 41.5144 129.405 41.7099C128.981 41.9058 128.519 42.0034 128.053 41.9956ZM125.38 38.3251C125.38 38.7129 125.446 39.0979 125.575 39.4633C125.698 39.8169 125.883 40.1449 126.124 40.431C126.358 40.7115 126.647 40.9407 126.974 41.1046C127.309 41.2718 127.679 41.3565 128.053 41.3518C128.44 41.3593 128.823 41.2699 129.167 41.0918C129.495 40.9235 129.784 40.6882 130.017 40.4012C130.25 40.11 130.43 39.7795 130.548 39.425C130.797 38.7028 130.797 37.9176 130.548 37.1954C130.422 36.8419 130.233 36.5141 129.991 36.2277C129.757 35.9465 129.468 35.7171 129.141 35.5542C128.805 35.3899 128.435 35.3066 128.062 35.3112C127.68 35.3044 127.302 35.3907 126.961 35.5627C126.633 35.7311 126.343 35.9663 126.111 36.2533C125.876 36.5428 125.695 36.8719 125.575 37.2253C125.448 37.578 125.382 37.95 125.38 38.3251Z" fill="#362F57"/>
    <path id="Vector_29" d="M138.555 41.9955C138.089 42.0004 137.629 41.8938 137.212 41.6843C136.799 41.4769 136.433 41.1867 136.137 40.8317C135.833 40.4831 135.592 40.0833 135.427 39.6509C135.263 39.2208 135.18 38.7642 135.181 38.3038C135.177 37.8293 135.26 37.3582 135.427 36.914C135.586 36.4853 135.823 36.0894 136.124 35.746C136.418 35.4076 136.778 35.1333 137.182 34.9403C137.597 34.7409 138.052 34.6389 138.512 34.6419C139.121 34.6126 139.725 34.7607 140.251 35.0682C140.687 35.3492 141.038 35.7442 141.266 36.2106L140.718 36.5773C140.517 36.1608 140.194 35.8158 139.792 35.5883C139.4 35.3779 138.961 35.2694 138.517 35.2728C138.14 35.2674 137.768 35.3552 137.433 35.5286C137.105 35.6936 136.815 35.926 136.583 36.2106C136.352 36.4991 136.175 36.8269 136.06 37.1783C135.941 37.54 135.881 37.9186 135.882 38.2995C135.88 38.6952 135.949 39.088 136.086 39.459C136.217 39.8149 136.413 40.143 136.664 40.4267C136.901 40.7013 137.19 40.9259 137.514 41.0875C137.845 41.2491 138.208 41.3309 138.576 41.3262C139.014 41.3275 139.445 41.2144 139.826 40.998C140.266 40.7347 140.649 40.3853 140.952 39.9706V40.7251C140.677 41.1074 140.317 41.4208 139.901 41.6411C139.486 41.8614 139.025 41.9827 138.555 41.9955ZM140.871 38.939H139.265V38.389H141.47V41.9444H140.871V38.939Z" fill="#362F57"/>
    <path id="Vector_30" d="M145.21 41.9445V34.6974H145.924V41.9445H145.21Z" fill="#362F57"/>
    <path id="Vector_31" d="M154.458 36.0615C154.356 35.9429 154.237 35.8396 154.106 35.7546C153.962 35.6568 153.808 35.5753 153.647 35.5116C153.47 35.4425 153.288 35.3883 153.103 35.3496C152.901 35.3095 152.696 35.2895 152.491 35.2899C152.001 35.2506 151.511 35.3766 151.101 35.648C150.959 35.7683 150.847 35.9198 150.774 36.0906C150.7 36.2613 150.667 36.4469 150.676 36.6327C150.663 36.8737 150.737 37.1112 150.884 37.302C151.062 37.4921 151.289 37.6305 151.539 37.7027C151.84 37.8008 152.219 37.9074 152.678 38.0182C153.133 38.1074 153.579 38.2358 154.012 38.4019C154.342 38.5286 154.634 38.7368 154.862 39.0072C155.085 39.311 155.195 39.6836 155.172 40.0602C155.177 40.3556 155.112 40.648 154.981 40.9128C154.853 41.1568 154.668 41.3659 154.441 41.5224C154.192 41.6927 153.914 41.8155 153.621 41.8847C153.277 41.9644 152.925 42.003 152.571 41.9998C152.211 42.0009 151.852 41.9623 151.5 41.8847C151.165 41.8068 150.84 41.6895 150.531 41.5352C150.223 41.3801 149.937 41.1836 149.681 40.9511L150.038 40.3671C150.176 40.5122 150.33 40.6409 150.497 40.7508C150.688 40.8742 150.888 40.9812 151.097 41.0705C151.326 41.1705 151.565 41.2448 151.811 41.2922C152.07 41.3439 152.333 41.3696 152.597 41.3689C153.067 41.3947 153.534 41.2852 153.944 41.0534C154.101 40.9544 154.228 40.8153 154.313 40.6505C154.398 40.4856 154.438 40.301 154.429 40.1156C154.44 39.8541 154.352 39.5979 154.182 39.3994C153.977 39.1993 153.726 39.0529 153.451 38.9731C153.058 38.84 152.658 38.7276 152.253 38.6363C151.818 38.5426 151.392 38.4143 150.978 38.2527C150.672 38.1373 150.404 37.9414 150.2 37.6857C150.015 37.4123 149.924 37.0861 149.941 36.7564C149.928 36.3513 150.044 35.9527 150.272 35.6181C150.502 35.3027 150.818 35.0601 151.182 34.919C151.605 34.7501 152.057 34.6674 152.512 34.676C152.811 34.6744 153.109 34.7073 153.4 34.7741C153.666 34.8343 153.923 34.9289 154.165 35.0554C154.401 35.1813 154.621 35.3359 154.82 35.5158L154.458 36.0615Z" fill="#362F57"/>
    <path id="Vector_32" d="M164.756 35.341H162.185V41.9444H161.475V35.341H158.904V34.7058H164.756V35.341Z" fill="#362F57"/>
    </g>
    </g>
    </g>
</svg>
