<svg width="498" height="630" viewBox="0 0 498 630" fill="none" xmlns="http://www.w3.org/2000/svg">
<g id="Group 121">
<g id="Group 22">
<path id="Rectangle 3" d="M86 206C86 92.2293 178.229 0 292 0C405.771 0 498 92.2293 498 206V630H86V206Z" fill="#FCF9F4"/>
</g>
<g id="Frame" clip-path="url(#clip0_48_2764)">
<path id="Vector" d="M437.781 476.657C414.355 434.345 394.064 409.5 377.433 402.797C367.784 398.904 357.687 399.274 347.785 402.148C345.799 402.018 325.19 400.331 301.59 386.634C274.55 370.944 228.212 359.602 197.486 367.772C166.216 376.083 131.947 369.069 117.607 362.646C109.333 358.966 101.384 357.863 95.5441 359.453C96.0113 359.297 96.3229 359.226 96.3229 359.226C96.3229 359.226 76.356 360.303 76.0381 365.429C75.7201 370.555 93.4678 379.055 93.4678 379.055L93.4092 378.977C102.422 386.472 117.977 393.369 123.856 395.374C128.21 396.853 131.844 398.034 134.627 398.91C133.952 399.054 133.288 399.249 132.642 399.494C130.137 397.606 127.931 396.432 126.406 396.497C122.026 396.672 133.654 412.069 143.491 422.127C148.456 427.966 153.751 434.156 159.156 440.424C156.437 438.017 153.718 435.623 151.408 433.624C144.173 427.35 119.236 406.281 102.241 398.43C101.345 398.015 100.482 397.645 99.6453 397.308C87.8548 392.545 82.5987 395.426 80.8272 396.977C80.5913 397.198 80.3743 397.439 80.1783 397.697C75.6944 394.764 72.521 393.713 71.4698 395.569C69.6853 398.703 89.4704 419.083 100.638 426.188C107.692 432.716 115.855 440.048 124.193 447.348C115.225 443.675 98.5031 436.849 81.6317 430.043C69.2442 425.04 57.6226 420.381 50.5301 417.675C32.893 410.908 19.9863 418.019 16.4498 420.355C13.9126 422.036 12.0955 423.853 11.213 425.501C5.33394 424.495 0.778827 424.508 0.0261029 426.15C-1.55721 429.582 31.1731 441.904 40.66 442.15C55.7729 448.392 75.0195 460.117 93.7403 471.998C115.563 485.858 182.692 493.767 186.274 494.176C195.739 498.309 205.797 500.921 216.077 501.917C216.441 502.196 216.798 502.469 217.116 502.689C231.333 512.597 256.05 505.57 259.158 504.636C261.754 505.68 263.765 506.251 264.894 506.206C266.906 506.115 275.88 503.779 290.357 499.97C304.983 496.123 327.078 490.309 329.408 490.75C332.795 492.697 355.909 536.709 369.64 563.994L371.749 562.929C360.717 541.069 334.82 490.419 330.024 488.479L329.875 488.434C327.28 487.902 312.309 491.749 289.754 497.686C278.391 500.678 266.646 503.766 264.79 503.844C260.689 504.026 237.426 492.418 224.111 476.014C219.874 470.824 214.215 462.544 208.401 453.486C208.401 453.486 208.128 453.064 207.648 452.351C203.755 446.238 199.816 439.815 196.215 433.715C196.215 433.715 200.257 434.189 197.545 426.74C195.598 421.452 189.291 408.87 183.542 402.434C186.04 401.486 193.859 400.435 213.358 410.415C236.232 422.094 248.263 454.784 248.399 455.115L248.542 455.51L248.899 455.725C263.72 464.653 265.543 463.29 266.14 462.862C266.428 462.639 266.638 462.331 266.74 461.981C266.843 461.632 266.833 461.259 266.711 460.916C266.289 459.332 268.93 457.957 273.635 455.647C275.997 454.485 278.677 453.175 281.551 451.468C283.388 450.378 286.561 447.419 290.948 443.318C308.637 426.811 345.455 392.461 376.544 405.036C415.056 420.608 465.294 537.968 465.794 539.155L467.968 538.227C467.877 537.877 455.158 508.049 437.781 476.657ZM95.0444 470.032C74.4158 456.918 57.5446 446.816 43.5997 440.781C43.8917 439.555 42.86 437.232 35.5404 433.404C29.5056 430.25 20.9466 427.473 13.7243 425.981C14.8503 424.533 16.2258 423.298 17.7863 422.334C24.5803 417.831 36.5398 414.827 49.719 419.882C67.8882 426.85 116.348 446.679 129.761 452.169C147.443 467.488 164.951 481.828 173.335 487.285C175.424 488.641 177.526 489.881 179.622 490.971C161.323 488.505 112.435 481.082 95.0444 470.032ZM174.639 485.306C161.55 476.787 129.676 449.502 106.796 428.615C106.796 428.615 112.026 425.287 98.594 412.867C92.4684 407.203 86.7712 402.323 82.164 399.034C82.2387 398.938 82.3186 398.847 82.4038 398.761C84.8956 396.581 91.1642 395.913 101.268 400.578C117.983 408.299 142.706 429.193 149.883 435.409C157.949 442.403 171.024 454.174 171.42 454.531C188.045 473.536 204.053 491.172 212.95 499.231C205.877 498.303 189.829 495.208 174.639 485.306ZM222.339 477.52C231.618 488.946 246.057 498.465 255.764 503.13C248.425 504.941 229.627 508.496 218.517 500.781C211.074 495.591 188.33 470.934 153.751 430.503C153.79 430.503 157.793 430.172 153.997 423.366C151.401 418.668 142.317 407.663 134.867 401.305C138.573 400.409 144.977 400.487 152.258 402.726C164.821 406.573 177.416 420.284 188.506 432.366L189.349 433.281C200.64 445.609 206.415 454.693 206.474 454.771C212.509 464.147 218.303 472.563 222.32 477.513L222.339 477.52ZM289.39 441.573C285.27 445.421 282.019 448.457 280.396 449.418C277.606 451.079 274.971 452.37 272.642 453.506C267.717 455.926 264.064 457.717 264.349 460.812C262.097 460.325 255.849 457.107 250.528 453.921C249.022 449.917 237.102 419.882 214.507 408.319C193.742 397.671 185.209 398.904 181.984 400.584C181.939 400.61 181.896 400.638 181.854 400.669C180.141 399.131 178.532 398.268 177.169 398.547C172.627 399.481 182.594 417.695 189.946 427.532C191.452 430.172 193.048 432.917 194.716 435.714C193.574 434.416 192.365 433.066 191.088 431.665L190.245 430.75C179.693 419.252 167.825 406.327 155.548 401.37C154.685 401.019 153.822 400.721 152.952 400.448C149.076 399.244 145.056 398.559 141 398.411C140.597 398.287 134.29 396.464 124.634 393.148C113.661 389.418 87.647 376.155 89.12 368.492C89.3476 367.235 89.8703 366.05 90.6453 365.035C91.4203 364.02 92.4256 363.203 93.578 362.652C98.8212 359.927 107.692 360.738 116.685 364.767C131.35 371.256 166.287 378.491 198.142 370.023C228.27 362.01 273.83 373.196 300.454 388.645C313.448 396.25 327.726 401.407 342.581 403.861C321.089 411.978 301.103 430.614 289.371 441.579L289.39 441.573Z" fill="#773532"/>
<path id="Vector_2" fill-rule="evenodd" clip-rule="evenodd" d="M313.529 166.411L311.836 155.711L310.142 166.411L298.864 169.532L310.142 172.646L311.836 188.135L313.529 172.646L324.807 169.532L313.529 166.411Z" fill="#773532"/>
<path id="Vector_3" fill-rule="evenodd" clip-rule="evenodd" d="M94.3696 262.416L92.676 251.71L90.9824 262.416L79.7045 265.531L90.9824 268.652L92.676 284.133L94.3696 268.652L105.648 265.531L94.3696 262.416Z" fill="#773532"/>
<path id="Vector_4" fill-rule="evenodd" clip-rule="evenodd" d="M289.118 281.006L287.904 273.356L286.691 281.006L278.638 283.231L286.691 285.464L287.904 296.527L289.118 285.464L297.171 283.231L289.118 281.006Z" fill="#773532"/>
<path id="Vector_5" fill-rule="evenodd" clip-rule="evenodd" d="M67.1871 224.088L65.9802 216.438L64.7667 224.088L56.7074 226.313L64.7667 228.539L65.9802 239.602L67.1871 228.539L75.2465 226.313L67.1871 224.088Z" fill="#773532"/>
<path id="Vector_6" fill-rule="evenodd" clip-rule="evenodd" d="M344.501 214.095L342.23 199.717L339.952 214.095L324.807 218.28L339.952 222.472L342.23 243.268L344.501 222.472L359.653 218.28L344.501 214.095Z" fill="#773532"/>
<path id="Vector_7" d="M282.155 193.89C281.248 182.384 277.932 171.198 272.421 161.057C266.913 151.122 259.329 142.491 250.184 135.752L247.77 134L249.606 136.316C261.76 151.571 268.119 171.297 266.601 190.587C266.357 195.408 265.62 200.191 264.401 204.862C263.239 209.542 261.645 214.104 259.638 218.488C257.615 222.835 255.227 227.002 252.5 230.946L248.101 236.624L243.208 241.873L237.835 246.623L232.079 250.873C228.099 253.497 223.905 255.782 219.543 257.705C215.17 259.583 210.635 261.056 205.993 262.105C201.37 263.197 196.648 263.815 191.899 263.947C182.411 264.452 172.914 263.116 163.932 260.015C154.977 256.959 146.655 252.293 139.377 246.246L116.445 227.176L135.062 250.535C149.481 268.645 171.783 280.415 195.163 281.733L199.706 281.888L203.878 281.726C206.777 281.692 209.668 281.417 212.521 280.902C224.183 279.191 235.335 274.97 245.206 268.528C250.087 265.276 254.65 261.569 258.833 257.459C260.78 255.272 262.805 253.157 264.674 250.892C266.341 248.491 268.204 246.227 269.689 243.716C272.783 238.768 275.349 233.509 277.346 228.026C279.385 222.581 280.798 216.921 281.558 211.156C282.044 208.3 282.298 205.41 282.317 202.513C282.479 199.639 282.425 196.756 282.155 193.89ZM275.984 202.15C275.872 204.821 275.545 207.48 275.004 210.098C274.124 215.358 272.646 220.5 270.598 225.424C268.605 230.35 266.102 235.054 263.129 239.459C260.107 243.806 256.73 247.895 253.032 251.684C245.446 259.094 236.438 264.893 226.551 268.729C221.674 270.693 216.591 272.097 211.399 272.915C208.776 273.435 206.116 273.743 203.443 273.836L199.271 274.096L195.488 274.037C184.405 273.613 173.551 270.76 163.692 265.68C172.881 268.479 182.504 269.579 192.088 268.924C197.126 268.684 202.126 267.931 207.012 266.679C211.913 265.477 216.692 263.824 221.288 261.741C225.853 259.627 230.232 257.131 234.376 254.279L240.346 249.685L245.849 244.553L250.839 238.927L255.284 232.88C258.029 228.7 260.417 224.296 262.422 219.715C264.384 215.128 265.916 210.368 266.997 205.498C268.129 200.652 268.763 195.704 268.891 190.73C269.832 172.958 264.239 155.159 254.025 140.82C260.199 147.269 265.258 154.701 268.995 162.809C273.58 172.612 276.063 183.265 276.282 194.085C276.333 196.776 276.234 199.469 275.984 202.15Z" fill="#773532"/>
</g>
</g>
<defs>
<clipPath id="clip0_48_2764">
<rect width="468" height="430" fill="white" transform="translate(0 134)"/>
</clipPath>
</defs>
</svg>
