<svg width="373" height="386" viewBox="0 0 373 386" fill="none" xmlns="http://www.w3.org/2000/svg">
    <path id="Vector" d="M372.842 204.159C372.763 201.889 372.623 203.466 372.386 205.518C372.386 205.728 372.333 205.938 372.298 206.149C372.5 202.643 372.623 199.137 372.623 195.56C372.65 170.251 367.467 145.207 357.398 121.986C347.328 98.7641 332.585 77.8616 314.088 60.5781C314.242 60.7299 314.41 60.8677 314.588 60.99L314.816 60.5167C313.185 58.9828 311.791 58.08 312.589 59.1581C311.107 57.7908 309.581 56.5286 308.055 55.17C311.378 57.0019 311.326 53.154 309.809 49.3412C309.423 49.5954 309.256 49.7883 305.512 47.4655C306.389 48.7978 311.984 54.7668 308.713 52.97C304.118 49.5516 305.337 49.7181 303.53 47.4918C304.503 49.6392 298.356 45.4934 296.892 46.2472C287.665 39.4719 277.831 33.5653 267.515 28.603C267.778 28.5329 267.857 28.3664 267.515 28.0158L264.507 26.9026C262.367 24.4659 270.768 27.7791 267.331 25.5177C269.66 26.0105 271.956 26.6487 274.206 27.4285C276.875 28.3135 279.37 29.6539 281.581 31.3903L281.686 33.4852C281.835 32.9944 278.775 30.5401 277.021 30.1545C279.599 30.8381 283.948 36.8072 287.377 36.5092L285.904 34.8263C285.176 33.9497 284.387 33.1872 284.387 33.1872C288.508 34.7737 294.086 36.2988 298.128 40.1291C297.05 37.3068 297.023 39.5243 294.954 35.5976C296.453 39.4893 283.326 27.5074 286.483 32.7665C284.238 28.717 281.134 28.2086 277.45 23.8524C277.319 24.4659 278.573 25.7632 274.609 23.2651C274.233 23.3087 273.854 23.3087 273.478 23.2651L273.215 23.0723L273.408 23.2563C273.197 23.2563 273.171 23.2563 273.487 23.3265C274.165 23.8559 274.731 24.5142 275.153 25.2635C273.82 25.3424 271.575 24.4572 269.286 23.6157C267.381 22.8629 265.427 22.2391 263.437 21.7487C261.087 20.3288 264.753 21.5822 263.674 20.3463L261.771 20.0659L259.851 19.873C260.061 18.4618 253.949 14.9295 260.272 16.665L254.87 14.351C251.915 12.3701 247.477 10.4593 244.505 10.1087C241.874 9.00432 237.34 9.64417 239.962 9.23221L235.42 8.3557L230.833 7.70708V7.37401C226.449 6.11184 221.713 5.96283 216.934 5.36681C211.9 5.06115 206.926 4.11567 202.132 2.55321C200.588 2.62333 199.019 2.69345 197.212 2.67592C195.063 2.73505 192.911 2.63838 190.776 2.38668L189.793 1.02809C185.865 1.36993 177.859 -0.181493 176.219 1.31734C174 -0.242848 169.098 -0.321734 163.942 0.58107C158.794 1.30857 153.471 2.8337 149.964 3.16677L150.043 4.91979C147.659 5.3277 145.313 5.92863 143.027 6.71663C140.443 7.51594 137.908 8.46416 135.433 9.55652L136.196 10.9326C133.942 12.2562 130.733 12.7821 127.208 13.641L121.701 14.9032C119.785 15.4452 117.905 16.1038 116.071 16.8754C116.36 16.1303 118.316 15.508 119.78 15.3064C117.281 15.44 114.828 16.0344 112.545 17.0594C110.287 18.1607 108.112 19.4263 106.039 20.8459C103.925 22.1695 101.961 23.7121 99.9003 24.9217C97.9532 26.1214 95.853 27.0531 93.6566 27.6915C92.395 28.9453 90.8301 29.8512 89.1142 30.321C89.2729 30.228 89.4176 30.1129 89.5439 29.9792C89.3422 30.0843 89.0528 30.2421 88.7634 30.4174C87.7629 30.6729 86.779 30.989 85.817 31.364C86.6784 31.1832 87.5277 30.949 88.36 30.6628C86.4934 31.9017 84.7202 33.2757 83.0546 34.7737L81.3008 34.0637L80.8448 34.4143C78.4859 35.2908 79.6171 36.0884 81.3359 36.3426C80.518 37.1309 79.7968 38.0136 79.1874 38.9721C76.1971 38.157 74.3994 43.3547 70.7865 42.9865C70.5147 44.0121 68.2435 46.142 66.1213 48.3595C64.3675 50.3405 62.7978 52.3827 62.6136 53.8114C60.3599 55.3278 58.229 57.0282 57.0101 59.2282L54.9143 58.7286C54.9143 58.7286 54.2829 60.2099 53.6427 61.6912L52.494 64.7152C49.2231 66.5383 47.706 67.2308 49.1529 63.6196C46.9255 67.4937 45.9083 68.9575 45.0314 70.3248C43.7625 72.2303 42.6845 74.256 41.8131 76.3727L41.1729 75.3823C39.5857 77.5034 38.2352 81.7458 36.5164 82.3944C33.9295 84.1474 29.5976 90.0288 25.1866 97.2337C20.7757 104.439 16.4876 113.011 12.7958 119.725C14.7864 118.989 13.7341 120.444 12.5239 122.354C11.3138 124.265 9.96329 126.562 10.9279 127.254C9.96329 127.815 8.86714 129.673 9.17407 127.149C7.2273 134.687 4.465 137.93 4.89469 143.645C4.01777 144.328 4.39487 141.778 3.82487 142.435C3.82487 143.075 3.75473 144.977 3.18474 145.661C2.61474 146.344 2.93915 144.416 2.97423 143.136C2.00962 147.019 2.09731 149.272 2.53577 150.709C2.69995 151.237 2.9717 151.726 3.3339 152.144C3.69611 152.561 4.14095 152.9 4.6404 153.137C2.88656 156.81 2.71996 158.817 3.39519 161.841C2.60596 163.094 1.64135 165.286 2.24642 160.43C2.0535 161.788 0.992422 165.864 0.650423 169.738C0.308423 173.613 -0.0335756 177.162 0.650423 177.364C0.282116 178.188 0.334731 181.168 0.431192 181.896C0.0601878 186.104 -0.0715729 190.329 0.0365673 194.552L0.238242 192.887C1.51855 195.262 0.589 197.857 0.939768 202.686L0.799484 202.555C0.577743 205.187 0.683771 207.837 1.11516 210.443C1.38701 211.609 1.31687 212.766 1.6764 218.236L2.29904 217.561C3.17596 217.973 3.17593 220.383 3.30746 223.477C3.42625 226.81 3.88162 230.123 4.66668 233.364L4.59657 231.05C5.65764 234.337 4.92979 240.876 5.79794 244.294C5.92071 245.048 5.25425 243.19 4.92102 242.182C6.84148 251.166 6.01715 243.12 8.13053 249.597C8.13053 250.903 6.62227 248.352 8.0078 252.744C8.94057 255.358 10.0119 257.921 11.2173 260.422C12.8924 263.786 14.3825 267.239 15.6809 270.765C15.3476 269.406 15.0319 268.065 16.5578 270.844C18.5484 275.226 21.3457 283.053 24.2571 286.445C24.5027 287.015 24.5553 287.243 24.5202 287.322C25.5637 288.847 27.0545 291.45 28.6943 293.747C29.911 295.57 31.2254 297.325 32.6317 299.006C32.9386 300.838 36.3235 305.501 39.7611 309.524C43.1986 313.547 46.487 317.115 45.8995 317.57C45.8995 317.57 47.7411 319.735 49.6528 321.83C51.5644 323.925 53.5726 325.941 53.5726 325.941L53.2569 325.827C58.2203 331.147 60.4301 332.567 62.526 334.04C63.7098 335.232 62.6838 334.54 62.526 334.513C66.3932 338.142 68.489 340.193 70.6813 341.788C73.2467 343.733 75.9487 345.49 78.7665 347.047L79.1523 348.099C81.2219 349.282 91.1311 357.934 100.76 362.246C100.352 362.277 99.9434 362.188 99.5846 361.992C104.934 364.472 110.985 368.127 116.518 370.915C122.051 373.702 126.945 375.648 129.514 374.701C129.514 374.701 131.399 375.201 133.337 375.516L137.178 376.209C127.664 373.062 139.046 375.087 135.275 373.325C139.055 374.202 144.72 377.147 140.019 376.077L139.344 375.683C137.082 377.252 151.227 379.461 150.744 380.688C170.142 384.772 189.741 387.13 208.56 385.456L206.201 383.633C206.201 383.633 207.823 383.519 209.436 383.344L212.672 383.01C214.426 383.282 215.189 384.343 210.524 384.807C213.155 385.684 218.179 382.905 218.206 382.353C227.343 381.626 215.084 385.351 217.837 384.921L221.591 384.124L220.714 384.027C223.616 382.598 223.748 381.88 229.211 380.696C232.719 380.311 231.281 381.573 232.666 381.319C232.666 381.459 233.175 381.424 234.779 380.889C234.779 380.889 236.796 380.407 238.796 379.881L242.812 378.83L239.173 378.137C242.461 376.384 246.6 376.069 242.435 375.35C245.487 375.919 252.888 373.798 259.71 370.923C263.139 369.547 266.357 367.856 269.023 366.664C270.774 365.707 272.588 364.869 274.451 364.157C276.468 362.508 278.57 360.966 280.748 359.538C282.975 358.074 285.439 356.741 288.035 355.041C286.579 355.628 284.922 354.664 289.464 351.965C289.78 356.005 298.365 347.749 303.083 346.784C301.11 347.415 303.96 344.9 306.591 342.516C309.221 340.132 311.387 337.686 308.493 338.948C312.001 336.161 309.432 339.641 312.405 337.888C319.481 329.894 329.408 321.637 336.765 310.655C336.669 310.322 335.011 311.803 336.353 309.296C337.245 308.543 338.097 307.745 338.905 306.903C340.133 305.659 341.352 304.405 341.352 304.405C342.614 302.117 341.571 301.662 344.666 298.077C344.158 298.541 343.386 299.216 344.219 297.7C351.401 287.138 356.829 275.165 361.267 262.938C365.654 250.713 368.975 238.132 371.193 225.335C370.492 228.754 370.86 226.457 371.29 223.828C370.974 225.528 371.132 223.766 370.992 224.091C370.992 224.091 371.377 221.461 371.772 218.762C371.956 217.429 372.149 216.132 372.289 215.098C372.43 214.063 372.474 213.424 372.474 213.424C372.474 212.433 372.631 209.558 372.833 206.788C373.002 204.789 373.042 202.78 372.956 200.776L372.842 204.159ZM307.59 54.7931C305.749 53.2242 303.872 51.6903 301.978 50.2002C304.197 51.2491 306.124 52.8262 307.59 54.7931ZM300.864 49.236C300.864 49.236 300.864 49.236 300.803 49.236L300.399 48.9205L300.864 49.236ZM250.31 13.6498H250.134C247.267 12.0195 248.284 12.6331 250.31 13.6498ZM223.125 9.77564C230.228 10.4856 225.756 12.1685 227.054 12.0107C229.476 12.7198 231.977 13.1289 234.499 13.2291C236.061 13.311 237.628 13.2612 239.182 13.0801C241.909 12.8259 244.443 12.6594 249.345 15.4729C252.94 18.532 248.416 18.7336 248.933 20.2149C246.651 19.7035 244.456 18.862 242.417 17.7168C240.762 16.7968 239.021 16.0423 237.217 15.4642L241.558 17.559C238.97 17.5632 236.411 17.0164 234.052 15.955C234.597 16.3429 235.186 16.6664 235.806 16.9192C227.191 14.5991 218.419 12.9088 209.559 11.8617C210.282 11.486 211.036 11.1751 211.813 10.9326C215.487 9.87508 219.321 9.48324 223.134 9.77564H223.125ZM179.832 9.20591C179.639 9.70552 180.305 10.2928 180.814 10.6784C178.946 10.7398 177.078 10.8362 175.228 10.9589C176.662 10.1318 178.219 9.53992 179.84 9.20591H179.832ZM141.651 11.5199C142.01 11.5199 144.737 11.5199 147.631 11.6514C150.075 11.6902 152.506 12.0137 154.874 12.6155C155.23 12.7354 155.537 12.9658 155.751 13.2729C153.506 13.6673 151.262 14.0618 149.043 14.5351L148.368 12.0107L148.122 14.7454C145.939 15.2188 143.738 15.7008 141.607 16.253C141.054 14.2984 140.993 12.4841 141.659 11.5199H141.651ZM108.459 23.0197L110.344 23.3528L112.975 21.4683C114.291 20.5216 115.659 19.7152 115.659 19.7152C114.536 21.4244 112.563 24.3432 110.397 27.3584C107.301 28.7783 104.259 30.2772 101.242 31.8549C102.906 28.3727 105.385 25.3422 108.468 23.0197H108.459ZM62.64 53.8377C62.5962 54.0606 62.5962 54.2898 62.64 54.5126C62.3769 54.3461 61.7893 54.6178 62.64 53.8377ZM52.266 65.355C52.4764 66.1001 53.3007 66.626 54.2303 67.1607C53.1253 68.3001 52.0117 69.4308 50.9418 70.6053C51.1698 69.6587 51.3978 68.7734 51.5907 67.9758L52.266 65.355ZM4.69301 158.756C4.85086 156.819 5.1227 154.899 5.1227 154.899C5.55239 154.023 5.86808 154.899 6.16623 156.258C6.16623 155.723 6.16623 155.215 6.16623 154.811C6.61346 153.786 6.96422 153.444 7.24483 153.505C6.95545 154.741 6.64852 155.968 6.36791 157.213C6.29776 156.898 6.22762 156.547 6.16623 156.258C6.16623 156.801 6.16623 157.441 6.16623 158.011C6.16623 158.58 5.95578 159.185 5.84178 159.764C5.22793 160.886 4.69299 161.894 4.39484 162.595L4.69301 158.756ZM233.192 380.626L231.842 380.565C234.569 379.531 233.859 380.057 233.166 380.626H233.192Z" fill="#BD7E32"/>
</svg>
