<svg width="63" height="51" viewBox="0 0 63 51" fill="none" xmlns="http://www.w3.org/2000/svg">
<path id="&#226;&#128;&#156;" d="M15.9031 51C12.9698 51 10.5698 50.4 8.70313 49.2C6.83646 48 5.30313 46.4667 4.10313 44.6C2.63646 42.4667 1.70313 40.1333 1.30313 37.6C0.903126 35.0667 0.703126 33 0.703126 31.4C0.703126 24.8667 2.36979 18.9333 5.70313 13.6C9.03646 8.26666 14.2365 3.93333 21.3031 0.599988L23.1031 4.19999C18.9698 5.93332 15.3698 8.66666 12.3031 12.4C9.36979 16.1333 7.90313 19.9333 7.90313 23.8C7.90313 25.4 8.10313 26.8 8.50313 28C10.6365 26.2667 13.1031 25.4 15.9031 25.4C19.3698 25.4 22.3698 26.5333 24.9031 28.8C27.4365 31.0667 28.7031 34.2 28.7031 38.2C28.7031 41.9333 27.4365 45 24.9031 47.4C22.3698 49.8 19.3698 51 15.9031 51ZM49.9031 51C46.9698 51 44.5698 50.4 42.7031 49.2C40.8365 48 39.3031 46.4667 38.1031 44.6C36.6365 42.4667 35.7031 40.1333 35.3031 37.6C34.9031 35.0667 34.7031 33 34.7031 31.4C34.7031 24.8667 36.3698 18.9333 39.7031 13.6C43.0365 8.26666 48.2365 3.93333 55.3031 0.599988L57.1031 4.19999C52.9698 5.93332 49.3698 8.66666 46.3031 12.4C43.3698 16.1333 41.9031 19.9333 41.9031 23.8C41.9031 25.4 42.1031 26.8 42.5031 28C44.6365 26.2667 47.1031 25.4 49.9031 25.4C53.3698 25.4 56.3698 26.5333 58.9031 28.8C61.4365 31.0667 62.7031 34.2 62.7031 38.2C62.7031 41.9333 61.4365 45 58.9031 47.4C56.3698 49.8 53.3698 51 49.9031 51Z" fill="#45526C"/>
</svg>
