<svg width="71" height="86" viewBox="0 0 71 86" fill="none" xmlns="http://www.w3.org/2000/svg">
    <g id="Frame" clip-path="url(#clip0_40_894)">
    <path id="Vector" d="M60.5943 24.8922C60.5463 24.8439 60.4712 24.859 60.4172 24.8197C60.3631 24.7804 60.3841 24.6414 60.315 24.5749L36.2659 0.398915C36.0149 0.146448 35.6745 0.00463867 35.3196 0.00463867C34.9647 0.00463867 34.6243 0.146448 34.3734 0.398915C34.1224 0.651382 33.9815 0.993809 33.9815 1.35085C33.9815 1.70789 34.1224 2.05032 34.3734 2.30279L58.4226 26.4788C58.4736 26.5271 58.5487 26.512 58.6058 26.5543C58.6629 26.5966 58.6388 26.7296 58.7049 26.7961C64.9167 32.9615 68.4395 41.3569 68.4983 50.1353C68.5572 58.9137 65.1473 67.3562 59.0188 73.6053C52.8904 79.8545 44.5453 83.3985 35.8195 83.4577C27.0936 83.517 18.7018 80.0865 12.49 73.9211C12.427 73.77 12.43 73.5977 12.3068 73.4738C9.2474 70.3995 6.82034 66.7486 5.16441 62.7299C3.50849 58.7113 2.65617 54.4036 2.65617 50.0534C2.65617 45.7031 3.50849 41.3955 5.16441 37.3768C6.82034 33.3581 9.2474 29.7073 12.3068 26.6329L18.3837 20.5194L22.1716 24.3332L15.9385 30.6159C15.9024 30.6491 15.9145 30.7065 15.8844 30.7458C10.9331 35.8714 8.14402 42.7249 8.10091 49.8721C8.0578 57.0193 10.764 63.9063 15.6531 69.0919C15.6772 69.3544 15.7822 69.6027 15.9535 69.8021C21.1341 74.9153 28.1116 77.7643 35.369 77.7296C42.6264 77.6949 49.5767 74.7793 54.7087 69.6167C59.8407 64.4542 62.7394 57.4622 62.7744 50.1611C62.8095 42.86 59.9782 35.8401 54.896 30.628C54.8479 30.5796 54.7788 30.5947 54.7278 30.5585C54.6767 30.4738 54.6917 30.3681 54.6196 30.2955L30.5885 6.11957C30.3357 5.88031 30.0003 5.74935 29.6532 5.7544C29.3062 5.75945 28.9747 5.90009 28.7288 6.14661C28.483 6.39313 28.3422 6.72621 28.336 7.07535C28.3299 7.42448 28.459 7.76231 28.696 8.0174L52.7272 32.2085C52.7752 32.2568 52.8473 32.2417 52.8984 32.281C52.9495 32.3203 52.9314 32.4654 53.0035 32.5349C56.4762 36.0354 58.8398 40.4927 59.796 45.3438C60.7521 50.195 60.2578 55.2224 58.3756 59.7911C56.4933 64.3598 53.3075 68.2649 49.2206 71.0132C45.1336 73.7616 40.3287 75.2298 35.4128 75.2326C28.9739 75.2408 22.7879 72.7122 18.1794 68.1884C18.1133 68.0433 18.1193 67.8862 18.0022 67.7532C13.3496 63.0603 10.7368 56.7026 10.7368 50.0745C10.7368 43.4464 13.3496 37.0888 18.0022 32.3958C18.0022 32.3958 18.0022 32.3596 18.0232 32.3445L24.0671 26.2551L27.861 30.0719L21.6219 36.3547C21.5678 36.4091 21.5828 36.4906 21.5408 36.5511C18.0881 40.1375 16.142 44.9244 16.1067 49.917C16.0715 54.9096 17.9499 59.7238 21.3515 63.3592C21.3735 63.6276 21.4785 63.8823 21.6519 64.0875C25.3035 67.7611 30.2561 69.825 35.4202 69.825C40.5844 69.825 45.537 67.7611 49.1886 64.0875C52.8402 60.4139 54.8916 55.4314 54.8916 50.2362C54.8916 45.0409 52.8402 40.0585 49.1886 36.3849C49.1526 36.3486 49.0985 36.3637 49.0594 36.3305C49.0024 36.2338 49.0174 36.1129 48.9363 36.0283L24.9051 11.8523C24.6542 11.5998 24.3138 11.458 23.9589 11.458C23.604 11.458 23.2636 11.5998 23.0127 11.8523C22.7617 12.1048 22.6207 12.4472 22.6207 12.8042C22.6207 13.1613 22.7617 13.5037 23.0127 13.7562L47.0438 37.9321C47.0769 37.9654 47.1309 37.9533 47.17 37.9835C47.227 38.0802 47.212 38.2011 47.2931 38.2857C50.3899 41.4285 52.1359 45.669 52.1552 50.0942C52.1744 54.5194 50.4654 58.7752 47.396 61.945C44.3267 65.1149 40.1426 66.9452 35.7449 67.0418C31.3473 67.1385 27.0878 65.4937 23.8838 62.4617C23.8177 62.3136 23.8207 62.1413 23.7005 62.0205C22.1397 60.4516 20.9015 58.5887 20.0567 56.5382C19.2119 54.4876 18.7771 52.2897 18.7771 50.07C18.7771 47.8503 19.2119 45.6524 20.0567 43.6018C20.9015 41.5513 22.1397 39.6884 23.7005 38.1195C23.7246 38.0953 23.7156 38.056 23.7396 38.0288L29.7474 31.9848L33.5413 35.8016L27.3142 42.0451C27.2361 42.1236 27.2512 42.2415 27.1971 42.3473C25.2832 44.4157 24.2078 47.1296 24.1822 49.9554C24.1566 52.7812 25.1828 55.5143 27.0589 57.6174C27.0807 57.8859 27.1857 58.1406 27.3593 58.3457C29.5019 60.4916 32.4032 61.6946 35.4265 61.6909C38.4498 61.6872 41.3482 60.4771 43.4856 58.326C45.623 56.1749 46.8249 53.2586 46.8274 50.2171C46.83 47.1756 45.633 44.2572 43.4992 42.1025C43.4692 42.0723 43.4241 42.0814 43.3911 42.0572C43.334 41.9544 43.349 41.8275 43.2619 41.755L19.2308 17.5608C18.9791 17.3086 18.6383 17.1669 18.2831 17.1669C17.9278 17.1669 17.587 17.3086 17.3353 17.5608C17.1649 17.7596 17.06 18.0067 17.0349 18.268C16.9448 18.3194 16.8337 18.3043 16.7586 18.3828L10.2641 24.9134C10.2641 24.9134 10.2641 24.9436 10.2641 24.9557C3.73918 31.603 0.0604677 40.5562 0.0155529 49.8983C-0.029362 59.2404 3.56312 68.229 10.0238 74.9395C10.0541 75.1602 10.1422 75.3688 10.2792 75.5439C16.9582 82.2428 26.007 86.0011 35.4382 85.9933C44.8695 85.9856 53.9122 82.2124 60.5803 75.5025C67.2484 68.7926 70.9967 59.6946 71.0022 50.2065C71.0077 40.7184 67.2698 31.6159 60.6094 24.8983L60.5943 24.8922ZM41.6068 56.4389C40.0125 58.0272 37.8705 58.9354 35.6271 58.9742C33.3836 59.013 31.2118 58.1795 29.5642 56.6474C29.5011 56.5234 29.5131 56.3784 29.411 56.2787C28.5991 55.4626 27.9552 54.4935 27.5158 53.4269C27.0764 52.3603 26.8502 51.217 26.8502 50.0624C26.8502 48.9079 27.0764 47.7646 27.5158 46.698C27.9552 45.6313 28.5991 44.6623 29.411 43.8462C29.456 43.8008 29.441 43.7374 29.4771 43.689L35.4488 37.6753L41.3725 43.6377C41.4025 43.6679 41.4506 43.6558 41.4836 43.683C41.5407 43.7858 41.5257 43.9127 41.6128 43.9852C43.2513 45.6386 44.1709 47.8785 44.1698 50.2133C44.1687 52.5481 43.2469 54.787 41.6068 56.4389Z" fill="#45526C"/>
    </g>
    <defs>
    <clipPath id="clip0_40_894">
    <rect width="71" height="86" fill="white"/>
    </clipPath>
    </defs>
</svg>
